<svg width="32" height="88" viewBox="0 0 32 88" fill="none" xmlns="http://www.w3.org/2000/svg">
<path d="M9.40962 87.822C7.11362 87.822 5.30962 87.207 3.99762 85.977C2.68562 84.747 2.02962 83.189 2.02962 81.303C2.02962 79.909 2.43962 78.556 3.25962 77.244C5.47362 73.636 6.58062 69.167 6.58062 63.837V28.29C6.58062 24.6 6.29362 21.894 5.71962 20.172C5.22762 18.45 4.12062 16.687 2.39862 14.883C1.16862 13.489 0.553619 12.136 0.553619 10.824C0.553619 9.26602 1.08662 8.03602 2.15262 7.13402C3.21862 6.23202 4.89962 5.41201 7.19562 4.67401L19.9876 0.615015C20.6436 0.451017 21.1766 0.369019 21.5866 0.369019C22.9806 0.369019 24.1696 0.943019 25.1536 2.09102C26.2196 3.23902 26.7526 4.59202 26.7526 6.15002V63.837C26.7526 66.789 26.9986 69.331 27.4906 71.463C28.0646 73.513 28.9256 75.44 30.0736 77.244C30.8936 78.556 31.3036 79.909 31.3036 81.303C31.3036 83.189 30.6476 84.747 29.3356 85.977C28.0236 87.207 26.2196 87.822 23.9236 87.822H9.40962Z" fill="#003227"/>
</svg>
