<svg width="61" height="88" viewBox="0 0 61 88" fill="none" xmlns="http://www.w3.org/2000/svg">
<path d="M12.1702 87.822C8.72624 87.822 5.97924 86.797 3.92924 84.747C1.87924 82.697 0.854241 80.278 0.854241 77.49C0.854241 75.44 1.42824 73.554 2.57624 71.832C3.72424 70.11 5.36424 68.429 7.49624 66.789L18.1972 58.794C25.4952 53.382 30.8662 47.97 34.3102 42.558C37.7542 37.064 39.4762 31.816 39.4762 26.814C39.4762 23.534 38.4102 20.705 36.2782 18.327C34.2282 15.949 31.8092 14.76 29.0212 14.76C26.3972 14.76 24.1832 15.375 22.3792 16.605C20.5752 17.835 19.6732 19.475 19.6732 21.525C19.6732 22.427 20.1242 23.78 21.0262 25.584C22.1742 27.716 22.7482 29.561 22.7482 31.119C22.7482 33.743 21.8872 35.875 20.1652 37.515C18.4432 39.073 15.9422 39.852 12.6622 39.852C8.97224 39.852 5.93824 38.417 3.56024 35.547C1.26424 32.677 0.116241 29.069 0.116241 24.723C0.116241 20.459 1.26424 16.441 3.56024 12.669C5.93824 8.815 9.38224 5.74 13.8922 3.444C18.4022 1.148 23.7322 0 29.8822 0C35.7042 0 40.7882 1.107 45.1342 3.321C49.5622 5.535 52.9652 8.61 55.3432 12.546C57.7212 16.482 58.9102 21.033 58.9102 26.199C58.9102 33.087 56.1632 40.139 50.6692 47.355C45.1752 54.571 37.4262 62.033 27.4222 69.741C27.0122 70.069 26.8072 70.479 26.8072 70.971C26.8072 71.381 26.9302 71.709 27.1762 71.955C27.5042 72.201 27.9142 72.324 28.4062 72.324H34.8022C37.7542 72.324 40.1322 71.955 41.9362 71.217C43.7402 70.397 45.2572 69.003 46.4872 67.035L49.1932 62.607C50.1772 61.049 51.6942 60.27 53.7442 60.27C55.4662 60.27 56.9832 60.885 58.2952 62.115C59.6072 63.345 60.1812 64.903 60.0172 66.789L58.9102 79.089C58.6642 81.713 57.5982 83.845 55.7122 85.485C53.9082 87.043 51.6942 87.822 49.0702 87.822H12.1702Z" fill="#003227"/>
</svg>
