<svg width="63" height="89" viewBox="0 0 63 89" fill="none" xmlns="http://www.w3.org/2000/svg">
<path d="M31.3669 88.191C24.7249 88.191 19.0259 87.043 14.2699 84.747C9.59588 82.451 6.06988 79.417 3.69188 75.645C1.31388 71.873 0.124878 67.896 0.124878 63.714C0.124878 59.532 1.35488 56.088 3.81488 53.382C6.35688 50.594 9.43188 49.2 13.0399 49.2C16.3199 49.2 18.8619 50.02 20.6659 51.66C22.4699 53.218 23.3719 55.309 23.3719 57.933C23.3719 58.835 23.2079 59.737 22.8799 60.639C22.6339 61.541 22.3469 62.361 22.0189 63.099C21.2809 64.411 20.9119 65.6 20.9119 66.666C20.9119 68.88 21.7729 70.684 23.4949 72.078C25.2169 73.472 27.6359 74.169 30.7519 74.169C34.9339 74.169 38.0499 73.021 40.0999 70.725C42.1499 68.347 43.1749 65.231 43.1749 61.377C43.1749 53.751 37.5579 47.642 26.3239 43.05C25.0119 42.476 23.9869 41.697 23.2489 40.713C22.5929 39.729 22.2649 38.663 22.2649 37.515C22.2649 36.121 22.8389 34.768 23.9869 33.456C27.8409 29.11 31.8589 23.903 36.0409 17.835C36.2869 17.425 36.4099 17.056 36.4099 16.728C36.4099 15.826 35.7949 15.375 34.5649 15.375H27.0619C21.4859 15.375 17.7139 17.179 15.7459 20.787L13.6549 23.985C13.1629 24.887 12.4659 25.584 11.5639 26.076C10.6619 26.568 9.63688 26.814 8.48888 26.814C6.68488 26.814 5.08588 26.24 3.69188 25.092C2.37988 23.944 1.84688 22.468 2.09288 20.664L3.32288 9.10202C3.65088 6.47802 4.71688 4.38702 6.52088 2.82902C8.32488 1.18902 10.5389 0.369019 13.1629 0.369019H48.8329C52.2769 0.369019 54.8599 1.27102 56.5819 3.07502C58.3859 4.79702 59.2879 7.13402 59.2879 10.086C59.2879 12.054 58.8779 13.776 58.0579 15.252C57.3199 16.646 55.9669 18.409 53.9989 20.541C50.3909 24.477 47.1929 28.249 44.4049 31.857C43.9949 32.267 43.7899 32.677 43.7899 33.087C43.7899 33.661 44.2409 34.153 45.1429 34.563C50.5549 36.859 54.8189 40.18 57.9349 44.526C61.0509 48.79 62.6089 54.202 62.6089 60.762C62.6089 66.174 61.2149 70.971 58.4269 75.153C55.6389 79.335 51.8669 82.574 47.1109 84.87C42.3549 87.084 37.1069 88.191 31.3669 88.191Z" fill="#003227"/>
</svg>
