<svg width="75" height="91" viewBox="0 0 75 91" fill="none" xmlns="http://www.w3.org/2000/svg">
<path d="M39.421 91C37.0059 91 35.1084 90.3573 33.7283 89.072C32.3483 87.7867 31.6583 86.1587 31.6583 84.1879C31.6583 82.7312 32.0896 81.3173 32.9521 79.9463C34.1596 78.1469 35.0221 76.5188 35.5396 75.0621C36.1434 73.6055 36.4453 71.8489 36.4453 69.7924V68.5071C36.4453 67.8216 36.2297 67.2646 35.7984 66.8362C35.3671 66.4077 34.8065 66.1935 34.1165 66.1935H9.27586C6.17078 66.1935 3.75572 65.2938 2.03068 63.4943C0.391885 61.6949 -0.255006 59.3814 0.0900023 56.5537C0.952524 48.242 4.14385 39.6733 9.66399 30.8475C15.1841 22.0217 21.3943 14.6954 28.2945 8.86864C35.2809 2.95621 41.0166 0 45.5018 0H49.1243C51.6257 0 53.6526 0.81403 55.2051 2.44209C56.8439 3.98446 57.6633 5.99812 57.6633 8.48305V49.4845C57.6633 50.17 57.8789 50.7269 58.3102 51.1554C58.7415 51.5838 59.3021 51.798 59.9921 51.798C61.3722 51.798 62.4934 51.6266 63.356 51.2839C64.3047 50.9411 65.1672 50.427 65.9435 49.7415C66.806 49.1417 67.4961 48.7133 68.0136 48.4562C68.6173 48.1992 69.3936 48.0706 70.3424 48.0706C73.0162 48.0706 74.4825 49.5701 74.7412 52.5692C74.9137 54.283 75 56.4251 75 58.9958C75 61.5664 74.9137 63.7514 74.7412 65.5508C74.4825 68.5499 73.0162 70.0494 70.3424 70.0494C69.3936 70.0494 68.6173 69.9209 68.0136 69.6638C67.4961 69.4068 66.806 68.9783 65.9435 68.3785C65.081 67.693 64.2185 67.1789 63.356 66.8362C62.4934 66.4077 61.3722 66.1935 59.9921 66.1935C59.3021 66.1935 58.7415 66.4077 58.3102 66.8362C57.8789 67.2646 57.6633 67.8216 57.6633 68.5071V69.7924C57.6633 71.8489 57.9221 73.6055 58.4396 75.0621C59.0434 76.5188 59.949 78.1469 61.1565 79.9463C62.019 81.3173 62.4503 82.7312 62.4503 84.1879C62.4503 86.1587 61.7603 87.7867 60.3803 89.072C59.0002 90.3573 57.1027 91 54.6876 91H39.421ZM34.1165 51.798C34.8065 51.798 35.3671 51.5838 35.7984 51.1554C36.2297 50.7269 36.4453 50.17 36.4453 49.4845V27.1201C36.4453 25.5777 36.014 24.8065 35.1515 24.8065C34.7202 24.8065 34.289 25.0207 33.8577 25.4491C30.9251 28.0198 28.122 31.533 25.4481 35.9887C22.7743 40.4444 20.7905 44.8573 19.4967 49.2274L19.3674 49.8701C19.3674 50.4699 19.5399 50.9411 19.8849 51.2839C20.3161 51.6266 20.8768 51.798 21.5668 51.798H34.1165Z" fill="#003227"/>
</svg>
