<svg width="92" height="110" viewBox="0 0 92 110" fill="none" xmlns="http://www.w3.org/2000/svg">
<path d="M24.1922 0.00573422C26.0465 0.751182 27.3231 2.00984 27.7476 4.15444C28.9462 3.22263 30.1362 2.65781 31.5861 2.70942C34.3934 2.8069 36.6578 5.40163 36.2621 8.15406C36.1899 8.65007 36.1726 9.15754 36.0426 9.63635C35.7884 10.5739 36.1263 10.5596 36.8946 10.3245C40.0688 9.34391 43.087 11.3394 43.3642 14.5678C43.4364 15.3992 43.2169 16.1963 43.0003 16.9934C41.0508 24.1353 38.8846 31.2142 36.6953 38.2874C36.1119 40.1711 35.8 42.1092 35.696 44.0847C35.6613 44.7556 35.826 45.2028 36.4498 45.5784C37.6224 46.2866 38.0961 47.4134 38.0961 48.7638C38.0903 52.4824 38.1134 56.2039 38.0817 59.9226C38.0759 60.6823 38.255 61.1755 38.9886 61.5425C40.3576 62.2277 40.9237 63.6039 41.6371 64.8425C41.8999 65.2984 42.0385 65.8317 42.5469 66.2675C43.0003 64.8454 42.5815 63.5208 42.4111 62.2105C41.7699 57.3221 41.0277 52.448 40.424 47.5567C40.1843 45.6272 41.0334 44.0388 42.6884 42.9923C44.3404 41.9487 46.0849 41.9257 47.8179 42.8547C48.1616 43.0382 48.4764 43.2761 49.0251 43.6345C48.8287 41.8569 49.3082 40.4205 50.3248 39.1418C50.6685 38.7117 50.1775 38.3418 49.9494 38.0121C49.1089 36.8022 48.5341 35.5263 48.7334 34.0096C49.0367 31.6959 50.5328 30.033 52.774 29.5369C54.8911 29.0667 57.0342 29.9641 58.2501 31.8851C58.8364 32.8112 59.3419 33.7889 59.9628 34.8812C60.4192 34.0584 60.2863 33.3445 60.1997 32.6793C59.5007 27.4038 58.7989 22.1255 58.0248 16.8615C57.6927 14.6051 58.3165 12.7873 60.2719 11.5975C62.2618 10.3875 64.2576 10.614 66.1147 12.0103C66.1898 12.0677 66.2967 12.0849 66.3949 12.125C67.0101 8.30028 68.2202 6.68323 70.6666 6.39652C73.4248 6.07254 75.0942 7.23371 76.495 10.5166C77.6012 9.65642 78.7882 9.09447 80.241 9.14608C83.0512 9.24642 85.3012 11.8354 84.9084 14.5993C84.8073 15.3046 84.4029 16.2106 84.6975 16.6722C85.1394 17.3661 85.9337 16.5346 86.598 16.4715C89.7346 16.1734 92.4784 18.8684 91.9296 21.9706C91.3751 25.1044 90.2833 28.1149 89.4515 31.1827C89.001 32.8399 88.5013 34.4827 87.9959 36.1227C87.5973 37.4186 86.7251 37.9835 85.7026 37.6595C84.6542 37.3298 84.2874 36.4553 84.6658 35.1249C85.9164 30.7211 87.1698 26.3201 88.4349 21.9219C88.6226 21.2711 88.5302 20.7034 87.9959 20.2762C87.5338 19.9063 86.9879 19.9149 86.4593 20.1328C85.9452 20.345 85.7691 20.8267 85.5958 21.3055C84.7004 23.7597 83.7993 26.2111 82.8953 28.6625C82.4303 29.924 81.6562 30.4802 80.7031 30.2509C79.6922 30.01 79.2503 29.1442 79.4496 27.7765C80.0908 23.43 80.7349 19.0835 81.3761 14.7369C81.3876 14.6653 81.3992 14.5964 81.405 14.5248C81.5147 13.4496 81.0381 12.7042 80.163 12.5866C79.3659 12.4805 78.7045 13.0826 78.5514 14.1119C77.8813 18.6362 77.2257 23.1605 76.5585 27.6848C76.4921 28.1435 76.4286 28.6109 76.2841 29.0495C76.0242 29.8466 75.435 30.3225 74.5859 30.2738C73.7541 30.2251 73.1562 29.7549 73.006 28.9062C72.902 28.3127 72.8674 27.6991 72.8645 27.0913C72.8529 22.2258 72.8587 17.3632 72.8587 12.4977C72.8587 12.1766 72.8645 11.8526 72.8529 11.5315C72.8096 10.4248 72.3331 9.81124 71.5042 9.79117C70.603 9.76824 70.0456 10.3875 70.0427 11.5258C70.0283 16.7468 70.0369 21.9706 70.0312 27.1917C70.0312 27.6905 70.0283 28.198 69.9445 28.6883C69.7828 29.6631 69.0607 30.334 68.2087 30.2824C67.2585 30.2251 66.6866 29.666 66.5249 28.7485C66.1523 26.6383 65.8057 24.5224 65.4533 22.4065C65.0894 20.2217 64.7342 18.0341 64.3674 15.8494C64.1825 14.7541 63.5355 14.175 62.6806 14.3126C61.7853 14.456 61.3203 15.1183 61.4676 16.2536C61.9037 19.6196 62.386 22.977 62.8482 26.3401C63.1601 28.6051 63.524 30.8644 63.7551 33.138C63.9399 34.9787 63.394 36.6818 62.3081 38.1899C61.0892 39.8815 58.8075 39.8098 57.7158 38.0236C56.9331 36.7391 56.2572 35.3916 55.5092 34.0871C54.8536 32.9431 53.938 32.5904 53.034 33.0979C52.0809 33.6312 51.9538 34.6261 52.6585 35.793C53.3084 36.871 53.9467 37.7598 55.4312 38.0035C57.089 38.2759 58.149 39.5546 58.6314 41.1774C58.8249 41.8254 59.0213 41.8598 59.5642 41.4756C61.3549 40.2055 63.2756 40.0793 65.1241 41.2663C66.9552 42.4418 67.6455 44.1993 67.322 46.364C67.2325 46.9575 66.8137 47.7058 67.1718 48.1215C67.6022 48.6176 68.2722 47.9782 68.8412 47.8836C70.8254 47.5567 72.9974 48.5832 73.9389 50.5299C74.3086 51.2926 74.7649 51.4761 75.5274 51.4531C76.8964 51.4101 78.2655 51.4073 79.6345 51.4531C80.4345 51.4789 80.7695 51.2668 80.8244 50.3894C81.0122 47.379 81.6158 44.4402 82.6556 41.6017C83.0426 40.5409 83.9379 40.0908 84.8506 40.4033C85.7835 40.7244 86.211 41.5989 85.9366 42.6568C85.8297 43.0726 85.6882 43.4797 85.564 43.8897C84.9113 46.0544 84.452 48.2506 84.3336 50.5127C84.299 51.1836 84.4636 51.6309 85.0874 52.0093C86.2601 52.7175 86.7366 53.8472 86.7337 55.1947C86.7279 57.8066 86.7337 60.4157 86.7337 63.0276C86.7337 77.2628 86.6962 91.498 86.7713 105.733C86.7828 108.096 85.408 110.037 82.4592 109.999C73.9216 109.888 65.3811 109.959 56.8407 109.959C56.5172 109.959 56.1908 109.974 55.8673 109.945C54.9229 109.862 54.2239 109.139 54.2297 108.268C54.2326 107.396 54.9315 106.648 55.8818 106.611C57.0342 106.565 58.1866 106.59 59.339 106.59C61.069 106.59 62.7991 106.547 64.5262 106.608C65.4447 106.639 65.6988 106.289 65.693 105.424C65.6642 99.9875 65.6786 94.5515 65.6786 89.1126C65.6786 88.5392 65.6439 87.9657 65.6844 87.3952C65.7479 86.5465 65.3725 86.2741 64.5435 86.277C58.562 86.2971 52.5805 86.2971 46.599 86.277C45.799 86.277 45.4322 86.4748 45.438 87.3608C45.4669 93.4046 45.4669 99.4514 45.438 105.495C45.4351 106.347 45.7441 106.642 46.5788 106.599C47.5839 106.55 48.5977 106.57 49.6057 106.599C50.6916 106.631 51.4541 107.367 51.4281 108.311C51.405 109.222 50.6772 109.928 49.6403 109.948C48.1644 109.977 46.6857 109.994 45.2098 109.939C43.552 109.879 42.0905 108.466 42.0819 106.817C42.0472 99.8786 42.0587 92.9402 42.0761 86.0018C42.0761 84.8836 42.6479 83.9948 43.5895 83.4214C44.326 82.9741 44.3231 82.4609 44.0054 81.7957C43.6559 81.0704 43.1909 80.4224 42.5324 79.9751C41.1172 79.0118 39.5778 78.2376 38.2781 77.0564C37.9864 77.5295 38.099 77.928 38.099 78.3036C38.0903 87.4955 38.0961 96.6875 38.0903 105.879C38.0903 108.629 36.756 109.956 33.992 109.956C27.6148 109.956 21.2376 109.959 14.8604 109.956C12.2581 109.956 10.9353 108.646 10.9324 106.069C10.9295 92.2263 10.9324 78.3839 10.9324 64.5415C10.9324 64.292 10.9237 64.0397 10.944 63.7903C11.0306 62.7925 11.6602 62.1847 12.6076 62.1732C13.5578 62.1618 14.2221 62.761 14.3116 63.7444C14.3492 64.1716 14.329 64.6017 14.329 65.0318C14.329 78.3724 14.329 91.7131 14.329 105.057C14.329 106.075 14.8459 106.586 15.8799 106.588C21.6448 106.588 27.4097 106.562 33.1746 106.611C34.2779 106.619 34.5811 106.287 34.5754 105.211C34.5407 94.6948 34.5494 84.1812 34.5638 73.6646C34.5638 72.9134 34.379 72.2798 33.9457 71.6662C33.2612 70.7 32.6056 69.7166 31.9904 68.7045C30.4019 66.0926 31.0893 63.1251 33.6887 61.5224C34.3212 61.1325 34.5754 60.7082 34.5696 59.977C34.5407 56.5422 34.5378 53.1103 34.5696 49.6755C34.5783 48.8011 34.275 48.4713 33.3796 48.4771C27.3981 48.5029 21.4166 48.5 15.4351 48.4771C14.5889 48.4742 14.303 48.7781 14.3145 49.6124C14.3521 52.1527 14.3347 54.6901 14.3232 57.2304C14.3174 58.5836 13.7513 59.2717 12.6711 59.2947C11.5476 59.3176 10.9382 58.6037 10.9324 57.2074C10.9237 54.346 10.9411 51.4847 10.9266 48.6233C10.9209 47.2585 11.4321 46.1633 12.6307 45.4867C13.2343 45.1455 13.2141 44.7556 13.0033 44.2481C12.596 43.2618 11.9982 42.3845 11.0306 41.9057C6.03399 39.4399 3.32772 34.9214 0.633016 30.4315C-0.747553 28.1292 0.23733 25.0471 2.54791 23.6995C4.95957 22.2918 7.90266 22.9655 9.50851 25.2764C10.1757 26.2369 10.5309 27.3866 11.3916 28.3958C11.874 27.034 11.4783 25.8126 11.3223 24.6141C10.6725 19.6569 9.92731 14.7083 9.30634 9.74817C9.0695 7.86735 9.8551 6.29617 11.4609 5.24107C13.2199 4.0885 15.0539 4.1315 16.8764 5.14646C17.1565 5.30128 17.402 5.51058 17.8266 5.80876C17.6908 2.99613 18.7999 1.02356 21.382 0H24.1922V0.00573422ZM83.1956 80.8066C83.1956 72.6181 83.1841 64.4268 83.213 56.2383C83.2159 55.2779 82.9299 54.8937 81.922 54.9195C79.7269 54.9739 77.5261 54.9825 75.331 54.9166C74.349 54.8879 73.9534 55.252 73.705 56.1724C72.1424 61.9725 70.4442 67.7354 68.5986 73.4524C67.709 76.2135 66.9148 78.9974 66.8281 81.9248C66.8137 82.3864 66.7415 82.868 67.2585 83.1547C68.8383 84.0349 69.2427 85.4484 69.234 87.1458C69.1965 93.224 69.234 99.3052 69.2022 105.383C69.1965 106.315 69.4651 106.625 70.424 106.613C74.2046 106.565 77.9882 106.596 81.7718 106.593C83.1928 106.593 83.1985 106.59 83.1985 105.16C83.1985 97.043 83.1985 88.9234 83.1985 80.8066H83.1956ZM24.3164 13.699C24.3164 11.0527 24.3164 8.40636 24.3164 5.76002C24.3164 5.29555 24.3164 4.83108 24.1605 4.38094C23.915 3.68423 23.4124 3.30004 22.6875 3.38319C21.9914 3.46347 21.4831 3.862 21.4195 4.62751C21.3878 5.01744 21.3878 5.4131 21.3849 5.80589C21.3849 10.8119 21.3849 15.8178 21.3791 20.8267C21.3791 21.2911 21.3675 21.7585 21.304 22.2172C21.1654 23.1892 20.5877 23.8142 19.5942 23.8343C18.6411 23.8543 18.0836 23.2551 17.8786 22.3491C17.7833 21.9305 17.7168 21.5062 17.6475 21.0847C17.015 17.2428 16.394 13.4009 15.7471 9.55894C15.5391 8.32322 14.9413 7.7584 14.0719 7.87021C13.113 7.9935 12.6567 8.73321 12.83 9.99474C13.5549 15.339 14.277 20.6833 15.0395 26.0219C15.3167 27.9543 14.9326 29.7233 13.9246 31.3633C12.5614 33.5767 10.1468 33.5222 8.87022 31.2629C8.16549 30.0158 7.5012 28.7456 6.78203 27.507C6.17262 26.4577 5.20796 26.1652 4.34149 26.7071C3.46636 27.2547 3.29884 28.198 3.9458 29.2302C4.62742 30.3254 5.38703 31.3719 6.05132 32.4786C7.67738 35.1794 9.83488 37.3068 12.6307 38.8264C14.7275 39.9675 16.0272 41.7852 16.5702 44.0904C16.732 44.7699 17.0121 45.0222 17.7255 45.0165C22.1936 44.9878 26.6588 44.9907 31.1268 45.0165C31.8547 45.0193 32.129 44.7871 32.1753 44.0416C32.3514 41.3208 32.8858 38.663 33.7031 36.0596C35.1155 31.5554 36.574 27.0655 37.8188 22.5125C38.46 20.1672 39.1416 17.8334 39.7973 15.491C40.0283 14.6624 39.8348 13.9456 38.9712 13.6532C38.1077 13.3607 37.4116 13.6675 37.0592 14.5592C36.9553 14.8258 36.8686 15.0982 36.7704 15.3677C35.8953 17.7531 35.0346 20.1414 34.1392 22.5183C33.758 23.5332 32.9262 24.0149 32.0597 23.8113C31.1268 23.5934 30.6041 22.7534 30.76 21.6581C31.1817 18.7251 31.6236 15.792 32.0511 12.859C32.2937 11.1989 32.5536 9.53887 32.7616 7.87308C32.8742 6.96421 32.4525 6.28183 31.5312 6.15281C30.6387 6.02666 30.1593 6.63162 29.9427 7.44015C29.8965 7.61217 29.8965 7.7928 29.8705 7.97056C29.1657 12.6698 28.4755 17.3689 27.7505 22.0624C27.5628 23.2809 26.8032 23.9404 25.8587 23.8429C24.8796 23.7397 24.328 23.0057 24.3222 21.7413C24.3106 19.0605 24.3193 16.3769 24.3164 13.6962V13.699ZM52.5054 51.1091H52.5025C52.5025 53.6837 52.5083 56.2584 52.4968 58.8359C52.4968 59.3348 52.4621 59.8423 52.3553 60.324C52.1704 61.1554 51.6043 61.6228 50.7436 61.6428C49.88 61.6629 49.3111 61.1927 49.0598 60.3985C48.9096 59.9254 48.8605 59.4208 48.7767 58.9248C48.124 54.9768 47.4713 51.0288 46.8301 47.0779C46.677 46.1375 46.1369 45.6874 45.1954 45.7505C44.2451 45.8135 43.913 46.4242 43.9217 47.2872C43.9217 47.5367 43.9332 47.789 43.965 48.0355C44.6841 53.3081 45.3831 58.5865 46.1485 63.8534C46.4228 65.7543 46.0358 67.4774 45.0885 69.103C43.783 71.3451 41.354 71.3709 40.0312 69.1489C39.2976 67.9189 38.6507 66.6373 37.9488 65.3901C37.3481 64.3207 36.4412 63.9853 35.5458 64.4669C34.5898 64.9801 34.3674 65.9664 35.0548 67.0445C36.0946 68.6758 37.169 70.2843 38.2694 71.8784C39.5518 73.7363 41.1952 75.2272 43.1996 76.2937C45.5564 77.5467 47.1016 79.4218 47.7254 82.0079C47.8554 82.5469 48.0865 82.7906 48.6699 82.7878C53.2448 82.7734 57.8226 82.7763 62.3976 82.7849C62.9666 82.7849 63.2525 82.6014 63.2814 81.9907C63.4605 78.166 64.5638 74.5391 65.7364 70.9294C67.6282 65.112 69.2629 59.2173 70.8918 53.3253C71.146 52.405 70.8745 51.7255 70.0052 51.4245C69.1589 51.132 68.5466 51.5764 68.1885 52.3563C68.0701 52.6143 67.9892 52.8924 67.891 53.1619C67.0014 55.5789 66.1321 58.0045 65.2136 60.4128C64.8381 61.3991 63.9486 61.8407 63.0734 61.5855C62.181 61.3246 61.6958 60.5075 61.8459 59.4782C62.1434 57.4626 62.4525 55.4527 62.7528 53.4372C63.1283 50.9284 63.5124 48.4226 63.8677 45.911C64.067 44.5004 63.0677 43.6116 61.8979 44.1305C61.2163 44.4316 61.0892 45.0595 60.9939 45.7246C60.3412 50.2489 59.6769 54.7732 58.9982 59.2975C58.744 60.9977 58.1288 61.7088 57.0371 61.6543C55.8847 61.597 55.3417 60.7741 55.3359 59.0022C55.3243 55.3897 55.333 51.7771 55.3301 48.1646C55.3301 46.3411 55.3561 44.5147 55.307 42.6941C55.2752 41.5157 54.3221 40.905 53.3084 41.3437C52.5892 41.6533 52.5054 42.2899 52.5054 42.9608C52.5054 45.6788 52.5054 48.3968 52.5054 51.1148V51.1091Z" fill="#F2E2D1"/>
</svg>
