<svg width="99" height="104" viewBox="0 0 99 104" fill="none" xmlns="http://www.w3.org/2000/svg">
<path d="M39.7209 103.994C37.9687 103.885 36.2165 103.738 34.4643 103.678C28.4758 103.468 22.5103 102.967 16.5506 102.397C11.5448 101.916 7.02313 100.313 3.74933 96.2239C1.33432 93.2078 0.314134 89.6622 0.0576478 85.8778C-0.152729 82.784 0.219033 79.7507 1.06918 76.7548C3.16431 69.3585 4.37181 61.781 5.53609 54.2005C6.5361 47.6907 7.35455 41.1521 8.10095 34.6105C8.74361 29.0072 9.25947 23.3896 9.80414 17.7747C10.173 13.9759 10.467 10.1713 10.8387 6.37243C11.199 2.64265 14.1241 0.0266207 17.8878 0.00647531C19.2769 -0.00215844 20.6659 -0.00215844 22.055 0.00647531C24.1559 0.017987 25.2971 1.14613 25.3432 3.27003C25.4095 6.33789 25.9253 9.32805 27.0521 12.1858C29.7092 18.9317 34.6286 23.3636 41.4903 25.4386C50.2195 28.0806 58.4127 26.8344 65.6029 21.0066C70.3638 17.1473 72.7269 11.9239 73.4099 5.90045C73.5194 4.92771 73.5598 3.94634 73.6203 2.97073C73.7269 1.18067 74.9085 0.0323766 76.6982 0.0122311C78.1881 -0.00503635 79.678 0.00071948 81.1679 0.0122311C84.8827 0.0410103 87.8308 2.74625 88.1305 6.47028C88.7818 14.5515 89.5282 22.624 90.4245 30.6793C91.9346 44.2429 93.56 57.795 96.4764 71.1515C97.1162 74.0869 98.024 76.9706 98.5802 79.9205C99.318 83.8316 99.1047 87.7427 97.7704 91.5271C95.6407 97.5707 91.1363 100.817 85.0152 102.008C81.7587 102.642 78.433 102.786 75.1304 103.033C70.0007 103.416 64.8709 103.787 59.7268 103.885C59.5625 103.888 59.4012 103.96 59.2369 104H39.7266L39.7209 103.994ZM95.1911 84.0762C95.2286 82.5941 95.1537 81.0026 94.7387 79.4571C93.5686 75.1143 92.5023 70.7514 91.681 66.3309C90.3726 59.2887 89.3236 52.2061 88.3957 45.1034C87.4965 38.2367 86.7386 31.3556 86.0383 24.4688C85.436 18.5546 84.9432 12.6319 84.3927 6.71202C84.2458 5.14068 83.2285 4.07009 81.6636 3.73338C80.7558 3.53768 79.8423 3.61538 78.9287 3.60675C77.3466 3.59524 77.3466 3.60387 77.2082 5.20399C77.1996 5.30472 77.1938 5.40545 77.1909 5.50905C77.0987 9.13811 76.5829 12.7125 75.7385 16.2379C74.0699 23.1996 71.1995 29.5569 65.9949 34.6393C61.6577 38.8727 56.5078 41.5089 50.3578 41.7161C42.646 41.9751 36.4442 38.7001 31.4528 33.045C25.8273 26.6733 23.3144 18.9576 22.1991 10.7037C21.9195 8.63159 21.81 6.53359 21.6285 4.44998C21.591 4.02117 21.5478 3.60963 20.9772 3.62114C19.6601 3.64416 18.3316 3.47724 17.029 3.79669C15.7149 4.11902 14.6976 5.24141 14.5708 6.57964C14.0924 11.6217 13.6514 16.6696 13.1586 21.7117C12.686 26.5524 12.2076 31.393 11.6543 36.2251C10.9627 42.2313 10.2018 48.2289 9.29405 54.2063C8.17012 61.591 7.00872 68.97 5.0404 76.1849C4.17008 79.3737 3.61676 82.5595 3.77238 85.8835C4.07498 92.33 7.74648 96.929 14.0866 98.2384C18.931 99.2399 23.8965 99.3032 28.8187 99.6687C32.0234 99.9076 35.2367 100.046 38.4499 100.152C42.7468 100.293 47.0466 100.492 51.3406 100.431C58.649 100.331 65.9545 100.046 73.2428 99.4673C76.8163 99.1824 80.4042 99.0155 83.9461 98.4427C87.8539 97.8125 91.1507 96.1087 93.2372 92.5747C94.7617 89.9932 95.2603 87.1527 95.194 84.0819L95.1911 84.0762ZM69.9546 22.083C64.0467 27.6172 57.3377 30.4002 49.4702 30.3973C41.6056 30.3973 34.8908 27.6115 29.032 22.1261C30.8043 26.4977 33.5018 30.2793 36.8303 33.1572C43.816 39.2008 53.1244 39.6901 60.6 34.3371C64.8681 31.2808 67.7759 27.1395 69.9517 22.083H69.9546Z" fill="#F2E2D1"/>
<path d="M11.1067 80.3032C10.7436 81.6271 10.6543 83.1409 10.6831 84.6662C10.7724 89.2651 12.467 91.1731 17.0261 91.7487C17.5391 91.812 18.0463 91.8811 18.4469 92.2236C19.1126 92.7963 19.2884 93.5388 18.9656 94.3331C18.6198 95.1878 17.882 95.5677 17.0031 95.467C10.7552 94.7561 7.59374 92.0624 6.98279 85.5871C6.79258 83.561 6.93668 81.5292 7.53322 79.5636C7.84158 78.5535 8.73496 78.0239 9.62546 78.2196C10.5217 78.4182 11.1413 79.2183 11.1067 80.3004V80.3032Z" fill="#F2E2D1"/>
<path d="M88.2285 84.0445C88.3207 82.8185 88.1161 81.6271 87.8798 80.427C87.6781 79.3996 88.289 78.5074 89.2516 78.2484C90.1507 78.0067 91.119 78.4815 91.3842 79.4974C92.3842 83.3337 92.4015 87.144 90.5254 90.7472C88.9893 93.6971 86.1997 94.7705 83.1276 95.3116C82.7616 95.3749 82.3927 95.4324 82.0239 95.4699C80.9028 95.585 80.0296 94.9576 79.8682 93.9359C79.7068 92.8941 80.3149 92.0595 81.4417 91.8207C82.0037 91.7027 82.5801 91.6537 83.142 91.5415C86.4158 90.8968 87.9922 89.1097 88.2199 85.7684C88.2602 85.1957 88.2256 84.6201 88.2256 84.0445H88.2285Z" fill="#F2E2D1"/>
</svg>
