<svg width="95" height="102" viewBox="0 0 95 102" fill="none" xmlns="http://www.w3.org/2000/svg">
<path d="M41.3778 102C39.3828 101.764 37.3849 101.548 35.3899 101.286C30.1312 100.594 25.0016 99.3438 20.0069 97.5635C18.5344 97.0391 17.036 96.9786 15.5289 96.8922C11.5935 96.6675 7.70683 96.1086 3.90915 95.0427C0.519092 94.092 -1.04246 90.4477 0.751603 87.4372C5.29274 79.8202 7.9623 71.5204 9.75062 62.9124C10.9677 57.0441 12.4833 51.3025 15.2189 45.9383C19.9897 36.587 26.8129 29.1342 35.7488 23.6577C36.564 23.1564 36.7276 22.7646 36.3573 21.8715C34.79 18.1091 33.306 14.3122 31.7932 10.5267C30.7024 7.79563 31.5205 5.26335 34.0064 3.73937C35.8119 2.63311 37.6347 1.55567 39.4402 0.449415C39.9368 0.144043 40.4506 0 41.0333 0C45.3621 0.0086426 49.6936 0.0086426 54.0224 0C54.6079 0 55.1189 0.152686 55.6155 0.455177C57.4239 1.55855 59.2495 2.63023 61.0522 3.73937C63.5036 5.24606 64.3447 7.74953 63.2826 10.4403C61.7871 14.2315 60.3002 18.0285 58.7185 21.7851C58.3023 22.779 58.5319 23.1766 59.3902 23.7153C72.1725 31.7472 80.497 43.1007 84.1454 57.7816C85.5921 63.6009 86.6485 69.5125 88.6521 75.1878C90.1017 79.293 91.8269 83.2657 94.063 87.0108C96.1556 90.5169 94.6227 94.1842 90.6643 95.1983C86.2954 96.3161 81.8375 96.826 77.3423 97.0334C76.8084 97.0593 76.2975 97.1371 75.7922 97.3157C68.7825 99.8192 61.5746 101.381 54.1458 101.879C53.985 101.891 53.8272 101.96 53.6693 102H41.3721H41.3778ZM47.5063 98.5804C49.8142 98.4537 52.125 98.3557 54.43 98.1944C61.4283 97.7018 68.2113 96.1979 74.8048 93.8068C75.6229 93.5101 76.4525 93.3891 77.3222 93.366C81.5275 93.2479 85.6811 92.7063 89.7658 91.6923C91.3647 91.2947 91.7666 90.3066 90.9571 88.8661C90.0471 87.25 89.1257 85.6395 88.3335 83.9571C85.0152 76.9278 82.9025 69.5153 81.3782 61.9185C78.4302 47.2059 70.789 35.6565 58.354 27.2876C57.1225 26.4579 56.1121 25.9941 54.9495 27.2501C54.8003 27.4143 54.5678 27.5209 54.3553 27.6016C53.7124 27.8407 53.7726 28.1634 54.1515 28.6272C55.294 30.0273 55.9399 31.6463 56.0719 33.4469C56.115 34.0547 56.3475 34.3832 56.8642 34.6799C58.9481 35.8841 59.9069 38.209 59.3012 40.4589C58.6726 42.7953 56.7407 44.3193 54.384 44.3337C52.0101 44.3481 49.9692 42.8558 49.3176 40.6231C48.6545 38.3588 49.5673 35.9359 51.6714 34.7231C52.4551 34.2708 52.5297 33.7234 52.3747 32.9917C51.9011 30.7475 49.7855 29.0449 47.5063 29.0622C45.2358 29.0795 43.1977 30.7187 42.6925 32.9341C42.5174 33.7062 42.5978 34.2737 43.4187 34.7433C45.2099 35.7717 46.0395 37.4542 45.9362 39.4909C45.8099 41.9397 43.8493 43.9937 41.5185 44.302C38.9896 44.6362 36.6931 43.2476 35.8808 40.8939C35.0426 38.4625 35.9583 35.9763 38.2231 34.6568C38.6996 34.3803 38.9436 34.0807 38.9752 33.5045C39.0498 32.1966 39.4747 30.9866 40.0717 29.817C40.399 29.1745 41.352 28.6589 41.1195 28.0337C40.9128 27.4835 39.9512 27.2559 39.4144 26.7777C38.8116 26.2418 38.3466 26.2764 37.6806 26.697C27.321 33.2395 20.0615 42.2825 15.8504 53.8117C14.3406 57.9429 13.6918 62.2844 12.6613 66.5308C10.7926 74.2313 8.30676 81.6956 4.25648 88.5579C3.19727 90.3555 3.58766 91.2745 5.63433 91.7585C8.82058 92.5133 12.047 92.9743 15.3165 93.245C16.9154 93.3776 18.543 93.1615 20.1217 93.7463C28.9571 97.0132 38.1112 98.4825 47.5121 98.5747L47.5063 98.5804ZM47.5494 3.53771C46.361 3.53771 45.1697 3.57516 43.9814 3.5233C43.2006 3.48873 43.0858 3.79122 43.2752 4.46534C43.5881 5.58312 43.8694 6.70666 44.1249 7.83884C44.4062 9.08049 43.8981 10.0485 42.8848 10.2847C41.8141 10.5325 40.9817 9.97645 40.6372 8.73191C40.3358 7.64582 40.0545 6.55397 39.8163 5.45348C39.6612 4.73327 39.3685 4.69005 38.8001 5.05592C37.9131 5.62922 36.9859 6.14489 36.0875 6.70378C34.8733 7.45857 34.6982 8.00305 35.2349 9.35706C36.9084 13.5775 38.625 17.7807 40.2468 22.0214C40.7406 23.312 41.5816 24.1532 42.8044 24.6055C45.9591 25.7751 49.1425 25.7722 52.2915 24.5824C53.2531 24.2195 54.1286 23.6606 54.5448 22.6148C56.3331 18.1207 58.1301 13.6294 59.9098 9.12947C60.326 8.07507 60.1279 7.45857 59.1749 6.84206C58.2305 6.23132 57.2402 5.69548 56.2987 5.08185C55.6959 4.69293 55.3801 4.72462 55.2194 5.50246C54.9983 6.57126 54.7199 7.63142 54.43 8.68582C54.0769 9.97933 53.2071 10.5613 52.1164 10.2732C51.1203 10.011 50.6495 9.04593 50.9423 7.78987C51.2035 6.66057 51.4877 5.53415 51.7891 4.41637C51.9585 3.79122 51.8551 3.49737 51.1174 3.52618C49.929 3.57516 48.7378 3.53771 47.5494 3.53771ZM42.305 39.2086C42.3279 38.3415 41.6591 37.6155 40.798 37.5723C39.9339 37.5319 39.2508 38.2061 39.2335 39.1135C39.2192 39.998 39.7933 40.6174 40.6659 40.6606C41.5845 40.7038 42.2791 40.0873 42.3021 39.2086H42.305ZM54.2606 37.578C53.4081 37.5982 52.7163 38.3357 52.745 39.1942C52.7737 40.0902 53.4511 40.7009 54.3697 40.6634C55.2452 40.6289 55.8279 40.0124 55.8193 39.1308C55.8107 38.2262 55.139 37.5579 54.2635 37.578H54.2606Z" fill="#F2E2D1"/>
<path d="M12.3082 79.6934C12.357 79.4975 12.4058 79.2008 12.5006 78.9214C14.4582 73.0329 15.8734 67.0061 17.1364 60.9332C18.1067 56.2662 19.7888 51.8412 22.0651 47.6524C22.3579 47.1108 22.6908 46.6182 23.3195 46.4598C24.0457 46.2783 24.7117 46.4223 25.2025 47.0244C25.7221 47.664 25.702 48.3871 25.3489 49.0813C24.416 50.9136 23.552 52.7717 22.7741 54.6789C21.0977 58.7899 20.3772 63.1486 19.4242 67.4469C18.4942 71.6587 17.3029 75.7956 15.9825 79.898C15.8074 80.4367 15.6179 80.9668 15.1357 81.324C14.5501 81.759 13.9272 81.8368 13.2756 81.5055C12.5781 81.1512 12.2996 80.5519 12.3082 79.6963V79.6934Z" fill="#F2E2D1"/>
<path d="M30.6995 40.5943C30.7168 41.7265 28.7706 44.1234 27.7601 44.2933C27.0856 44.4086 26.5115 44.1925 26.0924 43.6538C25.6819 43.1266 25.4867 42.5101 25.8168 41.8907C26.3479 40.8939 27.0425 40.0037 27.9008 39.2749C28.4491 38.8082 29.1179 38.8024 29.758 39.1568C30.3551 39.4852 30.6479 40.0153 30.6995 40.5943Z" fill="#F2E2D1"/>
</svg>
