<svg width="111" height="103" viewBox="0 0 111 103" fill="none" xmlns="http://www.w3.org/2000/svg">
<path d="M18.7462 103C14.9391 102.281 11.4241 100.926 8.32868 98.5426C-0.0290981 92.0971 -2.48233 80.3835 2.73658 71.2424C6.1821 65.2094 9.347 59.0275 12.6855 52.9372C14.0278 50.4879 15.3123 48.01 16.6604 45.5636C17.0307 44.8904 17.0625 44.3003 16.86 43.5411C16.3219 41.5044 15.2689 39.8715 13.6893 38.4506C11.6874 36.6516 9.8388 34.6865 7.92945 32.7872C6.78383 31.6471 6.66522 30.9252 7.50418 29.553C8.71055 27.5764 10.5418 26.3503 12.6537 25.4709C14.6064 24.6573 16.6662 24.3107 18.752 24.1187C19.4984 24.05 19.8832 23.732 20.2303 23.1018C23.022 18.0457 27.1387 14.7599 33.0057 13.8461C34.0471 13.6828 35.0944 13.7086 36.1387 13.7372C37.8196 13.7831 38.5775 14.7169 38.2304 16.3498C37.6807 18.9337 37.0876 21.509 36.5062 24.0872C36.185 25.5167 35.9681 26.9805 35.5023 28.3613C34.646 30.8965 35.6383 33.2771 35.835 35.7378C36.0896 38.8889 38.3287 40.5762 40.2149 42.5815C40.5563 42.9453 40.834 42.7448 41.1523 42.5271C48.3615 37.5769 56.0047 33.3086 63.4021 28.6535C64.079 28.2295 64.539 27.7454 64.7849 26.9748C65.5457 24.5914 66.3558 22.2252 67.1745 19.859C67.4059 19.1915 67.4175 18.5613 67.2381 17.8709C65.9421 12.8922 64.6721 7.90764 63.3992 2.92314C62.864 0.826207 63.5612 -0.136319 65.7482 0.0155081C74.4792 0.63141 81.8852 3.83696 87.1591 11.0473C87.5728 11.6145 87.9749 11.752 88.6837 11.7176C93.3674 11.4971 97.2353 13.0984 99.9981 16.9571C100.872 18.1774 100.82 18.8764 99.7579 20.0137C96.9894 22.9758 94.2063 25.9264 91.3741 28.8311C90.541 29.6848 90.1446 30.6674 89.7136 31.7445C88.594 34.5404 89.2218 36.7347 90.9402 39.204C96.3616 46.9988 101.482 54.9998 106.733 62.912C108.848 66.0946 110.196 69.5637 110.826 73.3164C110.867 73.5599 110.942 73.8005 111 74.0412V80.2603C110.951 80.4666 110.884 80.6729 110.852 80.882C109.559 88.9489 105.379 95.1165 98.3896 99.4278C95.216 101.387 91.7068 102.407 88.0443 102.989H58.377C55.7849 102.587 53.2101 102.106 50.7193 101.258C50.5312 101.195 50.2796 101.195 50.0944 101.264C47.942 102.103 45.6826 102.522 43.4319 102.986H18.7462V103ZM59.809 99.3132C59.8032 98.8548 59.566 98.7173 59.4011 98.5426C56.7106 95.6722 54.9141 92.332 54.1156 88.4991C53.6788 86.4022 53.3287 84.2737 53.7656 82.1252C53.971 81.1197 54.7289 80.5697 55.7039 80.6356C56.6585 80.7015 57.3066 81.389 57.3586 82.4146C57.376 82.7698 57.3529 83.1279 57.35 83.4859C57.2892 90.1778 60.1677 95.3055 65.7627 98.9923C66.295 99.3447 66.8389 99.5023 67.484 99.4994C70.6229 99.4793 73.7646 99.4908 76.9035 99.4908C81.026 99.4908 81.0086 99.4851 82.6287 95.7238C84.0028 92.5297 84.648 89.1838 84.9489 85.7462C85.0443 84.6519 85.7849 84.0331 86.8061 84.0617C87.81 84.0904 88.5188 84.7894 88.5361 85.8693C88.5477 86.6886 88.5014 87.5137 88.4059 88.3272C87.972 91.9768 87.0029 95.4717 85.2786 98.7431C85.0096 99.2502 84.9662 99.5108 85.7039 99.4707C91.079 99.1786 95.8582 97.3967 99.8794 93.8245C104.852 89.4072 107.366 83.8097 107.419 77.2295C107.456 72.5401 105.917 68.2746 103.284 64.3529C97.7705 56.1399 92.3028 47.8954 86.8987 39.6108C85.9787 38.2014 84.9489 37.2418 83.2912 36.8608C82.0472 36.5743 81.891 36.6316 82.0906 37.9121C82.782 42.3523 83.8003 46.6808 86.4734 50.4507C87.081 51.3072 86.864 52.3614 86.1118 52.9601C85.4175 53.5102 84.2545 53.387 83.5747 52.6107C83.1292 52.1007 82.7531 51.5221 82.4088 50.9377C79.9209 46.718 78.781 42.0658 78.3326 37.279C78.1677 35.5115 77.4763 34.8183 75.8794 34.4057C73.9209 33.9016 73.9643 33.8099 73.1861 35.6662C71.9826 38.5366 71.4185 41.5359 71.2275 44.6268C71.1581 45.7383 70.5448 46.3628 69.6132 46.4488C68.4358 46.5576 67.6345 45.7813 67.6171 44.4693C67.5679 40.6851 68.5313 37.1157 70.053 33.681C70.3914 32.9133 70.3365 32.5208 69.4541 32.3031C68.6181 32.0968 67.7994 31.796 66.9893 31.4952C66.431 31.289 65.9652 31.3692 65.4618 31.6786C58.6605 35.8696 51.6971 39.8257 45.0809 44.2831C35.0047 51.0752 30.3441 60.7778 31.698 72.7578C33.0462 84.6777 39.8591 92.8648 51.0202 97.4569C53.7916 98.597 56.7251 99.19 59.8061 99.3132H59.809ZM45.2169 98.8176C44.6296 98.4624 44.2072 98.2074 43.7849 97.9525C31.0095 90.215 24.8735 74.6141 28.9671 60.3624C30.509 54.9998 33.2053 50.2931 37.0414 46.2339C37.6662 45.575 37.6431 45.1769 37.0124 44.5896C36.2226 43.8591 35.511 43.0484 34.7733 42.2606C34.4579 41.9226 34.1484 41.7307 33.6421 41.9083C32.1117 42.444 30.5698 42.9424 29.0249 43.4352C28.4984 43.6042 28.2901 43.9221 28.2757 44.4607C28.2496 45.3888 28.1976 46.317 28.105 47.2394C27.7318 50.932 26.5833 54.3495 24.3933 57.3946C23.9999 57.9389 23.537 58.3801 22.8311 58.4288C22.0992 58.4803 21.4425 58.2569 21.0664 57.6095C20.6267 56.8503 20.7974 56.0998 21.2978 55.4008C23.0481 52.9573 24.0433 50.2387 24.3557 47.2623C24.6045 44.8818 24.6392 44.9448 22.3422 45.6094C21.0404 45.9847 20.1812 46.6407 19.5678 47.8725C18.1619 50.6885 16.6286 53.4443 15.1185 56.2087C12.0982 61.7375 9.23417 67.3493 6.09241 72.8151C4.24381 76.035 3.47428 79.4983 3.81565 83.2138C4.4955 90.6189 9.62183 96.7894 16.86 98.7832C19.1484 99.4135 21.4888 99.5853 24.0867 99.4364C22.3393 97.6316 20.9304 95.8727 19.8051 93.9076C18.7694 92.0971 17.916 90.2036 17.4357 88.1754C17.158 86.998 17.7337 86.0441 18.7289 85.812C19.7732 85.5686 20.618 86.11 21.0085 87.273C21.0548 87.4077 21.0982 87.5452 21.1387 87.6827C22.5968 92.395 25.3827 96.1506 29.4386 98.9952C29.8928 99.3132 30.3586 99.5023 30.9372 99.4965C33.969 99.4765 37.0009 99.551 40.0298 99.4622C41.6961 99.4135 43.3914 99.3676 45.2111 98.8147L45.2169 98.8176ZM74.5631 14.3417C74.5023 12.6974 75.4715 11.7692 76.7473 12.0471C77.6297 12.239 78.0549 12.8635 78.1996 13.7143C78.6161 16.175 79.0588 18.6329 79.4406 21.0994C79.5766 21.9788 79.918 22.5804 80.7598 23.0073C82.9411 24.113 85.0935 25.2789 87.2227 26.4792C87.8939 26.8574 88.3047 26.7514 88.8023 26.2214C91.079 23.7836 93.3732 21.3629 95.6933 18.9652C96.2198 18.4209 96.2025 18.0571 95.647 17.5644C93.4079 15.5821 90.7724 15.0578 87.891 15.4761C86.1292 15.731 85.7213 15.5649 84.7695 14.0896C80.9363 8.14255 75.1822 5.23778 68.3895 3.98593C67.7039 3.85988 67.4956 4.00025 67.6952 4.75079C68.5342 7.88759 69.3182 11.0416 70.1137 14.1898C70.7309 16.6305 72.1581 18.4114 74.3953 19.5324C74.673 19.6699 74.9768 19.9908 75.2748 19.7673C75.5583 19.5553 75.3818 19.1715 75.3298 18.8592C75.0607 17.2779 74.7945 15.6967 74.5631 14.3388V14.3417ZM33.2834 17.4928C31.5852 17.7363 30.0114 18.3178 28.5679 19.2374C25.9989 20.8731 24.1908 23.1648 22.9844 25.8977C22.374 27.2785 21.4425 27.8858 19.9642 27.7769C19.6055 27.7511 19.2409 27.7655 18.8822 27.7998C16.4579 28.0261 14.1088 28.4673 12.0606 29.9226C11.3026 30.4611 11.1493 30.8478 11.9073 31.5583C13.6633 33.1997 15.3644 34.8985 17.0307 36.6287C17.5948 37.216 18.0404 37.2131 18.7057 36.8407C22.6951 34.6177 26.7019 32.4263 30.7087 30.2348C31.1426 29.997 31.4377 29.7134 31.5505 29.2064C32.3519 25.5826 33.1706 21.9645 33.9893 18.3436C34.1224 17.7535 33.9488 17.4326 33.2834 17.4899V17.4928ZM86.1408 30.8736C86.3114 30.2033 85.9903 29.9827 85.6258 29.785C80.8842 27.224 76.1369 24.6716 71.4069 22.0906C70.6374 21.6695 70.3423 21.8958 70.1108 22.652C69.6856 24.05 69.2574 25.4565 68.6991 26.8058C68.2622 27.8571 68.6152 28.2181 69.6132 28.5361C74.0337 29.9397 78.4339 31.4179 82.8399 32.8674C84.6181 33.4537 85.7068 32.833 86.106 31.0054C86.1292 30.9023 86.1639 30.7991 86.1436 30.8736H86.1408ZM32.4936 37.703C32.3345 36.9324 32.158 36.0558 31.9729 35.1849C31.698 33.9044 31.672 33.8872 30.5611 34.4917C29.2651 35.1935 27.9777 35.9097 26.6845 36.6201C24.5727 37.7803 22.4753 38.9606 20.3489 40.095C19.4434 40.5791 20.0076 41.1721 20.1262 41.745C20.2448 42.3122 20.5891 42.3695 21.0924 42.2033C24.6768 41.0059 28.2641 39.82 31.8543 38.6368C32.268 38.4993 32.5804 38.3103 32.4936 37.7058V37.703Z" fill="#F2E2D1"/>
<path d="M36.4338 68.1686C37.0558 59.5689 40.8659 52.7997 48.2111 48.0702C49.3104 47.3626 50.3461 47.5631 50.9449 48.4999C51.5554 49.4567 51.2776 50.4221 50.0771 51.2012C45.5959 54.1203 42.5669 58.1051 40.9787 63.1755C40.3856 65.0662 40.2439 67.0228 40.0645 68.9736C39.9256 70.4861 39.2834 71.1822 38.1002 71.1078C36.9835 71.0361 36.4338 70.2799 36.4338 68.8074C36.4338 68.5926 36.4338 68.3806 36.4338 68.1657V68.1686Z" fill="#F2E2D1"/>
<path d="M55.565 44.6097C56.6209 44.6097 57.3876 45.3974 57.3586 46.4459C57.3326 47.4428 56.5689 48.1704 55.5563 48.1704C54.5004 48.1704 53.7338 47.3826 53.7627 46.3342C53.7887 45.3344 54.5467 44.6097 55.5621 44.6125L55.565 44.6097Z" fill="#F2E2D1"/>
</svg>
