<svg width="92" height="82" viewBox="0 0 92 82" fill="none" xmlns="http://www.w3.org/2000/svg">
<path d="M20.6874 67.6306H22.6274V65.1306H25.9374V63.5206H22.6274V62.3306H26.2874V60.6306H20.6874V67.6306ZM30.6918 67.7706C32.8518 67.7706 34.4718 66.1406 34.4718 64.1306V64.1106C34.4718 62.1006 32.8718 60.4906 30.7118 60.4906C28.5518 60.4906 26.9318 62.1206 26.9318 64.1306V64.1506C26.9318 66.1606 28.5318 67.7706 30.6918 67.7706ZM30.7118 66.0206C29.6518 66.0206 28.9218 65.1406 28.9218 64.1306V64.1106C28.9218 63.1006 29.6318 62.2406 30.6918 62.2406C31.7618 62.2406 32.4918 63.1206 32.4918 64.1306V64.1506C32.4918 65.1606 31.7818 66.0206 30.7118 66.0206ZM35.4823 67.6306H37.4023V63.7906L40.3923 67.6306H42.0923V60.6306H40.1723V64.3306L37.2923 60.6306H35.4823V67.6306ZM42.7739 67.6306H44.8139L45.3139 66.3806H48.0139L48.5239 67.6306H50.6039L47.6239 60.5806H45.7539L42.7739 67.6306ZM45.8839 64.8706L46.6739 62.8806L47.4539 64.8706H45.8839ZM54.2039 67.7706C55.7539 67.7706 56.6439 67.1006 57.3039 66.1906L55.8439 65.1506C55.4239 65.6606 54.9939 66.0006 54.2639 66.0006C53.2839 66.0006 52.5939 65.1806 52.5939 64.1306V64.1106C52.5939 63.0906 53.2839 62.2606 54.2639 62.2606C54.9339 62.2606 55.3939 62.5806 55.7939 63.0806L57.2539 61.9506C56.6339 61.0906 55.7139 60.4906 54.2839 60.4906C52.1639 60.4906 50.5939 62.0906 50.5939 64.1306V64.1506C50.5939 66.2406 52.2039 67.7706 54.2039 67.7706ZM61.4632 67.7706C63.6232 67.7706 65.2432 66.1406 65.2432 64.1306V64.1106C65.2432 62.1006 63.6432 60.4906 61.4832 60.4906C59.3232 60.4906 57.7032 62.1206 57.7032 64.1306V64.1506C57.7032 66.1606 59.3032 67.7706 61.4632 67.7706ZM61.4832 66.0206C60.4232 66.0206 59.6932 65.1406 59.6932 64.1306V64.1106C59.6932 63.1006 60.4032 62.2406 61.4632 62.2406C62.5332 62.2406 63.2632 63.1206 63.2632 64.1306V64.1506C63.2632 65.1606 62.5532 66.0206 61.4832 66.0206ZM67.6611 67.6306H69.6011V62.3306H71.7011V60.6306H65.5611V62.3306H67.6611V67.6306Z" fill="white"/>
<path d="M16.2992 37.8487L19.6161 28.8422C20.4099 26.7343 22.5645 25.6667 26.1083 25.6667C27.4974 25.6667 28.6031 25.9131 29.4536 26.4058C30.3041 26.8986 30.5592 27.6651 30.1623 28.7053L26.7603 37.9855C25.9949 40.0113 23.897 41.0242 20.4383 41.0242C16.8945 41.0242 15.5054 39.9565 16.2992 37.8487ZM22.3094 37.9308L25.7114 28.7601C25.8815 28.2673 25.7397 28.021 25.2294 28.021C24.7191 28.021 24.3506 28.2673 24.1805 28.7601L20.7785 37.9308C20.58 38.4509 20.7501 38.6973 21.2888 38.6973C21.7707 38.6973 22.1109 38.4235 22.3094 37.9308ZM36.7962 40.8052H32.3169L36.7679 28.7327C36.938 28.2673 36.7679 28.0483 36.2576 28.0483C35.7473 28.0483 35.4071 28.2673 35.237 28.7053L30.7577 40.8052H26.2784L31.835 25.7762H36.3143L36.1158 26.2689C36.8529 25.8583 37.8735 25.6667 39.1209 25.6667C39.9147 25.6667 40.5951 25.8583 41.1621 26.2142C41.7008 26.5701 41.8425 27.1176 41.5874 27.8019L36.7962 40.8052ZM48.0512 40.8052H44.0822L44.309 40.2303C43.7703 40.7504 42.7214 41.0242 41.1338 41.0242C38.6957 41.0242 37.7601 40.2303 38.3271 38.6699L39.4328 35.6586C39.6879 34.9743 40.1982 34.3994 40.9637 33.9066C41.7291 33.4139 43.175 32.7842 45.2445 32.0177C46.4352 31.5797 47.0873 31.2512 47.1723 30.9775L47.9945 28.7601C48.1646 28.2673 48.0228 28.021 47.4842 28.021C46.8888 28.021 46.3785 28.6232 45.9249 29.8277C45.8399 30.0467 45.7265 30.3752 45.6131 30.7858C45.4997 31.1965 45.4146 31.525 45.3296 31.744H41.0204L42.126 28.7327C42.8631 26.7069 45.0461 25.6941 48.5898 25.6941C51.9351 25.6941 53.2108 26.7617 52.4171 28.8696L48.0512 40.8052ZM44.5925 38.0129L46.0383 34.1256C44.9327 34.3446 44.2806 34.7005 44.0822 35.2754L43.0616 38.0129C42.8915 38.4783 43.0899 38.6973 43.6002 38.6973C44.1105 38.6973 44.4224 38.4509 44.5925 38.0129ZM62.6797 32.4284H58.2004L59.5612 28.7327C59.7313 28.24 59.5896 27.9936 59.0793 27.9936C58.569 27.9936 58.2004 28.24 58.0303 28.7327L54.6283 37.9034C54.4299 38.4235 54.6 38.6699 55.1386 38.6699C55.6489 38.6699 55.9891 38.4235 56.1876 37.9034L57.52 34.2899H61.9993L60.6385 37.9582C59.9014 39.9839 57.7752 40.9968 54.3165 40.9968C50.7728 40.9968 49.3836 39.9292 50.1774 37.8213L53.4944 28.8422C54.2881 26.7343 56.4427 25.6667 59.9865 25.6667C63.4452 25.6667 64.806 26.6796 64.0405 28.7053L62.6797 32.4284ZM61.5741 37.8487L64.891 28.8422C65.6848 26.7343 67.8394 25.6667 71.3832 25.6667C72.7723 25.6667 73.878 25.9131 74.7285 26.4058C75.579 26.8986 75.8341 27.6651 75.4372 28.7053L72.0069 37.9582C71.2698 39.9839 69.1435 40.9968 65.6848 40.9968C62.1694 41.0242 60.7803 39.9565 61.5741 37.8487ZM67.5843 37.9308L70.9863 28.7601C71.1564 28.2673 71.0146 28.021 70.5043 28.021C69.994 28.021 69.6255 28.2673 69.4554 28.7601L66.0534 37.9308C65.8549 38.4509 66.025 38.6973 66.5637 38.6973C67.0456 38.6973 67.3858 38.4235 67.5843 37.9308ZM80.4552 40.8052H77.6202C75.6073 40.8052 74.4733 40.5588 74.2749 40.066C74.0764 39.5733 74.2182 38.5878 74.7568 37.1643L78.1588 27.9662H76.1743L76.9965 25.7762H78.981L80.0866 22.7649H84.5659L83.4603 25.7762H85.87L85.0479 27.9662H82.6381L79.2361 37.1369C79.066 37.5749 79.1227 37.876 79.3779 38.0403C79.633 38.1772 80.3134 38.2593 81.3907 38.2593L80.4552 40.8052Z" fill="white"/>
<path d="M20.0977 26.4879H17.2343L11.9896 40.7504H7L12.2731 26.4879H10.6004L11.5076 24.0515H13.1803C13.7189 22.6006 14.3143 21.5603 14.9947 20.9854C15.6467 20.4106 17.0926 20.1368 19.3322 20.1368H22.4791L21.6569 22.3816H20.693C19.8425 22.3816 19.2755 22.5185 18.9637 22.7648C18.6518 23.0386 18.3967 23.4492 18.1699 24.0515H21.0332L20.0977 26.4879Z" fill="white"/>
<path d="M23.8401 20.0548L23.1597 22.2995H23.7267L24.4071 20.0548H23.8401V20.0548ZM24.8607 22.2995L25.0875 21.5056C25.2009 21.1498 25.2859 20.8486 25.3426 20.6296C25.3993 20.9034 25.456 21.095 25.5411 21.3961L25.8529 22.2995H26.4483L27.1287 20.0548H26.59L26.3349 20.876C26.2215 21.2045 26.1648 21.4509 26.1364 21.6699C26.0797 21.4235 26.0514 21.2045 25.9663 20.9034L25.6828 20.0548H25.0024L24.322 22.2995H24.8607V22.2995ZM26.9586 22.1626C27.072 22.2448 27.3271 22.3269 27.6957 22.3269C28.291 22.3269 28.8013 22.0805 28.8297 21.5878C28.858 21.314 28.6596 21.1498 28.3477 20.9855C28.1209 20.876 27.9792 20.7939 27.9792 20.6844C27.9792 20.5749 28.1493 20.438 28.4044 20.438C28.6312 20.438 28.8013 20.4928 28.8864 20.5475L29.0848 20.1369C28.9714 20.0821 28.8013 20.0274 28.4611 20.0274C27.8941 20.0274 27.3838 20.3011 27.3555 20.7391C27.3271 21.0403 27.5823 21.2045 27.8658 21.3414C28.1493 21.4509 28.2627 21.533 28.2627 21.6699C28.2343 21.8341 28.0359 21.9436 27.8091 21.9436C27.5539 21.9436 27.3555 21.8889 27.1854 21.8068L26.9586 22.1626ZM29.6235 22.2995H30.1905L30.7575 20.4928H31.4662L31.608 20.0821H29.6235L29.4817 20.4928H30.1905L29.6235 22.2995ZM31.9765 20.0548L31.2961 22.2995H31.8631L32.5435 20.0548H31.9765V20.0548ZM32.9404 22.2995H33.5074L34.0744 20.4928H34.7832L34.9249 20.0821H32.9404L32.7987 20.4928H33.5074L32.9404 22.2995ZM35.2935 20.0548L34.8966 21.2866C34.8682 21.3961 34.8399 21.5056 34.8399 21.5878C34.8115 22.0531 35.1234 22.2995 35.662 22.2995C36.3991 22.2995 36.7677 21.971 36.9661 21.2866L37.363 20.0274H36.796L36.3991 21.314C36.2574 21.7246 36.0589 21.8889 35.7754 21.8889C35.5203 21.8889 35.4069 21.752 35.4069 21.5604C35.4069 21.4509 35.4352 21.3688 35.4636 21.2866L35.8605 20H35.2935V20.0548ZM37.7599 22.2995H38.3269L38.8939 20.4928H39.6027L39.7444 20.0821H37.7599L37.6182 20.4928H38.3269L37.7599 22.2995ZM41.1336 20.0274C40.7367 20.0274 40.3965 20.1369 40.1413 20.3559C39.8011 20.6023 39.6027 21.0129 39.5743 21.4235C39.5176 21.9436 39.8862 22.3543 40.5666 22.3543C40.9635 22.3543 41.3037 22.2448 41.5872 22.0258C41.899 21.7794 42.1258 21.3688 42.1542 20.9855C42.1825 20.438 41.8423 20.0274 41.1336 20.0274ZM41.0485 20.438C41.4738 20.438 41.5588 20.7118 41.5305 20.9855C41.5021 21.2319 41.3604 21.6151 41.1336 21.7794C40.9918 21.8889 40.8501 21.9436 40.68 21.9436C40.2831 21.9436 40.1413 21.6973 40.1697 21.3961C40.198 21.1224 40.3398 20.7665 40.5666 20.6023C40.7083 20.4928 40.8784 20.438 41.0485 20.438Z" fill="white"/>
<path fill-rule="evenodd" clip-rule="evenodd" d="M40.8213 44.0628V44.8566H20.8346L7.68018 44.446L24.2933 44.008L40.8213 44.0628Z" fill="white"/>
<path fill-rule="evenodd" clip-rule="evenodd" d="M46.605 44.0628V44.8566H66.5917L79.7461 44.446L63.1047 44.008L46.605 44.0628Z" fill="white"/>
</svg>
