<svg width="92" height="82" viewBox="0 0 92 82" fill="none" xmlns="http://www.w3.org/2000/svg">
<path d="M14.1932 67.6306H16.8532C19.3732 67.6306 20.8432 66.1306 20.8432 64.1106V64.0906C20.8432 62.0706 19.3932 60.6306 16.8932 60.6306H14.1932V67.6306ZM16.1332 65.9106V62.3506H16.9232C18.0832 62.3506 18.8532 63.0006 18.8532 64.1206V64.1406C18.8532 65.2706 18.0832 65.9106 16.9232 65.9106H16.1332ZM21.8397 67.6306H27.5197V65.9806H23.7597V64.8706H27.1197V63.3406H23.7597V62.2806H27.4697V60.6306H21.8397V67.6306ZM31.2596 67.7506C32.9596 67.7506 34.0896 66.9006 34.0896 65.4706V65.4506C34.0896 64.1406 33.0896 63.6206 31.4796 63.2706C30.5096 63.0506 30.2696 62.9106 30.2696 62.5906V62.5706C30.2696 62.3206 30.4996 62.1206 30.9696 62.1206C31.5896 62.1206 32.2896 62.3606 32.9296 62.8106L33.8996 61.4406C33.1396 60.8306 32.2096 60.5106 31.0196 60.5106C29.3396 60.5106 28.3096 61.4506 28.3096 62.7506V62.7706C28.3096 64.2106 29.4596 64.6306 30.9496 64.9706C31.8996 65.1906 32.1296 65.3506 32.1296 65.6406V65.6606C32.1296 65.9606 31.8496 66.1406 31.3296 66.1406C30.5196 66.1406 29.7496 65.8506 29.0596 65.3006L27.9796 66.5906C28.8396 67.3606 30.0196 67.7506 31.2596 67.7506ZM38.4031 67.7706C39.9531 67.7706 40.8431 67.1006 41.5031 66.1906L40.0431 65.1506C39.6231 65.6606 39.1931 66.0006 38.4631 66.0006C37.4831 66.0006 36.7931 65.1806 36.7931 64.1306V64.1106C36.7931 63.0906 37.4831 62.2606 38.4631 62.2606C39.1331 62.2606 39.5931 62.5806 39.9931 63.0806L41.4531 61.9506C40.8331 61.0906 39.9131 60.4906 38.4831 60.4906C36.3631 60.4906 34.7931 62.0906 34.7931 64.1306V64.1506C34.7931 66.2406 36.4031 67.7706 38.4031 67.7706ZM45.4878 67.7606C47.4778 67.7606 48.7678 66.7706 48.7678 64.5106V60.6306H46.7978V64.5706C46.7978 65.5506 46.2878 66.0106 45.5078 66.0106C44.7278 66.0106 44.2178 65.5306 44.2178 64.5206V60.6306H42.2478V64.5606C42.2478 66.7506 43.4978 67.7606 45.4878 67.7606ZM49.9159 67.6306H55.5959V65.9806H51.8359V64.8706H55.1959V63.3406H51.8359V62.2806H55.5459V60.6306H49.9159V67.6306ZM56.5858 67.6306H58.5058V63.7906L61.4958 67.6306H63.1958V60.6306H61.2758V64.3306L58.3958 60.6306H56.5858V67.6306ZM66.1474 67.6306H68.0874V62.3306H70.1874V60.6306H64.0474V62.3306H66.1474V67.6306ZM74.2562 67.7706C76.4162 67.7706 78.0362 66.1406 78.0362 64.1306V64.1106C78.0362 62.1006 76.4362 60.4906 74.2762 60.4906C72.1162 60.4906 70.4962 62.1206 70.4962 64.1306V64.1506C70.4962 66.1606 72.0962 67.7706 74.2562 67.7706ZM74.2762 66.0206C73.2162 66.0206 72.4862 65.1406 72.4862 64.1306V64.1106C72.4862 63.1006 73.1962 62.2406 74.2562 62.2406C75.3262 62.2406 76.0562 63.1206 76.0562 64.1306V64.1506C76.0562 65.1606 75.3462 66.0206 74.2762 66.0206ZM14.7059 79.6306H20.3859V77.9806H16.6259V76.8706H19.9859V75.3406H16.6259V74.2806H20.3359V72.6306H14.7059V79.6306ZM21.3759 79.6306H23.2959V75.7906L26.2859 79.6306H27.9859V72.6306H26.0659V76.3306L23.1859 72.6306H21.3759V79.6306ZM34.7909 72.0506H36.2009L37.6809 70.9806L35.8709 70.4306L34.7909 72.0506ZM35.5209 79.7706C37.6809 79.7706 39.3009 78.1406 39.3009 76.1306V76.1106C39.3009 74.1006 37.7009 72.4906 35.5409 72.4906C33.3809 72.4906 31.7609 74.1206 31.7609 76.1306V76.1506C31.7609 78.1606 33.3609 79.7706 35.5209 79.7706ZM35.5409 78.0206C34.4809 78.0206 33.7509 77.1406 33.7509 76.1306V76.1106C33.7509 75.1006 34.4609 74.2406 35.5209 74.2406C36.5909 74.2406 37.3209 75.1206 37.3209 76.1306V76.1506C37.3209 77.1606 36.6109 78.0206 35.5409 78.0206ZM40.3114 79.6306H42.2514V77.6306H43.2114C44.9514 77.6306 46.2214 76.7606 46.2214 75.1106V75.0906C46.2214 73.5406 45.0814 72.6306 43.3114 72.6306H40.3114V79.6306ZM42.2514 76.1106V74.2606H43.1614C43.8614 74.2606 44.2814 74.5806 44.2814 75.1806V75.2006C44.2814 75.7506 43.8614 76.1106 43.1714 76.1106H42.2514ZM48.7499 79.6306H50.6899V74.3306H52.7899V72.6306H46.6499V74.3306H48.7499V79.6306ZM53.6815 79.6306H55.6315V72.6306H53.6815V79.6306ZM60.283 79.7706C61.833 79.7706 62.723 79.1006 63.383 78.1906L61.923 77.1506C61.503 77.6606 61.073 78.0006 60.343 78.0006C59.363 78.0006 58.673 77.1806 58.673 76.1306V76.1106C58.673 75.0906 59.363 74.2606 60.343 74.2606C61.013 74.2606 61.473 74.5806 61.873 75.0806L63.333 73.9506C62.713 73.0906 61.793 72.4906 60.363 72.4906C58.243 72.4906 56.673 74.0906 56.673 76.1306V76.1506C56.673 78.2406 58.283 79.7706 60.283 79.7706ZM63.5991 79.6306H65.6391L66.1391 78.3806H68.8391L69.3491 79.6306H71.4291L68.4491 72.5806H66.5791L63.5991 79.6306ZM66.7091 76.8706L67.4991 74.8806L68.2791 76.8706H66.7091ZM74.7606 79.7506C76.4606 79.7506 77.5906 78.9006 77.5906 77.4706V77.4506C77.5906 76.1406 76.5906 75.6206 74.9806 75.2706C74.0106 75.0506 73.7706 74.9106 73.7706 74.5906V74.5706C73.7706 74.3206 74.0006 74.1206 74.4706 74.1206C75.0906 74.1206 75.7906 74.3606 76.4306 74.8106L77.4006 73.4406C76.6406 72.8306 75.7106 72.5106 74.5206 72.5106C72.8406 72.5106 71.8106 73.4506 71.8106 74.7506V74.7706C71.8106 76.2106 72.9606 76.6306 74.4506 76.9706C75.4006 77.1906 75.6306 77.3506 75.6306 77.6406V77.6606C75.6306 77.9606 75.3506 78.1406 74.8306 78.1406C74.0206 78.1406 73.2506 77.8506 72.5606 77.3006L71.4806 78.5906C72.3406 79.3606 73.5206 79.7506 74.7606 79.7506Z" fill="white"/>
<path d="M64.878 28.0114L61.9629 16.2938C61.5855 14.7708 60.5741 13.4579 59.2008 12.7006C57.8197 11.9432 56.2395 11.7898 54.6882 12.2897L53.7086 12.62C53.1706 12.7972 52.8819 13.3857 53.0662 13.9252L53.3874 14.9003C53.5641 15.4401 54.1505 15.7305 54.6882 15.5533L55.531 15.2713C56.2299 15.0376 57.0084 15.0376 57.6668 15.3841C58.3252 15.7305 58.7909 16.3186 58.9759 17.0437L61.4413 26.9631C60.0204 26.52 58.2456 26.1574 56.2299 26.1574C53.9893 26.1574 51.5342 26.6086 48.8491 27.8815H44.149C41.5217 26.6063 39.0101 26.1551 36.7682 26.1551C34.7525 26.1551 32.9783 26.5177 31.5574 26.9608L34.0228 17.0415C34.2075 16.3164 34.6728 15.7279 35.3396 15.3818C35.991 15.0383 36.7682 15.0383 37.4684 15.2716L38.3112 15.5536C38.8492 15.7308 39.4353 15.4408 39.612 14.9007L39.9331 13.9255C40.1149 13.3863 39.8259 12.7985 39.2799 12.6213L38.3003 12.291C36.8145 11.7914 35.1687 11.9445 33.7954 12.7018C32.4227 13.4592 31.4109 14.7727 31.0332 16.2951L28.1204 28.0114C28.0401 28.3337 28 28.6688 28 29.0104V33.5383C28 37.5311 31.3165 40.8762 35.4064 40.8762H37.7915C41.6617 40.8762 44.8832 37.9114 45.1722 34.0829L45.3569 31.5931H47.6534L47.838 34.0829C48.1252 37.8534 51.3434 40.8762 55.2104 40.8762H57.5955C61.6822 40.8762 64.9955 37.5891 64.9955 33.535V29.0104C65 28.6688 64.9615 28.3401 64.878 28.0114ZM41.0656 33.7671C40.9372 35.4428 39.4995 36.748 37.7896 36.748H35.4C33.5885 36.6932 32.1111 35.3075 32.1111 33.535V31.118C33.2751 30.6991 34.8977 30.2801 36.7759 30.2801C38.3099 30.2801 39.8111 30.5621 41.2648 31.118L41.0656 33.7671ZM60.8889 33.535C60.8889 35.3075 59.4115 36.75 57.5968 36.75H55.2117C53.5017 36.75 52.0641 35.4448 51.9357 33.769L51.7349 31.118C53.1879 30.5621 54.6981 30.2801 56.2315 30.2801C58.0943 30.2801 59.7246 30.6991 60.8886 31.118V33.535H60.8889Z" fill="white"/>
</svg>
