<svg width="92" height="82" viewBox="0 0 92 82" fill="none" xmlns="http://www.w3.org/2000/svg">
<path d="M5.54578 68H8.20578C10.7258 68 12.1958 66.5 12.1958 64.48V64.46C12.1958 62.44 10.7458 61 8.24578 61H5.54578V68ZM7.48578 66.28V62.72H8.27578C9.43578 62.72 10.2058 63.37 10.2058 64.49V64.51C10.2058 65.64 9.43578 66.28 8.27578 66.28H7.48578ZM13.1923 68H18.8723V66.35H15.1123V65.24H18.4723V63.71H15.1123V62.65H18.8223V61H13.1923V68ZM22.6122 68.12C24.3122 68.12 25.4422 67.27 25.4422 65.84V65.82C25.4422 64.51 24.4422 63.99 22.8322 63.64C21.8622 63.42 21.6222 63.28 21.6222 62.96V62.94C21.6222 62.69 21.8522 62.49 22.3222 62.49C22.9422 62.49 23.6422 62.73 24.2822 63.18L25.2522 61.81C24.4922 61.2 23.5622 60.88 22.3722 60.88C20.6922 60.88 19.6622 61.82 19.6622 63.12V63.14C19.6622 64.58 20.8122 65 22.3022 65.34C23.2522 65.56 23.4822 65.72 23.4822 66.01V66.03C23.4822 66.33 23.2022 66.51 22.6822 66.51C21.8722 66.51 21.1022 66.22 20.4122 65.67L19.3322 66.96C20.1922 67.73 21.3722 68.12 22.6122 68.12ZM29.7556 68.14C31.3056 68.14 32.1956 67.47 32.8556 66.56L31.3956 65.52C30.9756 66.03 30.5456 66.37 29.8156 66.37C28.8356 66.37 28.1456 65.55 28.1456 64.5V64.48C28.1456 63.46 28.8356 62.63 29.8156 62.63C30.4856 62.63 30.9456 62.95 31.3456 63.45L32.8056 62.32C32.1856 61.46 31.2656 60.86 29.8356 60.86C27.7156 60.86 26.1456 62.46 26.1456 64.5V64.52C26.1456 66.61 27.7556 68.14 29.7556 68.14ZM36.8403 68.13C38.8303 68.13 40.1203 67.14 40.1203 64.88V61H38.1503V64.94C38.1503 65.92 37.6403 66.38 36.8603 66.38C36.0803 66.38 35.5703 65.9 35.5703 64.89V61H33.6003V64.93C33.6003 67.12 34.8503 68.13 36.8403 68.13ZM41.2684 68H46.9484V66.35H43.1884V65.24H46.5484V63.71H43.1884V62.65H46.8984V61H41.2684V68ZM47.9384 68H49.8584V64.16L52.8484 68H54.5484V61H52.6284V64.7L49.7484 61H47.9384V68ZM57.4999 68H59.4399V62.7H61.5399V61H55.3999V62.7H57.4999V68ZM65.6088 68.14C67.7688 68.14 69.3888 66.51 69.3888 64.5V64.48C69.3888 62.47 67.7888 60.86 65.6288 60.86C63.4688 60.86 61.8488 62.49 61.8488 64.5V64.52C61.8488 66.53 63.4488 68.14 65.6088 68.14ZM65.6288 66.39C64.5688 66.39 63.8388 65.51 63.8388 64.5V64.48C63.8388 63.47 64.5488 62.61 65.6088 62.61C66.6788 62.61 67.4088 63.49 67.4088 64.5V64.52C67.4088 65.53 66.6988 66.39 65.6288 66.39ZM73.1727 68H78.8527V66.35H75.0927V65.24H78.4527V63.71H75.0927V62.65H78.8027V61H73.1727V68ZM79.8427 68H81.7627V64.16L84.7527 68H86.4527V61H84.5327V64.7L81.6527 61H79.8427V68ZM11.5092 80H13.5492L14.0492 78.75H16.7492L17.2592 80H19.3392L16.3592 72.95H14.4892L11.5092 80ZM14.6192 77.24L15.4092 75.25L16.1892 77.24H14.6192ZM20.83 80H22.77V74.7H24.87V73H18.73V74.7H20.83V80ZM25.7216 80H27.6416V76.16L30.6316 80H32.3316V73H30.4116V76.7L27.5316 73H25.7216V80ZM33.3831 80H35.3631V78.05H33.3831V80ZM39.1884 80H41.8484C44.3684 80 45.8384 78.5 45.8384 76.48V76.46C45.8384 74.44 44.3884 73 41.8884 73H39.1884V80ZM41.1284 78.28V74.72H41.9184C43.0784 74.72 43.8484 75.37 43.8484 76.49V76.51C43.8484 77.64 43.0784 78.28 41.9184 78.28H41.1284ZM46.8348 80H52.5148V78.35H48.7548V77.24H52.1148V75.71H48.7548V74.65H52.4648V73H46.8348V80ZM53.5048 80H55.4248V76.16L58.4148 80H60.1148V73H58.1948V76.7L55.3148 73H53.5048V80ZM63.0663 80H65.0063V74.7H67.1063V73H60.9663V74.7H63.0663V80ZM66.4995 80H68.5395L69.0395 78.75H71.7395L72.2495 80H74.3295L71.3495 72.95H69.4795L66.4995 80ZM69.6095 77.24L70.3995 75.25L71.1795 77.24H69.6095ZM75.0087 80H80.3387V78.3H76.9487V73H75.0087V80Z" fill="white"/>
<path d="M57.4398 27.6545C56.1426 29.4379 55.6228 31.5314 55.4215 33.7099C55.1789 36.3744 54.8528 39.0247 54.2634 41.6247L53.8265 43.5351C53.653 44.3176 52.9662 44.8745 52.1829 44.8745C51.4062 44.8745 50.7336 44.3388 50.5459 43.5706L48.6317 35.7589C48.3773 34.7315 47.4711 34.0096 46.4289 34.0096C45.3815 34.0096 44.4733 34.7353 44.2235 35.7647L42.3094 43.5764C42.1221 44.3446 41.4426 44.8803 40.6723 44.8803C39.8819 44.8803 39.2022 44.3234 39.0216 43.5409L38.5916 41.6305C38.0022 39.0292 37.6763 36.3789 37.4847 33.7157C37.2324 31.4766 36.7126 29.4399 35.4154 27.6545C34.2016 25.9839 33.6605 23.7777 34.2224 21.4303C34.8327 18.8786 36.8369 16.8058 39.3265 16.1432C40.6302 15.8048 41.886 16.115 43.0369 16.7282L48.613 20.3724C49.043 20.6544 49.5911 20.4923 49.8403 20.0976C50.1038 19.6816 49.9859 19.125 49.5697 18.8498L48.0025 17.8275C48.1967 17.7289 48.4049 17.6513 48.5851 17.5173C50.0345 16.4319 51.7408 15.6708 53.53 16.1425C56.0196 16.8051 58.0244 18.8773 58.6342 21.4296C59.1941 23.7809 58.6568 25.9916 57.4398 27.6545Z" fill="white"/>
</svg>
