<svg width="92" height="82" viewBox="0 0 92 82" fill="none" xmlns="http://www.w3.org/2000/svg">
<path d="M0.633672 68H3.29367C5.81367 68 7.28367 66.5 7.28367 64.48V64.46C7.28367 62.44 5.83367 61 3.33367 61H0.633672V68ZM2.57367 66.28V62.72H3.36367C4.52367 62.72 5.29367 63.37 5.29367 64.49V64.51C5.29367 65.64 4.52367 66.28 3.36367 66.28H2.57367ZM8.28016 68H13.9602V66.35H10.2002V65.24H13.5602V63.71H10.2002V62.65H13.9102V61H8.28016V68ZM17.7001 68.12C19.4001 68.12 20.5301 67.27 20.5301 65.84V65.82C20.5301 64.51 19.5301 63.99 17.9201 63.64C16.9501 63.42 16.7101 63.28 16.7101 62.96V62.94C16.7101 62.69 16.9401 62.49 17.4101 62.49C18.0301 62.49 18.7301 62.73 19.3701 63.18L20.3401 61.81C19.5801 61.2 18.6501 60.88 17.4601 60.88C15.7801 60.88 14.7501 61.82 14.7501 63.12V63.14C14.7501 64.58 15.9001 65 17.3901 65.34C18.3401 65.56 18.5701 65.72 18.5701 66.01V66.03C18.5701 66.33 18.2901 66.51 17.7701 66.51C16.9601 66.51 16.1901 66.22 15.5001 65.67L14.4201 66.96C15.2801 67.73 16.4601 68.12 17.7001 68.12ZM24.8435 68.14C26.3935 68.14 27.2835 67.47 27.9435 66.56L26.4835 65.52C26.0635 66.03 25.6335 66.37 24.9035 66.37C23.9235 66.37 23.2335 65.55 23.2335 64.5V64.48C23.2335 63.46 23.9235 62.63 24.9035 62.63C25.5735 62.63 26.0335 62.95 26.4335 63.45L27.8935 62.32C27.2735 61.46 26.3535 60.86 24.9235 60.86C22.8035 60.86 21.2335 62.46 21.2335 64.5V64.52C21.2335 66.61 22.8435 68.14 24.8435 68.14ZM31.9282 68.13C33.9182 68.13 35.2082 67.14 35.2082 64.88V61H33.2382V64.94C33.2382 65.92 32.7282 66.38 31.9482 66.38C31.1682 66.38 30.6582 65.9 30.6582 64.89V61H28.6882V64.93C28.6882 67.12 29.9382 68.13 31.9282 68.13ZM36.3563 68H42.0363V66.35H38.2763V65.24H41.6363V63.71H38.2763V62.65H41.9863V61H36.3563V68ZM43.0263 68H44.9463V64.16L47.9363 68H49.6363V61H47.7163V64.7L44.8363 61H43.0263V68ZM52.5878 68H54.5278V62.7H56.6278V61H50.4878V62.7H52.5878V68ZM60.6966 68.14C62.8566 68.14 64.4766 66.51 64.4766 64.5V64.48C64.4766 62.47 62.8766 60.86 60.7166 60.86C58.5566 60.86 56.9366 62.49 56.9366 64.5V64.52C56.9366 66.53 58.5366 68.14 60.6966 68.14ZM60.7166 66.39C59.6566 66.39 58.9266 65.51 58.9266 64.5V64.48C58.9266 63.47 59.6366 62.61 60.6966 62.61C61.7666 62.61 62.4966 63.49 62.4966 64.5V64.52C62.4966 65.53 61.7866 66.39 60.7166 66.39ZM67.7006 68H69.7406L70.2406 66.75H72.9406L73.4506 68H75.5306L72.5506 60.95H70.6806L67.7006 68ZM70.8106 65.24L71.6006 63.25L72.3806 65.24H70.8106ZM77.0214 68H78.9614V62.7H81.0614V61H74.9214V62.7H77.0214V68ZM81.913 68H83.833V64.16L86.823 68H88.523V61H86.603V64.7L83.723 61H81.913V68ZM89.5745 68H91.5545V66.05H89.5745V68ZM10.536 80H12.476V78H13.436C15.176 78 16.446 77.13 16.446 75.48V75.46C16.446 73.91 15.306 73 13.536 73H10.536V80ZM12.476 76.48V74.63H13.386C14.086 74.63 14.506 74.95 14.506 75.55V75.57C14.506 76.12 14.086 76.48 13.396 76.48H12.476ZM20.0145 80.12C21.7145 80.12 22.8445 79.27 22.8445 77.84V77.82C22.8445 76.51 21.8445 75.99 20.2345 75.64C19.2645 75.42 19.0245 75.28 19.0245 74.96V74.94C19.0245 74.69 19.2545 74.49 19.7245 74.49C20.3445 74.49 21.0445 74.73 21.6845 75.18L22.6545 73.81C21.8945 73.2 20.9645 72.88 19.7745 72.88C18.0945 72.88 17.0645 73.82 17.0645 75.12V75.14C17.0645 76.58 18.2145 77 19.7045 77.34C20.6545 77.56 20.8845 77.72 20.8845 78.01V78.03C20.8845 78.33 20.6045 78.51 20.0845 78.51C19.2745 78.51 18.5045 78.22 17.8145 77.67L16.7345 78.96C17.5945 79.73 18.7745 80.12 20.0145 80.12ZM23.828 80H25.778V73H23.828V80ZM30.4295 80.14C31.9795 80.14 32.8695 79.47 33.5295 78.56L32.0695 77.52C31.6495 78.03 31.2195 78.37 30.4895 78.37C29.5095 78.37 28.8195 77.55 28.8195 76.5V76.48C28.8195 75.46 29.5095 74.63 30.4895 74.63C31.1595 74.63 31.6195 74.95 32.0195 75.45L33.4795 74.32C32.8595 73.46 31.9395 72.86 30.5095 72.86C28.3895 72.86 26.8195 74.46 26.8195 76.5V76.52C26.8195 78.61 28.4295 80.14 30.4295 80.14ZM37.6888 80.14C39.8488 80.14 41.4688 78.51 41.4688 76.5V76.48C41.4688 74.47 39.8688 72.86 37.7088 72.86C35.5488 72.86 33.9288 74.49 33.9288 76.5V76.52C33.9288 78.53 35.5288 80.14 37.6888 80.14ZM37.7088 78.39C36.6488 78.39 35.9188 77.51 35.9188 76.5V76.48C35.9188 75.47 36.6288 74.61 37.6888 74.61C38.7588 74.61 39.4888 75.49 39.4888 76.5V76.52C39.4888 77.53 38.7788 78.39 37.7088 78.39ZM42.4794 80H47.8094V78.3H44.4194V73H42.4794V80ZM51.0311 72.42H52.4411L53.9211 71.35L52.1111 70.8L51.0311 72.42ZM51.7611 80.14C53.9211 80.14 55.5411 78.51 55.5411 76.5V76.48C55.5411 74.47 53.9411 72.86 51.7811 72.86C49.6211 72.86 48.0011 74.49 48.0011 76.5V76.52C48.0011 78.53 49.6011 80.14 51.7611 80.14ZM51.7811 78.39C50.7211 78.39 49.9911 77.51 49.9911 76.5V76.48C49.9911 75.47 50.7011 74.61 51.7611 74.61C52.8311 74.61 53.5611 75.49 53.5611 76.5V76.52C53.5611 77.53 52.8511 78.39 51.7811 78.39ZM60.1216 80.14C61.3916 80.14 62.4216 79.67 63.1616 79.06V75.91H59.9416V77.33H61.3216V78.18C61.0316 78.37 60.6716 78.47 60.2016 78.47C59.0916 78.47 58.3016 77.66 58.3016 76.53V76.51C58.3016 75.44 59.0816 74.59 60.0916 74.59C60.7816 74.59 61.2816 74.83 61.7816 75.25L62.9216 73.88C62.1816 73.24 61.3116 72.86 60.0816 72.86C57.9116 72.86 56.3116 74.46 56.3116 76.5V76.52C56.3116 78.64 57.9416 80.14 60.1216 80.14ZM64.2772 80H66.2272V73H64.2772V80ZM70.8787 80.14C72.4287 80.14 73.3187 79.47 73.9787 78.56L72.5187 77.52C72.0987 78.03 71.6687 78.37 70.9387 78.37C69.9587 78.37 69.2687 77.55 69.2687 76.5V76.48C69.2687 75.46 69.9587 74.63 70.9387 74.63C71.6087 74.63 72.0687 74.95 72.4687 75.45L73.9287 74.32C73.3087 73.46 72.3887 72.86 70.9587 72.86C68.8387 72.86 67.2687 74.46 67.2687 76.5V76.52C67.2687 78.61 68.8787 80.14 70.8787 80.14ZM74.1948 80H76.2348L76.7348 78.75H79.4348L79.9448 80H82.0248L79.0448 72.95H77.1748L74.1948 80ZM77.3048 77.24L78.0948 75.25L78.8748 77.24H77.3048Z" fill="white"/>
<path d="M54 20.75C54 25.0307 50.4188 28.5 45.9438 28.5C41.5813 28.5 37.9437 25.0307 37.9437 20.75C37.9437 16.4699 41.5813 13 45.9438 13C50.4188 13 54 16.4699 54 20.75ZM49.9438 34.918C48.275 35.3479 46.9437 36.8676 46.9437 38.6719V40.125C46.9437 40.3793 47.1062 40.6275 47.2937 40.8092L48.2938 41.7779C48.6813 42.1594 49.3187 42.1594 49.7062 41.7779C50.1 41.4025 50.1 40.785 49.7062 40.4096L48.9438 39.7254V38.6719C48.9438 37.6002 49.8938 36.7344 50.9438 36.7344C52.1063 36.7344 53 37.6002 53 38.6719V39.7254L52.2937 40.4096C51.9 40.785 51.9 41.4025 52.2937 41.7779C52.6812 42.1594 53.3187 42.1594 53.7062 41.7779L54.7062 40.8092C54.8937 40.6275 55 40.3793 55 40.125V38.6719C55 36.8676 53.725 35.3479 52 34.918V31.6969C56.5937 32.7807 60 36.7404 60 41.5781V42.0625C60 43.1342 59.1062 44 58 44H34C32.8956 44 32 43.1342 32 42.0625V41.5781C32 36.7949 35.4081 32.7807 40 31.6969V35.4205C38.5562 35.8383 37.5 37.134 37.5 38.6719C37.5 40.5428 39.0687 42.0625 41 42.0625C42.9312 42.0625 44.5 40.5428 44.5 38.6719C44.5 37.134 43.4437 35.8383 42 35.4205V31.4184C42.1687 31.4123 42.3313 31.4062 42.5 31.4062H49.5C49.6688 31.4062 49.8312 31.4123 50 31.4184L49.9438 34.918ZM42.4438 38.6719C42.4438 39.4771 41.8312 40.125 40.9437 40.125C40.1687 40.125 39.4437 39.4771 39.4437 38.6719C39.4437 37.8666 40.1687 37.2187 40.9437 37.2187C41.8312 37.2187 42.4438 37.8666 42.4438 38.6719Z" fill="white"/>
</svg>
