<svg width="92" height="82" viewBox="0 0 92 82" fill="none" xmlns="http://www.w3.org/2000/svg">
<path d="M5.54578 68H8.20578C10.7258 68 12.1958 66.5 12.1958 64.48V64.46C12.1958 62.44 10.7458 61 8.24578 61H5.54578V68ZM7.48578 66.28V62.72H8.27578C9.43578 62.72 10.2058 63.37 10.2058 64.49V64.51C10.2058 65.64 9.43578 66.28 8.27578 66.28H7.48578ZM13.1923 68H18.8723V66.35H15.1123V65.24H18.4723V63.71H15.1123V62.65H18.8223V61H13.1923V68ZM22.6122 68.12C24.3122 68.12 25.4422 67.27 25.4422 65.84V65.82C25.4422 64.51 24.4422 63.99 22.8322 63.64C21.8622 63.42 21.6222 63.28 21.6222 62.96V62.94C21.6222 62.69 21.8522 62.49 22.3222 62.49C22.9422 62.49 23.6422 62.73 24.2822 63.18L25.2522 61.81C24.4922 61.2 23.5622 60.88 22.3722 60.88C20.6922 60.88 19.6622 61.82 19.6622 63.12V63.14C19.6622 64.58 20.8122 65 22.3022 65.34C23.2522 65.56 23.4822 65.72 23.4822 66.01V66.03C23.4822 66.33 23.2022 66.51 22.6822 66.51C21.8722 66.51 21.1022 66.22 20.4122 65.67L19.3322 66.96C20.1922 67.73 21.3722 68.12 22.6122 68.12ZM29.7556 68.14C31.3056 68.14 32.1956 67.47 32.8556 66.56L31.3956 65.52C30.9756 66.03 30.5456 66.37 29.8156 66.37C28.8356 66.37 28.1456 65.55 28.1456 64.5V64.48C28.1456 63.46 28.8356 62.63 29.8156 62.63C30.4856 62.63 30.9456 62.95 31.3456 63.45L32.8056 62.32C32.1856 61.46 31.2656 60.86 29.8356 60.86C27.7156 60.86 26.1456 62.46 26.1456 64.5V64.52C26.1456 66.61 27.7556 68.14 29.7556 68.14ZM36.8403 68.13C38.8303 68.13 40.1203 67.14 40.1203 64.88V61H38.1503V64.94C38.1503 65.92 37.6403 66.38 36.8603 66.38C36.0803 66.38 35.5703 65.9 35.5703 64.89V61H33.6003V64.93C33.6003 67.12 34.8503 68.13 36.8403 68.13ZM41.2684 68H46.9484V66.35H43.1884V65.24H46.5484V63.71H43.1884V62.65H46.8984V61H41.2684V68ZM47.9384 68H49.8584V64.16L52.8484 68H54.5484V61H52.6284V64.7L49.7484 61H47.9384V68ZM57.4999 68H59.4399V62.7H61.5399V61H55.3999V62.7H57.4999V68ZM65.6088 68.14C67.7688 68.14 69.3888 66.51 69.3888 64.5V64.48C69.3888 62.47 67.7888 60.86 65.6288 60.86C63.4688 60.86 61.8488 62.49 61.8488 64.5V64.52C61.8488 66.53 63.4488 68.14 65.6088 68.14ZM65.6288 66.39C64.5688 66.39 63.8388 65.51 63.8388 64.5V64.48C63.8388 63.47 64.5488 62.61 65.6088 62.61C66.6788 62.61 67.4088 63.49 67.4088 64.5V64.52C67.4088 65.53 66.6988 66.39 65.6288 66.39ZM73.1727 68H78.8527V66.35H75.0927V65.24H78.4527V63.71H75.0927V62.65H78.8027V61H73.1727V68ZM79.8427 68H81.7627V64.16L84.7527 68H86.4527V61H84.5327V64.7L81.6527 61H79.8427V68ZM4.85242 80H10.1824V78.3H6.79242V73H4.85242V80ZM10.4545 80H12.4945L12.9945 78.75H15.6945L16.2045 80H18.2845L15.3045 72.95H13.4345L10.4545 80ZM13.5645 77.24L14.3545 75.25L15.1345 77.24H13.5645ZM18.9638 80H22.5738C24.2438 80 25.2238 79.27 25.2238 78.07V78.05C25.2238 77.1 24.6838 76.62 23.8338 76.34C24.4538 76.07 24.9138 75.59 24.9138 74.78V74.76C24.9138 74.28 24.7438 73.91 24.4638 73.63C24.0538 73.22 23.4338 73 22.5538 73H18.9638V80ZM20.8538 75.79V74.56H22.1138C22.6938 74.56 22.9938 74.78 22.9938 75.16V75.18C22.9938 75.59 22.6638 75.79 22.0738 75.79H20.8538ZM20.8538 78.44V77.15H22.3338C22.9838 77.15 23.2838 77.4 23.2838 77.78V77.8C23.2838 78.21 22.9438 78.44 22.3538 78.44H20.8538ZM29.6322 80.14C31.7922 80.14 33.4122 78.51 33.4122 76.5V76.48C33.4122 74.47 31.8122 72.86 29.6522 72.86C27.4922 72.86 25.8722 74.49 25.8722 76.5V76.52C25.8722 78.53 27.4722 80.14 29.6322 80.14ZM29.6522 78.39C28.5922 78.39 27.8622 77.51 27.8622 76.5V76.48C27.8622 75.47 28.5722 74.61 29.6322 74.61C30.7022 74.61 31.4322 75.49 31.4322 76.5V76.52C31.4322 77.53 30.7222 78.39 29.6522 78.39ZM34.4227 80H36.3627V77.88H37.2127L38.6227 80H40.8627L39.1927 77.56C40.0627 77.19 40.6327 76.48 40.6327 75.41V75.39C40.6327 74.7 40.4227 74.16 40.0127 73.76C39.5427 73.28 38.8027 73 37.7327 73H34.4227V80ZM36.3627 76.36V74.68H37.6327C38.2827 74.68 38.6827 74.96 38.6827 75.51V75.53C38.6827 76.04 38.3027 76.36 37.6427 76.36H36.3627ZM40.9233 80H42.9633L43.4633 78.75H46.1633L46.6733 80H48.7533L45.7733 72.95H43.9033L40.9233 80ZM44.0333 77.24L44.8233 75.25L45.6033 77.24H44.0333ZM50.2441 80H52.1841V74.7H54.2841V73H48.1441V74.7H50.2441V80ZM58.3529 80.14C60.5129 80.14 62.1329 78.51 62.1329 76.5V76.48C62.1329 74.47 60.5329 72.86 58.3729 72.86C56.2129 72.86 54.5929 74.49 54.5929 76.5V76.52C54.5929 78.53 56.1929 80.14 58.3529 80.14ZM58.3729 78.39C57.3129 78.39 56.5829 77.51 56.5829 76.5V76.48C56.5829 75.47 57.2929 74.61 58.3529 74.61C59.4229 74.61 60.1529 75.49 60.1529 76.5V76.52C60.1529 77.53 59.4429 78.39 58.3729 78.39ZM63.1434 80H65.0834V77.88H65.9334L67.3434 80H69.5834L67.9134 77.56C68.7834 77.19 69.3534 76.48 69.3534 75.41V75.39C69.3534 74.7 69.1434 74.16 68.7334 73.76C68.2634 73.28 67.5234 73 66.4534 73H63.1434V80ZM65.0834 76.36V74.68H66.3534C67.0034 74.68 67.4034 74.96 67.4034 75.51V75.53C67.4034 76.04 67.0234 76.36 66.3634 76.36H65.0834ZM70.3709 80H72.3209V73H70.3709V80ZM77.1224 80.14C79.2824 80.14 80.9024 78.51 80.9024 76.5V76.48C80.9024 74.47 79.3024 72.86 77.1424 72.86C74.9824 72.86 73.3624 74.49 73.3624 76.5V76.52C73.3624 78.53 74.9624 80.14 77.1224 80.14ZM77.1424 78.39C76.0824 78.39 75.3524 77.51 75.3524 76.5V76.48C75.3524 75.47 76.0624 74.61 77.1224 74.61C78.1924 74.61 78.9224 75.49 78.9224 76.5V76.52C78.9224 77.53 78.2124 78.39 77.1424 78.39ZM84.6141 80.12C86.3141 80.12 87.4441 79.27 87.4441 77.84V77.82C87.4441 76.51 86.4441 75.99 84.8341 75.64C83.8641 75.42 83.6241 75.28 83.6241 74.96V74.94C83.6241 74.69 83.8541 74.49 84.3241 74.49C84.9441 74.49 85.6441 74.73 86.2841 75.18L87.2541 73.81C86.4941 73.2 85.5641 72.88 84.3741 72.88C82.6941 72.88 81.6641 73.82 81.6641 75.12V75.14C81.6641 76.58 82.8141 77 84.3041 77.34C85.2541 77.56 85.4841 77.72 85.4841 78.01V78.03C85.4841 78.33 85.2041 78.51 84.6841 78.51C83.8741 78.51 83.1041 78.22 82.4141 77.67L81.3341 78.96C82.1941 79.73 83.3741 80.12 84.6141 80.12Z" fill="white"/>
<path d="M62.393 22.9184L52.0805 12.6059C51.6809 12.2014 51.1524 12 50.6239 12C50.0954 12 49.5681 12.2014 49.166 12.6042C48.3603 13.4099 48.3603 14.7151 49.166 15.5208L49.6155 15.9704L32.1229 33.4372C29.6254 35.9348 29.2142 40.0115 31.5187 42.6863C32.84 44.2266 34.6885 45 36.5409 45H36.5697C38.27 45 39.9696 44.4135 41.2671 43.0587L59.0046 25.3598L59.4793 25.8347C59.8794 26.2377 60.4079 26.4375 60.9364 26.4375C61.4649 26.4375 61.9921 26.2361 62.3943 25.8333C63.1987 25.026 63.1987 23.724 62.393 22.9184ZM50.018 28.5H42.9024L52.5253 18.89L56.0818 22.4427L50.018 28.5Z" fill="white"/>
</svg>
