<svg width="92" height="82" viewBox="0 0 92 82" fill="none" xmlns="http://www.w3.org/2000/svg">
<path d="M27.7592 67.6306H29.7992L30.2992 66.3806H32.9992L33.5092 67.6306H35.5892L32.6092 60.5806H30.7392L27.7592 67.6306ZM30.8692 64.8706L31.6592 62.8806L32.4392 64.8706H30.8692ZM36.2684 67.6306H38.2084V65.1306H41.5184V63.5206H38.2084V62.3306H41.8684V60.6306H36.2684V67.6306ZM46.2728 67.7706C48.4328 67.7706 50.0528 66.1406 50.0528 64.1306V64.1106C50.0528 62.1006 48.4528 60.4906 46.2928 60.4906C44.1328 60.4906 42.5128 62.1206 42.5128 64.1306V64.1506C42.5128 66.1606 44.1128 67.7706 46.2728 67.7706ZM46.2928 66.0206C45.2328 66.0206 44.5028 65.1406 44.5028 64.1306V64.1106C44.5028 63.1006 45.2128 62.2406 46.2728 62.2406C47.3428 62.2406 48.0728 63.1206 48.0728 64.1306V64.1506C48.0728 65.1606 47.3628 66.0206 46.2928 66.0206ZM51.0634 67.6306H53.0034V65.5106H53.8534L55.2634 67.6306H57.5034L55.8334 65.1906C56.7034 64.8206 57.2734 64.1106 57.2734 63.0406V63.0206C57.2734 62.3306 57.0634 61.7906 56.6534 61.3906C56.1834 60.9106 55.4434 60.6306 54.3734 60.6306H51.0634V67.6306ZM53.0034 63.9906V62.3106H54.2734C54.9234 62.3106 55.3234 62.5906 55.3234 63.1406V63.1606C55.3234 63.6706 54.9434 63.9906 54.2834 63.9906H53.0034ZM58.2509 67.6306H63.9309V65.9806H60.1709V64.8706H63.5309V63.3406H60.1709V62.2806H63.8809V60.6306H58.2509V67.6306Z" fill="white"/>
<g clip-path="url(#clip0_320_1239)">
<path d="M80 37.3549C77.1024 37.3549 74.2363 37.3863 71.3386 37.3549C70.7087 37.3549 70.5827 37.5743 70.6142 38.1072C70.7087 40.1133 72.1575 41.3044 74.0788 40.9282C74.9922 40.7401 75.5591 40.1446 75.8111 39.2983C75.937 38.9222 76.0945 38.7968 76.504 38.8281C77.5748 38.9535 78.6772 38.9848 79.8741 39.0789C79.6536 39.6117 79.4646 40.1133 79.2441 40.5521C78.0473 42.7776 76.1575 43.8746 73.6378 43.9373C71.8426 44 70.1418 43.6866 68.693 42.5268C66.2363 40.5834 65.3544 37.1355 66.5197 33.8443C67.4016 31.3994 69.1654 29.8635 71.8111 29.456C74.5197 29.0485 76.8819 29.7068 78.5512 31.9636C79.0867 32.6845 79.3386 33.6249 79.6851 34.4712C79.8426 34.8473 79.8741 35.2235 80 35.5996C80 36.1952 80 36.7907 80 37.3549ZM70.7087 34.91C72.4095 34.91 74.0473 34.91 75.6851 34.91C75.6851 33.1861 74.7717 32.1203 73.3229 32.089C71.8111 32.089 70.7087 33.2174 70.7087 34.91Z" fill="white"/>
<path d="M60.9449 13C62.0473 13.6896 62.2677 14.7553 62.1733 15.9151C61.9843 18.1092 61.8268 20.3033 61.5748 22.4975C61.5433 22.8736 61.2599 23.3124 60.9449 23.5005C60.378 23.8453 59.7481 23.5005 59.6221 22.8423C59.1811 20.4287 58.6142 18.0152 58.6772 15.5076C58.7087 14.4732 58.9292 13.5956 59.8425 13C60.2205 13 60.5984 13 60.9449 13Z" fill="white"/>
<path d="M29.7323 43.6552C28.5354 43.6552 27.3386 43.6552 26.1417 43.6552C24.8189 43.6552 24.8189 43.6552 24.4409 42.3701C24.2205 41.6491 24.0315 40.9282 23.748 40.2386C23.685 40.0506 23.3701 39.7998 23.1811 39.7998C21.3858 39.7684 19.5906 39.7684 17.7953 39.7998C17.6063 39.7998 17.2913 40.0192 17.1969 40.2386C16.8504 41.2103 16.5669 42.2133 16.2205 43.185C16.1575 43.3731 15.9055 43.6552 15.7165 43.6552C14.5197 43.6865 13.2913 43.6552 12 43.6552C12.4724 42.2133 12.9449 40.8028 13.4173 39.4237C14.9606 34.7846 16.5354 30.1456 18.0472 25.4752C18.2362 24.911 18.4882 24.6916 19.1181 24.7229C20.4724 24.7856 21.8268 24.7229 23.1811 24.7543C23.4016 24.7543 23.748 24.9737 23.811 25.1304C25.7953 31.2427 27.748 37.3236 29.7323 43.4044C29.7638 43.4358 29.7323 43.5298 29.7323 43.6552ZM22.5197 36.2265C21.8583 34.095 21.1969 31.9949 20.5039 29.7381C19.7795 32.0263 19.1181 34.095 18.4567 36.2265C19.8425 36.2265 21.1339 36.2265 22.5197 36.2265Z" fill="white"/>
<path d="M47.0236 29.3933C51.5275 29.3933 54.4251 32.8099 53.9842 37.5743C53.4803 42.8716 48.5669 45.1598 44.0629 43.4358C42.1102 42.6835 40.9133 41.1476 40.4094 39.1416C39.6535 36.0384 39.9369 33.1234 42.5511 30.8352C43.8425 29.7068 45.3543 29.3306 47.0236 29.3933ZM44.5354 36.5713C44.6614 37.543 44.7243 38.5147 44.9763 39.4864C45.2598 40.6461 46.0157 41.2103 47.0236 41.2103C48.0629 41.2103 48.8818 40.5834 49.1653 39.455C49.6377 37.543 49.6062 35.5996 49.1338 33.6876C48.8818 32.6845 48.0944 32.089 47.0866 32.089C46.0472 32.089 45.2283 32.6218 44.9763 33.6562C44.7558 34.5966 44.6929 35.5683 44.5354 36.5713Z" fill="white"/>
<path d="M30.3623 29.6754C30.9292 29.6754 31.4017 29.6754 31.9686 29.6754C32.0001 29.1112 32.0631 28.6097 32.0631 28.0769C32.1261 25.3812 33.8584 24.3155 35.8426 24.0961C36.7875 23.9707 37.7954 24.0647 38.7718 24.0961C38.9292 24.0961 39.1812 24.3468 39.1812 24.5035C39.2127 25.4125 39.2127 26.2902 39.2127 27.2619C38.7718 27.2619 38.3623 27.2619 37.9529 27.2619C36.6615 27.2619 36.3466 27.544 36.2521 28.8291C36.2206 29.0799 36.2521 29.2993 36.2521 29.6441C37.1025 29.6441 37.9529 29.6441 38.8033 29.6441C38.8033 30.7412 38.8033 31.7755 38.8033 32.8726C38.1418 32.8726 37.5119 32.904 36.882 32.8726C36.3151 32.8413 36.2206 33.0293 36.2206 33.5622C36.2521 36.728 36.2206 39.9252 36.2206 43.091C36.2206 43.2477 36.1891 43.4358 36.1891 43.6552C34.8033 43.6552 33.4804 43.6552 32.0631 43.6552C32.0631 40.1133 32.0631 36.5713 32.0631 32.9353C31.4647 32.9353 30.9607 32.9353 30.3938 32.9353C30.3623 31.8069 30.3623 30.7725 30.3623 29.6754Z" fill="white"/>
<path d="M64.5354 33.4682C61.8267 33.5308 61.0393 35.0667 60.9448 37.2922C60.8503 39.1416 60.8818 40.9909 60.8818 42.8402C60.8818 43.091 60.8818 43.3104 60.8818 43.6239C59.496 43.6239 58.1417 43.6239 56.7559 43.6239C56.7559 39.0162 56.7559 34.4085 56.7559 29.7381C58.0472 29.7381 59.307 29.7381 60.6614 29.7381C60.6614 30.3964 60.6614 31.0546 60.6614 31.6815C60.7244 31.7128 60.7559 31.7755 60.8189 31.8069C61.4803 30.0829 62.6141 29.1112 64.5669 29.4247C64.5354 30.7725 64.5354 32.089 64.5354 33.4682Z" fill="white"/>
<path d="M54.1103 14.4419C54.9292 14.4419 55.4646 14.9434 55.8111 15.5703C56.378 16.6047 56.882 17.7017 57.3229 18.7988C57.8268 20.0526 58.2363 21.3377 58.6772 22.5915C58.7402 22.7482 58.7717 22.9363 58.8032 23.093C58.8662 23.5319 58.7087 23.8766 58.2993 24.0647C57.8583 24.2841 57.4489 24.2214 57.1654 23.8453C55.5276 21.6825 53.8268 19.5511 52.7875 17.0121C52.6615 16.6987 52.5985 16.3226 52.567 15.9778C52.5355 15.1001 53.1969 14.4419 54.1103 14.4419Z" fill="white"/>
<path d="M73.5433 19.8332C73.3858 20.1153 73.1653 20.6795 72.7559 21.0556C71.874 21.8392 70.9291 22.5915 69.9527 23.2498C68.8504 24.0334 67.685 24.723 66.5511 25.4439C66.3307 25.5693 66.0472 25.7887 65.8267 25.7573C65.4803 25.726 65.0393 25.5693 64.8189 25.3185C64.6614 25.1304 64.6929 24.5976 64.8504 24.3782C66.5826 22.2781 68.3149 20.1153 70.5826 18.548C70.9921 18.2659 71.559 18.0779 72.0629 18.0465C72.8818 18.0152 73.5433 18.7361 73.5433 19.8332Z" fill="white"/>
<path d="M68.4095 16.0091C68.252 16.542 68.1575 17.1062 67.9055 17.545C66.7717 19.5197 65.5748 21.4944 64.4095 23.4692C64.2835 23.6572 64.126 23.9393 63.937 23.9707C63.5906 24.0647 63.1496 24.1274 62.8347 23.9707C62.6142 23.8453 62.3937 23.3751 62.4567 23.093C63.0866 20.5227 63.7166 17.9525 65.0079 15.6016C65.1654 15.2882 65.4174 15.0061 65.6378 14.7553C66.1733 14.2224 66.8347 14.1284 67.4646 14.4105C68.0945 14.7553 68.3465 15.2882 68.4095 16.0091Z" fill="white"/>
<path d="M49.4171 18.3286C49.7321 18.4853 50.4565 18.7047 50.9605 19.1436C52.7242 20.7422 54.4565 22.4034 56.1573 24.0647C56.5668 24.4408 56.7872 24.9424 56.3778 25.4752C55.9368 26.0081 55.4329 25.8827 54.9605 25.6006C52.7557 24.3782 50.488 23.2497 48.5668 21.5571C48.2203 21.2437 47.9053 20.8989 47.6849 20.4914C47.0549 19.457 47.8108 18.2973 49.4171 18.3286Z" fill="white"/>
<path d="M53.4804 28.3276C51.1182 27.9201 48.756 27.544 46.4253 27.1365C45.9843 27.0425 45.5434 26.823 45.1654 26.5723C44.567 26.1962 44.4095 25.6006 44.567 24.9424C44.756 24.3155 45.2284 23.908 45.8583 23.8766C46.4567 23.8453 47.1182 23.8453 47.6851 24.0334C49.8898 24.7543 52.0945 25.5379 54.2678 26.2902C54.5197 26.3842 54.8032 26.5096 54.9292 26.6977C55.0867 26.9484 55.2127 27.3246 55.1182 27.5753C55.0552 27.8261 54.7402 28.0768 54.5197 28.1395C54.2048 28.2336 53.8268 28.1709 53.4804 28.1709C53.5119 28.2336 53.4804 28.2963 53.4804 28.3276Z" fill="white"/>
<path d="M74.7401 23.5318C75.7165 23.5632 76.3779 23.9707 76.5354 24.6916C76.7244 25.4439 76.4094 26.1962 75.496 26.5409C74.2992 26.9798 73.0393 27.2932 71.7795 27.544C70.3621 27.8261 68.9133 27.9828 67.496 28.2022C67.2755 28.2336 67.0551 28.2336 66.8346 28.2336C66.3621 28.2336 66.0472 27.9828 65.9527 27.5126C65.8267 27.0425 66.0787 26.729 66.4566 26.5409C67.181 26.1648 67.9369 25.82 68.6929 25.5066C70.3621 24.8797 72.0629 24.2841 73.7637 23.6886C74.0787 23.5945 74.4251 23.5945 74.7401 23.5318Z" fill="white"/>
</g>
<defs>
<clipPath id="clip0_320_1239">
<rect width="68" height="31" fill="white" transform="translate(12 13)"/>
</clipPath>
</defs>
</svg>
