<svg width="92" height="82" viewBox="0 0 92 82" fill="none" xmlns="http://www.w3.org/2000/svg">
<path d="M17.5633 67.6306H19.5133V60.6306H17.5633V67.6306ZM20.7948 67.6306H22.7148V63.7906L25.7048 67.6306H27.4048V60.6306H25.4848V64.3306L22.6048 60.6306H20.7948V67.6306ZM28.6464 67.6306H30.5864V65.1306H33.8964V63.5206H30.5864V62.3306H34.2464V60.6306H28.6464V67.6306ZM38.6507 67.7706C40.8107 67.7706 42.4307 66.1406 42.4307 64.1306V64.1106C42.4307 62.1006 40.8307 60.4906 38.6707 60.4906C36.5107 60.4906 34.8907 62.1206 34.8907 64.1306V64.1506C34.8907 66.1606 36.4907 67.7706 38.6507 67.7706ZM38.6707 66.0206C37.6107 66.0206 36.8807 65.1406 36.8807 64.1306V64.1106C36.8807 63.1006 37.5907 62.2406 38.6507 62.2406C39.7207 62.2406 40.4507 63.1206 40.4507 64.1306V64.1506C40.4507 65.1606 39.7407 66.0206 38.6707 66.0206ZM43.4413 67.6306H45.3613V63.7906L48.3513 67.6306H50.0513V60.6306H48.1313V64.3306L45.2513 60.6306H43.4413V67.6306ZM50.7329 67.6306H52.7729L53.2729 66.3806H55.9729L56.4829 67.6306H58.5629L55.5829 60.5806H53.7129L50.7329 67.6306ZM53.8429 64.8706L54.6329 62.8806L55.4129 64.8706H53.8429ZM60.526 67.6806H62.326L65.166 60.6306H63.036L61.446 65.0606L59.856 60.6306H57.686L60.526 67.6806ZM65.8836 67.6306H67.8336V60.6306H65.8836V67.6306ZM70.8251 67.6306H72.7651V62.3306H74.8651V60.6306H68.7251V62.3306H70.8251V67.6306Z" fill="white"/>
<g clip-path="url(#clip0_320_1247)">
<path fill-rule="evenodd" clip-rule="evenodd" d="M57.2297 43.1042V28.5764V27.862L56.7298 27.3516L46.4974 16.8726L36.2316 27.3516L35.7317 27.862V28.5764V43.1042H39.1314V29.2909L46.464 21.8059L53.7967 29.2909V43.1042H57.2297V43.1042ZM18 16.6685V21.6018L25.5326 29.2909V43.1042H28.9323V28.5764V27.862L28.4657 27.3516L18 16.6685ZM63.9957 27.862V28.5764V43.1042H67.3954V29.2909L74.9281 21.6018V16.6685L64.4957 27.3516L63.9957 27.862ZM32.232 20.0707C34.9651 20.0707 37.1649 17.8252 37.1649 15.0354C37.1982 12.2455 34.9651 10 32.232 10C29.4989 10 27.2991 12.2455 27.2991 15.0354C27.2991 17.8252 29.4989 20.0707 32.232 20.0707ZM60.7294 20.0707C63.4625 20.0707 65.6623 17.8252 65.6623 15.0354C65.6623 12.2455 63.4291 10 60.7294 10C57.9963 10 55.7965 12.2455 55.7965 15.0354C55.7965 17.8252 57.9963 20.0707 60.7294 20.0707ZM60.6961 24.7319L46.4974 10.2041L32.2653 24.7319L18 10.1701V15.1034L30.5655 27.93V43.1042H33.9652V27.93L46.4974 15.1374L58.9962 27.93V43.1042H62.3959V27.93L74.9614 15.1034V10.1701L60.6961 24.7319ZM18.0667 50.7593H19.7665V45.0775H18.0667V50.7593ZM26.1992 48.888L22.9329 45.0775H21.2664V50.7593H22.8662V46.9487H22.8995L26.1326 50.7593H27.8324V45.0775H26.2326V48.888H26.1992ZM29.299 50.7593H30.9988V48.4117H34.2318V47.4591H30.9988V46.1322H34.7318V45.0775H29.299V50.7593ZM41.9978 45.826C41.6645 45.5538 41.2645 45.3497 40.7979 45.1795C40.3313 45.0094 39.798 44.9414 39.198 44.9414C38.5981 44.9414 38.0648 45.0094 37.5982 45.1795C37.1316 45.3497 36.7316 45.5538 36.3983 45.826C36.065 46.0982 35.8317 46.4044 35.665 46.7786C35.4984 47.1529 35.3984 47.5271 35.3984 47.9694C35.3984 48.3777 35.4984 48.786 35.665 49.1262C35.8317 49.5004 36.0983 49.8066 36.3983 50.0788C36.7316 50.351 37.1316 50.5551 37.5982 50.6912C38.0648 50.8273 38.5981 50.9294 39.198 50.9294C39.798 50.9294 40.3313 50.8613 40.7979 50.6912C41.2645 50.5551 41.6645 50.317 41.9978 50.0788C42.3311 49.8066 42.5644 49.5004 42.731 49.1262C42.8977 48.7519 42.9977 48.3777 42.9977 47.9694C42.9977 47.5271 42.8977 47.1529 42.731 46.7786C42.5977 46.4044 42.3311 46.0982 41.9978 45.826ZM41.1979 48.6499C41.1312 48.888 40.9979 49.0922 40.8312 49.2623C40.6646 49.4324 40.4646 49.6025 40.1646 49.7046C39.898 49.8066 39.5647 49.8747 39.198 49.8747C38.8314 49.8747 38.4981 49.8066 38.2315 49.7046C37.9648 49.6025 37.7315 49.4664 37.5649 49.2623C37.3982 49.0922 37.2649 48.888 37.1982 48.6499C37.1316 48.4117 37.0982 48.1735 37.0982 47.9354C37.0982 47.6972 37.1316 47.4591 37.1982 47.2209C37.2649 46.9827 37.3982 46.7786 37.5649 46.6085C37.7315 46.4384 37.9315 46.2683 38.2315 46.1662C38.4981 46.0641 38.8314 45.9961 39.198 45.9961C39.5647 45.9961 39.898 46.0641 40.1646 46.1662C40.4313 46.2683 40.6646 46.4384 40.8312 46.6085C40.9979 46.7786 41.1312 47.0168 41.1979 47.2209C41.2645 47.4591 41.2978 47.6972 41.2978 47.9354C41.2978 48.1735 41.2645 48.4117 41.1979 48.6499ZM49.1305 48.888L45.8641 45.0775H44.1642V50.7593H45.7641V46.9487H45.7974L49.0305 50.7593H50.7303V45.0775H49.1305V48.888ZM61.396 49.0922L59.4295 45.0775H57.463L60.2628 50.7593H62.4292L65.329 45.0775H63.3625L61.396 49.0922ZM54.23 45.0775L51.4636 50.7593H53.3634L55.2632 46.7446H55.2966L57.163 50.7593H59.0629L56.3631 45.0775H54.23ZM65.9956 50.7593H67.6954V45.0775H65.9956V50.7593ZM68.562 46.1322H70.8951V50.7593H72.595V46.1322H74.9281V45.0775H68.562V46.1322Z" fill="white"/>
</g>
<defs>
<clipPath id="clip0_320_1247">
<rect width="56.9614" height="40.8954" fill="white" transform="translate(18 10)"/>
</clipPath>
</defs>
</svg>
