<svg width="92" height="82" viewBox="0 0 92 82" fill="none" xmlns="http://www.w3.org/2000/svg">
<path d="M27.4169 67.7506C29.1169 67.7506 30.2469 66.9006 30.2469 65.4706V65.4506C30.2469 64.1406 29.2469 63.6206 27.6369 63.2706C26.6669 63.0506 26.4269 62.9106 26.4269 62.5906V62.5706C26.4269 62.3206 26.6569 62.1206 27.1269 62.1206C27.7469 62.1206 28.4469 62.3606 29.0869 62.8106L30.0569 61.4406C29.2969 60.8306 28.3669 60.5106 27.1769 60.5106C25.4969 60.5106 24.4669 61.4506 24.4669 62.7506V62.7706C24.4669 64.2106 25.6169 64.6306 27.1069 64.9706C28.0569 65.1906 28.2869 65.3506 28.2869 65.6406V65.6606C28.2869 65.9606 28.0069 66.1406 27.4869 66.1406C26.6769 66.1406 25.9069 65.8506 25.2169 65.3006L24.1369 66.5906C24.9969 67.3606 26.1769 67.7506 27.4169 67.7506ZM31.1903 67.6306H36.8703V65.9806H33.1103V64.8706H36.4703V63.3406H33.1103V62.2806H36.8203V60.6306H31.1903V67.6306ZM41.3814 67.7706C42.6514 67.7706 43.6814 67.3006 44.4214 66.6906V63.5406H41.2014V64.9606H42.5814V65.8106C42.2914 66.0006 41.9314 66.1006 41.4614 66.1006C40.3514 66.1006 39.5614 65.2906 39.5614 64.1606V64.1406C39.5614 63.0706 40.3414 62.2206 41.3514 62.2206C42.0414 62.2206 42.5414 62.4606 43.0414 62.8806L44.1814 61.5106C43.4414 60.8706 42.5714 60.4906 41.3414 60.4906C39.1714 60.4906 37.5714 62.0906 37.5714 64.1306V64.1506C37.5714 66.2706 39.2014 67.7706 41.3814 67.7706ZM48.647 67.7606C50.637 67.7606 51.927 66.7706 51.927 64.5106V60.6306H49.957V64.5706C49.957 65.5506 49.447 66.0106 48.667 66.0106C47.887 66.0106 47.377 65.5306 47.377 64.5206V60.6306H45.407V64.5606C45.407 66.7506 46.657 67.7606 48.647 67.7606ZM53.0751 67.6306H55.0151V65.5106H55.8651L57.2751 67.6306H59.5151L57.8451 65.1906C58.7151 64.8206 59.2851 64.1106 59.2851 63.0406V63.0206C59.2851 62.3306 59.0751 61.7906 58.6651 61.3906C58.1951 60.9106 57.4551 60.6306 56.3851 60.6306H53.0751V67.6306ZM55.0151 63.9906V62.3106H56.2851C56.9351 62.3106 57.3351 62.5906 57.3351 63.1406V63.1606C57.3351 63.6706 56.9551 63.9906 56.2951 63.9906H55.0151ZM63.7826 67.7706C65.9426 67.7706 67.5626 66.1406 67.5626 64.1306V64.1106C67.5626 62.1006 65.9626 60.4906 63.8026 60.4906C61.6426 60.4906 60.0226 62.1206 60.0226 64.1306V64.1506C60.0226 66.1606 61.6226 67.7706 63.7826 67.7706ZM63.8026 66.0206C62.7426 66.0206 62.0126 65.1406 62.0126 64.1306V64.1106C62.0126 63.1006 62.7226 62.2406 63.7826 62.2406C64.8526 62.2406 65.5826 63.1206 65.5826 64.1306V64.1506C65.5826 65.1606 64.8726 66.0206 63.8026 66.0206ZM29.6093 79.7506C31.3093 79.7506 32.4393 78.9006 32.4393 77.4706V77.4506C32.4393 76.1406 31.4393 75.6206 29.8293 75.2706C28.8593 75.0506 28.6193 74.9106 28.6193 74.5906V74.5706C28.6193 74.3206 28.8493 74.1206 29.3193 74.1206C29.9393 74.1206 30.6393 74.3606 31.2793 74.8106L32.2493 73.4406C31.4893 72.8306 30.5593 72.5106 29.3693 72.5106C27.6893 72.5106 26.6593 73.4506 26.6593 74.7506V74.7706C26.6593 76.2106 27.8093 76.6306 29.2993 76.9706C30.2493 77.1906 30.4793 77.3506 30.4793 77.6406V77.6606C30.4793 77.9606 30.1993 78.1406 29.6793 78.1406C28.8693 78.1406 28.0993 77.8506 27.4093 77.3006L26.3293 78.5906C27.1893 79.3606 28.3693 79.7506 29.6093 79.7506ZM36.9027 79.7706C39.0627 79.7706 40.6827 78.1406 40.6827 76.1306V76.1106C40.6827 74.1006 39.0827 72.4906 36.9227 72.4906C34.7627 72.4906 33.1427 74.1206 33.1427 76.1306V76.1506C33.1427 78.1606 34.7427 79.7706 36.9027 79.7706ZM36.9227 78.0206C35.8627 78.0206 35.1327 77.1406 35.1327 76.1306V76.1106C35.1327 75.1006 35.8427 74.2406 36.9027 74.2406C37.9727 74.2406 38.7027 75.1206 38.7027 76.1306V76.1506C38.7027 77.1606 37.9927 78.0206 36.9227 78.0206ZM45.0632 79.7706C46.6132 79.7706 47.5032 79.1006 48.1632 78.1906L46.7032 77.1506C46.2832 77.6606 45.8532 78.0006 45.1232 78.0006C44.1432 78.0006 43.4532 77.1806 43.4532 76.1306V76.1106C43.4532 75.0906 44.1432 74.2606 45.1232 74.2606C45.7932 74.2606 46.2532 74.5806 46.6532 75.0806L48.1132 73.9506C47.4932 73.0906 46.5732 72.4906 45.1432 72.4906C43.0232 72.4906 41.4532 74.0906 41.4532 76.1306V76.1506C41.4532 78.2406 43.0632 79.7706 45.0632 79.7706ZM49.0379 79.6306H50.9879V72.6306H49.0379V79.6306ZM51.7094 79.6306H53.7494L54.2494 78.3806H56.9494L57.4594 79.6306H59.5394L56.5594 72.5806H54.6894L51.7094 79.6306ZM54.8194 76.8706L55.6094 74.8806L56.3894 76.8706H54.8194ZM60.2186 79.6306H65.5486V77.9306H62.1586V72.6306H60.2186V79.6306Z" fill="white"/>
<g clip-path="url(#clip0_320_1255)">
<path fill-rule="evenodd" clip-rule="evenodd" d="M51.5339 16.4813C51.5339 16.4813 49.1426 18.6133 48.2677 19.0397C47.5095 19.3524 46.518 20.2052 47.6261 21.9108C48.8218 23.6164 52.4088 28.1647 52.3213 32.6277C52.3213 32.6277 53.6336 29.3302 51.009 24.2418C48.4718 18.926 49.2301 20.6032 51.5339 16.4813Z" fill="white"/>
<path fill-rule="evenodd" clip-rule="evenodd" d="M44.6518 26.8855C42.5813 25.8337 41.1815 27.1982 41.1815 27.1982C41.1815 27.1982 40.4233 27.6246 40.8607 28.9038C41.4148 30.6947 40.8607 31.0358 40.6566 31.4622C40.5399 31.8886 39.665 33.3668 39.665 33.4805C39.7817 33.6795 39.8692 33.4805 40.5399 33.1678C41.094 32.9688 41.6189 33.3668 41.8522 33.4805C41.9689 33.6795 42.0564 33.7932 42.173 33.7932C42.3771 33.7932 42.4938 33.9069 42.6104 34.2196C42.6104 34.5323 42.8146 34.4186 42.8146 34.4186C42.9312 34.1059 42.6979 33.6795 42.4938 33.3668C42.2897 33.1678 42.173 32.7414 42.173 32.7414C42.3771 32.7414 42.4938 32.4287 42.3771 32.315C42.173 32.2013 42.0564 32.315 42.0564 32.315C41.8522 32.4287 40.8607 32.315 40.8607 32.315C41.6189 31.1495 42.0564 30.8368 42.4938 30.8368C42.9312 30.7231 43.5728 30.7231 44.2435 30.4104C45.0018 29.984 45.3225 29.1312 44.681 29.5576C44.0394 29.984 43.0479 30.2967 41.9689 29.2449C40.9773 28.3921 41.7647 27.454 42.173 27.3403C42.3771 27.3403 43.8061 27.0276 45.1184 28.0794C45.6725 28.5058 46.3141 29.1312 46.6348 30.0977C47.7138 33.8216 45.4392 35.2998 43.9227 34.6744C42.8437 34.4755 42.7271 34.5607 41.6481 35.2146C40.5691 35.7547 40.015 34.6744 40.015 34.6744C40.015 34.5607 40.015 34.5607 40.015 34.5607C39.8983 34.5607 39.8983 34.6744 39.8983 34.6744C39.7817 37.2329 42.4063 36.0674 42.4063 36.0674C42.4063 36.0674 42.2022 36.3801 42.6104 36.6075C42.9312 36.8065 43.8061 36.1811 43.8061 36.6075C43.6894 36.9202 42.6104 37.1476 42.6104 37.1476C44.0394 37.6877 47.0723 37.6877 47.9471 34.1628C48.6762 30.382 46.6348 27.8236 44.6518 26.8855Z" fill="white"/>
<path fill-rule="evenodd" clip-rule="evenodd" d="M61.7701 15.6285C61.4493 12.2457 59.5829 10.6538 57.4249 10.3127C57.4249 10.3127 47.1889 10 45.2351 10C43.2812 10 34.3575 10.3127 34.3575 10.3127C32.9285 10.3127 30.0123 11.2792 29.5749 14.7757C28.9916 18.4996 29.1958 22.3088 29.0791 25.8053C29.0791 29.3018 29.2832 33.4521 29.3999 34.8166C29.604 36.0958 30.2748 39.1659 33.5409 39.1659C33.5409 39.1659 43.8936 39.4786 45.5267 39.4786C47.2764 39.4786 56.8417 39.1659 56.8417 39.1659C60.312 39.1659 61.4202 36.8349 61.6243 34.5892C61.741 33.4237 61.9451 28.847 61.9451 25.6632C61.9743 22.5362 61.8576 17.7605 61.7701 15.6285ZM33.8909 12.2173C35.7281 11.3645 37.2737 12.6437 38.0319 12.9564C38.7902 13.3828 44.331 18.1869 44.331 18.1869C44.331 18.1869 38.7902 18.6133 36.4863 18.4996C34.6491 18.4996 33.5409 18.926 32.3453 19.8925C31.8204 15.6285 32.0245 13.1838 33.8909 12.2173ZM45.41 38.3415C36.253 39.8197 34.7366 31.7465 34.1825 29.6429C33.7451 28.3637 33.3076 26.2601 32.8702 23.8154C34.2992 23.6164 35.2615 23.8154 36.5738 23.8154C38.761 23.9291 39.9567 24.2418 40.4816 24.6682C41.3565 25.4073 40.8024 26.5728 40.8024 26.5728C42.5521 25.72 44.0686 25.8337 45.585 26.4591C50.5426 28.4774 52.3798 37.176 45.41 38.3415ZM59.1455 21.9961C58.8247 24.2134 58.2706 26.2317 57.6291 29.2165C55.5585 39.1943 49.4636 38.2278 49.4636 38.2278C53.488 32.2866 49.9885 26.5444 45.2059 24.3271C39.9858 21.8824 32.6952 22.4225 32.6952 22.4225L31.937 23.0479C31.937 23.0479 31.4996 22.4225 31.3829 21.9961C31.1788 21.6834 31.8204 21.257 32.0245 21.1433C32.3453 20.9443 33.016 20.9443 33.2202 20.9443C33.3368 20.9443 33.9784 21.6834 33.9784 21.6834C34.1825 21.3707 34.9699 20.8306 35.2907 20.8306C35.4948 20.6316 35.4948 20.5179 35.4948 20.5179H33.4243C33.5409 20.2052 34.5033 19.4661 35.4948 19.4661C36.4863 19.6651 42.2605 19.3524 42.2605 19.3524C41.6189 20.0915 39.6359 21.3707 39.6359 21.3707C41.3856 21.1717 46.4016 18.6133 48.997 16.2823C51.6216 13.7239 54.9753 11.0802 57.5999 12.4731C59.4663 13.2975 60.0204 15.9412 59.1455 21.9961Z" fill="white"/>
<path fill-rule="evenodd" clip-rule="evenodd" d="M28.1166 45.2492C28.1166 43.3446 28.1166 42.1791 28 40.6725C28.4374 40.6725 28.8749 40.6725 29.429 40.6725C29.983 40.6725 30.4205 40.6725 30.8579 40.6725C30.7413 42.1507 30.7413 43.3162 30.7413 45.2492V47.4665C30.7413 49.3711 30.7413 50.764 30.8579 52.0432C30.4205 52.0432 29.983 52.0432 29.429 52.0432C28.8749 52.0432 28.4374 52.0432 28 52.0432C28.1166 50.764 28.1166 49.3995 28.1166 47.4665V45.2492Z" fill="white"/>
<path fill-rule="evenodd" clip-rule="evenodd" d="M35.0866 44.5101C34.6491 47.0685 34.445 49.5985 34.3284 52.0432C34.0076 52.0432 33.6868 52.0432 33.4535 52.0432C33.1327 52.0432 32.8119 52.0432 32.5786 52.0432C33.3368 48.433 34.0076 44.5101 34.4158 40.6725C34.7366 40.6725 34.9699 40.6725 35.1741 40.6725C35.3782 40.6725 35.7281 40.6725 35.9323 40.6725C37.2446 43.3162 38.8777 46.301 40.19 48.632C41.7064 46.1873 43.252 43.3162 44.5352 40.6725C44.7393 40.6725 45.0893 40.6725 45.2934 40.6725C45.4975 40.6725 45.8475 40.6725 46.0516 40.6725C46.6057 44.4817 47.2473 49.7975 47.6847 52.0432C47.1306 52.0432 46.6932 52.0432 46.1683 52.0432C45.7308 52.0432 45.1768 52.0432 44.6518 52.0432C44.5352 49.8259 44.2144 47.0685 43.8936 44.3964C42.4647 47.0401 41.1815 49.5985 39.7526 52.0432C39.6359 52.0432 39.5484 52.0432 39.4318 52.0432C39.3151 52.0432 39.2276 52.0432 39.111 52.0432C37.7987 49.5985 36.4864 47.0401 35.0866 44.5101Z" fill="white"/>
<path fill-rule="evenodd" clip-rule="evenodd" d="M54.1295 42.9182C53.6921 42.0654 52.9339 41.44 51.7382 41.44C50.5426 41.44 49.6677 42.1791 49.6677 42.9182C49.6677 45.4766 55.646 44.8228 55.646 48.5467C55.646 50.8777 53.5754 52.3559 50.4259 52.3559C48.9969 52.3559 47.9179 52.0432 47.2764 51.6168C47.5972 50.8777 47.7138 50.3376 47.9179 49.5985H48.2387C48.4429 50.4513 49.3177 51.3041 50.9508 51.3041C52.4673 51.3041 53.2255 50.565 53.2255 49.5985C53.2255 47.0401 47.3347 47.8076 47.3347 43.97C47.3347 41.7527 49.4052 40.4735 51.7965 40.4735C53.2255 40.4735 54.3045 40.6725 55.0627 41.3263C54.7419 41.7527 54.6253 42.1791 54.4211 42.9182H54.1295V42.9182Z" fill="white"/>
<path fill-rule="evenodd" clip-rule="evenodd" d="M61.5368 42.9182C61.0993 42.0654 60.3411 41.44 59.1454 41.44C57.9498 41.44 57.0749 42.1791 57.0749 42.9182C57.0749 45.4766 63.0532 44.8228 63.0532 48.5467C63.0532 50.8777 60.9827 52.3559 57.8331 52.3559C56.4042 52.3559 55.2085 52.0432 54.6836 51.6168C55.0044 50.8777 55.121 50.3376 55.2377 49.5985H55.6751C55.8793 50.4513 56.7541 51.3041 58.3872 51.3041C59.9037 51.3041 60.6619 50.565 60.6619 49.5985C60.6619 47.0401 54.7711 47.8076 54.7711 43.97C54.7711 41.7527 56.8416 40.4735 59.2329 40.4735C60.6619 40.4735 61.7409 40.6725 62.4991 41.3263C62.1783 41.7527 62.0617 42.1791 61.8575 42.9182H61.5368V42.9182Z" fill="white"/>
</g>
<defs>
<clipPath id="clip0_320_1255">
<rect width="35.0532" height="42.3559" fill="white" transform="translate(28 10)"/>
</clipPath>
</defs>
</svg>
