<svg width="92" height="82" viewBox="0 0 92 82" fill="none" xmlns="http://www.w3.org/2000/svg">
<path d="M14.5104 67.6806H16.3104L19.1504 60.6306H17.0204L15.4304 65.0606L13.8404 60.6306H11.6704L14.5104 67.6806ZM18.2719 67.6306H20.3119L20.8119 66.3806H23.5119L24.0219 67.6306H26.1019L23.1219 60.5806H21.2519L18.2719 67.6306ZM21.3819 64.8706L22.1719 62.8806L22.9519 64.8706H21.3819ZM29.7019 67.7706C31.2519 67.7706 32.1419 67.1006 32.8019 66.1906L31.3419 65.1506C30.9219 65.6606 30.4919 66.0006 29.7619 66.0006C28.7819 66.0006 28.0919 65.1806 28.0919 64.1306V64.1106C28.0919 63.0906 28.7819 62.2606 29.7619 62.2606C30.4319 62.2606 30.8919 62.5806 31.2919 63.0806L32.7519 61.9506C32.1319 61.0906 31.2119 60.4906 29.7819 60.4906C27.6619 60.4906 26.0919 62.0906 26.0919 64.1306V64.1506C26.0919 66.2406 27.7019 67.7706 29.7019 67.7706ZM33.018 67.6306H35.058L35.558 66.3806H38.258L38.768 67.6306H40.848L37.868 60.5806H35.998L33.018 67.6306ZM36.128 64.8706L36.918 62.8806L37.698 64.8706H36.128ZM44.448 67.7706C45.998 67.7706 46.888 67.1006 47.548 66.1906L46.088 65.1506C45.668 65.6606 45.238 66.0006 44.508 66.0006C43.528 66.0006 42.838 65.1806 42.838 64.1306V64.1106C42.838 63.0906 43.528 62.2606 44.508 62.2606C45.178 62.2606 45.638 62.5806 46.038 63.0806L47.498 61.9506C46.878 61.0906 45.958 60.4906 44.528 60.4906C42.408 60.4906 40.838 62.0906 40.838 64.1306V64.1506C40.838 66.2406 42.448 67.7706 44.448 67.7706ZM48.4227 67.6306H50.3727V60.6306H48.4227V67.6306ZM55.1742 67.7706C57.3342 67.7706 58.9542 66.1406 58.9542 64.1306V64.1106C58.9542 62.1006 57.3542 60.4906 55.1942 60.4906C53.0342 60.4906 51.4142 62.1206 51.4142 64.1306V64.1506C51.4142 66.1606 53.0142 67.7706 55.1742 67.7706ZM55.1942 66.0206C54.1342 66.0206 53.4042 65.1406 53.4042 64.1306V64.1106C53.4042 63.1006 54.1142 62.2406 55.1742 62.2406C56.2442 62.2406 56.9742 63.1206 56.9742 64.1306V64.1506C56.9742 65.1606 56.2642 66.0206 55.1942 66.0206ZM59.9647 67.6306H61.8847V63.7906L64.8747 67.6306H66.5747V60.6306H64.6547V64.3306L61.7747 60.6306H59.9647V67.6306ZM67.8163 67.6306H73.4963V65.9806H69.7363V64.8706H73.0963V63.3406H69.7363V62.2806H73.4463V60.6306H67.8163V67.6306ZM77.2362 67.7506C78.9362 67.7506 80.0662 66.9006 80.0662 65.4706V65.4506C80.0662 64.1406 79.0662 63.6206 77.4562 63.2706C76.4862 63.0506 76.2462 62.9106 76.2462 62.5906V62.5706C76.2462 62.3206 76.4762 62.1206 76.9462 62.1206C77.5662 62.1206 78.2662 62.3606 78.9062 62.8106L79.8762 61.4406C79.1162 60.8306 78.1862 60.5106 76.9962 60.5106C75.3162 60.5106 74.2862 61.4506 74.2862 62.7506V62.7706C74.2862 64.2106 75.4362 64.6306 76.9262 64.9706C77.8762 65.1906 78.1062 65.3506 78.1062 65.6406V65.6606C78.1062 65.9606 77.8262 66.1406 77.3062 66.1406C76.4962 66.1406 75.7262 65.8506 75.0362 65.3006L73.9562 66.5906C74.8162 67.3606 75.9962 67.7506 77.2362 67.7506Z" fill="white"/>
<g clip-path="url(#clip0_320_1263)">
<path d="M43.7785 36.1333C44.8288 31.7698 45.332 27.494 45.1132 22.8454C44.5005 23.4593 44.0192 23.9198 43.5597 24.3803C42.6844 25.2574 41.8311 26.1564 40.9558 27.0335C40.0587 27.9325 39.5773 27.8667 38.9866 26.7046C37.8706 24.468 38.1113 22.341 39.4679 20.2799C39.6649 19.9948 39.8618 19.7098 40.2557 19.1396C38.3958 19.6221 37.6518 18.6572 37.2361 17.1443C37.0392 17.4074 36.886 17.539 36.8422 17.6705C36.4921 19.1177 35.5075 19.3589 34.2165 19.2054C33.1662 19.0958 32.9037 18.8107 33.21 17.824C33.954 15.3682 35.7044 13.9429 38.1113 13.3289C41.9842 12.3203 45.157 13.7017 47.2575 17.1223C48.5266 16.5303 49.752 15.8067 51.0648 15.412C54.522 14.4034 58.3293 16.004 59.7515 18.9423C59.9484 19.337 60.1016 19.7536 60.1891 20.1702C60.2329 20.4334 60.211 20.7842 60.0797 21.0035C59.664 21.6394 57.2352 21.4639 56.8632 20.8061C56.6226 20.3676 56.4037 19.9071 56.1849 19.4905C56.0537 19.5343 55.9442 19.5343 55.9224 19.5782C55.4629 21.2227 54.3469 21.5517 52.7934 21.3982C51.3493 21.2447 49.8832 21.3762 48.3953 21.3762C48.7236 23.4374 49.1831 25.367 49.3143 27.3185C49.5113 30.0814 49.555 32.8442 49.555 35.6071C49.555 36.3526 49.6644 36.7473 50.4084 37.0762C53.5373 38.4576 55.3753 40.9135 55.988 44.2683C56.1849 45.3647 55.5504 46.2856 54.4345 46.5268C54.0844 46.5926 53.7124 46.5926 53.3404 46.5926C46.7543 46.5926 40.1462 46.5926 33.5601 46.5926C31.4814 46.5926 30.6499 45.5182 31.1313 43.5009C32.2035 39.0058 35.8576 36.221 40.737 36.1333C41.7217 36.1114 42.7063 36.1333 43.7785 36.1333Z" fill="white"/>
</g>
<defs>
<clipPath id="clip0_320_1263">
<rect width="29.211" height="33.5926" fill="white" transform="translate(31 13)"/>
</clipPath>
</defs>
</svg>
