<svg width="92" height="82" viewBox="0 0 92 82" fill="none" xmlns="http://www.w3.org/2000/svg">
<path d="M29.7108 67.6306H31.6508V65.6306H32.6108C34.3508 65.6306 35.6208 64.7606 35.6208 63.1106V63.0906C35.6208 61.5406 34.4808 60.6306 32.7108 60.6306H29.7108V67.6306ZM31.6508 64.1106V62.2606H32.5608C33.2608 62.2606 33.6808 62.5806 33.6808 63.1806V63.2006C33.6808 63.7506 33.2608 64.1106 32.5708 64.1106H31.6508ZM36.4393 67.6306H38.3793V65.5106H39.2293L40.6393 67.6306H42.8793L41.2093 65.1906C42.0793 64.8206 42.6493 64.1106 42.6493 63.0406V63.0206C42.6493 62.3306 42.4393 61.7906 42.0293 61.3906C41.5593 60.9106 40.8193 60.6306 39.7493 60.6306H36.4393V67.6306ZM38.3793 63.9906V62.3106H39.6493C40.2993 62.3106 40.6993 62.5906 40.6993 63.1406V63.1606C40.6993 63.6706 40.3193 63.9906 39.6593 63.9906H38.3793ZM43.6668 67.6306H45.6168V60.6306H43.6668V67.6306ZM46.8983 67.6306H48.7983V63.6306L50.5783 66.3506H50.6183L52.4083 63.6106V67.6306H54.3383V60.6306H52.2883L50.6183 63.3406L48.9483 60.6306H46.8983V67.6306ZM55.02 67.6306H57.06L57.56 66.3806H60.26L60.77 67.6306H62.85L59.87 60.5806H58L55.02 67.6306ZM58.13 64.8706L58.92 62.8806L59.7 64.8706H58.13ZM16.4247 79.6306H19.0847C21.6047 79.6306 23.0747 78.1306 23.0747 76.1106V76.0906C23.0747 74.0706 21.6247 72.6306 19.1247 72.6306H16.4247V79.6306ZM18.3647 77.9106V74.3506H19.1547C20.3147 74.3506 21.0847 75.0006 21.0847 76.1206V76.1406C21.0847 77.2706 20.3147 77.9106 19.1547 77.9106H18.3647ZM27.5912 79.7706C29.7512 79.7706 31.3712 78.1406 31.3712 76.1306V76.1106C31.3712 74.1006 29.7712 72.4906 27.6112 72.4906C25.4512 72.4906 23.8312 74.1206 23.8312 76.1306V76.1506C23.8312 78.1606 25.4312 79.7706 27.5912 79.7706ZM27.6112 78.0206C26.5512 78.0206 25.8212 77.1406 25.8212 76.1306V76.1106C25.8212 75.1006 26.5312 74.2406 27.5912 74.2406C28.6612 74.2406 29.3912 75.1206 29.3912 76.1306V76.1506C29.3912 77.1606 28.6812 78.0206 27.6112 78.0206ZM32.3817 79.6306H34.2817V75.6306L36.0617 78.3506H36.1017L37.8917 75.6106V79.6306H39.8217V72.6306H37.7717L36.1017 75.3406L34.4317 72.6306H32.3817V79.6306ZM41.1034 79.6306H43.0534V72.6306H41.1034V79.6306ZM44.3348 79.6306H46.2548V75.7906L49.2448 79.6306H50.9448V72.6306H49.0248V76.3306L46.1448 72.6306H44.3348V79.6306ZM52.2264 79.6306H54.1764V72.6306H52.2264V79.6306ZM58.8279 79.7706C60.3779 79.7706 61.2679 79.1006 61.9279 78.1906L60.4679 77.1506C60.0479 77.6606 59.6179 78.0006 58.8879 78.0006C57.9079 78.0006 57.2179 77.1806 57.2179 76.1306V76.1106C57.2179 75.0906 57.9079 74.2606 58.8879 74.2606C59.5579 74.2606 60.0179 74.5806 60.4179 75.0806L61.8779 73.9506C61.2579 73.0906 60.3379 72.4906 58.9079 72.4906C56.7879 72.4906 55.2179 74.0906 55.2179 76.1306V76.1506C55.2179 78.2406 56.8279 79.7706 58.8279 79.7706ZM62.144 79.6306H64.184L64.684 78.3806H67.384L67.894 79.6306H69.974L66.994 72.5806H65.124L62.144 79.6306ZM65.254 76.8706L66.044 74.8806L66.824 76.8706H65.254ZM70.6532 79.6306H75.9832V77.9306H72.5932V72.6306H70.6532V79.6306Z" fill="white"/>
<g clip-path="url(#clip0_320_1301)">
<path d="M36.8923 13.2926C36.8923 12.0269 37.925 11 39.1977 11C40.4705 11 41.5032 12.0269 41.5032 13.2926V15.5851H50.6529V13.2926C50.6529 12.0269 51.6855 11 52.9583 11C54.2311 11 55.2638 12.0269 55.2638 13.2926V15.5851H58.6979C60.5951 15.5851 62.1321 17.1135 62.1321 19.0001V22.415H30V19.0001C30 17.1135 31.537 15.5851 33.4341 15.5851H36.8683V13.2926H36.8923Z" fill="white"/>
<path d="M62.1321 44.0988C62.1321 45.9853 60.5951 47.5137 58.6979 47.5137H33.4341C31.537 47.5137 30 45.9853 30 44.0988V24.6837H62.1321V44.0988ZM37.1565 33.5435C37.2525 34.7614 37.7088 35.8121 38.5493 36.7196C38.7895 36.9584 39.0296 37.1972 39.2698 37.436C41.5272 39.6808 43.7606 41.9017 46.018 44.1465C46.042 44.1704 46.066 44.1943 46.0901 44.2182C46.1141 44.1943 46.1381 44.1704 46.1381 44.1704C48.5636 41.7584 50.9891 39.3465 53.4146 36.9106C53.8469 36.4808 54.1831 36.0271 54.4473 35.5017C54.7114 34.9763 54.8795 34.427 54.9516 33.83C55.1197 32.1106 54.6154 30.6539 53.3666 29.4598C52.6221 28.7434 51.7336 28.3136 50.7249 28.1225C50.2446 28.027 49.7643 28.027 49.284 28.0748C48.0593 28.1942 47.0026 28.6957 46.1381 29.5554C46.1141 29.5792 46.0901 29.6031 46.066 29.6509C46.018 29.6031 45.994 29.5792 45.97 29.5554C45.1775 28.7912 44.2649 28.3136 43.1842 28.1225C42.728 28.0509 42.2477 28.027 41.7914 28.0748C39.8221 28.2658 38.2371 29.5315 37.5167 31.227C37.3006 31.7524 37.1805 32.2778 37.1325 32.8509C37.1325 32.9226 37.1084 32.9703 37.1084 33.042C37.1084 33.1614 37.1084 33.2808 37.1084 33.4002C37.1325 33.4241 37.1565 33.4718 37.1565 33.5435Z" fill="white"/>
</g>
<defs>
<clipPath id="clip0_320_1301">
<rect width="32.1321" height="36.5137" fill="white" transform="translate(30 11)"/>
</clipPath>
</defs>
</svg>
