<svg width="92" height="82" viewBox="0 0 92 82" fill="none" xmlns="http://www.w3.org/2000/svg">
<path d="M22.5721 67.6306H26.1821C27.8521 67.6306 28.8321 66.9006 28.8321 65.7006V65.6806C28.8321 64.7306 28.2921 64.2506 27.4421 63.9706C28.0621 63.7006 28.5221 63.2206 28.5221 62.4106V62.3906C28.5221 61.9106 28.3521 61.5406 28.0721 61.2606C27.6621 60.8506 27.0421 60.6306 26.1621 60.6306H22.5721V67.6306ZM24.4621 63.4206V62.1906H25.7221C26.3021 62.1906 26.6021 62.4106 26.6021 62.7906V62.8106C26.6021 63.2206 26.2721 63.4206 25.6821 63.4206H24.4621ZM24.4621 66.0706V64.7806H25.9421C26.5921 64.7806 26.8921 65.0306 26.8921 65.4106V65.4306C26.8921 65.8406 26.5521 66.0706 25.9621 66.0706H24.4621ZM33.2406 67.7706C35.4006 67.7706 37.0206 66.1406 37.0206 64.1306V64.1106C37.0206 62.1006 35.4206 60.4906 33.2606 60.4906C31.1006 60.4906 29.4806 62.1206 29.4806 64.1306V64.1506C29.4806 66.1606 31.0806 67.7706 33.2406 67.7706ZM33.2606 66.0206C32.2006 66.0206 31.4706 65.1406 31.4706 64.1306V64.1106C31.4706 63.1006 32.1806 62.2406 33.2406 62.2406C34.3106 62.2406 35.0406 63.1206 35.0406 64.1306V64.1506C35.0406 65.1606 34.3306 66.0206 33.2606 66.0206ZM38.0311 67.6306H39.9511V63.7906L42.9411 67.6306H44.6411V60.6306H42.7211V64.3306L39.8411 60.6306H38.0311V67.6306ZM49.4027 67.7706C51.5627 67.7706 53.1827 66.1406 53.1827 64.1306V64.1106C53.1827 62.1006 51.5827 60.4906 49.4227 60.4906C47.2627 60.4906 45.6427 62.1206 45.6427 64.1306V64.1506C45.6427 66.1606 47.2427 67.7706 49.4027 67.7706ZM49.4227 66.0206C48.3627 66.0206 47.6327 65.1406 47.6327 64.1306V64.1106C47.6327 63.1006 48.3427 62.2406 49.4027 62.2406C50.4727 62.2406 51.2027 63.1206 51.2027 64.1306V64.1506C51.2027 65.1606 50.4927 66.0206 49.4227 66.0206ZM56.8944 67.7506C58.5944 67.7506 59.7244 66.9006 59.7244 65.4706V65.4506C59.7244 64.1406 58.7244 63.6206 57.1144 63.2706C56.1444 63.0506 55.9044 62.9106 55.9044 62.5906V62.5706C55.9044 62.3206 56.1344 62.1206 56.6044 62.1206C57.2244 62.1206 57.9244 62.3606 58.5644 62.8106L59.5344 61.4406C58.7744 60.8306 57.8444 60.5106 56.6544 60.5106C54.9744 60.5106 53.9444 61.4506 53.9444 62.7506V62.7706C53.9444 64.2106 55.0944 64.6306 56.5844 64.9706C57.5344 65.1906 57.7644 65.3506 57.7644 65.6406V65.6606C57.7644 65.9606 57.4844 66.1406 56.9644 66.1406C56.1544 66.1406 55.3844 65.8506 54.6944 65.3006L53.6144 66.5906C54.4744 67.3606 55.6544 67.7506 56.8944 67.7506ZM65.4613 67.6306H67.4113V64.9806L70.0713 60.6306H67.9013L66.4513 63.1806L65.0113 60.6306H62.8013L65.4613 65.0106V67.6306ZM22.9579 79.6306H24.8979V77.6306H25.8579C27.5979 77.6306 28.8679 76.7606 28.8679 75.1106V75.0906C28.8679 73.5406 27.7279 72.6306 25.9579 72.6306H22.9579V79.6306ZM24.8979 76.1106V74.2606H25.8079C26.5079 74.2606 26.9279 74.5806 26.9279 75.1806V75.2006C26.9279 75.7506 26.5079 76.1106 25.8179 76.1106H24.8979ZM29.6864 79.6306H31.6264V77.5106H32.4764L33.8864 79.6306H36.1264L34.4564 77.1906C35.3264 76.8206 35.8964 76.1106 35.8964 75.0406V75.0206C35.8964 74.3306 35.6864 73.7906 35.2764 73.3906C34.8064 72.9106 34.0664 72.6306 32.9964 72.6306H29.6864V79.6306ZM31.6264 75.9906V74.3106H32.8964C33.5464 74.3106 33.9464 74.5906 33.9464 75.1406V75.1606C33.9464 75.6706 33.5664 75.9906 32.9064 75.9906H31.6264ZM36.8739 79.6306H42.5539V77.9806H38.7939V76.8706H42.1539V75.3406H38.7939V74.2806H42.5039V72.6306H36.8739V79.6306ZM43.5438 79.6306H45.4438V75.6306L47.2238 78.3506H47.2638L49.0538 75.6106V79.6306H50.9838V72.6306H48.9338L47.2638 75.3406L45.5938 72.6306H43.5438V79.6306ZM52.2655 79.6306H54.2155V72.6306H52.2655V79.6306ZM59.017 79.7706C61.177 79.7706 62.797 78.1406 62.797 76.1306V76.1106C62.797 74.1006 61.197 72.4906 59.037 72.4906C56.877 72.4906 55.257 74.1206 55.257 76.1306V76.1506C55.257 78.1606 56.857 79.7706 59.017 79.7706ZM59.037 78.0206C57.977 78.0206 57.247 77.1406 57.247 76.1306V76.1106C57.247 75.1006 57.957 74.2406 59.017 74.2406C60.087 74.2406 60.817 75.1206 60.817 76.1306V76.1506C60.817 77.1606 60.107 78.0206 59.037 78.0206ZM66.5087 79.7506C68.2087 79.7506 69.3387 78.9006 69.3387 77.4706V77.4506C69.3387 76.1406 68.3387 75.6206 66.7287 75.2706C65.7587 75.0506 65.5187 74.9106 65.5187 74.5906V74.5706C65.5187 74.3206 65.7487 74.1206 66.2187 74.1206C66.8387 74.1206 67.5387 74.3606 68.1787 74.8106L69.1487 73.4406C68.3887 72.8306 67.4587 72.5106 66.2687 72.5106C64.5887 72.5106 63.5587 73.4506 63.5587 74.7506V74.7706C63.5587 76.2106 64.7087 76.6306 66.1987 76.9706C67.1487 77.1906 67.3787 77.3506 67.3787 77.6406V77.6606C67.3787 77.9606 67.0987 78.1406 66.5787 78.1406C65.7687 78.1406 64.9987 77.8506 64.3087 77.3006L63.2287 78.5906C64.0887 79.3606 65.2687 79.7506 66.5087 79.7506Z" fill="white"/>
<g clip-path="url(#clip0_320_1307)">
<path d="M46.574 40.8487C41.2827 40.8487 36.0312 40.8904 30.7995 40.8278C28.5915 40.8069 27.0797 39.1169 27.0399 36.7174C26.9802 31.522 26.9802 26.3475 27.0399 21.1521C27.0797 18.544 28.6909 17 31.1775 17C39.8107 17 48.4638 17 57.097 17C59.6233 17 61.155 18.6483 61.1948 21.2773C61.1948 21.632 61.1948 21.9659 61.1948 22.3206C61.2346 23.7811 61.5131 25.3043 59.504 25.6798C59.0664 25.7633 58.6685 26.3266 58.2906 26.7231C55.4062 29.7068 52.5218 32.7113 49.6573 35.7159C47.5289 37.9276 47.5289 37.9276 46.574 40.8487ZM33.8828 26.7439C33.8828 26.577 33.8828 26.4101 33.9027 26.2432C34.4 26.0763 34.8973 25.7842 35.4145 25.7633C35.9914 25.7216 36.5881 25.8676 37.165 25.9719C37.9209 26.0971 38.6172 26.0137 38.8161 25.0956C39.0349 24.1358 38.458 23.6768 37.6623 23.5099C37.1252 23.4055 36.8467 23.176 36.6478 22.5918C36.5285 22.2162 35.9516 21.7781 35.5935 21.7572C35.2156 21.7572 34.6387 22.1745 34.5194 22.5501C34.3204 23.1552 33.9823 23.3847 33.4651 23.6142C32.2516 24.1358 31.6151 25.1373 31.5554 26.4936C31.4957 27.7872 32.1522 28.6427 33.2065 29.1851C33.7038 29.4355 34.221 29.6442 34.7581 29.8737C35.3946 30.1449 36.0709 30.3327 36.6876 30.6457C36.9064 30.75 37.1849 31.1047 37.165 31.3134C37.1451 31.5429 36.8269 31.8767 36.608 31.8976C36.0113 31.9811 35.3747 32.0019 34.778 31.9185C34.1414 31.8141 33.5048 31.4386 32.8683 31.4386C32.4506 31.4386 31.814 31.8559 31.6947 32.2314C31.5753 32.5861 31.8936 33.2121 32.1721 33.6085C32.3909 33.9006 32.8484 34.0467 33.2264 34.151C33.8828 34.3388 34.4199 34.5474 34.5989 35.382C34.6586 35.6742 35.2355 36.0706 35.5537 36.0497C35.9317 36.0289 36.5683 35.695 36.6478 35.4029C36.8269 34.61 37.344 34.4223 37.9209 34.151C39.0946 33.5877 39.6515 32.5444 39.6714 31.2508C39.6913 30.0197 39.1542 29.0391 38.0801 28.4966C37.344 28.121 36.5484 27.8707 35.7925 27.5368C35.0962 27.3073 34.4995 27.0152 33.8828 26.7439ZM47.9068 26.9735C49.359 26.9735 50.7912 26.9735 52.2433 26.9735C52.9793 26.9735 53.6358 26.8065 53.6159 25.8885C53.596 25.033 52.9594 24.887 52.2831 24.887C49.3987 24.887 46.4945 24.887 43.6101 24.887C42.894 24.887 42.2176 25.033 42.2375 25.9719C42.2574 26.8274 42.894 26.9735 43.5703 26.9735C45.0026 26.9735 46.4547 26.9735 47.9068 26.9735ZM45.102 30.8961C44.4854 30.8961 43.8289 30.7918 43.2321 30.9378C42.8542 31.0421 42.3569 31.4594 42.2574 31.835C42.0983 32.461 42.5757 32.8991 43.1725 32.92C44.4257 32.9617 45.6789 33.0243 46.9321 32.8991C47.2902 32.8574 47.8273 32.294 47.9068 31.8767C48.0262 31.2716 47.509 30.8961 46.8923 30.8961C46.2757 30.8752 45.6789 30.8961 45.102 30.8961Z" fill="white"/>
<path d="M56.7785 30.9795C58.2705 32.5653 59.643 34.005 61.0156 35.4446C58.5688 38.011 56.1022 40.7026 53.5162 43.269C52.9592 43.8324 51.9646 43.9367 51.1689 44.2079C50.5523 44.4166 49.8958 44.5835 49.2593 44.7296C48.3641 44.9173 47.827 44.3749 48.0459 43.4568C48.3045 42.2466 48.6227 41.0365 48.941 39.8472C49.0405 39.4924 49.1996 39.1169 49.4383 38.8456C51.905 36.1958 54.3716 33.5668 56.7785 30.9795Z" fill="white"/>
<path d="M62.6866 33.7546C61.2544 32.2523 59.9017 30.8335 58.5093 29.3729C59.6232 28.434 60.3394 26.6188 62.2291 27.0569C63.542 27.349 64.5565 28.3923 64.8947 29.7276C65.392 31.7307 63.6415 32.5653 62.6866 33.7546Z" fill="white"/>
</g>
<defs>
<clipPath id="clip0_320_1307">
<rect width="37.9743" height="27.7504" fill="white" transform="translate(27 17)"/>
</clipPath>
</defs>
</svg>
