<svg width="92" height="82" viewBox="0 0 92 82" fill="none" xmlns="http://www.w3.org/2000/svg">
<path d="M14.0825 67.6306H16.1225L16.6225 66.3806H19.3225L19.8325 67.6306H21.9125L18.9325 60.5806H17.0625L14.0825 67.6306ZM17.1925 64.8706L17.9825 62.8806L18.7625 64.8706H17.1925ZM25.7125 67.7706C26.9825 67.7706 28.0125 67.3006 28.7525 66.6906V63.5406H25.5325V64.9606H26.9125V65.8106C26.6225 66.0006 26.2625 66.1006 25.7925 66.1006C24.6825 66.1006 23.8925 65.2906 23.8925 64.1606V64.1406C23.8925 63.0706 24.6725 62.2206 25.6825 62.2206C26.3725 62.2206 26.8725 62.4606 27.3725 62.8806L28.5125 61.5106C27.7725 60.8706 26.9025 60.4906 25.6725 60.4906C23.5025 60.4906 21.9025 62.0906 21.9025 64.1306V64.1506C21.9025 66.2706 23.5325 67.7706 25.7125 67.7706ZM32.978 67.7606C34.968 67.7606 36.258 66.7706 36.258 64.5106V60.6306H34.288V64.5706C34.288 65.5506 33.778 66.0106 32.998 66.0106C32.218 66.0106 31.708 65.5306 31.708 64.5206V60.6306H29.738V64.5606C29.738 66.7506 30.988 67.7606 32.978 67.7606ZM37.4461 67.6306H39.3961V60.6306H37.4461V67.6306ZM40.6776 67.6306H42.5976V63.7906L45.5876 67.6306H47.2876V60.6306H45.3676V64.3306L42.4876 60.6306H40.6776V67.6306ZM47.9692 67.6306H50.0092L50.5092 66.3806H53.2092L53.7192 67.6306H55.7992L52.8192 60.5806H50.9492L47.9692 67.6306ZM51.0792 64.8706L51.8692 62.8806L52.6492 64.8706H51.0792ZM56.4784 67.6306H61.8084V65.9306H58.4184V60.6306H56.4784V67.6306ZM62.6405 67.6306H65.3005C67.8205 67.6306 69.2905 66.1306 69.2905 64.1106V64.0906C69.2905 62.0706 67.8405 60.6306 65.3405 60.6306H62.6405V67.6306ZM64.5805 65.9106V62.3506H65.3705C66.5305 62.3506 67.3005 63.0006 67.3005 64.1206V64.1406C67.3005 65.2706 66.5305 65.9106 65.3705 65.9106H64.5805ZM73.807 67.7706C75.967 67.7706 77.587 66.1406 77.587 64.1306V64.1106C77.587 62.1006 75.987 60.4906 73.827 60.4906C71.667 60.4906 70.047 62.1206 70.047 64.1306V64.1506C70.047 66.1606 71.647 67.7706 73.807 67.7706ZM73.827 66.0206C72.767 66.0206 72.037 65.1406 72.037 64.1306V64.1106C72.037 63.1006 72.747 62.2406 73.807 62.2406C74.877 62.2406 75.607 63.1206 75.607 64.1306V64.1506C75.607 65.1606 74.897 66.0206 73.827 66.0206Z" fill="white"/>
<path d="M60.7778 16C63.1066 16 65 17.8466 65 20.125V36.625C65 38.9002 63.1066 40.75 60.7778 40.75H31.2222C28.8901 40.75 27 38.9002 27 36.625V20.125C27 17.8466 28.8901 16 31.2222 16H60.7778ZM44.9444 24.25C44.3639 24.25 43.8889 24.7141 43.8889 25.2812C43.8889 25.8484 44.3639 26.3125 44.9444 26.3125H59.7222C60.3028 26.3125 60.7778 25.8484 60.7778 25.2812C60.7778 24.7141 60.3028 24.25 59.7222 24.25H44.9444ZM44.9444 32.5H59.7222C60.3028 32.5 60.7778 32.0359 60.7778 31.4688C60.7778 30.9016 60.3028 30.4375 59.7222 30.4375H44.9444C44.3639 30.4375 43.8889 30.9016 43.8889 31.4688C43.8889 32.0359 44.3639 32.5 44.9444 32.5ZM37.826 22.1875C37.826 21.4721 37.2323 20.892 36.4406 20.892C35.7677 20.892 35.174 21.4721 35.174 22.1875V22.5742C34.8045 22.6516 34.3955 22.7611 34.125 22.9029C33.1394 23.3412 32.2824 24.1533 32.0739 25.3328C31.9572 25.9902 32.0192 26.6283 32.2989 27.202C32.5727 27.7691 33.0035 28.1687 33.4409 28.4588C34.2042 28.968 35.2135 29.2645 35.9854 29.49L36.1306 29.5287C37.0542 29.8059 37.6743 30.0057 38.0635 30.2828C38.2285 30.3988 38.2878 30.4891 38.3076 30.5471C38.334 30.5986 38.3736 30.7146 38.3274 30.9725C38.2878 31.198 38.1625 31.3914 37.7997 31.5396C37.3972 31.7072 36.7441 31.791 35.8997 31.6621C35.5038 31.5977 34.7979 31.3656 34.1712 31.1594C34.026 31.1078 33.8809 31.0627 33.749 31.0176C33.0589 30.792 32.3114 31.1594 32.0812 31.8361C31.8509 32.5129 32.225 33.2412 32.9164 33.4088C32.9962 33.4926 33.0952 33.5248 33.2086 33.5635C33.6698 33.7375 34.5472 34.0082 35.174 34.15V34.5625C35.174 35.2779 35.7677 35.858 36.4406 35.858C37.2323 35.858 37.826 35.2779 37.826 34.5625V34.208C38.1757 34.1436 38.5187 33.9889 38.8354 33.9115C39.8778 33.4797 40.709 32.6418 40.9267 31.4172C41.0455 30.7469 40.9927 30.1023 40.7288 29.5158C40.4715 28.9357 40.0559 28.5104 39.6139 28.201C38.8156 27.6273 37.7469 27.318 36.9486 27.0795L36.8365 27.0666C35.959 26.7895 35.3257 26.5961 34.9233 26.3254C34.7517 26.2094 34.699 26.132 34.6858 26.0998C34.6726 26.074 34.633 25.9967 34.6726 25.7775C34.699 25.6486 34.7979 25.4359 35.2135 25.2555C35.583 25.0686 36.2955 24.9654 37.1003 25.0299C37.3906 25.133 38.2812 25.3006 38.5385 25.365C39.2378 25.552 39.9635 25.1395 40.1483 24.4498C40.3396 23.7666 39.9174 23.0576 39.2115 22.8771C38.9212 22.7998 38.2615 22.6709 37.826 22.5936V22.1875Z" fill="white"/>
</svg>
