<svg width="92" height="82" viewBox="0 0 92 82" fill="none" xmlns="http://www.w3.org/2000/svg">
<path d="M8.88715 67.6306H10.9271L11.4271 66.3806H14.1271L14.6371 67.6306H16.7171L13.7371 60.5806H11.8671L8.88715 67.6306ZM11.9971 64.8706L12.7871 62.8806L13.5671 64.8706H11.9971ZM20.0487 67.7506C21.7487 67.7506 22.8787 66.9006 22.8787 65.4706V65.4506C22.8787 64.1406 21.8787 63.6206 20.2687 63.2706C19.2987 63.0506 19.0587 62.9106 19.0587 62.5906V62.5706C19.0587 62.3206 19.2887 62.1206 19.7587 62.1206C20.3787 62.1206 21.0787 62.3606 21.7187 62.8106L22.6887 61.4406C21.9287 60.8306 20.9987 60.5106 19.8087 60.5106C18.1287 60.5106 17.0987 61.4506 17.0987 62.7506V62.7706C17.0987 64.2106 18.2487 64.6306 19.7387 64.9706C20.6887 65.1906 20.9187 65.3506 20.9187 65.6406V65.6606C20.9187 65.9606 20.6387 66.1406 20.1187 66.1406C19.3087 66.1406 18.5387 65.8506 17.8487 65.3006L16.7687 66.5906C17.6287 67.3606 18.8087 67.7506 20.0487 67.7506ZM23.8621 67.6306H25.8121V60.6306H23.8621V67.6306ZM29.8436 67.7506C31.5436 67.7506 32.6736 66.9006 32.6736 65.4706V65.4506C32.6736 64.1406 31.6736 63.6206 30.0636 63.2706C29.0936 63.0506 28.8536 62.9106 28.8536 62.5906V62.5706C28.8536 62.3206 29.0836 62.1206 29.5536 62.1206C30.1736 62.1206 30.8736 62.3606 31.5136 62.8106L32.4836 61.4406C31.7236 60.8306 30.7936 60.5106 29.6036 60.5106C27.9236 60.5106 26.8936 61.4506 26.8936 62.7506V62.7706C26.8936 64.2106 28.0436 64.6306 29.5336 64.9706C30.4836 65.1906 30.7136 65.3506 30.7136 65.6406V65.6606C30.7136 65.9606 30.4336 66.1406 29.9136 66.1406C29.1036 66.1406 28.3336 65.8506 27.6436 65.3006L26.5636 66.5906C27.4236 67.3606 28.6036 67.7506 29.8436 67.7506ZM35.1318 67.6306H37.0718V62.3306H39.1718V60.6306H33.0318V62.3306H35.1318V67.6306ZM40.0233 67.6306H45.7033V65.9806H41.9433V64.8706H45.3033V63.3406H41.9433V62.2806H45.6533V60.6306H40.0233V67.6306ZM46.6932 67.6306H48.6132V63.7906L51.6032 67.6306H53.3032V60.6306H51.3832V64.3306L48.5032 60.6306H46.6932V67.6306ZM57.9148 67.7706C59.4648 67.7706 60.3548 67.1006 61.0148 66.1906L59.5548 65.1506C59.1348 65.6606 58.7048 66.0006 57.9748 66.0006C56.9948 66.0006 56.3048 65.1806 56.3048 64.1306V64.1106C56.3048 63.0906 56.9948 62.2606 57.9748 62.2606C58.6448 62.2606 59.1048 62.5806 59.5048 63.0806L60.9648 61.9506C60.3448 61.0906 59.4248 60.4906 57.9948 60.4906C55.8748 60.4906 54.3048 62.0906 54.3048 64.1306V64.1506C54.3048 66.2406 55.9148 67.7706 57.9148 67.7706ZM61.8895 67.6306H63.8395V60.6306H61.8895V67.6306ZM64.561 67.6306H66.601L67.101 66.3806H69.801L70.311 67.6306H72.391L69.411 60.5806H67.541L64.561 67.6306ZM67.671 64.8706L68.461 62.8806L69.241 64.8706H67.671ZM75.2836 67.6306H77.3236L77.8236 66.3806H80.5236L81.0336 67.6306H83.1136L80.1336 60.5806H78.2636L75.2836 67.6306ZM78.3936 64.8706L79.1836 62.8806L79.9636 64.8706H78.3936ZM21.6835 79.6306H27.3635V77.9806H23.6035V76.8706H26.9635V75.3406H23.6035V74.2806H27.3135V72.6306H21.6835V79.6306ZM30.6334 79.6806H32.4334L35.2734 72.6306H33.1434L31.5534 77.0606L29.9634 72.6306H27.7934L30.6334 79.6806ZM35.9511 79.6306H41.6311V77.9806H37.8711V76.8706H41.2311V75.3406H37.8711V74.2806H41.5811V72.6306H35.9511V79.6306ZM42.621 79.6306H44.541V75.7906L47.531 79.6306H49.231V72.6306H47.311V76.3306L44.431 72.6306H42.621V79.6306ZM52.1825 79.6306H54.1225V74.3306H56.2225V72.6306H50.0825V74.3306H52.1825V79.6306ZM60.2914 79.7706C62.4514 79.7706 64.0714 78.1406 64.0714 76.1306V76.1106C64.0714 74.1006 62.4714 72.4906 60.3114 72.4906C58.1514 72.4906 56.5314 74.1206 56.5314 76.1306V76.1506C56.5314 78.1606 58.1314 79.7706 60.2914 79.7706ZM60.3114 78.0206C59.2514 78.0206 58.5214 77.1406 58.5214 76.1306V76.1106C58.5214 75.1006 59.2314 74.2406 60.2914 74.2406C61.3614 74.2406 62.0914 75.1206 62.0914 76.1306V76.1506C62.0914 77.1606 61.3814 78.0206 60.3114 78.0206ZM67.7831 79.7506C69.4831 79.7506 70.6131 78.9006 70.6131 77.4706V77.4506C70.6131 76.1406 69.6131 75.6206 68.0031 75.2706C67.0331 75.0506 66.7931 74.9106 66.7931 74.5906V74.5706C66.7931 74.3206 67.0231 74.1206 67.4931 74.1206C68.1131 74.1206 68.8131 74.3606 69.4531 74.8106L70.4231 73.4406C69.6631 72.8306 68.7331 72.5106 67.5431 72.5106C65.8631 72.5106 64.8331 73.4506 64.8331 74.7506V74.7706C64.8331 76.2106 65.9831 76.6306 67.4731 76.9706C68.4231 77.1906 68.6531 77.3506 68.6531 77.6406V77.6606C68.6531 77.9606 68.3731 78.1406 67.8531 78.1406C67.0431 78.1406 66.2731 77.8506 65.5831 77.3006L64.5031 78.5906C65.3631 79.3606 66.5431 79.7506 67.7831 79.7506Z" fill="white"/>
<path d="M25 36.6688L29.2 36.6714C30.3648 36.6714 31.3 35.7504 31.3 34.607V20.1946H25V36.6688ZM28.15 32.5567C28.7242 32.5567 29.2 33.0155 29.2 33.5873C29.2 34.1508 28.7242 34.6179 28.15 34.6179C27.5758 34.6179 27.1 34.1487 27.1 33.588C27.1 33.0143 27.5758 32.5567 28.15 32.5567ZM47.89 16.0503C47.3689 16.0503 46.8623 16.2416 46.4777 16.587L40.0216 22.386C40.015 22.3989 40.015 22.4118 40.0019 22.4118C38.9125 23.4173 38.9322 25.0221 39.8641 26.0212C40.7008 26.8655 42.4484 27.1568 43.5476 26.1984C43.5587 26.1887 43.5653 26.1887 43.5719 26.1823L48.814 21.4708C49.2406 21.0924 49.9132 21.1165 50.2984 21.5352C50.6922 21.9539 50.6594 22.6064 50.2328 22.9932L48.5187 24.5317L58.075 32.1442C58.2637 32.3051 58.4359 32.4662 58.5918 32.6432V20.1173C55.9025 17.4773 52.2603 16 48.4593 16L47.89 16.0503ZM46.9581 25.9374L44.9894 27.7092C43.037 29.4565 40.0511 29.2877 38.3087 27.4275C36.55 25.5378 36.6878 22.6052 38.6041 20.8778L43.9722 16.0503H43.5391C39.7459 16.0503 36.0972 17.5379 33.4131 20.1688L33.4 34.5999L34.5977 34.6023L40.5367 39.8758C42.3414 41.3176 44.9828 41.0437 46.443 39.2799L47.6321 40.2621C48.6742 41.042 50.2164 40.9389 51.0695 39.916L53.1288 37.4281L53.4815 37.718C54.3839 38.427 55.7049 38.2982 56.4346 37.412L57.0606 36.6527C57.7903 35.7665 57.6536 34.4755 56.7525 33.7568L46.9581 25.9374ZM60.7 20.2011V34.6128C60.7 35.7484 61.6352 36.6785 62.7409 36.6785L67 36.6753V20.1817L60.7 20.2011ZM63.85 34.6128C63.2758 34.6128 62.8 34.1457 62.8 33.5822C62.8 33.0101 63.2758 32.5516 63.85 32.5516C64.4242 32.5516 64.9 33.0143 64.9 33.588C64.9 34.1487 64.4275 34.6128 63.85 34.6128Z" fill="white"/>
</svg>
