<svg width="275" height="360" viewBox="0 0 275 360" fill="none" xmlns="http://www.w3.org/2000/svg">
<g clip-path="url(#clip0_3_182)">
<path d="M15.2687 347.689C15.2687 347.689 -7.83091 115.344 5.37354 62.9831C18.578 10.6219 61.4679 0.812244 104.391 2.46884C147.313 4.09294 218.283 0.844727 234.764 0.844727C251.245 0.844727 271.068 13.935 272.739 43.3964C274.377 72.8577 264.482 339.536 264.482 339.536L244.692 341.161L246.33 318.261L199.279 327.258L196.789 349.346L182.045 356.557L163.794 354.251L162.156 329.694L41.6776 326.414V350.97L15.2687 347.689Z" fill="#E52521"/>
<path d="M234.764 0.812012C229.456 0.812012 218.119 1.16932 204.227 1.5591C191.055 11.9534 179.587 25.9857 173.689 44.9878C152.13 130.059 162.385 332.747 163.794 354.218L182.045 356.524L196.789 349.313L199.279 327.225L246.298 318.228L244.659 341.128L264.482 339.504C264.482 339.504 274.377 72.7925 272.739 43.3637C271.101 13.9023 251.278 0.812012 234.764 0.812012ZM82.9292 2.76094C47.903 5.32703 16.3499 19.4243 5.37354 62.9829C-7.83091 115.344 15.2687 347.689 15.2687 347.689L41.6776 350.97C43.4797 331.351 29.9804 159.65 31.7825 85.9153C33.4207 38.5238 45.249 21.1134 82.9292 2.76094Z" fill="#DC2823"/>
<path d="M237.353 0.941895C198.1 15.1041 185.354 56.259 181.946 99.0056C176.999 161.176 182.045 356.557 182.045 356.557L196.789 349.346L199.279 327.258L246.298 318.26L244.659 341.16L264.482 339.536C264.482 339.536 274.377 72.825 272.739 43.3961C271.166 15.4614 253.277 2.27366 237.353 0.974377V0.941895Z" fill="#AC2F2B"/>
<path d="M46.5596 84.4537L142.267 83.2843L141.088 98.3236H48.886L46.5596 84.4537Z" fill="#681A0C"/>
<path d="M141.874 88.1566L53.5714 90.203L54.5872 98.2911H141.088L141.874 88.1241V88.1566Z" fill="#872112"/>
<path d="M143.414 129.571L47.7064 131.878L49.574 182.712C73.5583 182.485 134.305 181.803 144.528 181.705L143.414 129.571ZM144.692 188.689L49.8689 190.67L53.5387 290.391L146.92 291.56L144.692 188.721V188.689Z" fill="#65290F"/>
<path d="M200.59 314.655L247.28 306.567C247.28 306.567 267.104 60.1569 257.798 38.1665C204.685 -46.0273 193.578 153.348 200.623 314.687L200.59 314.655Z" fill="#E52521"/>
<path d="M182.765 359.091L162.647 356.524L161.009 332.13L43.7746 328.947V353.666L14.1546 349.995L14.0236 348.664C13.0734 339.179 -8.94496 115.442 4.1612 63.4052C15.2031 19.6842 48.1324 -0.519715 104.882 1.62411C135.288 2.79347 179.653 1.49418 209.01 0.617161C220.937 0.259857 230.374 0 235.19 0C253.637 0 273.198 15.1367 274.803 44.1108C276.442 73.3123 266.645 337.75 266.547 340.413L266.481 341.875L243.25 343.791L244.889 321.119L201.212 329.467L198.788 351.23L182.765 359.091ZM165.793 353.601L182.176 355.68L195.642 349.086L198.165 326.673L248.558 317.026L246.887 340.153L263.27 338.789C264.056 317.383 273.034 72.1754 271.461 44.2732C269.889 16.1112 251.54 3.31318 235.157 3.31318C230.374 3.31318 220.97 3.60552 209.076 3.93034C179.653 4.80736 135.223 6.10665 104.718 4.93729C49.0498 2.82595 18.152 21.6656 7.40497 64.2173C-5.07865 113.655 15.3997 328.103 17.2346 347.007L40.4325 349.898V325.536L164.155 328.882L165.826 353.569L165.793 353.601Z" fill="#65290F"/>
<path d="M182.765 359.09L162.647 356.524L162.549 355.16C162.418 353.016 149.541 135.97 172.51 45.41C177.916 27.9995 188.368 13.1227 203.637 1.10428L204.063 0.74698L208.617 0.617051C220.773 0.259747 230.374 -0.0325928 235.19 -0.0325928C253.67 -0.0325928 273.198 15.1041 274.803 44.0782C276.442 73.2797 266.645 337.717 266.547 340.381L266.481 341.842L243.25 343.759L244.889 321.086L201.212 329.434L198.788 351.197L182.765 359.058V359.09ZM165.793 353.601L182.176 355.68L195.642 349.086L198.165 326.706L248.558 317.058L246.887 340.186L263.27 338.822C264.056 317.416 273.034 72.2078 271.461 44.3056C269.889 16.1435 251.54 3.34555 235.157 3.34555C230.374 3.34555 220.806 3.63789 208.683 3.9952L205.242 4.09264C190.76 15.6238 180.799 29.851 175.688 46.352C156.094 123.66 162.779 306.047 165.76 353.633L165.793 353.601ZM43.578 353.666L14.1219 350.028L13.9908 348.696C13.0406 339.211 -9.01051 115.474 4.12842 63.4376C13.7942 25.2385 39.6461 5.13207 83.2241 1.94882L91.8086 1.33166L84.076 5.09959C46.2647 23.5495 35.4521 41.0898 33.8466 86.8248C32.7981 129.994 36.9594 206.002 40.3014 267.101C42.6605 309.912 44.4954 343.726 43.7418 351.977L43.578 353.666ZM17.2018 347.072L40.5308 349.963C40.9567 339.601 39.1874 307.411 36.9921 267.296C33.65 206.164 29.4888 130.059 30.5373 86.7273C32.0773 42.7789 41.8742 23.9717 74.7379 6.20399C38.0406 11.1738 15.9567 30.2408 7.40496 64.2496C-5.07866 113.688 15.3997 328.135 17.2346 347.072H17.2018Z" fill="#65290F"/>
<path d="M180.865 360L180.799 357.401C180.734 355.452 175.786 161.209 180.701 99.6878C185.059 44.8903 203.539 12.3432 237.189 0.227329L237.647 1.52662L237.877 0.129883C255.111 1.52662 273.198 15.6564 274.771 44.1108C276.409 73.3122 266.612 337.75 266.514 340.413L266.448 341.875L243.218 343.791L244.856 321.119L201.18 329.467L198.755 351.23L180.832 360H180.865ZM238.008 3.44307C205.931 15.1691 188.27 46.7418 184.043 99.9476C179.456 157.441 183.519 331.351 184.076 354.738L195.675 349.053L198.198 326.673L248.591 317.026L246.92 340.153L263.303 338.789C264.089 317.383 273.067 72.1754 271.494 44.2732C270.02 18.0276 253.67 4.90476 238.008 3.44307Z" fill="#65290F"/>
<path d="M143.054 100.825H47.903L45.0197 83.6415L144.495 82.4397L143.086 100.825H143.054ZM50.7208 97.5114H139.941L140.858 85.8178L48.9515 86.9222L50.7208 97.5114Z" fill="#65290F"/>
<path d="M143.054 100.825H53.5386L52.097 89.4558L144.102 87.312L143.054 100.825ZM56.4875 97.5114H139.974L140.498 90.7226L55.865 92.7041L56.4875 97.5439V97.5114Z" fill="#65290F"/>
<path d="M149.05 294.061L52.3591 292.859L48.5583 189.891L146.723 187.844L149.017 294.061H149.05ZM55.6028 289.579L145.642 290.683L143.48 191.223L52.0314 193.139L55.5701 289.579H55.6028ZM48.4272 185.213L46.4285 131.098L145.478 128.694L146.691 184.174L140.039 184.239C122.117 184.434 71.4285 184.986 50.0327 185.181H48.3945L48.4272 185.213ZM49.9017 134.346L51.6382 181.868C73.8859 181.64 122.51 181.121 140.007 180.926H143.283L142.235 132.105L49.9017 134.346Z" fill="#65290F"/>
<path d="M199.443 317.481L199.377 315.597C194.79 210.16 196.461 28.8441 231.913 17.9301C240.367 15.3315 249.443 21.9254 259.666 38.134L259.797 38.3614C269.2 60.4493 250.229 297.472 249.41 307.541L249.312 308.808L199.476 317.448L199.443 317.481ZM235.419 20.6911C234.567 20.6911 233.716 20.821 232.896 21.0809C205.177 29.6237 196.691 174.332 202.654 313.55L246.166 306.015C247.674 286.818 265.367 61.0665 256.75 39.7906C248.722 27.1226 241.579 20.7236 235.452 20.7236L235.419 20.6911Z" fill="#65290F"/>
</g>
<defs>
<clipPath id="clip0_3_182">
<rect width="275" height="360" fill="white"/>
</clipPath>
</defs>
</svg>
