<svg width="165" height="124" viewBox="0 0 165 124" fill="none" xmlns="http://www.w3.org/2000/svg">
<g clip-path="url(#clip0_9_449)">
<path d="M138.971 98.4149C146.961 96.6634 154.968 95.0526 163.038 93.7546C162.535 85.3096 149.74 1.50132 146.428 1.89229C99.4239 7.39715 52.2788 17.3747 6.45242 29.1976C5.14937 29.526 3.75213 29.9327 2.93577 30.9961C2.0095 32.2159 2.1351 33.9049 2.30779 35.4375C5.73025 64.6195 11.4762 93.5356 19.4672 121.826C19.9381 123.484 86.5347 109.956 92.7203 108.737C108.231 105.687 123.554 101.809 138.955 98.4306L138.971 98.4149Z" fill="#EDA953"/>
<path d="M139.237 99.9163C147.275 98.415 155.313 96.9449 163.383 95.6938C164.529 95.5218 165.063 94.4583 165 93.4105C163.54 71.9698 158.956 50.2631 155.125 29.1507C153.602 20.784 152.959 10.3216 149.191 2.54914C147.417 -1.12598 145.03 0.09385 141.059 0.594291C128.452 2.20509 115.798 3.8628 103.27 6.00531C78.0885 10.3216 53.2992 16.4364 28.2902 21.6285C22.0732 22.9265 15.9191 24.506 9.76497 26.0855C6.98619 26.8049 3.04566 27.1959 1.17744 29.7294C-0.832079 32.4505 0.282574 36.5322 0.659358 39.5349C1.50712 46.197 2.44908 52.8435 3.62653 59.4587C5.84014 71.8603 8.13224 84.2306 10.9895 96.507C12.4182 102.637 13.941 108.752 15.5737 114.836C16.2017 117.15 16.2959 122.28 18.6508 123.546C20.5033 124.547 23.8316 123.546 25.7469 123.281C30.9434 122.546 36.1085 121.592 41.2735 120.653C55.2773 118.073 69.2654 115.399 83.2378 112.599C102.03 108.83 120.508 103.779 139.237 99.7599C140.996 99.3846 140.509 96.6165 138.751 97.0231C112.297 103.028 85.6712 108.236 59.0295 113.35C48.1341 115.43 37.2702 117.651 26.2964 119.293C24.9462 119.496 23.1251 120.075 21.775 119.903C21.4767 119.871 20.833 120.153 20.5661 120.012C20.2521 119.84 20.2364 117.901 20.0794 116.619C19.3887 111.364 17.2379 105.922 15.9976 100.761C14.6161 95.0526 13.3444 89.3132 12.1513 83.5581C9.84347 72.4389 8.00665 61.2885 6.42101 50.0442C5.74594 45.2743 3.02996 37.2516 5.68314 33.1855C8.41483 29.01 18.0699 28.5252 22.8896 27.3054C45.167 21.6285 67.5071 16.3895 90.1927 12.4485C101.48 10.4936 112.8 8.39805 124.135 6.70906C129.582 5.89584 135.046 5.22337 140.525 4.55091C143.665 4.17558 144.481 2.59606 145.768 4.44143C147.354 6.70906 147.589 11.1661 148.155 13.8247C149.269 18.9386 150.227 24.0838 151.169 29.2289C155.047 50.5446 159.662 72.4546 161.138 94.1143C161.672 93.348 162.205 92.5817 162.755 91.831C154.686 93.2229 146.71 94.9431 138.766 96.9293C136.867 97.3984 137.338 100.307 139.3 99.9476L139.237 99.9163Z" fill="#662809"/>
<path d="M84.2269 69.186L2.3078 32.3723L3.56375 29.6042L83.5361 65.5578L144.622 3.37799L146.804 5.50487L84.2269 69.186Z" fill="#662809"/>
</g>
<defs>
<clipPath id="clip0_9_449">
<rect width="165" height="124" fill="white"/>
</clipPath>
</defs>
</svg>
