<svg width="174" height="312" viewBox="0 0 174 312" fill="none" xmlns="http://www.w3.org/2000/svg">
<g clip-path="url(#clip0_9_459)">
<path d="M139.46 37.13C137.99 32.31 135.68 27.73 132.79 23.61C127.39 15.92 119.94 9.71998 111.47 5.65998C101.99 1.09998 91.33 -0.640017 80.87 0.209983C70.28 1.06998 60.03 4.53998 51 10.12C42.54 15.35 35.2 22.29 29.32 30.29C28.92 30.84 28.52 31.39 28.14 31.95C19.83 36.44 12.84 44.03 11.88 53.76C11.4 58.64 12.55 63.95 15.78 67.75C18.81 71.32 23.84 72.44 28.3 71.64C32.94 70.8 37.23 67.85 39.39 63.62C39.48 63.44 39.48 63.27 39.42 63.12C39.64 62.59 39.87 62.07 40.09 61.54C40.6 61.48 41.1 61.43 41.61 61.37C43.33 61.18 45.05 60.99 46.77 60.8C50.13 60.43 53.5 60.09 56.87 59.77C63.68 59.14 70.5 58.65 77.34 58.47C90.96 58.1 104.6 59.28 118.21 58.43C125.84 57.95 133.35 56.61 140.85 55.19C141.1 55.14 141.29 54.86 141.29 54.62C141.31 48.71 141.2 42.83 139.47 37.14L139.46 37.13Z" fill="#FF0000"/>
<path d="M41.32 101.05C36.97 101.67 32.61 99.94 29.68 96.81C30.4 97.87 30.86 98.43 30.86 98.43C30.86 98.43 31.16 102.56 33.55 108.67C36.9 107.03 39.83 104.3 41.32 101.04V101.05Z" fill="#FCBFAE"/>
<path d="M144.66 77.5C88.89 47.89 44.17 67.51 44.17 67.51C44.17 67.51 41.91 63.35 32.75 53.83C23.59 44.32 20.86 52.52 21.33 70C21.7 83.54 27.2 93.15 29.66 96.8C32.6 99.93 36.95 101.66 41.3 101.04C39.8 104.3 36.88 107.03 33.53 108.67C36.14 115.34 41.24 124.39 51.17 133.03C75.07 153.84 109.32 152.3 125.97 138.86C142.47 125.54 141.43 109.13 141.43 109.13C147.85 94.03 144.64 77.5 144.64 77.5H144.66Z" fill="#FFCDBD"/>
<path d="M125.299 126.62C120.633 125.518 117.744 120.843 118.845 116.178C119.946 111.512 124.621 108.623 129.287 109.724C133.952 110.825 136.842 115.5 135.741 120.166C134.64 124.831 129.965 127.721 125.299 126.62Z" fill="#FF0000"/>
<path d="M72.741 110.926C68.0753 109.825 65.1858 105.15 66.287 100.484C67.3882 95.8185 72.0631 92.9289 76.7287 94.0301C81.3944 95.1313 84.2839 99.8062 83.1828 104.472C82.0816 109.138 77.4066 112.027 72.741 110.926Z" fill="#FF0000"/>
<path d="M33.47 55.62L44.17 67.51C44.17 67.51 92.87 49.43 144.87 78.81C144.87 78.81 147.16 66.8 146.8 59.54C146.44 52.29 137.37 48.46 121.35 43.49C97.21 36 65.1 39.09 65.1 39.09C65.1 39.09 39.29 53 33.47 55.62Z" fill="#7BA440"/>
<path d="M18.71 65.43C17.65 62.96 15.49 61.05 12.97 60.18C10.36 59.28 7.45002 59.71 5.10002 61.12C2.55002 62.65 0.780033 65.21 0.330032 68.15C0.160032 68.8 0.0500259 69.48 0.010025 70.16C-0.129974 73.09 1.30003 76.27 3.36003 78.32C5.55003 80.51 8.91003 80.93 11.73 79.83C17.08 77.75 21.11 71.02 18.71 65.43Z" fill="#7BA440"/>
<path d="M44.17 67.51C44.17 67.51 47.98 87.49 58.44 93.55C58.44 93.55 54.28 82.13 58.44 74.88L59.87 82.37C59.87 82.37 75.64 75.08 79.11 62.02C79.11 62.02 62.01 59.9 44.17 67.51Z" fill="#662809"/>
<path d="M101.11 63.56C101.11 63.56 106.72 81.79 118.62 86.19V78.82C118.62 78.82 128.49 86.67 135.98 89.4C143.47 92.14 143.29 103.86 143.02 104.84C142.76 105.82 151.08 98.09 145.01 77.27C145.01 77.27 124.44 66.33 101.1 63.56H101.11Z" fill="#662809"/>
<path d="M44.22 82.76C42.19 77.72 39.36 72.98 36.03 68.69C34.13 66.24 32.03 63.95 29.78 61.82C29.37 61.44 28.83 61.74 28.76 62.24C28.67 63.01 28.57 63.78 28.48 64.56C28.42 64.63 28.37 64.72 28.34 64.83C27.19 70.04 26.99 75.4 27.74 80.68C27.77 80.93 27.92 81.06 28.1 81.1C28.39 83.33 28.89 85.54 29.65 87.66C30.08 88.84 30.52 90.17 31.37 91.12C32.26 92.11 33.42 92.14 34.64 91.84C35.87 91.54 37.05 91.55 38.19 92.17C39.18 92.71 39.95 93.62 40 94.78C40.01 95.11 40.24 95.3 40.49 95.34C40.49 95.37 40.5 95.4 40.51 95.44C40.54 95.57 40.63 95.69 40.74 95.77C40.5 96.17 40.29 96.57 40.1 97C39.8 97.7 40.82 98.3 41.13 97.6C42.13 95.27 44.05 93.48 44.96 91.11C46.01 88.38 45.26 85.39 44.21 82.78L44.22 82.76Z" fill="#FCBFAE"/>
<path d="M77.11 93.55C73.0397 93.55 69.74 90.2503 69.74 86.18C69.74 82.1097 73.0397 78.81 77.11 78.81C81.1804 78.81 84.48 82.1097 84.48 86.18C84.48 90.2503 81.1804 93.55 77.11 93.55Z" fill="#6D250F"/>
<path d="M132.17 108.3C128.1 108.3 124.8 105 124.8 100.93C124.8 96.8597 128.1 93.56 132.17 93.56C136.24 93.56 139.54 96.8597 139.54 100.93C139.54 105 136.24 108.3 132.17 108.3Z" fill="#6D250F"/>
<path d="M106.95 94.25C106.23 93.98 105.93 95.13 106.63 95.4C108.63 96.17 109.84 98.58 109.23 100.63C108.62 102.7 106.27 104.02 104.18 103.57C103.43 103.41 103.11 104.56 103.86 104.72C106.58 105.3 109.57 103.66 110.37 100.95C111.17 98.23 109.54 95.25 106.94 94.26L106.95 94.25Z" fill="#6D250F"/>
<path d="M108.6 111.88C105.75 112.73 102.61 112.44 100.01 110.96C97.68 109.64 95.9 107.46 95.04 104.93C95.04 104.91 95.03 104.9 95.02 104.89C95.56 104.48 96.04 104.01 96.46 103.47C96.93 102.87 96.09 102.03 95.62 102.63C94.5 104.06 92.96 104.97 91.16 105.27C90.41 105.39 90.73 106.54 91.48 106.42C92.37 106.28 93.22 105.98 94 105.56C94.99 108.25 96.9 110.58 99.4 112C102.27 113.63 105.76 113.98 108.91 113.04C109.64 112.82 109.33 111.67 108.59 111.89L108.6 111.88Z" fill="#6D250F"/>
<path d="M46.78 86.58C43.33 77.32 37.98 68.81 31.13 61.68C29.19 59.66 27.13 57.76 24.96 55.98C24.37 55.5 23.53 56.33 24.12 56.82C25.69 58.11 27.21 59.47 28.66 60.89C26.38 66.76 25.77 73.19 26.75 79.39C27.24 82.52 28.16 85.58 29.47 88.46C30.04 89.73 30.65 91.26 31.72 92.18C32.16 92.56 32.7 92.82 33.28 92.83C34.06 92.85 34.72 92.42 35.46 92.23C36.95 91.86 38.68 92.48 39.54 93.76C40.46 95.11 40.36 96.92 39.43 98.24C38.99 98.87 40.02 99.46 40.46 98.84C42.09 96.53 41.46 93.15 39.01 91.68C37.86 90.99 36.44 90.76 35.14 91.08C34.46 91.25 33.69 91.83 32.97 91.57C32.35 91.35 31.94 90.67 31.63 90.13C28.49 84.61 27.17 77.99 27.52 71.68C27.71 68.3 28.4 64.96 29.56 61.79C34.66 66.95 38.96 72.87 42.28 79.33C43.54 81.78 44.65 84.29 45.61 86.87C45.88 87.58 47.03 87.27 46.76 86.55L46.78 86.58Z" fill="#6D250F"/>
<path d="M86.12 28.33C80.51 32.42 74.13 35.35 67.39 36.96C69.3 35.51 71.16 34.01 72.99 32.47C76.29 29.67 79.45 26.71 82.45 23.6C82.98 23.05 82.14 22.21 81.61 22.76C76.33 28.22 70.59 33.22 64.44 37.68C58.31 42.13 51.79 46.05 44.98 49.37C41.11 51.26 37.15 52.96 33.11 54.45C32.4 54.71 32.71 55.86 33.43 55.6C40.62 52.94 47.57 49.66 54.18 45.79C57.95 43.59 61.6 41.2 65.13 38.64C65.18 38.64 65.23 38.64 65.28 38.63C73.01 37.17 80.37 33.99 86.73 29.36C87.34 28.91 86.75 27.88 86.13 28.33H86.12Z" fill="#6D250F"/>
<path d="M121.86 304.28C121.39 303.51 120 303.57 119.22 303.59C117.19 303.64 115.08 304.21 113.24 303.05C111.79 302.13 110.88 300.54 110.17 299.03C109.41 297.41 108.84 295.7 108.15 294.06C106.71 290.65 104.93 287.27 102.29 284.62C99.36 281.69 95.6 280.28 91.51 279.95C89.39 279.78 87.24 279.84 85.13 280.03C83.16 280.2 81.2 280.54 79.38 281.33C78.61 281.66 77.91 282.09 77.24 282.59C76.91 282.35 76.28 282.5 76.24 283.05C75.98 286.44 76.77 289.68 78.25 292.6C81.55 300.79 89.06 306.19 97.27 308.88C97.45 308.97 97.63 309.05 97.81 309.13C99.27 309.8 100.79 310.36 102.36 310.74C104.17 311.18 106.04 311.39 107.9 311.3C109.18 311.52 110.48 311.57 111.83 311.41C115.31 310.99 119.31 309.75 121.28 306.61C121.66 306.01 122.29 304.99 121.86 304.28Z" fill="#FF0000"/>
<path d="M171.76 155.19C171.22 154.83 170.53 154.74 169.91 154.65C169.07 154.53 168.22 154.47 167.37 154.47C169.31 153.74 171.18 152.91 172.61 151.34C173.72 150.11 174.66 148.1 173.21 146.75C171.78 145.42 169.57 146 167.9 146.44C166.29 146.86 164.73 147.43 163.19 148.04C164.33 147.22 165.48 146.4 166.61 145.56C168.04 144.5 169.55 143.28 170.42 141.69C171.14 140.36 171.01 138.39 169.27 138C167.61 137.63 165.79 138.49 164.36 139.25C163.17 139.88 161.99 140.53 160.81 141.18C161.73 140.38 162.65 139.58 163.52 138.74C164.74 137.57 166.31 135.84 165.89 133.99C165.72 133.22 165.18 132.51 164.41 132.27C163.51 131.99 162.51 132.41 161.66 132.72C159.82 133.41 158.15 134.46 156.54 135.58C154.6 136.93 152.73 138.38 150.87 139.84C151 138.43 151.11 136.97 150.76 135.65C150.39 134.27 149.33 133.07 147.94 132.68C146.44 132.26 145.11 132.94 144.22 134.16C143.17 135.61 142.44 137.4 141.77 139.05C140.93 141.11 140.27 143.24 139.78 145.41V145.43C139.74 145.44 139.7 145.46 139.66 145.48C136.91 147.07 134.13 148.61 131.31 150.09C130.8 150.36 130.97 151.03 131.37 151.2C134.18 158.01 137.09 164.78 140.11 171.5C140.29 171.91 140.74 171.9 141.01 171.68C141.06 171.68 141.11 171.66 141.17 171.64C147.31 169.15 153.45 166.66 159.59 164.17C162.55 162.97 165.57 161.87 168.46 160.52C169.64 159.97 171.03 159.33 171.9 158.33C172.7 157.42 172.85 155.96 171.75 155.21L171.76 155.19Z" fill="#FFCDBD"/>
<path d="M46.79 148.85L66.06 145.52L82 148.85L103.41 156.7L135.28 148.85C135.28 148.85 147.05 162.53 145.51 171.09L110.55 192.85C110.55 192.85 100.44 228.64 99.61 230.79C98.78 232.93 107.58 264.8 108.29 269.2C109 273.6 108.88 287.39 96.28 290.84C83.67 294.29 74.4 285.61 71.43 278.12C68.46 270.63 65.67 234.99 65.67 234.99L54.78 231.8L46.81 250.18V148.86L46.79 148.85Z" fill="#7BA440"/>
<path d="M83.37 144.87C83.22 144.26 82.72 143.85 82.17 143.59C81.26 143.16 80.25 142.89 79.29 142.56C74.91 141.07 70.49 139.74 66.02 138.55C66 138.55 65.98 138.55 65.96 138.54C65.92 138.52 65.88 138.51 65.84 138.5C65.32 138.38 64.81 138.45 64.36 138.69C63.93 138.43 63.23 138.63 63.26 139.27C63.36 141.39 63.49 143.52 63.68 145.64C63.84 147.42 64.1 149.16 65.12 150.68C67.05 153.56 70.47 154.93 73.86 154.76C75.63 154.67 77.51 154.27 79.01 153.3C80.37 152.42 81.33 151.08 82 149.63C82.32 148.94 82.58 148.22 82.82 147.5C83.07 146.73 83.56 145.69 83.36 144.88L83.37 144.87Z" fill="#FCBFAE"/>
<path d="M81.99 148.85L103.4 156.7L88.06 158.6L90.8 180.6L74.75 166.69L66.07 185.72L62.03 167.29L50.38 183.46L55.26 163.48L40.39 148.85L63.58 145.52C63.58 145.52 71.67 156.46 82.01 148.85H81.99Z" fill="#FFF7E6"/>
<path d="M109.33 197.07C109.33 197.07 83.72 200.5 46.82 192.1V216.52C46.82 216.52 74.11 226.61 102.42 221.27L109.33 197.07Z" fill="#FF0000"/>
<path d="M80.42 202.43C80.34 203.37 80.24 204.3 80.11 205.23C79.85 207.08 79.49 208.91 79.03 210.73C78.57 212.55 78 214.34 77.34 216.11C76.79 217.59 76.25 219.16 75.18 220.4C74 221.77 72.36 222.11 70.54 221.99C68.46 221.85 66.38 221.6 64.32 221.27C62.26 220.94 60.22 220.53 58.2 220.03C56.64 219.65 54.89 219.26 53.8 218.08C52.61 216.78 52.78 214.98 52.89 213.4C53.02 211.5 53.23 209.61 53.52 207.72C53.81 205.81 54.19 203.92 54.65 202.03C54.9 201.02 55.13 199.97 55.56 198.99C55.74 198.32 55.95 197.66 56.21 197.04C56.85 195.54 58.31 194.8 59.98 194.54C61.85 194.24 63.85 194.32 65.73 194.43C67.73 194.54 69.72 194.78 71.68 195.17C73.64 195.55 75.56 196.07 77.43 196.72C79.06 197.28 80.38 198.12 80.54 199.83C80.62 200.68 80.5 201.57 80.43 202.42L80.42 202.43ZM67.63 207.72C67.53 207.84 67.45 207.97 67.39 208.14C67.25 208.54 67.39 208.86 67.66 209.12C67.5 208.89 67.42 208.59 67.45 208.23C67.47 208.03 67.53 207.85 67.63 207.71V207.72ZM74.23 213.76C74.47 213.13 74.69 212.5 74.89 211.86C72.91 211.89 70.92 211.63 69.03 211.04C67.66 210.62 65.81 209.73 66.2 207.97C66.63 206.04 68.85 205.91 70.41 206.18C72.28 206.51 74.15 206.89 76.01 207.27C76.08 206.88 76.14 206.49 76.2 206.1C76.29 205.44 76.37 204.79 76.42 204.13C76.47 203.53 76.55 202.91 76.5 202.3C76.39 201.09 75.45 200.51 74.3 200.11C72.98 199.66 71.61 199.29 70.22 199.02C68.83 198.75 67.42 198.58 66 198.5C64.66 198.43 63.25 198.37 61.92 198.58C60.74 198.77 59.7 199.29 59.25 200.34C59.06 200.78 58.91 201.24 58.79 201.71C58.49 202.4 58.32 203.14 58.14 203.85C57.81 205.17 57.55 206.51 57.34 207.85C57.13 209.18 56.99 210.51 56.89 211.85C56.81 212.97 56.69 214.23 57.54 215.15C58.31 215.98 59.55 216.25 60.66 216.52C62.09 216.87 63.54 217.16 65 217.39C66.46 217.62 67.93 217.8 69.41 217.9C70.71 217.99 71.87 217.75 72.7 216.78C73.46 215.9 73.84 214.8 74.23 213.76Z" fill="#FFF7E6"/>
<path d="M135.26 148.85C135.26 148.85 147.08 159.35 145.63 171.94L132.17 179.38L134.07 171.09L124.79 165.62L132.16 159.91L121.43 152.25L135.25 148.85H135.26Z" fill="#FFF7E6"/>
<path d="M73.93 233.47C66.85 234.53 59.49 233.17 53.24 229.69C52.57 229.32 51.97 230.34 52.64 230.72C59.19 234.37 66.84 235.73 74.25 234.62C75 234.51 74.68 233.36 73.93 233.47Z" fill="#6D250F"/>
<path d="M151.2 140.52C151.4 139.78 150.28 139.37 150.08 140.11C149.67 141.66 149.25 143.21 148.84 144.77C148.66 145.45 148.47 146.12 148.55 146.83C148.63 147.52 148.94 148.16 149.06 148.84C149.49 151.22 148.43 153.71 146.49 155.13C145.87 155.58 146.65 156.48 147.26 156.03C149.26 154.57 150.43 152.08 150.33 149.61C150.3 148.97 150.2 148.36 150.01 147.75C149.75 146.9 149.67 146.27 149.9 145.4C150.33 143.77 150.77 142.15 151.2 140.52Z" fill="#6D250F"/>
<path d="M163.16 155.29C163.24 152.14 161.62 149.06 158.94 147.4C159.33 144.4 157.81 141.28 155.18 139.76C154.52 139.38 153.84 140.35 154.5 140.74C156.9 142.13 158.19 144.93 157.7 147.66C157.67 147.85 157.79 148.1 157.95 148.2C160.45 149.6 162.05 152.32 161.97 155.2C161.95 155.96 163.14 156.06 163.16 155.29Z" fill="#6D250F"/>
<path d="M109.53 299.45C107.98 300.11 106.6 301.09 105.45 302.32C104.76 303.06 105.87 304.17 106.56 303.43C107.63 302.28 108.88 301.42 110.32 300.8C111.25 300.4 110.45 299.05 109.53 299.44V299.45Z" fill="#FFF7E6"/>
<path d="M108.3 296.36C106.23 297.22 104.43 298.51 103.03 300.26C102.4 301.04 103.51 302.16 104.14 301.37C105.36 299.85 106.91 298.63 108.72 297.87C109.64 297.49 109.24 295.97 108.3 296.36Z" fill="#FFF7E6"/>
<path d="M106.71 293.74C104.47 294.53 102.17 295.46 100.92 297.62C100.41 298.5 101.77 299.29 102.28 298.41C103.31 296.63 105.29 295.91 107.13 295.25C108.08 294.91 107.67 293.4 106.71 293.74Z" fill="#FFF7E6"/>
<path d="M111.81 293.01C110.3 293.34 108.81 293.28 107.32 292.88C105.81 292.47 104.25 291.73 102.65 291.96C102.33 292.01 102.07 291.88 101.9 291.68C101.88 291.73 101.85 291.77 101.81 291.82C100.56 293.4 100.52 295.58 99.87 297.41C99.22 299.26 98.08 300.89 96.57 302.14C95.79 302.78 94.68 301.67 95.46 301.03C97.05 299.72 98.11 298.04 98.65 296.05C98.78 295.57 98.89 295.09 99.02 294.61C98.47 294.88 97.83 294.95 97.11 294.73C95.38 294.19 94.2 292.32 93.94 290.6C93.68 288.89 94.26 286.72 96.39 286.96C98.04 287.15 99.67 288.37 100.94 289.53C100.95 289.53 100.96 289.51 100.97 289.51C100.96 289.42 100.95 289.33 100.97 289.23C101.29 287.35 102.08 285.53 103.29 284.05C103.82 283.41 104.51 282.91 105.38 283.02C106.16 283.12 106.79 283.67 107.13 284.36C107.78 285.7 107.77 288.06 106.95 289.33C106.57 289.92 105.98 290.36 105.3 290.66C105.75 290.77 106.21 290.9 106.67 291.05C108.25 291.54 109.75 291.86 111.4 291.5C112.39 291.28 112.8 292.8 111.82 293.01H111.81ZM100.05 290.87C99.18 290.08 98.22 289.4 97.16 288.87C96.74 288.66 96.04 288.3 95.67 288.72C95.33 289.12 95.4 289.93 95.48 290.41C95.65 291.48 96.4 292.88 97.52 293.23C98.85 293.65 99.56 291.94 99.97 291.01C99.99 290.96 100.02 290.91 100.05 290.87ZM102.51 289.51C103.53 289.71 105.19 289.33 105.71 288.34C106.13 287.55 106.1 286 105.77 285.19C105.15 283.65 104.01 285.67 103.63 286.34C103.07 287.33 102.71 288.4 102.51 289.51Z" fill="#FFF7E6"/>
<path d="M121.82 94.73L129.91 98.65L120.84 102.81L121.82 94.73Z" fill="#FFCDBD"/>
<path d="M66.21 80.76L74.3 84.68L65.23 88.85L66.21 80.76Z" fill="#FFCDBD"/>
</g>
<defs>
<clipPath id="clip0_9_459">
<rect width="173.95" height="311.49" fill="white" transform="matrix(-1 0 0 1 173.95 0)"/>
</clipPath>
</defs>
</svg>
