<svg width="1366" height="131" viewBox="0 0 1366 131" fill="none" xmlns="http://www.w3.org/2000/svg">
<g clip-path="url(#clip0_6_13)">
<path d="M689.992 30.5339C681.95 32.7724 674.341 37.2943 667.686 42.443C652.034 54.561 638.262 69.0369 617.075 69.3951C597.439 69.7085 578.938 60.1872 561.227 52.9045C545.083 46.2634 528.7 41.0103 511.049 41.3685C494.039 41.7117 477.089 46.4873 462.437 55.1281C461.81 55.5012 461.154 55.8892 460.497 56.2921C442.951 36.1302 406.514 37.4585 382.716 42.622C364.199 46.6365 346.458 54.4267 331.016 65.3806C314.752 76.9166 302.069 96.3174 279.942 94.7504C267.468 93.8699 253.92 87.9303 242.521 79.9611C245.251 76.4839 247.594 72.6186 249.414 68.3505C254.07 57.4711 254.368 44.4278 246.923 34.623C240.372 25.9822 228.272 24.5644 220.99 33.1903C212.635 43.0698 215.306 56.7995 222.781 66.2462C226.869 71.4098 232.121 76.1705 237.91 80.364C237.716 80.5879 237.508 80.8117 237.299 81.0356C225.467 93.6162 207.95 100.601 190.851 101.227C148.774 102.779 113.502 74.4692 77.6324 56.7995C53.8488 45.0397 25.9471 36.9063 0 43.1593L0.164128 46.3082C22.8137 40.9804 48.8056 46.8902 69.7244 56.4414C104.654 72.3798 136.345 98.3918 175.452 103.481C198.4 106.466 225.004 99.8991 240.596 82.2295C248.086 87.3035 256.293 91.4225 264.007 94.2579C280.091 100.183 295.773 98.7201 309.276 87.7811C316.349 82.0653 322.585 75.4392 329.882 69.9771C338.386 63.6197 347.637 58.2471 357.366 54.0088C374.853 46.4127 393.906 42.3534 412.975 42.5027C428.612 42.622 446.875 46.2336 457.707 57.9934C446.845 65.0672 434.64 75.7974 435.505 89.169C436.266 100.78 447.591 109.614 458.423 103.108C470.091 96.0936 471.941 80.4088 467.659 68.5743C466.287 64.7837 464.451 61.4557 462.273 58.5158C468.51 54.9042 474.791 52.1284 479.506 50.3973C499.306 43.1295 520.822 42.5922 540.994 48.7109C561.108 54.8147 579.55 65.7687 600.11 70.4845C618.164 74.6333 635.01 71.5143 650.065 60.5901C662.091 51.8598 675.191 37.9509 690.097 33.3843L689.948 30.5189L689.992 30.5339ZM226.601 65.903C220.11 58.5008 216.305 48.4274 220.916 39.0105C225.437 29.7877 236.433 27.3701 243.446 35.2945C254.607 47.8752 249.355 66.0522 239.85 78.021C234.837 74.2602 230.301 70.1413 226.601 65.903ZM464.063 67.8431C467.152 75.1407 467.958 83.886 464.66 91.2732C462.586 95.9443 458.617 100.571 453.514 101.944C446.427 103.854 440.802 98.3918 439.131 91.9746C435.789 79.0955 447.084 67.9774 459.572 60.1723C461.348 62.4556 462.87 64.9926 464.063 67.8281V67.8431Z" fill="white"/>
<path d="M49.7158 53.2776C48.8653 51.9792 42.8075 50.6361 41.4795 51.4419C41.4795 51.4419 36.5856 54.0237 35.8395 57.3666C35.0935 60.7095 35.9141 74.7527 40.3903 75.7526C44.8815 76.7525 51.5659 64.3658 52.312 61.0229C53.058 57.68 49.7158 53.2776 49.7158 53.2776Z" fill="#AB0F0F"/>
<path d="M49.6411 47.1738C48.5221 46.9201 46.8808 46.5619 46.8808 46.5619C46.8808 46.5619 45.2395 46.1888 44.1205 45.95C43.0014 45.6963 42.6135 46.3082 42.6135 46.3082L41.4646 51.4569L45.5827 52.3672L49.7008 53.2776L50.8497 48.1289C50.8497 48.1289 50.7453 47.4126 49.6411 47.1738Z" fill="#1A2F42"/>
<path d="M37.7344 61.1125C37.824 57.7249 38.0478 54.0835 42.2256 53.1433C45.8961 52.3076 49.283 54.2476 50.7453 57.4264C52.4015 61.023 50.984 64.5599 48.8951 67.5745C47.1942 70.0369 43.5087 75.3497 40.3903 71.0368C38.4655 68.3804 37.6748 64.2017 37.7494 61.1125H37.7344Z" fill="#D71E17"/>
<path d="M42.8522 59.2471C43.8221 55.9489 47.3434 53.5164 49.8202 58.3964C51.2078 61.1275 50.1335 66.3358 46.0453 65.2912C42.7627 64.4554 42.151 61.6349 42.8522 59.2471Z" fill="#EE3329"/>
<path d="M49.3726 49.2183C51.1332 52.4567 45.1202 53.5014 45.4484 49.9794C45.6275 48.099 48.4922 47.5916 49.3726 49.2183Z" fill="#3F221A"/>
<path d="M206.159 106.749C204.772 106.048 198.848 107.913 198.117 109.271C198.117 109.271 195.163 113.957 196.192 117.21C197.222 120.464 204.936 132.239 209.322 130.866C213.709 129.493 213.321 115.42 212.292 112.151C211.262 108.898 206.174 106.734 206.174 106.734L206.159 106.749Z" fill="#FC6911"/>
<path d="M203.041 101.496C201.952 101.839 200.34 102.346 200.34 102.346C200.34 102.346 198.729 102.854 197.639 103.197C196.55 103.54 196.52 104.257 196.52 104.257L198.102 109.286L202.131 108.017L206.159 106.749L204.578 101.72C204.578 101.72 204.13 101.153 203.041 101.496Z" fill="white"/>
<path d="M199.684 119.524C198.072 116.554 196.446 113.286 199.594 110.375C202.354 107.823 206.249 107.809 209.114 109.838C212.336 112.121 212.888 115.897 212.59 119.553C212.336 122.538 211.814 128.97 206.95 126.806C203.951 125.463 201.176 122.24 199.699 119.524H199.684Z" fill="#FC9E2C"/>
<path d="M203.19 115.345C202.384 112.002 204.22 108.137 208.8 111.122C211.367 112.793 213.038 117.837 208.964 118.986C205.712 119.897 203.757 117.763 203.19 115.345Z" fill="#FFBA31"/>
<path d="M203.846 103.406C206.98 105.331 202.31 109.241 200.818 106.033C200.027 104.316 202.265 102.451 203.846 103.406Z" fill="#3F221A"/>
<path d="M267.289 101.018C266.648 99.6006 260.888 97.3024 259.456 97.8844C259.456 97.8844 254.204 99.6454 252.936 102.824C251.667 106.003 250.22 120.001 254.487 121.703C258.755 123.404 267.349 112.256 268.617 109.077C269.885 105.898 267.289 101.003 267.289 101.003V101.018Z" fill="#AB0F0F"/>
<path d="M268.199 94.9742C267.14 94.5564 265.573 93.9296 265.573 93.9296C265.573 93.9296 264.007 93.3028 262.947 92.8849C261.888 92.4671 261.411 92.9894 261.411 92.9894L259.456 97.8844L263.38 99.4513L267.304 101.018L269.259 96.1234C269.259 96.1234 269.274 95.407 268.214 94.9742H268.199Z" fill="white"/>
<path d="M254.204 106.809C254.83 103.481 255.636 99.9289 259.904 99.6603C263.649 99.4365 266.692 101.884 267.618 105.257C268.677 109.077 266.707 112.345 264.171 114.987C262.097 117.136 257.606 121.792 255.218 117.031C253.741 114.092 253.622 109.853 254.204 106.809Z" fill="#D71E17"/>
<path d="M259.56 105.794C261.052 102.705 264.902 100.854 266.573 106.077C267.513 109.002 265.618 113.957 261.739 112.271C258.635 110.913 258.486 108.032 259.56 105.794Z" fill="#EE3329"/>
<path d="M267.603 96.9591C268.811 100.436 262.724 100.511 263.604 97.0785C264.081 95.2428 266.991 95.213 267.603 96.9591Z" fill="#3F221A"/>
<path d="M427.359 48.8601C426.404 47.6215 420.271 46.7111 419.018 47.6215C419.018 47.6215 414.318 50.5465 413.825 53.9342C413.318 57.3218 415.138 71.2755 419.689 71.947C424.24 72.6186 430.014 59.7842 430.522 56.4115C431.029 53.0238 427.373 48.8601 427.373 48.8601H427.359Z" fill="#AB0F0F"/>
<path d="M426.851 42.7712C425.717 42.6071 424.061 42.3534 424.061 42.3534C424.061 42.3534 422.39 42.0997 421.271 41.9355C420.137 41.7713 419.794 42.3981 419.794 42.3981L419.018 47.6214L423.196 48.2333L427.373 48.8452L428.149 43.6219C428.149 43.6219 428 42.9205 426.866 42.7563L426.851 42.7712Z" fill="white"/>
<path d="M415.974 57.5308C415.81 54.1431 415.78 50.5017 419.883 49.2631C423.479 48.1736 427 49.86 428.686 52.9194C430.596 56.3817 429.447 60.023 427.567 63.1719C426.045 65.7537 422.763 71.3053 419.331 67.2312C417.212 64.7091 416.123 60.6051 415.989 57.5159L415.974 57.5308Z" fill="#D71E17"/>
<path d="M420.943 55.2922C421.674 51.9344 425.001 49.2481 427.836 53.9491C429.418 56.5757 428.716 61.8437 424.553 61.0975C421.226 60.5006 420.405 57.7248 420.943 55.3071V55.2922Z" fill="#EE3329"/>
<path d="M426.732 44.8456C428.716 47.9497 422.793 49.4271 422.867 45.8902C422.897 43.9949 425.747 43.2935 426.732 44.8456Z" fill="#3F221A"/>
<path d="M582.698 70.2755C582.131 68.8279 576.476 66.2611 575.014 66.7834C575.014 66.7834 569.687 68.3056 568.284 71.4246C566.867 74.5437 564.778 88.4526 568.956 90.3628C573.149 92.2581 582.235 81.5131 583.653 78.4089C585.07 75.2899 582.698 70.2904 582.698 70.2904V70.2755Z" fill="#AB0F0F"/>
<path d="M583.891 64.2912C582.847 63.8136 581.31 63.1271 581.31 63.1271C581.31 63.1271 579.773 62.4257 578.744 61.9631C577.699 61.4855 577.192 62.0078 577.192 62.0078L575.014 66.8133L578.848 68.5593L582.683 70.3054L584.861 65.5C584.861 65.5 584.906 64.7836 583.877 64.3061L583.891 64.2912Z" fill="white"/>
<path d="M569.359 75.469C570.135 72.1708 571.104 68.6638 575.387 68.5891C579.147 68.5294 582.056 71.1262 582.832 74.5288C583.712 78.394 581.609 81.5578 578.938 84.0799C576.759 86.1394 572.074 90.5866 569.896 85.7215C568.553 82.7219 568.643 78.4686 569.344 75.469H569.359Z" fill="#D71E17"/>
<path d="M574.76 74.7079C576.386 71.6934 580.325 70.0219 581.758 75.3049C582.564 78.2747 580.445 83.1398 576.64 81.2743C573.611 79.782 573.581 76.8868 574.76 74.7079Z" fill="#EE3329"/>
<path d="M583.205 66.2461C584.265 69.7681 578.162 69.5741 579.206 66.1864C579.758 64.3807 582.683 64.4851 583.205 66.2461Z" fill="#3F221A"/>
<path d="M499.351 37.0406C500.589 37.9807 506.751 37.2495 507.721 36.0407C507.721 36.0407 511.481 31.9814 511.078 28.5938C510.676 25.2061 505.274 12.2076 500.694 12.7448C496.113 13.2821 493.92 27.1909 494.323 30.5786C494.725 33.9663 499.336 37.0406 499.336 37.0406H499.351Z" fill="#FC6911"/>
<path d="M501.44 42.7861C502.574 42.6518 504.245 42.4578 504.245 42.4578C504.245 42.4578 505.916 42.2638 507.05 42.1295C508.184 41.9952 508.348 41.2938 508.348 41.2938L507.721 36.0555L503.529 36.548L499.336 37.0405L499.963 42.2787C499.963 42.2787 500.291 42.9204 501.425 42.7861H501.44Z" fill="white"/>
<path d="M509.422 23.7585C510.467 26.982 511.452 30.4891 507.826 32.7575C504.633 34.7573 500.813 34.0409 498.381 31.5337C495.636 28.6833 495.785 24.8778 496.77 21.3409C497.56 18.4606 499.276 12.2225 503.663 15.252C506.364 17.1175 508.482 20.8036 509.437 23.7436L509.422 23.7585Z" fill="#FC9E2C"/>
<path d="M507.871 23.6242C508.035 27.0566 505.528 30.5189 501.574 26.7283C499.351 24.6091 498.65 19.3411 502.872 18.9829C506.244 18.6844 507.751 21.1468 507.871 23.6242Z" fill="#FFBA31"/>
<path d="M501.007 40.7565C498.277 38.2792 503.603 35.3094 504.469 38.7269C504.931 40.5625 502.38 41.9803 501.007 40.7565Z" fill="#3F221A"/>
<path d="M657.644 42.6071C659.181 42.8309 664.224 39.2343 664.508 37.7121C664.508 37.7121 665.851 32.3396 663.866 29.5638C661.882 26.788 650.885 17.983 647.155 20.6543C643.41 23.3257 648.155 36.5779 650.139 39.3686C652.124 42.1444 657.644 42.622 657.644 42.622V42.6071Z" fill="#009EB1"/>
<path d="M662.24 46.6364C663.165 45.9798 664.538 44.9948 664.538 44.9948C664.538 44.9948 665.911 44.0099 666.836 43.3532C667.761 42.6966 667.582 41.9952 667.582 41.9952L664.523 37.6971L661.091 40.1446L657.659 42.5921L660.718 46.8901C660.718 46.8901 661.315 47.2931 662.24 46.6364Z" fill="white"/>
<path d="M660.002 26.3851C662.464 28.7132 665.015 31.3099 662.926 35.0557C661.091 38.3389 657.391 39.5627 654.049 38.518C650.274 37.3391 648.573 33.9215 647.737 30.3548C647.051 27.4447 645.559 21.1618 650.856 21.714C654.123 22.0572 657.749 24.251 660.002 26.3851Z" fill="#1BC7C7"/>
<path d="M657.689 26.0269C659.48 28.9519 658.957 33.1902 653.661 31.7874C650.691 30.9964 647.543 26.7133 651.064 24.3703C653.884 22.4899 656.391 23.9226 657.689 26.0269Z" fill="#75DDDD"/>
<path d="M660.882 45.0694C657.301 44.2188 660.539 39.0403 662.941 41.637C664.224 43.0249 662.673 45.5022 660.882 45.0694Z" fill="#3F221A"/>
<path d="M474.165 87.9004C472.747 88.557 470.539 94.3474 471.151 95.7801C471.151 95.7801 473.001 101.003 476.179 102.227C479.372 103.451 493.383 104.69 495.024 100.392C496.665 96.0935 485.385 87.6765 482.192 86.4528C478.999 85.2291 474.15 87.9004 474.15 87.9004H474.165Z" fill="#009EB1"/>
<path d="M468.107 87.0796C467.704 88.1392 467.092 89.7211 467.092 89.7211C467.092 89.7211 466.495 91.303 466.078 92.3626C465.675 93.4222 466.212 93.8997 466.212 93.8997L471.136 95.7801L472.643 91.8403L474.15 87.9004L469.226 86.02C469.226 86.02 468.51 86.02 468.092 87.0796H468.107Z" fill="white"/>
<path d="M480.163 100.884C476.821 100.302 473.255 99.5558 472.926 95.2876C472.643 91.5418 475.045 88.4675 478.402 87.4825C482.207 86.3632 485.504 88.2735 488.175 90.7807C490.354 92.8252 495.084 97.2426 490.354 99.705C487.444 101.227 483.192 101.406 480.148 100.869L480.163 100.884Z" fill="#1BC7C7"/>
<path d="M479.059 95.5562C475.94 94.1086 474.045 90.2881 479.238 88.5271C482.147 87.5422 487.131 89.3629 485.504 93.2729C484.191 96.3919 481.312 96.5859 479.074 95.5562H479.059Z" fill="#75DDDD"/>
<path d="M470.106 87.6318C473.568 86.3633 473.732 92.4671 470.285 91.6314C468.45 91.1837 468.376 88.2586 470.106 87.6318Z" fill="#3F221A"/>
<path d="M253.652 35.399C253.025 36.8317 255.204 42.637 256.606 43.3085C256.606 43.3085 261.44 46.0097 264.648 44.8158C267.856 43.6219 279.196 35.2796 277.585 30.9816C275.973 26.6687 261.948 27.8178 258.74 29.0117C255.532 30.2056 253.652 35.4139 253.652 35.4139V35.399Z" fill="#009EB1"/>
<path d="M248.579 38.7866C248.982 39.8611 249.564 41.4281 249.564 41.4281C249.564 41.4281 250.16 43.01 250.548 44.0696C250.936 45.1292 251.667 45.1441 251.667 45.1441L256.606 43.2936L255.129 39.3388L253.652 35.384L248.713 37.2346C248.713 37.2346 248.176 37.7121 248.564 38.7717L248.579 38.7866Z" fill="white"/>
<path d="M266.752 41.1745C263.872 42.9504 260.694 44.7413 257.621 41.7565C254.92 39.13 254.696 35.2498 256.576 32.28C258.695 28.9371 262.425 28.1909 266.096 28.2954C269.095 28.3849 275.54 28.564 273.631 33.5485C272.452 36.6228 269.378 39.5478 266.752 41.1745Z" fill="#1BC7C7"/>
<path d="M262.395 37.9062C259.098 38.8762 255.144 37.2645 257.889 32.5187C259.426 29.8623 264.365 27.9222 265.723 31.9367C266.812 35.1453 264.783 37.1898 262.395 37.9062Z" fill="#75DDDD"/>
<path d="M250.429 37.8912C252.19 34.6528 256.337 39.115 253.219 40.7715C251.548 41.652 249.563 39.5179 250.429 37.8912Z" fill="#3F221A"/>
<path d="M118.799 74.0662C119.38 75.5138 125.02 78.0657 126.498 77.5285C126.498 77.5285 131.809 75.9913 133.227 72.8723C134.629 69.7532 136.688 55.8294 132.496 53.9491C128.303 52.0538 119.246 62.8286 117.844 65.9477C116.441 69.0667 118.813 74.0662 118.813 74.0662H118.799Z" fill="#009EB1"/>
<path d="M117.62 80.0506C118.664 80.5132 120.201 81.2146 120.201 81.2146C120.201 81.2146 121.738 81.9011 122.782 82.3786C123.827 82.8413 124.334 82.3339 124.334 82.3339L126.498 77.5285L122.648 75.7973L118.799 74.0662L116.635 78.8716C116.635 78.8716 116.59 79.5879 117.62 80.0655V80.0506Z" fill="white"/>
<path d="M133.913 67.1416C133.137 70.4397 132.182 73.9617 127.9 74.0363C124.14 74.111 121.216 71.5292 120.44 68.1116C119.545 64.2613 121.648 61.0677 124.304 58.5456C126.468 56.4861 131.153 52.0239 133.346 56.889C134.704 59.8887 134.629 64.127 133.913 67.1416Z" fill="#1BC7C7"/>
<path d="M133.301 65.3507C131.675 68.3802 127.751 70.0517 126.304 64.7687C125.498 61.8138 127.602 56.9338 131.407 58.7843C134.45 60.2767 134.48 63.157 133.301 65.3507Z" fill="#75DDDD"/>
<path d="M118.306 78.1104C117.247 74.5884 123.334 74.7675 122.305 78.1552C121.753 79.961 118.828 79.8714 118.306 78.1104Z" fill="#3F221A"/>
<path d="M339.177 53.7849C340.669 54.2177 346.145 51.3075 346.623 49.8301C346.623 49.8301 348.667 44.6814 347.055 41.6669C345.444 38.6523 335.701 28.4892 331.642 30.6532C327.584 32.8171 330.553 46.5767 332.15 49.5913C333.746 52.6059 339.162 53.7998 339.162 53.7998L339.177 53.7849Z" fill="#FC6911"/>
<path d="M343.191 58.3963C344.191 57.859 345.683 57.0681 345.683 57.0681C345.683 57.0681 347.175 56.2771 348.174 55.7399C349.174 55.2026 349.085 54.4863 349.085 54.4863L346.608 49.8301L342.878 51.8149L339.147 53.7998L341.624 58.456C341.624 58.456 342.161 58.9335 343.176 58.3963H343.191Z" fill="white"/>
<path d="M343.624 38.4135C345.757 41.0401 347.951 43.9502 345.384 47.3826C343.131 50.3972 339.311 51.1285 336.133 49.666C332.537 48.0094 331.314 44.3979 330.941 40.7565C330.643 37.7718 329.986 31.3546 335.164 32.5933C338.357 33.3544 341.669 36.0257 343.624 38.4135Z" fill="#FC9E2C"/>
<path d="M342.46 38.9806C343.862 42.1146 342.773 46.2484 337.715 44.1591C334.88 42.9801 332.314 38.3389 336.118 36.4585C339.147 34.9661 341.46 36.7122 342.46 38.9806Z" fill="#FFBA31"/>
<path d="M342.057 56.6652C338.625 55.3519 342.505 50.636 344.549 53.5312C345.638 55.0683 343.773 57.3218 342.057 56.6652Z" fill="#3F221A"/>
<path d="M1379.87 17.804C1371.82 20.0426 1364.21 24.5644 1357.56 29.7131C1341.91 41.8311 1328.14 56.3071 1306.95 56.6653C1287.31 56.9787 1268.81 47.4574 1251.1 40.1746C1234.96 33.5336 1218.57 28.2804 1200.92 28.6386C1183.91 28.9818 1166.96 33.7574 1152.31 42.3982C1151.68 42.7713 1151.03 43.1593 1150.37 43.5623C1132.82 23.4004 1096.39 24.7286 1072.59 29.8922C1054.07 33.9067 1036.33 41.6968 1020.89 52.6508C1004.63 64.1868 991.943 83.5876 969.815 82.0206C957.341 81.1401 943.794 75.2005 932.394 67.2312C935.125 63.754 937.467 59.8888 939.287 55.6206C943.943 44.7412 944.241 31.698 936.796 21.8931C930.245 13.2523 918.145 11.8345 910.863 20.4604C902.508 30.3399 905.179 44.0697 912.654 53.5164C916.742 58.68 921.994 63.4406 927.784 67.6342C927.59 67.858 927.381 68.0819 927.172 68.3057C915.34 80.8864 897.823 87.8707 880.724 88.4975C838.647 90.0495 803.375 61.7393 767.506 44.0697C743.737 32.3546 715.835 24.2361 689.888 30.4742L690.052 33.6231C712.702 28.2954 738.694 34.2051 759.612 43.7563C794.542 59.6948 826.233 85.7067 865.341 90.7957C888.289 93.7804 914.892 87.214 930.484 69.5444C937.974 74.6184 946.181 78.7374 953.895 81.5729C969.979 87.4976 985.661 86.035 999.164 75.096C1006.24 69.3802 1012.47 62.7541 1019.77 57.2921C1028.27 50.9346 1037.53 45.562 1047.25 41.3237C1064.74 33.7276 1083.79 29.6683 1102.86 29.8176C1118.5 29.937 1136.76 33.5485 1147.6 45.3083C1136.73 52.3822 1124.53 63.1123 1125.39 76.4839C1126.15 88.0945 1137.48 96.9293 1148.31 90.4226C1159.98 83.4085 1161.83 67.7237 1157.55 55.8892C1156.17 52.0986 1154.34 48.7706 1152.16 45.8307C1158.4 42.2191 1164.68 39.4433 1169.39 37.7122C1189.19 30.4444 1210.71 29.9071 1230.88 36.0258C1251 42.1296 1269.44 53.0836 1290 57.7995C1308.05 61.9482 1324.9 58.8292 1339.95 47.9051C1351.98 39.1747 1365.08 25.2659 1379.99 20.6992L1379.84 17.8339L1379.87 17.804ZM916.474 53.1731C909.983 45.771 906.178 35.6975 910.789 26.2807C915.31 17.0578 926.306 14.6402 933.319 22.5647C944.48 35.1453 939.228 53.3224 929.723 65.2911C924.71 61.5304 920.174 57.4114 916.474 53.1731ZM1153.94 55.1132C1157.03 62.4109 1157.83 71.1561 1154.53 78.5434C1152.46 83.2145 1148.49 87.8408 1143.39 89.2138C1136.3 91.124 1130.68 85.662 1129 79.2448C1125.66 66.3656 1136.96 55.2475 1149.45 47.4424C1151.22 49.7258 1152.74 52.2628 1153.94 55.0983V55.1132Z" fill="white"/>
<path d="M739.589 40.5477C738.738 39.2493 732.681 37.9062 731.353 38.7121C731.353 38.7121 726.459 41.2939 725.713 44.6368C724.967 47.9797 725.787 62.0229 730.263 63.0228C734.755 64.0226 741.439 51.636 742.185 48.2931C742.931 44.9502 739.589 40.5477 739.589 40.5477Z" fill="#AB0F0F"/>
<path d="M739.514 34.4439C738.395 34.1902 736.754 33.832 736.754 33.832C736.754 33.832 735.113 33.459 733.994 33.2202C732.875 32.9665 732.487 33.5783 732.487 33.5783L731.338 38.727L735.456 39.6374L739.574 40.5477L740.723 35.399C740.723 35.399 740.618 34.6827 739.514 34.4439Z" fill="white"/>
<path d="M727.608 48.3827C727.697 44.995 727.921 41.3536 732.099 40.4134C735.769 39.5777 739.156 41.5178 740.618 44.6965C742.275 48.2931 740.857 51.83 738.768 54.8446C737.067 57.307 733.382 62.6199 730.263 58.3069C728.339 55.6505 727.548 51.4719 727.623 48.3827H727.608Z" fill="#D71E17"/>
<path d="M732.725 46.5172C733.695 43.2191 737.217 40.7865 739.693 45.6666C741.081 48.3976 740.007 53.606 735.918 52.5613C732.636 51.7256 732.024 48.905 732.725 46.5172Z" fill="#EE3329"/>
<path d="M739.261 36.4884C741.021 39.7269 735.008 40.7715 735.337 37.2495C735.516 35.3691 738.38 34.8617 739.261 36.4884Z" fill="#3F221A"/>
<path d="M896.032 94.0191C894.645 93.3177 888.721 95.1831 887.99 96.5412C887.99 96.5412 885.036 101.227 886.065 104.481C887.095 107.734 894.809 119.509 899.196 118.136C903.582 116.763 903.194 102.69 902.165 99.4215C901.135 96.1681 896.047 94.0042 896.047 94.0042L896.032 94.0191Z" fill="#FC6911"/>
<path d="M892.929 88.766C891.84 89.1092 890.228 89.6166 890.228 89.6166C890.228 89.6166 888.617 90.124 887.528 90.4673C886.438 90.8105 886.409 91.5269 886.409 91.5269L887.99 96.5561L892.019 95.2876L896.047 94.0191L894.466 88.9898C894.466 88.9898 894.018 88.4227 892.929 88.766Z" fill="white"/>
<path d="M889.557 106.794C887.945 103.824 886.319 100.556 889.467 97.6456C892.228 95.0936 896.122 95.0787 898.987 97.1083C902.21 99.3916 902.762 103.167 902.463 106.824C902.21 109.808 901.687 116.24 896.823 114.077C893.824 112.733 891.049 109.51 889.572 106.794H889.557Z" fill="#FC9E2C"/>
<path d="M893.063 102.615C892.257 99.2722 894.093 95.407 898.673 98.3917C901.24 100.063 902.911 105.107 898.837 106.256C895.585 107.167 893.63 105.033 893.063 102.615Z" fill="#FFBA31"/>
<path d="M893.72 90.6762C896.853 92.6014 892.183 96.5114 890.691 93.3028C889.9 91.5866 892.138 89.7211 893.72 90.6762Z" fill="#3F221A"/>
<path d="M957.162 88.2735C956.521 86.8558 950.761 84.5575 949.329 85.1395C949.329 85.1395 944.077 86.9005 942.809 90.0793C941.54 93.258 940.093 107.256 944.36 108.958C948.628 110.659 957.222 99.511 958.49 96.3323C959.759 93.1535 957.162 88.2586 957.162 88.2586V88.2735Z" fill="#AB0F0F"/>
<path d="M958.073 82.2444C957.013 81.8265 955.447 81.1997 955.447 81.1997C955.447 81.1997 953.88 80.5729 952.821 80.1551C951.761 79.7372 951.284 80.2595 951.284 80.2595L949.329 85.1545L953.253 86.7215L957.177 88.2885L959.132 83.3935C959.132 83.3935 959.147 82.6772 958.088 82.2444H958.073Z" fill="white"/>
<path d="M944.077 94.0789C944.704 90.7509 945.509 87.1991 949.777 86.9305C953.522 86.7066 956.566 89.1541 957.491 92.5268C958.55 96.3473 956.581 99.6156 954.044 102.257C951.97 104.406 947.479 109.062 945.092 104.302C943.614 101.362 943.495 97.1233 944.077 94.0789Z" fill="#D71E17"/>
<path d="M949.434 93.064C950.926 89.9748 954.775 88.1243 956.446 93.3476C957.386 96.2726 955.491 101.227 951.612 99.5409C948.509 98.1829 948.359 95.3026 949.434 93.064Z" fill="#EE3329"/>
<path d="M957.476 84.2143C958.684 87.6915 952.597 87.7661 953.477 84.3337C953.955 82.4981 956.864 82.4682 957.476 84.2143Z" fill="#3F221A"/>
<path d="M1117.23 36.1303C1116.28 34.8916 1110.14 33.9813 1108.89 34.8916C1108.89 34.8916 1104.19 37.8166 1103.7 41.2043C1103.19 44.592 1105.01 58.5456 1109.56 59.2172C1114.11 59.8887 1119.89 47.0544 1120.39 43.6816C1120.9 40.294 1117.25 36.1303 1117.25 36.1303H1117.23Z" fill="#AB0F0F"/>
<path d="M1116.72 30.0414C1115.59 29.8772 1113.93 29.6235 1113.93 29.6235C1113.93 29.6235 1112.26 29.3698 1111.14 29.2056C1110.01 29.0415 1109.67 29.6683 1109.67 29.6683L1108.89 34.8916L1113.07 35.5034L1117.25 36.1153L1118.02 30.892C1118.02 30.892 1117.87 30.1906 1116.74 30.0264L1116.72 30.0414Z" fill="white"/>
<path d="M1105.85 44.8009C1105.68 41.4132 1105.65 37.7719 1109.76 36.5332C1113.35 35.4438 1116.87 37.1302 1118.56 40.1895C1120.47 43.6518 1119.32 47.2932 1117.44 50.4421C1115.92 53.0239 1112.64 58.5755 1109.2 54.5013C1107.09 51.9792 1106 47.8752 1105.86 44.786L1105.85 44.8009Z" fill="#D71E17"/>
<path d="M1110.82 42.5624C1111.55 39.2045 1114.87 36.5183 1117.71 41.2192C1119.29 43.8458 1118.59 49.1139 1114.43 48.3677C1111.1 47.7707 1110.28 44.9949 1110.82 42.5773V42.5624Z" fill="#EE3329"/>
<path d="M1116.6 32.1157C1118.59 35.2198 1112.67 36.6973 1112.74 33.1604C1112.77 31.2651 1115.62 30.5637 1116.6 32.1157Z" fill="#3F221A"/>
<path d="M1272.57 57.5457C1272 56.0981 1266.35 53.5312 1264.89 54.0535C1264.89 54.0535 1259.56 55.5757 1258.16 58.6948C1256.74 61.8138 1254.65 75.7227 1258.83 77.6329C1263.02 79.5282 1272.11 68.7832 1273.53 65.6791C1274.94 62.56 1272.57 57.5606 1272.57 57.5606V57.5457Z" fill="#AB0F0F"/>
<path d="M1273.76 51.5613C1272.72 51.0837 1271.18 50.3973 1271.18 50.3973C1271.18 50.3973 1269.65 49.6958 1268.62 49.2332C1267.57 48.7557 1267.07 49.278 1267.07 49.278L1264.89 54.0834L1268.72 55.8295L1272.56 57.5755L1274.73 52.7701C1274.73 52.7701 1274.78 52.0538 1273.75 51.5762L1273.76 51.5613Z" fill="white"/>
<path d="M1259.25 62.7391C1260.02 59.441 1260.99 55.9339 1265.27 55.8593C1269.03 55.7996 1271.94 58.3963 1272.72 61.7989C1273.6 65.6641 1271.5 68.828 1268.83 71.3501C1266.65 73.4095 1261.96 77.8568 1259.78 72.9917C1258.44 69.992 1258.53 65.7388 1259.23 62.7391H1259.25Z" fill="#D71E17"/>
<path d="M1264.63 61.9631C1266.26 58.9485 1270.2 57.277 1271.63 62.56C1272.44 65.5298 1270.32 70.3949 1266.51 68.5295C1263.48 67.0371 1263.45 64.1419 1264.63 61.9631Z" fill="#EE3329"/>
<path d="M1273.08 53.5163C1274.14 57.0383 1268.04 56.8443 1269.08 53.4566C1269.63 51.6508 1272.56 51.7553 1273.08 53.5163Z" fill="#3F221A"/>
<path d="M1189.22 24.3107C1190.46 25.2509 1196.62 24.5196 1197.59 23.3108C1197.59 23.3108 1201.35 19.2516 1200.95 15.8639C1200.55 12.4762 1195.15 -0.522294 1190.57 0.0149582C1185.99 0.55221 1183.79 14.4611 1184.2 17.8487C1184.6 21.2364 1189.21 24.3107 1189.21 24.3107H1189.22Z" fill="#FC6911"/>
<path d="M1191.31 30.0563C1192.45 29.9219 1194.12 29.7279 1194.12 29.7279C1194.12 29.7279 1195.79 29.5339 1196.92 29.3996C1198.06 29.2653 1198.22 28.5639 1198.22 28.5639L1197.59 23.3257L1193.4 23.8182L1189.21 24.3106L1189.84 29.5489C1189.84 29.5489 1190.16 30.1906 1191.3 30.0563H1191.31Z" fill="white"/>
<path d="M1199.3 11.0287C1200.34 14.2522 1201.32 17.7592 1197.7 20.0276C1194.51 22.0274 1190.69 21.3111 1188.25 18.8039C1185.51 15.9535 1185.66 12.1479 1186.64 8.61102C1187.43 5.73075 1189.15 -0.507346 1193.54 2.52216C1196.24 4.38762 1198.36 8.07377 1199.31 11.0137L1199.3 11.0287Z" fill="#FC9E2C"/>
<path d="M1197.74 10.8943C1197.91 14.3268 1195.4 17.789 1191.45 13.9984C1189.22 11.8793 1188.52 6.61121 1192.75 6.25305C1196.12 5.95457 1197.62 8.41698 1197.74 10.8943Z" fill="#FFBA31"/>
<path d="M1190.88 28.0267C1188.15 25.5493 1193.48 22.5795 1194.34 25.997C1194.8 27.8326 1192.25 29.2504 1190.88 28.0267Z" fill="#3F221A"/>
<path d="M1347.52 29.8772C1349.05 30.1011 1354.1 26.5045 1354.38 24.9822C1354.38 24.9822 1355.72 19.6097 1353.74 16.8339C1351.76 14.0581 1340.76 5.25314 1337.03 7.92448C1333.28 10.5958 1338.03 23.848 1340.01 26.6388C1342 29.4146 1347.52 29.8921 1347.52 29.8921V29.8772Z" fill="#009EB1"/>
<path d="M1352.11 33.9066C1353.04 33.2499 1354.41 32.265 1354.41 32.265C1354.41 32.265 1355.78 31.28 1356.71 30.6234C1357.63 29.9667 1357.45 29.2653 1357.45 29.2653L1354.4 24.9673L1350.96 27.4148L1347.53 29.8623L1350.59 34.1603C1350.59 34.1603 1351.19 34.5632 1352.11 33.9066Z" fill="#1A2F42"/>
<path d="M1349.88 13.6552C1352.34 15.9833 1354.89 18.58 1352.8 22.3259C1350.96 25.6091 1347.26 26.8328 1343.92 25.7882C1340.15 24.6092 1338.45 21.1917 1337.61 17.6249C1336.92 14.7148 1335.43 8.43194 1340.73 8.98411C1344 9.32736 1347.62 11.5211 1349.88 13.6552Z" fill="#1BC7C7"/>
<path d="M1347.56 13.297C1349.35 16.222 1348.83 20.4604 1343.53 19.0575C1340.56 18.2666 1337.42 13.9835 1340.94 11.6405C1343.76 9.76009 1346.26 11.1928 1347.56 13.297Z" fill="#75DDDD"/>
<path d="M1350.76 32.3396C1347.17 31.4889 1350.41 26.3104 1352.81 28.9071C1354.1 30.295 1352.55 32.7724 1350.76 32.3396Z" fill="#3F221A"/>
<path d="M1164.04 75.1705C1162.62 75.8272 1160.41 81.6176 1161.02 83.0502C1161.02 83.0502 1162.87 88.2735 1166.05 89.4973C1169.25 90.721 1183.26 91.9597 1184.9 87.6617C1186.54 83.3636 1175.26 74.9467 1172.07 73.7229C1168.87 72.4992 1164.02 75.1705 1164.02 75.1705H1164.04Z" fill="#009EB1"/>
<path d="M1157.98 74.3349C1157.58 75.3944 1156.97 76.9763 1156.97 76.9763C1156.97 76.9763 1156.37 78.5582 1155.95 79.6178C1155.55 80.6774 1156.09 81.155 1156.09 81.155L1161.01 83.0354L1162.52 79.0955L1164.02 75.1557L1159.1 73.2753C1159.1 73.2753 1158.38 73.2753 1157.97 74.3349H1157.98Z" fill="white"/>
<path d="M1170.04 88.1541C1166.69 87.5721 1163.13 86.8259 1162.8 82.5577C1162.52 78.8119 1164.92 75.7376 1168.28 74.7527C1172.08 73.6334 1175.38 75.5436 1178.05 78.0508C1180.23 80.0953 1184.96 84.5127 1180.23 86.9751C1177.32 88.4974 1173.06 88.6765 1170.02 88.1392L1170.04 88.1541Z" fill="#1BC7C7"/>
<path d="M1168.93 82.8265C1165.81 81.3789 1163.92 77.5584 1169.11 75.7974C1172.02 74.8124 1177 76.6331 1175.38 80.5431C1174.06 83.6622 1171.18 83.8562 1168.95 82.8265H1168.93Z" fill="#75DDDD"/>
<path d="M1159.98 74.902C1163.44 73.6335 1163.61 79.7372 1160.16 78.9015C1158.32 78.4538 1158.25 75.5288 1159.98 74.902Z" fill="#3F221A"/>
<path d="M943.54 22.6691C942.913 24.1018 945.092 29.9071 946.494 30.5787C946.494 30.5787 951.328 33.2799 954.536 32.086C957.744 30.8921 969.084 22.5498 967.473 18.2517C965.861 13.9388 951.836 15.0879 948.628 16.2818C945.42 17.4757 943.54 22.6841 943.54 22.6841V22.6691Z" fill="#009EB1"/>
<path d="M938.452 26.0419C938.855 27.1164 939.437 28.6834 939.437 28.6834C939.437 28.6834 940.034 30.2653 940.422 31.3249C940.809 32.3844 941.541 32.3994 941.541 32.3994L946.479 30.5488L945.002 26.5941L943.525 22.6393L938.586 24.4898C938.586 24.4898 938.049 24.9674 938.437 26.027L938.452 26.0419Z" fill="white"/>
<path d="M956.625 28.4447C953.746 30.2206 950.568 32.0114 947.494 29.0267C944.793 26.4001 944.569 22.52 946.449 19.5501C948.568 16.2072 952.298 15.4611 955.969 15.5655C958.968 15.6551 965.414 15.8342 963.504 20.8187C962.325 23.8929 959.251 26.818 956.625 28.4447Z" fill="#1BC7C7"/>
<path d="M952.268 25.1614C948.971 26.1315 945.017 24.5197 947.762 19.774C949.299 17.1176 954.238 15.1775 955.596 19.192C956.685 22.4006 954.656 24.4451 952.268 25.1614Z" fill="#75DDDD"/>
<path d="M940.317 25.1465C942.078 21.9081 946.226 26.3702 943.107 28.0268C941.436 28.9073 939.452 26.7732 940.317 25.1465Z" fill="#3F221A"/>
<path d="M808.672 61.3363C809.254 62.7839 814.894 65.3359 816.371 64.7986C816.371 64.7986 821.683 63.2615 823.1 60.1424C824.503 57.0234 826.562 43.0996 822.369 41.2192C818.176 39.3239 809.119 50.0988 807.717 53.2178C806.314 56.3369 808.687 61.3363 808.687 61.3363H808.672Z" fill="#009EB1"/>
<path d="M807.508 67.3207C808.552 67.7833 810.089 68.4847 810.089 68.4847C810.089 68.4847 811.626 69.1712 812.67 69.6488C813.715 70.1114 814.222 69.604 814.222 69.604L816.386 64.7986L812.536 63.0674L808.687 61.3363L806.523 66.1417C806.523 66.1417 806.478 66.8581 807.508 67.3356V67.3207Z" fill="white"/>
<path d="M823.786 54.4117C823.01 57.7099 822.056 61.2319 817.773 61.3065C814.013 61.3811 811.089 58.7993 810.313 55.3818C809.418 51.5315 811.522 48.3378 814.177 45.8157C816.341 43.7563 821.026 39.2941 823.219 44.1592C824.577 47.1588 824.503 51.3972 823.786 54.4117Z" fill="#1BC7C7"/>
<path d="M823.175 52.6209C821.548 55.6504 817.624 57.3218 816.177 52.0389C815.371 49.084 817.475 44.2039 821.28 46.0545C824.324 47.5468 824.353 50.4271 823.175 52.6209Z" fill="#75DDDD"/>
<path d="M808.179 65.3657C807.12 61.8437 813.208 62.0228 812.178 65.4105C811.626 67.2162 808.702 67.1267 808.179 65.3657Z" fill="#3F221A"/>
<path d="M1029.05 41.055C1030.54 41.4878 1036.02 38.5777 1036.5 37.1002C1036.5 37.1002 1038.54 31.9516 1036.93 28.937C1035.32 25.9224 1025.57 15.7594 1021.52 17.9233C1017.46 20.0873 1020.43 33.8469 1022.02 36.8615C1023.62 39.876 1029.04 41.0699 1029.04 41.0699L1029.05 41.055Z" fill="#FC6911"/>
<path d="M1033.06 45.6664C1034.06 45.1292 1035.56 44.3382 1035.56 44.3382C1035.56 44.3382 1037.05 43.5472 1038.05 43.01C1039.05 42.4727 1038.96 41.7564 1038.96 41.7564L1036.48 37.1002L1032.75 39.0851L1029.02 41.0699L1031.5 45.7261C1031.5 45.7261 1032.03 46.2037 1033.05 45.6664H1033.06Z" fill="white"/>
<path d="M1033.51 25.6837C1035.65 28.3102 1037.84 31.2203 1035.27 34.6528C1033.02 37.6674 1029.2 38.3986 1026.02 36.9361C1022.43 35.2796 1021.2 31.6681 1020.83 28.0267C1020.53 25.0419 1019.87 18.6248 1025.05 19.8634C1028.24 20.6245 1031.56 23.2959 1033.51 25.6837Z" fill="#FC9E2C"/>
<path d="M1032.35 26.2507C1033.75 29.3847 1032.66 33.5186 1027.6 31.4292C1024.77 30.2503 1022.2 25.609 1026.01 23.7286C1029.04 22.2363 1031.35 23.9823 1032.35 26.2507Z" fill="#FFBA31"/>
<path d="M1031.93 43.9353C1028.5 42.622 1032.38 37.9061 1034.42 40.8013C1035.51 42.3385 1033.65 44.5919 1031.93 43.9353Z" fill="#3F221A"/>
</g>
<defs>
<clipPath id="clip0_6_13">
<rect width="1380" height="131" fill="white"/>
</clipPath>
</defs>
</svg>
