<svg width="1399" height="225" viewBox="0 0 1399 225" fill="none" xmlns="http://www.w3.org/2000/svg">
<path d="M719.543 3.9813V0H706.851C706.851 1.16381 703.845 2.10675 700.135 2.10675C696.425 2.10675 693.419 1.16381 693.419 0H683.489C683.489 1.16381 680.483 2.10675 676.773 2.10675C673.063 2.10675 670.057 1.16381 670.057 0H660.136C660.136 1.16381 657.13 2.10675 653.42 2.10675C649.71 2.10675 646.704 1.16381 646.704 0H636.783C636.783 1.16381 633.777 2.10675 630.067 2.10675C626.357 2.10675 623.36 1.16381 623.36 0H613.43C613.43 1.16381 610.424 2.10675 606.714 2.10675C603.004 2.10675 599.998 1.16381 599.998 0H590.078C590.078 1.16381 587.072 2.10675 583.361 2.10675C579.651 2.10675 576.645 1.16381 576.645 0H566.725C566.725 1.16381 563.719 2.10675 560.009 2.10675C556.299 2.10675 553.293 1.16381 553.293 0H543.372C543.372 1.16381 540.366 2.10675 536.656 2.10675C532.946 2.10675 529.94 1.16381 529.94 0H520.019C520.019 1.16381 517.013 2.10675 513.303 2.10675C509.593 2.10675 506.587 1.16381 506.587 0H496.666C496.666 1.16381 493.66 2.10675 489.95 2.10675C486.24 2.10675 483.234 1.16381 483.234 0H473.313C473.313 1.16381 470.307 2.10675 466.597 2.10675C462.887 2.10675 459.881 1.16381 459.881 0H449.96C449.96 1.16381 446.954 2.10675 443.244 2.10675C439.534 2.10675 436.528 1.16381 436.528 0H426.607C426.607 1.16381 423.601 2.10675 419.891 2.10675C416.181 2.10675 413.175 1.16381 413.175 0H403.255C403.255 1.16381 400.249 2.10675 396.539 2.10675C392.828 2.10675 389.822 1.16381 389.822 0H379.893C379.893 1.16381 376.887 2.10675 373.177 2.10675C369.466 2.10675 366.46 1.16381 366.46 0H353.155C353.155 1.16381 350.149 2.10675 346.439 2.10675C342.728 2.10675 339.722 1.16381 339.722 0H329.793C329.793 1.16381 326.787 2.10675 323.077 2.10675C319.367 2.10675 316.361 1.16381 316.361 0H306.44C306.44 1.16381 303.434 2.10675 299.724 2.10675C296.014 2.10675 293.008 1.16381 293.008 0H283.087C283.087 1.16381 280.081 2.10675 276.371 2.10675C272.661 2.10675 269.655 1.16381 269.655 0H259.725C259.725 1.16381 256.719 2.10675 253.009 2.10675C249.299 2.10675 246.293 1.16381 246.293 0H236.372C236.372 1.16381 233.366 2.10675 229.656 2.10675C225.946 2.10675 222.94 1.16381 222.94 0H213.019C213.019 1.16381 210.013 2.10675 206.303 2.10675C202.593 2.10675 199.587 1.16381 199.587 0H189.667C189.667 1.16381 186.661 2.10675 182.95 2.10675C179.24 2.10675 176.234 1.16381 176.234 0H166.314C166.314 1.16381 163.308 2.10675 159.598 2.10675C155.887 2.10675 152.881 1.16381 152.881 0H142.961C142.961 1.16381 139.955 2.10675 136.245 2.10675C132.535 2.10675 129.529 1.16381 129.529 0H119.608C119.608 1.16381 116.602 2.10675 112.892 2.10675C109.182 2.10675 106.176 1.16381 106.176 0H96.255C96.255 1.16381 93.249 2.10675 89.5389 2.10675C85.8288 2.10675 82.8228 1.16381 82.8228 0H72.9021C72.9021 1.16381 69.8961 2.10675 66.186 2.10675C62.4759 2.10675 59.4699 1.16381 59.4699 0H49.5493C49.5493 1.16381 46.5433 2.10675 42.8332 2.10675C39.1231 2.10675 36.1171 1.16381 36.1171 0H26.1874C26.1874 1.16381 23.1814 2.10675 19.4713 2.10675C15.7612 2.10675 12.7552 1.16381 12.7552 0H0V3.9813C3.7101 3.9813 6.7161 4.92424 6.7161 6.08805C6.7161 7.25185 3.7101 8.19479 0 8.19479V11.3096C3.7101 11.3096 6.7161 12.2525 6.7161 13.4164C6.7161 14.5802 3.7101 15.5231 0 15.5231V18.6379C3.7101 18.6379 6.7161 19.5809 6.7161 20.7447C6.7161 21.9085 3.7101 22.8514 0 22.8514V25.9634C3.7101 25.9634 6.7161 26.9063 6.7161 28.0701C6.7161 29.2339 3.7101 30.1769 0 30.1769V33.2889C3.7101 33.2889 6.7161 34.2318 6.7161 35.3956C6.7161 36.5594 3.7101 37.5024 0 37.5024V40.6143C3.7101 40.6143 6.7161 41.5573 6.7161 42.7211C6.7161 43.8849 3.7101 44.8278 0 44.8278V47.9398C3.7101 47.9398 6.7161 48.8828 6.7161 50.0466C6.7161 51.2104 3.7101 52.1533 0 52.1533V55.2653C3.7101 55.2653 6.7161 56.2082 6.7161 57.372C6.7161 58.5358 3.7101 59.4788 0 59.4788V62.5908C3.7101 62.5908 6.7161 63.5337 6.7161 64.6975C6.7161 65.8613 3.7101 66.8043 0 66.8043V69.9162C3.7101 69.9162 6.7161 70.8592 6.7161 72.023C6.7161 73.1868 3.7101 74.1297 0 74.1297V77.2417C3.7101 77.2417 6.7161 78.1847 6.7161 79.3485C6.7161 80.5123 3.7101 81.4552 0 81.4552V84.57C3.7101 84.57 6.7161 85.513 6.7161 86.6768C6.7161 87.8406 3.7101 88.7835 0 88.7835V91.8955C3.7101 91.8955 6.7161 92.8384 6.7161 94.0022C6.7161 95.1661 3.7101 96.109 0 96.109V99.221C3.7101 99.221 6.7161 100.164 6.7161 101.328C6.7161 102.492 3.7101 103.434 0 103.434V106.549C3.7101 106.549 6.7161 107.492 6.7161 108.656C6.7161 109.296 5.80437 109.868 4.36005 110.256H0V114.744H4.36005C5.79534 115.129 6.7161 115.704 6.7161 116.344C6.7161 117.508 3.7101 118.451 0 118.451V121.566C3.7101 121.566 6.7161 122.508 6.7161 123.672C6.7161 124.836 3.7101 125.779 0 125.779V128.894C3.7101 128.894 6.7161 129.837 6.7161 131.001C6.7161 132.164 3.7101 133.107 0 133.107V136.219C3.7101 136.219 6.7161 137.162 6.7161 138.326C6.7161 139.49 3.7101 140.433 0 140.433V143.545C3.7101 143.545 6.7161 144.488 6.7161 145.652C6.7161 146.815 3.7101 147.758 0 147.758V150.87C3.7101 150.87 6.7161 151.813 6.7161 152.977C6.7161 154.141 3.7101 155.084 0 155.084V158.196C3.7101 158.196 6.7161 159.139 6.7161 160.302C6.7161 161.466 3.7101 162.409 0 162.409V165.521C3.7101 165.521 6.7161 166.464 6.7161 167.628C6.7161 168.792 3.7101 169.735 0 169.735V172.847C3.7101 172.847 6.7161 173.79 6.7161 174.953C6.7161 176.117 3.7101 177.06 0 177.06V180.172C3.7101 180.172 6.7161 181.115 6.7161 182.279C6.7161 183.443 3.7101 184.386 0 184.386V187.498C3.7101 187.498 6.7161 188.441 6.7161 189.604C6.7161 190.768 3.7101 191.711 0 191.711V194.826C3.7101 194.826 6.7161 195.769 6.7161 196.933C6.7161 198.096 3.7101 199.039 0 199.039V202.151C3.7101 202.151 6.7161 203.094 6.7161 204.258C6.7161 205.422 3.7101 206.365 0 206.365V209.477C3.7101 209.477 6.7161 210.42 6.7161 211.584C6.7161 212.747 3.7101 213.69 0 213.69V216.805C3.7101 216.805 6.7161 217.748 6.7161 218.912C6.7161 220.076 3.7101 221.019 0 221.019V225H12.692C12.692 223.836 15.698 222.893 19.4081 222.893C23.1182 222.893 26.1242 223.836 26.1242 225H36.0539C36.0539 223.836 39.0599 222.893 42.77 222.893C46.4801 222.893 49.4861 223.836 49.4861 225H59.4068C59.4068 223.836 62.4127 222.893 66.1228 222.893C69.833 222.893 72.8389 223.836 72.8389 225H82.7596C82.7596 223.836 85.7656 222.893 89.4757 222.893C93.1858 222.893 96.1918 223.836 96.1918 225H106.113C106.113 223.836 109.118 222.893 112.829 222.893C116.539 222.893 119.545 223.836 119.545 225H129.465C129.465 223.836 132.471 222.893 136.181 222.893C139.892 222.893 142.898 223.836 142.898 225H152.818C152.818 223.836 155.824 222.893 159.534 222.893C163.244 222.893 166.25 223.836 166.25 225H176.171C176.171 223.836 179.177 222.893 182.887 222.893C186.597 222.893 189.603 223.836 189.603 225H199.524C199.524 223.836 202.53 222.893 206.24 222.893C209.95 222.893 212.956 223.836 212.956 225H222.877C222.877 223.836 225.883 222.893 229.593 222.893C233.303 222.893 236.309 223.836 236.309 225H246.23C246.23 223.836 249.236 222.893 252.946 222.893C256.656 222.893 259.662 223.836 259.662 225H269.592C269.592 223.836 272.598 222.893 276.308 222.893C280.018 222.893 283.024 223.836 283.024 225H292.945C292.945 223.836 295.951 222.893 299.661 222.893C303.371 222.893 306.377 223.836 306.377 225H316.297C316.297 223.836 319.303 222.893 323.013 222.893C326.724 222.893 329.73 223.836 329.73 225H339.659C339.659 223.836 342.665 222.893 346.375 222.893C350.086 222.893 353.091 223.836 353.091 225H366.397C366.397 223.836 369.403 222.893 373.113 222.893C376.824 222.893 379.829 223.836 379.829 225H389.759C389.759 223.836 392.765 222.893 396.475 222.893C400.185 222.893 403.191 223.836 403.191 225H413.112C413.112 223.836 416.118 222.893 419.828 222.893C423.538 222.893 426.544 223.836 426.544 225H436.465C436.465 223.836 439.471 222.893 443.181 222.893C446.891 222.893 449.897 223.836 449.897 225H459.818C459.818 223.836 462.824 222.893 466.534 222.893C470.244 222.893 473.25 223.836 473.25 225H483.171C483.171 223.836 486.177 222.893 489.887 222.893C493.597 222.893 496.603 223.836 496.603 225H506.524C506.524 223.836 509.53 222.893 513.24 222.893C516.95 222.893 519.956 223.836 519.956 225H529.876C529.876 223.836 532.882 222.893 536.593 222.893C540.303 222.893 543.309 223.836 543.309 225H553.229C553.229 223.836 556.235 222.893 559.945 222.893C563.656 222.893 566.662 223.836 566.662 225H576.582C576.582 223.836 579.588 222.893 583.298 222.893C587.008 222.893 590.014 223.836 590.014 225H599.935C599.935 223.836 602.941 222.893 606.651 222.893C610.361 222.893 613.367 223.836 613.367 225H623.297C623.297 223.836 626.303 222.893 630.004 222.893C633.705 222.893 636.72 223.836 636.72 225H646.641C646.641 223.836 649.647 222.893 653.357 222.893C657.067 222.893 660.073 223.836 660.073 225H669.994C669.994 223.836 673 222.893 676.71 222.893C680.42 222.893 683.426 223.836 683.426 225H693.356C693.356 223.836 696.362 222.893 700.072 222.893C703.782 222.893 706.788 223.836 706.788 225H719.48V221.019C715.77 221.019 712.764 220.076 712.764 218.912C712.764 217.748 715.77 216.805 719.48 216.805V213.69C715.77 213.69 712.764 212.747 712.764 211.584C712.764 210.42 715.77 209.477 719.48 209.477V206.365C715.77 206.365 712.764 205.422 712.764 204.258C712.764 203.094 715.77 202.151 719.48 202.151V199.039C715.77 199.039 712.764 198.096 712.764 196.933C712.764 195.769 715.77 194.826 719.48 194.826V191.711C715.77 191.711 712.764 190.768 712.764 189.604C712.764 188.441 715.77 187.498 719.48 187.498V184.386C715.77 184.386 712.764 183.443 712.764 182.279C712.764 181.115 715.77 180.172 719.48 180.172V177.06C715.77 177.06 712.764 176.117 712.764 174.953C712.764 173.79 715.77 172.847 719.48 172.847V169.735C715.77 169.735 712.764 168.792 712.764 167.628C712.764 166.464 715.77 165.521 719.48 165.521V162.409C715.77 162.409 712.764 161.466 712.764 160.302C712.764 159.139 715.77 158.196 719.48 158.196V155.084C715.77 155.084 712.764 154.141 712.764 152.977C712.764 151.813 715.77 150.87 719.48 150.87V147.758C715.77 147.758 712.764 146.815 712.764 145.652C712.764 144.488 715.77 143.545 719.48 143.545V140.433C715.77 140.433 712.764 139.49 712.764 138.326C712.764 137.162 715.77 136.219 719.48 136.219V133.107C715.77 133.107 712.764 132.164 712.764 131.001C712.764 129.837 715.77 128.894 719.48 128.894V125.782C715.77 125.782 712.764 124.839 712.764 123.675C712.764 122.511 715.77 121.568 719.48 121.568V118.454C715.77 118.454 712.764 117.511 712.764 116.347C712.764 115.707 713.675 115.132 715.12 114.747H719.48V110.259H715.12C713.684 109.874 712.764 109.299 712.764 108.659C712.764 107.495 715.77 106.552 719.48 106.552V103.437C715.77 103.437 712.764 102.494 712.764 101.331C712.764 100.167 715.77 99.2238 719.48 99.2238V96.1118C715.77 96.1118 712.764 95.1689 712.764 94.0051C712.764 92.8413 715.77 91.8983 719.48 91.8983V88.7863C715.77 88.7863 712.764 87.8434 712.764 86.6796C712.764 85.5158 715.77 84.5729 719.48 84.5729V81.458C715.77 81.458 712.764 80.5151 712.764 79.3513C712.764 78.1875 715.77 77.2446 719.48 77.2446V74.1326C715.77 74.1326 712.764 73.1896 712.764 72.0258C712.764 70.862 715.77 69.9191 719.48 69.9191V66.8071C715.77 66.8071 712.764 65.8642 712.764 64.7003C712.764 63.5365 715.77 62.5936 719.48 62.5936V59.4816C715.77 59.4816 712.764 58.5387 712.764 57.3749C712.764 56.2111 715.77 55.2681 719.48 55.2681V52.1561C715.77 52.1561 712.764 51.2132 712.764 50.0494C712.764 48.8856 715.77 47.9426 719.48 47.9426V44.8307C715.77 44.8307 712.764 43.8877 712.764 42.7239C712.764 41.5601 715.77 40.6172 719.48 40.6172V37.5052C715.77 37.5052 712.764 36.5623 712.764 35.3984C712.764 34.2346 715.77 33.2917 719.48 33.2917V30.1797C715.77 30.1797 712.764 29.2368 712.764 28.073C712.764 26.9092 715.77 25.9662 719.48 25.9662V22.8542C715.77 22.8542 712.764 21.9113 712.764 20.7475C712.764 19.5837 715.77 18.6407 719.48 18.6407V15.5288C715.77 15.5288 712.764 14.5858 712.764 13.422C712.764 12.2582 715.77 11.3153 719.48 11.3153V8.20045C715.77 8.20045 712.764 7.25752 712.764 6.09371C712.764 4.9299 715.77 3.98696 719.48 3.98696L719.543 3.9813Z" fill="#662809"/>
<path d="M1399 3.9813V0H1386.31C1386.31 1.16381 1383.3 2.10675 1379.59 2.10675C1375.88 2.10675 1372.88 1.16381 1372.88 0H1362.95C1362.95 1.16381 1359.94 2.10675 1356.23 2.10675C1352.52 2.10675 1349.51 1.16381 1349.51 0H1339.59C1339.59 1.16381 1336.59 2.10675 1332.88 2.10675C1329.17 2.10675 1326.16 1.16381 1326.16 0H1316.24C1316.24 1.16381 1313.23 2.10675 1309.52 2.10675C1305.81 2.10675 1302.82 1.16381 1302.82 0H1292.89C1292.89 1.16381 1289.88 2.10675 1286.17 2.10675C1282.46 2.10675 1279.46 1.16381 1279.46 0H1269.53C1269.53 1.16381 1266.53 2.10675 1262.82 2.10675C1259.11 2.10675 1256.1 1.16381 1256.1 0H1246.18C1246.18 1.16381 1243.18 2.10675 1239.47 2.10675C1235.76 2.10675 1232.75 1.16381 1232.75 0H1222.83C1222.83 1.16381 1219.82 2.10675 1216.11 2.10675C1212.4 2.10675 1209.4 1.16381 1209.4 0H1199.48C1199.48 1.16381 1196.47 2.10675 1192.76 2.10675C1189.05 2.10675 1186.04 1.16381 1186.04 0H1176.12C1176.12 1.16381 1173.12 2.10675 1169.41 2.10675C1165.7 2.10675 1162.69 1.16381 1162.69 0H1152.77C1152.77 1.16381 1149.76 2.10675 1146.05 2.10675C1142.34 2.10675 1139.34 1.16381 1139.34 0H1129.42C1129.42 1.16381 1126.41 2.10675 1122.7 2.10675C1118.99 2.10675 1115.99 1.16381 1115.99 0H1106.06C1106.06 1.16381 1103.06 2.10675 1099.35 2.10675C1095.64 2.10675 1092.63 1.16381 1092.63 0H1082.71C1082.71 1.16381 1079.71 2.10675 1076 2.10675C1072.29 2.10675 1069.28 1.16381 1069.28 0H1059.35C1059.35 1.16381 1056.34 2.10675 1052.63 2.10675C1048.92 2.10675 1045.92 1.16381 1045.92 0H1032.61C1032.61 1.16381 1029.61 2.10675 1025.9 2.10675C1022.19 2.10675 1019.18 1.16381 1019.18 0H1009.25C1009.25 1.16381 1006.24 2.10675 1002.53 2.10675C998.824 2.10675 995.818 1.16381 995.818 0H985.897C985.897 1.16381 982.891 2.10675 979.181 2.10675C975.471 2.10675 972.465 1.16381 972.465 0H962.544C962.544 1.16381 959.538 2.10675 955.828 2.10675C952.118 2.10675 949.112 1.16381 949.112 0H939.182C939.182 1.16381 936.176 2.10675 932.466 2.10675C928.756 2.10675 925.75 1.16381 925.75 0H915.83C915.83 1.16381 912.824 2.10675 909.113 2.10675C905.403 2.10675 902.397 1.16381 902.397 0H892.477C892.477 1.16381 889.471 2.10675 885.761 2.10675C882.05 2.10675 879.044 1.16381 879.044 0H869.124C869.124 1.16381 866.118 2.10675 862.408 2.10675C858.698 2.10675 855.692 1.16381 855.692 0H845.771C845.771 1.16381 842.765 2.10675 839.055 2.10675C835.345 2.10675 832.339 1.16381 832.339 0H822.418C822.418 1.16381 819.412 2.10675 815.702 2.10675C811.992 2.10675 808.986 1.16381 808.986 0H799.065C799.065 1.16381 796.059 2.10675 792.349 2.10675C788.639 2.10675 785.633 1.16381 785.633 0H775.712C775.712 1.16381 772.706 2.10675 768.996 2.10675C765.286 2.10675 762.28 1.16381 762.28 0H752.359C752.359 1.16381 749.353 2.10675 745.643 2.10675C741.933 2.10675 738.927 1.16381 738.927 0H729.007C729.007 1.16381 726.001 2.10675 722.29 2.10675C718.58 2.10675 715.574 1.16381 715.574 0H705.645C705.645 1.16381 702.639 2.10675 698.929 2.10675C695.218 2.10675 692.212 1.16381 692.212 0H679.457V3.9813C683.167 3.9813 686.173 4.92424 686.173 6.08805C686.173 7.25185 683.167 8.19479 679.457 8.19479V11.3096C683.167 11.3096 686.173 12.2525 686.173 13.4164C686.173 14.5802 683.167 15.5231 679.457 15.5231V18.6379C683.167 18.6379 686.173 19.5809 686.173 20.7447C686.173 21.9085 683.167 22.8514 679.457 22.8514V25.9634C683.167 25.9634 686.173 26.9063 686.173 28.0701C686.173 29.2339 683.167 30.1769 679.457 30.1769V33.2889C683.167 33.2889 686.173 34.2318 686.173 35.3956C686.173 36.5594 683.167 37.5024 679.457 37.5024V40.6143C683.167 40.6143 686.173 41.5573 686.173 42.7211C686.173 43.8849 683.167 44.8278 679.457 44.8278V47.9398C683.167 47.9398 686.173 48.8828 686.173 50.0466C686.173 51.2104 683.167 52.1533 679.457 52.1533V55.2653C683.167 55.2653 686.173 56.2082 686.173 57.372C686.173 58.5358 683.167 59.4788 679.457 59.4788V62.5908C683.167 62.5908 686.173 63.5337 686.173 64.6975C686.173 65.8613 683.167 66.8043 679.457 66.8043V69.9162C683.167 69.9162 686.173 70.8592 686.173 72.023C686.173 73.1868 683.167 74.1297 679.457 74.1297V77.2417C683.167 77.2417 686.173 78.1847 686.173 79.3485C686.173 80.5123 683.167 81.4552 679.457 81.4552V84.57C683.167 84.57 686.173 85.513 686.173 86.6768C686.173 87.8406 683.167 88.7835 679.457 88.7835V91.8955C683.167 91.8955 686.173 92.8384 686.173 94.0022C686.173 95.1661 683.167 96.109 679.457 96.109V99.221C683.167 99.221 686.173 100.164 686.173 101.328C686.173 102.492 683.167 103.434 679.457 103.434V106.549C683.167 106.549 686.173 107.492 686.173 108.656C686.173 109.296 685.262 109.868 683.817 110.256H679.457V114.744H683.817C685.253 115.129 686.173 115.704 686.173 116.344C686.173 117.508 683.167 118.451 679.457 118.451V121.566C683.167 121.566 686.173 122.508 686.173 123.672C686.173 124.836 683.167 125.779 679.457 125.779V128.894C683.167 128.894 686.173 129.837 686.173 131.001C686.173 132.164 683.167 133.107 679.457 133.107V136.219C683.167 136.219 686.173 137.162 686.173 138.326C686.173 139.49 683.167 140.433 679.457 140.433V143.545C683.167 143.545 686.173 144.488 686.173 145.652C686.173 146.815 683.167 147.758 679.457 147.758V150.87C683.167 150.87 686.173 151.813 686.173 152.977C686.173 154.141 683.167 155.084 679.457 155.084V158.196C683.167 158.196 686.173 159.139 686.173 160.302C686.173 161.466 683.167 162.409 679.457 162.409V165.521C683.167 165.521 686.173 166.464 686.173 167.628C686.173 168.792 683.167 169.735 679.457 169.735V172.847C683.167 172.847 686.173 173.79 686.173 174.953C686.173 176.117 683.167 177.06 679.457 177.06V180.172C683.167 180.172 686.173 181.115 686.173 182.279C686.173 183.443 683.167 184.386 679.457 184.386V187.498C683.167 187.498 686.173 188.441 686.173 189.604C686.173 190.768 683.167 191.711 679.457 191.711V194.826C683.167 194.826 686.173 195.769 686.173 196.933C686.173 198.096 683.167 199.039 679.457 199.039V202.151C683.167 202.151 686.173 203.094 686.173 204.258C686.173 205.422 683.167 206.365 679.457 206.365V209.477C683.167 209.477 686.173 210.42 686.173 211.584C686.173 212.747 683.167 213.69 679.457 213.69V216.805C683.167 216.805 686.173 217.748 686.173 218.912C686.173 220.076 683.167 221.019 679.457 221.019V225H692.149C692.149 223.836 695.155 222.893 698.865 222.893C702.575 222.893 705.581 223.836 705.581 225H715.511C715.511 223.836 718.517 222.893 722.227 222.893C725.937 222.893 728.943 223.836 728.943 225H738.864C738.864 223.836 741.87 222.893 745.58 222.893C749.29 222.893 752.296 223.836 752.296 225H762.217C762.217 223.836 765.223 222.893 768.933 222.893C772.643 222.893 775.649 223.836 775.649 225H785.57C785.57 223.836 788.576 222.893 792.286 222.893C795.996 222.893 799.002 223.836 799.002 225H808.923C808.923 223.836 811.929 222.893 815.639 222.893C819.349 222.893 822.355 223.836 822.355 225H832.276C832.276 223.836 835.282 222.893 838.992 222.893C842.702 222.893 845.708 223.836 845.708 225H855.628C855.628 223.836 858.634 222.893 862.345 222.893C866.055 222.893 869.061 223.836 869.061 225H878.981C878.981 223.836 881.987 222.893 885.697 222.893C889.407 222.893 892.413 223.836 892.413 225H902.334C902.334 223.836 905.34 222.893 909.05 222.893C912.76 222.893 915.766 223.836 915.766 225H925.687C925.687 223.836 928.693 222.893 932.403 222.893C936.113 222.893 939.119 223.836 939.119 225H949.049C949.049 223.836 952.055 222.893 955.765 222.893C959.475 222.893 962.481 223.836 962.481 225H972.402C972.402 223.836 975.408 222.893 979.118 222.893C982.828 222.893 985.834 223.836 985.834 225H995.755C995.755 223.836 998.761 222.893 1002.47 222.893C1006.18 222.893 1009.19 223.836 1009.19 225H1019.12C1019.12 223.836 1022.12 222.893 1025.83 222.893C1029.54 222.893 1032.55 223.836 1032.55 225H1045.85C1045.85 223.836 1048.86 222.893 1052.57 222.893C1056.28 222.893 1059.29 223.836 1059.29 225H1069.22C1069.22 223.836 1072.22 222.893 1075.93 222.893C1079.64 222.893 1082.65 223.836 1082.65 225H1092.57C1092.57 223.836 1095.58 222.893 1099.29 222.893C1103 222.893 1106 223.836 1106 225H1115.92C1115.92 223.836 1118.93 222.893 1122.64 222.893C1126.35 222.893 1129.35 223.836 1129.35 225H1139.28C1139.28 223.836 1142.28 222.893 1145.99 222.893C1149.7 222.893 1152.71 223.836 1152.71 225H1162.63C1162.63 223.836 1165.63 222.893 1169.34 222.893C1173.05 222.893 1176.06 223.836 1176.06 225H1185.98C1185.98 223.836 1188.99 222.893 1192.7 222.893C1196.41 222.893 1199.41 223.836 1199.41 225H1209.33C1209.33 223.836 1212.34 222.893 1216.05 222.893C1219.76 222.893 1222.77 223.836 1222.77 225H1232.69C1232.69 223.836 1235.69 222.893 1239.4 222.893C1243.11 222.893 1246.12 223.836 1246.12 225H1256.04C1256.04 223.836 1259.05 222.893 1262.76 222.893C1266.47 222.893 1269.47 223.836 1269.47 225H1279.39C1279.39 223.836 1282.4 222.893 1286.11 222.893C1289.82 222.893 1292.82 223.836 1292.82 225H1302.75C1302.75 223.836 1305.76 222.893 1309.46 222.893C1313.16 222.893 1316.18 223.836 1316.18 225H1326.1C1326.1 223.836 1329.1 222.893 1332.81 222.893C1336.52 222.893 1339.53 223.836 1339.53 225H1349.45C1349.45 223.836 1352.46 222.893 1356.17 222.893C1359.88 222.893 1362.88 223.836 1362.88 225H1372.81C1372.81 223.836 1375.82 222.893 1379.53 222.893C1383.24 222.893 1386.25 223.836 1386.25 225H1398.94V221.019C1395.23 221.019 1392.22 220.076 1392.22 218.912C1392.22 217.748 1395.23 216.805 1398.94 216.805V213.69C1395.23 213.69 1392.22 212.747 1392.22 211.584C1392.22 210.42 1395.23 209.477 1398.94 209.477V206.365C1395.23 206.365 1392.22 205.422 1392.22 204.258C1392.22 203.094 1395.23 202.151 1398.94 202.151V199.039C1395.23 199.039 1392.22 198.096 1392.22 196.933C1392.22 195.769 1395.23 194.826 1398.94 194.826V191.711C1395.23 191.711 1392.22 190.768 1392.22 189.604C1392.22 188.441 1395.23 187.498 1398.94 187.498V184.386C1395.23 184.386 1392.22 183.443 1392.22 182.279C1392.22 181.115 1395.23 180.172 1398.94 180.172V177.06C1395.23 177.06 1392.22 176.117 1392.22 174.953C1392.22 173.79 1395.23 172.847 1398.94 172.847V169.735C1395.23 169.735 1392.22 168.792 1392.22 167.628C1392.22 166.464 1395.23 165.521 1398.94 165.521V162.409C1395.23 162.409 1392.22 161.466 1392.22 160.302C1392.22 159.139 1395.23 158.196 1398.94 158.196V155.084C1395.23 155.084 1392.22 154.141 1392.22 152.977C1392.22 151.813 1395.23 150.87 1398.94 150.87V147.758C1395.23 147.758 1392.22 146.815 1392.22 145.652C1392.22 144.488 1395.23 143.545 1398.94 143.545V140.433C1395.23 140.433 1392.22 139.49 1392.22 138.326C1392.22 137.162 1395.23 136.219 1398.94 136.219V133.107C1395.23 133.107 1392.22 132.164 1392.22 131.001C1392.22 129.837 1395.23 128.894 1398.94 128.894V125.782C1395.23 125.782 1392.22 124.839 1392.22 123.675C1392.22 122.511 1395.23 121.568 1398.94 121.568V118.454C1395.23 118.454 1392.22 117.511 1392.22 116.347C1392.22 115.707 1393.13 115.132 1394.58 114.747H1398.94V110.259H1394.58C1393.14 109.874 1392.22 109.299 1392.22 108.659C1392.22 107.495 1395.23 106.552 1398.94 106.552V103.437C1395.23 103.437 1392.22 102.494 1392.22 101.331C1392.22 100.167 1395.23 99.2238 1398.94 99.2238V96.1118C1395.23 96.1118 1392.22 95.1689 1392.22 94.0051C1392.22 92.8413 1395.23 91.8983 1398.94 91.8983V88.7863C1395.23 88.7863 1392.22 87.8434 1392.22 86.6796C1392.22 85.5158 1395.23 84.5729 1398.94 84.5729V81.458C1395.23 81.458 1392.22 80.5151 1392.22 79.3513C1392.22 78.1875 1395.23 77.2446 1398.94 77.2446V74.1326C1395.23 74.1326 1392.22 73.1896 1392.22 72.0258C1392.22 70.862 1395.23 69.9191 1398.94 69.9191V66.8071C1395.23 66.8071 1392.22 65.8642 1392.22 64.7003C1392.22 63.5365 1395.23 62.5936 1398.94 62.5936V59.4816C1395.23 59.4816 1392.22 58.5387 1392.22 57.3749C1392.22 56.2111 1395.23 55.2681 1398.94 55.2681V52.1561C1395.23 52.1561 1392.22 51.2132 1392.22 50.0494C1392.22 48.8856 1395.23 47.9426 1398.94 47.9426V44.8307C1395.23 44.8307 1392.22 43.8877 1392.22 42.7239C1392.22 41.5601 1395.23 40.6172 1398.94 40.6172V37.5052C1395.23 37.5052 1392.22 36.5623 1392.22 35.3984C1392.22 34.2346 1395.23 33.2917 1398.94 33.2917V30.1797C1395.23 30.1797 1392.22 29.2368 1392.22 28.073C1392.22 26.9092 1395.23 25.9662 1398.94 25.9662V22.8542C1395.23 22.8542 1392.22 21.9113 1392.22 20.7475C1392.22 19.5837 1395.23 18.6407 1398.94 18.6407V15.5288C1395.23 15.5288 1392.22 14.5858 1392.22 13.422C1392.22 12.2582 1395.23 11.3153 1398.94 11.3153V8.20045C1395.23 8.20045 1392.22 7.25752 1392.22 6.09371C1392.22 4.9299 1395.23 3.98696 1398.94 3.98696L1399 3.9813Z" fill="#662809"/>
</svg>
