<svg width="929" height="313" viewBox="0 0 929 313" fill="none" xmlns="http://www.w3.org/2000/svg">
<path d="M477.809 5.53843V0H469.381C469.381 1.61899 467.385 2.93072 464.922 2.93072C462.458 2.93072 460.462 1.61899 460.462 0H453.868C453.868 1.61899 451.872 2.93072 449.408 2.93072C446.945 2.93072 444.948 1.61899 444.948 0H438.361C438.361 1.61899 436.365 2.93072 433.901 2.93072C431.437 2.93072 429.441 1.61899 429.441 0H422.853C422.853 1.61899 420.857 2.93072 418.393 2.93072C415.93 2.93072 413.94 1.61899 413.94 0H407.346C407.346 1.61899 405.35 2.93072 402.886 2.93072C400.422 2.93072 398.426 1.61899 398.426 0H391.839C391.839 1.61899 389.842 2.93072 387.379 2.93072C384.915 2.93072 382.919 1.61899 382.919 0H376.331C376.331 1.61899 374.335 2.93072 371.871 2.93072C369.408 2.93072 367.412 1.61899 367.412 0H360.824C360.824 1.61899 358.828 2.93072 356.364 2.93072C353.9 2.93072 351.904 1.61899 351.904 0H345.316C345.316 1.61899 343.32 2.93072 340.857 2.93072C338.393 2.93072 336.397 1.61899 336.397 0H329.809C329.809 1.61899 327.813 2.93072 325.349 2.93072C322.886 2.93072 320.889 1.61899 320.889 0H314.302C314.302 1.61899 312.306 2.93072 309.842 2.93072C307.378 2.93072 305.382 1.61899 305.382 0H298.794C298.794 1.61899 296.798 2.93072 294.334 2.93072C291.871 2.93072 289.875 1.61899 289.875 0H283.287C283.287 1.61899 281.291 2.93072 278.827 2.93072C276.363 2.93072 274.367 1.61899 274.367 0H267.78C267.78 1.61899 265.783 2.93072 263.32 2.93072C260.856 2.93072 258.86 1.61899 258.86 0H252.266C252.266 1.61899 250.27 2.93072 247.806 2.93072C245.343 2.93072 243.347 1.61899 243.347 0H234.511C234.511 1.61899 232.515 2.93072 230.051 2.93072C227.587 2.93072 225.591 1.61899 225.591 0H218.998C218.998 1.61899 217.001 2.93072 214.538 2.93072C212.074 2.93072 210.078 1.61899 210.078 0H203.49C203.49 1.61899 201.494 2.93072 199.03 2.93072C196.567 2.93072 194.571 1.61899 194.571 0H187.983C187.983 1.61899 185.987 2.93072 183.523 2.93072C181.059 2.93072 179.063 1.61899 179.063 0H172.469C172.469 1.61899 170.473 2.93072 168.01 2.93072C165.546 2.93072 163.55 1.61899 163.55 0H156.962C156.962 1.61899 154.966 2.93072 152.502 2.93072C150.039 2.93072 148.042 1.61899 148.042 0H141.455C141.455 1.61899 139.459 2.93072 136.995 2.93072C134.531 2.93072 132.535 1.61899 132.535 0H125.947C125.947 1.61899 123.951 2.93072 121.487 2.93072C119.024 2.93072 117.028 1.61899 117.028 0H110.44C110.44 1.61899 108.444 2.93072 105.98 2.93072C103.516 2.93072 101.52 1.61899 101.52 0H94.9325C94.9325 1.61899 92.9364 2.93072 90.4727 2.93072C88.009 2.93072 86.0129 1.61899 86.0129 0H79.4251C79.4251 1.61899 77.429 2.93072 74.9653 2.93072C72.5016 2.93072 70.5055 1.61899 70.5055 0H63.9177C63.9177 1.61899 61.9216 2.93072 59.4579 2.93072C56.9943 2.93072 54.9981 1.61899 54.9981 0H48.4104C48.4104 1.61899 46.4142 2.93072 43.9506 2.93072C41.4869 2.93072 39.4908 1.61899 39.4908 0H32.903C32.903 1.61899 30.9069 2.93072 28.4432 2.93072C25.9795 2.93072 23.9834 1.61899 23.9834 0H17.3896C17.3896 1.61899 15.3935 2.93072 12.9298 2.93072C10.4661 2.93072 8.47001 1.61899 8.47001 0H0V5.53843C2.46368 5.53843 4.45979 6.85016 4.45979 8.46915C4.45979 10.0881 2.46368 11.3999 0 11.3999V15.7329C2.46368 15.7329 4.45979 17.0447 4.45979 18.6636C4.45979 20.2826 2.46368 21.5944 0 21.5944V25.9274C2.46368 25.9274 4.45979 27.2391 4.45979 28.8581C4.45979 30.4771 2.46368 31.7888 0 31.7888V36.118C2.46368 36.118 4.45979 37.4297 4.45979 39.0487C4.45979 40.6677 2.46368 41.9794 0 41.9794V46.3085C2.46368 46.3085 4.45979 47.6202 4.45979 49.2392C4.45979 50.8582 2.46368 52.1699 0 52.1699V56.4991C2.46368 56.4991 4.45979 57.8108 4.45979 59.4298C4.45979 61.0488 2.46368 62.3605 0 62.3605V66.6896C2.46368 66.6896 4.45979 68.0013 4.45979 69.6203C4.45979 71.2393 2.46368 72.551 0 72.551V76.8802C2.46368 76.8802 4.45979 78.1919 4.45979 79.8109C4.45979 81.4299 2.46368 82.7416 0 82.7416V87.0707C2.46368 87.0707 4.45979 88.3824 4.45979 90.0014C4.45979 91.6204 2.46368 92.9322 0 92.9322V97.2613C2.46368 97.2613 4.45979 98.573 4.45979 100.192C4.45979 101.811 2.46368 103.123 0 103.123V107.452C2.46368 107.452 4.45979 108.764 4.45979 110.383C4.45979 112.002 2.46368 113.313 0 113.313V117.646C2.46368 117.646 4.45979 118.958 4.45979 120.577C4.45979 122.196 2.46368 123.508 0 123.508V127.837C2.46368 127.837 4.45979 129.149 4.45979 130.768C4.45979 132.387 2.46368 133.698 0 133.698V138.027C2.46368 138.027 4.45979 139.339 4.45979 140.958C4.45979 142.577 2.46368 143.889 0 143.889V148.222C2.46368 148.222 4.45979 149.534 4.45979 151.153C4.45979 152.043 3.85437 152.839 2.89527 153.378H0V159.622H2.89527C3.84837 160.157 4.45979 160.957 4.45979 161.847C4.45979 163.466 2.46368 164.778 0 164.778V169.111C2.46368 169.111 4.45979 170.423 4.45979 172.042C4.45979 173.661 2.46368 174.973 0 174.973V179.306C2.46368 179.306 4.45979 180.617 4.45979 182.236C4.45979 183.855 2.46368 185.167 0 185.167V189.496C2.46368 189.496 4.45979 190.808 4.45979 192.427C4.45979 194.046 2.46368 195.358 0 195.358V199.687C2.46368 199.687 4.45979 200.998 4.45979 202.617C4.45979 204.236 2.46368 205.548 0 205.548V209.877C2.46368 209.877 4.45979 211.189 4.45979 212.808C4.45979 214.427 2.46368 215.739 0 215.739V220.068C2.46368 220.068 4.45979 221.38 4.45979 222.999C4.45979 224.618 2.46368 225.929 0 225.929V230.258C2.46368 230.258 4.45979 231.57 4.45979 233.189C4.45979 234.808 2.46368 236.12 0 236.12V240.449C2.46368 240.449 4.45979 241.761 4.45979 243.38C4.45979 244.999 2.46368 246.31 0 246.31V250.64C2.46368 250.64 4.45979 251.951 4.45979 253.57C4.45979 255.189 2.46368 256.501 0 256.501V260.83C2.46368 260.83 4.45979 262.142 4.45979 263.761C4.45979 265.38 2.46368 266.691 0 266.691V271.025C2.46368 271.025 4.45979 272.336 4.45979 273.955C4.45979 275.574 2.46368 276.886 0 276.886V281.215C2.46368 281.215 4.45979 282.527 4.45979 284.146C4.45979 285.765 2.46368 287.077 0 287.077V291.406C2.46368 291.406 4.45979 292.717 4.45979 294.336C4.45979 295.955 2.46368 297.267 0 297.267V301.6C2.46368 301.6 4.45979 302.912 4.45979 304.531C4.45979 306.15 2.46368 307.462 0 307.462V313H8.42805C8.42805 311.381 10.4242 310.069 12.8878 310.069C15.3515 310.069 17.3476 311.381 17.3476 313H23.9414C23.9414 311.381 25.9375 310.069 28.4012 310.069C30.8649 310.069 32.861 311.381 32.861 313H39.4488C39.4488 311.381 41.4449 310.069 43.9086 310.069C46.3723 310.069 48.3684 311.381 48.3684 313H54.9562C54.9562 311.381 56.9523 310.069 59.416 310.069C61.8797 310.069 63.8758 311.381 63.8758 313H70.4636C70.4636 311.381 72.4597 310.069 74.9234 310.069C77.387 310.069 79.3831 311.381 79.3831 313H85.9709C85.9709 311.381 87.9671 310.069 90.4307 310.069C92.8944 310.069 94.8905 311.381 94.8905 313H101.478C101.478 311.381 103.474 310.069 105.938 310.069C108.402 310.069 110.398 311.381 110.398 313H116.986C116.986 311.381 118.982 310.069 121.445 310.069C123.909 310.069 125.905 311.381 125.905 313H132.493C132.493 311.381 134.489 310.069 136.953 310.069C139.417 310.069 141.413 311.381 141.413 313H148C148 311.381 149.997 310.069 152.46 310.069C154.924 310.069 156.92 311.381 156.92 313H163.508C163.508 311.381 165.504 310.069 167.968 310.069C170.431 310.069 172.427 311.381 172.427 313H179.021C179.021 311.381 181.017 310.069 183.481 310.069C185.945 310.069 187.941 311.381 187.941 313H194.529C194.529 311.381 196.525 310.069 198.988 310.069C201.452 310.069 203.448 311.381 203.448 313H210.036C210.036 311.381 212.032 310.069 214.496 310.069C216.959 310.069 218.956 311.381 218.956 313H225.549C225.549 311.381 227.545 310.069 230.009 310.069C232.473 310.069 234.469 311.381 234.469 313H243.305C243.305 311.381 245.301 310.069 247.764 310.069C250.228 310.069 252.224 311.381 252.224 313H258.818C258.818 311.381 260.814 310.069 263.278 310.069C265.741 310.069 267.738 311.381 267.738 313H274.325C274.325 311.381 276.321 310.069 278.785 310.069C281.249 310.069 283.245 311.381 283.245 313H289.833C289.833 311.381 291.829 310.069 294.293 310.069C296.756 310.069 298.752 311.381 298.752 313H305.34C305.34 311.381 307.336 310.069 309.8 310.069C312.264 310.069 314.26 311.381 314.26 313H320.847C320.847 311.381 322.844 310.069 325.307 310.069C327.771 310.069 329.767 311.381 329.767 313H336.355C336.355 311.381 338.351 310.069 340.815 310.069C343.278 310.069 345.274 311.381 345.274 313H351.862C351.862 311.381 353.858 310.069 356.322 310.069C358.786 310.069 360.782 311.381 360.782 313H367.37C367.37 311.381 369.366 310.069 371.829 310.069C374.293 310.069 376.289 311.381 376.289 313H382.877C382.877 311.381 384.873 310.069 387.337 310.069C389.8 310.069 391.797 311.381 391.797 313H398.384C398.384 311.381 400.38 310.069 402.844 310.069C405.308 310.069 407.304 311.381 407.304 313H413.898C413.898 311.381 415.894 310.069 418.352 310.069C420.809 310.069 422.811 311.381 422.811 313H429.399C429.399 311.381 431.395 310.069 433.859 310.069C436.323 310.069 438.319 311.381 438.319 313H444.907C444.907 311.381 446.903 310.069 449.366 310.069C451.83 310.069 453.826 311.381 453.826 313H460.42C460.42 311.381 462.416 310.069 464.88 310.069C467.343 310.069 469.339 311.381 469.339 313H477.768V307.462C475.304 307.462 473.308 306.15 473.308 304.531C473.308 302.912 475.304 301.6 477.768 301.6V297.267C475.304 297.267 473.308 295.955 473.308 294.336C473.308 292.717 475.304 291.406 477.768 291.406V287.077C475.304 287.077 473.308 285.765 473.308 284.146C473.308 282.527 475.304 281.215 477.768 281.215V276.886C475.304 276.886 473.308 275.574 473.308 273.955C473.308 272.336 475.304 271.025 477.768 271.025V266.691C475.304 266.691 473.308 265.38 473.308 263.761C473.308 262.142 475.304 260.83 477.768 260.83V256.501C475.304 256.501 473.308 255.189 473.308 253.57C473.308 251.951 475.304 250.64 477.768 250.64V246.31C475.304 246.31 473.308 244.999 473.308 243.38C473.308 241.761 475.304 240.449 477.768 240.449V236.12C475.304 236.12 473.308 234.808 473.308 233.189C473.308 231.57 475.304 230.258 477.768 230.258V225.929C475.304 225.929 473.308 224.618 473.308 222.999C473.308 221.38 475.304 220.068 477.768 220.068V215.739C475.304 215.739 473.308 214.427 473.308 212.808C473.308 211.189 475.304 209.877 477.768 209.877V205.548C475.304 205.548 473.308 204.236 473.308 202.617C473.308 200.998 475.304 199.687 477.768 199.687V195.358C475.304 195.358 473.308 194.046 473.308 192.427C473.308 190.808 475.304 189.496 477.768 189.496V185.167C475.304 185.167 473.308 183.855 473.308 182.236C473.308 180.617 475.304 179.306 477.768 179.306V174.977C475.304 174.977 473.308 173.665 473.308 172.046C473.308 170.427 475.304 169.115 477.768 169.115V164.782C475.304 164.782 473.308 163.47 473.308 161.851C473.308 160.961 473.913 160.161 474.872 159.626H477.768V153.382H474.872C473.919 152.846 473.308 152.047 473.308 151.157C473.308 149.538 475.304 148.226 477.768 148.226V143.893C475.304 143.893 473.308 142.581 473.308 140.962C473.308 139.343 475.304 138.031 477.768 138.031V133.702C475.304 133.702 473.308 132.391 473.308 130.772C473.308 129.153 475.304 127.841 477.768 127.841V123.512C475.304 123.512 473.308 122.2 473.308 120.581C473.308 118.962 475.304 117.65 477.768 117.65V113.317C475.304 113.317 473.308 112.005 473.308 110.386C473.308 108.767 475.304 107.456 477.768 107.456V103.127C475.304 103.127 473.308 101.815 473.308 100.196C473.308 98.5769 475.304 97.2652 477.768 97.2652V92.9361C475.304 92.9361 473.308 91.6244 473.308 90.0054C473.308 88.3864 475.304 87.0747 477.768 87.0747V82.7455C475.304 82.7455 473.308 81.4338 473.308 79.8148C473.308 78.1958 475.304 76.8841 477.768 76.8841V72.555C475.304 72.555 473.308 71.2433 473.308 69.6243C473.308 68.0053 475.304 66.6936 477.768 66.6936V62.3644C475.304 62.3644 473.308 61.0527 473.308 59.4337C473.308 57.8147 475.304 56.503 477.768 56.503V52.1739C475.304 52.1739 473.308 50.8622 473.308 49.2432C473.308 47.6242 475.304 46.3124 477.768 46.3124V41.9833C475.304 41.9833 473.308 40.6716 473.308 39.0526C473.308 37.4336 475.304 36.1219 477.768 36.1219V31.7928C475.304 31.7928 473.308 30.4811 473.308 28.8621C473.308 27.2431 475.304 25.9313 477.768 25.9313V21.6022C475.304 21.6022 473.308 20.2905 473.308 18.6715C473.308 17.0525 475.304 15.7408 477.768 15.7408V11.4077C475.304 11.4077 473.308 10.096 473.308 8.47703C473.308 6.85804 475.304 5.54631 477.768 5.54631L477.809 5.53843Z" fill="#662809"/>
<path d="M929 5.53843V0H920.572C920.572 1.61899 918.576 2.93072 916.112 2.93072C913.649 2.93072 911.652 1.61899 911.652 0H905.059C905.059 1.61899 903.063 2.93072 900.599 2.93072C898.135 2.93072 896.139 1.61899 896.139 0H889.551C889.551 1.61899 887.555 2.93072 885.092 2.93072C882.628 2.93072 880.632 1.61899 880.632 0H874.044C874.044 1.61899 872.048 2.93072 869.584 2.93072C867.12 2.93072 865.13 1.61899 865.13 0H858.537C858.537 1.61899 856.54 2.93072 854.077 2.93072C851.613 2.93072 849.617 1.61899 849.617 0H843.029C843.029 1.61899 841.033 2.93072 838.569 2.93072C836.106 2.93072 834.11 1.61899 834.11 0H827.522C827.522 1.61899 825.526 2.93072 823.062 2.93072C820.598 2.93072 818.602 1.61899 818.602 0H812.014C812.014 1.61899 810.018 2.93072 807.555 2.93072C805.091 2.93072 803.095 1.61899 803.095 0H796.507C796.507 1.61899 794.511 2.93072 792.047 2.93072C789.584 2.93072 787.587 1.61899 787.587 0H781C781 1.61899 779.004 2.93072 776.54 2.93072C774.076 2.93072 772.08 1.61899 772.08 0H765.492C765.492 1.61899 763.496 2.93072 761.033 2.93072C758.569 2.93072 756.573 1.61899 756.573 0H749.985C749.985 1.61899 747.989 2.93072 745.525 2.93072C743.061 2.93072 741.065 1.61899 741.065 0H734.478C734.478 1.61899 732.481 2.93072 730.018 2.93072C727.554 2.93072 725.558 1.61899 725.558 0H718.97C718.97 1.61899 716.974 2.93072 714.51 2.93072C712.047 2.93072 710.051 1.61899 710.051 0H703.457C703.457 1.61899 701.461 2.93072 698.997 2.93072C696.533 2.93072 694.537 1.61899 694.537 0H685.702C685.702 1.61899 683.705 2.93072 681.242 2.93072C678.778 2.93072 676.782 1.61899 676.782 0H670.188C670.188 1.61899 668.192 2.93072 665.728 2.93072C663.265 2.93072 661.269 1.61899 661.269 0H654.681C654.681 1.61899 652.685 2.93072 650.221 2.93072C647.757 2.93072 645.761 1.61899 645.761 0H639.173C639.173 1.61899 637.177 2.93072 634.714 2.93072C632.25 2.93072 630.254 1.61899 630.254 0H623.66C623.66 1.61899 621.664 2.93072 619.2 2.93072C616.737 2.93072 614.74 1.61899 614.74 0H608.153C608.153 1.61899 606.157 2.93072 603.693 2.93072C601.229 2.93072 599.233 1.61899 599.233 0H592.645C592.645 1.61899 590.649 2.93072 588.185 2.93072C585.722 2.93072 583.726 1.61899 583.726 0H577.138C577.138 1.61899 575.142 2.93072 572.678 2.93072C570.214 2.93072 568.218 1.61899 568.218 0H561.631C561.631 1.61899 559.634 2.93072 557.171 2.93072C554.707 2.93072 552.711 1.61899 552.711 0H546.123C546.123 1.61899 544.127 2.93072 541.663 2.93072C539.2 2.93072 537.204 1.61899 537.204 0H530.616C530.616 1.61899 528.62 2.93072 526.156 2.93072C523.692 2.93072 521.696 1.61899 521.696 0H515.108C515.108 1.61899 513.112 2.93072 510.649 2.93072C508.185 2.93072 506.189 1.61899 506.189 0H499.601C499.601 1.61899 497.605 2.93072 495.141 2.93072C492.678 2.93072 490.681 1.61899 490.681 0H484.094C484.094 1.61899 482.098 2.93072 479.634 2.93072C477.17 2.93072 475.174 1.61899 475.174 0H468.58C468.58 1.61899 466.584 2.93072 464.12 2.93072C461.657 2.93072 459.661 1.61899 459.661 0H451.191V5.53843C453.654 5.53843 455.65 6.85016 455.65 8.46915C455.65 10.0881 453.654 11.3999 451.191 11.3999V15.7329C453.654 15.7329 455.65 17.0447 455.65 18.6636C455.65 20.2826 453.654 21.5944 451.191 21.5944V25.9274C453.654 25.9274 455.65 27.2391 455.65 28.8581C455.65 30.4771 453.654 31.7888 451.191 31.7888V36.118C453.654 36.118 455.65 37.4297 455.65 39.0487C455.65 40.6677 453.654 41.9794 451.191 41.9794V46.3085C453.654 46.3085 455.65 47.6202 455.65 49.2392C455.65 50.8582 453.654 52.1699 451.191 52.1699V56.4991C453.654 56.4991 455.65 57.8108 455.65 59.4298C455.65 61.0488 453.654 62.3605 451.191 62.3605V66.6896C453.654 66.6896 455.65 68.0013 455.65 69.6203C455.65 71.2393 453.654 72.551 451.191 72.551V76.8802C453.654 76.8802 455.65 78.1919 455.65 79.8109C455.65 81.4299 453.654 82.7416 451.191 82.7416V87.0707C453.654 87.0707 455.65 88.3824 455.65 90.0014C455.65 91.6204 453.654 92.9322 451.191 92.9322V97.2613C453.654 97.2613 455.65 98.573 455.65 100.192C455.65 101.811 453.654 103.123 451.191 103.123V107.452C453.654 107.452 455.65 108.764 455.65 110.383C455.65 112.002 453.654 113.313 451.191 113.313V117.646C453.654 117.646 455.65 118.958 455.65 120.577C455.65 122.196 453.654 123.508 451.191 123.508V127.837C453.654 127.837 455.65 129.149 455.65 130.768C455.65 132.387 453.654 133.698 451.191 133.698V138.027C453.654 138.027 455.65 139.339 455.65 140.958C455.65 142.577 453.654 143.889 451.191 143.889V148.222C453.654 148.222 455.65 149.534 455.65 151.153C455.65 152.043 455.045 152.839 454.086 153.378H451.191V159.622H454.086C455.039 160.157 455.65 160.957 455.65 161.847C455.65 163.466 453.654 164.778 451.191 164.778V169.111C453.654 169.111 455.65 170.423 455.65 172.042C455.65 173.661 453.654 174.973 451.191 174.973V179.306C453.654 179.306 455.65 180.617 455.65 182.236C455.65 183.855 453.654 185.167 451.191 185.167V189.496C453.654 189.496 455.65 190.808 455.65 192.427C455.65 194.046 453.654 195.358 451.191 195.358V199.687C453.654 199.687 455.65 200.998 455.65 202.617C455.65 204.236 453.654 205.548 451.191 205.548V209.877C453.654 209.877 455.65 211.189 455.65 212.808C455.65 214.427 453.654 215.739 451.191 215.739V220.068C453.654 220.068 455.65 221.38 455.65 222.999C455.65 224.618 453.654 225.929 451.191 225.929V230.258C453.654 230.258 455.65 231.57 455.65 233.189C455.65 234.808 453.654 236.12 451.191 236.12V240.449C453.654 240.449 455.65 241.761 455.65 243.38C455.65 244.999 453.654 246.31 451.191 246.31V250.64C453.654 250.64 455.65 251.951 455.65 253.57C455.65 255.189 453.654 256.501 451.191 256.501V260.83C453.654 260.83 455.65 262.142 455.65 263.761C455.65 265.38 453.654 266.691 451.191 266.691V271.025C453.654 271.025 455.65 272.336 455.65 273.955C455.65 275.574 453.654 276.886 451.191 276.886V281.215C453.654 281.215 455.65 282.527 455.65 284.146C455.65 285.765 453.654 287.077 451.191 287.077V291.406C453.654 291.406 455.65 292.717 455.65 294.336C455.65 295.955 453.654 297.267 451.191 297.267V301.6C453.654 301.6 455.65 302.912 455.65 304.531C455.65 306.15 453.654 307.462 451.191 307.462V313H459.619C459.619 311.381 461.615 310.069 464.079 310.069C466.542 310.069 468.538 311.381 468.538 313H475.132C475.132 311.381 477.128 310.069 479.592 310.069C482.056 310.069 484.052 311.381 484.052 313H490.639C490.639 311.381 492.636 310.069 495.099 310.069C497.563 310.069 499.559 311.381 499.559 313H506.147C506.147 311.381 508.143 310.069 510.607 310.069C513.07 310.069 515.066 311.381 515.066 313H521.654C521.654 311.381 523.65 310.069 526.114 310.069C528.578 310.069 530.574 311.381 530.574 313H537.162C537.162 311.381 539.158 310.069 541.621 310.069C544.085 310.069 546.081 311.381 546.081 313H552.669C552.669 311.381 554.665 310.069 557.129 310.069C559.592 310.069 561.589 311.381 561.589 313H568.176C568.176 311.381 570.172 310.069 572.636 310.069C575.1 310.069 577.096 311.381 577.096 313H583.684C583.684 311.381 585.68 310.069 588.144 310.069C590.607 310.069 592.603 311.381 592.603 313H599.191C599.191 311.381 601.187 310.069 603.651 310.069C606.115 310.069 608.111 311.381 608.111 313H614.698C614.698 311.381 616.695 310.069 619.158 310.069C621.622 310.069 623.618 311.381 623.618 313H630.212C630.212 311.381 632.208 310.069 634.672 310.069C637.135 310.069 639.131 311.381 639.131 313H645.719C645.719 311.381 647.715 310.069 650.179 310.069C652.643 310.069 654.639 311.381 654.639 313H661.227C661.227 311.381 663.223 310.069 665.686 310.069C668.15 310.069 670.146 311.381 670.146 313H676.74C676.74 311.381 678.736 310.069 681.2 310.069C683.663 310.069 685.66 311.381 685.66 313H694.495C694.495 311.381 696.491 310.069 698.955 310.069C701.419 310.069 703.415 311.381 703.415 313H710.009C710.009 311.381 712.005 310.069 714.468 310.069C716.932 310.069 718.928 311.381 718.928 313H725.516C725.516 311.381 727.512 310.069 729.976 310.069C732.439 310.069 734.436 311.381 734.436 313H741.023C741.023 311.381 743.02 310.069 745.483 310.069C747.947 310.069 749.943 311.381 749.943 313H756.531C756.531 311.381 758.527 310.069 760.991 310.069C763.454 310.069 765.45 311.381 765.45 313H772.038C772.038 311.381 774.034 310.069 776.498 310.069C778.962 310.069 780.958 311.381 780.958 313H787.546C787.546 311.381 789.542 310.069 792.005 310.069C794.469 310.069 796.465 311.381 796.465 313H803.053C803.053 311.381 805.049 310.069 807.513 310.069C809.976 310.069 811.972 311.381 811.972 313H818.56C818.56 311.381 820.556 310.069 823.02 310.069C825.484 310.069 827.48 311.381 827.48 313H834.068C834.068 311.381 836.064 310.069 838.527 310.069C840.991 310.069 842.987 311.381 842.987 313H849.575C849.575 311.381 851.571 310.069 854.035 310.069C856.498 310.069 858.495 311.381 858.495 313H865.088C865.088 311.381 867.085 310.069 869.542 310.069C872 310.069 874.002 311.381 874.002 313H880.59C880.59 311.381 882.586 310.069 885.05 310.069C887.513 310.069 889.509 311.381 889.509 313H896.097C896.097 311.381 898.093 310.069 900.557 310.069C903.021 310.069 905.017 311.381 905.017 313H911.611C911.611 311.381 913.607 310.069 916.07 310.069C918.534 310.069 920.53 311.381 920.53 313H928.958V307.462C926.495 307.462 924.498 306.15 924.498 304.531C924.498 302.912 926.495 301.6 928.958 301.6V297.267C926.495 297.267 924.498 295.955 924.498 294.336C924.498 292.717 926.495 291.406 928.958 291.406V287.077C926.495 287.077 924.498 285.765 924.498 284.146C924.498 282.527 926.495 281.215 928.958 281.215V276.886C926.495 276.886 924.498 275.574 924.498 273.955C924.498 272.336 926.495 271.025 928.958 271.025V266.691C926.495 266.691 924.498 265.38 924.498 263.761C924.498 262.142 926.495 260.83 928.958 260.83V256.501C926.495 256.501 924.498 255.189 924.498 253.57C924.498 251.951 926.495 250.64 928.958 250.64V246.31C926.495 246.31 924.498 244.999 924.498 243.38C924.498 241.761 926.495 240.449 928.958 240.449V236.12C926.495 236.12 924.498 234.808 924.498 233.189C924.498 231.57 926.495 230.258 928.958 230.258V225.929C926.495 225.929 924.498 224.618 924.498 222.999C924.498 221.38 926.495 220.068 928.958 220.068V215.739C926.495 215.739 924.498 214.427 924.498 212.808C924.498 211.189 926.495 209.877 928.958 209.877V205.548C926.495 205.548 924.498 204.236 924.498 202.617C924.498 200.998 926.495 199.687 928.958 199.687V195.358C926.495 195.358 924.498 194.046 924.498 192.427C924.498 190.808 926.495 189.496 928.958 189.496V185.167C926.495 185.167 924.498 183.855 924.498 182.236C924.498 180.617 926.495 179.306 928.958 179.306V174.977C926.495 174.977 924.498 173.665 924.498 172.046C924.498 170.427 926.495 169.115 928.958 169.115V164.782C926.495 164.782 924.498 163.47 924.498 161.851C924.498 160.961 925.104 160.161 926.063 159.626H928.958V153.382H926.063C925.11 152.846 924.498 152.047 924.498 151.157C924.498 149.538 926.495 148.226 928.958 148.226V143.893C926.495 143.893 924.498 142.581 924.498 140.962C924.498 139.343 926.495 138.031 928.958 138.031V133.702C926.495 133.702 924.498 132.391 924.498 130.772C924.498 129.153 926.495 127.841 928.958 127.841V123.512C926.495 123.512 924.498 122.2 924.498 120.581C924.498 118.962 926.495 117.65 928.958 117.65V113.317C926.495 113.317 924.498 112.005 924.498 110.386C924.498 108.767 926.495 107.456 928.958 107.456V103.127C926.495 103.127 924.498 101.815 924.498 100.196C924.498 98.5769 926.495 97.2652 928.958 97.2652V92.9361C926.495 92.9361 924.498 91.6244 924.498 90.0054C924.498 88.3864 926.495 87.0747 928.958 87.0747V82.7455C926.495 82.7455 924.498 81.4338 924.498 79.8148C924.498 78.1958 926.495 76.8841 928.958 76.8841V72.555C926.495 72.555 924.498 71.2433 924.498 69.6243C924.498 68.0053 926.495 66.6936 928.958 66.6936V62.3644C926.495 62.3644 924.498 61.0527 924.498 59.4337C924.498 57.8147 926.495 56.503 928.958 56.503V52.1739C926.495 52.1739 924.498 50.8622 924.498 49.2432C924.498 47.6242 926.495 46.3124 928.958 46.3124V41.9833C926.495 41.9833 924.498 40.6716 924.498 39.0526C924.498 37.4336 926.495 36.1219 928.958 36.1219V31.7928C926.495 31.7928 924.498 30.4811 924.498 28.8621C924.498 27.2431 926.495 25.9313 928.958 25.9313V21.6022C926.495 21.6022 924.498 20.2905 924.498 18.6715C924.498 17.0525 926.495 15.7408 928.958 15.7408V11.4077C926.495 11.4077 924.498 10.096 924.498 8.47703C924.498 6.85804 926.495 5.54631 928.958 5.54631L929 5.53843Z" fill="#662809"/>
</svg>
