<svg width="1394" height="621" viewBox="0 0 1394 621" fill="none" xmlns="http://www.w3.org/2000/svg">
<path d="M718 10.9877V0H705.335C705.335 3.21191 702.336 5.81426 698.634 5.81426C694.931 5.81426 691.932 3.21191 691.932 0H682.023C682.023 3.21191 679.024 5.81426 675.322 5.81426C671.62 5.81426 668.62 3.21191 668.62 0H658.721C658.721 3.21191 655.721 5.81426 652.019 5.81426C648.317 5.81426 645.317 3.21191 645.317 0H635.418C635.418 3.21191 632.418 5.81426 628.716 5.81426C625.014 5.81426 622.023 3.21191 622.023 0H612.115C612.115 3.21191 609.115 5.81426 605.413 5.81426C601.711 5.81426 598.712 3.21191 598.712 0H588.812C588.812 3.21191 585.813 5.81426 582.111 5.81426C578.408 5.81426 575.409 3.21191 575.409 0H565.509C565.509 3.21191 562.51 5.81426 558.808 5.81426C555.106 5.81426 552.106 3.21191 552.106 0H542.207C542.207 3.21191 539.207 5.81426 535.505 5.81426C531.803 5.81426 528.803 3.21191 528.803 0H518.904C518.904 3.21191 515.904 5.81426 512.202 5.81426C508.5 5.81426 505.5 3.21191 505.5 0H495.601C495.601 3.21191 492.602 5.81426 488.899 5.81426C485.197 5.81426 482.198 3.21191 482.198 0H472.298C472.298 3.21191 469.299 5.81426 465.597 5.81426C461.894 5.81426 458.895 3.21191 458.895 0H448.995C448.995 3.21191 445.996 5.81426 442.294 5.81426C438.592 5.81426 435.592 3.21191 435.592 0H425.693C425.693 3.21191 422.693 5.81426 418.991 5.81426C415.289 5.81426 412.289 3.21191 412.289 0H402.39C402.39 3.21191 399.39 5.81426 395.688 5.81426C391.986 5.81426 388.986 3.21191 388.986 0H379.078C379.078 3.21191 376.079 5.81426 372.376 5.81426C368.674 5.81426 365.675 3.21191 365.675 0H352.397C352.397 3.21191 349.398 5.81426 345.696 5.81426C341.994 5.81426 338.994 3.21191 338.994 0H329.086C329.086 3.21191 326.086 5.81426 322.384 5.81426C318.682 5.81426 315.682 3.21191 315.682 0H305.783C305.783 3.21191 302.783 5.81426 299.081 5.81426C295.379 5.81426 292.379 3.21191 292.379 0H282.48C282.48 3.21191 279.48 5.81426 275.778 5.81426C272.076 5.81426 269.077 3.21191 269.077 0H259.168C259.168 3.21191 256.169 5.81426 252.466 5.81426C248.764 5.81426 245.765 3.21191 245.765 0H235.865C235.865 3.21191 232.866 5.81426 229.164 5.81426C225.462 5.81426 222.462 3.21191 222.462 0H212.563C212.563 3.21191 209.563 5.81426 205.861 5.81426C202.159 5.81426 199.159 3.21191 199.159 0H189.26C189.26 3.21191 186.26 5.81426 182.558 5.81426C178.856 5.81426 175.856 3.21191 175.856 0H165.957C165.957 3.21191 162.957 5.81426 159.255 5.81426C155.553 5.81426 152.554 3.21191 152.554 0H142.654C142.654 3.21191 139.655 5.81426 135.952 5.81426C132.25 5.81426 129.251 3.21191 129.251 0H119.351C119.351 3.21191 116.352 5.81426 112.65 5.81426C108.948 5.81426 105.948 3.21191 105.948 0H96.0486C96.0486 3.21191 93.0491 5.81426 89.3469 5.81426C85.6448 5.81426 82.6452 3.21191 82.6452 0H72.7458C72.7458 3.21191 69.7463 5.81426 66.0441 5.81426C62.342 5.81426 59.3424 3.21191 59.3424 0H49.443C49.443 3.21191 46.4435 5.81426 42.7413 5.81426C39.0392 5.81426 36.0396 3.21191 36.0396 0H26.1312C26.1312 3.21191 23.1317 5.81426 19.4295 5.81426C15.7274 5.81426 12.7278 3.21191 12.7278 0H0V10.9877C3.70215 10.9877 6.70169 13.59 6.70169 16.8019C6.70169 20.0139 3.70215 22.6162 0 22.6162V31.2125C3.70215 31.2125 6.70169 33.8149 6.70169 37.0268C6.70169 40.2387 3.70215 42.8411 0 42.8411V51.4374C3.70215 51.4374 6.70169 54.0398 6.70169 57.2517C6.70169 60.4636 3.70215 63.0659 0 63.0659V71.6544C3.70215 71.6544 6.70169 74.2568 6.70169 77.4687C6.70169 80.6806 3.70215 83.283 0 83.283V91.8715C3.70215 91.8715 6.70169 94.4738 6.70169 97.6857C6.70169 100.898 3.70215 103.5 0 103.5V112.089C3.70215 112.089 6.70169 114.691 6.70169 117.903C6.70169 121.115 3.70215 123.717 0 123.717V132.306C3.70215 132.306 6.70169 134.908 6.70169 138.12C6.70169 141.332 3.70215 143.934 0 143.934V152.523C3.70215 152.523 6.70169 155.125 6.70169 158.337C6.70169 161.549 3.70215 164.151 0 164.151V172.74C3.70215 172.74 6.70169 175.342 6.70169 178.554C6.70169 181.766 3.70215 184.368 0 184.368V192.957C3.70215 192.957 6.70169 195.559 6.70169 198.771C6.70169 201.983 3.70215 204.585 0 204.585V213.174C3.70215 213.174 6.70169 215.776 6.70169 218.988C6.70169 222.2 3.70215 224.802 0 224.802V233.399C3.70215 233.399 6.70169 236.001 6.70169 239.213C6.70169 242.425 3.70215 245.027 0 245.027V253.616C3.70215 253.616 6.70169 256.218 6.70169 259.43C6.70169 262.642 3.70215 265.244 0 265.244V273.833C3.70215 273.833 6.70169 276.435 6.70169 279.647C6.70169 282.859 3.70215 285.461 0 285.461V294.058C3.70215 294.058 6.70169 296.66 6.70169 299.872C6.70169 301.638 5.79192 303.217 4.3507 304.287H0V316.674H4.3507C5.78291 317.737 6.70169 319.323 6.70169 321.089C6.70169 324.301 3.70215 326.903 0 326.903V335.5C3.70215 335.5 6.70169 338.102 6.70169 341.314C6.70169 344.526 3.70215 347.128 0 347.128V355.725C3.70215 355.725 6.70169 358.327 6.70169 361.539C6.70169 364.751 3.70215 367.353 0 367.353V375.942C3.70215 375.942 6.70169 378.544 6.70169 381.756C6.70169 384.968 3.70215 387.57 0 387.57V396.159C3.70215 396.159 6.70169 398.761 6.70169 401.973C6.70169 405.185 3.70215 407.787 0 407.787V416.376C3.70215 416.376 6.70169 418.978 6.70169 422.19C6.70169 425.402 3.70215 428.004 0 428.004V436.593C3.70215 436.593 6.70169 439.195 6.70169 442.407C6.70169 445.619 3.70215 448.221 0 448.221V456.81C3.70215 456.81 6.70169 459.412 6.70169 462.624C6.70169 465.836 3.70215 468.438 0 468.438V477.027C3.70215 477.027 6.70169 479.629 6.70169 482.841C6.70169 486.053 3.70215 488.655 0 488.655V497.244C3.70215 497.244 6.70169 499.846 6.70169 503.058C6.70169 506.27 3.70215 508.872 0 508.872V517.461C3.70215 517.461 6.70169 520.063 6.70169 523.275C6.70169 526.487 3.70215 529.089 0 529.089V537.686C3.70215 537.686 6.70169 540.288 6.70169 543.5C6.70169 546.712 3.70215 549.314 0 549.314V557.903C3.70215 557.903 6.70169 560.505 6.70169 563.717C6.70169 566.929 3.70215 569.531 0 569.531V578.12C3.70215 578.12 6.70169 580.722 6.70169 583.934C6.70169 587.146 3.70215 589.748 0 589.748V598.345C3.70215 598.345 6.70169 600.947 6.70169 604.159C6.70169 607.371 3.70215 609.973 0 609.973V620.961H12.6648C12.6648 617.749 15.6643 615.147 19.3665 615.147C23.0686 615.147 26.0681 617.749 26.0681 620.961H35.9766C35.9766 617.749 38.9761 615.147 42.6783 615.147C46.3804 615.147 49.38 617.749 49.38 620.961H59.2794C59.2794 617.749 62.2789 615.147 65.9811 615.147C69.6832 615.147 72.6828 617.749 72.6828 620.961H82.5822C82.5822 617.749 85.5817 615.147 89.2839 615.147C92.986 615.147 95.9855 617.749 95.9855 620.961H105.885C105.885 617.749 108.885 615.147 112.587 615.147C116.289 615.147 119.288 617.749 119.288 620.961H129.188C129.188 617.749 132.187 615.147 135.889 615.147C139.592 615.147 142.591 617.749 142.591 620.961H152.491C152.491 617.749 155.49 615.147 159.192 615.147C162.894 615.147 165.894 617.749 165.894 620.961H175.793C175.793 617.749 178.793 615.147 182.495 615.147C186.197 615.147 189.197 617.749 189.197 620.961H199.096C199.096 617.749 202.096 615.147 205.798 615.147C209.5 615.147 212.5 617.749 212.5 620.961H222.399C222.399 617.749 225.398 615.147 229.101 615.147C232.803 615.147 235.802 617.749 235.802 620.961H245.702C245.702 617.749 248.701 615.147 252.403 615.147C256.106 615.147 259.105 617.749 259.105 620.961H269.014C269.014 617.749 272.013 615.147 275.715 615.147C279.417 615.147 282.417 617.749 282.417 620.961H292.316C292.316 617.749 295.316 615.147 299.018 615.147C302.72 615.147 305.72 617.749 305.72 620.961H315.619C315.619 617.749 318.619 615.147 322.321 615.147C326.023 615.147 329.023 617.749 329.023 620.961H338.931C338.931 617.749 341.931 615.147 345.633 615.147C349.335 615.147 352.334 617.749 352.334 620.961H365.612C365.612 617.749 368.611 615.147 372.313 615.147C376.015 615.147 379.015 617.749 379.015 620.961H388.923C388.923 617.749 391.923 615.147 395.625 615.147C399.327 615.147 402.327 617.749 402.327 620.961H412.226C412.226 617.749 415.226 615.147 418.928 615.147C422.63 615.147 425.63 617.749 425.63 620.961H435.529C435.529 617.749 438.529 615.147 442.231 615.147C445.933 615.147 448.932 617.749 448.932 620.961H458.832C458.832 617.749 461.831 615.147 465.534 615.147C469.236 615.147 472.235 617.749 472.235 620.961H482.135C482.135 617.749 485.134 615.147 488.836 615.147C492.538 615.147 495.538 617.749 495.538 620.961H505.437C505.437 617.749 508.437 615.147 512.139 615.147C515.841 615.147 518.841 617.749 518.841 620.961H528.74C528.74 617.749 531.74 615.147 535.442 615.147C539.144 615.147 542.144 617.749 542.144 620.961H552.043C552.043 617.749 555.043 615.147 558.745 615.147C562.447 615.147 565.446 617.749 565.446 620.961H575.346C575.346 617.749 578.345 615.147 582.047 615.147C585.75 615.147 588.749 617.749 588.749 620.961H598.649C598.649 617.749 601.648 615.147 605.35 615.147C609.052 615.147 612.052 617.749 612.052 620.961H621.96C621.96 617.749 624.96 615.147 628.653 615.147C632.346 615.147 635.355 617.749 635.355 620.961H645.254C645.254 617.749 648.254 615.147 651.956 615.147C655.658 615.147 658.658 617.749 658.658 620.961H668.557C668.557 617.749 671.557 615.147 675.259 615.147C678.961 615.147 681.96 617.749 681.96 620.961H691.869C691.869 617.749 694.868 615.147 698.571 615.147C702.273 615.147 705.272 617.749 705.272 620.961H717.937V609.973C714.235 609.973 711.235 607.371 711.235 604.159C711.235 600.947 714.235 598.345 717.937 598.345V589.748C714.235 589.748 711.235 587.146 711.235 583.934C711.235 580.722 714.235 578.12 717.937 578.12V569.531C714.235 569.531 711.235 566.929 711.235 563.717C711.235 560.505 714.235 557.903 717.937 557.903V549.314C714.235 549.314 711.235 546.712 711.235 543.5C711.235 540.288 714.235 537.686 717.937 537.686V529.089C714.235 529.089 711.235 526.487 711.235 523.275C711.235 520.063 714.235 517.461 717.937 517.461V508.872C714.235 508.872 711.235 506.27 711.235 503.058C711.235 499.846 714.235 497.244 717.937 497.244V488.655C714.235 488.655 711.235 486.053 711.235 482.841C711.235 479.629 714.235 477.027 717.937 477.027V468.438C714.235 468.438 711.235 465.836 711.235 462.624C711.235 459.412 714.235 456.81 717.937 456.81V448.221C714.235 448.221 711.235 445.619 711.235 442.407C711.235 439.195 714.235 436.593 717.937 436.593V428.004C714.235 428.004 711.235 425.402 711.235 422.19C711.235 418.978 714.235 416.376 717.937 416.376V407.787C714.235 407.787 711.235 405.185 711.235 401.973C711.235 398.761 714.235 396.159 717.937 396.159V387.57C714.235 387.57 711.235 384.968 711.235 381.756C711.235 378.544 714.235 375.942 717.937 375.942V367.353C714.235 367.353 711.235 364.751 711.235 361.539C711.235 358.327 714.235 355.725 717.937 355.725V347.136C714.235 347.136 711.235 344.534 711.235 341.322C711.235 338.11 714.235 335.508 717.937 335.508V326.911C714.235 326.911 711.235 324.309 711.235 321.097C711.235 319.331 712.145 317.744 713.586 316.682H717.937V304.295H713.586C712.154 303.232 711.235 301.646 711.235 299.88C711.235 296.668 714.235 294.065 717.937 294.065V285.469C714.235 285.469 711.235 282.867 711.235 279.655C711.235 276.443 714.235 273.84 717.937 273.84V265.252C714.235 265.252 711.235 262.65 711.235 259.438C711.235 256.226 714.235 253.623 717.937 253.623V245.035C714.235 245.035 711.235 242.433 711.235 239.221C711.235 236.009 714.235 233.406 717.937 233.406V224.81C714.235 224.81 711.235 222.208 711.235 218.996C711.235 215.784 714.235 213.182 717.937 213.182V204.593C714.235 204.593 711.235 201.991 711.235 198.779C711.235 195.567 714.235 192.965 717.937 192.965V184.376C714.235 184.376 711.235 181.774 711.235 178.562C711.235 175.35 714.235 172.747 717.937 172.747V164.159C714.235 164.159 711.235 161.557 711.235 158.345C711.235 155.133 714.235 152.53 717.937 152.53V143.942C714.235 143.942 711.235 141.34 711.235 138.128C711.235 134.916 714.235 132.313 717.937 132.313V123.725C714.235 123.725 711.235 121.123 711.235 117.911C711.235 114.699 714.235 112.096 717.937 112.096V103.508C714.235 103.508 711.235 100.905 711.235 97.6936C711.235 94.4817 714.235 91.8793 717.937 91.8793V83.2908C714.235 83.2908 711.235 80.6884 711.235 77.4765C711.235 74.2646 714.235 71.6623 717.937 71.6623V63.0737C714.235 63.0737 711.235 60.4714 711.235 57.2595C711.235 54.0476 714.235 51.4452 717.937 51.4452V42.8567C714.235 42.8567 711.235 40.2543 711.235 37.0424C711.235 33.8305 714.235 31.2282 717.937 31.2282V22.6318C714.235 22.6318 711.235 20.0295 711.235 16.8176C711.235 13.6057 714.235 11.0033 717.937 11.0033L718 10.9877Z" fill="#662809"/>
<path d="M1394 10.9877V0H1381.34C1381.34 3.21191 1378.34 5.81426 1374.63 5.81426C1370.93 5.81426 1367.93 3.21191 1367.93 0H1358.02C1358.02 3.21191 1355.02 5.81426 1351.32 5.81426C1347.62 5.81426 1344.62 3.21191 1344.62 0H1334.72C1334.72 3.21191 1331.72 5.81426 1328.02 5.81426C1324.32 5.81426 1321.32 3.21191 1321.32 0H1311.42C1311.42 3.21191 1308.42 5.81426 1304.72 5.81426C1301.01 5.81426 1298.02 3.21191 1298.02 0H1288.12C1288.12 3.21191 1285.12 5.81426 1281.41 5.81426C1277.71 5.81426 1274.71 3.21191 1274.71 0H1264.81C1264.81 3.21191 1261.81 5.81426 1258.11 5.81426C1254.41 5.81426 1251.41 3.21191 1251.41 0H1241.51C1241.51 3.21191 1238.51 5.81426 1234.81 5.81426C1231.11 5.81426 1228.11 3.21191 1228.11 0H1218.21C1218.21 3.21191 1215.21 5.81426 1211.5 5.81426C1207.8 5.81426 1204.8 3.21191 1204.8 0H1194.9C1194.9 3.21191 1191.9 5.81426 1188.2 5.81426C1184.5 5.81426 1181.5 3.21191 1181.5 0H1171.6C1171.6 3.21191 1168.6 5.81426 1164.9 5.81426C1161.2 5.81426 1158.2 3.21191 1158.2 0H1148.3C1148.3 3.21191 1145.3 5.81426 1141.6 5.81426C1137.89 5.81426 1134.89 3.21191 1134.89 0H1125C1125 3.21191 1122 5.81426 1118.29 5.81426C1114.59 5.81426 1111.59 3.21191 1111.59 0H1101.69C1101.69 3.21191 1098.69 5.81426 1094.99 5.81426C1091.29 5.81426 1088.29 3.21191 1088.29 0H1078.39C1078.39 3.21191 1075.39 5.81426 1071.69 5.81426C1067.99 5.81426 1064.99 3.21191 1064.99 0H1055.08C1055.08 3.21191 1052.08 5.81426 1048.38 5.81426C1044.67 5.81426 1041.67 3.21191 1041.67 0H1028.4C1028.4 3.21191 1025.4 5.81426 1021.7 5.81426C1017.99 5.81426 1014.99 3.21191 1014.99 0H1005.09C1005.09 3.21191 1002.09 5.81426 998.384 5.81426C994.682 5.81426 991.682 3.21191 991.682 0H981.783C981.783 3.21191 978.783 5.81426 975.081 5.81426C971.379 5.81426 968.379 3.21191 968.379 0H958.48C958.48 3.21191 955.48 5.81426 951.778 5.81426C948.076 5.81426 945.077 3.21191 945.077 0H935.168C935.168 3.21191 932.169 5.81426 928.466 5.81426C924.764 5.81426 921.765 3.21191 921.765 0H911.865C911.865 3.21191 908.866 5.81426 905.164 5.81426C901.462 5.81426 898.462 3.21191 898.462 0H888.563C888.563 3.21191 885.563 5.81426 881.861 5.81426C878.159 5.81426 875.159 3.21191 875.159 0H865.26C865.26 3.21191 862.26 5.81426 858.558 5.81426C854.856 5.81426 851.856 3.21191 851.856 0H841.957C841.957 3.21191 838.957 5.81426 835.255 5.81426C831.553 5.81426 828.554 3.21191 828.554 0H818.654C818.654 3.21191 815.655 5.81426 811.952 5.81426C808.25 5.81426 805.251 3.21191 805.251 0H795.351C795.351 3.21191 792.352 5.81426 788.65 5.81426C784.948 5.81426 781.948 3.21191 781.948 0H772.049C772.049 3.21191 769.049 5.81426 765.347 5.81426C761.645 5.81426 758.645 3.21191 758.645 0H748.746C748.746 3.21191 745.746 5.81426 742.044 5.81426C738.342 5.81426 735.342 3.21191 735.342 0H725.443C725.443 3.21191 722.443 5.81426 718.741 5.81426C715.039 5.81426 712.04 3.21191 712.04 0H702.131C702.131 3.21191 699.132 5.81426 695.43 5.81426C691.727 5.81426 688.728 3.21191 688.728 0H676V10.9877C679.702 10.9877 682.702 13.59 682.702 16.8019C682.702 20.0139 679.702 22.6162 676 22.6162V31.2125C679.702 31.2125 682.702 33.8149 682.702 37.0268C682.702 40.2387 679.702 42.8411 676 42.8411V51.4374C679.702 51.4374 682.702 54.0398 682.702 57.2517C682.702 60.4636 679.702 63.0659 676 63.0659V71.6544C679.702 71.6544 682.702 74.2568 682.702 77.4687C682.702 80.6806 679.702 83.283 676 83.283V91.8715C679.702 91.8715 682.702 94.4738 682.702 97.6857C682.702 100.898 679.702 103.5 676 103.5V112.089C679.702 112.089 682.702 114.691 682.702 117.903C682.702 121.115 679.702 123.717 676 123.717V132.306C679.702 132.306 682.702 134.908 682.702 138.12C682.702 141.332 679.702 143.934 676 143.934V152.523C679.702 152.523 682.702 155.125 682.702 158.337C682.702 161.549 679.702 164.151 676 164.151V172.74C679.702 172.74 682.702 175.342 682.702 178.554C682.702 181.766 679.702 184.368 676 184.368V192.957C679.702 192.957 682.702 195.559 682.702 198.771C682.702 201.983 679.702 204.585 676 204.585V213.174C679.702 213.174 682.702 215.776 682.702 218.988C682.702 222.2 679.702 224.802 676 224.802V233.399C679.702 233.399 682.702 236.001 682.702 239.213C682.702 242.425 679.702 245.027 676 245.027V253.616C679.702 253.616 682.702 256.218 682.702 259.43C682.702 262.642 679.702 265.244 676 265.244V273.833C679.702 273.833 682.702 276.435 682.702 279.647C682.702 282.859 679.702 285.461 676 285.461V294.058C679.702 294.058 682.702 296.66 682.702 299.872C682.702 301.638 681.792 303.217 680.351 304.287H676V316.674H680.351C681.783 317.737 682.702 319.323 682.702 321.089C682.702 324.301 679.702 326.903 676 326.903V335.5C679.702 335.5 682.702 338.102 682.702 341.314C682.702 344.526 679.702 347.128 676 347.128V355.725C679.702 355.725 682.702 358.327 682.702 361.539C682.702 364.751 679.702 367.353 676 367.353V375.942C679.702 375.942 682.702 378.544 682.702 381.756C682.702 384.968 679.702 387.57 676 387.57V396.159C679.702 396.159 682.702 398.761 682.702 401.973C682.702 405.185 679.702 407.787 676 407.787V416.376C679.702 416.376 682.702 418.978 682.702 422.19C682.702 425.402 679.702 428.004 676 428.004V436.593C679.702 436.593 682.702 439.195 682.702 442.407C682.702 445.619 679.702 448.221 676 448.221V456.81C679.702 456.81 682.702 459.412 682.702 462.624C682.702 465.836 679.702 468.438 676 468.438V477.027C679.702 477.027 682.702 479.629 682.702 482.841C682.702 486.053 679.702 488.655 676 488.655V497.244C679.702 497.244 682.702 499.846 682.702 503.058C682.702 506.27 679.702 508.872 676 508.872V517.461C679.702 517.461 682.702 520.063 682.702 523.275C682.702 526.487 679.702 529.089 676 529.089V537.686C679.702 537.686 682.702 540.288 682.702 543.5C682.702 546.712 679.702 549.314 676 549.314V557.903C679.702 557.903 682.702 560.505 682.702 563.717C682.702 566.929 679.702 569.531 676 569.531V578.12C679.702 578.12 682.702 580.722 682.702 583.934C682.702 587.146 679.702 589.748 676 589.748V598.345C679.702 598.345 682.702 600.947 682.702 604.159C682.702 607.371 679.702 609.973 676 609.973V620.961H688.665C688.665 617.749 691.664 615.147 695.366 615.147C699.069 615.147 702.068 617.749 702.068 620.961H711.977C711.977 617.749 714.976 615.147 718.678 615.147C722.38 615.147 725.38 617.749 725.38 620.961H735.279C735.279 617.749 738.279 615.147 741.981 615.147C745.683 615.147 748.683 617.749 748.683 620.961H758.582C758.582 617.749 761.582 615.147 765.284 615.147C768.986 615.147 771.986 617.749 771.986 620.961H781.885C781.885 617.749 784.885 615.147 788.587 615.147C792.289 615.147 795.288 617.749 795.288 620.961H805.188C805.188 617.749 808.187 615.147 811.889 615.147C815.592 615.147 818.591 617.749 818.591 620.961H828.491C828.491 617.749 831.49 615.147 835.192 615.147C838.894 615.147 841.894 617.749 841.894 620.961H851.793C851.793 617.749 854.793 615.147 858.495 615.147C862.197 615.147 865.197 617.749 865.197 620.961H875.096C875.096 617.749 878.096 615.147 881.798 615.147C885.5 615.147 888.5 617.749 888.5 620.961H898.399C898.399 617.749 901.398 615.147 905.101 615.147C908.803 615.147 911.802 617.749 911.802 620.961H921.702C921.702 617.749 924.701 615.147 928.403 615.147C932.106 615.147 935.105 617.749 935.105 620.961H945.014C945.014 617.749 948.013 615.147 951.715 615.147C955.417 615.147 958.417 617.749 958.417 620.961H968.316C968.316 617.749 971.316 615.147 975.018 615.147C978.72 615.147 981.72 617.749 981.72 620.961H991.619C991.619 617.749 994.619 615.147 998.321 615.147C1002.02 615.147 1005.02 617.749 1005.02 620.961H1014.93C1014.93 617.749 1017.93 615.147 1021.63 615.147C1025.33 615.147 1028.33 617.749 1028.33 620.961H1041.61C1041.61 617.749 1044.61 615.147 1048.31 615.147C1052.02 615.147 1055.02 617.749 1055.02 620.961H1064.92C1064.92 617.749 1067.92 615.147 1071.63 615.147C1075.33 615.147 1078.33 617.749 1078.33 620.961H1088.23C1088.23 617.749 1091.23 615.147 1094.93 615.147C1098.63 615.147 1101.63 617.749 1101.63 620.961H1111.53C1111.53 617.749 1114.53 615.147 1118.23 615.147C1121.93 615.147 1124.93 617.749 1124.93 620.961H1134.83C1134.83 617.749 1137.83 615.147 1141.53 615.147C1145.24 615.147 1148.24 617.749 1148.24 620.961H1158.13C1158.13 617.749 1161.13 615.147 1164.84 615.147C1168.54 615.147 1171.54 617.749 1171.54 620.961H1181.44C1181.44 617.749 1184.44 615.147 1188.14 615.147C1191.84 615.147 1194.84 617.749 1194.84 620.961H1204.74C1204.74 617.749 1207.74 615.147 1211.44 615.147C1215.14 615.147 1218.14 617.749 1218.14 620.961H1228.04C1228.04 617.749 1231.04 615.147 1234.74 615.147C1238.45 615.147 1241.45 617.749 1241.45 620.961H1251.35C1251.35 617.749 1254.35 615.147 1258.05 615.147C1261.75 615.147 1264.75 617.749 1264.75 620.961H1274.65C1274.65 617.749 1277.65 615.147 1281.35 615.147C1285.05 615.147 1288.05 617.749 1288.05 620.961H1297.96C1297.96 617.749 1300.96 615.147 1304.65 615.147C1308.35 615.147 1311.35 617.749 1311.35 620.961H1321.25C1321.25 617.749 1324.25 615.147 1327.96 615.147C1331.66 615.147 1334.66 617.749 1334.66 620.961H1344.56C1344.56 617.749 1347.56 615.147 1351.26 615.147C1354.96 615.147 1357.96 617.749 1357.96 620.961H1367.87C1367.87 617.749 1370.87 615.147 1374.57 615.147C1378.27 615.147 1381.27 617.749 1381.27 620.961H1393.94V609.973C1390.23 609.973 1387.24 607.371 1387.24 604.159C1387.24 600.947 1390.23 598.345 1393.94 598.345V589.748C1390.23 589.748 1387.24 587.146 1387.24 583.934C1387.24 580.722 1390.23 578.12 1393.94 578.12V569.531C1390.23 569.531 1387.24 566.929 1387.24 563.717C1387.24 560.505 1390.23 557.903 1393.94 557.903V549.314C1390.23 549.314 1387.24 546.712 1387.24 543.5C1387.24 540.288 1390.23 537.686 1393.94 537.686V529.089C1390.23 529.089 1387.24 526.487 1387.24 523.275C1387.24 520.063 1390.23 517.461 1393.94 517.461V508.872C1390.23 508.872 1387.24 506.27 1387.24 503.058C1387.24 499.846 1390.23 497.244 1393.94 497.244V488.655C1390.23 488.655 1387.24 486.053 1387.24 482.841C1387.24 479.629 1390.23 477.027 1393.94 477.027V468.438C1390.23 468.438 1387.24 465.836 1387.24 462.624C1387.24 459.412 1390.23 456.81 1393.94 456.81V448.221C1390.23 448.221 1387.24 445.619 1387.24 442.407C1387.24 439.195 1390.23 436.593 1393.94 436.593V428.004C1390.23 428.004 1387.24 425.402 1387.24 422.19C1387.24 418.978 1390.23 416.376 1393.94 416.376V407.787C1390.23 407.787 1387.24 405.185 1387.24 401.973C1387.24 398.761 1390.23 396.159 1393.94 396.159V387.57C1390.23 387.57 1387.24 384.968 1387.24 381.756C1387.24 378.544 1390.23 375.942 1393.94 375.942V367.353C1390.23 367.353 1387.24 364.751 1387.24 361.539C1387.24 358.327 1390.23 355.725 1393.94 355.725V347.136C1390.23 347.136 1387.24 344.534 1387.24 341.322C1387.24 338.11 1390.23 335.508 1393.94 335.508V326.911C1390.23 326.911 1387.24 324.309 1387.24 321.097C1387.24 319.331 1388.15 317.744 1389.59 316.682H1393.94V304.295H1389.59C1388.15 303.232 1387.24 301.646 1387.24 299.88C1387.24 296.668 1390.23 294.065 1393.94 294.065V285.469C1390.23 285.469 1387.24 282.867 1387.24 279.655C1387.24 276.443 1390.23 273.84 1393.94 273.84V265.252C1390.23 265.252 1387.24 262.65 1387.24 259.438C1387.24 256.226 1390.23 253.623 1393.94 253.623V245.035C1390.23 245.035 1387.24 242.433 1387.24 239.221C1387.24 236.009 1390.23 233.406 1393.94 233.406V224.81C1390.23 224.81 1387.24 222.208 1387.24 218.996C1387.24 215.784 1390.23 213.182 1393.94 213.182V204.593C1390.23 204.593 1387.24 201.991 1387.24 198.779C1387.24 195.567 1390.23 192.965 1393.94 192.965V184.376C1390.23 184.376 1387.24 181.774 1387.24 178.562C1387.24 175.35 1390.23 172.747 1393.94 172.747V164.159C1390.23 164.159 1387.24 161.557 1387.24 158.345C1387.24 155.133 1390.23 152.53 1393.94 152.53V143.942C1390.23 143.942 1387.24 141.34 1387.24 138.128C1387.24 134.916 1390.23 132.313 1393.94 132.313V123.725C1390.23 123.725 1387.24 121.123 1387.24 117.911C1387.24 114.699 1390.23 112.096 1393.94 112.096V103.508C1390.23 103.508 1387.24 100.905 1387.24 97.6936C1387.24 94.4817 1390.23 91.8793 1393.94 91.8793V83.2908C1390.23 83.2908 1387.24 80.6884 1387.24 77.4765C1387.24 74.2646 1390.23 71.6623 1393.94 71.6623V63.0737C1390.23 63.0737 1387.24 60.4714 1387.24 57.2595C1387.24 54.0476 1390.23 51.4452 1393.94 51.4452V42.8567C1390.23 42.8567 1387.24 40.2543 1387.24 37.0424C1387.24 33.8305 1390.23 31.2282 1393.94 31.2282V22.6318C1390.23 22.6318 1387.24 20.0295 1387.24 16.8176C1387.24 13.6057 1390.23 11.0033 1393.94 11.0033L1394 10.9877Z" fill="#662809"/>
</svg>
