<svg width="1539" height="277" viewBox="0 0 1539 277" fill="none" xmlns="http://www.w3.org/2000/svg">
<path d="M809.543 4.90142V0H796.851C796.851 1.43278 793.845 2.59364 790.135 2.59364C786.425 2.59364 783.419 1.43278 783.419 0H773.489C773.489 1.43278 770.483 2.59364 766.773 2.59364C763.063 2.59364 760.057 1.43278 760.057 0H750.136C750.136 1.43278 747.13 2.59364 743.42 2.59364C739.71 2.59364 736.704 1.43278 736.704 0H726.783C726.783 1.43278 723.777 2.59364 720.067 2.59364C716.357 2.59364 713.36 1.43278 713.36 0H703.43C703.43 1.43278 700.424 2.59364 696.714 2.59364C693.004 2.59364 689.998 1.43278 689.998 0H680.078C680.078 1.43278 677.072 2.59364 673.361 2.59364C669.651 2.59364 666.645 1.43278 666.645 0H656.725C656.725 1.43278 653.719 2.59364 650.009 2.59364C646.299 2.59364 643.293 1.43278 643.293 0H633.372C633.372 1.43278 630.366 2.59364 626.656 2.59364C622.946 2.59364 619.94 1.43278 619.94 0H610.019C610.019 1.43278 607.013 2.59364 603.303 2.59364C599.593 2.59364 596.587 1.43278 596.587 0H586.666C586.666 1.43278 583.66 2.59364 579.95 2.59364C576.24 2.59364 573.234 1.43278 573.234 0H563.313C563.313 1.43278 560.307 2.59364 556.597 2.59364C552.887 2.59364 549.881 1.43278 549.881 0H539.96C539.96 1.43278 536.954 2.59364 533.244 2.59364C529.534 2.59364 526.528 1.43278 526.528 0H516.607C516.607 1.43278 513.601 2.59364 509.891 2.59364C506.181 2.59364 503.175 1.43278 503.175 0H493.255C493.255 1.43278 490.249 2.59364 486.539 2.59364C482.828 2.59364 479.822 1.43278 479.822 0H469.893C469.893 1.43278 466.887 2.59364 463.177 2.59364C459.466 2.59364 456.46 1.43278 456.46 0H443.155C443.155 1.43278 440.149 2.59364 436.439 2.59364C432.728 2.59364 429.722 1.43278 429.722 0H419.793C419.793 1.43278 416.787 2.59364 413.077 2.59364C409.367 2.59364 406.361 1.43278 406.361 0H396.44C396.44 1.43278 393.434 2.59364 389.724 2.59364C386.014 2.59364 383.008 1.43278 383.008 0H373.087C373.087 1.43278 370.081 2.59364 366.371 2.59364C362.661 2.59364 359.655 1.43278 359.655 0H349.725C349.725 1.43278 346.719 2.59364 343.009 2.59364C339.299 2.59364 336.293 1.43278 336.293 0H326.372C326.372 1.43278 323.366 2.59364 319.656 2.59364C315.946 2.59364 312.94 1.43278 312.94 0H303.019C303.019 1.43278 300.013 2.59364 296.303 2.59364C292.593 2.59364 289.587 1.43278 289.587 0H279.667C279.667 1.43278 276.661 2.59364 272.95 2.59364C269.24 2.59364 266.234 1.43278 266.234 0H256.314C256.314 1.43278 253.308 2.59364 249.598 2.59364C245.887 2.59364 242.881 1.43278 242.881 0H232.961C232.961 1.43278 229.955 2.59364 226.245 2.59364C222.535 2.59364 219.529 1.43278 219.529 0H209.608C209.608 1.43278 206.602 2.59364 202.892 2.59364C199.182 2.59364 196.176 1.43278 196.176 0H186.255C186.255 1.43278 183.249 2.59364 179.539 2.59364C175.829 2.59364 172.823 1.43278 172.823 0H162.902C162.902 1.43278 159.896 2.59364 156.186 2.59364C152.476 2.59364 149.47 1.43278 149.47 0H139.549C139.549 1.43278 136.543 2.59364 132.833 2.59364C129.123 2.59364 126.117 1.43278 126.117 0H116.187C116.187 1.43278 113.181 2.59364 109.471 2.59364C105.761 2.59364 102.755 1.43278 102.755 0H90V4.90142C93.7101 4.90142 96.7161 6.06228 96.7161 7.49506C96.7161 8.92784 93.7101 10.0887 90 10.0887V13.9234C93.7101 13.9234 96.7161 15.0842 96.7161 16.517C96.7161 17.9498 93.7101 19.1107 90 19.1107V22.9453C93.7101 22.9453 96.7161 24.1062 96.7161 25.539C96.7161 26.9718 93.7101 28.1326 90 28.1326V31.9638C93.7101 31.9638 96.7161 33.1247 96.7161 34.5575C96.7161 35.9902 93.7101 37.1511 90 37.1511V40.9823C93.7101 40.9823 96.7161 42.1432 96.7161 43.5759C96.7161 45.0087 93.7101 46.1696 90 46.1696V50.0008C93.7101 50.0008 96.7161 51.1616 96.7161 52.5944C96.7161 54.0272 93.7101 55.188 90 55.188V59.0192C93.7101 59.0192 96.7161 60.1801 96.7161 61.6129C96.7161 63.0457 93.7101 64.2065 90 64.2065V68.0377C93.7101 68.0377 96.7161 69.1986 96.7161 70.6314C96.7161 72.0641 93.7101 73.225 90 73.225V77.0562C93.7101 77.0562 96.7161 78.2171 96.7161 79.6498C96.7161 81.0826 93.7101 82.2435 90 82.2435V86.0747C93.7101 86.0747 96.7161 87.2355 96.7161 88.6683C96.7161 90.1011 93.7101 91.2619 90 91.2619V95.0931C93.7101 95.0931 96.7161 96.254 96.7161 97.6868C96.7161 99.1196 93.7101 100.28 90 100.28V104.115C93.7101 104.115 96.7161 105.276 96.7161 106.709C96.7161 108.142 93.7101 109.302 90 109.302V113.134C93.7101 113.134 96.7161 114.294 96.7161 115.727C96.7161 117.16 93.7101 118.321 90 118.321V122.152C93.7101 122.152 96.7161 123.313 96.7161 124.746C96.7161 126.178 93.7101 127.339 90 127.339V131.174C93.7101 131.174 96.7161 132.335 96.7161 133.768C96.7161 134.556 95.8044 135.26 94.36 135.737H90V141.263H94.36C95.7953 141.737 96.7161 142.444 96.7161 143.232C96.7161 144.665 93.7101 145.826 90 145.826V149.661C93.7101 149.661 96.7161 150.822 96.7161 152.254C96.7161 153.687 93.7101 154.848 90 154.848V158.683C93.7101 158.683 96.7161 159.843 96.7161 161.276C96.7161 162.709 93.7101 163.87 90 163.87V167.701C93.7101 167.701 96.7161 168.862 96.7161 170.295C96.7161 171.728 93.7101 172.888 90 172.888V176.72C93.7101 176.72 96.7161 177.88 96.7161 179.313C96.7161 180.746 93.7101 181.907 90 181.907V185.738C93.7101 185.738 96.7161 186.899 96.7161 188.332C96.7161 189.764 93.7101 190.925 90 190.925V194.757C93.7101 194.757 96.7161 195.917 96.7161 197.35C96.7161 198.783 93.7101 199.944 90 199.944V203.775C93.7101 203.775 96.7161 204.936 96.7161 206.369C96.7161 207.801 93.7101 208.962 90 208.962V212.793C93.7101 212.793 96.7161 213.954 96.7161 215.387C96.7161 216.82 93.7101 217.981 90 217.981V221.812C93.7101 221.812 96.7161 222.973 96.7161 224.406C96.7161 225.838 93.7101 226.999 90 226.999V230.83C93.7101 230.83 96.7161 231.991 96.7161 233.424C96.7161 234.857 93.7101 236.018 90 236.018V239.852C93.7101 239.852 96.7161 241.013 96.7161 242.446C96.7161 243.879 93.7101 245.04 90 245.04V248.871C93.7101 248.871 96.7161 250.032 96.7161 251.465C96.7161 252.897 93.7101 254.058 90 254.058V257.889C93.7101 257.889 96.7161 259.05 96.7161 260.483C96.7161 261.916 93.7101 263.077 90 263.077V266.911C93.7101 266.911 96.7161 268.072 96.7161 269.505C96.7161 270.938 93.7101 272.099 90 272.099V277H102.692C102.692 275.567 105.698 274.406 109.408 274.406C113.118 274.406 116.124 275.567 116.124 277H126.054C126.054 275.567 129.06 274.406 132.77 274.406C136.48 274.406 139.486 275.567 139.486 277H149.407C149.407 275.567 152.413 274.406 156.123 274.406C159.833 274.406 162.839 275.567 162.839 277H172.76C172.76 275.567 175.766 274.406 179.476 274.406C183.186 274.406 186.192 275.567 186.192 277H196.113C196.113 275.567 199.118 274.406 202.829 274.406C206.539 274.406 209.545 275.567 209.545 277H219.465C219.465 275.567 222.471 274.406 226.181 274.406C229.892 274.406 232.898 275.567 232.898 277H242.818C242.818 275.567 245.824 274.406 249.534 274.406C253.244 274.406 256.25 275.567 256.25 277H266.171C266.171 275.567 269.177 274.406 272.887 274.406C276.597 274.406 279.603 275.567 279.603 277H289.524C289.524 275.567 292.53 274.406 296.24 274.406C299.95 274.406 302.956 275.567 302.956 277H312.877C312.877 275.567 315.883 274.406 319.593 274.406C323.303 274.406 326.309 275.567 326.309 277H336.23C336.23 275.567 339.236 274.406 342.946 274.406C346.656 274.406 349.662 275.567 349.662 277H359.592C359.592 275.567 362.598 274.406 366.308 274.406C370.018 274.406 373.024 275.567 373.024 277H382.945C382.945 275.567 385.951 274.406 389.661 274.406C393.371 274.406 396.377 275.567 396.377 277H406.297C406.297 275.567 409.303 274.406 413.013 274.406C416.724 274.406 419.73 275.567 419.73 277H429.659C429.659 275.567 432.665 274.406 436.375 274.406C440.086 274.406 443.091 275.567 443.091 277H456.397C456.397 275.567 459.403 274.406 463.113 274.406C466.824 274.406 469.829 275.567 469.829 277H479.759C479.759 275.567 482.765 274.406 486.475 274.406C490.185 274.406 493.191 275.567 493.191 277H503.112C503.112 275.567 506.118 274.406 509.828 274.406C513.538 274.406 516.544 275.567 516.544 277H526.465C526.465 275.567 529.471 274.406 533.181 274.406C536.891 274.406 539.897 275.567 539.897 277H549.818C549.818 275.567 552.824 274.406 556.534 274.406C560.244 274.406 563.25 275.567 563.25 277H573.171C573.171 275.567 576.177 274.406 579.887 274.406C583.597 274.406 586.603 275.567 586.603 277H596.524C596.524 275.567 599.53 274.406 603.24 274.406C606.95 274.406 609.956 275.567 609.956 277H619.876C619.876 275.567 622.882 274.406 626.593 274.406C630.303 274.406 633.309 275.567 633.309 277H643.229C643.229 275.567 646.235 274.406 649.945 274.406C653.656 274.406 656.662 275.567 656.662 277H666.582C666.582 275.567 669.588 274.406 673.298 274.406C677.008 274.406 680.014 275.567 680.014 277H689.935C689.935 275.567 692.941 274.406 696.651 274.406C700.361 274.406 703.367 275.567 703.367 277H713.297C713.297 275.567 716.303 274.406 720.004 274.406C723.705 274.406 726.72 275.567 726.72 277H736.641C736.641 275.567 739.647 274.406 743.357 274.406C747.067 274.406 750.073 275.567 750.073 277H759.994C759.994 275.567 763 274.406 766.71 274.406C770.42 274.406 773.426 275.567 773.426 277H783.356C783.356 275.567 786.362 274.406 790.072 274.406C793.782 274.406 796.788 275.567 796.788 277H809.48V272.099C805.77 272.099 802.764 270.938 802.764 269.505C802.764 268.072 805.77 266.911 809.48 266.911V263.077C805.77 263.077 802.764 261.916 802.764 260.483C802.764 259.05 805.77 257.889 809.48 257.889V254.058C805.77 254.058 802.764 252.897 802.764 251.465C802.764 250.032 805.77 248.871 809.48 248.871V245.04C805.77 245.04 802.764 243.879 802.764 242.446C802.764 241.013 805.77 239.852 809.48 239.852V236.018C805.77 236.018 802.764 234.857 802.764 233.424C802.764 231.991 805.77 230.83 809.48 230.83V226.999C805.77 226.999 802.764 225.838 802.764 224.406C802.764 222.973 805.77 221.812 809.48 221.812V217.981C805.77 217.981 802.764 216.82 802.764 215.387C802.764 213.954 805.77 212.793 809.48 212.793V208.962C805.77 208.962 802.764 207.801 802.764 206.369C802.764 204.936 805.77 203.775 809.48 203.775V199.944C805.77 199.944 802.764 198.783 802.764 197.35C802.764 195.917 805.77 194.757 809.48 194.757V190.925C805.77 190.925 802.764 189.764 802.764 188.332C802.764 186.899 805.77 185.738 809.48 185.738V181.907C805.77 181.907 802.764 180.746 802.764 179.313C802.764 177.88 805.77 176.72 809.48 176.72V172.888C805.77 172.888 802.764 171.728 802.764 170.295C802.764 168.862 805.77 167.701 809.48 167.701V163.87C805.77 163.87 802.764 162.709 802.764 161.276C802.764 159.843 805.77 158.683 809.48 158.683V154.851C805.77 154.851 802.764 153.691 802.764 152.258C802.764 150.825 805.77 149.664 809.48 149.664V145.829C805.77 145.829 802.764 144.669 802.764 143.236C802.764 142.448 803.675 141.74 805.12 141.266H809.48V135.741H805.12C803.684 135.267 802.764 134.559 802.764 133.771C802.764 132.338 805.77 131.178 809.48 131.178V127.343C805.77 127.343 802.764 126.182 802.764 124.749C802.764 123.316 805.77 122.156 809.48 122.156V118.324C805.77 118.324 802.764 117.163 802.764 115.731C802.764 114.298 805.77 113.137 809.48 113.137V109.306C805.77 109.306 802.764 108.145 802.764 106.712C802.764 105.279 805.77 104.119 809.48 104.119V100.284C805.77 100.284 802.764 99.123 802.764 97.6903C802.764 96.2575 805.77 95.0966 809.48 95.0966V91.2654C805.77 91.2654 802.764 90.1046 802.764 88.6718C802.764 87.239 805.77 86.0782 809.48 86.0782V82.247C805.77 82.247 802.764 81.0861 802.764 79.6533C802.764 78.2205 805.77 77.0597 809.48 77.0597V73.2285C805.77 73.2285 802.764 72.0676 802.764 70.6348C802.764 69.2021 805.77 68.0412 809.48 68.0412V64.21C805.77 64.21 802.764 63.0491 802.764 61.6164C802.764 60.1836 805.77 59.0227 809.48 59.0227V55.1915C805.77 55.1915 802.764 54.0307 802.764 52.5979C802.764 51.1651 805.77 50.0043 809.48 50.0043V46.1731C805.77 46.1731 802.764 45.0122 802.764 43.5794C802.764 42.1466 805.77 40.9858 809.48 40.9858V37.1546C805.77 37.1546 802.764 35.9937 802.764 34.5609C802.764 33.1282 805.77 31.9673 809.48 31.9673V28.1361C805.77 28.1361 802.764 26.9752 802.764 25.5425C802.764 24.1097 805.77 22.9488 809.48 22.9488V19.1176C805.77 19.1176 802.764 17.9568 802.764 16.524C802.764 15.0912 805.77 13.9304 809.48 13.9304V10.0957C805.77 10.0957 802.764 8.93481 802.764 7.50203C802.764 6.06926 805.77 4.90839 809.48 4.90839L809.543 4.90142Z" fill="#662809"/>
<path d="M1489 4.90142V0H1476.31C1476.31 1.43278 1473.3 2.59364 1469.59 2.59364C1465.88 2.59364 1462.88 1.43278 1462.88 0H1452.95C1452.95 1.43278 1449.94 2.59364 1446.23 2.59364C1442.52 2.59364 1439.51 1.43278 1439.51 0H1429.59C1429.59 1.43278 1426.59 2.59364 1422.88 2.59364C1419.17 2.59364 1416.16 1.43278 1416.16 0H1406.24C1406.24 1.43278 1403.23 2.59364 1399.52 2.59364C1395.81 2.59364 1392.82 1.43278 1392.82 0H1382.89C1382.89 1.43278 1379.88 2.59364 1376.17 2.59364C1372.46 2.59364 1369.46 1.43278 1369.46 0H1359.53C1359.53 1.43278 1356.53 2.59364 1352.82 2.59364C1349.11 2.59364 1346.1 1.43278 1346.1 0H1336.18C1336.18 1.43278 1333.18 2.59364 1329.47 2.59364C1325.76 2.59364 1322.75 1.43278 1322.75 0H1312.83C1312.83 1.43278 1309.82 2.59364 1306.11 2.59364C1302.4 2.59364 1299.4 1.43278 1299.4 0H1289.48C1289.48 1.43278 1286.47 2.59364 1282.76 2.59364C1279.05 2.59364 1276.04 1.43278 1276.04 0H1266.12C1266.12 1.43278 1263.12 2.59364 1259.41 2.59364C1255.7 2.59364 1252.69 1.43278 1252.69 0H1242.77C1242.77 1.43278 1239.76 2.59364 1236.05 2.59364C1232.34 2.59364 1229.34 1.43278 1229.34 0H1219.42C1219.42 1.43278 1216.41 2.59364 1212.7 2.59364C1208.99 2.59364 1205.99 1.43278 1205.99 0H1196.06C1196.06 1.43278 1193.06 2.59364 1189.35 2.59364C1185.64 2.59364 1182.63 1.43278 1182.63 0H1172.71C1172.71 1.43278 1169.71 2.59364 1166 2.59364C1162.29 2.59364 1159.28 1.43278 1159.28 0H1149.35C1149.35 1.43278 1146.34 2.59364 1142.63 2.59364C1138.92 2.59364 1135.92 1.43278 1135.92 0H1122.61C1122.61 1.43278 1119.61 2.59364 1115.9 2.59364C1112.19 2.59364 1109.18 1.43278 1109.18 0H1099.25C1099.25 1.43278 1096.24 2.59364 1092.53 2.59364C1088.82 2.59364 1085.82 1.43278 1085.82 0H1075.9C1075.9 1.43278 1072.89 2.59364 1069.18 2.59364C1065.47 2.59364 1062.46 1.43278 1062.46 0H1052.54C1052.54 1.43278 1049.54 2.59364 1045.83 2.59364C1042.12 2.59364 1039.11 1.43278 1039.11 0H1029.18C1029.18 1.43278 1026.18 2.59364 1022.47 2.59364C1018.76 2.59364 1015.75 1.43278 1015.75 0H1005.83C1005.83 1.43278 1002.82 2.59364 999.113 2.59364C995.403 2.59364 992.397 1.43278 992.397 0H982.477C982.477 1.43278 979.471 2.59364 975.761 2.59364C972.05 2.59364 969.044 1.43278 969.044 0H959.124C959.124 1.43278 956.118 2.59364 952.408 2.59364C948.698 2.59364 945.692 1.43278 945.692 0H935.771C935.771 1.43278 932.765 2.59364 929.055 2.59364C925.345 2.59364 922.339 1.43278 922.339 0H912.418C912.418 1.43278 909.412 2.59364 905.702 2.59364C901.992 2.59364 898.986 1.43278 898.986 0H889.065C889.065 1.43278 886.059 2.59364 882.349 2.59364C878.639 2.59364 875.633 1.43278 875.633 0H865.712C865.712 1.43278 862.706 2.59364 858.996 2.59364C855.286 2.59364 852.28 1.43278 852.28 0H842.359C842.359 1.43278 839.353 2.59364 835.643 2.59364C831.933 2.59364 828.927 1.43278 828.927 0H819.007C819.007 1.43278 816.001 2.59364 812.29 2.59364C808.58 2.59364 805.574 1.43278 805.574 0H795.645C795.645 1.43278 792.639 2.59364 788.929 2.59364C785.218 2.59364 782.212 1.43278 782.212 0H769.457V4.90142C773.167 4.90142 776.173 6.06228 776.173 7.49506C776.173 8.92784 773.167 10.0887 769.457 10.0887V13.9234C773.167 13.9234 776.173 15.0842 776.173 16.517C776.173 17.9498 773.167 19.1107 769.457 19.1107V22.9453C773.167 22.9453 776.173 24.1062 776.173 25.539C776.173 26.9718 773.167 28.1326 769.457 28.1326V31.9638C773.167 31.9638 776.173 33.1247 776.173 34.5575C776.173 35.9902 773.167 37.1511 769.457 37.1511V40.9823C773.167 40.9823 776.173 42.1432 776.173 43.5759C776.173 45.0087 773.167 46.1696 769.457 46.1696V50.0008C773.167 50.0008 776.173 51.1616 776.173 52.5944C776.173 54.0272 773.167 55.188 769.457 55.188V59.0192C773.167 59.0192 776.173 60.1801 776.173 61.6129C776.173 63.0457 773.167 64.2065 769.457 64.2065V68.0377C773.167 68.0377 776.173 69.1986 776.173 70.6314C776.173 72.0641 773.167 73.225 769.457 73.225V77.0562C773.167 77.0562 776.173 78.2171 776.173 79.6498C776.173 81.0826 773.167 82.2435 769.457 82.2435V86.0747C773.167 86.0747 776.173 87.2355 776.173 88.6683C776.173 90.1011 773.167 91.2619 769.457 91.2619V95.0931C773.167 95.0931 776.173 96.254 776.173 97.6868C776.173 99.1196 773.167 100.28 769.457 100.28V104.115C773.167 104.115 776.173 105.276 776.173 106.709C776.173 108.142 773.167 109.302 769.457 109.302V113.134C773.167 113.134 776.173 114.294 776.173 115.727C776.173 117.16 773.167 118.321 769.457 118.321V122.152C773.167 122.152 776.173 123.313 776.173 124.746C776.173 126.178 773.167 127.339 769.457 127.339V131.174C773.167 131.174 776.173 132.335 776.173 133.768C776.173 134.556 775.262 135.26 773.817 135.737H769.457V141.263H773.817C775.253 141.737 776.173 142.444 776.173 143.232C776.173 144.665 773.167 145.826 769.457 145.826V149.661C773.167 149.661 776.173 150.822 776.173 152.254C776.173 153.687 773.167 154.848 769.457 154.848V158.683C773.167 158.683 776.173 159.843 776.173 161.276C776.173 162.709 773.167 163.87 769.457 163.87V167.701C773.167 167.701 776.173 168.862 776.173 170.295C776.173 171.728 773.167 172.888 769.457 172.888V176.72C773.167 176.72 776.173 177.88 776.173 179.313C776.173 180.746 773.167 181.907 769.457 181.907V185.738C773.167 185.738 776.173 186.899 776.173 188.332C776.173 189.764 773.167 190.925 769.457 190.925V194.757C773.167 194.757 776.173 195.917 776.173 197.35C776.173 198.783 773.167 199.944 769.457 199.944V203.775C773.167 203.775 776.173 204.936 776.173 206.369C776.173 207.801 773.167 208.962 769.457 208.962V212.793C773.167 212.793 776.173 213.954 776.173 215.387C776.173 216.82 773.167 217.981 769.457 217.981V221.812C773.167 221.812 776.173 222.973 776.173 224.406C776.173 225.838 773.167 226.999 769.457 226.999V230.83C773.167 230.83 776.173 231.991 776.173 233.424C776.173 234.857 773.167 236.018 769.457 236.018V239.852C773.167 239.852 776.173 241.013 776.173 242.446C776.173 243.879 773.167 245.04 769.457 245.04V248.871C773.167 248.871 776.173 250.032 776.173 251.465C776.173 252.897 773.167 254.058 769.457 254.058V257.889C773.167 257.889 776.173 259.05 776.173 260.483C776.173 261.916 773.167 263.077 769.457 263.077V266.911C773.167 266.911 776.173 268.072 776.173 269.505C776.173 270.938 773.167 272.099 769.457 272.099V277H782.149C782.149 275.567 785.155 274.406 788.865 274.406C792.575 274.406 795.581 275.567 795.581 277H805.511C805.511 275.567 808.517 274.406 812.227 274.406C815.937 274.406 818.943 275.567 818.943 277H828.864C828.864 275.567 831.87 274.406 835.58 274.406C839.29 274.406 842.296 275.567 842.296 277H852.217C852.217 275.567 855.223 274.406 858.933 274.406C862.643 274.406 865.649 275.567 865.649 277H875.57C875.57 275.567 878.576 274.406 882.286 274.406C885.996 274.406 889.002 275.567 889.002 277H898.923C898.923 275.567 901.929 274.406 905.639 274.406C909.349 274.406 912.355 275.567 912.355 277H922.276C922.276 275.567 925.282 274.406 928.992 274.406C932.702 274.406 935.708 275.567 935.708 277H945.628C945.628 275.567 948.634 274.406 952.345 274.406C956.055 274.406 959.061 275.567 959.061 277H968.981C968.981 275.567 971.987 274.406 975.697 274.406C979.407 274.406 982.413 275.567 982.413 277H992.334C992.334 275.567 995.34 274.406 999.05 274.406C1002.76 274.406 1005.77 275.567 1005.77 277H1015.69C1015.69 275.567 1018.69 274.406 1022.4 274.406C1026.11 274.406 1029.12 275.567 1029.12 277H1039.05C1039.05 275.567 1042.05 274.406 1045.77 274.406C1049.48 274.406 1052.48 275.567 1052.48 277H1062.4C1062.4 275.567 1065.41 274.406 1069.12 274.406C1072.83 274.406 1075.83 275.567 1075.83 277H1085.75C1085.75 275.567 1088.76 274.406 1092.47 274.406C1096.18 274.406 1099.19 275.567 1099.19 277H1109.12C1109.12 275.567 1112.12 274.406 1115.83 274.406C1119.54 274.406 1122.55 275.567 1122.55 277H1135.85C1135.85 275.567 1138.86 274.406 1142.57 274.406C1146.28 274.406 1149.29 275.567 1149.29 277H1159.22C1159.22 275.567 1162.22 274.406 1165.93 274.406C1169.64 274.406 1172.65 275.567 1172.65 277H1182.57C1182.57 275.567 1185.58 274.406 1189.29 274.406C1193 274.406 1196 275.567 1196 277H1205.92C1205.92 275.567 1208.93 274.406 1212.64 274.406C1216.35 274.406 1219.35 275.567 1219.35 277H1229.28C1229.28 275.567 1232.28 274.406 1235.99 274.406C1239.7 274.406 1242.71 275.567 1242.71 277H1252.63C1252.63 275.567 1255.63 274.406 1259.34 274.406C1263.05 274.406 1266.06 275.567 1266.06 277H1275.98C1275.98 275.567 1278.99 274.406 1282.7 274.406C1286.41 274.406 1289.41 275.567 1289.41 277H1299.33C1299.33 275.567 1302.34 274.406 1306.05 274.406C1309.76 274.406 1312.77 275.567 1312.77 277H1322.69C1322.69 275.567 1325.69 274.406 1329.4 274.406C1333.11 274.406 1336.12 275.567 1336.12 277H1346.04C1346.04 275.567 1349.05 274.406 1352.76 274.406C1356.47 274.406 1359.47 275.567 1359.47 277H1369.39C1369.39 275.567 1372.4 274.406 1376.11 274.406C1379.82 274.406 1382.82 275.567 1382.82 277H1392.75C1392.75 275.567 1395.76 274.406 1399.46 274.406C1403.16 274.406 1406.18 275.567 1406.18 277H1416.1C1416.1 275.567 1419.1 274.406 1422.81 274.406C1426.52 274.406 1429.53 275.567 1429.53 277H1439.45C1439.45 275.567 1442.46 274.406 1446.17 274.406C1449.88 274.406 1452.88 275.567 1452.88 277H1462.81C1462.81 275.567 1465.82 274.406 1469.53 274.406C1473.24 274.406 1476.25 275.567 1476.25 277H1488.94V272.099C1485.23 272.099 1482.22 270.938 1482.22 269.505C1482.22 268.072 1485.23 266.911 1488.94 266.911V263.077C1485.23 263.077 1482.22 261.916 1482.22 260.483C1482.22 259.05 1485.23 257.889 1488.94 257.889V254.058C1485.23 254.058 1482.22 252.897 1482.22 251.465C1482.22 250.032 1485.23 248.871 1488.94 248.871V245.04C1485.23 245.04 1482.22 243.879 1482.22 242.446C1482.22 241.013 1485.23 239.852 1488.94 239.852V236.018C1485.23 236.018 1482.22 234.857 1482.22 233.424C1482.22 231.991 1485.23 230.83 1488.94 230.83V226.999C1485.23 226.999 1482.22 225.838 1482.22 224.406C1482.22 222.973 1485.23 221.812 1488.94 221.812V217.981C1485.23 217.981 1482.22 216.82 1482.22 215.387C1482.22 213.954 1485.23 212.793 1488.94 212.793V208.962C1485.23 208.962 1482.22 207.801 1482.22 206.369C1482.22 204.936 1485.23 203.775 1488.94 203.775V199.944C1485.23 199.944 1482.22 198.783 1482.22 197.35C1482.22 195.917 1485.23 194.757 1488.94 194.757V190.925C1485.23 190.925 1482.22 189.764 1482.22 188.332C1482.22 186.899 1485.23 185.738 1488.94 185.738V181.907C1485.23 181.907 1482.22 180.746 1482.22 179.313C1482.22 177.88 1485.23 176.72 1488.94 176.72V172.888C1485.23 172.888 1482.22 171.728 1482.22 170.295C1482.22 168.862 1485.23 167.701 1488.94 167.701V163.87C1485.23 163.87 1482.22 162.709 1482.22 161.276C1482.22 159.843 1485.23 158.683 1488.94 158.683V154.851C1485.23 154.851 1482.22 153.691 1482.22 152.258C1482.22 150.825 1485.23 149.664 1488.94 149.664V145.829C1485.23 145.829 1482.22 144.669 1482.22 143.236C1482.22 142.448 1483.13 141.74 1484.58 141.266H1488.94V135.741H1484.58C1483.14 135.267 1482.22 134.559 1482.22 133.771C1482.22 132.338 1485.23 131.178 1488.94 131.178V127.343C1485.23 127.343 1482.22 126.182 1482.22 124.749C1482.22 123.316 1485.23 122.156 1488.94 122.156V118.324C1485.23 118.324 1482.22 117.163 1482.22 115.731C1482.22 114.298 1485.23 113.137 1488.94 113.137V109.306C1485.23 109.306 1482.22 108.145 1482.22 106.712C1482.22 105.279 1485.23 104.119 1488.94 104.119V100.284C1485.23 100.284 1482.22 99.123 1482.22 97.6903C1482.22 96.2575 1485.23 95.0966 1488.94 95.0966V91.2654C1485.23 91.2654 1482.22 90.1046 1482.22 88.6718C1482.22 87.239 1485.23 86.0782 1488.94 86.0782V82.247C1485.23 82.247 1482.22 81.0861 1482.22 79.6533C1482.22 78.2205 1485.23 77.0597 1488.94 77.0597V73.2285C1485.23 73.2285 1482.22 72.0676 1482.22 70.6348C1482.22 69.2021 1485.23 68.0412 1488.94 68.0412V64.21C1485.23 64.21 1482.22 63.0491 1482.22 61.6164C1482.22 60.1836 1485.23 59.0227 1488.94 59.0227V55.1915C1485.23 55.1915 1482.22 54.0307 1482.22 52.5979C1482.22 51.1651 1485.23 50.0043 1488.94 50.0043V46.1731C1485.23 46.1731 1482.22 45.0122 1482.22 43.5794C1482.22 42.1466 1485.23 40.9858 1488.94 40.9858V37.1546C1485.23 37.1546 1482.22 35.9937 1482.22 34.5609C1482.22 33.1282 1485.23 31.9673 1488.94 31.9673V28.1361C1485.23 28.1361 1482.22 26.9752 1482.22 25.5425C1482.22 24.1097 1485.23 22.9488 1488.94 22.9488V19.1176C1485.23 19.1176 1482.22 17.9568 1482.22 16.524C1482.22 15.0912 1485.23 13.9304 1488.94 13.9304V10.0957C1485.23 10.0957 1482.22 8.93481 1482.22 7.50203C1482.22 6.06926 1485.23 4.90839 1488.94 4.90839L1489 4.90142Z" fill="#662809"/>
<path d="M384.682 49.0238C380.198 50.2718 375.956 52.7929 372.246 55.6633C363.52 62.4193 355.842 70.4899 344.029 70.6896C333.082 70.8643 322.767 65.556 312.893 61.4958C303.893 57.7933 294.759 54.8646 284.918 55.0643C275.435 55.2556 265.985 57.9181 257.816 62.7355C257.467 62.9435 257.101 63.1598 256.735 63.3845C246.952 52.1439 226.638 52.8844 213.37 55.7632C203.047 58.0013 193.156 62.3444 184.547 68.4515C175.479 74.883 168.409 85.6992 156.072 84.8256C149.118 84.3347 141.565 81.0233 135.209 76.5803C136.732 74.6417 138.038 72.4868 139.053 70.1072C141.648 64.0418 141.814 56.7699 137.663 51.3036C134.012 46.4862 127.265 45.6957 123.206 50.5048C118.547 56.0128 120.036 63.6674 124.204 68.934C126.483 71.8128 129.411 74.467 132.639 76.8049C132.531 76.9297 132.414 77.0545 132.298 77.1794C125.701 84.1933 115.935 88.0871 106.402 88.4366C82.9441 89.3019 63.2791 73.5185 43.2813 63.6674C30.0216 57.111 14.4659 52.5765 0 56.0627L0.0915038 57.8183C12.719 54.848 27.2099 58.1428 38.8725 63.4677C58.3462 72.3536 76.0147 86.8557 97.8176 89.6929C110.612 91.357 125.443 87.6961 134.136 77.845C138.312 80.6738 142.887 82.9702 147.188 84.551C156.155 87.8542 164.898 87.0388 172.427 80.9401C176.369 77.7534 179.847 74.0593 183.914 71.0141C188.656 67.4697 193.813 64.4744 199.237 62.1115C208.986 57.8765 219.609 55.6134 230.24 55.6966C238.958 55.7632 249.14 57.7767 255.179 64.333C249.123 68.2767 242.319 74.259 242.801 81.7139C243.226 88.187 249.539 93.1125 255.579 89.4849C262.084 85.5744 263.115 76.8299 260.728 70.232C259.962 68.1187 258.939 66.2633 257.725 64.6242C261.202 62.6107 264.704 61.0631 267.333 60.098C278.371 56.0461 290.367 55.7465 301.613 59.1578C312.827 62.5608 323.108 68.6678 334.571 71.297C344.637 73.61 354.028 71.8711 362.422 65.7807C369.126 60.9134 376.43 53.159 384.74 50.613L384.657 49.0155L384.682 49.0238ZM126.334 68.7427C122.715 64.6159 120.594 58.9997 123.164 53.7497C125.685 48.6078 131.815 47.2599 135.725 51.678C141.947 58.6919 139.019 68.8259 133.72 75.4987C130.925 73.402 128.397 71.1056 126.334 68.7427ZM258.723 69.8243C260.445 73.8929 260.894 78.7685 259.056 82.887C257.899 85.4912 255.687 88.0705 252.842 88.8359C248.89 89.9009 245.754 86.8557 244.823 83.2781C242.959 76.0977 249.256 69.8992 256.219 65.5477C257.209 66.8207 258.057 68.2351 258.723 69.816V69.8243Z" fill="white"/>
<path d="M27.7174 61.7038C27.2432 60.98 23.8659 60.2311 23.1256 60.6804C23.1256 60.6804 20.3971 62.1198 19.9812 63.9835C19.5652 65.8473 20.0227 73.6766 22.5183 74.234C25.0222 74.7915 28.7489 67.8857 29.1648 66.022C29.5807 64.1583 27.7174 61.7038 27.7174 61.7038Z" fill="#AB0F0F"/>
<path d="M27.6757 58.3008C27.0519 58.1594 26.1368 57.9597 26.1368 57.9597C26.1368 57.9597 25.2218 57.7517 24.5979 57.6186C23.974 57.4771 23.7577 57.8183 23.7577 57.8183L23.1172 60.6887L25.4131 61.1963L27.709 61.7038L28.3495 58.8333C28.3495 58.8333 28.2913 58.434 27.6757 58.3008Z" fill="#1A2F42"/>
<path d="M21.0378 66.0719C21.0878 64.1832 21.2125 62.1531 23.5417 61.6289C25.5881 61.163 27.4764 62.2446 28.2916 64.0168C29.215 66.022 28.4247 67.9938 27.2601 69.6745C26.3118 71.0474 24.2571 74.0093 22.5185 71.6048C21.4454 70.1238 21.0046 67.7942 21.0462 66.0719H21.0378Z" fill="#D71E17"/>
<path d="M23.8909 65.0318C24.4316 63.1931 26.3948 61.8369 27.7756 64.5576C28.5493 66.0802 27.9503 68.9839 25.6711 68.4015C23.841 67.9356 23.4999 66.3631 23.8909 65.0318Z" fill="#EE3329"/>
<path d="M27.5261 59.4407C28.5077 61.2462 25.1553 61.8286 25.3383 59.8651C25.4381 58.8167 27.0353 58.5338 27.5261 59.4407Z" fill="#3F221A"/>
<path d="M114.937 91.5151C114.164 91.124 110.861 92.1641 110.454 92.9212C110.454 92.9212 108.806 95.5337 109.38 97.3475C109.954 99.1613 114.255 105.726 116.701 104.961C119.146 104.195 118.93 96.3491 118.356 94.527C117.782 92.7132 114.946 91.5068 114.946 91.5068L114.937 91.5151Z" fill="#FC6911"/>
<path d="M113.199 88.5864C112.591 88.7777 111.693 89.0606 111.693 89.0606C111.693 89.0606 110.795 89.3435 110.187 89.5349C109.58 89.7262 109.563 90.1256 109.563 90.1256L110.445 92.9295L112.691 92.2223L114.937 91.5151L114.055 88.7112C114.055 88.7112 113.806 88.395 113.199 88.5864Z" fill="white"/>
<path d="M111.327 98.6371C110.429 96.9814 109.522 95.1593 111.277 93.5368C112.816 92.1141 114.987 92.1058 116.584 93.2373C118.381 94.5103 118.689 96.6153 118.523 98.6538C118.381 100.318 118.09 103.904 115.378 102.697C113.706 101.949 112.159 100.151 111.335 98.6371H111.327Z" fill="#FC9E2C"/>
<path d="M113.282 96.3075C112.833 94.4438 113.856 92.2888 116.41 93.9529C117.84 94.8847 118.772 97.6969 116.501 98.3376C114.688 98.8451 113.598 97.6553 113.282 96.3075Z" fill="#FFBA31"/>
<path d="M113.648 89.6513C115.395 90.7246 112.791 92.9045 111.959 91.1157C111.518 90.1588 112.766 89.1188 113.648 89.6513Z" fill="#3F221A"/>
<path d="M149.018 88.3201C148.661 87.5297 145.45 86.2483 144.651 86.5728C144.651 86.5728 141.723 87.5546 141.016 89.3268C140.309 91.099 139.502 98.9034 141.881 99.8519C144.26 100.8 149.052 94.5852 149.759 92.813C150.466 91.0408 149.018 88.3118 149.018 88.3118V88.3201Z" fill="#AB0F0F"/>
<path d="M149.526 84.9504C148.935 84.7174 148.062 84.368 148.062 84.368C148.062 84.368 147.188 84.0186 146.598 83.7856C146.007 83.5526 145.741 83.8438 145.741 83.8438L144.651 86.5728L146.839 87.4465L149.027 88.3201L150.116 85.5911C150.116 85.5911 150.125 85.1917 149.534 84.9504H149.526Z" fill="white"/>
<path d="M141.723 91.5483C142.072 89.6929 142.521 87.7127 144.901 87.563C146.988 87.4382 148.685 88.8027 149.201 90.683C149.792 92.813 148.694 94.6351 147.28 96.1078C146.123 97.3059 143.619 99.9018 142.288 97.2477C141.465 95.6086 141.398 93.2457 141.723 91.5483Z" fill="#D71E17"/>
<path d="M144.709 90.9825C145.541 89.2603 147.687 88.2286 148.619 91.1406C149.143 92.7714 148.087 95.5337 145.924 94.5935C144.194 93.8364 144.11 92.2306 144.709 90.9825Z" fill="#EE3329"/>
<path d="M149.193 86.057C149.867 87.9956 146.473 88.0372 146.964 86.1235C147.23 85.1002 148.852 85.0835 149.193 86.057Z" fill="#3F221A"/>
<path d="M238.259 59.241C237.727 58.5504 234.308 58.0429 233.609 58.5504C233.609 58.5504 230.989 60.1812 230.714 62.0699C230.432 63.9585 231.446 71.7379 233.984 72.1123C236.521 72.4867 239.74 65.3314 240.023 63.451C240.306 61.5623 238.268 59.241 238.268 59.241H238.259Z" fill="#AB0F0F"/>
<path d="M237.977 55.8464C237.344 55.7549 236.421 55.6134 236.421 55.6134C236.421 55.6134 235.489 55.472 234.865 55.3805C234.233 55.2889 234.042 55.6384 234.042 55.6384L233.609 58.5504L235.939 58.8916L238.268 59.2327L238.7 56.3206C238.7 56.3206 238.617 55.9296 237.985 55.8381L237.977 55.8464Z" fill="white"/>
<path d="M231.913 64.075C231.821 62.1863 231.804 60.1562 234.092 59.4656C236.097 58.8583 238.06 59.7984 239 61.5041C240.065 63.4344 239.424 65.4645 238.376 67.2201C237.528 68.6595 235.697 71.7546 233.784 69.4832C232.603 68.077 231.996 65.789 231.921 64.0667L231.913 64.075Z" fill="#D71E17"/>
<path d="M234.682 62.827C235.09 60.955 236.945 59.4573 238.525 62.0782C239.407 63.5425 239.016 66.4796 236.695 66.0636C234.84 65.7308 234.383 64.1832 234.682 62.8353V62.827Z" fill="#EE3329"/>
<path d="M237.91 57.0029C239.016 58.7335 235.714 59.5572 235.756 57.5853C235.772 56.5286 237.361 56.1376 237.91 57.0029Z" fill="#3F221A"/>
<path d="M324.864 71.1805C324.547 70.3734 321.395 68.9423 320.58 69.2336C320.58 69.2336 317.61 70.0822 316.828 71.8211C316.038 73.5601 314.873 81.3145 317.202 82.3795C319.54 83.4361 324.606 77.4456 325.396 75.715C326.186 73.9761 324.864 71.1888 324.864 71.1888V71.1805Z" fill="#AB0F0F"/>
<path d="M325.529 67.8441C324.947 67.5779 324.09 67.1951 324.09 67.1951C324.09 67.1951 323.233 66.8041 322.659 66.5462C322.077 66.2799 321.794 66.5711 321.794 66.5711L320.58 69.2502L322.717 70.2237L324.855 71.1971L326.07 68.518C326.07 68.518 326.095 68.1187 325.521 67.8524L325.529 67.8441Z" fill="white"/>
<path d="M317.427 74.0759C317.86 72.2372 318.4 70.2819 320.788 70.2403C322.884 70.207 324.506 71.6547 324.939 73.5517C325.429 75.7067 324.257 77.4706 322.768 78.8767C321.553 80.0249 318.941 82.5043 317.726 79.7919C316.978 78.1195 317.028 75.7483 317.419 74.0759H317.427Z" fill="#D71E17"/>
<path d="M320.438 73.6516C321.345 71.9709 323.541 71.039 324.34 73.9844C324.789 75.6401 323.608 78.3525 321.486 77.3125C319.798 76.4804 319.781 74.8663 320.438 73.6516Z" fill="#EE3329"/>
<path d="M325.146 68.934C325.737 70.8976 322.335 70.7894 322.917 68.9007C323.225 67.894 324.855 67.9522 325.146 68.934Z" fill="#3F221A"/>
<path d="M278.396 52.6514C279.087 53.1756 282.522 52.7679 283.063 52.0939C283.063 52.0939 285.159 49.8309 284.935 47.9422C284.71 46.0535 281.699 38.8066 279.145 39.1061C276.591 39.4057 275.368 47.1601 275.593 49.0488C275.818 50.9374 278.388 52.6514 278.388 52.6514H278.396Z" fill="#FC6911"/>
<path d="M279.561 55.8547C280.193 55.7798 281.125 55.6717 281.125 55.6717C281.125 55.6717 282.056 55.5635 282.689 55.4886C283.321 55.4137 283.412 55.0227 283.412 55.0227L283.063 52.1023L280.725 52.3769L278.388 52.6514L278.737 55.5718C278.737 55.5718 278.92 55.9296 279.553 55.8547H279.561Z" fill="white"/>
<path d="M284.011 45.2465C284.594 47.0436 285.143 48.9989 283.121 50.2635C281.341 51.3784 279.212 50.9791 277.856 49.5813C276.325 47.9921 276.408 45.8705 276.957 43.8986C277.398 42.2928 278.355 38.815 280.8 40.504C282.306 41.544 283.487 43.5991 284.02 45.2381L284.011 45.2465Z" fill="#FC9E2C"/>
<path d="M283.146 45.1716C283.238 47.0852 281.84 49.0155 279.636 46.9022C278.396 45.7207 278.005 42.7837 280.36 42.584C282.24 42.4176 283.08 43.7904 283.146 45.1716Z" fill="#FFBA31"/>
<path d="M279.32 54.7232C277.798 53.342 280.767 51.6863 281.25 53.5916C281.508 54.615 280.085 55.4054 279.32 54.7232Z" fill="#3F221A"/>
<path d="M366.648 55.7549C367.504 55.8797 370.316 53.8745 370.474 53.0259C370.474 53.0259 371.223 50.0306 370.116 48.483C369.01 46.9355 362.879 42.0266 360.8 43.5159C358.712 45.0052 361.357 52.3935 362.463 53.9494C363.57 55.4969 366.648 55.7632 366.648 55.7632V55.7549Z" fill="#009EB1"/>
<path d="M369.21 58.0013C369.725 57.6352 370.491 57.0861 370.491 57.0861C370.491 57.0861 371.256 56.537 371.772 56.1709C372.287 55.8048 372.188 55.4137 372.188 55.4137L370.482 53.0175L368.569 54.382L366.656 55.7465L368.361 58.1428C368.361 58.1428 368.694 58.3674 369.21 58.0013Z" fill="white"/>
<path d="M367.962 46.7108C369.334 48.0087 370.757 49.4565 369.592 51.5448C368.569 53.3753 366.506 54.0575 364.643 53.4751C362.538 52.8178 361.59 50.9125 361.124 48.924C360.741 47.3015 359.91 43.7987 362.863 44.1066C364.684 44.2979 366.706 45.521 367.962 46.7108Z" fill="#1BC7C7"/>
<path d="M366.673 46.5111C367.671 48.1419 367.38 50.5048 364.427 49.7227C362.771 49.2817 361.016 46.8938 362.979 45.5876C364.551 44.5392 365.949 45.338 366.673 46.5111Z" fill="#75DDDD"/>
<path d="M368.453 57.1277C366.456 56.6534 368.261 53.7663 369.601 55.214C370.316 55.9878 369.451 57.369 368.453 57.1277Z" fill="#3F221A"/>
<path d="M264.355 81.0066C263.565 81.3727 262.334 84.6009 262.675 85.3996C262.675 85.3996 263.706 88.3117 265.478 88.9939C267.258 89.6762 275.069 90.3668 275.984 87.9706C276.899 85.5743 270.61 80.8818 268.83 80.1995C267.05 79.5172 264.347 81.0066 264.347 81.0066H264.355Z" fill="#009EB1"/>
<path d="M260.978 80.549C260.753 81.1397 260.412 82.0217 260.412 82.0217C260.412 82.0217 260.079 82.9036 259.846 83.4943C259.622 84.0851 259.921 84.3513 259.921 84.3513L262.666 85.3997L263.506 83.2031L264.347 81.0066L261.601 79.9583C261.601 79.9583 261.202 79.9583 260.969 80.549H260.978Z" fill="white"/>
<path d="M267.699 88.2451C265.836 87.9206 263.848 87.5046 263.665 85.125C263.506 83.0367 264.846 81.3227 266.717 80.7736C268.839 80.1496 270.677 81.2146 272.166 82.6124C273.381 83.7522 276.018 86.215 273.381 87.5878C271.758 88.4365 269.388 88.5363 267.691 88.2368L267.699 88.2451Z" fill="#1BC7C7"/>
<path d="M267.083 85.2749C265.345 84.4678 264.288 82.3378 267.183 81.356C268.805 80.8069 271.584 81.822 270.677 84.0019C269.945 85.7408 268.339 85.849 267.092 85.2749H267.083Z" fill="#75DDDD"/>
<path d="M262.092 80.8568C264.022 80.1496 264.114 83.5526 262.192 83.0866C261.169 82.837 261.127 81.2063 262.092 80.8568Z" fill="#3F221A"/>
<path d="M141.415 51.7362C141.066 52.5349 142.28 55.7715 143.062 56.1459C143.062 56.1459 145.757 57.6518 147.546 56.9862C149.334 56.3206 155.657 51.6696 154.758 49.2734C153.86 46.8689 146.04 47.5095 144.252 48.1751C142.463 48.8408 141.415 51.7445 141.415 51.7445V51.7362Z" fill="#009EB1"/>
<path d="M138.587 53.6249C138.811 54.224 139.136 55.0976 139.136 55.0976C139.136 55.0976 139.469 55.9795 139.685 56.5703C139.901 57.161 140.309 57.1693 140.309 57.1693L143.062 56.1376L142.239 53.9328L141.415 51.7279L138.662 52.7596C138.662 52.7596 138.362 53.0259 138.578 53.6166L138.587 53.6249Z" fill="white"/>
<path d="M148.719 54.9561C147.113 55.9462 145.341 56.9446 143.628 55.2806C142.122 53.8162 141.997 51.653 143.046 49.9973C144.227 48.1336 146.306 47.7175 148.353 47.7758C150.025 47.8257 153.618 47.9256 152.554 50.7045C151.896 52.4185 150.183 54.0492 148.719 54.9561Z" fill="#1BC7C7"/>
<path d="M146.29 53.134C144.451 53.6748 142.247 52.7762 143.778 50.1304C144.634 48.6494 147.388 47.5678 148.145 49.8059C148.752 51.5948 147.621 52.7346 146.29 53.134Z" fill="#75DDDD"/>
<path d="M139.618 53.1257C140.6 51.3202 142.912 53.8079 141.174 54.7315C140.242 55.2224 139.136 54.0326 139.618 53.1257Z" fill="#3F221A"/>
<path d="M66.2323 73.2938C66.5567 74.1009 69.7011 75.5236 70.5246 75.2241C70.5246 75.2241 73.486 74.3671 74.2763 72.6282C75.0582 70.8893 76.2062 63.1265 73.8687 62.0782C71.5312 61.0215 66.4818 67.0287 65.6999 68.7676C64.9179 70.5065 66.2406 73.2938 66.2406 73.2938H66.2323Z" fill="#009EB1"/>
<path d="M65.5751 76.6302C66.1574 76.8881 67.0142 77.2792 67.0142 77.2792C67.0142 77.2792 67.871 77.6619 68.4533 77.9282C69.0356 78.1861 69.3184 77.9032 69.3184 77.9032L70.5246 75.2241L68.3784 74.259L66.2322 73.2938L65.026 75.9729C65.026 75.9729 65.0011 76.3723 65.5751 76.6385V76.6302Z" fill="white"/>
<path d="M74.6589 69.4332C74.2263 71.272 73.694 73.2356 71.3065 73.2772C69.2103 73.3188 67.5798 71.8794 67.1473 69.974C66.6482 67.8274 67.8211 66.0469 69.3018 64.6408C70.508 63.4926 73.12 61.0049 74.3428 63.7173C75.0998 65.3896 75.0582 67.7526 74.6589 69.4332Z" fill="#1BC7C7"/>
<path d="M74.3178 68.4348C73.4111 70.1238 71.2234 71.0557 70.4165 68.1103C69.9673 66.463 71.1402 63.7422 73.2614 64.7739C74.9584 65.606 74.975 67.2118 74.3178 68.4348Z" fill="#75DDDD"/>
<path d="M65.9577 75.5486C65.3671 73.585 68.7611 73.6849 68.1871 75.5735C67.8793 76.5803 66.2489 76.5304 65.9577 75.5486Z" fill="#3F221A"/>
<path d="M189.097 61.9867C189.929 62.228 192.982 60.6056 193.248 59.7819C193.248 59.7819 194.387 56.9114 193.489 55.2307C192.591 53.55 187.159 47.884 184.896 49.0904C182.633 50.2968 184.289 57.9681 185.179 59.6487C186.069 61.3294 189.089 61.995 189.089 61.995L189.097 61.9867Z" fill="#FC6911"/>
<path d="M191.335 64.5577C191.892 64.2581 192.724 63.8172 192.724 63.8172C192.724 63.8172 193.556 63.3762 194.113 63.0767C194.67 62.7771 194.62 62.3778 194.62 62.3778L193.24 59.7819L191.16 60.8884L189.08 61.995L190.461 64.5909C190.461 64.5909 190.761 64.8572 191.326 64.5577H191.335Z" fill="white"/>
<path d="M191.576 53.4169C192.765 54.8813 193.988 56.5037 192.557 58.4174C191.301 60.098 189.172 60.5057 187.4 59.6904C185.395 58.7668 184.713 56.7533 184.505 54.7232C184.339 53.0592 183.973 49.4815 186.859 50.1721C188.639 50.5964 190.486 52.0857 191.576 53.4169Z" fill="#FC9E2C"/>
<path d="M190.927 53.7331C191.709 55.4803 191.102 57.785 188.282 56.6202C186.701 55.9629 185.27 53.3753 187.392 52.327C189.08 51.4949 190.37 52.4684 190.927 53.7331Z" fill="#FFBA31"/>
<path d="M190.703 63.5925C188.789 62.8603 190.952 60.2312 192.092 61.8453C192.699 62.7023 191.659 63.9586 190.703 63.5925Z" fill="#3F221A"/>
<path d="M769.298 41.9267C764.814 43.1747 760.572 45.6957 756.862 48.5662C748.135 55.3222 740.457 63.3928 728.645 63.5924C717.698 63.7672 707.383 58.4589 697.509 54.3986C688.508 50.6961 679.375 47.7674 669.534 47.9671C660.051 48.1585 650.601 50.8209 642.432 55.6383C642.083 55.8463 641.717 56.0627 641.351 56.2873C631.568 45.0467 611.254 45.7872 597.986 48.666C587.663 50.9041 577.772 55.2473 569.162 61.3543C560.095 67.7858 553.024 78.6021 540.688 77.7284C533.734 77.2375 526.18 73.9261 519.825 69.4831C521.347 67.5445 522.653 65.3896 523.668 63.01C526.264 56.9446 526.43 49.6728 522.279 44.2064C518.627 39.389 511.881 38.5986 507.821 43.4076C503.163 48.9156 504.652 56.5702 508.82 61.8369C511.099 64.7157 514.027 67.3698 517.255 69.7078C517.147 69.8326 517.03 69.9574 516.914 70.0822C510.317 77.0961 500.551 80.99 491.018 81.3394C467.56 82.2047 447.895 66.4213 427.897 56.5702C414.646 50.0388 399.09 45.5127 384.624 48.9905L384.716 50.7461C397.343 47.7757 411.834 51.0705 423.497 56.3955C442.97 65.2814 460.639 79.7835 482.442 82.6207C495.236 84.2848 510.067 80.6239 518.76 70.7728C522.936 73.6016 527.511 75.898 531.812 77.4788C540.779 80.782 549.522 79.9666 557.051 73.8679C560.994 70.6812 564.471 66.9871 568.538 63.9419C573.28 60.3975 578.437 57.4022 583.861 55.0393C593.61 50.8043 604.233 48.5412 614.864 48.6244C623.582 48.691 633.764 50.7045 639.803 57.2608C633.747 61.2045 626.943 67.1868 627.425 74.6416C627.85 81.1148 634.163 86.0403 640.203 82.4127C646.708 78.5022 647.739 69.7577 645.352 63.1598C644.586 61.0465 643.563 59.1911 642.349 57.552C645.826 55.5385 649.328 53.9909 651.957 53.0258C662.995 48.9739 674.991 48.6743 686.237 52.0856C697.451 55.4886 707.732 61.5956 719.195 64.2248C729.261 66.5378 738.652 64.7989 747.046 58.7085C753.751 53.8412 761.054 46.0867 769.364 43.5408L769.281 41.9433L769.298 41.9267ZM510.949 61.6455C507.331 57.5187 505.209 51.9026 507.78 46.6525C510.3 41.5106 516.431 40.1628 520.341 44.5808C526.563 51.5947 523.635 61.7287 518.336 68.4015C515.541 66.3048 513.012 64.0084 510.949 61.6455ZM643.339 62.7271C645.061 66.7957 645.51 71.6713 643.671 75.7898C642.515 78.3941 640.302 80.9733 637.457 81.7388C633.506 82.8038 630.37 79.7586 629.438 76.1809C627.575 69.0006 633.872 62.802 640.835 58.4506C641.825 59.7235 642.673 61.138 643.339 62.7188V62.7271Z" fill="white"/>
<path d="M412.333 54.6066C411.859 53.8828 408.482 53.134 407.741 53.5833C407.741 53.5833 405.013 55.0227 404.597 56.8864C404.181 58.7501 404.638 66.5794 407.134 67.1369C409.638 67.6943 413.365 60.7885 413.781 58.9248C414.196 57.0611 412.333 54.6066 412.333 54.6066Z" fill="#AB0F0F"/>
<path d="M412.291 51.2037C411.668 51.0622 410.753 50.8625 410.753 50.8625C410.753 50.8625 409.837 50.6545 409.214 50.5214C408.59 50.38 408.373 50.7211 408.373 50.7211L407.733 53.5916L410.029 54.0991L412.325 54.6066L412.965 51.7362C412.965 51.7362 412.907 51.3368 412.291 51.2037Z" fill="white"/>
<path d="M405.653 58.9747C405.703 57.086 405.828 55.0559 408.157 54.5317C410.204 54.0658 412.092 55.1474 412.907 56.9196C413.83 58.9248 413.04 60.8967 411.876 62.5774C410.927 63.9502 408.873 66.9122 407.134 64.5076C406.061 63.0267 405.62 60.697 405.662 58.9747H405.653Z" fill="#D71E17"/>
<path d="M408.507 57.9347C409.047 56.0959 411.011 54.7397 412.391 57.4604C413.165 58.983 412.566 61.8868 410.287 61.3044C408.457 60.8384 408.116 59.2659 408.507 57.9347Z" fill="#EE3329"/>
<path d="M412.15 52.3436C413.132 54.149 409.779 54.7315 409.962 52.7679C410.062 51.7195 411.659 51.4367 412.15 52.3436Z" fill="#3F221A"/>
<path d="M499.553 84.4179C498.779 84.0269 495.477 85.0669 495.069 85.824C495.069 85.824 493.422 88.4366 493.996 90.2504C494.57 92.0642 498.871 98.6288 501.317 97.8634C503.762 97.0979 503.546 89.252 502.972 87.4298C502.398 85.616 499.561 84.4096 499.561 84.4096L499.553 84.4179Z" fill="#FC6911"/>
<path d="M497.823 81.4892C497.215 81.6806 496.317 81.9634 496.317 81.9634C496.317 81.9634 495.419 82.2463 494.811 82.4377C494.204 82.6291 494.188 83.0284 494.188 83.0284L495.069 85.8323L497.315 85.1251L499.561 84.4179L498.679 81.614C498.679 81.614 498.43 81.2978 497.823 81.4892Z" fill="white"/>
<path d="M495.943 91.5399C495.044 89.8842 494.138 88.0621 495.893 86.4397C497.432 85.0169 499.603 85.0086 501.2 86.1401C502.997 87.4131 503.305 89.5181 503.138 91.5566C502.997 93.2206 502.706 96.8066 499.994 95.6002C498.322 94.8514 496.775 93.0542 495.951 91.5399H495.943Z" fill="#FC9E2C"/>
<path d="M497.898 89.2103C497.449 87.3466 498.472 85.1917 501.026 86.8557C502.456 87.7876 503.388 90.5998 501.117 91.2404C499.304 91.748 498.214 90.5582 497.898 89.2103Z" fill="#FFBA31"/>
<path d="M498.264 82.5541C500.01 83.6274 497.407 85.8073 496.575 84.0185C496.134 83.0617 497.382 82.0216 498.264 82.5541Z" fill="#3F221A"/>
<path d="M533.634 81.2146C533.276 80.4242 530.065 79.1429 529.267 79.4674C529.267 79.4674 526.339 80.4491 525.632 82.2213C524.925 83.9935 524.118 91.7979 526.497 92.7464C528.876 93.6949 533.667 87.4797 534.374 85.7075C535.081 83.9353 533.634 81.2063 533.634 81.2063V81.2146Z" fill="#AB0F0F"/>
<path d="M534.141 77.8532C533.551 77.6203 532.677 77.2708 532.677 77.2708C532.677 77.2708 531.804 76.9214 531.213 76.6884C530.623 76.4555 530.357 76.7467 530.357 76.7467L529.267 79.4757L531.455 80.3493L533.642 81.2229L534.732 78.4939C534.732 78.4939 534.74 78.0945 534.15 77.8532H534.141Z" fill="white"/>
<path d="M526.339 84.4512C526.688 82.5958 527.137 80.6156 529.516 80.4658C531.604 80.341 533.301 81.7055 533.817 83.5859C534.408 85.7158 533.309 87.538 531.895 89.0106C530.739 90.2087 528.235 92.8046 526.904 90.1505C526.081 88.5114 526.014 86.1485 526.339 84.4512Z" fill="#D71E17"/>
<path d="M529.325 83.8854C530.157 82.1631 532.303 81.1314 533.235 84.0435C533.759 85.6742 532.702 88.4365 530.54 87.4963C528.809 86.7392 528.726 85.1334 529.325 83.8854Z" fill="#EE3329"/>
<path d="M533.809 78.9515C534.483 80.8901 531.089 80.9317 531.579 79.0181C531.846 77.9947 533.468 77.9781 533.809 78.9515Z" fill="#3F221A"/>
<path d="M622.875 52.1438C622.343 51.4532 618.924 50.9457 618.225 51.4532C618.225 51.4532 615.605 53.084 615.33 54.9727C615.047 56.8614 616.062 64.6407 618.599 65.0152C621.136 65.3896 624.356 58.2342 624.639 56.3538C624.921 54.4652 622.883 52.1438 622.883 52.1438H622.875Z" fill="#AB0F0F"/>
<path d="M622.592 48.7492C621.96 48.6577 621.037 48.5163 621.037 48.5163C621.037 48.5163 620.105 48.3748 619.481 48.2833C618.849 48.1918 618.657 48.5412 618.657 48.5412L618.225 51.4533L620.554 51.7944L622.883 52.1355L623.316 49.2235C623.316 49.2235 623.233 48.8324 622.6 48.7409L622.592 48.7492Z" fill="white"/>
<path d="M616.528 56.9779C616.437 55.0892 616.42 53.059 618.707 52.3685C620.712 51.7611 622.675 52.7013 623.615 54.4069C624.68 56.3372 624.04 58.3673 622.991 60.1229C622.143 61.5623 620.313 64.6574 618.4 62.386C617.218 60.9799 616.611 58.6918 616.536 56.9695L616.528 56.9779Z" fill="#D71E17"/>
<path d="M619.298 55.7298C619.706 53.8578 621.561 52.3602 623.141 54.981C624.023 56.4454 623.632 59.3824 621.311 58.9664C619.456 58.6336 618.999 57.086 619.298 55.7382V55.7298Z" fill="#EE3329"/>
<path d="M622.526 49.9057C623.632 51.6363 620.33 52.46 620.371 50.4881C620.388 49.4315 621.977 49.0404 622.526 49.9057Z" fill="#3F221A"/>
<path d="M709.479 64.0833C709.163 63.2763 706.011 61.8452 705.195 62.1364C705.195 62.1364 702.226 62.985 701.444 64.724C700.653 66.4629 699.489 74.2173 701.818 75.2823C704.155 76.339 709.221 70.3484 710.012 68.6178C710.802 66.8789 709.479 64.0916 709.479 64.0916V64.0833Z" fill="#AB0F0F"/>
<path d="M710.145 60.7469C709.563 60.4807 708.706 60.098 708.706 60.098C708.706 60.098 707.849 59.7069 707.275 59.449C706.693 59.1827 706.41 59.4739 706.41 59.4739L705.195 62.153L707.333 63.1265L709.471 64.1L710.686 61.4209C710.686 61.4209 710.711 61.0215 710.137 60.7553L710.145 60.7469Z" fill="white"/>
<path d="M702.051 66.9788C702.483 65.14 703.024 63.1847 705.411 63.1431C707.508 63.1099 709.13 64.5576 709.562 66.4546C710.053 68.6095 708.88 70.3734 707.391 71.7795C706.177 72.9277 703.565 75.4071 702.35 72.6947C701.602 71.0224 701.651 68.6511 702.042 66.9788H702.051Z" fill="#D71E17"/>
<path d="M705.054 66.5461C705.961 64.8654 708.157 63.9336 708.955 66.8789C709.404 68.5346 708.223 71.247 706.102 70.207C704.413 69.375 704.397 67.7609 705.054 66.5461Z" fill="#EE3329"/>
<path d="M709.762 61.8368C710.353 63.8004 706.951 63.6922 707.533 61.8035C707.841 60.7968 709.471 60.855 709.762 61.8368Z" fill="#3F221A"/>
<path d="M663.012 45.5543C663.702 46.0785 667.138 45.6708 667.679 44.9968C667.679 44.9968 669.775 42.7337 669.55 40.8451C669.326 38.9564 666.314 31.7095 663.761 32.009C661.207 32.3085 659.984 40.063 660.209 41.9517C660.433 43.8403 663.004 45.5543 663.004 45.5543H663.012Z" fill="#FC6911"/>
<path d="M664.177 48.7575C664.809 48.6827 665.74 48.5745 665.74 48.5745C665.74 48.5745 666.672 48.4663 667.304 48.3914C667.937 48.3166 668.028 47.9255 668.028 47.9255L667.679 45.0051L665.341 45.2797L663.004 45.5543L663.353 48.4746C663.353 48.4746 663.536 48.8324 664.168 48.7575H664.177Z" fill="white"/>
<path d="M668.627 38.1493C669.209 39.9465 669.758 41.9017 667.737 43.1664C665.957 44.2813 663.827 43.8819 662.471 42.4841C660.941 40.895 661.024 38.7733 661.573 36.8014C662.014 35.1956 662.97 31.7178 665.416 33.4068C666.922 34.4468 668.103 36.5019 668.635 38.141L668.627 38.1493Z" fill="#FC9E2C"/>
<path d="M667.762 38.0744C667.853 39.9881 666.456 41.9183 664.251 39.805C663.012 38.6235 662.621 35.6865 664.975 35.4868C666.855 35.3204 667.695 36.6933 667.762 38.0744Z" fill="#FFBA31"/>
<path d="M663.935 47.626C662.413 46.2448 665.383 44.5891 665.865 46.4944C666.123 47.5178 664.701 48.3082 663.935 47.626Z" fill="#3F221A"/>
<path d="M751.263 48.6577C752.12 48.7825 754.932 46.7773 755.09 45.9287C755.09 45.9287 755.838 42.9334 754.732 41.3859C753.626 39.8383 747.495 34.9294 745.415 36.4187C743.327 37.908 745.973 45.2964 747.079 46.8522C748.185 48.3998 751.263 48.666 751.263 48.666V48.6577Z" fill="#009EB1"/>
<path d="M753.825 50.9041C754.341 50.5381 755.106 49.9889 755.106 49.9889C755.106 49.9889 755.872 49.4398 756.387 49.0737C756.903 48.7076 756.803 48.3166 756.803 48.3166L755.098 45.9203L753.185 47.2849L751.271 48.6494L752.977 51.0456C752.977 51.0456 753.31 51.2702 753.825 50.9041Z" fill="#1A2F42"/>
<path d="M752.578 39.6136C753.95 40.9116 755.373 42.3593 754.208 44.4477C753.185 46.2781 751.122 46.9604 749.259 46.3779C747.154 45.7206 746.206 43.8153 745.74 41.8268C745.357 40.2044 744.525 36.7016 747.478 37.0094C749.3 37.2008 751.322 38.4238 752.578 39.6136Z" fill="#1BC7C7"/>
<path d="M751.288 39.4139C752.286 41.0447 751.995 43.4076 749.042 42.6255C747.387 42.1846 745.632 39.7967 747.595 38.4904C749.167 37.442 750.564 38.2408 751.288 39.4139Z" fill="#75DDDD"/>
<path d="M753.068 50.0305C751.072 49.5562 752.877 46.6691 754.216 48.1169C754.932 48.8906 754.066 50.2718 753.068 50.0305Z" fill="#3F221A"/>
<path d="M648.97 73.9095C648.18 74.2756 646.949 77.5038 647.29 78.3026C647.29 78.3026 648.322 81.2146 650.093 81.8969C651.874 82.5792 659.685 83.2697 660.6 80.8735C661.515 78.4773 655.226 73.7847 653.446 73.1025C651.666 72.4202 648.962 73.9095 648.962 73.9095H648.97Z" fill="#009EB1"/>
<path d="M645.593 73.4435C645.368 74.0343 645.027 74.9162 645.027 74.9162C645.027 74.9162 644.695 75.7981 644.462 76.3889C644.237 76.9796 644.537 77.2458 644.537 77.2458L647.282 78.2942L648.122 76.0977L648.962 73.9011L646.217 72.8528C646.217 72.8528 645.818 72.8528 645.585 73.4435H645.593Z" fill="white"/>
<path d="M652.314 81.1481C650.451 80.8236 648.463 80.4076 648.28 78.028C648.122 75.9396 649.461 74.2257 651.333 73.6765C653.454 73.0525 655.292 74.1175 656.782 75.5153C657.996 76.6552 660.633 79.1179 657.996 80.4908C656.374 81.3394 654.003 81.4393 652.306 81.1398L652.314 81.1481Z" fill="#1BC7C7"/>
<path d="M651.699 78.1778C649.96 77.3707 648.904 75.2407 651.799 74.2589C653.421 73.7098 656.199 74.7249 655.292 76.9048C654.56 78.6437 652.955 78.7518 651.707 78.1778H651.699Z" fill="#75DDDD"/>
<path d="M646.708 73.7597C648.638 73.0525 648.729 76.4555 646.808 75.9895C645.784 75.7399 645.743 74.1092 646.708 73.7597Z" fill="#3F221A"/>
<path d="M526.039 44.639C525.69 45.4378 526.904 48.6743 527.686 49.0487C527.686 49.0487 530.381 50.5547 532.17 49.8891C533.958 49.2234 540.28 44.5725 539.382 42.1762C538.483 39.7717 530.664 40.4124 528.876 41.078C527.087 41.7436 526.039 44.6473 526.039 44.6473V44.639Z" fill="#009EB1"/>
<path d="M523.203 46.5194C523.427 47.1184 523.752 47.9921 523.752 47.9921C523.752 47.9921 524.084 48.874 524.301 49.4647C524.517 50.0555 524.924 50.0638 524.924 50.0638L527.678 49.0321L526.854 46.8272L526.031 44.6224L523.277 45.6541C523.277 45.6541 522.978 45.9203 523.194 46.5111L523.203 46.5194Z" fill="white"/>
<path d="M533.335 47.8589C531.729 48.849 529.957 49.8475 528.244 48.1834C526.738 46.7191 526.613 44.5558 527.661 42.9001C528.842 41.0364 530.922 40.6204 532.968 40.6786C534.641 40.7285 538.234 40.8284 537.169 43.6073C536.512 45.3213 534.799 46.952 533.335 47.8589Z" fill="#1BC7C7"/>
<path d="M530.905 46.0285C529.067 46.5693 526.863 45.6707 528.393 43.0249C529.25 41.5439 532.003 40.4623 532.76 42.7004C533.368 44.4892 532.236 45.6291 530.905 46.0285Z" fill="#75DDDD"/>
<path d="M524.242 46.0202C525.224 44.2147 527.536 46.7025 525.798 47.626C524.866 48.1169 523.76 46.9271 524.242 46.0202Z" fill="#3F221A"/>
<path d="M450.848 66.1966C451.172 67.0037 454.317 68.4264 455.14 68.1269C455.14 68.1269 458.102 67.2699 458.892 65.531C459.674 63.7921 460.822 56.0294 458.484 54.981C456.147 53.9244 451.098 59.9315 450.316 61.6704C449.534 63.4094 450.856 66.1966 450.856 66.1966H450.848Z" fill="#009EB1"/>
<path d="M450.199 69.5331C450.781 69.791 451.638 70.182 451.638 70.182C451.638 70.182 452.495 70.5648 453.077 70.831C453.66 71.0889 453.942 70.806 453.942 70.806L455.149 68.1269L453.002 67.1618L450.856 66.1967L449.65 68.8758C449.65 68.8758 449.625 69.2751 450.199 69.5414V69.5331Z" fill="white"/>
<path d="M459.275 62.3361C458.842 64.1749 458.31 66.1385 455.922 66.1801C453.826 66.2217 452.196 64.7823 451.763 62.8769C451.264 60.7303 452.437 58.9498 453.917 57.5437C455.124 56.3955 457.736 53.9078 458.958 56.6202C459.715 58.2925 459.674 60.6554 459.275 62.3361Z" fill="#1BC7C7"/>
<path d="M458.934 61.3377C458.027 63.0267 455.839 63.9585 455.032 61.0132C454.583 59.3658 455.756 56.6451 457.877 57.6768C459.574 58.5088 459.591 60.1146 458.934 61.3377Z" fill="#75DDDD"/>
<path d="M450.573 68.4431C449.983 66.4795 453.377 66.5794 452.803 68.4681C452.495 69.4748 450.865 69.4249 450.573 68.4431Z" fill="#3F221A"/>
<path d="M573.713 54.8895C574.544 55.1308 577.597 53.5084 577.863 52.6847C577.863 52.6847 579.003 49.8142 578.105 48.1335C577.206 46.4529 571.774 40.7868 569.512 41.9932C567.249 43.1997 568.904 50.8709 569.795 52.5516C570.685 54.2322 573.704 54.8979 573.704 54.8979L573.713 54.8895Z" fill="#FC6911"/>
<path d="M575.95 57.4605C576.508 57.161 577.34 56.72 577.34 56.72C577.34 56.72 578.171 56.279 578.729 55.9795C579.286 55.68 579.236 55.2806 579.236 55.2806L577.855 52.6847L575.776 53.7913L573.696 54.8979L575.077 57.4938C575.077 57.4938 575.376 57.76 575.942 57.4605H575.95Z" fill="white"/>
<path d="M576.2 46.3198C577.389 47.7841 578.612 49.4066 577.181 51.3202C575.925 53.0009 573.796 53.4086 572.024 52.5932C570.019 51.6696 569.337 49.6562 569.129 47.626C568.963 45.962 568.597 42.3843 571.483 43.0749C573.263 43.4992 575.11 44.9885 576.2 46.3198Z" fill="#FC9E2C"/>
<path d="M575.551 46.6359C576.333 48.3832 575.726 50.6878 572.906 49.523C571.325 48.8657 569.894 46.2781 572.016 45.2298C573.704 44.3978 574.994 45.3712 575.551 46.6359Z" fill="#FFBA31"/>
<path d="M575.318 56.4954C573.405 55.7632 575.568 53.134 576.707 54.7481C577.314 55.6051 576.275 56.8614 575.318 56.4954Z" fill="#3F221A"/>
<path d="M1153.68 49.0238C1158.17 50.2718 1162.41 52.7929 1166.12 55.6633C1174.84 62.4193 1182.52 70.4899 1194.33 70.6896C1205.28 70.8643 1215.6 65.556 1225.47 61.4958C1234.47 57.7933 1243.61 54.8646 1253.45 55.0643C1262.93 55.2556 1272.38 57.9181 1280.55 62.7355C1280.9 62.9435 1281.26 63.1598 1281.63 63.3845C1291.41 52.1439 1311.73 52.8844 1324.99 55.7632C1335.32 58.0013 1345.21 62.3444 1353.82 68.4515C1362.88 74.883 1369.96 85.6992 1382.29 84.8256C1389.25 84.3347 1396.8 81.0233 1403.15 76.5803C1401.63 74.6417 1400.33 72.4868 1399.31 70.1072C1396.72 64.0418 1396.55 56.7699 1400.7 51.3036C1404.35 46.4862 1411.1 45.6957 1415.16 50.5048C1419.82 56.0128 1418.33 63.6674 1414.16 68.934C1411.88 71.8128 1408.95 74.467 1405.73 76.8049C1405.83 76.9297 1405.95 77.0545 1406.07 77.1794C1412.66 84.1933 1422.43 88.0871 1431.96 88.4366C1455.42 89.3019 1475.09 73.5185 1495.08 63.6674C1508.34 57.111 1523.9 52.5765 1538.36 56.0627L1538.27 57.8183C1525.65 54.848 1511.15 58.1428 1499.49 63.4677C1480.02 72.3536 1462.35 86.8557 1440.55 89.6929C1427.75 91.357 1412.92 87.6961 1404.23 77.845C1400.05 80.6738 1395.48 82.9702 1391.18 84.551C1382.21 87.8542 1373.47 87.0388 1365.94 80.9401C1361.99 77.7534 1358.52 74.0593 1354.45 71.0141C1349.71 67.4697 1344.55 64.4744 1339.13 62.1115C1329.38 57.8765 1318.76 55.6134 1308.12 55.6966C1299.41 55.7632 1289.22 57.7767 1283.18 64.333C1289.24 68.2767 1296.05 74.259 1295.56 81.7139C1295.14 88.187 1288.82 93.1125 1282.79 89.4849C1276.28 85.5744 1275.25 76.8299 1277.64 70.232C1278.4 68.1187 1279.43 66.2633 1280.64 64.6242C1277.16 62.6107 1273.66 61.0631 1271.03 60.098C1259.99 56.0461 1248 55.7465 1236.75 59.1578C1225.54 62.5608 1215.26 68.6678 1203.79 71.297C1193.73 73.61 1184.34 71.8711 1175.94 65.7807C1169.24 60.9134 1161.93 53.159 1153.62 50.613L1153.71 49.0155L1153.68 49.0238ZM1412.03 68.7427C1415.65 64.6159 1417.77 58.9997 1415.2 53.7497C1412.68 48.6078 1406.55 47.2599 1402.64 51.678C1396.42 58.6919 1399.34 68.8259 1404.64 75.4987C1407.44 73.402 1409.97 71.1056 1412.03 68.7427ZM1279.64 69.8243C1277.92 73.8929 1277.47 78.7685 1279.31 82.887C1280.46 85.4912 1282.68 88.0705 1285.52 88.8359C1289.47 89.9009 1292.61 86.8557 1293.54 83.2781C1295.4 76.0977 1289.11 69.8992 1282.15 65.5477C1281.16 66.8207 1280.31 68.2351 1279.64 69.816V69.8243Z" fill="white"/>
<path d="M1510.65 61.7038C1511.12 60.98 1514.5 60.2311 1515.24 60.6804C1515.24 60.6804 1517.97 62.1198 1518.38 63.9835C1518.8 65.8473 1518.34 73.6766 1515.85 74.234C1513.34 74.7915 1509.62 67.8857 1509.2 66.022C1508.78 64.1583 1510.65 61.7038 1510.65 61.7038Z" fill="#AB0F0F"/>
<path d="M1510.69 58.3008C1511.31 58.1594 1512.23 57.9597 1512.23 57.9597C1512.23 57.9597 1513.14 57.7517 1513.77 57.6186C1514.39 57.4771 1514.61 57.8183 1514.61 57.8183L1515.25 60.6887L1512.95 61.1963L1510.66 61.7038L1510.01 58.8333C1510.01 58.8333 1510.07 58.434 1510.69 58.3008Z" fill="#1A2F42"/>
<path d="M1517.33 66.0719C1517.28 64.1832 1517.15 62.1531 1514.82 61.6289C1512.78 61.163 1510.89 62.2446 1510.07 64.0168C1509.15 66.022 1509.94 67.9938 1511.1 69.6745C1512.05 71.0474 1514.11 74.0093 1515.85 71.6048C1516.92 70.1238 1517.36 67.7942 1517.32 66.0719H1517.33Z" fill="#D71E17"/>
<path d="M1514.47 65.0318C1513.93 63.1931 1511.97 61.8369 1510.59 64.5576C1509.81 66.0802 1510.41 68.9839 1512.69 68.4015C1514.52 67.9356 1514.86 66.3631 1514.47 65.0318Z" fill="#EE3329"/>
<path d="M1510.84 59.4407C1509.86 61.2462 1513.21 61.8286 1513.03 59.8651C1512.93 58.8167 1511.33 58.5338 1510.84 59.4407Z" fill="#3F221A"/>
<path d="M1423.43 91.5151C1424.2 91.124 1427.5 92.1641 1427.91 92.9212C1427.91 92.9212 1429.56 95.5337 1428.98 97.3475C1428.41 99.1613 1424.11 105.726 1421.66 104.961C1419.22 104.195 1419.43 96.3491 1420.01 94.527C1420.58 92.7132 1423.42 91.5068 1423.42 91.5068L1423.43 91.5151Z" fill="#FC6911"/>
<path d="M1425.17 88.5864C1425.77 88.7777 1426.67 89.0606 1426.67 89.0606C1426.67 89.0606 1427.57 89.3435 1428.18 89.5349C1428.78 89.7262 1428.8 90.1256 1428.8 90.1256L1427.92 92.9295L1425.67 92.2223L1423.43 91.5151L1424.31 88.7112C1424.31 88.7112 1424.56 88.395 1425.17 88.5864Z" fill="white"/>
<path d="M1427.04 98.6371C1427.94 96.9814 1428.84 95.1593 1427.09 93.5368C1425.55 92.1141 1423.38 92.1058 1421.78 93.2373C1419.98 94.5103 1419.68 96.6153 1419.84 98.6538C1419.98 100.318 1420.27 103.904 1422.99 102.697C1424.66 101.949 1426.21 100.151 1427.03 98.6371H1427.04Z" fill="#FC9E2C"/>
<path d="M1425.08 96.3075C1425.53 94.4438 1424.51 92.2888 1421.95 93.9529C1420.52 94.8847 1419.59 97.6969 1421.86 98.3376C1423.68 98.8451 1424.77 97.6553 1425.08 96.3075Z" fill="#FFBA31"/>
<path d="M1424.72 89.6513C1422.97 90.7246 1425.57 92.9045 1426.41 91.1157C1426.85 90.1588 1425.6 89.1188 1424.72 89.6513Z" fill="#3F221A"/>
<path d="M1389.35 88.3201C1389.7 87.5297 1392.91 86.2483 1393.71 86.5728C1393.71 86.5728 1396.64 87.5546 1397.35 89.3268C1398.06 91.099 1398.86 98.9034 1396.48 99.8519C1394.1 100.8 1389.31 94.5852 1388.61 92.813C1387.9 91.0408 1389.35 88.3118 1389.35 88.3118V88.3201Z" fill="#AB0F0F"/>
<path d="M1388.84 84.9504C1389.43 84.7174 1390.3 84.368 1390.3 84.368C1390.3 84.368 1391.18 84.0186 1391.77 83.7856C1392.36 83.5526 1392.62 83.8438 1392.62 83.8438L1393.71 86.5728L1391.53 87.4465L1389.34 88.3201L1388.25 85.5911C1388.25 85.5911 1388.24 85.1917 1388.83 84.9504H1388.84Z" fill="white"/>
<path d="M1396.64 91.5483C1396.29 89.6929 1395.84 87.7127 1393.46 87.563C1391.38 87.4382 1389.68 88.8027 1389.16 90.683C1388.57 92.813 1389.67 94.6351 1391.08 96.1078C1392.24 97.3059 1394.74 99.9018 1396.08 97.2477C1396.9 95.6086 1396.97 93.2457 1396.64 91.5483Z" fill="#D71E17"/>
<path d="M1393.66 90.9825C1392.82 89.2603 1390.68 88.2286 1389.75 91.1406C1389.22 92.7714 1390.28 95.5337 1392.44 94.5935C1394.17 93.8364 1394.25 92.2306 1393.66 90.9825Z" fill="#EE3329"/>
<path d="M1389.17 86.057C1388.5 87.9956 1391.89 88.0372 1391.4 86.1235C1391.13 85.1002 1389.51 85.0835 1389.17 86.057Z" fill="#3F221A"/>
<path d="M1300.1 59.241C1300.64 58.5504 1304.06 58.0429 1304.75 58.5504C1304.75 58.5504 1307.38 60.1812 1307.65 62.0699C1307.93 63.9585 1306.92 71.7379 1304.38 72.1123C1301.84 72.4867 1298.62 65.3314 1298.34 63.451C1298.06 61.5623 1300.1 59.241 1300.1 59.241H1300.1Z" fill="#AB0F0F"/>
<path d="M1300.39 55.8464C1301.02 55.7549 1301.94 55.6134 1301.94 55.6134C1301.94 55.6134 1302.87 55.472 1303.5 55.3805C1304.13 55.2889 1304.32 55.6384 1304.32 55.6384L1304.75 58.5504L1302.43 58.8916L1300.1 59.2327L1299.66 56.3206C1299.66 56.3206 1299.75 55.9296 1300.38 55.8381L1300.39 55.8464Z" fill="white"/>
<path d="M1306.45 64.075C1306.54 62.1863 1306.56 60.1562 1304.27 59.4656C1302.27 58.8583 1300.3 59.7984 1299.36 61.5041C1298.3 63.4344 1298.94 65.4645 1299.99 67.2201C1300.84 68.6595 1302.67 71.7546 1304.58 69.4832C1305.76 68.077 1306.37 65.789 1306.44 64.0667L1306.45 64.075Z" fill="#D71E17"/>
<path d="M1303.68 62.827C1303.27 60.955 1301.42 59.4573 1299.84 62.0782C1298.96 63.5425 1299.35 66.4796 1301.67 66.0636C1303.52 65.7308 1303.98 64.1832 1303.68 62.8353V62.827Z" fill="#EE3329"/>
<path d="M1300.45 57.0029C1299.35 58.7335 1302.65 59.5572 1302.61 57.5853C1302.59 56.5286 1301 56.1376 1300.45 57.0029Z" fill="#3F221A"/>
<path d="M1213.5 71.1805C1213.82 70.3734 1216.97 68.9423 1217.78 69.2336C1217.78 69.2336 1220.75 70.0822 1221.54 71.8211C1222.33 73.5601 1223.49 81.3145 1221.16 82.3795C1218.82 83.4361 1213.76 77.4456 1212.97 75.715C1212.18 73.9761 1213.5 71.1888 1213.5 71.1888V71.1805Z" fill="#AB0F0F"/>
<path d="M1212.84 67.8441C1213.42 67.5779 1214.27 67.1951 1214.27 67.1951C1214.27 67.1951 1215.13 66.8041 1215.71 66.5462C1216.29 66.2799 1216.57 66.5711 1216.57 66.5711L1217.78 69.2502L1215.65 70.2237L1213.51 71.1971L1212.29 68.518C1212.29 68.518 1212.27 68.1187 1212.84 67.8524L1212.84 67.8441Z" fill="white"/>
<path d="M1220.94 74.0759C1220.5 72.2372 1219.96 70.2819 1217.58 70.2403C1215.48 70.207 1213.86 71.6547 1213.43 73.5517C1212.94 75.7067 1214.11 77.4706 1215.6 78.8767C1216.81 80.0249 1219.42 82.5043 1220.64 79.7919C1221.39 78.1195 1221.34 75.7483 1220.95 74.0759H1220.94Z" fill="#D71E17"/>
<path d="M1217.93 73.6516C1217.02 71.9709 1214.82 71.039 1214.02 73.9844C1213.58 75.6401 1214.76 78.3525 1216.88 77.3125C1218.57 76.4804 1218.58 74.8663 1217.93 73.6516Z" fill="#EE3329"/>
<path d="M1213.22 68.934C1212.63 70.8976 1216.03 70.7894 1215.45 68.9007C1215.14 67.894 1213.51 67.9522 1213.22 68.934Z" fill="#3F221A"/>
<path d="M1259.97 52.6514C1259.28 53.1756 1255.84 52.7679 1255.3 52.0939C1255.3 52.0939 1253.2 49.8309 1253.43 47.9422C1253.65 46.0535 1256.67 38.8066 1259.22 39.1061C1261.77 39.4057 1263 47.1601 1262.77 49.0488C1262.55 50.9374 1259.98 52.6514 1259.98 52.6514H1259.97Z" fill="#FC6911"/>
<path d="M1258.8 55.8547C1258.17 55.7798 1257.24 55.6717 1257.24 55.6717C1257.24 55.6717 1256.31 55.5635 1255.68 55.4886C1255.04 55.4137 1254.95 55.0227 1254.95 55.0227L1255.3 52.1023L1257.64 52.3769L1259.98 52.6514L1259.63 55.5718C1259.63 55.5718 1259.44 55.9296 1258.81 55.8547H1258.8Z" fill="white"/>
<path d="M1254.35 45.2465C1253.77 47.0436 1253.22 48.9989 1255.24 50.2635C1257.02 51.3784 1259.15 50.9791 1260.51 49.5813C1262.04 47.9921 1261.96 45.8705 1261.41 43.8986C1260.97 42.2928 1260.01 38.815 1257.56 40.504C1256.06 41.544 1254.88 43.5991 1254.34 45.2381L1254.35 45.2465Z" fill="#FC9E2C"/>
<path d="M1255.22 45.1716C1255.13 47.0852 1256.52 49.0155 1258.73 46.9022C1259.97 45.7207 1260.36 42.7837 1258 42.584C1256.12 42.4176 1255.28 43.7904 1255.22 45.1716Z" fill="#FFBA31"/>
<path d="M1259.04 54.7232C1260.57 53.342 1257.6 51.6863 1257.11 53.5916C1256.86 54.615 1258.28 55.4054 1259.04 54.7232Z" fill="#3F221A"/>
<path d="M1171.72 55.7549C1170.86 55.8797 1168.05 53.8745 1167.89 53.0259C1167.89 53.0259 1167.14 50.0306 1168.25 48.483C1169.35 46.9355 1175.49 42.0266 1177.56 43.5159C1179.65 45.0052 1177.01 52.3935 1175.9 53.9494C1174.79 55.4969 1171.72 55.7632 1171.72 55.7632V55.7549Z" fill="#009EB1"/>
<path d="M1169.15 58.0013C1168.64 57.6352 1167.87 57.0861 1167.87 57.0861C1167.87 57.0861 1167.11 56.537 1166.59 56.1709C1166.08 55.8048 1166.18 55.4137 1166.18 55.4137L1167.88 53.0175L1169.8 54.382L1171.71 55.7465L1170 58.1428C1170 58.1428 1169.67 58.3674 1169.15 58.0013Z" fill="white"/>
<path d="M1170.4 46.7108C1169.03 48.0087 1167.61 49.4565 1168.77 51.5448C1169.8 53.3753 1171.86 54.0575 1173.72 53.4751C1175.83 52.8178 1176.77 50.9125 1177.24 48.924C1177.62 47.3015 1178.45 43.7987 1175.5 44.1066C1173.68 44.2979 1171.66 45.521 1170.4 46.7108Z" fill="#1BC7C7"/>
<path d="M1171.69 46.5111C1170.69 48.1419 1170.98 50.5048 1173.94 49.7227C1175.59 49.2817 1177.35 46.8938 1175.39 45.5876C1173.81 44.5392 1172.42 45.338 1171.69 46.5111Z" fill="#75DDDD"/>
<path d="M1169.91 57.1277C1171.91 56.6534 1170.1 53.7663 1168.76 55.214C1168.05 55.9878 1168.91 57.369 1169.91 57.1277Z" fill="#3F221A"/>
<path d="M1274.01 81.0066C1274.8 81.3727 1276.03 84.6009 1275.69 85.3996C1275.69 85.3996 1274.66 88.3117 1272.89 88.9939C1271.11 89.6762 1263.3 90.3668 1262.38 87.9706C1261.47 85.5743 1267.75 80.8818 1269.53 80.1995C1271.31 79.5172 1274.02 81.0066 1274.02 81.0066H1274.01Z" fill="#009EB1"/>
<path d="M1277.39 80.549C1277.61 81.1397 1277.95 82.0217 1277.95 82.0217C1277.95 82.0217 1278.29 82.9036 1278.52 83.4943C1278.74 84.0851 1278.44 84.3513 1278.44 84.3513L1275.7 85.3997L1274.86 83.2031L1274.02 81.0066L1276.76 79.9583C1276.76 79.9583 1277.16 79.9583 1277.4 80.549H1277.39Z" fill="white"/>
<path d="M1270.67 88.2451C1272.53 87.9206 1274.52 87.5046 1274.7 85.125C1274.86 83.0367 1273.52 81.3227 1271.65 80.7736C1269.53 80.1496 1267.69 81.2146 1266.2 82.6124C1264.98 83.7522 1262.35 86.215 1264.98 87.5878C1266.61 88.4365 1268.98 88.5363 1270.67 88.2368L1270.67 88.2451Z" fill="#1BC7C7"/>
<path d="M1271.28 85.2749C1273.02 84.4678 1274.08 82.3378 1271.18 81.356C1269.56 80.8069 1266.78 81.822 1267.69 84.0019C1268.42 85.7408 1270.03 85.849 1271.27 85.2749H1271.28Z" fill="#75DDDD"/>
<path d="M1276.27 80.8568C1274.34 80.1496 1274.25 83.5526 1276.17 83.0866C1277.2 82.837 1277.24 81.2063 1276.27 80.8568Z" fill="#3F221A"/>
<path d="M1396.95 51.7362C1397.3 52.5349 1396.08 55.7715 1395.3 56.1459C1395.3 56.1459 1392.61 57.6518 1390.82 56.9862C1389.03 56.3206 1382.71 51.6696 1383.61 49.2734C1384.5 46.8689 1392.32 47.5095 1394.11 48.1751C1395.9 48.8408 1396.95 51.7445 1396.95 51.7445V51.7362Z" fill="#009EB1"/>
<path d="M1399.78 53.6249C1399.55 54.224 1399.23 55.0976 1399.23 55.0976C1399.23 55.0976 1398.9 55.9795 1398.68 56.5703C1398.46 57.161 1398.06 57.1693 1398.06 57.1693L1395.3 56.1376L1396.13 53.9328L1396.95 51.7279L1399.7 52.7596C1399.7 52.7596 1400 53.0259 1399.79 53.6166L1399.78 53.6249Z" fill="white"/>
<path d="M1389.65 54.9561C1391.25 55.9462 1393.02 56.9446 1394.74 55.2806C1396.24 53.8162 1396.37 51.653 1395.32 49.9973C1394.14 48.1336 1392.06 47.7175 1390.01 47.7758C1388.34 47.8257 1384.75 47.9256 1385.81 50.7045C1386.47 52.4185 1388.18 54.0492 1389.65 54.9561Z" fill="#1BC7C7"/>
<path d="M1392.07 53.134C1393.91 53.6748 1396.12 52.7762 1394.59 50.1304C1393.73 48.6494 1390.98 47.5678 1390.22 49.8059C1389.61 51.5948 1390.74 52.7346 1392.07 53.134Z" fill="#75DDDD"/>
<path d="M1398.75 53.1257C1397.76 51.3202 1395.45 53.8079 1397.19 54.7315C1398.12 55.2224 1399.23 54.0326 1398.75 53.1257Z" fill="#3F221A"/>
<path d="M1472.13 73.2938C1471.81 74.1009 1468.66 75.5236 1467.84 75.2241C1467.84 75.2241 1464.88 74.3671 1464.09 72.6282C1463.31 70.8893 1462.16 63.1265 1464.5 62.0782C1466.83 61.0215 1471.88 67.0287 1472.66 68.7676C1473.45 70.5065 1472.12 73.2938 1472.12 73.2938H1472.13Z" fill="#009EB1"/>
<path d="M1472.79 76.6302C1472.21 76.8881 1471.35 77.2792 1471.35 77.2792C1471.35 77.2792 1470.49 77.6619 1469.91 77.9282C1469.33 78.1861 1469.05 77.9032 1469.05 77.9032L1467.84 75.2241L1469.99 74.259L1472.13 73.2938L1473.34 75.9729C1473.34 75.9729 1473.36 76.3723 1472.79 76.6385V76.6302Z" fill="white"/>
<path d="M1463.71 69.4332C1464.14 71.272 1464.67 73.2356 1467.06 73.2772C1469.15 73.3188 1470.78 71.8794 1471.22 69.974C1471.72 67.8274 1470.54 66.0469 1469.06 64.6408C1467.86 63.4926 1465.24 61.0049 1464.02 63.7173C1463.26 65.3896 1463.31 67.7526 1463.71 69.4332Z" fill="#1BC7C7"/>
<path d="M1464.05 68.4348C1464.95 70.1238 1467.14 71.0557 1467.95 68.1103C1468.4 66.463 1467.22 63.7422 1465.1 64.7739C1463.41 65.606 1463.39 67.2118 1464.05 68.4348Z" fill="#75DDDD"/>
<path d="M1472.41 75.5486C1473 73.585 1469.6 73.6849 1470.18 75.5735C1470.49 76.5803 1472.12 76.5304 1472.41 75.5486Z" fill="#3F221A"/>
<path d="M1349.27 61.9867C1348.44 62.228 1345.38 60.6056 1345.12 59.7819C1345.12 59.7819 1343.98 56.9114 1344.88 55.2307C1345.77 53.55 1351.21 47.884 1353.47 49.0904C1355.73 50.2968 1354.08 57.9681 1353.19 59.6487C1352.3 61.3294 1349.28 61.995 1349.28 61.995L1349.27 61.9867Z" fill="#FC6911"/>
<path d="M1347.03 64.5577C1346.47 64.2581 1345.64 63.8172 1345.64 63.8172C1345.64 63.8172 1344.81 63.3762 1344.25 63.0767C1343.69 62.7771 1343.74 62.3778 1343.74 62.3778L1345.12 59.7819L1347.2 60.8884L1349.28 61.995L1347.9 64.5909C1347.9 64.5909 1347.6 64.8572 1347.04 64.5577H1347.03Z" fill="white"/>
<path d="M1346.79 53.4169C1345.6 54.8813 1344.38 56.5037 1345.81 58.4174C1347.06 60.098 1349.19 60.5057 1350.96 59.6904C1352.97 58.7668 1353.65 56.7533 1353.86 54.7232C1354.03 53.0592 1354.39 49.4815 1351.5 50.1721C1349.72 50.5964 1347.88 52.0857 1346.79 53.4169Z" fill="#FC9E2C"/>
<path d="M1347.44 53.7331C1346.66 55.4803 1347.26 57.785 1350.08 56.6202C1351.66 55.9629 1353.09 53.3753 1350.97 52.327C1349.28 51.4949 1347.99 52.4684 1347.44 53.7331Z" fill="#FFBA31"/>
<path d="M1347.66 63.5925C1349.58 62.8603 1347.41 60.2312 1346.27 61.8453C1345.67 62.7023 1346.71 63.9586 1347.66 63.5925Z" fill="#3F221A"/>
<path d="M769.067 41.9267C773.55 43.1747 777.793 45.6957 781.503 48.5662C790.229 55.3222 797.907 63.3928 809.719 63.5924C820.666 63.7672 830.981 58.4589 840.855 54.3986C849.856 50.6961 858.99 47.7674 868.831 47.9671C878.314 48.1585 887.764 50.8209 895.932 55.6383C896.282 55.8463 896.648 56.0627 897.014 56.2873C906.796 45.0467 927.11 45.7872 940.378 48.666C950.702 50.9041 960.592 55.2473 969.202 61.3543C978.269 67.7858 985.34 78.6021 997.676 77.7284C1004.63 77.2375 1012.18 73.9261 1018.54 69.4831C1017.02 67.5445 1015.71 65.3896 1014.7 63.01C1012.1 56.9446 1011.93 49.6728 1016.09 44.2064C1019.74 39.389 1026.48 38.5986 1030.54 43.4076C1035.2 48.9156 1033.71 56.5702 1029.54 61.8369C1027.27 64.7157 1024.34 67.3698 1021.11 69.7078C1021.22 69.8326 1021.33 69.9574 1021.45 70.0822C1028.05 77.0961 1037.81 80.99 1047.35 81.3394C1070.8 82.2047 1090.47 66.4213 1110.47 56.5702C1123.72 50.0388 1139.27 45.5127 1153.74 48.9905L1153.65 50.7461C1141.02 47.7757 1126.53 51.0705 1114.87 56.3955C1095.39 65.2814 1077.73 79.7835 1055.92 82.6207C1043.13 84.2848 1028.3 80.6239 1019.6 70.7728C1015.43 73.6016 1010.85 75.898 1006.55 77.4788C997.585 80.782 988.842 79.9666 981.314 73.8679C977.371 70.6812 973.894 66.9871 969.826 63.9419C965.084 60.3975 959.927 57.4022 954.503 55.0393C944.754 50.8043 934.131 48.5412 923.5 48.6244C914.782 48.691 904.6 50.7045 898.561 57.2608C904.617 61.2045 911.422 67.1868 910.939 74.6416C910.515 81.1148 904.201 86.0403 898.162 82.4127C891.657 78.5022 890.625 69.7577 893.013 63.1598C893.778 61.0465 894.801 59.1911 896.016 57.552C892.538 55.5385 889.036 53.9909 886.408 53.0258C875.369 48.9739 863.374 48.6743 852.127 52.0856C840.914 55.4886 830.632 61.5956 819.169 64.2248C809.104 66.5378 799.712 64.7989 791.319 58.7085C784.614 53.8412 777.31 46.0867 769 43.5408L769.083 41.9433L769.067 41.9267ZM1027.42 61.6455C1031.03 57.5187 1033.15 51.9026 1030.58 46.6525C1028.06 41.5106 1021.93 40.1628 1018.02 44.5808C1011.8 51.5947 1014.73 61.7287 1020.03 68.4015C1022.82 66.3048 1025.35 64.0084 1027.42 61.6455ZM895.026 62.7271C893.304 66.7957 892.855 71.6713 894.693 75.7898C895.849 78.3941 898.062 80.9733 900.907 81.7388C904.858 82.8038 907.994 79.7586 908.926 76.1809C910.789 69.0006 904.492 62.802 897.53 58.4506C896.54 59.7235 895.691 61.138 895.026 62.7188V62.7271Z" fill="white"/>
<path d="M1126.03 54.6066C1126.51 53.8828 1129.88 53.134 1130.62 53.5833C1130.62 53.5833 1133.35 55.0227 1133.77 56.8864C1134.18 58.7501 1133.73 66.5794 1131.23 67.1369C1128.73 67.6943 1125 60.7885 1124.58 58.9248C1124.17 57.0611 1126.03 54.6066 1126.03 54.6066Z" fill="#AB0F0F"/>
<path d="M1126.07 51.2037C1126.7 51.0622 1127.61 50.8625 1127.61 50.8625C1127.61 50.8625 1128.53 50.6545 1129.15 50.5214C1129.77 50.38 1129.99 50.7211 1129.99 50.7211L1130.63 53.5916L1128.34 54.0991L1126.04 54.6066L1125.4 51.7362C1125.4 51.7362 1125.46 51.3368 1126.07 51.2037Z" fill="white"/>
<path d="M1132.71 58.9747C1132.66 57.086 1132.54 55.0559 1130.21 54.5317C1128.16 54.0658 1126.27 55.1474 1125.46 56.9196C1124.53 58.9248 1125.32 60.8967 1126.49 62.5774C1127.44 63.9502 1129.49 66.9122 1131.23 64.5076C1132.3 63.0267 1132.74 60.697 1132.7 58.9747H1132.71Z" fill="#D71E17"/>
<path d="M1129.86 57.9347C1129.32 56.0959 1127.35 54.7397 1125.97 57.4604C1125.2 58.983 1125.8 61.8868 1128.08 61.3044C1129.91 60.8384 1130.25 59.2659 1129.86 57.9347Z" fill="#EE3329"/>
<path d="M1126.21 52.3436C1125.23 54.149 1128.59 54.7315 1128.4 52.7679C1128.3 51.7195 1126.71 51.4367 1126.21 52.3436Z" fill="#3F221A"/>
<path d="M1038.81 84.4179C1039.59 84.0269 1042.89 85.0669 1043.3 85.824C1043.3 85.824 1044.94 88.4366 1044.37 90.2504C1043.79 92.0642 1039.49 98.6288 1037.05 97.8634C1034.6 97.0979 1034.82 89.252 1035.39 87.4298C1035.97 85.616 1038.8 84.4096 1038.8 84.4096L1038.81 84.4179Z" fill="#FC6911"/>
<path d="M1040.54 81.4892C1041.15 81.6806 1042.05 81.9634 1042.05 81.9634C1042.05 81.9634 1042.95 82.2463 1043.55 82.4377C1044.16 82.6291 1044.18 83.0284 1044.18 83.0284L1043.3 85.8323L1041.05 85.1251L1038.8 84.4179L1039.68 81.614C1039.68 81.614 1039.93 81.2978 1040.54 81.4892Z" fill="white"/>
<path d="M1042.42 91.5399C1043.32 89.8842 1044.23 88.0621 1042.47 86.4397C1040.93 85.0169 1038.76 85.0086 1037.16 86.1401C1035.37 87.4131 1035.06 89.5181 1035.23 91.5566C1035.37 93.2206 1035.66 96.8066 1038.37 95.6002C1040.04 94.8514 1041.59 93.0542 1042.41 91.5399H1042.42Z" fill="#FC9E2C"/>
<path d="M1040.47 89.2103C1040.92 87.3466 1039.89 85.1917 1037.34 86.8557C1035.91 87.7876 1034.98 90.5998 1037.25 91.2404C1039.06 91.748 1040.15 90.5582 1040.47 89.2103Z" fill="#FFBA31"/>
<path d="M1040.1 82.5541C1038.35 83.6274 1040.96 85.8073 1041.79 84.0185C1042.23 83.0617 1040.98 82.0216 1040.1 82.5541Z" fill="#3F221A"/>
<path d="M1004.73 81.2146C1005.09 80.4242 1008.3 79.1429 1009.1 79.4674C1009.1 79.4674 1012.03 80.4491 1012.73 82.2213C1013.44 83.9935 1014.25 91.7979 1011.87 92.7464C1009.49 93.6949 1004.7 87.4797 1003.99 85.7075C1003.28 83.9353 1004.73 81.2063 1004.73 81.2063V81.2146Z" fill="#AB0F0F"/>
<path d="M1004.22 77.8532C1004.81 77.6203 1005.69 77.2708 1005.69 77.2708C1005.69 77.2708 1006.56 76.9214 1007.15 76.6884C1007.74 76.4555 1008.01 76.7467 1008.01 76.7467L1009.1 79.4757L1006.91 80.3493L1004.72 81.2229L1003.63 78.4939C1003.63 78.4939 1003.62 78.0945 1004.21 77.8532H1004.22Z" fill="white"/>
<path d="M1012.03 84.4512C1011.68 82.5958 1011.23 80.6156 1008.85 80.4658C1006.76 80.341 1005.06 81.7055 1004.55 83.5859C1003.96 85.7158 1005.05 87.538 1006.47 89.0106C1007.63 90.2087 1010.13 92.8046 1011.46 90.1505C1012.28 88.5114 1012.35 86.1485 1012.03 84.4512Z" fill="#D71E17"/>
<path d="M1009.04 83.8854C1008.21 82.1631 1006.06 81.1314 1005.13 84.0435C1004.61 85.6742 1005.66 88.4365 1007.82 87.4963C1009.56 86.7392 1009.64 85.1334 1009.04 83.8854Z" fill="#EE3329"/>
<path d="M1004.56 78.9515C1003.88 80.8901 1007.28 80.9317 1006.79 79.0181C1006.52 77.9947 1004.9 77.9781 1004.56 78.9515Z" fill="#3F221A"/>
<path d="M915.489 52.1438C916.022 51.4532 919.441 50.9457 920.139 51.4532C920.139 51.4532 922.76 53.084 923.034 54.9727C923.317 56.8614 922.302 64.6407 919.765 65.0152C917.228 65.3896 914.009 58.2342 913.726 56.3538C913.443 54.4652 915.481 52.1438 915.481 52.1438H915.489Z" fill="#AB0F0F"/>
<path d="M915.772 48.7492C916.404 48.6577 917.328 48.5163 917.328 48.5163C917.328 48.5163 918.259 48.3748 918.883 48.2833C919.515 48.1918 919.707 48.5412 919.707 48.5412L920.139 51.4533L917.81 51.7944L915.481 52.1355L915.048 49.2235C915.048 49.2235 915.132 48.8324 915.764 48.7409L915.772 48.7492Z" fill="white"/>
<path d="M921.836 56.9779C921.928 55.0892 921.944 53.059 919.657 52.3685C917.652 51.7611 915.689 52.7013 914.749 54.4069C913.684 56.3372 914.325 58.3673 915.373 60.1229C916.221 61.5623 918.051 64.6574 919.965 62.386C921.146 60.9799 921.753 58.6918 921.828 56.9695L921.836 56.9779Z" fill="#D71E17"/>
<path d="M919.066 55.7298C918.659 53.8578 916.804 52.3602 915.223 54.981C914.341 56.4454 914.732 59.3824 917.053 58.9664C918.908 58.6336 919.366 57.086 919.066 55.7382V55.7298Z" fill="#EE3329"/>
<path d="M915.839 49.9057C914.732 51.6363 918.035 52.46 917.993 50.4881C917.977 49.4315 916.388 49.0404 915.839 49.9057Z" fill="#3F221A"/>
<path d="M828.885 64.0833C829.201 63.2763 832.354 61.8452 833.169 62.1364C833.169 62.1364 836.139 62.985 836.921 64.724C837.711 66.4629 838.876 74.2173 836.547 75.2823C834.209 76.339 829.143 70.3484 828.353 68.6178C827.562 66.8789 828.885 64.0916 828.885 64.0916V64.0833Z" fill="#AB0F0F"/>
<path d="M828.22 60.7469C828.802 60.4807 829.659 60.098 829.659 60.098C829.659 60.098 830.516 59.7069 831.09 59.449C831.672 59.1827 831.955 59.4739 831.955 59.4739L833.169 62.153L831.031 63.1265L828.893 64.1L827.679 61.4209C827.679 61.4209 827.654 61.0215 828.228 60.7553L828.22 60.7469Z" fill="white"/>
<path d="M836.314 66.9788C835.881 65.14 835.34 63.1847 832.953 63.1431C830.857 63.1099 829.235 64.5576 828.802 66.4546C828.311 68.6095 829.484 70.3734 830.973 71.7795C832.188 72.9277 834.8 75.4071 836.014 72.6947C836.763 71.0224 836.713 68.6511 836.322 66.9788H836.314Z" fill="#D71E17"/>
<path d="M833.311 66.5461C832.404 64.8654 830.208 63.9336 829.409 66.8789C828.96 68.5346 830.141 71.247 832.262 70.207C833.951 69.375 833.968 67.7609 833.311 66.5461Z" fill="#EE3329"/>
<path d="M828.602 61.8368C828.012 63.8004 831.414 63.6922 830.832 61.8035C830.524 60.7968 828.893 60.855 828.602 61.8368Z" fill="#3F221A"/>
<path d="M875.352 45.5543C874.662 46.0785 871.226 45.6708 870.686 44.9968C870.686 44.9968 868.589 42.7337 868.814 40.8451C869.039 38.9564 872.05 31.7095 874.604 32.009C877.157 32.3085 878.38 40.063 878.156 41.9517C877.931 43.8403 875.361 45.5543 875.361 45.5543H875.352Z" fill="#FC6911"/>
<path d="M874.188 48.7575C873.555 48.6827 872.624 48.5745 872.624 48.5745C872.624 48.5745 871.692 48.4663 871.06 48.3914C870.428 48.3166 870.336 47.9255 870.336 47.9255L870.686 45.0051L873.023 45.2797L875.361 45.5543L875.011 48.4746C875.011 48.4746 874.828 48.8324 874.196 48.7575H874.188Z" fill="white"/>
<path d="M869.737 38.1493C869.155 39.9465 868.606 41.9017 870.627 43.1664C872.408 44.2813 874.537 43.8819 875.893 42.4841C877.424 40.895 877.34 38.7733 876.791 36.8014C876.351 35.1956 875.394 31.7178 872.948 33.4068C871.443 34.4468 870.261 36.5019 869.729 38.141L869.737 38.1493Z" fill="#FC9E2C"/>
<path d="M870.602 38.0744C870.511 39.9881 871.908 41.9183 874.113 39.805C875.352 38.6235 875.743 35.6865 873.389 35.4868C871.509 35.3204 870.669 36.6933 870.602 38.0744Z" fill="#FFBA31"/>
<path d="M874.429 47.626C875.951 46.2448 872.982 44.5891 872.499 46.4944C872.241 47.5178 873.664 48.3082 874.429 47.626Z" fill="#3F221A"/>
<path d="M787.101 48.6577C786.244 48.7825 783.433 46.7773 783.275 45.9287C783.275 45.9287 782.526 42.9334 783.632 41.3859C784.739 39.8383 790.869 34.9294 792.949 36.4187C795.037 37.908 792.392 45.2964 791.285 46.8522C790.179 48.3998 787.101 48.666 787.101 48.666V48.6577Z" fill="#009EB1"/>
<path d="M784.539 50.9041C784.023 50.5381 783.258 49.9889 783.258 49.9889C783.258 49.9889 782.493 49.4398 781.977 49.0737C781.461 48.7076 781.561 48.3166 781.561 48.3166L783.266 45.9203L785.18 47.2849L787.093 48.6494L785.387 51.0456C785.387 51.0456 785.055 51.2702 784.539 50.9041Z" fill="#1A2F42"/>
<path d="M785.787 39.6136C784.414 40.9116 782.992 42.3593 784.156 44.4477C785.179 46.2781 787.242 46.9604 789.106 46.3779C791.21 45.7206 792.159 43.8153 792.625 41.8268C793.007 40.2044 793.839 36.7016 790.886 37.0094C789.064 37.2008 787.043 38.4238 785.787 39.6136Z" fill="#1BC7C7"/>
<path d="M787.076 39.4139C786.078 41.0447 786.369 43.4076 789.322 42.6255C790.978 42.1846 792.733 39.7967 790.77 38.4904C789.197 37.442 787.8 38.2408 787.076 39.4139Z" fill="#75DDDD"/>
<path d="M785.296 50.0305C787.292 49.5562 785.487 46.6691 784.148 48.1169C783.433 48.8906 784.298 50.2718 785.296 50.0305Z" fill="#3F221A"/>
<path d="M889.394 73.9095C890.184 74.2756 891.415 77.5038 891.074 78.3026C891.074 78.3026 890.043 81.2146 888.271 81.8969C886.491 82.5792 878.68 83.2697 877.765 80.8735C876.85 78.4773 883.138 73.7847 884.919 73.1025C886.699 72.4202 889.402 73.9095 889.402 73.9095H889.394Z" fill="#009EB1"/>
<path d="M892.771 73.4435C892.996 74.0343 893.337 74.9162 893.337 74.9162C893.337 74.9162 893.67 75.7981 893.903 76.3889C894.127 76.9796 893.828 77.2458 893.828 77.2458L891.083 78.2942L890.243 76.0977L889.402 73.9011L892.147 72.8528C892.147 72.8528 892.547 72.8528 892.78 73.4435H892.771Z" fill="white"/>
<path d="M886.05 81.1481C887.913 80.8236 889.902 80.4076 890.085 78.028C890.243 75.9396 888.903 74.2257 887.032 73.6765C884.91 73.0525 883.072 74.1175 881.583 75.5153C880.368 76.6552 877.731 79.1179 880.368 80.4908C881.991 81.3394 884.361 81.4393 886.058 81.1398L886.05 81.1481Z" fill="#1BC7C7"/>
<path d="M886.666 78.1778C888.404 77.3707 889.461 75.2407 886.566 74.2589C884.944 73.7098 882.165 74.7249 883.072 76.9048C883.804 78.6437 885.409 78.7518 886.657 78.1778H886.666Z" fill="#75DDDD"/>
<path d="M891.657 73.7597C889.727 73.0525 889.635 76.4555 891.557 75.9895C892.58 75.7399 892.622 74.1092 891.657 73.7597Z" fill="#3F221A"/>
<path d="M1012.33 44.639C1012.67 45.4378 1011.46 48.6743 1010.68 49.0487C1010.68 49.0487 1007.98 50.5547 1006.19 49.8891C1004.41 49.2234 998.084 44.5725 998.982 42.1762C999.881 39.7717 1007.7 40.4124 1009.49 41.078C1011.28 41.7436 1012.33 44.6473 1012.33 44.6473V44.639Z" fill="#009EB1"/>
<path d="M1015.16 46.5194C1014.94 47.1184 1014.61 47.9921 1014.61 47.9921C1014.61 47.9921 1014.28 48.874 1014.06 49.4647C1013.85 50.0555 1013.44 50.0638 1013.44 50.0638L1010.69 49.0321L1011.51 46.8272L1012.33 44.6224L1015.09 45.6541C1015.09 45.6541 1015.39 45.9203 1015.17 46.5111L1015.16 46.5194Z" fill="white"/>
<path d="M1005.03 47.8589C1006.64 48.849 1008.41 49.8475 1010.12 48.1834C1011.63 46.7191 1011.75 44.5558 1010.7 42.9001C1009.52 41.0364 1007.44 40.6204 1005.4 40.6786C1003.72 40.7285 1000.13 40.8284 1001.2 43.6073C1001.85 45.3213 1003.57 46.952 1005.03 47.8589Z" fill="#1BC7C7"/>
<path d="M1007.46 46.0285C1009.3 46.5693 1011.5 45.6707 1009.97 43.0249C1009.11 41.5439 1006.36 40.4623 1005.6 42.7004C1005 44.4892 1006.13 45.6291 1007.46 46.0285Z" fill="#75DDDD"/>
<path d="M1014.12 46.0202C1013.14 44.2147 1010.83 46.7025 1012.57 47.626C1013.5 48.1169 1014.6 46.9271 1014.12 46.0202Z" fill="#3F221A"/>
<path d="M1087.52 66.1966C1087.19 67.0037 1084.05 68.4264 1083.22 68.1269C1083.22 68.1269 1080.26 67.2699 1079.47 65.531C1078.69 63.7921 1077.54 56.0294 1079.88 54.981C1082.22 53.9244 1087.27 59.9315 1088.05 61.6704C1088.83 63.4094 1087.51 66.1966 1087.51 66.1966H1087.52Z" fill="#009EB1"/>
<path d="M1088.17 69.5331C1087.58 69.791 1086.73 70.182 1086.73 70.182C1086.73 70.182 1085.87 70.5648 1085.29 70.831C1084.7 71.0889 1084.42 70.806 1084.42 70.806L1083.22 68.1269L1085.36 67.1618L1087.51 66.1967L1088.71 68.8758C1088.71 68.8758 1088.74 69.2751 1088.17 69.5414V69.5331Z" fill="white"/>
<path d="M1079.09 62.3361C1079.52 64.1749 1080.05 66.1385 1082.44 66.1801C1084.54 66.2217 1086.17 64.7823 1086.6 62.8769C1087.1 60.7303 1085.93 58.9498 1084.45 57.5437C1083.24 56.3955 1080.63 53.9078 1079.41 56.6202C1078.65 58.2925 1078.69 60.6554 1079.09 62.3361Z" fill="#1BC7C7"/>
<path d="M1079.43 61.3377C1080.34 63.0267 1082.53 63.9585 1083.33 61.0132C1083.78 59.3658 1082.61 56.6451 1080.49 57.6768C1078.79 58.5088 1078.77 60.1146 1079.43 61.3377Z" fill="#75DDDD"/>
<path d="M1087.79 68.4431C1088.38 66.4795 1084.99 66.5794 1085.56 68.4681C1085.87 69.4748 1087.5 69.4249 1087.79 68.4431Z" fill="#3F221A"/>
<path d="M964.652 54.8895C963.82 55.1308 960.767 53.5084 960.501 52.6847C960.501 52.6847 959.361 49.8142 960.259 48.1335C961.158 46.4529 966.59 40.7868 968.853 41.9932C971.115 43.1997 969.46 50.8709 968.57 52.5516C967.68 54.2322 964.66 54.8979 964.66 54.8979L964.652 54.8895Z" fill="#FC6911"/>
<path d="M962.414 57.4605C961.857 57.161 961.025 56.72 961.025 56.72C961.025 56.72 960.193 56.279 959.636 55.9795C959.078 55.68 959.128 55.2806 959.128 55.2806L960.509 52.6847L962.589 53.7913L964.668 54.8979L963.287 57.4938C963.287 57.4938 962.988 57.76 962.422 57.4605H962.414Z" fill="white"/>
<path d="M962.164 46.3198C960.975 47.7841 959.752 49.4066 961.183 51.3202C962.439 53.0009 964.568 53.4086 966.34 52.5932C968.345 51.6696 969.027 49.6562 969.235 47.626C969.402 45.962 969.768 42.3843 966.881 43.0749C965.101 43.4992 963.254 44.9885 962.164 46.3198Z" fill="#FC9E2C"/>
<path d="M962.813 46.6359C962.031 48.3832 962.639 50.6878 965.459 49.523C967.039 48.8657 968.47 46.2781 966.349 45.2298C964.66 44.3978 963.371 45.3712 962.813 46.6359Z" fill="#FFBA31"/>
<path d="M963.046 56.4954C964.959 55.7632 962.797 53.134 961.657 54.7481C961.05 55.6051 962.089 56.8614 963.046 56.4954Z" fill="#3F221A"/>
</svg>
