<svg width="215" height="215" viewBox="0 0 215 215" fill="none" xmlns="http://www.w3.org/2000/svg">
<path d="M108.649 30C81.1054 30 58.7073 52.4112 58.7073 79.955C58.7073 105.814 78.4673 127.154 103.699 129.649V119.671C83.9525 117.229 68.6199 100.355 68.6199 79.955C68.6199 59.5551 83.9525 42.6814 103.699 40.2391V79.955H113.612V40.2391C133.359 42.6814 148.692 59.5551 148.692 79.955C148.692 100.355 133.372 117.229 113.625 119.671V129.649C138.844 127.154 158.604 105.814 158.604 79.955C158.591 52.4112 136.193 30 108.649 30Z" fill="#0042D2"/>
<path d="M91.828 79.955C95.1747 79.955 97.8879 77.2419 97.8879 73.8952C97.8879 70.5484 95.1747 67.8353 91.828 67.8353C88.4812 67.8353 85.7681 70.5484 85.7681 73.8952C85.7681 77.2419 88.4812 79.955 91.828 79.955Z" fill="#0042D2"/>
<path d="M125.471 79.955C128.817 79.955 131.53 77.2419 131.53 73.8952C131.53 70.5484 128.817 67.8353 125.471 67.8353C122.124 67.8353 119.411 70.5484 119.411 73.8952C119.411 77.2419 122.124 79.955 125.471 79.955Z" fill="#0042D2"/>
<path d="M76.534 155.821H69.4162L68.058 159.113H64.4272L71.2577 143.78H74.7709L81.6275 159.113H77.9053L76.534 155.821ZM75.4239 153.118L72.9947 147.254L70.5655 153.118H75.4239Z" fill="#0042D2"/>
<path d="M97.1689 159.099L97.1428 149.905L92.6371 157.48H91.0437L86.551 150.101V159.099H83.2207V143.767H86.1592L91.8926 153.288L97.5477 143.767H100.46L100.499 159.099H97.1689Z" fill="#0042D2"/>
<path d="M114.239 155.821H107.121L105.763 159.113H102.132L108.962 143.78H112.462L119.319 159.113H115.597L114.239 155.821ZM113.129 153.118L110.699 147.254L108.27 153.118H113.129Z" fill="#0042D2"/>
<path d="M134.991 143.767V159.099H132.078L124.438 149.787V159.099H120.938V143.767H123.877L131.504 153.079V143.767H134.991Z" fill="#0042D2"/>
<path d="M137.668 151.433C137.668 146.81 141.221 143.506 145.988 143.506C148.639 143.506 150.846 144.472 152.296 146.222L150.023 148.325C148.992 147.136 147.699 146.523 146.171 146.523C143.297 146.523 141.26 148.534 141.26 151.433C141.26 154.319 143.297 156.344 146.171 156.344C147.699 156.344 148.992 155.73 150.023 154.528L152.296 156.631C150.846 158.407 148.639 159.374 145.962 159.374C141.208 159.361 137.668 156.056 137.668 151.433Z" fill="#0042D2"/>
<path d="M62.4817 177.736V183.169H58.9293V177.697L53 167.837H56.7613L60.8622 174.641L64.9631 167.837H68.4501L62.4817 177.736Z" fill="#0042D2"/>
<path d="M69.5864 176.417V167.837H73.1388V176.287C73.1388 179.199 74.4056 180.401 76.5605 180.401C78.7285 180.401 79.9823 179.199 79.9823 176.287V167.837H83.4824V176.417C83.4824 180.923 80.8965 183.43 76.5344 183.43C72.1723 183.43 69.5864 180.923 69.5864 176.417Z" fill="#0042D2"/>
<path d="M86.0161 175.49C86.0161 170.867 89.5685 167.562 94.3354 167.562C96.9866 167.562 99.1938 168.529 100.643 170.279L98.371 172.382C97.3393 171.193 96.0463 170.579 94.5183 170.579C91.645 170.579 89.6077 172.591 89.6077 175.49C89.6077 178.376 91.645 180.401 94.5183 180.401C96.0463 180.401 97.3393 179.787 98.371 178.585L100.643 180.688C99.1938 182.464 96.9866 183.43 94.3093 183.43C89.5685 183.43 86.0161 180.113 86.0161 175.49Z" fill="#0042D2"/>
<path d="M112.828 179.878H105.711L104.352 183.169H100.722L107.552 167.837H111.052L117.909 183.169H114.187L112.828 179.878ZM111.718 177.188L109.289 171.324L106.86 177.188H111.718Z" fill="#0042D2"/>
<path d="M121.918 170.723H117.008V167.837H130.368V170.723H125.458V183.156H121.918V170.723Z" fill="#0042D2"/>
<path d="M141.613 179.878H134.495L133.137 183.169H129.506L136.337 167.837H139.837L146.694 183.169H142.971L141.613 179.878ZM140.503 177.188L138.074 171.324L135.645 177.188H140.503ZM138.766 166.583H136.089L139.04 163.435H142.723L138.766 166.583Z" fill="#0042D2"/>
<path d="M162.366 167.837V183.169H159.453L151.813 173.857V183.169H148.3V167.837H151.238L158.865 177.149V167.837H162.366Z" fill="#0042D2"/>
</svg>
