<svg width="215" height="215" viewBox="0 0 215 215" fill="none" xmlns="http://www.w3.org/2000/svg">
<path d="M180.005 124.903C180.005 127.575 180.579 130.391 179.924 132.88C174.478 153.609 161.029 166.972 140.476 172.338C125.205 176.337 109.585 175.806 94.3957 170.91C78.633 165.83 66.248 156.465 58.5919 141.51C55.9306 136.307 52.4505 132.451 46.8824 129.656C39.8813 126.147 33.6377 120.985 32 112.824C32.737 112.11 33.4944 111.376 34.2313 110.662C38.7759 114.926 43.3205 119.17 49.4004 124.862C49.0933 120.883 49.1752 118.782 48.7248 116.762C39.5743 74.8965 74.6207 42.2936 109.688 39.3965C125.368 38.0908 140.722 39.8454 155.092 47.129C174.908 57.1873 185.84 78.3649 182.36 100.053C180.763 109.988 175.952 117.884 167.395 123.005C151.653 132.431 134.969 134.43 118.06 126.535C113.229 124.29 109.688 124.76 104.836 126.27C91.4478 130.432 77.6913 133.451 63.4844 137.083C67.7015 148.345 77.3228 155.975 88.6024 161.667C99.9843 167.401 112.328 169.665 125.041 168.482C137.63 167.299 149.401 164.116 159.514 155.526C169.34 147.202 172.022 134.94 177.16 123.964C178.122 124.29 179.064 124.597 180.005 124.903ZM119.207 119.006C134.355 129.33 162.175 124.841 171.571 110.539C174.069 106.745 176.157 101.868 176.259 97.4411C176.792 76.4675 170.814 61.329 150.916 51.9031C129.135 41.6 93.454 40.4778 69.9942 64.8994C54.5795 80.9356 50.4239 99.6853 56.1353 120.883C57.1384 124.637 58.7352 127.718 63.3821 128.106C77.8141 129.269 91.2022 126.29 104.488 119.149C101.172 115.558 98.019 113.232 96.3404 110.111C92.758 103.378 88.889 96.5026 87.0875 89.2189C84.9585 80.6296 89.7692 74.9781 98.6946 73.7744C105.041 72.9175 111.489 72.3258 117.876 72.4686C135.972 72.8563 142.789 83.5063 135.399 100.053C133.393 104.521 129.749 108.336 126.535 112.192C124.447 114.681 121.724 116.68 119.207 119.006ZM111.632 115.232C120.312 110.499 127.415 104.561 130.711 95.1764C134.273 84.9957 130.732 79.3646 120.087 78.8138C113.761 78.4873 107.292 78.977 101.008 79.8543C93.1674 80.956 91.6116 83.8939 93.6587 91.7692C96.32 102.052 102.83 109.376 111.632 115.232Z" fill="black"/>
</svg>
