<svg width="215" height="215" viewBox="0 0 215 215" fill="none" xmlns="http://www.w3.org/2000/svg">
<path d="M85.9955 62.0669C86.6878 64.0626 88.7379 63.7232 90.1498 64.4292C90.815 64.755 91.6975 64.6328 92.4034 64.9179C92.96 65.1487 94.3041 65.0537 92.7971 66.4113C90.2041 68.7328 91.2494 71.9096 92.0097 74.7335C92.6478 77.0957 93.761 79.3222 94.6571 81.6166C94.9422 82.3361 95.4581 83.11 95.3902 83.8159C95.0372 87.5494 96.4627 90.7126 98.2548 93.7944C98.8114 94.7448 98.3498 95.0027 97.5352 95.505C95.1322 96.9577 92.9736 95.2199 90.6928 95.152C90.462 95.152 90.0955 94.3646 90.0683 93.9302C89.9733 92.3554 90.2584 90.7126 89.9054 89.2193C88.8872 84.8885 87.3259 80.7749 83.6332 77.8967L83.7011 77.9646C83.416 77.6795 83.1173 77.3808 82.8322 77.0957L82.9137 77.1772C82.615 76.8785 82.3163 76.5798 82.0176 76.2947L82.1398 76.4033C82.1127 75.2358 82.0855 74.0682 82.0584 72.9143C82.0448 72.1404 82.1262 71.3394 81.9498 70.5927C81.8411 70.1583 81.3117 69.8325 80.9859 69.4659C80.8229 69.8868 80.66 70.2941 80.5243 70.7285C80.4835 70.8371 80.5514 70.9865 80.5786 71.1086C81.5017 75.1272 81.5017 75.1272 78.868 77.2179L78.9766 77.1229C74.4693 78.1818 69.8941 78.1275 65.3054 77.856C64.1107 77.7881 63.717 77.4894 64.3143 76.1726C64.6809 75.3444 64.5587 74.1361 64.26 73.2265C63.6491 71.3937 62.7666 69.656 61.9928 67.8775C61.4362 66.5878 60.8524 65.298 60.2686 63.9404C59.7391 64.8907 59.8885 65.8139 60.3093 66.7914C61.4905 69.5202 63.3368 72.2083 63.5676 75.0186C63.7848 77.6795 62.2507 80.4762 61.504 83.2186C61.3004 83.9653 61.1103 84.7255 60.9474 85.4858C60.4723 87.6173 60.6623 89.6401 62.0064 91.4593C62.3865 91.9888 62.7938 92.4911 63.1332 93.0613C63.6491 93.9302 64.1107 94.8398 64.5994 95.7358C63.3776 96.1159 62.1829 96.7812 60.9474 96.8355C56.155 97.0391 54.5938 95.6136 55.3812 90.8891C56.06 86.7755 55.4083 82.9199 54.4173 79.0779C53.915 77.1229 52.9646 75.1679 51.7971 73.5116C50.358 71.4616 48.7696 69.6153 48.7696 66.9136C48.7696 65.9768 47.8871 66.1669 47.2626 66.099L47.3441 66.1805C46.7739 63.8454 48.6067 62.3792 49.3398 60.5056C50.3716 57.8447 52.2722 55.9305 54.2544 54.0434C56.7795 51.654 59.8342 50.3371 63.1739 49.6719C64.1785 49.4682 65.2918 49.4818 66.2964 49.6719C69.161 50.2285 71.9848 50.9073 74.9445 50.5C75.9762 50.3642 75.216 51.0702 75.216 51.4503C75.216 52.455 75.6911 53.5546 76.6143 55.1023L76.5193 54.9937C76.56 55.6997 76.3971 56.5142 77.4153 56.6907L77.3067 56.5686C77.6054 56.8672 77.9176 57.1795 78.2163 57.4782L78.0941 57.356C78.3928 57.6546 78.7051 57.9669 79.0037 58.2656L78.8815 58.157C80.8772 60.2748 83.2123 61.7682 86.1312 62.2162L85.9955 62.0669Z" fill="#2C4C3B"/>
<path d="M76.6007 55.0345C76.5871 54.6407 76.6414 54.2335 76.5464 53.8533C75.7318 50.2149 77.714 48.0835 80.6464 46.7394C83.9454 45.2189 87.3938 44.1192 91.1136 43.997C92.7699 43.9427 94.5077 43.644 96.0418 43.0467C98.4855 42.0964 100.888 42.0964 103.346 42.6801C105.613 43.2232 107.826 43.9699 110.093 44.4858C111.749 44.8659 113.487 45.151 115.008 44.0242C115.469 43.6848 116.135 43.006 116.039 42.6394C115.877 41.9742 115.252 41.3904 114.763 40.8338C114.628 40.6844 114.261 40.7523 114.003 40.698C112.727 40.4672 111.451 40.25 110.188 39.9785C104.69 38.7702 103.848 37.304 105.518 31.8192C105.708 31.2083 105.912 30.5974 106.536 30C106.536 31.0997 106.536 32.2129 106.536 33.3126C106.536 36.7338 107.527 37.6162 111.016 37.6977C112.795 37.7384 114.492 37.1003 116.338 37.5076C120.343 38.3765 121.999 41.2682 121.008 45.246C120.357 47.8391 118.714 49.604 116.745 51.7219C118.347 51.7897 119.624 51.8441 120.9 51.8984L120.791 51.8033C119.569 53.2288 117.913 52.3464 116.474 52.6451C116.148 52.7129 115.849 52.9301 115.551 53.0795C115.809 53.3646 116.053 53.9076 116.311 53.9076C117.832 53.9348 119.366 53.9619 120.873 53.7311C121.837 53.5954 122.733 53.0252 123.737 52.8894C121.796 54.8987 119.366 55.6454 116.678 55.2517C114.641 54.953 112.659 54.3013 110.636 53.8669C109.645 53.6497 108.613 53.5275 107.595 53.4868C107.324 53.4732 106.862 53.8398 106.808 54.1113C106.753 54.3556 107.052 54.8037 107.324 54.9666C107.975 55.3874 108.695 55.6997 109.455 56.0934C107.405 56.7994 105.423 57.4917 103.441 58.1841C103.196 58.2656 102.966 58.3878 102.721 58.4964C101.717 58.9172 100.4 57.3152 99.6259 58.8358C99.11 59.854 98.9335 61.0623 98.6213 62.1755C98.2818 63.3838 97.4401 63.6961 96.259 63.7775C92.6885 64.0219 89.3216 63.1802 85.9954 62.0805L86.104 62.1755C84.1762 59.9626 81.5967 58.8901 78.8544 58.1162L78.9765 58.2249C78.6779 57.9262 78.3656 57.6139 78.0669 57.3153L78.1891 57.4374C77.8904 57.1388 77.5782 56.8265 77.2795 56.5278L77.3881 56.65C77.0895 56.0798 76.7908 55.5096 76.4921 54.953L76.6007 55.0345ZM93.9511 48.6672C93.6795 48.4093 93.4216 48.1378 93.1501 47.8798C91.0593 45.7348 90.6249 45.7212 86.3484 47.7441C88.6971 48.3143 90.9779 46.5493 93.1772 47.8662C93.4352 48.1378 93.7067 48.3957 93.9646 48.6672C94.114 49.1152 94.2497 49.5497 94.3991 49.9977C94.4941 49.9162 94.6842 49.7669 94.6706 49.7533C94.4534 49.3732 94.1954 49.0202 93.9511 48.6672ZM104.812 47.0245C104.798 46.7394 104.812 46.5493 104.785 46.5493C104.445 46.4679 103.97 46.2643 103.78 46.4C103.414 46.6715 103.21 47.1603 102.938 47.5676C103.169 47.649 103.468 47.8391 103.631 47.7712C104.092 47.5676 104.473 47.2417 104.812 47.0245Z" fill="#2C4C3B"/>
<path d="M83.6465 77.8967C83.3479 78.8742 83.1171 79.8653 82.7505 80.8292C81.773 83.3951 81.5151 85.8659 83.3343 88.2146C84.0403 89.1378 83.5108 89.6401 82.5197 89.7216C81.7323 89.7895 80.9449 89.8166 80.1575 89.7759C77.6594 89.6673 77.3065 89.3007 77.3472 86.6669C77.3743 85.1057 77.5644 83.5444 77.7002 81.9832C77.7409 81.4944 78.0396 80.8563 77.8224 80.5577C76.6548 78.8335 78.2296 78.1139 78.9763 77.0957L78.8677 77.1908C79.9538 76.9328 81.0535 76.6613 82.1396 76.4033L82.0174 76.2947C82.3161 76.5934 82.6148 76.8921 82.9134 77.1772L82.832 77.0957C83.1171 77.3808 83.4158 77.6795 83.7009 77.9646L83.6465 77.8967Z" fill="#2C4C3B"/>
<path d="M52.3539 77.0551C53.7522 79.7431 54.0645 82.3769 54.3496 84.9835C54.5125 86.5312 54.4718 88.1196 54.3496 89.6673C54.2817 90.5226 55.137 92.0567 53.3721 92.0839C51.1456 92.1246 49.53 90.6584 49.6929 88.9885C49.7473 88.4862 49.883 87.9703 50.0731 87.4951C50.8876 85.4451 51.4035 83.3544 51.4171 81.1008C51.4035 79.8653 51.9602 78.6163 52.3539 77.0551Z" fill="#2C4C3B"/>
<path d="M47.2487 66.0312C47.5067 68.9636 47.7782 71.8825 48.0361 74.815L48.1312 74.7199C46.1898 71.0544 45.9861 68.9229 47.3302 66.1126L47.2487 66.0312Z" fill="#2C4C3B"/>
<path d="M48.9186 77.8832C47.3845 77.1365 48.4434 75.7517 48.1312 74.7064L48.0361 74.8014C49.5702 75.5345 48.5792 76.9057 48.8236 77.9646L48.9186 77.8832Z" fill="#2C4C3B"/>
<path d="M48.8237 77.9782C49.0274 78.3448 49.2446 78.6977 49.4211 79.0643C49.4347 79.0915 49.2853 79.2136 49.2039 79.2951C49.0953 78.9557 48.9731 78.6163 48.8916 78.2633C48.8645 78.1411 48.9052 78.0054 48.9188 77.8832L48.8237 77.9782Z" fill="#2C4C3B"/>
<path d="M120.913 51.8848C121.008 51.6812 121.103 51.4775 121.198 51.2739C121.063 51.4504 120.927 51.6133 120.805 51.7898L120.913 51.8848Z" fill="#2C4C3B"/>
<path d="M59.508 120.254H51.8103V126.472H60.8792V129.092H48.5249V109.434H60.7842V112.068H51.8103V117.621H59.508V120.254Z" fill="#2C4C3B"/>
<path d="M67.0022 129.092H63.7168V108.036H67.0022V129.092Z" fill="#2C4C3B"/>
<path d="M76.872 129.378C74.7405 129.378 73.0707 128.699 71.8759 127.355C70.6677 126.011 70.0703 124.259 70.0703 122.128V121.585C70.0703 119.44 70.6677 117.675 71.8759 116.29C73.0842 114.905 74.6319 114.213 76.5326 114.213C78.5011 114.213 79.9809 114.824 80.9856 116.032C81.9902 117.24 82.4925 118.856 82.4925 120.892V122.657H73.4644L73.4372 122.725C73.4779 123.92 73.7902 124.897 74.3875 125.644C74.9849 126.391 75.8809 126.771 77.0756 126.771C77.9717 126.771 78.7319 126.662 79.3972 126.445C80.0488 126.228 80.6597 125.916 81.2164 125.508L82.2889 127.653C81.7323 128.142 80.9991 128.549 80.076 128.875C79.1256 129.215 78.0667 129.378 76.872 129.378ZM76.519 116.847C75.6637 116.847 74.9849 117.159 74.469 117.77C73.9531 118.381 73.6409 119.195 73.5051 120.173L73.5322 120.241H79.2478V119.983C79.2478 119.046 79.0306 118.286 78.5962 117.702C78.1617 117.145 77.4693 116.847 76.519 116.847Z" fill="#2C4C3B"/>
<path d="M86.2123 129.092V116.915H83.9858V114.484H86.2123V112.787C86.2123 111.172 86.6468 109.936 87.5292 109.068C88.4117 108.199 89.6335 107.764 91.2219 107.764C91.5342 107.764 91.86 107.791 92.1859 107.832C92.5117 107.886 92.8782 107.954 93.2855 108.036L92.9461 110.575C92.7696 110.534 92.566 110.507 92.3488 110.48C92.1316 110.452 91.8872 110.439 91.6428 110.439C90.9368 110.439 90.3938 110.642 90.0408 111.05C89.6878 111.457 89.5113 112.041 89.5113 112.787V114.484H92.2266V116.915H89.5113V129.092H86.2123Z" fill="#2C4C3B"/>
<path d="M103.305 129.092C103.183 128.726 103.088 128.359 103.02 128.006C102.938 127.653 102.898 127.3 102.87 126.947C102.436 127.626 101.839 128.21 101.106 128.672C100.372 129.133 99.5443 129.364 98.6347 129.364C97.1141 129.364 95.9466 128.97 95.132 128.196C94.3174 127.409 93.9102 126.337 93.9102 124.965C93.9102 123.553 94.4668 122.454 95.58 121.666C96.6933 120.879 98.2681 120.485 100.291 120.485H102.843V119.209C102.843 118.449 102.626 117.851 102.178 117.417C101.73 116.982 101.092 116.765 100.237 116.765C99.49 116.765 98.8926 116.942 98.4582 117.295C98.0237 117.648 97.7929 118.109 97.7929 118.68L94.6297 118.693L94.6161 118.612C94.5482 117.458 95.0641 116.439 96.1638 115.543C97.2635 114.647 98.6754 114.213 100.44 114.213C102.137 114.213 103.509 114.647 104.554 115.503C105.599 116.372 106.115 117.607 106.115 119.223V125.712C106.115 126.309 106.156 126.893 106.237 127.45C106.319 128.006 106.455 128.549 106.631 129.079H103.305V129.092ZM99.2999 126.744C100.114 126.744 100.861 126.54 101.526 126.119C102.192 125.712 102.626 125.237 102.843 124.707V122.549H100.237C99.2863 122.549 98.5396 122.78 97.9966 123.255C97.4535 123.73 97.182 124.286 97.182 124.925C97.182 125.481 97.3585 125.929 97.7251 126.255C98.0916 126.581 98.6075 126.744 99.2999 126.744Z" fill="#2C4C3B"/>
<path d="M112.51 114.484L112.7 116.589C113.175 115.842 113.772 115.258 114.505 114.837C115.225 114.417 116.039 114.213 116.949 114.213C118.469 114.213 119.651 114.675 120.506 115.611C121.361 116.548 121.782 118.014 121.782 119.996V129.079H118.497V120.024C118.497 118.883 118.279 118.082 117.831 117.607C117.397 117.132 116.718 116.887 115.836 116.887C115.13 116.887 114.532 117.023 114.016 117.281C113.501 117.553 113.093 117.919 112.781 118.381V129.079H109.496V114.484H112.51Z" fill="#2C4C3B"/>
<path d="M129.398 110.941V114.498H132.019V116.928H129.398V125.006C129.398 125.603 129.534 126.038 129.792 126.296C130.05 126.554 130.403 126.676 130.837 126.676C131.014 126.676 131.19 126.662 131.367 126.635C131.543 126.608 131.693 126.567 131.856 126.513L132.209 128.916C131.924 129.065 131.598 129.187 131.218 129.269C130.837 129.35 130.43 129.391 130.023 129.391C128.815 129.391 127.864 129.038 127.186 128.332C126.493 127.626 126.154 126.513 126.154 125.006V116.928H123.927V114.498H126.154V110.941H129.398V110.941Z" fill="#2C4C3B"/>
<path d="M140.857 129.378C138.725 129.378 137.056 128.699 135.861 127.355C134.653 126.011 134.055 124.259 134.055 122.128V121.585C134.055 119.44 134.653 117.675 135.861 116.29C137.069 114.905 138.617 114.213 140.517 114.213C142.486 114.213 143.966 114.824 144.97 116.032C145.975 117.24 146.477 118.856 146.477 120.892V122.657H137.449L137.422 122.725C137.463 123.92 137.775 124.897 138.372 125.644C138.97 126.391 139.866 126.771 141.06 126.771C141.957 126.771 142.717 126.662 143.382 126.445C144.034 126.228 144.645 125.916 145.201 125.508L146.274 127.653C145.717 128.142 144.984 128.549 144.061 128.875C143.11 129.215 142.065 129.378 140.857 129.378ZM140.517 116.847C139.662 116.847 138.983 117.159 138.467 117.77C137.952 118.381 137.639 119.195 137.504 120.173L137.531 120.241H143.246V119.983C143.246 119.046 143.029 118.286 142.595 117.702C142.147 117.145 141.454 116.847 140.517 116.847Z" fill="#2C4C3B"/>
<path d="M54.8515 152.24L55.2044 153.665H55.2859L55.6253 152.267L60.3227 137.917H63.8253L56.7929 157.575H53.6703L46.665 137.917H50.1677L54.8515 152.24Z" fill="#2C4C3B"/>
<path d="M71.3461 157.86C69.2146 157.86 67.5448 157.182 66.3501 155.838C65.1418 154.494 64.5444 152.742 64.5444 150.611V150.068C64.5444 147.923 65.1418 146.158 66.3501 144.773C67.5583 143.388 69.106 142.696 71.0067 142.696C72.9752 142.696 74.455 143.307 75.4597 144.515C76.4643 145.723 76.9666 147.339 76.9666 149.375V151.14H67.9385L67.9113 151.208C67.9521 152.403 68.2643 153.38 68.8617 154.127C69.459 154.874 70.355 155.254 71.5497 155.254C72.4458 155.254 73.206 155.145 73.8713 154.928C74.5229 154.711 75.1339 154.399 75.6905 153.991L76.763 156.136C76.2064 156.625 75.4733 157.032 74.5501 157.358C73.5997 157.684 72.5408 157.86 71.3461 157.86ZM70.9931 145.33C70.1378 145.33 69.459 145.642 68.9431 146.253C68.4272 146.864 68.115 147.678 67.9792 148.656L68.0064 148.724H73.7219V148.466C73.7219 147.529 73.5047 146.769 73.0703 146.185C72.6358 145.615 71.9435 145.33 70.9931 145.33Z" fill="#2C4C3B"/>
<path d="M86.9048 145.927L85.5064 145.873C84.8683 145.873 84.3389 146.008 83.9044 146.28C83.4836 146.551 83.1442 146.932 82.9134 147.42V157.575H79.6279V142.967H82.6283L82.8455 145.085C83.212 144.339 83.6872 143.755 84.271 143.334C84.8548 142.913 85.52 142.696 86.2803 142.696C86.4839 142.696 86.6604 142.709 86.8369 142.737C87.0134 142.764 87.1627 142.804 87.312 142.845L86.9048 145.927Z" fill="#2C4C3B"/>
<path d="M88.4663 150.475C88.4663 148.14 88.9686 146.266 89.9597 144.841C90.9643 143.415 92.3627 142.696 94.1683 142.696C94.9557 142.696 95.6753 142.859 96.2998 143.171C96.9243 143.497 97.4673 143.945 97.9289 144.542V136.519H101.214V157.575H98.5534L98.1597 155.729C97.6981 156.421 97.1279 156.951 96.4627 157.317C95.7975 157.684 95.0236 157.86 94.1547 157.86C92.3627 157.86 90.9643 157.209 89.9733 155.905C88.9686 154.602 88.4799 152.892 88.4799 150.76V150.475H88.4663ZM91.7517 150.76C91.7517 152.104 92.0097 153.19 92.5256 153.991C93.0415 154.792 93.8696 155.2 94.9829 155.2C95.6753 155.2 96.259 155.05 96.7478 154.752C97.2229 154.453 97.6167 154.032 97.9289 153.489V147.122C97.6167 146.579 97.2229 146.158 96.7342 145.859C96.2455 145.56 95.6753 145.411 95.01 145.411C93.8968 145.411 93.0686 145.886 92.5392 146.823C92.0097 147.76 91.7382 148.995 91.7382 150.502V150.76H91.7517Z" fill="#2C4C3B"/>
<path d="M110.934 157.86C108.803 157.86 107.133 157.182 105.938 155.838C104.73 154.494 104.133 152.742 104.133 150.611V150.068C104.133 147.923 104.73 146.158 105.938 144.773C107.147 143.388 108.694 142.696 110.595 142.696C112.564 142.696 114.043 143.307 115.048 144.515C116.053 145.723 116.555 147.339 116.555 149.375V151.14H107.527L107.5 151.208C107.54 152.403 107.853 153.38 108.45 154.127C109.047 154.874 109.943 155.254 111.138 155.254C112.034 155.254 112.794 155.145 113.46 154.928C114.111 154.711 114.722 154.399 115.279 153.991L116.351 156.136C115.795 156.625 115.062 157.032 114.138 157.358C113.188 157.684 112.129 157.86 110.934 157.86ZM110.581 145.33C109.726 145.33 109.047 145.642 108.531 146.253C108.016 146.864 107.703 147.678 107.568 148.656L107.595 148.724H113.31V148.466C113.31 147.529 113.093 146.769 112.659 146.185C112.211 145.615 111.532 145.33 110.581 145.33Z" fill="#2C4C3B"/>
<path d="M58.6121 176.976H55.2045V180.573H53.8062V172.143H59.2094V173.269H55.2181V175.849H58.6257V176.976H58.6121Z" fill="#2C4C3B"/>
<path d="M64.0157 179.65C63.8257 179.99 63.5677 180.248 63.269 180.424C62.9704 180.601 62.6174 180.696 62.2237 180.696C61.5448 180.696 61.0289 180.478 60.6488 180.03C60.2687 179.582 60.0786 178.904 60.0786 177.967V174.301H61.477V177.98C61.477 178.578 61.5584 178.985 61.7349 179.216C61.9114 179.433 62.1829 179.555 62.5495 179.555C62.8889 179.555 63.174 179.501 63.4048 179.379C63.6356 179.256 63.8121 179.08 63.9478 178.849V174.315H65.3598V180.587H64.1515L64.0157 179.65Z" fill="#2C4C3B"/>
<path d="M68.1016 174.315L68.183 175.224C68.3867 174.899 68.6446 174.654 68.9569 174.478C69.2691 174.301 69.6221 174.206 70.0022 174.206C70.6539 174.206 71.1698 174.41 71.5228 174.804C71.8893 175.211 72.0658 175.835 72.0658 176.691V180.587H70.6539V176.704C70.6539 176.215 70.5588 175.876 70.3688 175.672C70.1787 175.469 69.8936 175.36 69.5135 175.36C69.2148 175.36 68.9569 175.414 68.7261 175.537C68.5088 175.645 68.3324 175.808 68.1966 176.012V180.601H66.7847V174.328H68.1016V174.315Z" fill="#2C4C3B"/>
<path d="M73.2881 177.532C73.2881 176.528 73.5053 175.727 73.9262 175.116C74.3606 174.505 74.958 174.193 75.7318 174.193C76.0712 174.193 76.3699 174.26 76.6414 174.396C76.9129 174.532 77.1437 174.736 77.3338 174.98V171.545H78.7457V180.587H77.6053L77.4424 179.8C77.2388 180.098 76.9944 180.329 76.7093 180.478C76.4242 180.628 76.0984 180.709 75.7182 180.709C74.9444 180.709 74.347 180.424 73.9262 179.867C73.4917 179.311 73.2881 178.578 73.2881 177.655V177.532V177.532ZM74.7 177.655C74.7 178.238 74.8086 178.7 75.0394 179.039C75.2566 179.379 75.6096 179.555 76.0984 179.555C76.397 179.555 76.6414 179.487 76.8586 179.365C77.0623 179.243 77.2388 179.053 77.361 178.822V176.093C77.2252 175.862 77.0623 175.686 76.8451 175.55C76.6414 175.414 76.3835 175.36 76.0984 175.36C75.6232 175.36 75.2702 175.564 75.0394 175.971C74.8086 176.378 74.7 176.908 74.7 177.546V177.655V177.655Z" fill="#2C4C3B"/>
<path d="M84.0403 180.573C83.986 180.41 83.9453 180.261 83.9181 180.112C83.891 179.962 83.8638 179.813 83.8503 179.664C83.6602 179.962 83.4022 180.207 83.09 180.397C82.7777 180.601 82.4248 180.696 82.0311 180.696C81.3794 180.696 80.8771 180.533 80.5241 180.193C80.1711 179.854 79.9946 179.392 79.9946 178.809C79.9946 178.198 80.239 177.736 80.7142 177.397C81.1893 177.057 81.8681 176.894 82.737 176.894H83.8367V176.338C83.8367 176.012 83.7416 175.754 83.5516 175.564C83.3615 175.374 83.09 175.292 82.7234 175.292C82.3976 175.292 82.1532 175.374 81.9632 175.523C81.7731 175.672 81.6781 175.876 81.6781 176.12H80.3205V176.08C80.2933 175.591 80.5105 175.143 80.9857 174.763C81.4609 174.383 82.0718 174.193 82.8185 174.193C83.5516 174.193 84.1354 174.383 84.5834 174.749C85.0314 175.116 85.2622 175.659 85.2622 176.351V179.134C85.2622 179.392 85.2758 179.637 85.3165 179.881C85.3572 180.125 85.4115 180.356 85.4794 180.573H84.0403V180.573ZM82.3297 179.569C82.6827 179.569 82.995 179.474 83.2801 179.297C83.5652 179.121 83.7552 178.917 83.8503 178.686V177.763H82.7234C82.3162 177.763 81.9903 177.872 81.7595 178.062C81.5287 178.265 81.4065 178.51 81.4065 178.781C81.4065 179.026 81.488 179.216 81.6373 179.352C81.8003 179.501 82.031 179.569 82.3297 179.569Z" fill="#2C4C3B"/>
<path d="M89.281 179.582C89.6068 179.582 89.8783 179.487 90.0956 179.284C90.3128 179.08 90.435 178.822 90.435 178.523H91.7111L91.7247 178.564C91.7383 179.148 91.5075 179.664 91.0323 180.085C90.5571 180.506 89.9734 180.723 89.2946 180.723C88.385 180.723 87.6926 180.424 87.2038 179.827C86.7151 179.229 86.4707 178.483 86.4707 177.573V177.369C86.4707 176.46 86.7151 175.713 87.2038 175.116C87.6926 174.518 88.385 174.22 89.2946 174.22C90.0277 174.22 90.6114 174.437 91.073 174.871C91.5346 175.306 91.7519 175.862 91.7383 176.541L91.7247 176.582H90.4485C90.4485 176.243 90.3399 175.944 90.1363 175.713C89.9191 175.469 89.6475 175.36 89.3081 175.36C88.8058 175.36 88.4393 175.55 88.222 175.944C88.0048 176.338 87.8962 176.813 87.8962 177.383V177.587C87.8962 178.17 88.0048 178.659 88.222 179.039C88.3985 179.379 88.7651 179.582 89.281 179.582Z" fill="#2C4C3B"/>
<path d="M94.3987 172.781H92.9868V171.545H94.3987V172.781ZM94.3987 180.573H92.9868V174.301H94.3987V180.573Z" fill="#2C4C3B"/>
<path d="M95.7021 177.383C95.7021 176.446 95.9601 175.686 96.476 175.089C96.9919 174.491 97.6843 174.193 98.5803 174.193C99.4763 174.193 100.182 174.491 100.698 175.089C101.214 175.686 101.472 176.446 101.472 177.383V177.505C101.472 178.442 101.214 179.216 100.698 179.813C100.182 180.411 99.4899 180.709 98.5939 180.709C97.6979 180.709 96.9919 180.411 96.476 179.813C95.9601 179.216 95.7021 178.456 95.7021 177.519V177.383ZM97.1141 177.505C97.1141 178.116 97.2363 178.618 97.4671 178.999C97.6978 179.379 98.078 179.569 98.5803 179.569C99.069 179.569 99.4356 179.379 99.68 178.999C99.9243 178.618 100.047 178.116 100.047 177.505V177.383C100.047 176.786 99.9243 176.297 99.68 175.903C99.4356 175.51 99.069 175.319 98.5667 175.319C98.078 175.319 97.7114 175.51 97.4671 175.903C97.2227 176.297 97.1005 176.786 97.1005 177.383V177.505H97.1141ZM99.0283 171.64H100.617L100.63 171.681L99.0419 173.188H97.9286L99.0283 171.64Z" fill="#2C4C3B"/>
<path d="M103.97 174.315L104.052 175.224C104.255 174.899 104.513 174.654 104.826 174.478C105.138 174.301 105.491 174.206 105.871 174.206C106.523 174.206 107.039 174.41 107.392 174.804C107.758 175.211 107.935 175.835 107.935 176.691V180.587H106.523V176.704C106.523 176.215 106.428 175.876 106.238 175.672C106.048 175.469 105.762 175.36 105.382 175.36C105.084 175.36 104.826 175.414 104.595 175.537C104.378 175.645 104.201 175.808 104.065 176.012V180.601H102.681V174.328H103.97V174.315Z" fill="#2C4C3B"/>
<path d="M117.221 176.786H113.922V179.46H117.818V180.587H112.523V172.156H117.791V173.283H113.935V175.659H117.234V176.786H117.221Z" fill="#2C4C3B"/>
<path d="M121.375 179.582C121.701 179.582 121.972 179.487 122.189 179.284C122.407 179.08 122.529 178.822 122.529 178.523H123.805L123.818 178.564C123.832 179.148 123.601 179.664 123.126 180.085C122.651 180.506 122.067 180.723 121.388 180.723C120.479 180.723 119.786 180.424 119.298 179.827C118.809 179.229 118.564 178.483 118.564 177.573V177.369C118.564 176.46 118.809 175.713 119.298 175.116C119.786 174.518 120.479 174.22 121.388 174.22C122.121 174.22 122.705 174.437 123.167 174.871C123.628 175.306 123.846 175.862 123.832 176.541L123.818 176.582H122.542C122.542 176.243 122.434 175.944 122.23 175.713C122.013 175.469 121.741 175.36 121.402 175.36C120.9 175.36 120.533 175.55 120.316 175.944C120.099 176.338 119.99 176.813 119.99 177.383V177.587C119.99 178.17 120.099 178.659 120.316 179.039C120.506 179.379 120.872 179.582 121.375 179.582Z" fill="#2C4C3B"/>
<path d="M124.742 177.383C124.742 176.446 125 175.686 125.516 175.089C126.031 174.491 126.724 174.193 127.62 174.193C128.516 174.193 129.222 174.491 129.738 175.089C130.254 175.686 130.512 176.446 130.512 177.383V177.505C130.512 178.442 130.254 179.216 129.738 179.813C129.222 180.41 128.529 180.709 127.633 180.709C126.737 180.709 126.031 180.41 125.516 179.813C125 179.216 124.742 178.456 124.742 177.519V177.383ZM126.14 177.505C126.14 178.116 126.262 178.618 126.493 178.999C126.737 179.379 127.104 179.569 127.606 179.569C128.095 179.569 128.462 179.379 128.706 178.999C128.95 178.618 129.072 178.116 129.072 177.505V177.383C129.072 176.786 128.95 176.297 128.706 175.903C128.462 175.51 128.095 175.32 127.593 175.32C127.104 175.32 126.737 175.51 126.493 175.903C126.249 176.297 126.126 176.786 126.126 177.383V177.505H126.14Z" fill="#2C4C3B"/>
<path d="M133.213 180.573H131.801V171.545H133.213V180.573Z" fill="#2C4C3B"/>
<path d="M134.53 177.383C134.53 176.446 134.788 175.686 135.304 175.089C135.82 174.491 136.512 174.193 137.408 174.193C138.304 174.193 139.01 174.491 139.526 175.089C140.042 175.686 140.3 176.446 140.3 177.383V177.505C140.3 178.442 140.042 179.216 139.526 179.813C139.01 180.411 138.318 180.709 137.422 180.709C136.526 180.709 135.82 180.411 135.304 179.813C134.788 179.216 134.53 178.456 134.53 177.519V177.383ZM135.942 177.505C135.942 178.116 136.064 178.618 136.295 178.999C136.526 179.379 136.906 179.569 137.408 179.569C137.897 179.569 138.264 179.379 138.508 178.999C138.752 178.618 138.875 178.116 138.875 177.505V177.383C138.875 176.786 138.752 176.297 138.508 175.903C138.264 175.51 137.897 175.319 137.395 175.319C136.906 175.319 136.54 175.51 136.295 175.903C136.051 176.297 135.929 176.786 135.929 177.383V177.505H135.942ZM137.856 171.64H139.445L139.458 171.681L137.87 173.188H136.743L137.856 171.64Z" fill="#2C4C3B"/>
<path d="M141.291 177.532C141.291 176.528 141.508 175.727 141.929 175.116C142.364 174.505 142.961 174.193 143.735 174.193C144.115 174.193 144.441 174.274 144.726 174.437C145.011 174.6 145.255 174.831 145.445 175.129L145.581 174.315H146.749V180.587C146.749 181.388 146.504 182.012 146.002 182.46C145.5 182.895 144.794 183.126 143.884 183.126C143.585 183.126 143.246 183.085 142.893 182.99C142.54 182.909 142.214 182.786 141.929 182.651L142.16 181.551C142.404 181.673 142.662 181.768 142.961 181.836C143.26 181.904 143.558 181.931 143.87 181.931C144.386 181.931 144.753 181.822 144.984 181.605C145.215 181.388 145.337 181.049 145.337 180.601V179.963C145.133 180.207 144.902 180.397 144.644 180.533C144.373 180.668 144.074 180.723 143.721 180.723C142.947 180.723 142.35 180.438 141.929 179.881C141.495 179.324 141.291 178.591 141.291 177.668V177.532ZM142.703 177.655C142.703 178.238 142.812 178.7 143.042 179.039C143.273 179.379 143.626 179.555 144.101 179.555C144.4 179.555 144.658 179.487 144.862 179.365C145.065 179.243 145.242 179.053 145.364 178.822V176.08C145.228 175.849 145.065 175.672 144.862 175.55C144.658 175.415 144.414 175.36 144.115 175.36C143.626 175.36 143.273 175.564 143.042 175.971C142.812 176.378 142.703 176.908 142.703 177.546V177.655Z" fill="#2C4C3B"/>
<path d="M149.736 172.781H148.324V171.545H149.736V172.781ZM149.736 180.573H148.324V174.301H149.736V180.573Z" fill="#2C4C3B"/>
<path d="M153.863 179.582C154.188 179.582 154.46 179.487 154.677 179.284C154.894 179.08 155.017 178.822 155.017 178.523H156.293L156.306 178.564C156.32 179.148 156.089 179.664 155.614 180.085C155.139 180.506 154.555 180.723 153.876 180.723C152.966 180.723 152.274 180.424 151.785 179.827C151.297 179.229 151.052 178.483 151.052 177.573V177.369C151.052 176.46 151.297 175.713 151.785 175.116C152.274 174.518 152.966 174.22 153.876 174.22C154.609 174.22 155.193 174.437 155.655 174.871C156.116 175.306 156.333 175.862 156.32 176.541L156.306 176.582H155.03C155.03 176.243 154.921 175.944 154.718 175.713C154.501 175.469 154.229 175.36 153.89 175.36C153.387 175.36 153.021 175.55 152.804 175.944C152.586 176.338 152.478 176.813 152.478 177.383V177.587C152.478 178.17 152.586 178.659 152.804 179.039C152.994 179.379 153.36 179.582 153.863 179.582Z" fill="#2C4C3B"/>
<path d="M161.262 180.573C161.207 180.41 161.166 180.261 161.139 180.112C161.112 179.962 161.085 179.813 161.071 179.664C160.881 179.962 160.623 180.207 160.311 180.397C159.999 180.601 159.646 180.696 159.252 180.696C158.601 180.696 158.098 180.533 157.745 180.193C157.392 179.854 157.216 179.392 157.216 178.809C157.216 178.198 157.46 177.736 157.935 177.397C158.411 177.057 159.089 176.894 159.958 176.894H161.058V176.338C161.058 176.012 160.963 175.754 160.773 175.564C160.583 175.374 160.311 175.292 159.945 175.292C159.619 175.292 159.374 175.374 159.184 175.523C158.994 175.672 158.899 175.876 158.899 176.12H157.542V176.08C157.514 175.591 157.732 175.143 158.207 174.763C158.682 174.383 159.293 174.193 160.04 174.193C160.773 174.193 161.357 174.383 161.805 174.749C162.253 175.116 162.483 175.659 162.483 176.351V179.134C162.483 179.392 162.497 179.637 162.538 179.881C162.578 180.125 162.633 180.356 162.701 180.573H161.262V180.573ZM159.537 179.569C159.89 179.569 160.203 179.474 160.488 179.297C160.773 179.121 160.963 178.917 161.058 178.686V177.763H159.945C159.537 177.763 159.212 177.872 158.981 178.062C158.75 178.265 158.628 178.51 158.628 178.781C158.628 179.026 158.709 179.216 158.859 179.352C159.021 179.501 159.252 179.569 159.537 179.569Z" fill="#2C4C3B"/>
<path d="M170.494 186.832H46V166.861H170.494V186.832ZM47.1947 185.637H169.312V168.043H47.1947V185.637Z" fill="#2C4C3B"/>
</svg>
