<svg width="215" height="215" viewBox="0 0 215 215" fill="none" xmlns="http://www.w3.org/2000/svg">
<path fill-rule="evenodd" clip-rule="evenodd" d="M149.434 54.1034C143.955 55.3217 135.568 57.4439 130.764 59.7757C123.618 63.2406 118.466 68.6706 118.466 77.8537C118.466 104.637 138.632 129.966 138.632 132.173C138.632 133.031 137.733 133.502 137.143 132.913C137.143 132.906 137.136 132.9 137.136 132.9C132.72 128.38 124.031 114.907 120.034 108.416V108.409C117.383 104.132 113.793 98.9251 107.546 98.9251H107.526C101.22 98.9251 97.6234 104.106 94.9656 108.416C80.0425 132.638 77.2009 132.9 77.8572 132.9C77.2403 133.522 76.3609 132.998 76.3609 132.173C76.3609 130.306 96.5275 104.106 96.5275 77.8537C96.5275 69.1029 91.9534 63.8433 85.0825 60.3128C79.6159 57.5094 72.4628 55.9309 65.6837 54.1296C65.6247 54.1165 65.5722 54.1034 65.5131 54.0903C64.6075 53.8807 64.6075 52.3087 65.5853 52.1319C72.7909 53.7694 87.9766 58.1775 107.5 58.1775C126.794 58.1775 142.248 53.7956 149.428 52.1319C150.379 52.3218 150.425 53.8676 149.434 54.1034V54.1034ZM107.487 21.825C113.118 21.825 117.672 26.41 117.672 32.0561C117.672 37.7022 113.118 42.2938 107.487 42.2938C101.869 42.2938 97.315 37.7022 97.315 32.0561C97.315 26.41 101.869 21.825 107.487 21.825ZM149.27 42.2938C146.468 42.2938 135.41 46.119 119.91 47.6713C124.497 43.9968 127.503 38.4096 127.503 32.0561C127.503 20.98 118.538 12 107.487 12C96.4553 12 87.4778 20.98 87.4778 32.0561C87.4778 38.4096 90.4834 44.0033 95.0772 47.6779C79.5831 46.119 68.7091 42.2938 65.7297 42.2938C59.8431 42.2938 55 47.1277 55 53.1209C55 58.1317 58.5175 62.5332 63.2425 63.6533C75.0878 66.7842 86.6903 68.5986 86.6903 77.8537C86.6903 98.4535 73.2963 117.625 67.9741 126.73C67.9609 126.749 67.9478 126.769 67.9413 126.789C67.0094 128.433 66.5238 130.3 66.5238 132.173C66.5238 138.173 71.3603 143 77.2534 143C80.1212 143 82.8512 141.86 84.8987 139.764C89.6369 134.911 99.0541 120.527 103.346 113.571C104.133 112.294 104.908 111.062 105.781 110.053C106.319 109.425 106.772 108.75 107.533 108.75C108.274 108.75 108.688 109.438 109.213 110.047C110.086 111.056 110.867 112.294 111.661 113.577C115.939 120.52 125.35 134.898 130.095 139.758C132.129 141.847 134.846 143 137.753 143C143.633 143 148.476 138.173 148.476 132.173C148.476 130.326 148.017 128.492 146.993 126.691C146.98 126.677 146.973 126.658 146.96 126.638C141.513 117.298 128.303 98.4731 128.303 77.8537C128.303 67.9239 141.868 66.2471 151.712 63.6599C156.489 62.5267 160 58.1186 160 53.1209C160 47.1277 155.15 42.2938 149.27 42.2938" fill="black"/>
<path d="M49.2183 185H55.0683V164H49.2183V185ZM58.5827 185H64.2827V176.21C64.2827 174.44 65.3027 173.48 66.6827 173.48C68.0327 173.48 68.9627 174.44 68.9627 176.21V185H74.6627V174.38C74.6627 170.69 72.5927 168.41 69.1427 168.41C66.8327 168.41 65.3327 169.7 64.2827 171.05V168.77H58.5827V185ZM78.6164 185H84.2864V173.33H87.9164V168.95H84.1964V168.56C84.1964 167.51 84.7664 167.03 85.8164 167.03C86.6264 167.03 87.2864 167.15 87.9464 167.36V163.34C87.0464 163.07 85.9664 162.89 84.2264 162.89C82.3064 162.89 80.9864 163.31 79.9964 164.3C79.0364 165.26 78.6164 166.64 78.6164 168.5V168.86H76.7264V173.33H78.6164V185ZM93.9359 185.36C96.0659 185.36 97.5959 184.55 98.7059 183.32V185H104.346V175.67C104.346 173.39 103.836 171.71 102.606 170.51C101.316 169.22 99.3359 168.53 96.4259 168.53C93.6359 168.53 91.6859 169.04 89.8559 169.79L91.0259 173.81C92.4659 173.24 93.7859 172.91 95.4959 172.91C97.6859 172.91 98.7359 173.87 98.7359 175.55V175.82C97.8059 175.49 96.3359 175.19 94.8359 175.19C91.0259 175.19 88.4759 176.93 88.4759 180.29V180.35C88.4759 183.59 90.8459 185.36 93.9359 185.36ZM95.9759 181.79C94.8059 181.79 93.9659 181.13 93.9659 180.02V179.96C93.9659 178.76 94.9259 177.95 96.5759 177.95C97.4159 177.95 98.2259 178.13 98.7959 178.37V179.12C98.7959 180.74 97.6259 181.79 95.9759 181.79ZM107.245 185H112.945V176.21C112.945 174.44 113.965 173.48 115.345 173.48C116.695 173.48 117.625 174.44 117.625 176.21V185H123.325V174.38C123.325 170.69 121.255 168.41 117.805 168.41C115.495 168.41 113.995 169.7 112.945 171.05V168.77H107.245V185ZM134.089 185.39C137.659 185.39 139.819 183.89 141.319 181.67L137.509 178.91C136.609 179.96 135.739 180.59 134.389 180.59C132.469 180.59 131.149 179 131.149 176.9V176.84C131.149 174.86 132.499 173.24 134.329 173.24C135.709 173.24 136.579 173.87 137.359 174.95L141.229 172.07C139.849 169.88 137.629 168.44 134.299 168.44C129.169 168.44 125.599 172.31 125.599 176.9V176.96C125.599 181.55 129.199 185.39 134.089 185.39ZM143.339 167.3H149.279V163.1H143.339V167.3ZM143.459 185H149.159V168.77H143.459V185ZM156.983 185.36C159.113 185.36 160.643 184.55 161.753 183.32V185H167.393V175.67C167.393 173.39 166.883 171.71 165.653 170.51C164.363 169.22 162.383 168.53 159.473 168.53C156.683 168.53 154.733 169.04 152.903 169.79L154.073 173.81C155.513 173.24 156.833 172.91 158.543 172.91C160.733 172.91 161.783 173.87 161.783 175.55V175.82C160.853 175.49 159.383 175.19 157.883 175.19C154.073 175.19 151.523 176.93 151.523 180.29V180.35C151.523 183.59 153.893 185.36 156.983 185.36ZM159.023 181.79C157.853 181.79 157.013 181.13 157.013 180.02V179.96C157.013 178.76 157.973 177.95 159.623 177.95C160.463 177.95 161.273 178.13 161.843 178.37V179.12C161.843 180.74 160.673 181.79 159.023 181.79Z" fill="black"/>
</svg>
