<svg width="215" height="215" viewBox="0 0 215 215" fill="none" xmlns="http://www.w3.org/2000/svg">
<path d="M85.4538 52.4792H92.566L106.048 87.9583H98.6848L95.7482 79.7708H82.4408L79.5206 87.9583H71.9226L85.4538 52.4792V52.4792ZM93.7341 74.1215L89.0563 60.7431L84.4113 74.1215H93.7341ZM137.903 66.4689C138.241 65.1425 138.449 64.1436 138.64 63.1666L132.636 61.9985L132.041 64.7277C130.016 64.4329 127.854 64.3947 125.676 64.613C125.725 63.1502 125.813 61.7147 125.944 60.3337H132.652V54.6461H126.752C127.046 53.1997 127.292 52.3318 127.538 51.5076L121.675 49.75C121.244 51.1855 120.884 52.5938 120.524 54.6461H113.832V60.3337H119.792C119.639 62.1732 119.541 64.0781 119.514 65.9995C112.926 68.4175 110.131 73.0298 110.131 77.2109C110.131 82.1452 114.028 86.49 120.185 85.9333C127.832 85.2346 132.941 79.4597 135.932 72.3584C139.027 74.1433 140.326 77.1399 139.158 79.9182C138.083 82.4891 134.901 84.9344 128.831 84.8089V90.9277C135.567 91.0314 142.193 88.4714 144.797 82.2871C147.335 76.2393 144.437 69.6347 137.903 66.4689ZM130.01 70.65C129.055 72.7623 127.805 74.8583 126.206 76.5177C125.96 74.7546 125.791 72.8278 125.698 70.7646C127.161 70.5735 128.629 70.5408 130.01 70.65V70.65ZM119.672 72.6259C119.836 75.2077 120.131 77.5875 120.534 79.7108C115.093 80.7097 114.874 75.3387 119.672 72.6259ZM107.5 27.9167C137.597 27.9167 162.083 47.523 162.083 71.6215C162.083 98.4602 134 115.075 107.991 115.075C97.4185 115.075 89.5203 112.908 84.0073 111.56C78.549 114.906 75.3068 117.22 60.6893 121.494C63.6095 114 64.6303 106.495 63.9698 98.2145C59.4012 92.7562 52.9167 85.1145 52.9167 71.6215C52.9167 47.523 77.4028 27.9167 107.5 27.9167V27.9167ZM107.5 17C72.9051 17 42 40.0669 42 71.6215C42 82.8111 46.0337 93.7988 53.1732 102.325C53.4734 112.313 47.5893 126.647 42.2948 137.083C56.4973 134.518 76.6877 128.852 85.8413 123.241C93.5758 125.124 100.983 125.987 107.997 125.987C146.658 125.987 173.005 99.5846 173.005 71.6161C173 39.8977 141.882 17 107.5 17V17Z" fill="black"/>
<path d="M63.0276 185.42C67.6776 185.42 70.3476 183.41 72.3276 180.68L67.9476 177.56C66.6876 179.09 65.3976 180.11 63.2076 180.11C60.2676 180.11 58.1976 177.65 58.1976 174.5V174.44C58.1976 171.38 60.2676 168.89 63.2076 168.89C65.2176 168.89 66.5976 169.85 67.7976 171.35L72.1776 167.96C70.3176 165.38 67.5576 163.58 63.2676 163.58C56.9076 163.58 52.1976 168.38 52.1976 174.5V174.56C52.1976 180.83 57.0276 185.42 63.0276 185.42ZM79.9017 185.36C82.2117 185.36 83.7117 184.13 84.7617 182.78V185H90.4617V168.77H84.7617V177.56C84.7617 179.33 83.7417 180.29 82.3917 180.29C81.0117 180.29 80.0817 179.33 80.0817 177.56V168.77H74.3817V179.39C74.3817 183.08 76.4517 185.36 79.9017 185.36ZM93.6354 185H99.3354V163.1H93.6354V185ZM108.959 185.33C110.549 185.33 111.899 184.97 112.919 184.4V179.93C112.229 180.26 111.509 180.47 110.759 180.47C109.709 180.47 109.199 179.99 109.199 178.85V173.36H112.979V168.77H109.199V164.66H103.499V168.77H101.579V173.36H103.499V179.96C103.499 183.83 105.539 185.33 108.959 185.33ZM120.829 185.36C123.139 185.36 124.639 184.13 125.689 182.78V185H131.389V168.77H125.689V177.56C125.689 179.33 124.669 180.29 123.319 180.29C121.939 180.29 121.009 179.33 121.009 177.56V168.77H115.309V179.39C115.309 183.08 117.379 185.36 120.829 185.36ZM134.443 185H140.143V179.96C140.143 176.21 141.823 174.5 144.793 174.5H145.273V168.5C142.573 168.38 141.073 169.82 140.143 172.04V168.77H134.443V185ZM151.163 185.36C153.293 185.36 154.823 184.55 155.933 183.32V185H161.573V175.67C161.573 173.39 161.063 171.71 159.833 170.51C158.543 169.22 156.563 168.53 153.653 168.53C150.863 168.53 148.913 169.04 147.083 169.79L148.253 173.81C149.693 173.24 151.013 172.91 152.723 172.91C154.913 172.91 155.963 173.87 155.963 175.55V175.82C155.033 175.49 153.563 175.19 152.063 175.19C148.253 175.19 145.703 176.93 145.703 180.29V180.35C145.703 183.59 148.073 185.36 151.163 185.36ZM153.203 181.79C152.033 181.79 151.193 181.13 151.193 180.02V179.96C151.193 178.76 152.153 177.95 153.803 177.95C154.643 177.95 155.453 178.13 156.023 178.37V179.12C156.023 180.74 154.853 181.79 153.203 181.79Z" fill="black"/>
</svg>
