<svg width="215" height="215" viewBox="0 0 215 215" fill="none" xmlns="http://www.w3.org/2000/svg">
<path d="M148.192 81.8312V106.918C148.192 120.55 119.47 127 103.538 127C88.3958 127 58.8846 120.11 58.8846 106.918V75.7625L103.538 99.8344L148.192 81.8312V81.8312ZM108.088 28L44 56.4625L103.538 88.6375L158.115 66.7733V102.25H168.038V61.4125L108.088 28ZM173 127H153.154C156.022 122.05 158.115 114.625 158.115 107.2H168.038C168.038 114.704 169.978 121.352 173 127Z" fill="black"/>
<path d="M30.9508 185H47.9908V180.05H36.7108V176.72H46.7908V172.13H36.7108V168.95H47.8408V164H30.9508V185ZM56.9076 185.36C59.3376 185.36 60.7476 184.19 61.8576 182.84V185H67.5576V163.1H61.8576V170.75C60.7776 169.52 59.3376 168.41 56.8776 168.41C53.0376 168.41 49.7376 171.62 49.7376 176.9V176.96C49.7376 182.15 53.0676 185.36 56.9076 185.36ZM58.6476 180.59C56.8176 180.59 55.3176 179.06 55.3176 176.9V176.84C55.3176 174.68 56.8176 173.18 58.6476 173.18C60.4776 173.18 61.9476 174.71 61.9476 176.84V176.9C61.9476 179.06 60.4776 180.59 58.6476 180.59ZM76.0111 185.36C78.3211 185.36 79.8211 184.13 80.8711 182.78V185H86.5711V168.77H80.8711V177.56C80.8711 179.33 79.8511 180.29 78.5011 180.29C77.1211 180.29 76.1911 179.33 76.1911 177.56V168.77H70.4911V179.39C70.4911 183.08 72.5611 185.36 76.0111 185.36ZM97.4547 185.39C101.025 185.39 103.185 183.89 104.685 181.67L100.875 178.91C99.9747 179.96 99.1047 180.59 97.7547 180.59C95.8347 180.59 94.5147 179 94.5147 176.9V176.84C94.5147 174.86 95.8647 173.24 97.6947 173.24C99.0747 173.24 99.9447 173.87 100.725 174.95L104.595 172.07C103.215 169.88 100.995 168.44 97.6647 168.44C92.5347 168.44 88.9647 172.31 88.9647 176.9V176.96C88.9647 181.55 92.5647 185.39 97.4547 185.39ZM111.355 185.36C113.485 185.36 115.015 184.55 116.125 183.32V185H121.765V175.67C121.765 173.39 121.255 171.71 120.025 170.51C118.735 169.22 116.755 168.53 113.845 168.53C111.055 168.53 109.105 169.04 107.275 169.79L108.445 173.81C109.885 173.24 111.205 172.91 112.915 172.91C115.105 172.91 116.155 173.87 116.155 175.55V175.82C115.225 175.49 113.755 175.19 112.255 175.19C108.445 175.19 105.895 176.93 105.895 180.29V180.35C105.895 183.59 108.265 185.36 111.355 185.36ZM113.395 181.79C112.225 181.79 111.385 181.13 111.385 180.02V179.96C111.385 178.76 112.345 177.95 113.995 177.95C114.835 177.95 115.645 178.13 116.215 178.37V179.12C116.215 180.74 115.045 181.79 113.395 181.79ZM132.494 185.39C136.064 185.39 138.224 183.89 139.724 181.67L135.914 178.91C135.014 179.96 134.144 180.59 132.794 180.59C130.874 180.59 129.554 179 129.554 176.9V176.84C129.554 174.86 130.904 173.24 132.734 173.24C134.114 173.24 134.984 173.87 135.764 174.95L139.634 172.07C138.254 169.88 136.034 168.44 132.704 168.44C127.574 168.44 124.004 172.31 124.004 176.9V176.96C124.004 181.55 127.604 185.39 132.494 185.39ZM141.744 167.3H147.684V163.1H141.744V167.3ZM141.864 185H147.564V168.77H141.864V185ZM156.858 167.24H160.818L165.258 163.43L159.978 161.72L156.858 167.24ZM159.018 185.39C164.238 185.39 168.018 181.52 168.018 176.9V176.84C168.018 172.22 164.268 168.41 159.078 168.41C153.858 168.41 150.078 172.28 150.078 176.9V176.96C150.078 181.58 153.828 185.39 159.018 185.39ZM159.078 180.56C157.068 180.56 155.628 178.88 155.628 176.9V176.84C155.628 174.89 156.948 173.24 159.018 173.24C161.028 173.24 162.468 174.92 162.468 176.9V176.96C162.468 178.91 161.148 180.56 159.078 180.56ZM170.426 185H176.126V176.21C176.126 174.44 177.146 173.48 178.526 173.48C179.876 173.48 180.806 174.44 180.806 176.21V185H186.506V174.38C186.506 170.69 184.436 168.41 180.986 168.41C178.676 168.41 177.176 169.7 176.126 171.05V168.77H170.426V185Z" fill="black"/>
</svg>
