<svg width="215" height="215" viewBox="0 0 215 215" fill="none" xmlns="http://www.w3.org/2000/svg">
<path d="M75.2047 185.36C80.3047 185.36 83.6947 182.81 83.6947 178.52V178.46C83.6947 174.53 80.6947 172.97 75.8647 171.92C72.9547 171.26 72.2347 170.84 72.2347 169.88V169.82C72.2347 169.07 72.9247 168.47 74.3347 168.47C76.1947 168.47 78.2947 169.19 80.2147 170.54L83.1247 166.43C80.8447 164.6 78.0547 163.64 74.4847 163.64C69.4447 163.64 66.3547 166.46 66.3547 170.36V170.42C66.3547 174.74 69.8047 176 74.2747 177.02C77.1247 177.68 77.8147 178.16 77.8147 179.03V179.09C77.8147 179.99 76.9747 180.53 75.4147 180.53C72.9847 180.53 70.6747 179.66 68.6047 178.01L65.3647 181.88C67.9447 184.19 71.4847 185.36 75.2047 185.36ZM90.845 185.36C92.975 185.36 94.505 184.55 95.615 183.32V185H101.255V175.67C101.255 173.39 100.745 171.71 99.515 170.51C98.225 169.22 96.245 168.53 93.335 168.53C90.545 168.53 88.595 169.04 86.765 169.79L87.935 173.81C89.375 173.24 90.695 172.91 92.405 172.91C94.595 172.91 95.645 173.87 95.645 175.55V175.82C94.715 175.49 93.245 175.19 91.745 175.19C87.935 175.19 85.385 176.93 85.385 180.29V180.35C85.385 183.59 87.755 185.36 90.845 185.36ZM92.885 181.79C91.715 181.79 90.875 181.13 90.875 180.02V179.96C90.875 178.76 91.835 177.95 93.485 177.95C94.325 177.95 95.135 178.13 95.705 178.37V179.12C95.705 180.74 94.535 181.79 92.885 181.79ZM104.274 185H109.974V163.1H104.274V185ZM118.548 185.36C120.858 185.36 122.358 184.13 123.408 182.78V185H129.108V168.77H123.408V177.56C123.408 179.33 122.388 180.29 121.038 180.29C119.658 180.29 118.728 179.33 118.728 177.56V168.77H113.028V179.39C113.028 183.08 115.098 185.36 118.548 185.36ZM138.732 185.36C141.162 185.36 142.572 184.19 143.682 182.84V185H149.382V163.1H143.682V170.75C142.602 169.52 141.162 168.41 138.702 168.41C134.862 168.41 131.562 171.62 131.562 176.9V176.96C131.562 182.15 134.892 185.36 138.732 185.36ZM140.472 180.59C138.642 180.59 137.142 179.06 137.142 176.9V176.84C137.142 174.68 138.642 173.18 140.472 173.18C142.302 173.18 143.772 174.71 143.772 176.84V176.9C143.772 179.06 142.302 180.59 140.472 180.59Z" fill="black"/>
<path fill-rule="evenodd" clip-rule="evenodd" d="M102.37 36.7652V33.1265C99.3051 31.3533 97.2449 28.0425 97.2449 24.25C97.2449 18.592 101.837 14 107.495 14C113.153 14 117.745 18.592 117.745 24.25C117.745 28.0425 115.685 31.3533 112.62 33.1265V36.7652C113.358 36.6474 113.993 36.4936 114.465 36.3091C120.646 33.9568 124.059 24.5934 134.698 24.25C146.025 24.1014 152.216 35.7864 161.21 38.4411C163.634 39.1535 166.473 39.1689 169 39.3226C165.746 60.3761 135.211 69.4166 112.62 63.5383V99.0186C116.94 100.361 122.414 102.15 125.648 105.174C135.939 114.793 129.901 129.251 117.76 129.707V124.582C124.248 121.369 125.468 114.532 112.62 109.832V131.875C112.62 134.709 110.324 137 107.495 137C104.666 137 102.37 134.709 102.37 131.875V106.783C92.3505 104.169 74.8794 100.787 75.0075 86.2676C75.0997 77.5756 82.9513 70.375 92.0789 70.375H92.1301C94.9643 70.375 97.2551 72.671 97.2551 75.5C97.2551 78.3136 94.9899 80.5942 92.1865 80.625C87.902 80.6711 85.0525 83.9614 85.2729 86.734C85.7751 92.4945 96.6504 94.7085 102.37 96.1845V63.5434C79.784 69.4166 49.2544 60.371 46 39.3226C48.5266 39.1689 51.3659 39.1535 53.79 38.4411C62.7844 35.7864 68.9754 24.1014 80.3016 24.25C90.9411 24.5934 94.3544 33.9568 100.535 36.3091C101.007 36.4936 101.637 36.6422 102.37 36.7652V36.7652ZM86.795 108.121C91.2179 109.402 95.2769 110.494 98.8388 111.319C90.1724 115.772 91.1769 121.579 97.2449 124.582V129.707C86.2876 129.297 80.3068 117.489 86.795 108.121ZM117.919 94.7649C122.475 93.4477 129.358 91.4644 129.732 86.734C129.953 83.9511 127.088 80.6711 122.813 80.625C120.01 80.5942 117.745 78.3136 117.745 75.5C117.745 72.671 120.041 70.375 122.87 70.375H122.926C132.008 70.375 139.905 77.5449 139.993 86.2676C140.08 92.7917 135.631 98.3985 129.814 101.304C126.739 98.7162 122.655 96.6457 117.919 94.7649V94.7649ZM147.506 50.449C150.13 49.219 152.431 47.7122 154.209 45.9082C147.004 43.93 141.023 34.541 134.903 34.4949C128.543 34.6999 124.479 46.554 112.625 47.1075V53.2216C115.726 54.3491 120.451 54.9436 125.699 54.877C125.063 52.3965 124.792 49.7366 124.746 46.6514C126.862 49.7827 129.64 52.4375 132.551 54.4209C135.001 54.1288 137.461 53.6931 139.839 53.1038C137.819 50.0954 136.764 46.9384 136.103 43.4739C139.408 46.8564 143.344 48.9474 147.506 50.449V50.449ZM102.37 47.1075C90.5209 46.554 86.4516 34.6999 80.0966 34.4949C73.9774 34.541 67.9965 43.93 60.7907 45.9082C62.5691 47.7122 64.8702 49.219 67.4942 50.449C71.6557 48.9474 75.5918 46.8564 78.8974 43.4739C78.2363 46.9384 77.1805 50.0954 75.1613 53.1038C77.5393 53.6931 79.9993 54.1288 82.449 54.4209C85.36 52.4375 88.1378 49.7827 90.2544 46.6514C90.2083 49.7366 89.9366 52.3965 89.3011 54.877C94.544 54.9436 99.2692 54.3491 102.37 53.2267V47.1075V47.1075Z" fill="black"/>
</svg>
