<svg width="215" height="215" viewBox="0 0 215 215" fill="none" xmlns="http://www.w3.org/2000/svg">
<path fill-rule="evenodd" clip-rule="evenodd" d="M139.15 139H139.057C137.672 139 136.525 137.899 136.479 136.504C136.221 128.951 137.461 121.795 148.18 120.591C152.287 120.131 152.613 118.695 153.326 115.543C154.509 110.335 156.461 105.613 167.279 105.044C168.752 104.941 169.924 106.062 169.997 107.488C170.069 108.914 168.979 110.134 167.553 110.206C159.742 110.614 159.194 113.032 158.368 116.685C157.582 120.131 156.513 124.854 148.754 125.732C143.505 126.316 141.356 127.917 141.64 136.329C141.692 137.755 140.571 138.948 139.15 139V139ZM96.0543 42.3103C97.2993 43.4108 98.7923 44.2013 100.404 44.6043L118.826 49.2337C120.376 49.6263 122.014 49.4972 123.491 48.872C129.081 46.4902 143.443 40.1713 149.642 37.7378C153.568 36.1929 156.193 40.9928 153.026 43.4056C145.845 48.8927 123.507 64.5168 123.507 64.5168L119.054 83.3649C119.054 83.3649 128.275 92.975 132.196 97.315C134.382 99.7382 135.792 102.063 134.371 105.556C131.886 111.658 126.844 123.521 124.514 129.049C123.197 132.175 118.501 131.389 119.271 127.385C120.392 121.557 123.305 106.636 123.305 106.636L104.924 98.2657C104.924 98.2657 103.617 129.023 103.235 135.962C103.137 137.724 101.928 139.005 100.228 139C98.9421 138.995 97.6041 138.106 97.0668 135.921C94.3081 124.668 86.0011 89.472 86.0011 89.472C84.9214 85.1474 84.3014 81.5669 85.7273 76.2245L90.4542 56.3327C90.4542 56.3327 76.3715 35.7486 71.2932 28.0398C69.2164 24.883 73.1323 21.9431 75.4674 24.0098L96.0543 42.3103V42.3103ZM58.9721 86.1704L54.5654 88.8106L68.5552 112.185C59.3182 113.766 53.4857 122.022 57.975 129.524C60.7492 134.159 67.0312 135.239 71.5205 132.552C76.8622 129.354 80.6852 122.467 76.5781 115.584L58.9721 86.1704V86.1704ZM150.52 59.3397L155.191 67.963L164.836 69.7403L158.078 76.8497L159.365 86.5734L150.52 82.3419L141.671 86.5734L142.962 76.8497L136.2 69.7403L145.845 67.963L150.52 59.3397ZM61.1573 44.1755L46 59.3397L61.1573 74.504L76.3198 59.3397L61.1573 44.1755V44.1755ZM107.936 16.2856C114.962 13.0512 123.29 16.1306 126.519 23.1573C129.753 30.184 126.674 38.5128 119.648 41.7471C112.622 44.9763 104.294 41.897 101.06 34.8702C97.8314 27.8435 100.91 19.5148 107.936 16.2856Z" fill="black"/>
<path d="M66.4177 185H72.2377V169.1H78.5377V164H60.1177V169.1H66.4177V185ZM86.0192 185.39C89.2592 185.39 91.5092 184.07 93.0692 182.09L89.9192 179.48C88.7492 180.62 87.6692 181.13 86.3192 181.13C84.5492 181.13 83.2592 180.23 82.8092 178.46H93.6692C93.6992 178.07 93.6992 177.65 93.6992 177.29C93.6992 172.52 91.1192 168.41 85.5092 168.41C80.7092 168.41 77.3192 172.16 77.3192 176.9V176.96C77.3192 182 80.9192 185.39 86.0192 185.39ZM82.7192 175.55C83.0192 173.78 84.0392 172.61 85.5392 172.61C87.0992 172.61 88.1492 173.75 88.3592 175.55H82.7192ZM100.793 185.36C102.923 185.36 104.453 184.55 105.563 183.32V185H111.203V175.67C111.203 173.39 110.693 171.71 109.463 170.51C108.173 169.22 106.193 168.53 103.283 168.53C100.493 168.53 98.5433 169.04 96.7133 169.79L97.8833 173.81C99.3233 173.24 100.643 172.91 102.353 172.91C104.543 172.91 105.593 173.87 105.593 175.55V175.82C104.663 175.49 103.193 175.19 101.693 175.19C97.8833 175.19 95.3333 176.93 95.3333 180.29V180.35C95.3333 183.59 97.7033 185.36 100.793 185.36ZM102.833 181.79C101.663 181.79 100.823 181.13 100.823 180.02V179.96C100.823 178.76 101.783 177.95 103.433 177.95C104.273 177.95 105.083 178.13 105.653 178.37V179.12C105.653 180.74 104.483 181.79 102.833 181.79ZM120.406 185.33C121.996 185.33 123.346 184.97 124.366 184.4V179.93C123.676 180.26 122.956 180.47 122.206 180.47C121.156 180.47 120.646 179.99 120.646 178.85V173.36H124.426V168.77H120.646V164.66H114.946V168.77H113.026V173.36H114.946V179.96C114.946 183.83 116.986 185.33 120.406 185.33ZM126.876 185H132.576V179.96C132.576 176.21 134.256 174.5 137.226 174.5H137.706V168.5C135.006 168.38 133.506 169.82 132.576 172.04V168.77H126.876V185ZM147.695 185.39C152.915 185.39 156.695 181.52 156.695 176.9V176.84C156.695 172.22 152.945 168.41 147.755 168.41C142.535 168.41 138.755 172.28 138.755 176.9V176.96C138.755 181.58 142.505 185.39 147.695 185.39ZM147.755 180.56C145.745 180.56 144.305 178.88 144.305 176.9V176.84C144.305 174.89 145.625 173.24 147.695 173.24C149.705 173.24 151.145 174.92 151.145 176.9V176.96C151.145 178.91 149.825 180.56 147.755 180.56Z" fill="black"/>
</svg>
