<svg width="215" height="215" viewBox="0 0 215 215" fill="none" xmlns="http://www.w3.org/2000/svg">
<path fill-rule="evenodd" clip-rule="evenodd" d="M63.7171 36.1097C61.3838 36.1097 59.2285 37.1823 58.1102 38.9157C56.2649 41.7674 57.002 45.6003 59.8995 48.2283C61.8464 49.9872 64.4135 51.0038 66.9399 51.0038C69.8933 51.0038 72.496 49.6415 74.2803 47.1659L90.5876 24.9365L88.0358 23.076L73.1517 43.2365L71.1184 40.4051C69.1359 37.6296 66.5028 36.1097 63.7171 36.1097V36.1097ZM66.9399 56.077C63.163 56.077 59.3556 54.5876 56.4886 51.99C53.5504 49.3213 52 45.8341 52 42.3774C52 34.1424 59.2488 31.0314 63.7171 31.0314C67.1483 31.0314 70.3661 32.3785 73.0145 34.8744L86.953 16L97.689 23.8334L78.3876 50.1498C75.6324 53.9674 71.5658 56.077 66.9399 56.077V56.077ZM145.152 16.2288L139.052 27.4883L126.466 29.8012L135.285 39.0783L133.598 51.7663L145.152 46.2458L156.696 51.7663L155.014 39.0783L163.833 29.8012L151.247 27.4883L145.152 16.2288V16.2288ZM145.152 26.8936L147.938 32.043L153.692 33.1003L149.661 37.3398L150.434 43.145L145.152 40.6237L139.871 43.145L140.643 37.3398L136.607 33.1003L142.361 32.043L145.152 26.8936V26.8936ZM107.983 46.6881C95.3761 46.6881 85.1383 56.9259 85.1383 69.5326C85.1383 82.1494 95.3761 92.3771 107.983 92.3771C120.595 92.3771 130.832 82.1494 130.832 69.5326C130.832 56.9259 120.595 46.6881 107.983 46.6881ZM107.983 51.7663C117.783 51.7663 125.754 59.7421 125.754 69.5326C125.754 79.3282 117.783 87.2988 107.983 87.2988C98.1872 87.2988 90.2165 79.3282 90.2165 69.5326C90.2165 59.7421 98.1872 51.7663 107.983 51.7663V51.7663ZM82.6525 132.922H133.354V118.8C133.354 112.416 134.391 109.721 136.714 106.122L141.919 98.0908C147.755 89.1238 153.27 80.6549 156.112 75.2615C156.508 74.5092 156.264 73.5942 155.542 73.1367C154.688 72.5826 153.494 72.7503 152.818 73.4925C149.407 77.2237 142.499 84.4928 132.276 95.1018L130.4 97.1148C125.566 102.401 122.623 104.943 108.608 104.943H107.983C93.4495 104.872 90.4859 102.325 85.6618 97.0436L83.8522 95.1018C73.6906 84.5589 66.7773 77.2898 63.3053 73.4925C62.6293 72.7503 61.4347 72.5928 60.5857 73.1367C59.8639 73.5993 59.625 74.5143 60.0164 75.2615C62.9902 80.9142 69.3088 91.4265 79.3128 107.403C81.7477 111.297 82.6525 114.723 82.6525 120.056V132.922V132.922ZM138.432 138H77.5743V120.056C77.5743 115.73 76.9033 113.127 75.0123 110.103C64.7948 93.7953 58.6033 83.4711 55.5278 77.6303C53.8961 74.5244 54.8873 70.7577 57.8407 68.8616C60.7128 67.0265 64.7592 67.5501 67.0518 70.0613C70.4474 73.7772 77.5183 81.2192 87.5071 91.579L89.4082 93.6225C93.4037 97.9942 95.0558 99.8038 108.008 99.8648H108.608C121.006 99.8648 122.658 98.0603 126.654 93.6886L128.621 91.579C138.813 81.0057 145.691 73.767 149.076 70.0663C151.374 67.5501 155.426 67.0265 158.282 68.8616C161.241 70.7577 162.232 74.5244 160.605 77.6303C157.647 83.2271 152.081 91.7925 146.174 100.861L140.979 108.873C139.21 111.623 138.432 113.392 138.432 118.8V138V138Z" fill="black"/>
<path d="M57.109 185H62.809V173L68.149 181.16H68.269L73.639 172.94V185H79.429V164H73.279L68.269 172.13L63.259 164H57.109V185ZM88.5539 167.36H92.5139L96.9539 163.55L91.6739 161.84L88.5539 167.36ZM88.2239 185.36C90.5339 185.36 92.0339 184.13 93.0839 182.78V185H98.7839V168.77H93.0839V177.56C93.0839 179.33 92.0639 180.29 90.7139 180.29C89.3339 180.29 88.4039 179.33 88.4039 177.56V168.77H82.7039V179.39C82.7039 183.08 84.7739 185.36 88.2239 185.36ZM108.288 185.36C112.248 185.36 114.918 183.5 114.918 179.93V179.87C114.918 176.72 112.368 175.61 109.158 174.71C107.448 174.2 106.518 173.9 106.518 173.27V173.21C106.518 172.76 106.968 172.43 107.838 172.43C109.128 172.43 110.958 173 112.638 173.93L114.588 170.33C112.728 169.13 110.268 168.44 107.898 168.44C104.148 168.44 101.388 170.36 101.388 173.81V173.87C101.388 177.14 103.938 178.22 107.148 179.06C108.858 179.54 109.758 179.81 109.758 180.44V180.5C109.758 181.07 109.308 181.37 108.318 181.37C106.638 181.37 104.598 180.74 102.738 179.51L100.608 182.96C102.858 184.58 105.558 185.36 108.288 185.36ZM117.248 167.3H123.188V163.1H117.248V167.3ZM117.368 185H123.068V168.77H117.368V185ZM134.072 185.39C137.642 185.39 139.802 183.89 141.302 181.67L137.492 178.91C136.592 179.96 135.722 180.59 134.372 180.59C132.452 180.59 131.132 179 131.132 176.9V176.84C131.132 174.86 132.482 173.24 134.312 173.24C135.692 173.24 136.562 173.87 137.342 174.95L141.212 172.07C139.832 169.88 137.612 168.44 134.282 168.44C129.152 168.44 125.582 172.31 125.582 176.9V176.96C125.582 181.55 129.182 185.39 134.072 185.39ZM147.972 185.36C150.102 185.36 151.632 184.55 152.742 183.32V185H158.382V175.67C158.382 173.39 157.872 171.71 156.642 170.51C155.352 169.22 153.372 168.53 150.462 168.53C147.672 168.53 145.722 169.04 143.892 169.79L145.062 173.81C146.502 173.24 147.822 172.91 149.532 172.91C151.722 172.91 152.772 173.87 152.772 175.55V175.82C151.842 175.49 150.372 175.19 148.872 175.19C145.062 175.19 142.512 176.93 142.512 180.29V180.35C142.512 183.59 144.882 185.36 147.972 185.36ZM150.012 181.79C148.842 181.79 148.002 181.13 148.002 180.02V179.96C148.002 178.76 148.962 177.95 150.612 177.95C151.452 177.95 152.262 178.13 152.832 178.37V179.12C152.832 180.74 151.662 181.79 150.012 181.79Z" fill="black"/>
</svg>
