<?xml version="1.0" encoding="utf-8"?>
<!-- Generator: Adobe Illustrator 25.4.1, SVG Export Plug-In . SVG Version: 6.00 Build 0)  -->
<svg version="1.1" id="Capa_1" xmlns="http://www.w3.org/2000/svg" xmlns:xlink="http://www.w3.org/1999/xlink" x="0px" y="0px"
	 viewBox="0 0 575 768" style="enable-background:new 0 0 575 768;" xml:space="preserve">
<style type="text/css">
	.st0{fill:#D2B294;}
	.st1{fill:#BD0303;}
	.st2{fill:#900303;}
	.st3{fill:#FFFFFF;}
	.st4{fill:#FF0303;}
</style>
<g>
	<path class="st0" d="M542.5,660.1c0,27.1-113.3,49.1-253.1,49.1c-139.8,0-253.1-22-253.1-49.1c0-27.1,113.3-49.1,253.1-49.1
		C429.2,611.1,542.5,633,542.5,660.1z"/>
	<g>
		<polygon class="st1" points="118.1,664.9 131.9,664.9 118.1,532.8 104.4,532.8 		"/>
		<path class="st2" d="M105.9,536.4h234.7L365.3,233c6.4-78.5,77.6-149.9,0.5-161.8C363.5,70.8,244,72,232.1,72l0,0
			c-83.7,2.4-176.2,71.2-164.7,166.8L103.2,534C103.4,535.4,104.5,536.4,105.9,536.4z"/>
		<path class="st1" d="M253.2,536.4H486c1.1,0,2.1-0.9,2.2-2L512.6,233c6.6-80.9-52.5-152.3-133.2-161l0,0
			c-95.8-10.3-176.3,71.2-164.7,166.8L250.6,534C250.7,535.4,251.9,536.4,253.2,536.4z"/>
		<polygon class="st1" points="459,664.9 472.8,664.9 487.3,532.8 473.5,532.8 		"/>
		<polygon class="st1" points="265.9,664.9 279.6,664.9 265.9,532.8 252.1,532.8 		"/>
		<polygon class="st3" points="225.8,76 222.9,78.1 293.9,80.9 308.3,75.6 		"/>
		<path class="st4" d="M487.3,309.7c0,19-15.5,34.4-34.5,34.4H291c-19,0-34.4-15.4-34.4-34.4v-79.3c0-19,15.4-34.5,34.4-34.5h161.8
			c19,0,34.5,15.4,34.5,34.5V309.7z"/>
	</g>
</g>
</svg>
