<svg width="257" height="176" viewBox="0 0 257 176" fill="none" xmlns="http://www.w3.org/2000/svg">
<path d="M30.934 103H34.372V90.31H31.834L28.144 91.354L28.81 94.054L30.934 93.568V103ZM40.9398 103.252C44.7198 103.252 46.7718 100.444 46.7718 96.322V96.286C46.7718 93.964 46.1777 92.524 45.2598 91.624C44.3058 90.67 43.2258 90.148 41.3898 90.148C38.5098 90.148 36.3678 91.948 36.3678 94.738V94.774C36.3678 97.24 38.1498 98.752 40.5978 98.752C41.7138 98.752 42.6138 98.338 43.2618 97.726C43.0998 99.346 42.3258 100.354 40.8857 100.354C39.8778 100.354 39.0498 100.03 38.1858 99.346L36.5478 101.758C37.6998 102.658 39.0678 103.252 40.9398 103.252ZM41.5518 96.25C40.4538 96.25 39.7518 95.548 39.7518 94.594V94.558C39.7518 93.586 40.4178 92.866 41.5158 92.866C42.6138 92.866 43.3158 93.604 43.3158 94.576V94.612C43.3158 95.53 42.6498 96.25 41.5518 96.25ZM52.7698 103.252C56.5498 103.252 58.6018 100.444 58.6018 96.322V96.286C58.6018 93.964 58.0078 92.524 57.0898 91.624C56.1358 90.67 55.0558 90.148 53.2198 90.148C50.3398 90.148 48.1978 91.948 48.1978 94.738V94.774C48.1978 97.24 49.9798 98.752 52.4278 98.752C53.5438 98.752 54.4438 98.338 55.0918 97.726C54.9298 99.346 54.1558 100.354 52.7158 100.354C51.7078 100.354 50.8798 100.03 50.0158 99.346L48.3778 101.758C49.5298 102.658 50.8978 103.252 52.7698 103.252ZM53.3818 96.25C52.2838 96.25 51.5818 95.548 51.5818 94.594V94.558C51.5818 93.586 52.2478 92.866 53.3458 92.866C54.4438 92.866 55.1458 93.604 55.1458 94.576V94.612C55.1458 95.53 54.4798 96.25 53.3818 96.25ZM60.1941 103H64.0461L69.6081 93.028V90.4H59.9061V93.334H65.7381L60.1941 103Z" fill="black"/>
<path d="M31.39 125.1C32.78 125.1 33.78 124.32 33.78 123.12V123.1C33.78 122.03 33.06 121.46 31.5 121.12C29.96 120.79 29.6 120.42 29.6 119.76V119.74C29.6 119.11 30.18 118.61 31.09 118.61C31.81 118.61 32.46 118.84 33.11 119.37L33.57 118.76C32.86 118.19 32.13 117.9 31.11 117.9C29.78 117.9 28.81 118.71 28.81 119.81V119.83C28.81 120.98 29.55 121.5 31.16 121.85C32.63 122.16 32.98 122.53 32.98 123.18V123.2C32.98 123.89 32.36 124.39 31.42 124.39C30.45 124.39 29.75 124.06 29.02 123.4L28.53 123.98C29.37 124.73 30.28 125.1 31.39 125.1ZM35.7165 122.73H39.8165C39.8265 122.61 39.8265 122.53 39.8265 122.46C39.8265 120.94 38.9465 119.72 37.4165 119.72C35.9865 119.72 34.9365 120.92 34.9365 122.42C34.9365 124.03 36.0965 125.12 37.5165 125.12C38.4965 125.12 39.1265 124.73 39.6465 124.15L39.1665 123.72C38.7465 124.16 38.2465 124.45 37.5365 124.45C36.6265 124.45 35.8265 123.82 35.7165 122.73ZM35.7165 122.11C35.8265 121.11 36.5065 120.37 37.3965 120.37C38.4165 120.37 38.9565 121.17 39.0465 122.11H35.7165ZM47.0157 125.11C47.9257 125.11 48.5157 124.69 48.8757 124.23V125H49.6357V121.84C49.6357 121.18 49.4557 120.68 49.0957 120.32C48.7257 119.95 48.1557 119.75 47.4257 119.75C46.6657 119.75 46.1157 119.93 45.5457 120.19L45.7757 120.82C46.2557 120.6 46.7357 120.45 47.3457 120.45C48.3157 120.45 48.8757 120.93 48.8757 121.85V122.01C48.4157 121.88 47.9557 121.79 47.2957 121.79C45.9857 121.79 45.0857 122.37 45.0857 123.48V123.5C45.0857 124.56 46.0457 125.11 47.0157 125.11ZM47.1657 124.49C46.4657 124.49 45.8657 124.11 45.8657 123.46V123.44C45.8657 122.82 46.4157 122.4 47.3757 122.4C48.0057 122.4 48.5057 122.51 48.8857 122.62V123.1C48.8857 123.92 48.1157 124.49 47.1657 124.49ZM51.2667 126.6H52.0367V124.01C52.4367 124.59 53.0567 125.11 54.0167 125.11C55.2667 125.11 56.4867 124.11 56.4867 122.42V122.4C56.4867 120.7 55.2567 119.72 54.0167 119.72C53.0667 119.72 52.4567 120.25 52.0367 120.87V119.83H51.2667V126.6ZM53.8767 124.42C52.9167 124.42 52.0067 123.62 52.0067 122.42V122.4C52.0067 121.22 52.9167 120.41 53.8767 120.41C54.8567 120.41 55.6967 121.19 55.6967 122.41V122.43C55.6967 123.68 54.8767 124.42 53.8767 124.42ZM58.3674 122.73H62.4674C62.4774 122.61 62.4774 122.53 62.4774 122.46C62.4774 120.94 61.5974 119.72 60.0674 119.72C58.6374 119.72 57.5874 120.92 57.5874 122.42C57.5874 124.03 58.7474 125.12 60.1674 125.12C61.1474 125.12 61.7774 124.73 62.2974 124.15L61.8174 123.72C61.3974 124.16 60.8974 124.45 60.1874 124.45C59.2774 124.45 58.4774 123.82 58.3674 122.73ZM58.3674 122.11C58.4774 121.11 59.1574 120.37 60.0474 120.37C61.0674 120.37 61.6074 121.17 61.6974 122.11H58.3674ZM63.8253 125H64.5953V122.94C64.5953 121.38 65.5153 120.57 66.6453 120.57H66.7053V119.74C65.7253 119.7 64.9753 120.32 64.5953 121.18V119.83H63.8253V125ZM69.6081 125.09C69.9781 125.09 70.2681 125.01 70.5381 124.87V124.21C70.2681 124.34 70.0481 124.39 69.7881 124.39C69.2681 124.39 68.9181 124.16 68.9181 123.53V120.51H70.5581V119.83H68.9181V118.27H68.1481V119.83H67.4281V120.51H68.1481V123.63C68.1481 124.68 68.7781 125.09 69.6081 125.09ZM73.821 125.11C74.711 125.11 75.241 124.66 75.591 124.1V125H76.351V119.83H75.591V122.79C75.591 123.76 74.921 124.41 74.041 124.41C73.131 124.41 72.611 123.81 72.611 122.85V119.83H71.841V123.04C71.841 124.27 72.571 125.11 73.821 125.11ZM78.0831 125H78.8531V122.94C78.8531 121.38 79.7731 120.57 80.9031 120.57H80.9631V119.74C79.9831 119.7 79.2331 120.32 78.8531 121.18V119.83H78.0831V125ZM83.422 125.11C84.332 125.11 84.922 124.69 85.282 124.23V125H86.042V121.84C86.042 121.18 85.862 120.68 85.502 120.32C85.132 119.95 84.562 119.75 83.832 119.75C83.072 119.75 82.522 119.93 81.952 120.19L82.182 120.82C82.662 120.6 83.142 120.45 83.752 120.45C84.722 120.45 85.282 120.93 85.282 121.85V122.01C84.822 121.88 84.362 121.79 83.702 121.79C82.392 121.79 81.492 122.37 81.492 123.48V123.5C81.492 124.56 82.452 125.11 83.422 125.11ZM83.572 124.49C82.872 124.49 82.272 124.11 82.272 123.46V123.44C82.272 122.82 82.822 122.4 83.782 122.4C84.412 122.4 84.912 122.51 85.292 122.62V123.1C85.292 123.92 84.522 124.49 83.572 124.49ZM87.673 125H88.443V122.94C88.443 121.38 89.363 120.57 90.493 120.57H90.553V119.74C89.573 119.7 88.823 120.32 88.443 121.18V119.83H87.673V125ZM93.8611 125.12C95.4211 125.12 96.5711 123.88 96.5711 122.42V122.4C96.5711 120.94 95.4311 119.72 93.8811 119.72C92.3211 119.72 91.1811 120.96 91.1811 122.42V122.44C91.1811 123.9 92.3111 125.12 93.8611 125.12ZM93.8811 124.43C92.7911 124.43 91.9711 123.53 91.9711 122.42V122.4C91.9711 121.31 92.7411 120.4 93.8611 120.4C94.9511 120.4 95.7811 121.31 95.7811 122.42V122.44C95.7811 123.53 95.0011 124.43 93.8811 124.43ZM97.966 125H98.736V122.04C98.736 121.07 99.396 120.42 100.286 120.42C101.196 120.42 101.716 121.02 101.716 121.98V125H102.486V121.79C102.486 120.56 101.756 119.72 100.506 119.72C99.616 119.72 99.076 120.17 98.736 120.73V119.83H97.966V125ZM108.499 125H109.269V117.7H108.499V125ZM113.416 125.12C114.976 125.12 116.126 123.88 116.126 122.42V122.4C116.126 120.94 114.986 119.72 113.436 119.72C111.876 119.72 110.736 120.96 110.736 122.42V122.44C110.736 123.9 111.866 125.12 113.416 125.12ZM113.436 124.43C112.346 124.43 111.526 123.53 111.526 122.42V122.4C111.526 121.31 112.296 120.4 113.416 120.4C114.506 120.4 115.336 121.31 115.336 122.42V122.44C115.336 123.53 114.556 124.43 113.436 124.43ZM119.231 125.1C120.261 125.1 121.071 124.53 121.071 123.55V123.53C121.071 122.6 120.211 122.29 119.411 122.05C118.721 121.84 118.081 121.65 118.081 121.16V121.14C118.081 120.71 118.471 120.39 119.081 120.39C119.581 120.39 120.131 120.58 120.611 120.89L120.961 120.31C120.431 119.96 119.731 119.74 119.101 119.74C118.081 119.74 117.341 120.33 117.341 121.22V121.24C117.341 122.19 118.241 122.47 119.051 122.7C119.731 122.89 120.341 123.09 120.341 123.61V123.63C120.341 124.13 119.891 124.45 119.271 124.45C118.661 124.45 118.041 124.21 117.481 123.79L117.091 124.34C117.671 124.81 118.491 125.1 119.231 125.1ZM126.803 126.6H127.573V124.01C127.973 124.59 128.593 125.11 129.553 125.11C130.803 125.11 132.023 124.11 132.023 122.42V122.4C132.023 120.7 130.793 119.72 129.553 119.72C128.603 119.72 127.993 120.25 127.573 120.87V119.83H126.803V126.6ZM129.413 124.42C128.453 124.42 127.543 123.62 127.543 122.42V122.4C127.543 121.22 128.453 120.41 129.413 120.41C130.393 120.41 131.233 121.19 131.233 122.41V122.43C131.233 123.68 130.413 124.42 129.413 124.42ZM133.443 125H134.213V122.94C134.213 121.38 135.133 120.57 136.263 120.57H136.323V119.74C135.343 119.7 134.593 120.32 134.213 121.18V119.83H133.443V125ZM137.516 118.7H138.396V117.85H137.516V118.7ZM137.566 125H138.336V119.83H137.566V125ZM140.123 125H140.893V122.05C140.893 121.1 141.513 120.42 142.333 120.42C143.153 120.42 143.663 120.99 143.663 121.96V125H144.423V122.02C144.423 121 145.073 120.42 145.853 120.42C146.693 120.42 147.193 120.98 147.193 121.98V125H147.963V121.8C147.963 120.52 147.233 119.72 146.043 119.72C145.143 119.72 144.593 120.18 144.223 120.75C143.943 120.17 143.403 119.72 142.563 119.72C141.693 119.72 141.233 120.19 140.893 120.7V119.83H140.123V125ZM150.095 122.73H154.195C154.205 122.61 154.205 122.53 154.205 122.46C154.205 120.94 153.325 119.72 151.795 119.72C150.365 119.72 149.315 120.92 149.315 122.42C149.315 124.03 150.475 125.12 151.895 125.12C152.875 125.12 153.505 124.73 154.025 124.15L153.545 123.72C153.125 124.16 152.625 124.45 151.915 124.45C151.005 124.45 150.205 123.82 150.095 122.73ZM150.095 122.11C150.205 121.11 150.885 120.37 151.775 120.37C152.795 120.37 153.335 121.17 153.425 122.11H150.095ZM155.553 125H156.323V122.94C156.323 121.38 157.243 120.57 158.373 120.57H158.433V119.74C157.453 119.7 156.703 120.32 156.323 121.18V119.83H155.553V125ZM161.741 125.12C163.301 125.12 164.451 123.88 164.451 122.42V122.4C164.451 120.94 163.311 119.72 161.761 119.72C160.201 119.72 159.061 120.96 159.061 122.42V122.44C159.061 123.9 160.191 125.12 161.741 125.12ZM161.761 124.43C160.671 124.43 159.851 123.53 159.851 122.42V122.4C159.851 121.31 160.621 120.4 161.741 120.4C162.831 120.4 163.661 121.31 163.661 122.42V122.44C163.661 123.53 162.881 124.43 161.761 124.43ZM167.556 125.1C168.586 125.1 169.396 124.53 169.396 123.55V123.53C169.396 122.6 168.536 122.29 167.736 122.05C167.046 121.84 166.406 121.65 166.406 121.16V121.14C166.406 120.71 166.796 120.39 167.406 120.39C167.906 120.39 168.456 120.58 168.936 120.89L169.286 120.31C168.756 119.96 168.056 119.74 167.426 119.74C166.406 119.74 165.666 120.33 165.666 121.22V121.24C165.666 122.19 166.566 122.47 167.376 122.7C168.056 122.89 168.666 123.09 168.666 123.61V123.63C168.666 124.13 168.216 124.45 167.596 124.45C166.986 124.45 166.366 124.21 165.806 123.79L165.416 124.34C165.996 124.81 166.816 125.1 167.556 125.1ZM176.058 125H176.838V117.95H176.258L174.548 118.54L174.738 119.18L176.058 118.77V125ZM181.422 125.12C183.222 125.12 184.382 123.46 184.382 121.5V121.48C184.382 119.52 183.242 117.88 181.442 117.88C179.642 117.88 178.472 119.54 178.472 121.5V121.52C178.472 123.48 179.612 125.12 181.422 125.12ZM181.442 124.4C180.132 124.4 179.292 123.03 179.292 121.5V121.48C179.292 119.94 180.112 118.6 181.422 118.6C182.722 118.6 183.562 119.97 183.562 121.5V121.52C183.562 123.05 182.752 124.4 181.442 124.4ZM28.99 137H32.1C33.63 137 34.64 136.29 34.64 135.09V135.07C34.64 134.11 33.97 133.63 33.14 133.38C33.69 133.14 34.25 132.67 34.25 131.76V131.74C34.25 131.29 34.09 130.92 33.8 130.62C33.4 130.23 32.77 130 31.97 130H28.99V137ZM29.77 133.12V130.71H31.9C32.9 130.71 33.45 131.16 33.45 131.85V131.87C33.45 132.69 32.79 133.12 31.84 133.12H29.77ZM29.77 136.29V133.82H31.98C33.2 133.82 33.84 134.26 33.84 135.02V135.04C33.84 135.82 33.18 136.29 32.12 136.29H29.77ZM37.9768 137.11C38.8668 137.11 39.3968 136.66 39.7468 136.1V137H40.5068V131.83H39.7468V134.79C39.7468 135.76 39.0768 136.41 38.1968 136.41C37.2868 136.41 36.7668 135.81 36.7668 134.85V131.83H35.9968V135.04C35.9968 136.27 36.7268 137.11 37.9768 137.11ZM42.2389 137H43.0089V134.94C43.0089 133.38 43.9289 132.57 45.0589 132.57H45.1189V131.74C44.1389 131.7 43.3889 132.32 43.0089 133.18V131.83H42.2389V137ZM48.3668 138.62C49.1868 138.62 49.8768 138.39 50.3368 137.93C50.7568 137.51 50.9968 136.9 50.9968 136.1V131.83H50.2268V132.76C49.8068 132.2 49.1768 131.72 48.2068 131.72C46.9768 131.72 45.7768 132.65 45.7768 134.16V134.18C45.7768 135.67 46.9668 136.6 48.2068 136.6C49.1568 136.6 49.7868 136.11 50.2368 135.51V136.12C50.2368 137.33 49.4968 137.96 48.3568 137.96C47.6168 137.96 46.9568 137.73 46.3668 137.3L46.0168 137.9C46.7068 138.38 47.5068 138.62 48.3668 138.62ZM48.3568 135.92C47.3968 135.92 46.5668 135.2 46.5668 134.16V134.14C46.5668 133.08 47.3768 132.4 48.3568 132.4C49.3368 132.4 50.2568 133.09 50.2568 134.15V134.17C50.2568 135.21 49.3368 135.92 48.3568 135.92ZM53.1774 134.73H57.2774C57.2874 134.61 57.2874 134.53 57.2874 134.46C57.2874 132.94 56.4074 131.72 54.8774 131.72C53.4474 131.72 52.3974 132.92 52.3974 134.42C52.3974 136.03 53.5574 137.12 54.9774 137.12C55.9574 137.12 56.5874 136.73 57.1074 136.15L56.6274 135.72C56.2074 136.16 55.7074 136.45 54.9974 136.45C54.0874 136.45 53.2874 135.82 53.1774 134.73ZM53.1774 134.11C53.2874 133.11 53.9674 132.37 54.8574 132.37C55.8774 132.37 56.4174 133.17 56.5074 134.11H53.1774ZM58.6354 137H59.4054V134.94C59.4054 133.38 60.3254 132.57 61.4554 132.57H61.5154V131.74C60.5354 131.7 59.7854 132.32 59.4054 133.18V131.83H58.6354V137ZM68.6526 137H69.4426V135.12L70.9326 133.61L73.6226 137H74.6126L71.4826 133.06L74.4826 130H73.4626L69.4426 134.18V130H68.6526V137ZM75.7301 130.7H76.6101V129.85H75.7301V130.7ZM75.7801 137H76.5501V131.83H75.7801V137ZM78.3371 137H79.1071V134.04C79.1071 133.07 79.7671 132.42 80.6571 132.42C81.5671 132.42 82.0871 133.02 82.0871 133.98V137H82.8571V133.79C82.8571 132.56 82.1271 131.72 80.8771 131.72C79.9871 131.72 79.4471 132.17 79.1071 132.73V131.83H78.3371V137ZM86.7892 138.62C87.6092 138.62 88.2992 138.39 88.7592 137.93C89.1792 137.51 89.4192 136.9 89.4192 136.1V131.83H88.6492V132.76C88.2292 132.2 87.5992 131.72 86.6292 131.72C85.3992 131.72 84.1992 132.65 84.1992 134.16V134.18C84.1992 135.67 85.3892 136.6 86.6292 136.6C87.5792 136.6 88.2092 136.11 88.6592 135.51V136.12C88.6592 137.33 87.9192 137.96 86.7792 137.96C86.0392 137.96 85.3792 137.73 84.7892 137.3L84.4392 137.9C85.1292 138.38 85.9292 138.62 86.7892 138.62ZM86.7792 135.92C85.8192 135.92 84.9892 135.2 84.9892 134.16V134.14C84.9892 133.08 85.7992 132.4 86.7792 132.4C87.7592 132.4 88.6792 133.09 88.6792 134.15V134.17C88.6792 135.21 87.7592 135.92 86.7792 135.92ZM97.7743 138.63C98.5543 138.63 99.0543 138.24 99.4943 137.17L101.664 131.83H100.844L99.1843 136.14L97.3043 131.83H96.4543L98.8043 136.98C98.4943 137.71 98.2043 137.95 97.7443 137.95C97.4143 137.95 97.1843 137.89 96.9343 137.76L96.6743 138.37C97.0243 138.54 97.3443 138.63 97.7743 138.63ZM104.169 137.11C105.079 137.11 105.669 136.69 106.029 136.23V137H106.789V133.84C106.789 133.18 106.609 132.68 106.249 132.32C105.879 131.95 105.309 131.75 104.579 131.75C103.819 131.75 103.269 131.93 102.699 132.19L102.929 132.82C103.409 132.6 103.889 132.45 104.499 132.45C105.469 132.45 106.029 132.93 106.029 133.85V134.01C105.569 133.88 105.109 133.79 104.449 133.79C103.139 133.79 102.239 134.37 102.239 135.48V135.5C102.239 136.56 103.199 137.11 104.169 137.11ZM104.319 136.49C103.619 136.49 103.019 136.11 103.019 135.46V135.44C103.019 134.82 103.569 134.4 104.529 134.4C105.159 134.4 105.659 134.51 106.039 134.62V135.1C106.039 135.92 105.269 136.49 104.319 136.49ZM116.584 137.12C117.554 137.12 118.174 136.7 118.694 136.12L118.204 135.66C117.794 136.1 117.284 136.43 116.624 136.43C115.544 136.43 114.724 135.54 114.724 134.42V134.4C114.724 133.29 115.524 132.4 116.574 132.4C117.274 132.4 117.734 132.75 118.144 133.18L118.654 132.64C118.174 132.13 117.564 131.72 116.584 131.72C115.074 131.72 113.934 132.96 113.934 134.42V134.44C113.934 135.89 115.074 137.12 116.584 137.12ZM122.18 137.12C123.74 137.12 124.89 135.88 124.89 134.42V134.4C124.89 132.94 123.75 131.72 122.2 131.72C120.64 131.72 119.5 132.96 119.5 134.42V134.44C119.5 135.9 120.63 137.12 122.18 137.12ZM122.2 136.43C121.11 136.43 120.29 135.53 120.29 134.42V134.4C120.29 133.31 121.06 132.4 122.18 132.4C123.27 132.4 124.1 133.31 124.1 134.42V134.44C124.1 135.53 123.32 136.43 122.2 136.43ZM126.285 137H127.055V134.04C127.055 133.07 127.715 132.42 128.605 132.42C129.515 132.42 130.035 133.02 130.035 133.98V137H130.805V133.79C130.805 132.56 130.075 131.72 128.825 131.72C127.935 131.72 127.395 132.17 127.055 132.73V131.83H126.285V137ZM138.282 138.6H139.052V136.01C139.452 136.59 140.072 137.11 141.032 137.11C142.282 137.11 143.502 136.11 143.502 134.42V134.4C143.502 132.7 142.272 131.72 141.032 131.72C140.082 131.72 139.472 132.25 139.052 132.87V131.83H138.282V138.6ZM140.892 136.42C139.932 136.42 139.022 135.62 139.022 134.42V134.4C139.022 133.22 139.932 132.41 140.892 132.41C141.872 132.41 142.712 133.19 142.712 134.41V134.43C142.712 135.68 141.892 136.42 140.892 136.42ZM144.923 137H145.693V134.94C145.693 133.38 146.613 132.57 147.743 132.57H147.803V131.74C146.823 131.7 146.073 132.32 145.693 133.18V131.83H144.923V137ZM149.211 134.73H153.311C153.321 134.61 153.321 134.53 153.321 134.46C153.321 132.94 152.441 131.72 150.911 131.72C149.481 131.72 148.431 132.92 148.431 134.42C148.431 136.03 149.591 137.12 151.011 137.12C151.991 137.12 152.621 136.73 153.141 136.15L152.661 135.72C152.241 136.16 151.741 136.45 151.031 136.45C150.121 136.45 149.321 135.82 149.211 134.73ZM149.211 134.11C149.321 133.11 150.001 132.37 150.891 132.37C151.911 132.37 152.451 133.17 152.541 134.11H149.211ZM156.379 137.1C157.409 137.1 158.219 136.53 158.219 135.55V135.53C158.219 134.6 157.359 134.29 156.559 134.05C155.869 133.84 155.229 133.65 155.229 133.16V133.14C155.229 132.71 155.619 132.39 156.229 132.39C156.729 132.39 157.279 132.58 157.759 132.89L158.109 132.31C157.579 131.96 156.879 131.74 156.249 131.74C155.229 131.74 154.489 132.33 154.489 133.22V133.24C154.489 134.19 155.389 134.47 156.199 134.7C156.879 134.89 157.489 135.09 157.489 135.61V135.63C157.489 136.13 157.039 136.45 156.419 136.45C155.809 136.45 155.189 136.21 154.629 135.79L154.239 136.34C154.819 136.81 155.639 137.1 156.379 137.1ZM160.109 134.73H164.209C164.219 134.61 164.219 134.53 164.219 134.46C164.219 132.94 163.339 131.72 161.809 131.72C160.379 131.72 159.329 132.92 159.329 134.42C159.329 136.03 160.489 137.12 161.909 137.12C162.889 137.12 163.519 136.73 164.039 136.15L163.559 135.72C163.139 136.16 162.639 136.45 161.929 136.45C161.019 136.45 160.219 135.82 160.109 134.73ZM160.109 134.11C160.219 133.11 160.899 132.37 161.789 132.37C162.809 132.37 163.349 133.17 163.439 134.11H160.109ZM165.567 137H166.337V134.04C166.337 133.07 166.997 132.42 167.887 132.42C168.797 132.42 169.317 133.02 169.317 133.98V137H170.087V133.79C170.087 132.56 169.357 131.72 168.107 131.72C167.217 131.72 166.677 132.17 166.337 132.73V131.83H165.567V137ZM174.059 137.12C175.029 137.12 175.649 136.7 176.169 136.12L175.679 135.66C175.269 136.1 174.759 136.43 174.099 136.43C173.019 136.43 172.199 135.54 172.199 134.42V134.4C172.199 133.29 172.999 132.4 174.049 132.4C174.749 132.4 175.209 132.75 175.619 133.18L176.129 132.64C175.649 132.13 175.039 131.72 174.059 131.72C172.549 131.72 171.409 132.96 171.409 134.42V134.44C171.409 135.89 172.549 137.12 174.059 137.12ZM177.462 130.7H178.342V129.85H177.462V130.7ZM177.512 137H178.282V131.83H177.512V137ZM181.609 137.11C182.519 137.11 183.109 136.69 183.469 136.23V137H184.229V133.84C184.229 133.18 184.049 132.68 183.689 132.32C183.319 131.95 182.749 131.75 182.019 131.75C181.259 131.75 180.709 131.93 180.139 132.19L180.369 132.82C180.849 132.6 181.329 132.45 181.939 132.45C182.909 132.45 183.469 132.93 183.469 133.85V134.01C183.009 133.88 182.549 133.79 181.889 133.79C180.579 133.79 179.679 134.37 179.679 135.48V135.5C179.679 136.56 180.639 137.11 181.609 137.11ZM181.759 136.49C181.059 136.49 180.459 136.11 180.459 135.46V135.44C180.459 134.82 181.009 134.4 181.969 134.4C182.599 134.4 183.099 134.51 183.479 134.62V135.1C183.479 135.92 182.709 136.49 181.759 136.49ZM29.32 146.73H33.42C33.43 146.61 33.43 146.53 33.43 146.46C33.43 144.94 32.55 143.72 31.02 143.72C29.59 143.72 28.54 144.92 28.54 146.42C28.54 148.03 29.7 149.12 31.12 149.12C32.1 149.12 32.73 148.73 33.25 148.15L32.77 147.72C32.35 148.16 31.85 148.45 31.14 148.45C30.23 148.45 29.43 147.82 29.32 146.73ZM29.32 146.11C29.43 145.11 30.11 144.37 31 144.37C32.02 144.37 32.56 145.17 32.65 146.11H29.32ZM34.778 149H35.548V146.04C35.548 145.07 36.208 144.42 37.098 144.42C38.008 144.42 38.528 145.02 38.528 145.98V149H39.298V145.79C39.298 144.56 38.568 143.72 37.318 143.72C36.428 143.72 35.888 144.17 35.548 144.73V143.83H34.778V149ZM50.4481 149.21L50.9881 148.62L50.0581 147.85C50.5981 147.21 50.8981 146.38 50.8981 145.5V145.48C50.8981 143.55 49.4681 141.88 47.3381 141.88C45.2081 141.88 43.7581 143.57 43.7581 145.5V145.52C43.7581 147.45 45.1881 149.12 47.3181 149.12C48.1881 149.12 48.9381 148.84 49.5281 148.37L50.4481 149.21ZM47.3381 148.39C45.7381 148.39 44.5781 147.09 44.5781 145.5V145.48C44.5781 143.89 45.7181 142.61 47.3181 142.61C48.9181 142.61 50.0781 143.91 50.0781 145.5V145.52C50.0781 146.21 49.8481 146.84 49.4681 147.33L48.1781 146.16L47.6481 146.75L48.9481 147.86C48.5181 148.19 47.9581 148.39 47.3381 148.39ZM54.3342 149.11C55.2242 149.11 55.7542 148.66 56.1042 148.1V149H56.8642V143.83H56.1042V146.79C56.1042 147.76 55.4342 148.41 54.5542 148.41C53.6442 148.41 53.1242 147.81 53.1242 146.85V143.83H52.3542V147.04C52.3542 148.27 53.0842 149.11 54.3342 149.11ZM58.6163 142.7H59.4963V141.85H58.6163V142.7ZM58.6663 149H59.4363V143.83H58.6663V149ZM61.2233 149H61.9933V146.04C61.9933 145.07 62.6533 144.42 63.5433 144.42C64.4533 144.42 64.9733 145.02 64.9733 145.98V149H65.7433V145.79C65.7433 144.56 65.0133 143.72 63.7633 143.72C62.8733 143.72 62.3333 144.17 61.9933 144.73V143.83H61.2233V149ZM69.1154 149.09C69.4854 149.09 69.7754 149.01 70.0454 148.87V148.21C69.7754 148.34 69.5554 148.39 69.2954 148.39C68.7754 148.39 68.4254 148.16 68.4254 147.53V144.51H70.0654V143.83H68.4254V142.27H67.6554V143.83H66.9354V144.51H67.6554V147.63C67.6554 148.68 68.2854 149.09 69.1154 149.09ZM72.9684 149.11C73.8784 149.11 74.4684 148.69 74.8284 148.23V149H75.5884V145.84C75.5884 145.18 75.4084 144.68 75.0484 144.32C74.6784 143.95 74.1084 143.75 73.3784 143.75C72.6184 143.75 72.0684 143.93 71.4984 144.19L71.7284 144.82C72.2084 144.6 72.6884 144.45 73.2984 144.45C74.2684 144.45 74.8284 144.93 74.8284 145.85V146.01C74.3684 145.88 73.9084 145.79 73.2484 145.79C71.9384 145.79 71.0384 146.37 71.0384 147.48V147.5C71.0384 148.56 71.9984 149.11 72.9684 149.11ZM73.1184 148.49C72.4184 148.49 71.8184 148.11 71.8184 147.46V147.44C71.8184 146.82 72.3684 146.4 73.3284 146.4C73.9584 146.4 74.4584 146.51 74.8384 146.62V147.1C74.8384 147.92 74.0684 148.49 73.1184 148.49ZM77.2194 149H77.9894V146.04C77.9894 145.07 78.6494 144.42 79.5394 144.42C80.4494 144.42 80.9694 145.02 80.9694 145.98V149H81.7394V145.79C81.7394 144.56 81.0094 143.72 79.7594 143.72C78.8694 143.72 78.3294 144.17 77.9894 144.73V143.83H77.2194V149ZM84.9215 149.11C85.8315 149.11 86.4215 148.69 86.7815 148.23V149H87.5415V145.84C87.5415 145.18 87.3615 144.68 87.0015 144.32C86.6315 143.95 86.0615 143.75 85.3315 143.75C84.5715 143.75 84.0215 143.93 83.4515 144.19L83.6815 144.82C84.1615 144.6 84.6415 144.45 85.2515 144.45C86.2215 144.45 86.7815 144.93 86.7815 145.85V146.01C86.3215 145.88 85.8615 145.79 85.2015 145.79C83.8915 145.79 82.9915 146.37 82.9915 147.48V147.5C82.9915 148.56 83.9515 149.11 84.9215 149.11ZM85.0715 148.49C84.3715 148.49 83.7715 148.11 83.7715 147.46V147.44C83.7715 146.82 84.3215 146.4 85.2815 146.4C85.9115 146.4 86.4115 146.51 86.7915 146.62V147.1C86.7915 147.92 86.0215 148.49 85.0715 148.49ZM92.3005 149H93.0905V146.28H95.0905L97.1205 149H98.0905L95.9405 146.14C97.0405 145.94 97.8405 145.26 97.8405 144.1V144.08C97.8405 143.53 97.6405 143.04 97.3005 142.7C96.8605 142.26 96.1705 142 95.3105 142H92.3005V149ZM93.0905 145.57V142.73H95.2505C96.3805 142.73 97.0405 143.25 97.0405 144.11V144.13C97.0405 145.03 96.2905 145.57 95.2405 145.57H93.0905ZM101.659 149.12C103.219 149.12 104.369 147.88 104.369 146.42V146.4C104.369 144.94 103.229 143.72 101.679 143.72C100.119 143.72 98.9795 144.96 98.9795 146.42V146.44C98.9795 147.9 100.109 149.12 101.659 149.12ZM101.679 148.43C100.589 148.43 99.7695 147.53 99.7695 146.42V146.4C99.7695 145.31 100.539 144.4 101.659 144.4C102.749 144.4 103.579 145.31 103.579 146.42V146.44C103.579 147.53 102.799 148.43 101.679 148.43ZM108.124 149.12C109.684 149.12 110.834 147.88 110.834 146.42V146.4C110.834 144.94 109.694 143.72 108.144 143.72C106.584 143.72 105.444 144.96 105.444 146.42V146.44C105.444 147.9 106.574 149.12 108.124 149.12ZM108.144 148.43C107.054 148.43 106.234 147.53 106.234 146.42V146.4C106.234 145.31 107.004 144.4 108.124 144.4C109.214 144.4 110.044 145.31 110.044 146.42V146.44C110.044 147.53 109.264 148.43 108.144 148.43Z" fill="black"/>
<path d="M52.9569 61.2C40.5195 61.2 30.1349 51.11 30.689 38.3598C31.2372 25.7469 39.2536 15.976 53.293 14.6633C55.5971 14.4479 58.9409 14.6732 61.7717 15.2993C59.3548 14.5418 56.702 14 54.0333 14C39.6467 14 28 25.4017 28 39.7883C28 54.1749 39.5022 65.6 53.8888 65.6C64.6184 65.6 73.5185 59.1545 77.4421 49.9196L73.0648 47.647C69.6732 55.6817 62.0849 61.2 52.9569 61.2Z" fill="#00519E"/>
<path d="M65.6559 21.6475C66.8829 21.4512 66.1414 20.6074 66.1414 20.6074C60.5248 14.3667 49.4764 17.4638 49.4764 17.4638C39.884 19.914 38.3122 27.9577 38.3122 27.9577C37.9887 29.2289 39.2829 28.6049 39.2829 28.6049C39.2829 28.6049 53.9602 23.5199 65.6559 21.6475V21.6475Z" fill="#F7AD24"/>
<path d="M54.3995 17.2559C54.3995 17.2559 60.0624 17.6256 60.8714 20.145C60.8714 20.145 61.1024 21.0927 59.6695 21.7168L61.2876 21.3239C61.2876 21.3239 62.6974 21.0466 62.6974 20.2838C62.6972 20.2838 62.7668 17.3483 54.3995 17.2559V17.2559ZM40.8444 26.8086C41.118 26.8282 41.2703 26.638 41.3412 26.3118C41.3412 26.3118 42.2012 22.0999 46.7919 18.9591C43.1013 20.7048 41.4264 23.7709 41.4264 23.7709C40.813 24.7886 40.5562 25.4232 40.4513 25.8026C40.4184 25.9019 40.1868 26.6655 40.7259 26.7909C40.7259 26.7909 40.7768 26.8037 40.8444 26.8086V26.8086Z" fill="white"/>
<path d="M76.6907 43.8979C77.9115 43.8979 78.9999 44.7759 78.9999 46.141C78.9999 47.5121 77.9114 48.3961 76.6907 48.3961C75.4701 48.3961 74.3816 47.5121 74.3816 46.141C74.3814 44.7759 75.4699 43.8979 76.6907 43.8979ZM76.6907 47.9149C77.623 47.9149 78.3866 47.1691 78.3866 46.1409C78.3866 45.1186 77.623 44.3789 76.6907 44.3789C75.7467 44.3789 74.995 45.1186 74.995 46.1409C74.995 47.1692 75.7466 47.9149 76.6907 47.9149ZM75.7948 44.8781H76.7449C77.3763 44.8781 77.731 45.0766 77.731 45.6239C77.731 46.0869 77.4423 46.2673 77.0695 46.2973L77.743 47.398H77.22L76.6065 46.3215H76.2939V47.398H75.7948V44.8781ZM76.2938 45.9305H76.7386C77.0213 45.9305 77.2319 45.8885 77.2319 45.5817C77.2319 45.3112 76.9432 45.2692 76.7148 45.2692H76.2938V45.9305Z" fill="#E20028"/>
<path d="M69.6087 45.7966C57.5924 48.6116 44.5258 53.7375 44.5258 53.7375C42.7521 54.3361 43.9475 55.2249 44.095 55.368C44.6577 55.8617 46.1753 56.9027 49.5245 57.6L49.5662 57.5993C55.1379 58.695 60.2394 56.7625 60.2394 56.7625C67.2868 54.2873 69.805 49.4785 70.4877 47.8115L70.4939 47.8004C70.8317 46.9757 70.8924 46.6388 70.8924 46.6388C70.8937 46.6324 70.8934 46.6277 70.8947 46.6215C71.1954 45.2981 69.6087 45.7966 69.6087 45.7966V45.7966Z" fill="#F7AD24"/>
<path d="M60.9177 55.6123C66.8563 53.1655 68.5107 48.6741 68.5107 48.6741C68.8127 47.9019 68.212 47.6977 68.212 47.6977C68.212 47.6977 67.4905 47.4466 67.2584 48.2263C67.2584 48.2263 65.696 52.798 60.8718 55.6238L60.9177 55.6123Z" fill="white"/>
<path d="M40.0583 30.531V36.343C40.0583 36.343 40.0302 38.6399 42.299 38.6399C42.299 38.6399 46.2624 38.6399 46.2905 34.6064V29.4947C46.2905 29.4947 46.2763 28.4863 45.17 28.7804L43.9936 29.1725V35.2787C43.9936 35.2787 43.9376 36.4131 43.0832 36.4131C43.0832 36.4131 42.397 36.5252 42.397 35.6849C42.369 35.6289 42.397 30.7831 42.397 30.7831C42.397 30.7831 42.411 29.7888 41.3046 30.0548L40.0583 30.531ZM53.195 33.416L51.5985 31.8754C53.293 30.5449 53.027 28.8223 53.027 28.8223C52.7888 26.6795 50.24 27.2677 50.24 27.2677L46.9908 28.2623V36.9174L48.2932 36.4692C49.3996 36.049 49.3155 35.1667 49.3155 35.1667L49.3016 32.9399L51.4724 35.1108C52.3267 35.783 53.125 35.0267 53.125 35.0267C53.8673 34.2004 53.195 33.416 53.195 33.416ZM49.3155 31.6094V29.1866C50.6881 28.6685 50.674 29.7189 50.674 29.7189C50.7442 30.9232 49.3155 31.6094 49.3155 31.6094ZM39.8413 37.4463C39.8413 35.9502 38.3745 35.6422 38.3745 35.6422C39.8566 34.2495 39.5353 33.0102 39.5353 33.0102C39.0953 30.942 36.7317 31.7553 36.7317 31.7553L33.5488 33.0019V42.2426C37.1255 40.7598 37.9784 40.2919 37.9784 40.2919C39.9734 39.265 39.8413 37.4463 39.8413 37.4463V37.4463ZM35.8786 33.6987C37.3016 33.0408 37.2097 34.1883 37.2097 34.1883C37.1638 35.3741 35.8786 35.6953 35.8786 35.6953V33.6987ZM35.8941 39.3674V37.1029C35.8941 37.1029 37.2635 36.3608 37.3782 37.692C37.3781 37.692 37.5542 38.8318 35.8941 39.3674V39.3674Z" fill="#E20028"/>
<path d="M60.4112 26.3753C60.4112 26.3753 60.596 24.9738 58.1472 25.097C58.1472 25.097 53.5577 24.9891 53.3575 30.2563C53.3575 30.2563 53.0804 34.0449 56.7611 34.1066C56.7611 34.1066 60.3648 34.2452 60.4572 31.4114V28.2387L57.0382 29.0088V29.8867C57.0382 29.8867 57.038 30.7645 57.9313 30.5798L58.3163 30.5028V31.4885C58.3163 31.4885 58.301 32.0737 57.2538 32.0737C57.2538 32.0737 55.7136 32.2276 55.8677 29.9637C55.8677 29.9637 55.7907 27.284 58.3472 27.2685C58.3472 27.2685 58.7785 27.2685 59.0403 27.3302C59.0405 27.33 60.3033 27.6536 60.4112 26.3753ZM66.0941 31.1495V29.9328L63.3374 30.4565L63.3321 28.8382L65.1237 28.4853C65.8938 28.3466 65.8168 27.6845 65.8168 27.6845V26.6526L63.3263 27.1457L63.3221 25.8518L65.355 25.4513C66.125 25.3126 66.0481 24.6505 66.0481 24.6505V23.5109L61.0429 24.5273L61.0584 32.936L65.4014 31.9503C66.1711 31.8117 66.0941 31.1495 66.0941 31.1495V31.1495ZM72.7162 29.132L71.1606 27.3764C72.716 26.4217 72.5623 24.8044 72.5623 24.8044C72.2851 22.5405 69.8978 22.8793 69.8978 22.8793L66.6173 23.4028L66.6328 31.7038L67.9263 31.442C68.9888 31.1494 68.8812 30.3331 68.8812 30.3331V28.208L70.8988 30.6104C71.6996 31.365 72.5774 30.6566 72.5774 30.6566C73.3321 29.9482 72.7162 29.132 72.7162 29.132ZM70.2676 25.3896C70.1445 26.6524 68.8814 26.9605 68.8814 26.9605V24.712C70.4213 24.3579 70.2676 25.3896 70.2676 25.3896Z" fill="#E20028"/>
<path d="M50.7998 36.9103L48.594 37.6456C48.594 37.6456 46.7664 38.0447 46.7874 40.4396V51.1534L48.9301 50.3971C48.9301 50.3971 50.8838 49.8719 50.7998 47.6031V36.9103ZM39.3447 45.7173L42.7696 39.9717C42.7696 39.9717 43.6707 38.7097 45.1804 39.4534C45.1804 39.4534 46.5549 40.1971 45.7888 41.7066L42.9272 46.258L45.5409 48.8942C45.5409 48.8942 46.9605 50.201 45.4283 51.7557C45.4283 51.7557 43.9863 53.0849 42.3864 51.5304L39.2319 48.1282L39.0291 46.3706L39.3447 45.7173ZM51.9934 49.3145L51.9682 36.6539L54.2425 35.9715C54.2425 35.9715 55.3798 35.7442 56.0873 36.6287L59.4736 40.5202V36.4013C59.4736 36.4013 59.3978 34.5817 61.3183 34.1775L62.9105 33.8237V44.867C62.9105 44.867 63.0154 46.3178 61.3943 46.7117C61.3943 46.7117 60.1313 46.9949 59.2969 46.0042L55.5569 41.6829V46.0294C55.5569 46.0294 55.8097 48.0003 53.9647 48.6574L51.9934 49.3145Z" fill="#E20028"/>
<path d="M35.5608 42.7639L39.4322 41.1717L39.401 52.4331C39.401 52.4331 39.5047 53.8001 38.277 54.2844L35.5608 55.3771V42.7639ZM69.2375 37.4352L74.5944 36.2798V40.7124C74.5944 40.7124 74.7221 44.7154 68.6913 44.7668C68.6913 44.7668 63.2714 44.8929 63.5235 39.1158C63.5235 39.1158 63.3554 31.8052 71.4433 31.7422C71.4433 31.7422 74.9725 31.7212 74.6364 33.927C74.6364 33.927 74.3843 35.4395 72.9348 35.2084C72.9348 35.2084 72.1785 34.9984 71.2332 34.9984C71.2332 34.9984 67.4309 34.7883 67.3258 38.6957C67.3258 38.6957 67.1998 41.6367 69.4476 41.5527C69.4476 41.5527 70.687 41.5737 71.2122 40.8174V39.62L70.708 39.7461C70.708 39.7461 69.3005 40.1662 69.2165 38.9058L69.2375 37.4352Z" fill="#E20028"/>
</svg>
