<svg width="257" height="176" viewBox="0 0 257 176" fill="none" xmlns="http://www.w3.org/2000/svg">
<path d="M28.594 103H38.566V100.156H33.364L35.524 98.644C37.396 97.294 38.44 96.25 38.44 94.234V94.198C38.44 91.822 36.55 90.184 33.796 90.184C31.348 90.184 30.016 91.138 28.666 92.884L31.024 94.846C32.014 93.712 32.68 93.226 33.526 93.226C34.372 93.226 34.93 93.712 34.93 94.504C34.93 95.26 34.48 95.854 33.31 96.772L28.594 100.372V103ZM45.7844 103.252C49.3844 103.252 51.6344 100.264 51.6344 96.7V96.664C51.6344 93.1 49.4024 90.148 45.8204 90.148C42.2384 90.148 39.9704 93.136 39.9704 96.7V96.736C39.9704 100.3 42.1844 103.252 45.7844 103.252ZM45.8204 100.156C44.4164 100.156 43.4804 98.716 43.4804 96.7V96.664C43.4804 94.648 44.3984 93.244 45.7844 93.244C47.1704 93.244 48.1244 94.702 48.1244 96.7V96.736C48.1244 98.734 47.2244 100.156 45.8204 100.156ZM58.9329 103.252C62.5329 103.252 64.7829 100.264 64.7829 96.7V96.664C64.7829 93.1 62.5509 90.148 58.9689 90.148C55.3869 90.148 53.1189 93.136 53.1189 96.7V96.736C53.1189 100.3 55.3329 103.252 58.9329 103.252ZM58.9689 100.156C57.5649 100.156 56.6289 98.716 56.6289 96.7V96.664C56.6289 94.648 57.5469 93.244 58.9329 93.244C60.3189 93.244 61.2729 94.702 61.2729 96.7V96.736C61.2729 98.734 60.3729 100.156 58.9689 100.156ZM65.9475 103H75.9195V100.156H70.7175L72.8775 98.644C74.7495 97.294 75.7935 96.25 75.7935 94.234V94.198C75.7935 91.822 73.9035 90.184 71.1495 90.184C68.7015 90.184 67.3695 91.138 66.0195 92.884L68.3775 94.846C69.3675 93.712 70.0335 93.226 70.8795 93.226C71.7255 93.226 72.2835 93.712 72.2835 94.504C72.2835 95.26 71.8335 95.854 70.6635 96.772L65.9475 100.372V103Z" fill="black"/>
<path d="M32.24 125.12C33.42 125.12 34.4 124.63 35.05 124.05V121.26H32.16V121.97H34.29V123.71C33.81 124.1 33.07 124.41 32.27 124.41C30.57 124.41 29.5 123.17 29.5 121.5V121.48C29.5 119.92 30.61 118.61 32.16 118.61C33.15 118.61 33.75 118.94 34.29 119.41L34.8 118.81C34.1 118.22 33.37 117.88 32.19 117.88C30.09 117.88 28.68 119.58 28.68 121.5V121.52C28.68 123.52 30.04 125.12 32.24 125.12ZM36.7018 125H37.4718V122.94C37.4718 121.38 38.3918 120.57 39.5218 120.57H39.5818V119.74C38.6018 119.7 37.8518 120.32 37.4718 121.18V119.83H36.7018V125ZM42.6545 125.11C43.5445 125.11 44.0745 124.66 44.4245 124.1V125H45.1845V119.83H44.4245V122.79C44.4245 123.76 43.7545 124.41 42.8745 124.41C41.9645 124.41 41.4445 123.81 41.4445 122.85V119.83H40.6745V123.04C40.6745 124.27 41.4045 125.11 42.6545 125.11ZM46.9166 126.6H47.6866V124.01C48.0866 124.59 48.7066 125.11 49.6666 125.11C50.9166 125.11 52.1366 124.11 52.1366 122.42V122.4C52.1366 120.7 50.9066 119.72 49.6666 119.72C48.7166 119.72 48.1066 120.25 47.6866 120.87V119.83H46.9166V126.6ZM49.5266 124.42C48.5666 124.42 47.6566 123.62 47.6566 122.42V122.4C47.6566 121.22 48.5666 120.41 49.5266 120.41C50.5066 120.41 51.3466 121.19 51.3466 122.41V122.43C51.3466 123.68 50.5266 124.42 49.5266 124.42ZM55.9173 125.12C57.4773 125.12 58.6273 123.88 58.6273 122.42V122.4C58.6273 120.94 57.4873 119.72 55.9373 119.72C54.3773 119.72 53.2373 120.96 53.2373 122.42V122.44C53.2373 123.9 54.3673 125.12 55.9173 125.12ZM55.9373 124.43C54.8473 124.43 54.0273 123.53 54.0273 122.42V122.4C54.0273 121.31 54.7973 120.4 55.9173 120.4C57.0073 120.4 57.8373 121.31 57.8373 122.42V122.44C57.8373 123.53 57.0573 124.43 55.9373 124.43ZM77.6064 125.11C79.3564 125.11 80.5264 124.05 80.5264 122.01V118H79.7364V122.07C79.7364 123.6 78.9164 124.38 77.6264 124.38C76.2864 124.38 75.4864 123.53 75.4864 122.02V118H74.6964V122.07C74.6964 124.05 75.8764 125.11 77.6064 125.11ZM82.3943 125H83.1843V122.28H85.1843L87.2143 125H88.1843L86.0343 122.14C87.1343 121.94 87.9343 121.26 87.9343 120.1V120.08C87.9343 119.53 87.7343 119.04 87.3943 118.7C86.9543 118.26 86.2643 118 85.4043 118H82.3943V125ZM83.1843 121.57V118.73H85.3443C86.4743 118.73 87.1343 119.25 87.1343 120.11V120.13C87.1343 121.03 86.3843 121.57 85.3343 121.57H83.1843ZM89.6209 125H92.7309C94.2609 125 95.2709 124.29 95.2709 123.09V123.07C95.2709 122.11 94.6009 121.63 93.7709 121.38C94.3209 121.14 94.8809 120.67 94.8809 119.76V119.74C94.8809 119.29 94.7209 118.92 94.4309 118.62C94.0309 118.23 93.4009 118 92.6009 118H89.6209V125ZM90.4009 121.12V118.71H92.5309C93.5309 118.71 94.0809 119.16 94.0809 119.85V119.87C94.0809 120.69 93.4209 121.12 92.4709 121.12H90.4009ZM90.4009 124.29V121.82H92.6109C93.8309 121.82 94.4709 122.26 94.4709 123.02V123.04C94.4709 123.82 93.8109 124.29 92.7509 124.29H90.4009ZM96.2377 125H97.0477L97.8777 123.15H101.688L102.508 125H103.358L100.168 117.95H99.4277L96.2377 125ZM98.1877 122.44L99.7877 118.87L101.378 122.44H98.1877ZM120.802 125.11C121.712 125.11 122.302 124.69 122.662 124.23V125H123.422V121.84C123.422 121.18 123.242 120.68 122.882 120.32C122.512 119.95 121.942 119.75 121.212 119.75C120.452 119.75 119.902 119.93 119.332 120.19L119.562 120.82C120.042 120.6 120.522 120.45 121.132 120.45C122.102 120.45 122.662 120.93 122.662 121.85V122.01C122.202 121.88 121.742 121.79 121.082 121.79C119.772 121.79 118.872 122.37 118.872 123.48V123.5C118.872 124.56 119.832 125.11 120.802 125.11ZM120.952 124.49C120.252 124.49 119.652 124.11 119.652 123.46V123.44C119.652 122.82 120.202 122.4 121.162 122.4C121.792 122.4 122.292 122.51 122.672 122.62V123.1C122.672 123.92 121.902 124.49 120.952 124.49ZM127.223 125.11C128.173 125.11 128.783 124.58 129.203 123.96V125H129.973V117.7H129.203V120.82C128.803 120.24 128.183 119.72 127.223 119.72C125.983 119.72 124.753 120.72 124.753 122.41V122.43C124.753 124.13 125.983 125.11 127.223 125.11ZM127.363 124.42C126.383 124.42 125.543 123.64 125.543 122.42V122.4C125.543 121.15 126.363 120.41 127.363 120.41C128.323 120.41 129.233 121.21 129.233 122.4V122.42C129.233 123.61 128.323 124.42 127.363 124.42ZM135.844 126.6H136.614V119.83H135.844V120.82C135.444 120.24 134.824 119.72 133.864 119.72C132.624 119.72 131.394 120.72 131.394 122.41V122.43C131.394 124.13 132.624 125.11 133.864 125.11C134.814 125.11 135.424 124.58 135.844 123.96V126.6ZM134.004 124.42C133.024 124.42 132.184 123.64 132.184 122.42V122.4C132.184 121.15 133.004 120.41 134.004 120.41C134.964 120.41 135.874 121.21 135.874 122.4V122.42C135.874 123.61 134.964 124.42 134.004 124.42ZM140.235 125.11C141.125 125.11 141.655 124.66 142.005 124.1V125H142.765V119.83H142.005V122.79C142.005 123.76 141.335 124.41 140.455 124.41C139.545 124.41 139.025 123.81 139.025 122.85V119.83H138.255V123.04C138.255 124.27 138.985 125.11 140.235 125.11ZM144.517 118.7H145.397V117.85H144.517V118.7ZM144.567 125H145.337V119.83H144.567V125ZM147.584 122.73H151.684C151.694 122.61 151.694 122.53 151.694 122.46C151.694 120.94 150.814 119.72 149.284 119.72C147.854 119.72 146.804 120.92 146.804 122.42C146.804 124.03 147.964 125.12 149.384 125.12C150.364 125.12 150.994 124.73 151.514 124.15L151.034 123.72C150.614 124.16 150.114 124.45 149.404 124.45C148.494 124.45 147.694 123.82 147.584 122.73ZM147.584 122.11C147.694 121.11 148.374 120.37 149.264 120.37C150.284 120.37 150.824 121.17 150.914 122.11H147.584ZM153.042 125H153.812V122.94C153.812 121.38 154.732 120.57 155.862 120.57H155.922V119.74C154.942 119.7 154.192 120.32 153.812 121.18V119.83H153.042V125ZM157.33 122.73H161.43C161.44 122.61 161.44 122.53 161.44 122.46C161.44 120.94 160.56 119.72 159.03 119.72C157.6 119.72 156.55 120.92 156.55 122.42C156.55 124.03 157.71 125.12 159.13 125.12C160.11 125.12 160.74 124.73 161.26 124.15L160.78 123.72C160.36 124.16 159.86 124.45 159.15 124.45C158.24 124.45 157.44 123.82 157.33 122.73ZM157.33 122.11C157.44 121.11 158.12 120.37 159.01 120.37C160.03 120.37 160.57 121.17 160.66 122.11H157.33ZM177.512 125H178.282V117.7H177.512V125ZM181.609 125.11C182.519 125.11 183.109 124.69 183.469 124.23V125H184.229V121.84C184.229 121.18 184.049 120.68 183.689 120.32C183.319 119.95 182.749 119.75 182.019 119.75C181.259 119.75 180.709 119.93 180.139 120.19L180.369 120.82C180.849 120.6 181.329 120.45 181.939 120.45C182.909 120.45 183.469 120.93 183.469 121.85V122.01C183.009 121.88 182.549 121.79 181.889 121.79C180.579 121.79 179.679 122.37 179.679 123.48V123.5C179.679 124.56 180.639 125.11 181.609 125.11ZM181.759 124.49C181.059 124.49 180.459 124.11 180.459 123.46V123.44C180.459 122.82 181.009 122.4 181.969 122.4C182.599 122.4 183.099 122.51 183.479 122.62V123.1C183.479 123.92 182.709 124.49 181.759 124.49ZM29.15 137H29.92V132.51H31.55V131.85H29.91V131.43C29.91 130.69 30.21 130.33 30.81 130.33C31.07 130.33 31.28 130.38 31.56 130.46V129.79C31.31 129.7 31.07 129.66 30.71 129.66C30.24 129.66 29.86 129.8 29.6 130.06C29.31 130.35 29.15 130.8 29.15 131.39V131.84H28.44V132.51H29.15V137ZM32.5319 137H33.3019V134.94C33.3019 133.38 34.2219 132.57 35.3519 132.57H35.4119V131.74C34.4319 131.7 33.6819 132.32 33.3019 133.18V131.83H32.5319V137ZM37.8707 137.11C38.7807 137.11 39.3707 136.69 39.7307 136.23V137H40.4907V133.84C40.4907 133.18 40.3107 132.68 39.9507 132.32C39.5807 131.95 39.0107 131.75 38.2807 131.75C37.5207 131.75 36.9707 131.93 36.4007 132.19L36.6307 132.82C37.1107 132.6 37.5907 132.45 38.2007 132.45C39.1707 132.45 39.7307 132.93 39.7307 133.85V134.01C39.2707 133.88 38.8107 133.79 38.1507 133.79C36.8407 133.79 35.9407 134.37 35.9407 135.48V135.5C35.9407 136.56 36.9007 137.11 37.8707 137.11ZM38.0207 136.49C37.3207 136.49 36.7207 136.11 36.7207 135.46V135.44C36.7207 134.82 37.2707 134.4 38.2307 134.4C38.8607 134.4 39.3607 134.51 39.7407 134.62V135.1C39.7407 135.92 38.9707 136.49 38.0207 136.49ZM42.1217 137H42.8917V134.04C42.8917 133.07 43.5517 132.42 44.4417 132.42C45.3517 132.42 45.8717 133.02 45.8717 133.98V137H46.6417V133.79C46.6417 132.56 45.9117 131.72 44.6617 131.72C43.7717 131.72 43.2317 132.17 42.8917 132.73V131.83H42.1217V137ZM52.4338 138.6H53.2038V131.83H52.4338V132.82C52.0338 132.24 51.4138 131.72 50.4538 131.72C49.2138 131.72 47.9838 132.72 47.9838 134.41V134.43C47.9838 136.13 49.2138 137.11 50.4538 137.11C51.4038 137.11 52.0138 136.58 52.4338 135.96V138.6ZM50.5938 136.42C49.6138 136.42 48.7738 135.64 48.7738 134.42V134.4C48.7738 133.15 49.5938 132.41 50.5938 132.41C51.5538 132.41 52.4638 133.21 52.4638 134.4V134.42C52.4638 135.61 51.5538 136.42 50.5938 136.42ZM56.8245 137.11C57.7145 137.11 58.2445 136.66 58.5945 136.1V137H59.3545V131.83H58.5945V134.79C58.5945 135.76 57.9245 136.41 57.0445 136.41C56.1345 136.41 55.6145 135.81 55.6145 134.85V131.83H54.8445V135.04C54.8445 136.27 55.5745 137.11 56.8245 137.11ZM61.1066 130.7H61.9866V129.85H61.1066V130.7ZM61.1566 137H61.9266V131.83H61.1566V137ZM66.0435 137.12C67.0135 137.12 67.6335 136.7 68.1535 136.12L67.6635 135.66C67.2535 136.1 66.7435 136.43 66.0835 136.43C65.0035 136.43 64.1835 135.54 64.1835 134.42V134.4C64.1835 133.29 64.9835 132.4 66.0335 132.4C66.7335 132.4 67.1935 132.75 67.6035 133.18L68.1135 132.64C67.6335 132.13 67.0235 131.72 66.0435 131.72C64.5335 131.72 63.3935 132.96 63.3935 134.42V134.44C63.3935 135.89 64.5335 137.12 66.0435 137.12ZM69.4464 130.7H70.3264V129.85H69.4464V130.7ZM69.4964 137H70.2664V131.83H69.4964V137ZM73.5934 137.11C74.5034 137.11 75.0934 136.69 75.4534 136.23V137H76.2134V133.84C76.2134 133.18 76.0334 132.68 75.6734 132.32C75.3034 131.95 74.7334 131.75 74.0034 131.75C73.2434 131.75 72.6934 131.93 72.1234 132.19L72.3534 132.82C72.8334 132.6 73.3134 132.45 73.9234 132.45C74.8934 132.45 75.4534 132.93 75.4534 133.85V134.01C74.9934 133.88 74.5334 133.79 73.8734 133.79C72.5634 133.79 71.6634 134.37 71.6634 135.48V135.5C71.6634 136.56 72.6234 137.11 73.5934 137.11ZM73.7434 136.49C73.0434 136.49 72.4434 136.11 72.4434 135.46V135.44C72.4434 134.82 72.9934 134.4 73.9534 134.4C74.5834 134.4 75.0834 134.51 75.4634 134.62V135.1C75.4634 135.92 74.6934 136.49 73.7434 136.49ZM85.7121 137.11C86.6621 137.11 87.2721 136.58 87.6921 135.96V137H88.4621V129.7H87.6921V132.82C87.2921 132.24 86.6721 131.72 85.7121 131.72C84.4721 131.72 83.2421 132.72 83.2421 134.41V134.43C83.2421 136.13 84.4721 137.11 85.7121 137.11ZM85.8521 136.42C84.8721 136.42 84.0321 135.64 84.0321 134.42V134.4C84.0321 133.15 84.8521 132.41 85.8521 132.41C86.8121 132.41 87.7221 133.21 87.7221 134.4V134.42C87.7221 135.61 86.8121 136.42 85.8521 136.42ZM90.6428 134.73H94.7428C94.7528 134.61 94.7528 134.53 94.7528 134.46C94.7528 132.94 93.8728 131.72 92.3428 131.72C90.9128 131.72 89.8628 132.92 89.8628 134.42C89.8628 136.03 91.0228 137.12 92.4428 137.12C93.4228 137.12 94.0528 136.73 94.5728 136.15L94.0928 135.72C93.6728 136.16 93.1728 136.45 92.4628 136.45C91.5528 136.45 90.7528 135.82 90.6428 134.73ZM90.6428 134.11C90.7528 133.11 91.4328 132.37 92.3228 132.37C93.3428 132.37 93.8828 133.17 93.9728 134.11H90.6428ZM101.928 137H106.658V136.27H102.718V130H101.928V137ZM110.252 137.12C111.812 137.12 112.962 135.88 112.962 134.42V134.4C112.962 132.94 111.822 131.72 110.272 131.72C108.712 131.72 107.572 132.96 107.572 134.42V134.44C107.572 135.9 108.702 137.12 110.252 137.12ZM110.272 136.43C109.182 136.43 108.362 135.53 108.362 134.42V134.4C108.362 133.31 109.132 132.4 110.252 132.4C111.342 132.4 112.172 133.31 112.172 134.42V134.44C112.172 135.53 111.392 136.43 110.272 136.43ZM116.067 137.1C117.097 137.1 117.907 136.53 117.907 135.55V135.53C117.907 134.6 117.047 134.29 116.247 134.05C115.557 133.84 114.917 133.65 114.917 133.16V133.14C114.917 132.71 115.307 132.39 115.917 132.39C116.417 132.39 116.967 132.58 117.447 132.89L117.797 132.31C117.267 131.96 116.567 131.74 115.937 131.74C114.917 131.74 114.177 132.33 114.177 133.22V133.24C114.177 134.19 115.077 134.47 115.887 134.7C116.567 134.89 117.177 135.09 117.177 135.61V135.63C117.177 136.13 116.727 136.45 116.107 136.45C115.497 136.45 114.877 136.21 114.317 135.79L113.927 136.34C114.507 136.81 115.327 137.1 116.067 137.1ZM125.165 137H128.275C129.805 137 130.815 136.29 130.815 135.09V135.07C130.815 134.11 130.145 133.63 129.315 133.38C129.865 133.14 130.425 132.67 130.425 131.76V131.74C130.425 131.29 130.265 130.92 129.975 130.62C129.575 130.23 128.945 130 128.145 130H125.165V137ZM125.945 133.12V130.71H128.075C129.075 130.71 129.625 131.16 129.625 131.85V131.87C129.625 132.69 128.965 133.12 128.015 133.12H125.945ZM125.945 136.29V133.82H128.155C129.375 133.82 130.015 134.26 130.015 135.02V135.04C130.015 135.82 129.355 136.29 128.295 136.29H125.945ZM132.272 130.7H133.152V129.85H132.272V130.7ZM132.322 137H133.092V131.83H132.322V137ZM136.589 137.1C137.619 137.1 138.429 136.53 138.429 135.55V135.53C138.429 134.6 137.569 134.29 136.769 134.05C136.079 133.84 135.439 133.65 135.439 133.16V133.14C135.439 132.71 135.829 132.39 136.439 132.39C136.939 132.39 137.489 132.58 137.969 132.89L138.319 132.31C137.789 131.96 137.089 131.74 136.459 131.74C135.439 131.74 134.699 132.33 134.699 133.22V133.24C134.699 134.19 135.599 134.47 136.409 134.7C137.089 134.89 137.699 135.09 137.699 135.61V135.63C137.699 136.13 137.249 136.45 136.629 136.45C136.019 136.45 135.399 136.21 134.839 135.79L134.449 136.34C135.029 136.81 135.849 137.1 136.589 137.1ZM144.01 138.6H144.78V131.83H144.01V132.82C143.61 132.24 142.99 131.72 142.03 131.72C140.79 131.72 139.56 132.72 139.56 134.41V134.43C139.56 136.13 140.79 137.11 142.03 137.11C142.98 137.11 143.59 136.58 144.01 135.96V138.6ZM142.17 136.42C141.19 136.42 140.35 135.64 140.35 134.42V134.4C140.35 133.15 141.17 132.41 142.17 132.41C143.13 132.41 144.04 133.21 144.04 134.4V134.42C144.04 135.61 143.13 136.42 142.17 136.42ZM148.4 137.11C149.29 137.11 149.82 136.66 150.17 136.1V137H150.93V131.83H150.17V134.79C150.17 135.76 149.5 136.41 148.62 136.41C147.71 136.41 147.19 135.81 147.19 134.85V131.83H146.42V135.04C146.42 136.27 147.15 137.11 148.4 137.11ZM153.122 134.73H157.222C157.232 134.61 157.232 134.53 157.232 134.46C157.232 132.94 156.352 131.72 154.822 131.72C153.392 131.72 152.342 132.92 152.342 134.42C152.342 136.03 153.502 137.12 154.922 137.12C155.902 137.12 156.532 136.73 157.052 136.15L156.572 135.72C156.152 136.16 155.652 136.45 154.942 136.45C154.032 136.45 153.232 135.82 153.122 134.73ZM153.122 134.11C153.232 133.11 153.912 132.37 154.802 132.37C155.822 132.37 156.362 133.17 156.452 134.11H153.122ZM160.31 137.09C160.68 137.09 160.97 137.01 161.24 136.87V136.21C160.97 136.34 160.75 136.39 160.49 136.39C159.97 136.39 159.62 136.16 159.62 135.53V132.51H161.26V131.83H159.62V130.27H158.85V131.83H158.13V132.51H158.85V135.63C158.85 136.68 159.48 137.09 160.31 137.09ZM164.333 137.1C165.363 137.1 166.173 136.53 166.173 135.55V135.53C166.173 134.6 165.313 134.29 164.513 134.05C163.823 133.84 163.183 133.65 163.183 133.16V133.14C163.183 132.71 163.573 132.39 164.183 132.39C164.683 132.39 165.233 132.58 165.713 132.89L166.063 132.31C165.533 131.96 164.833 131.74 164.203 131.74C163.183 131.74 162.443 132.33 162.443 133.22V133.24C162.443 134.19 163.343 134.47 164.153 134.7C164.833 134.89 165.443 135.09 165.443 135.61V135.63C165.443 136.13 164.993 136.45 164.373 136.45C163.763 136.45 163.143 136.21 162.583 135.79L162.193 136.34C162.773 136.81 163.593 137.1 164.333 137.1ZM175.471 137.11C176.421 137.11 177.031 136.58 177.451 135.96V137H178.221V129.7H177.451V132.82C177.051 132.24 176.431 131.72 175.471 131.72C174.231 131.72 173.001 132.72 173.001 134.41V134.43C173.001 136.13 174.231 137.11 175.471 137.11ZM175.611 136.42C174.631 136.42 173.791 135.64 173.791 134.42V134.4C173.791 133.15 174.611 132.41 175.611 132.41C176.571 132.41 177.481 133.21 177.481 134.4V134.42C177.481 135.61 176.571 136.42 175.611 136.42ZM180.402 134.73H184.502C184.512 134.61 184.512 134.53 184.512 134.46C184.512 132.94 183.632 131.72 182.102 131.72C180.672 131.72 179.622 132.92 179.622 134.42C179.622 136.03 180.782 137.12 182.202 137.12C183.182 137.12 183.812 136.73 184.332 136.15L183.852 135.72C183.432 136.16 182.932 136.45 182.222 136.45C181.312 136.45 180.512 135.82 180.402 134.73ZM180.402 134.11C180.512 133.11 181.192 132.37 182.082 132.37C183.102 132.37 183.642 133.17 183.732 134.11H180.402ZM32.24 149.12C34.37 149.12 35.82 147.43 35.82 145.5V145.48C35.82 143.55 34.39 141.88 32.26 141.88C30.13 141.88 28.68 143.57 28.68 145.5V145.52C28.68 147.45 30.11 149.12 32.24 149.12ZM32.26 148.39C30.66 148.39 29.5 147.09 29.5 145.5V145.48C29.5 143.89 30.64 142.61 32.24 142.61C33.84 142.61 35 143.91 35 145.5V145.52C35 147.11 33.86 148.39 32.26 148.39ZM40.1061 149.11C41.3561 149.11 42.5761 148.11 42.5761 146.42V146.4C42.5761 144.7 41.3461 143.72 40.1061 143.72C39.1561 143.72 38.5461 144.25 38.1261 144.87V141.7H37.3561V149H38.1261V148.01C38.5261 148.59 39.1461 149.11 40.1061 149.11ZM39.9661 148.42C39.0061 148.42 38.0961 147.62 38.0961 146.42V146.4C38.0961 145.22 39.0061 144.41 39.9661 144.41C40.9461 144.41 41.7861 145.19 41.7861 146.41V146.43C41.7861 147.68 40.9661 148.42 39.9661 148.42ZM43.9967 149H44.7667V146.94C44.7667 145.38 45.6867 144.57 46.8167 144.57H46.8767V143.74C45.8967 143.7 45.1467 144.32 44.7667 145.18V143.83H43.9967V149ZM48.2848 146.73H52.3848C52.3948 146.61 52.3948 146.53 52.3948 146.46C52.3948 144.94 51.5148 143.72 49.9848 143.72C48.5548 143.72 47.5048 144.92 47.5048 146.42C47.5048 148.03 48.6648 149.12 50.0848 149.12C51.0648 149.12 51.6948 148.73 52.2148 148.15L51.7348 147.72C51.3148 148.16 50.8148 148.45 50.1048 148.45C49.1948 148.45 48.3948 147.82 48.2848 146.73ZM48.2848 146.11C48.3948 145.11 49.0748 144.37 49.9648 144.37C50.9848 144.37 51.5248 145.17 51.6148 146.11H48.2848ZM56.0328 150.62C56.8528 150.62 57.5428 150.39 58.0028 149.93C58.4228 149.51 58.6628 148.9 58.6628 148.1V143.83H57.8928V144.76C57.4728 144.2 56.8428 143.72 55.8728 143.72C54.6428 143.72 53.4428 144.65 53.4428 146.16V146.18C53.4428 147.67 54.6328 148.6 55.8728 148.6C56.8228 148.6 57.4528 148.11 57.9028 147.51V148.12C57.9028 149.33 57.1628 149.96 56.0228 149.96C55.2828 149.96 54.6228 149.73 54.0328 149.3L53.6828 149.9C54.3728 150.38 55.1728 150.62 56.0328 150.62ZM56.0228 147.92C55.0628 147.92 54.2328 147.2 54.2328 146.16V146.14C54.2328 145.08 55.0428 144.4 56.0228 144.4C57.0028 144.4 57.9228 145.09 57.9228 146.15V146.17C57.9228 147.21 57.0028 147.92 56.0228 147.92ZM62.4434 143.05H63.0434L64.1834 141.97L63.3834 141.6L62.4434 143.05ZM62.7434 149.12C64.3034 149.12 65.4534 147.88 65.4534 146.42V146.4C65.4534 144.94 64.3134 143.72 62.7634 143.72C61.2034 143.72 60.0634 144.96 60.0634 146.42V146.44C60.0634 147.9 61.1934 149.12 62.7434 149.12ZM62.7634 148.43C61.6734 148.43 60.8534 147.53 60.8534 146.42V146.4C60.8534 145.31 61.6234 144.4 62.7434 144.4C63.8334 144.4 64.6634 145.31 64.6634 146.42V146.44C64.6634 147.53 63.8834 148.43 62.7634 148.43ZM66.8483 149H67.6183V146.04C67.6183 145.07 68.2783 144.42 69.1683 144.42C70.0783 144.42 70.5983 145.02 70.5983 145.98V149H71.3683V145.79C71.3683 144.56 70.6383 143.72 69.3883 143.72C68.4983 143.72 67.9583 144.17 67.6183 144.73V143.83H66.8483V149Z" fill="black"/>
<path fill-rule="evenodd" clip-rule="evenodd" d="M45.7878 45.4019C45.7878 44.6865 45.9309 44.3928 46.0965 44.5509C46.1944 44.6413 46.2773 44.9877 46.2697 45.3718C46.2547 46.1098 46.0288 46.3207 45.9158 46.1249C45.8028 45.914 45.7878 45.6655 45.7878 45.4019ZM49.4929 42.8942C49.2594 42.6909 49.2443 42.2917 49.6058 41.8173C50.1631 41.0868 50.8258 40.9513 51.0141 41.2224C51.1195 41.3805 50.999 41.6215 50.7731 41.7119C50.5547 41.8023 50.3363 41.9303 50.1782 42.1713C50.1179 42.2692 50.1556 42.3445 50.2459 42.3671C51.3906 42.6231 52.0382 43.1126 52.0533 43.8506C52.0759 44.6263 51.6316 45.1534 50.886 45.5073C50.4643 45.7107 50.0803 45.7784 49.7037 45.6052C49.395 45.4622 49.2971 45.2588 49.3799 45.0028C49.4703 44.7392 49.6585 44.5811 49.9673 44.6112C50.1932 44.6338 50.3438 44.7693 50.3815 44.8898C50.7354 45.063 51.1345 44.7166 51.2852 44.3024C51.3981 43.9937 51.3002 43.5192 50.8785 43.4063C50.2083 43.2256 49.7338 43.1051 49.4929 42.8942ZM48.0997 44.2422C48.1449 42.5252 47.9943 41.6366 47.8436 41.5688C47.7382 41.6516 47.6253 41.7119 47.5123 41.7345C47.4972 42.6457 47.5951 43.4741 47.8738 44.2347C47.9491 44.438 48.0997 44.438 48.0997 44.2422ZM47.3918 40.7555C47.4822 40.6802 47.5876 40.6275 47.7081 40.5898C47.7081 40.2509 47.6328 40.0627 47.4671 40.1154C47.2939 40.1681 47.2713 40.4016 47.3918 40.7555ZM42.9111 46.3207C42.8885 45.8236 42.8809 45.6052 43.1822 45.6052C43.393 45.6052 43.506 45.7483 43.4985 46.0571C43.4759 46.9382 43.5286 47.5632 43.7771 47.8569C43.9277 48.0301 44.116 47.9774 44.2289 47.7741C44.3946 47.4879 44.4097 46.8403 44.2666 45.8462C44.1988 45.3643 44.1009 45.0103 44.0181 44.7844C43.9729 44.6639 43.9503 44.4982 43.9277 44.2798C44.4398 44.2271 44.6506 44.3777 44.741 44.7091C44.8841 45.2588 45.0272 45.9667 45.0121 46.8779C45.2004 47.1716 45.3661 47.2093 45.5016 46.9683C45.1853 45.9818 45.11 45.1007 45.3661 44.3476C45.6146 43.587 45.961 43.2783 46.33 43.4891C46.8722 43.7979 47.2563 44.9802 46.9701 46.1249C46.9098 46.3583 46.7592 46.5616 46.5785 46.6821C46.5484 46.8026 46.6086 46.8327 46.7366 46.8704C47.0454 46.9457 47.2788 46.8779 47.4822 46.5692C47.7683 46.2755 47.8964 45.9742 47.8964 45.6655C47.6403 45.3492 47.3918 44.807 47.1132 44.0163C46.8948 43.3988 46.7668 42.7586 46.7668 42.0809C46.2622 42.4348 45.5995 42.8791 44.7335 43.2557C44.4021 43.3988 44.1913 43.3009 44.1536 43.0825C44.1235 42.8791 44.2139 42.7511 44.372 42.6532C45.2983 42.0734 46.1191 41.5462 46.8571 41.1245C46.7668 40.025 46.9023 39.3171 47.309 39.0385C47.6027 38.8352 47.9415 39.2117 48.3105 40.1455C48.5063 40.1154 48.8452 39.9949 49.2519 39.6485C49.7489 39.2268 50.0953 38.8126 50.3965 38.5114C50.8032 38.1047 51.112 37.9014 51.2626 38.0143C51.4584 38.1649 51.2324 38.6996 50.5472 39.4376C49.8845 40.1606 49.1916 40.6877 48.5816 41.1396C48.7925 42.4574 48.8226 43.7979 48.672 45.1685C48.6494 45.5525 48.8151 45.8312 49.169 45.9517C49.2519 45.9818 49.3573 45.9366 49.4778 45.9065C49.8016 45.8161 50.02 45.8613 50.0652 46.0345C50.1405 46.3282 50.0125 46.5014 49.7564 46.5315C49.0184 46.5993 48.5591 46.4939 48.3783 46.2529C47.9114 47.6385 47.0529 48.0527 45.8179 47.4804C45.5694 47.6686 45.2832 47.7063 44.9519 47.5707C44.9293 48.113 44.7184 48.4443 44.3419 48.5874C43.89 48.7606 43.5738 48.5874 43.2876 48.0602C43.0541 47.6159 42.9337 47.0662 42.9111 46.3207ZM41.4426 46.8629C41.8794 46.8478 41.9622 47.4201 41.917 48.1054C41.8718 48.7907 41.5781 49.348 41.2694 49.348C40.9606 49.348 40.7498 48.6853 40.7949 48.1054C40.8477 47.5256 41.0058 46.8779 41.4426 46.8629ZM42.9788 49.7471C43.1897 51.69 43.2876 52.8874 43.2876 53.3242C43.2876 53.5576 43.1822 53.6856 42.9412 53.6932C42.6927 53.7007 42.527 53.5652 42.5195 53.2715C42.4969 52.4431 42.4366 51.306 42.2258 49.8601C42.2032 49.732 42.1279 49.7095 42.0601 49.7923C41.8794 50.0257 41.5932 50.2215 41.1715 50.1839C40.5238 50.1236 40.1548 49.6793 40.0871 48.994C39.9741 47.887 40.1322 47.1716 40.3732 46.7574C40.7347 46.1249 41.2618 45.9517 42.0977 46.3282C42.3086 46.2453 42.4893 46.2077 42.6249 46.2981C42.7077 46.3583 42.6927 46.4487 42.7002 46.5541C42.768 47.8268 42.8885 48.8811 42.9788 49.7471ZM37.5869 49.6718C37.3233 49.5137 37.2254 49.1371 37.4815 48.5949C37.8806 47.7665 38.4906 47.503 38.7315 47.7289C38.8671 47.8569 38.7993 48.1205 38.596 48.256C38.4002 48.3841 38.2119 48.5573 38.114 48.8208C38.0764 48.9263 38.1291 48.994 38.2195 48.994C39.3792 49.0091 40.1021 49.363 40.2753 50.0785C40.4485 50.8315 40.1247 51.4415 39.4695 51.931C39.1005 52.2172 38.7391 52.3602 38.3475 52.2699C38.0161 52.187 37.8806 52.0138 37.9107 51.7503C37.9408 51.4716 38.099 51.2834 38.4002 51.2532C38.6261 51.2306 38.7993 51.3285 38.852 51.4415C39.2286 51.5394 39.5449 51.1177 39.6126 50.6884C39.6653 50.3646 39.4695 49.9203 39.0403 49.8977C38.3475 49.8525 37.8655 49.8299 37.5869 49.6718ZM36.6907 51.7051C36.7585 51.9385 36.8639 52.2322 36.9016 52.6313C36.9392 52.9853 37.0296 53.151 37.2555 53.1434C37.4815 53.1359 37.4814 52.925 37.4137 52.4657C37.2028 50.8616 37.0221 49.6492 36.7886 48.8359C36.7058 48.5573 36.5476 48.4292 36.3594 48.4594C36.0958 48.5045 36.0205 48.7455 36.0958 49.1447C36.254 50.0257 36.4422 50.8918 36.6907 51.7051ZM30.6737 52.2925C30.6285 52.0816 30.6511 51.9912 30.8921 51.931C31.7732 51.7277 32.5263 51.2382 33.0308 50.4625C33.2116 50.1839 33.4525 50.0333 33.8291 50.086C35.0039 50.2517 35.5235 50.8993 35.3503 51.9461C35.0641 53.6254 34.1905 54.6872 32.835 55.1165C31.9991 55.38 31.6377 55.2972 31.4946 54.9659C31.2235 54.3634 30.9448 53.52 30.6737 52.2925ZM31.1933 51.1327C31.0954 51.0198 31.1632 50.8918 31.2536 50.824C31.7205 50.4625 32.1573 50.2215 32.5865 50.101C32.1497 50.6131 31.8033 50.9294 31.5473 51.0725C31.4268 51.1553 31.2762 51.2306 31.1933 51.1327ZM30.3047 50.8767C30.2294 50.6734 30.0939 50.3345 29.8679 49.8751C29.8152 49.7697 29.8002 49.6492 29.8905 49.5588C30.6963 48.7756 31.6301 48.3841 32.6317 48.1657C33.0911 48.0678 33.2266 48.1581 33.1513 48.9263C33.1137 49.2953 32.707 49.4308 32.6091 49.4685C31.5925 49.8902 31.1482 50.0107 30.3047 50.8767ZM28.9567 49.1296C29.0019 49.2501 29.0095 49.3932 29.0019 49.5513C28.8061 49.7772 28.7308 49.973 28.7685 50.1387C28.8212 50.3646 28.9944 50.4399 29.2956 50.3646C29.8378 51.7201 30.365 53.279 30.8695 55.0638C30.9072 55.1918 30.8243 55.252 30.6361 55.2445C30.237 55.252 30.0412 55.0186 30.1089 54.5517C30.124 54.4387 30.0939 54.386 29.9658 54.4161C29.7399 54.4688 29.5743 54.6646 29.5366 54.9583C29.4538 55.5909 30.0336 55.975 31.1933 56.0955C31.2912 56.3138 31.3515 56.5172 31.5398 56.6452C31.6979 56.7506 31.8711 56.6828 31.8862 56.5247C31.8937 56.3138 31.9238 56.1934 32.0518 56.1406C32.8953 55.9373 33.6333 55.6135 34.2583 55.1541C36.0054 53.8664 36.5025 52.3075 36.1109 50.9144C35.8398 49.973 35.034 49.4459 33.8743 49.3254C33.7688 49.3103 33.7688 49.2124 33.8291 48.9714C34.1152 47.8343 33.8215 47.262 33.0158 47.2319C32.1271 47.2017 31.0352 47.6988 29.7098 48.7154C29.5893 48.8058 29.4989 48.7757 29.4613 48.6627C29.2504 48.0075 28.9266 47.134 28.6028 46.0119C28.5275 45.7483 28.4221 45.5902 28.2187 45.6655C28.0079 45.7408 27.9778 45.9592 28.0455 46.2453C28.294 47.2469 28.5877 48.1958 28.9567 49.1296Z" fill="#FFCB00"/>
<path fill-rule="evenodd" clip-rule="evenodd" d="M36.8639 27.5165C36.6982 27.6821 36.5326 27.7424 36.3518 27.6897C36.2313 27.8102 36.1259 27.8327 36.0431 27.7574C35.9527 27.652 35.8397 27.6144 35.6966 27.637C35.5611 27.5692 35.531 27.4562 35.6138 27.3056C35.6439 27.2529 35.7494 27.2303 35.9376 27.2303C36.0506 27.1249 36.1861 27.0646 36.3443 27.0646C36.4121 26.9968 36.4723 26.8989 36.525 26.7709C36.7208 26.7785 36.8488 26.7559 36.9166 26.6881C36.9769 26.6429 36.9618 26.6203 36.8488 26.6128C36.766 26.6128 36.6832 26.6278 36.5928 26.6354C36.5702 26.5977 36.5175 26.5601 36.4422 26.5074C36.4121 26.3417 36.4271 26.2438 36.51 26.2061C36.5928 26.1233 36.7208 26.0932 36.894 26.0932C37.0672 25.9275 37.1877 25.8221 37.2706 25.7844C37.3609 25.7919 37.4362 25.7919 37.4965 25.7919C37.9935 25.4455 38.3399 25.2347 38.5432 25.1895C38.6035 25.0841 38.7014 25.0313 38.8219 25.0539C38.965 24.9937 39.0629 24.9636 39.1382 24.9937C39.3038 24.941 39.4243 24.8883 39.5147 24.8355C39.59 24.813 39.6427 24.828 39.6804 24.8732C40.0343 24.8883 40.2452 24.9033 40.3054 24.9033C40.3883 24.9109 40.441 24.9711 40.4711 25.0765C40.4937 25.2121 40.456 25.3476 40.3732 25.4681C40.3506 25.5961 40.3958 25.7468 40.5012 25.935C40.6518 26.0329 40.7798 26.1007 40.8928 26.1308C40.9003 26.2287 40.8476 26.3266 40.7497 26.432C40.7045 26.417 40.6066 26.417 40.4711 26.432C40.3807 26.5074 40.2753 26.6128 40.1925 26.7408C39.846 26.6956 39.5975 26.7408 39.462 26.8688C39.1005 26.8161 38.8896 26.8387 38.852 26.9517C38.6487 27.0571 38.4303 27.0797 38.1968 27.0345C38.0688 27.0797 37.9408 27.1399 37.8203 27.2077C37.7902 27.2529 37.6923 27.283 37.5417 27.283C37.3534 27.4863 37.1275 27.5616 36.8639 27.5165ZM38.5206 33.3904C38.4679 33.285 38.4905 33.1871 38.596 33.1042C38.7089 33.0967 38.8369 33.0364 38.965 32.931C39.1156 32.8105 39.2511 32.7503 39.3791 32.7352C39.59 32.4867 39.8159 32.3135 40.072 32.2081C40.1548 32.1704 40.2075 32.1177 40.2301 32.065C40.3129 31.9746 40.3883 31.9445 40.456 31.9746C40.6368 31.8617 40.7949 31.7638 40.9079 31.6508C41.0133 31.5303 41.1338 31.5002 41.2844 31.5604C41.3748 31.6131 41.4275 31.6583 41.4576 31.7035C41.6233 31.6659 41.7287 31.6659 41.7814 31.696C41.8266 31.7713 41.8944 31.8466 41.9848 31.8993C42.0525 32.0273 42.045 32.1328 41.9772 32.193C41.8944 32.2909 41.7664 32.4716 41.5856 32.7352C41.5179 32.7277 41.3898 32.7277 41.2016 32.7427C41.2166 32.9611 41.1564 33.0816 41.0133 33.1042C40.9832 33.2398 40.9229 33.3226 40.8401 33.3527C40.6669 33.413 40.5238 33.5109 40.4184 33.6238C40.3581 33.6389 40.2828 33.6464 40.2075 33.6464C40.1096 33.7217 40.0343 33.8121 39.9816 33.9175C39.7557 34.1284 39.5749 34.2865 39.4394 34.3694C39.221 34.407 39.0779 34.3769 39.0327 34.279C38.9499 34.2263 38.9047 34.0757 38.8896 33.8196C38.7014 33.6088 38.5734 33.4732 38.5206 33.3904ZM54.5233 37.2837C54.3953 37.2611 54.3501 37.3289 54.3953 37.4946C54.4179 37.5548 54.4103 37.6527 54.3802 37.7808C54.4781 37.9088 54.5384 38.097 54.576 38.3606C54.6061 38.5564 54.6061 38.7296 54.5986 38.8727C54.6589 39.0308 54.7266 39.1815 54.7944 39.3321C54.8095 39.4752 54.817 39.6634 54.8095 39.8818C54.7718 40.0023 54.8923 40.0475 55.1935 40.0324C55.2764 40.1077 55.299 40.1981 55.2914 40.2809C55.4345 40.424 55.5399 40.5294 55.5927 40.5822C55.8487 40.5746 55.9466 40.4767 55.8939 40.296C55.796 40.183 55.7809 40.0098 55.8638 39.7688C55.924 39.5429 55.924 39.3998 55.8713 39.3245C55.7282 39.0308 55.6529 38.7146 55.6454 38.3531C55.6077 38.0669 55.5927 37.7958 55.6002 37.5172C55.5776 37.3515 55.5023 37.2461 55.3893 37.1934C55.3065 36.9825 55.2011 36.9147 55.073 36.9976C54.8471 37.103 54.6664 37.1934 54.5233 37.2837ZM61.075 33.5033C60.9244 33.3753 60.9093 33.2925 61.0298 33.2548C61.1879 33.1795 61.331 33.1117 61.4515 33.044C61.4666 33.0741 61.5494 33.1268 61.685 33.1871C61.7753 33.2247 61.8431 33.2774 61.8883 33.3753C62.0013 33.5033 62.1217 33.6163 62.2724 33.7142C62.3928 33.6991 62.438 33.7368 62.4154 33.8046C62.5284 33.8422 62.6112 33.8573 62.6564 33.8422C62.6564 33.9778 62.7167 34.1585 62.8447 34.3618C63.0104 34.392 63.1007 34.4371 63.1158 34.4974C63.2739 34.648 63.3869 34.7986 63.4547 34.9342C63.7634 35.3258 63.9743 35.5667 64.1023 35.642C64.2228 35.6496 64.283 35.7249 64.2755 35.8529C64.2529 35.9433 64.1851 35.9734 64.0647 35.9433C64.0345 36.0261 63.9969 36.124 63.9517 36.237C63.8011 36.0562 63.7032 35.9433 63.658 35.8981C63.658 35.883 63.4396 35.8906 63.0254 35.9132C62.8447 35.627 62.6564 35.3785 62.438 35.1751C62.2196 35.0697 62.0992 34.9793 62.0841 34.8965C62.0013 34.7384 61.9485 34.6179 61.9335 34.5501C61.6699 34.5275 61.5268 34.4899 61.5268 34.4371C61.3762 34.2865 61.2783 34.1585 61.2256 34.0606C61.0675 34.023 60.9846 33.9702 60.9846 33.8874C60.962 33.782 60.9846 33.7067 61.0223 33.6464C61.0675 33.6088 61.09 33.5636 61.075 33.5033ZM62.1895 26.8312C62.0766 26.7408 62.0615 26.658 62.1443 26.5676C62.2347 26.5224 62.3627 26.4697 62.5209 26.432C62.6112 26.3643 62.7167 26.2588 62.8221 26.1082C63.0104 25.92 63.2137 25.8748 63.417 25.9651C63.4999 25.9953 63.5752 25.9802 63.6505 25.9275C63.771 25.7693 63.8689 25.7242 63.9517 25.7919C64.0345 25.7919 64.0872 25.7392 64.0948 25.6112C64.3282 25.5585 64.524 25.4681 64.6822 25.3476C64.8328 25.2196 65.0286 25.1518 65.2771 25.1669C65.3449 25.1594 65.3976 25.1142 65.4277 25.0313C65.5482 25.0163 65.6386 25.0088 65.6913 25.0313C65.7515 25.0991 65.7666 25.182 65.744 25.2874C65.872 25.31 65.9549 25.3853 66 25.4982C65.9398 25.5284 65.8871 25.6112 65.8419 25.7317C65.7892 25.8371 65.7139 25.8748 65.6084 25.8447C65.5181 25.807 65.4202 25.8145 65.3298 25.8748C65.3373 25.9802 65.3449 26.063 65.3675 26.1007C65.3675 26.2137 65.2922 26.2664 65.1265 26.2588C64.878 26.2061 64.7499 26.2513 64.765 26.3869C64.765 26.5676 64.6445 26.6806 64.4186 26.7032C64.155 26.6956 63.9291 26.7257 63.7484 26.7935C63.6881 27.042 63.4999 27.1475 63.176 27.1023C63.0555 27.1701 62.9351 27.2679 62.8221 27.396C62.7317 27.396 62.6564 27.4412 62.6037 27.5089C62.2874 27.524 62.1368 27.3809 62.1594 27.0797C62.182 27.0119 62.1895 26.9291 62.1895 26.8312ZM47.1658 33.9778C47.1207 33.9702 47.0679 33.9702 47.0152 33.9627C46.9173 33.9702 46.8194 33.91 46.7215 33.782C46.6236 33.6615 46.5031 33.5335 46.3601 33.3904C46.232 33.3904 46.1266 33.3452 46.0287 33.2624C45.863 33.1494 45.72 33.0289 45.607 32.9235C46.104 32.6524 46.5107 32.3737 46.8496 32.1328C46.8496 32.7804 46.9701 33.3904 47.1658 33.9778ZM48.1825 34.3769C48.1072 34.3769 48.0469 34.3618 47.9792 34.3317C47.9792 34.3242 47.9716 34.3167 47.9716 34.3091C47.693 33.5485 47.5951 32.7202 47.6102 31.8089C47.7231 31.7788 47.8361 31.7261 47.9415 31.6433C48.0921 31.7035 48.2352 32.5997 48.1975 34.3167C48.19 34.3317 48.19 34.3543 48.1825 34.3769ZM46.5182 20.9045C46.6839 20.8744 46.8194 20.8217 46.9249 20.7539C47.8587 20.287 48.5816 19.9331 49.0485 19.662C49.1389 19.6168 49.2142 19.6168 49.282 19.6469C49.4476 19.6319 49.5983 19.5791 49.7338 19.4963C49.8618 19.4662 49.9898 19.4662 50.1103 19.4963C50.2609 19.3833 50.3739 19.3457 50.4342 19.3833C50.8408 19.3457 51.1872 19.3382 51.496 19.3532C51.5713 19.4812 51.6767 19.4888 51.8198 19.3683C52.0231 19.3683 52.1587 19.3833 52.2114 19.4059C52.6482 19.4361 52.9645 19.4737 53.1753 19.5189C53.2506 19.6093 53.3259 19.677 53.4012 19.7072C53.6196 19.8126 53.8079 19.9858 53.966 20.2418C53.951 20.3774 54.0489 20.5431 54.2296 20.7389C54.335 21.0024 54.5685 21.6124 54.9149 22.5688C54.9074 23.0508 54.9751 23.465 55.1182 23.8264C55.1483 24.3385 55.1182 24.6397 55.0279 24.7452C55.0806 25.0313 54.9827 25.4003 54.7492 25.8823C54.5836 26.2664 54.5233 26.5375 54.561 26.6956C54.32 27.1249 53.9962 27.652 53.597 28.2771C53.4389 28.3524 53.3485 28.4729 53.3335 28.631C53.3485 28.8117 53.4464 28.8795 53.6422 28.8343C53.8983 28.8419 54.1016 28.7816 54.2371 28.6611C54.3426 28.5858 54.4932 28.5256 54.689 28.4804C55.0279 28.3373 55.2688 28.2093 55.3893 28.0737C55.5174 27.9909 55.5927 27.9081 55.6077 27.8327C55.8638 27.6897 56.0144 27.6219 56.0746 27.637C56.7524 27.1324 57.2795 26.7182 57.6787 26.3944C58.2886 25.6489 58.7631 24.9937 59.1245 24.444C59.2526 24.4063 59.3203 24.3159 59.3429 24.1728C59.3806 24.1954 59.4258 24.203 59.471 24.203C59.471 24.3009 59.471 24.4515 59.4634 24.6473C59.4785 24.7301 59.5613 24.8657 59.7195 25.0389C59.7496 25.1142 59.7496 25.1895 59.7421 25.2648C59.7797 25.3778 59.8249 25.4531 59.8927 25.4907C59.9379 25.5886 59.9379 25.7317 59.9002 25.9049C59.9906 26.0706 60.0583 26.2061 60.1035 26.3116C60.1562 26.9291 60.1261 27.3131 60.0132 27.4713C60.0207 27.5165 60.0583 27.5541 60.1186 27.5842C60.1111 27.7123 60.0885 27.8026 60.0508 27.8478C59.9755 28.1264 59.9454 28.3072 59.968 28.3975C59.9379 28.6611 59.8701 28.8946 59.7345 29.0828C59.6366 29.1883 59.5764 29.3615 59.5463 29.5949C59.4634 29.7455 59.3731 29.9112 59.2601 30.0618C59.117 30.3254 58.989 30.5513 58.8911 30.7321C58.7781 30.8375 58.6878 30.9053 58.6275 30.9354C58.5522 30.9806 58.4995 31.086 58.4618 31.2517C58.3188 31.4701 58.1681 31.6583 58.0025 31.7863C57.8142 31.9219 57.6561 32.1026 57.5431 32.321C57.2343 32.6072 56.9708 32.818 56.7599 32.9536C56.6093 32.9385 56.4888 32.9611 56.421 33.0289C56.1801 33.0741 55.9541 33.2398 55.7508 33.5109C55.4948 33.5033 55.3366 33.5636 55.299 33.669C55.1634 33.6464 55.0806 33.6841 55.0655 33.797C54.9601 33.8046 54.8772 33.797 54.8095 33.782C54.6061 34.0305 54.2899 34.151 53.8681 34.1359C53.6949 34.1585 53.4916 34.2564 53.2582 34.4447C53.0699 34.4221 52.9042 34.4823 52.7687 34.6103C52.5352 34.5953 52.2867 34.5802 52.0081 34.5802C52.0984 34.3769 52.1436 34.1434 52.1361 33.8799C52.1135 33.1419 51.4734 32.6524 50.3287 32.3963C50.2384 32.3737 50.1932 32.2984 50.2609 32.2005C50.4116 31.9596 50.6375 31.8315 50.8559 31.7412C51.0818 31.6508 51.2023 31.4098 51.0969 31.2517C50.9086 30.9806 50.2459 31.1161 49.6886 31.8466C49.3271 32.321 49.3422 32.7202 49.5757 32.9235C49.8166 33.1419 50.2911 33.2548 50.9764 33.4431C51.3981 33.5561 51.496 34.0305 51.383 34.3392C51.3529 34.4221 51.3077 34.5049 51.2625 34.5802C51.127 34.5802 50.9839 34.5878 50.8408 34.5953C50.7203 34.5727 50.63 34.5426 50.5697 34.4748C50.1856 34.3995 49.9673 34.4221 49.8995 34.52C49.6585 34.5275 49.5154 34.4899 49.4778 34.4146C49.3949 34.3694 49.297 34.3468 49.1916 34.3694C49.0711 34.4221 48.9732 34.4221 48.8904 34.3769C48.8678 34.3618 48.8377 34.3468 48.8151 34.3392C48.8753 33.2624 48.8226 32.2005 48.6569 31.1613C49.2669 30.7095 49.9597 30.1823 50.6224 29.4594C51.3077 28.7214 51.5412 28.1867 51.3378 28.0361C51.1872 27.9231 50.8785 28.134 50.4718 28.5331C50.1706 28.8343 49.8166 29.2485 49.3271 29.6702C48.9205 30.0166 48.5816 30.1447 48.3858 30.1673C48.0168 29.2335 47.6779 28.8569 47.3842 29.0602C46.9776 29.3389 46.842 30.0468 46.9324 31.1462C46.3751 31.4625 45.7727 31.8391 45.11 32.2608C45.0271 32.1554 44.9368 32.0499 44.8313 31.9445C44.6958 31.8165 44.5904 31.6357 44.5226 31.3948C44.4623 31.2215 44.3795 31.0935 44.3042 31.0032C44.1686 30.8149 44.0707 30.6191 44.0406 30.4158C43.8222 30.0618 43.7017 29.7305 43.6867 29.4293C43.6716 29.2335 43.6415 29.0753 43.6189 28.9548C43.5436 28.7364 43.5135 28.5406 43.5436 28.3599C43.4457 28.2093 43.408 28.0436 43.4306 27.8629C43.4005 26.8236 43.4532 26.2965 43.5587 26.2513C43.521 26.0103 43.5436 25.7844 43.6264 25.566C43.6566 25.5058 43.6641 25.4455 43.6566 25.3853C43.649 25.2271 43.6716 25.1142 43.7243 25.0615C43.7168 24.8732 43.7469 24.7452 43.8222 24.6623C43.8222 24.4665 43.8674 24.331 43.9503 24.2557C43.9578 24.09 44.0331 23.9921 44.1611 23.9469C44.1988 23.7436 44.2891 23.5478 44.4473 23.3671C44.5 23.1788 44.5678 23.0357 44.6657 22.9378C44.7485 22.742 44.8464 22.5839 44.9669 22.4709C45.1175 22.2149 45.2531 22.0492 45.4037 21.9438C46.0814 21.3639 46.4504 21.0024 46.5182 20.9045ZM47.4821 30.8224C47.5725 30.7546 47.6779 30.6944 47.7984 30.6567C47.7984 30.3179 47.7231 30.1296 47.5574 30.1823C47.3842 30.2275 47.3616 30.461 47.4821 30.8224ZM40.938 16.5292C40.5012 16.2581 40.3958 15.9418 40.6142 15.5804C40.9154 15.3469 41.2317 15.3921 41.5706 15.7084C41.6383 15.8138 41.7362 15.8816 41.8643 15.8891C42.0149 15.987 42.1128 16.1828 42.1354 16.4765C42.2031 16.5518 42.3086 16.6723 42.4667 16.8154C42.7002 16.9133 42.8508 17.0488 42.911 17.1995C42.9035 17.4329 42.9186 17.591 42.9637 17.6588C43.0165 17.7115 43.0692 17.8019 43.1294 17.8923C43.2951 17.8772 43.3855 17.9149 43.393 17.9977C43.6264 18.2236 43.7545 18.427 43.7545 18.5926C44.0632 18.9767 44.2138 19.2629 44.1988 19.4511C44.2214 19.5791 44.1385 19.7298 43.9728 19.903C43.7093 19.8653 43.5285 19.8502 43.4382 19.8502C43.2198 19.6168 43.0616 19.549 42.9562 19.662C42.8131 19.5114 42.7077 19.3758 42.655 19.2478C42.542 19.3156 42.3914 19.1725 42.1956 18.8035C42.045 18.7809 41.9396 18.6905 41.8869 18.5248C41.7362 18.2613 41.6157 18.0881 41.5254 18.0128C41.4275 17.9073 41.4124 17.7718 41.4727 17.5835C41.2919 17.5383 41.1714 17.463 41.1263 17.3425C40.9606 17.2145 40.9003 16.9509 40.938 16.5292Z" fill="#FFCB00"/>
<path fill-rule="evenodd" clip-rule="evenodd" d="M51.895 58.249H51.6992V58.0457H51.895V58.249ZM51.3227 57.5637C51.3227 57.4809 51.2775 57.4357 51.1796 57.4357H50.9387V57.6917H51.1721C51.27 57.6993 51.3227 57.6541 51.3227 57.5637ZM51.5411 58.249H51.3227C51.3077 58.2189 51.3001 58.1737 51.3001 58.1135C51.3001 58.0231 51.3001 57.9704 51.2926 57.9478C51.2775 57.8951 51.2323 57.8725 51.157 57.8725H50.9462V58.2565H50.7429V57.2775H51.2173C51.4281 57.2775 51.5336 57.3679 51.5336 57.5562C51.5336 57.6767 51.4884 57.7595 51.3905 57.7896C51.4432 57.8047 51.4733 57.8424 51.4959 57.8875C51.511 57.9177 51.511 57.9704 51.511 58.0306C51.511 58.0381 51.511 58.0457 51.511 58.0607C51.511 58.0758 51.511 58.0833 51.511 58.0909C51.511 58.1662 51.526 58.2114 51.5486 58.2189V58.249H51.5411ZM50.5471 58.249H50.3513V58.0457H50.5471V58.249ZM50.1479 58.249H49.9597V57.4583L49.7639 58.249H49.5605L49.3572 57.4583V58.249H49.1689V57.27H49.4626L49.6584 58.0156L49.8467 57.27H50.1479V58.249Z" fill="#005337"/>
<path fill-rule="evenodd" clip-rule="evenodd" d="M60.6308 66.2622H59.1473V64.2741H60.5781V64.6205H59.5464V65.0422H60.4877V65.3811H59.5464V65.8932H60.6308V66.2622ZM58.9138 64.628H58.334V66.2622H57.9198V64.628H57.3324V64.2741H58.9063V64.628H58.9138ZM57.1065 66.2622H56.6848L55.879 64.8991V66.2622H55.4798V64.2741H55.9091L56.7149 65.6371V64.2741H57.114V66.2622H57.1065ZM54.5988 65.5242L54.3277 64.6732L54.049 65.5242H54.5988ZM55.269 66.2622H54.8397L54.7042 65.8555H53.9361L53.808 66.2622H53.3788L54.0791 64.2741H54.546L55.269 66.2622ZM52.8065 64.884C52.8065 64.7108 52.7086 64.6205 52.5203 64.6205H52.0233V65.1476H52.4977C52.7086 65.1476 52.8065 65.0573 52.8065 64.884ZM53.2508 66.2622H52.8065C52.7763 66.2019 52.7537 66.104 52.7537 65.976C52.7537 65.7953 52.7462 65.6823 52.7312 65.6371C52.6935 65.5392 52.6031 65.4865 52.4601 65.4865H52.0308V66.2622H51.6241V64.2741H52.5805C53.0023 64.2741 53.2206 64.4623 53.2206 64.8389C53.2206 65.0874 53.1228 65.2455 52.927 65.3058C53.0324 65.3434 53.1002 65.4112 53.1378 65.5091C53.1604 65.5769 53.1755 65.6748 53.1755 65.8028C53.1755 65.8178 53.1755 65.8404 53.1755 65.863C53.1755 65.8932 53.1755 65.9082 53.1755 65.9233C53.1755 66.0739 53.2056 66.1643 53.2583 66.1868V66.2622H53.2508ZM51.225 65.5618C51.225 65.8103 51.1572 65.9986 51.0142 66.1266C50.8786 66.2546 50.6828 66.3224 50.4343 66.3224C50.1858 66.3224 49.99 66.2622 49.8544 66.1341C49.7114 66.0061 49.6436 65.8179 49.6436 65.5693V64.2816H50.0502V65.5242C50.0502 65.8178 50.1783 65.9609 50.4343 65.9609C50.5774 65.9609 50.6753 65.9233 50.7355 65.848C50.7882 65.7802 50.8184 65.6672 50.8184 65.5242V64.2816H51.225V65.5618ZM48.77 65.5242L48.4989 64.6732L48.2203 65.5242H48.77ZM49.4478 66.2622H49.0185L48.883 65.8555H48.1149L47.9868 66.2622H47.5576L48.2579 64.2741H48.7248L49.4478 66.2622ZM47.7609 64.628H47.1811V66.2622H46.7744V64.628H46.187V64.2741H47.7609V64.628V64.628ZM46.0439 65.6672C46.0439 65.8932 45.9611 66.0588 45.8029 66.1718C45.6674 66.2697 45.4791 66.3149 45.2457 66.3149C45.0122 66.3149 44.824 66.2622 44.6809 66.1567C44.5227 66.0438 44.4399 65.8706 44.4324 65.6446H44.8315C44.8616 65.8555 45.0122 65.9609 45.2833 65.9609C45.5243 65.9609 45.6373 65.8781 45.6373 65.7124C45.6373 65.5919 45.5318 65.5091 45.3285 65.4639C44.9896 65.3811 44.8014 65.3359 44.7637 65.3133C44.5604 65.2154 44.4625 65.0497 44.4625 64.8163C44.4625 64.6054 44.5378 64.4473 44.6959 64.3494C44.824 64.2665 45.0047 64.2213 45.2306 64.2213C45.449 64.2213 45.6222 64.2741 45.7502 64.372C45.8933 64.4774 45.9686 64.6431 45.9761 64.8539H45.5846C45.5695 64.6581 45.4415 64.5602 45.193 64.5602C44.9746 64.5602 44.8616 64.6431 44.8616 64.8012C44.8616 64.9066 44.967 64.9895 45.1704 65.0347C45.5017 65.1175 45.69 65.1702 45.7427 65.1928C45.946 65.2907 46.0439 65.4488 46.0439 65.6672ZM44.214 66.2622H42.7304V64.2741H44.1613V64.6205H43.1296V65.0422H44.0709V65.3811H43.1296V65.8932H44.214V66.2622ZM41.9548 64.884C41.9548 64.7108 41.8569 64.6205 41.6686 64.6205H41.1716V65.1476H41.646C41.8569 65.1476 41.9548 65.0573 41.9548 64.884ZM42.3991 66.2622H41.9548C41.9247 66.2019 41.9021 66.104 41.9021 65.976C41.9021 65.7953 41.8945 65.6823 41.8795 65.6371C41.8418 65.5392 41.7514 65.4865 41.6084 65.4865H41.1791V66.2622H40.7725V64.2741H41.7289C42.1506 64.2741 42.369 64.4623 42.369 64.8389C42.369 65.0874 42.2711 65.2455 42.0753 65.3058C42.1807 65.3434 42.2485 65.4112 42.2861 65.5091C42.3087 65.5769 42.3238 65.6748 42.3238 65.8028C42.3238 65.8178 42.3238 65.8404 42.3238 65.863C42.3238 65.8932 42.3238 65.9082 42.3238 65.9233C42.3238 66.0739 42.3539 66.1643 42.4066 66.1868V66.2622H42.3991ZM60.6308 63.5135H59.1473V61.5254H60.5781V61.8718H59.5464V62.2935H60.4877V62.6324H59.5464V63.1445H60.6308V63.5135ZM58.8837 61.8718H57.9047V62.3236H58.7632V62.67H57.9047V63.5135H57.5056V61.5254H58.8837V61.8718ZM56.6245 62.7679L56.3534 61.917L56.0748 62.7679H56.6245ZM57.2947 63.5135H56.8655L56.7299 63.1068H55.9618L55.8338 63.5135H55.4045L56.1049 61.5254H56.5718L57.2947 63.5135ZM55.2841 62.8282C55.269 63.0616 55.1786 63.2499 55.0054 63.3779C54.8473 63.4984 54.6439 63.5662 54.4105 63.5662C54.1017 63.5662 53.8683 63.4683 53.7101 63.265C53.5595 63.0842 53.4842 62.8357 53.4842 62.5194C53.4842 62.1956 53.5595 61.9396 53.7177 61.7588C53.8833 61.5706 54.1243 61.4727 54.4481 61.4727C54.6891 61.4727 54.8849 61.5329 55.028 61.6459C55.1862 61.7664 55.269 61.9471 55.2841 62.1805H54.8849C54.8548 61.9471 54.7042 61.8341 54.4481 61.8341C54.0867 61.8341 53.9059 62.06 53.9059 62.5194C53.9059 62.7152 53.9436 62.8734 54.0189 62.9863C54.1093 63.1219 54.2524 63.1896 54.4331 63.1896C54.6891 63.1896 54.8473 63.0692 54.8925 62.8206H55.2841V62.8282Z" fill="#005337"/>
<path fill-rule="evenodd" clip-rule="evenodd" d="M42.685 57.4283C42.7378 56.7806 42.8884 56.5171 43.0164 56.6601C43.0917 56.743 43.1369 57.0517 43.0992 57.3981C43.0314 58.0608 42.8206 58.2491 42.7378 58.0759C42.6549 57.8801 42.6624 57.6617 42.685 57.4283ZM49.7789 55.3272L49.2518 52.0589L49.0635 51.7953C49.3421 51.6297 49.5153 51.5016 49.6208 51.4339C49.7639 51.3435 49.8618 51.4414 49.8768 51.6673C49.9069 52.0363 49.9446 52.3752 49.9672 52.6689C50.2308 51.72 50.532 51.1477 50.8859 51.0121C51.1646 50.9067 51.3152 51.0272 51.3001 51.3058C51.2474 52.4806 51.3076 53.196 51.5034 53.4445C51.639 53.6178 51.7971 53.5801 52.0231 53.3768C52.1285 53.2864 52.1963 53.3241 52.1887 53.422C52.1511 53.8889 51.9929 54.2127 51.6766 54.3482C51.383 54.4762 51.1495 54.3256 50.9537 53.9491C50.8483 53.7533 50.7504 53.3843 50.6675 52.8572C50.66 52.7969 50.6299 52.7969 50.5998 52.8496C50.3814 53.2487 50.2835 53.9566 50.3287 54.9507C50.3588 55.154 50.1705 55.282 49.7789 55.3272ZM48.1372 51.8631C47.949 51.9384 47.9188 51.7275 47.9414 51.3134C47.964 50.8691 48.0845 50.6431 48.2653 50.7787C48.4686 50.9293 48.4309 51.2079 48.3255 51.5242C48.2653 51.6899 48.2201 51.833 48.1372 51.8631ZM47.8887 53.3015C48.2502 53.3015 48.5439 53.8361 48.5439 54.4988C48.5439 55.1615 48.2502 55.6962 47.8887 55.6962C47.5273 55.6962 47.2336 55.1615 47.2336 54.4988C47.2336 53.8361 47.5273 53.3015 47.8887 53.3015ZM48.0996 52.6312C47.467 52.3225 46.6688 53.2337 46.7365 54.672C46.7968 55.8393 47.1884 56.4643 47.9188 56.4719C48.5815 56.4794 49.2066 55.41 49.1689 54.2202C49.1388 53.3768 48.7924 52.8195 48.4611 52.6162C48.3481 52.5409 48.2653 52.5032 48.0996 52.6312ZM45.2304 55.0034C45.4864 55.0034 45.6596 55.4929 45.6521 56.0953C45.6446 56.6903 45.4563 57.1722 45.2003 57.1722C44.9442 57.1722 44.771 56.6903 44.7786 56.0878C44.7861 55.4854 44.9744 55.0034 45.2304 55.0034ZM42.3311 59.0699C42.0751 58.3395 42.0073 57.5713 42.1353 56.7656C42.3236 56.2008 42.6474 55.8694 43.0842 55.9372C43.6414 56.0276 43.8222 56.5472 43.7017 57.3304C43.6113 57.9102 43.4983 58.3545 43.2875 58.6633C43.2122 58.8967 43.2498 58.9946 43.3929 58.957C43.7393 58.8214 44.0857 58.3545 44.402 57.5412C44.4397 57.4509 44.402 57.368 44.3493 57.2927C44.2138 57.0969 43.905 55.9071 44.2514 54.9733C44.53 54.2202 44.9442 54.0545 45.7274 54.1449C45.7124 54.0771 45.8856 54.0395 46.1115 54.0395C46.3374 54.0395 46.3751 54.16 46.3826 54.3181C46.3901 54.4762 46.5709 56.374 46.7441 57.3981C46.9399 58.9645 46.8871 59.8682 46.7139 60.1845C46.473 60.6363 46.1115 61.0505 45.4789 61.2237C45.2003 61.299 45.0948 61.0355 45.1777 60.561C45.1927 60.4857 45.2304 60.4556 45.3132 60.4405C45.7425 60.3652 46.104 60.0715 46.1943 59.5218C46.2998 58.8742 46.2169 58.2868 46.1341 57.7747C46.0889 57.6918 46.0362 57.6918 45.9684 57.7671C45.6973 58.0985 45.3208 58.1964 44.8463 58.0383C44.7258 58.1738 44.5903 58.4223 44.4096 58.7537C43.9427 59.6046 43.3327 59.8456 42.5796 59.4615C42.3612 59.7402 42.1955 59.8381 42.0901 59.7477C42.0449 59.7025 41.9922 59.6724 41.947 59.6122C41.8717 59.5218 41.8868 59.4239 41.9621 59.3561C42.0223 59.2959 42.1504 59.2055 42.3311 59.0699ZM40.6518 61.299C40.3279 60.0038 39.9891 58.7461 39.6577 57.5262L39.9966 57.3078L40.2074 57.4207C40.5162 57.0442 40.8927 56.8484 41.3521 56.8559C41.6985 56.8635 41.8491 57.0141 41.8115 57.3078C41.7889 57.5262 41.6383 57.6316 41.3521 57.6165C40.6743 57.6241 40.5162 57.9855 40.6216 58.6859C40.712 59.2959 40.8626 59.8983 41.0132 60.5083C41.1187 60.9074 41.0208 61.171 40.6518 61.299ZM37.9482 60.5234C37.8428 59.6197 38.0687 59.1076 38.4151 59.1076C38.754 59.1001 39.0477 59.6498 39.0929 60.4255C39.1381 61.1635 38.8595 61.6003 38.626 61.6078C38.37 61.6228 38.0311 61.2388 37.9482 60.5234ZM37.8428 62.7901C37.3985 61.0656 36.8638 58.8591 36.2162 56.1857C36.1785 55.9673 36.2388 55.8393 36.3969 55.8242C36.7433 55.779 36.9316 55.9071 36.9542 56.2158C37.15 56.9538 37.3458 57.7747 37.5416 58.6784C37.7449 58.3847 38.0838 58.1813 38.5507 58.1813C39.2887 58.1813 39.974 59.1302 39.8836 60.7116C39.8234 61.7659 39.349 62.3684 38.4754 62.5115C38.3474 62.7299 38.1365 62.8202 37.8428 62.7901ZM45.878 35.4688C45.878 34.7534 46.0211 34.4597 46.1868 34.6179C46.2847 34.7082 46.3675 35.0547 46.36 35.4387C46.3449 36.1767 46.119 36.3876 46.0061 36.1918C45.8931 35.9734 45.878 35.7324 45.878 35.4688ZM49.5831 32.9536C49.3497 32.7503 49.3346 32.3512 49.6961 31.8767C50.2534 31.1462 50.9161 31.0107 51.1043 31.2818C51.2097 31.4399 51.0893 31.6809 50.8633 31.7713C50.6449 31.8617 50.4266 31.9897 50.2684 32.2307C50.2082 32.3286 50.2458 32.4039 50.3362 32.4265C51.4808 32.6825 52.1285 33.172 52.1435 33.91C52.1661 34.6857 51.7218 35.2128 50.9763 35.5667C50.5546 35.7701 50.1705 35.8378 49.794 35.6646C49.4852 35.5216 49.3873 35.3182 49.4702 35.0622C49.5605 34.7986 49.7488 34.6405 50.0576 34.6706C50.2835 34.6932 50.4341 34.8287 50.4717 34.9492C50.8257 35.1224 51.2248 34.776 51.3754 34.3618C51.4884 34.0531 51.3905 33.5787 50.9688 33.4657C50.2985 33.285 49.8241 33.172 49.5831 32.9536ZM48.1899 34.3091C48.2351 32.5921 48.0845 31.7035 47.9339 31.6357C47.8285 31.7186 47.7155 31.7788 47.6026 31.8014C47.5875 32.7126 47.6854 33.541 47.964 34.3016C48.0393 34.4974 48.1824 34.5049 48.1899 34.3091ZM47.4821 30.8224C47.5724 30.7547 47.6779 30.6944 47.7984 30.6568C47.7984 30.3179 47.723 30.1296 47.5574 30.1823C47.3842 30.2275 47.3616 30.461 47.4821 30.8224ZM43.0013 36.3876C42.9787 35.8906 42.9712 35.6722 43.2724 35.6722C43.4833 35.6722 43.5962 35.8153 43.5887 36.124C43.5661 37.0051 43.6188 37.6301 43.8673 37.9238C44.018 38.097 44.2062 38.0443 44.3192 37.841C44.4849 37.5548 44.4999 36.9072 44.3568 35.9056C44.2891 35.4237 44.1912 35.0697 44.1083 34.8438C44.0631 34.7233 44.0406 34.5576 44.018 34.3392C44.53 34.2865 44.7409 34.4447 44.8313 34.7685C44.9744 35.3182 45.1174 36.0261 45.1024 36.9373C45.2906 37.231 45.4563 37.2687 45.5919 37.0277C45.2756 36.0412 45.2003 35.1601 45.4488 34.407C45.6973 33.6464 46.0437 33.3377 46.4127 33.5485C46.9549 33.8573 47.339 35.0396 47.0528 36.1843C46.9926 36.4177 46.842 36.621 46.6612 36.7415C46.6311 36.862 46.6913 36.8921 46.8194 36.9298C47.1281 37.0051 47.3616 36.9373 47.5649 36.621C47.8511 36.3273 47.9791 36.0261 47.9791 35.7174C47.723 35.4011 47.4745 34.8589 47.1959 34.0681C46.9775 33.4506 46.8495 32.8105 46.8495 32.1328C46.3449 32.4867 45.6822 32.931 44.8162 33.3075C44.4849 33.4506 44.274 33.3527 44.2364 33.1343C44.2062 32.931 44.2966 32.803 44.4547 32.7051C45.381 32.1252 46.2019 31.5981 46.9399 31.1764C46.8495 30.0769 46.985 29.369 47.3917 29.0904C47.6854 28.887 48.0243 29.2636 48.3933 30.1974C48.5891 30.1673 48.928 30.0468 49.3346 29.7004C49.8316 29.2786 50.178 28.8645 50.4793 28.5632C50.8859 28.1566 51.1947 27.9532 51.3453 28.0662C51.5411 28.2168 51.3076 28.7515 50.6299 29.4895C49.9672 30.2124 49.2744 30.7396 48.6644 31.1914C48.8752 32.5093 48.9054 33.8422 48.7547 35.2203C48.7322 35.6044 48.8978 35.883 49.2518 36.0035C49.3346 36.0336 49.44 35.9885 49.5605 35.9583C49.8843 35.868 50.1027 35.9132 50.1479 36.0864C50.2232 36.3801 50.0952 36.5608 49.8392 36.5834C49.1012 36.6512 48.6418 36.5457 48.4611 36.3047C47.9942 37.6904 47.1357 38.1046 45.9006 37.5322C45.6521 37.7205 45.366 37.7582 45.0346 37.6226C45.012 38.1648 44.8012 38.4962 44.4246 38.6393C43.9728 38.8125 43.6565 38.6393 43.3703 38.1121C43.1444 37.6829 43.0239 37.1256 43.0013 36.3876ZM41.5328 36.9223C41.9696 36.9072 42.0525 37.4795 42.0073 38.1648C41.9621 38.8501 41.6684 39.4074 41.3596 39.4074C41.0509 39.4074 40.84 38.7447 40.8852 38.1648C40.9379 37.585 41.0961 36.9449 41.5328 36.9223ZM43.0691 39.8065C43.28 41.7494 43.3779 42.9468 43.3779 43.3836C43.3779 43.617 43.2724 43.745 43.0314 43.7526C42.7829 43.7601 42.6173 43.617 42.6097 43.3309C42.5871 42.5025 42.5269 41.3654 42.316 39.9195C42.2934 39.7914 42.2181 39.7689 42.1504 39.8517C41.9696 40.0851 41.6835 40.2809 41.2617 40.2433C40.6141 40.183 40.2451 39.7387 40.1773 39.0534C40.0644 37.9464 40.2225 37.231 40.4635 36.8168C40.825 36.1843 41.3521 36.0111 42.188 36.3876C42.3989 36.3048 42.5796 36.2671 42.7152 36.3575C42.798 36.4177 42.7829 36.5081 42.7905 36.6135C42.8582 37.8937 42.9787 38.9405 43.0691 39.8065ZM37.6771 39.7387C37.4136 39.5881 37.3157 39.2041 37.5717 38.6618C37.9708 37.8335 38.5808 37.5699 38.8218 37.7958C38.9574 37.9238 38.8896 38.1874 38.6863 38.323C38.4905 38.451 38.3022 38.6242 38.2043 38.8878C38.1591 38.9932 38.2194 39.061 38.3097 39.061C39.4694 39.076 40.1924 39.43 40.3656 40.1454C40.5388 40.8985 40.215 41.5084 39.5598 41.9979C39.1908 42.2841 38.8293 42.4272 38.4377 42.3368C38.1064 42.254 37.9708 42.0808 38.001 41.8172C38.0311 41.5386 38.1892 41.3503 38.4905 41.3202C38.7164 41.2976 38.8896 41.3955 38.9423 41.5084C39.3188 41.6063 39.6351 41.1846 39.7029 40.7554C39.7556 40.4316 39.5598 39.9872 39.1306 39.9647C38.4377 39.9119 37.9558 39.8969 37.6771 39.7387ZM36.781 41.7645C36.8488 41.9979 36.9542 42.2916 36.9919 42.6908C37.0295 43.0447 37.1199 43.2104 37.3458 43.2028C37.5717 43.1953 37.5717 42.9844 37.5039 42.5251C37.2931 40.9286 37.1123 39.7086 36.8789 38.8953C36.7961 38.6167 36.6454 38.4886 36.4496 38.5188C36.1861 38.5715 36.1108 38.8049 36.1861 39.2041C36.3442 40.0927 36.5325 40.9587 36.781 41.7645ZM30.764 42.3594C30.7188 42.1485 30.7414 42.0582 30.9824 41.9979C31.8635 41.7946 32.6165 41.3051 33.1211 40.5295C33.3018 40.2508 33.5428 40.1002 33.9193 40.1529C35.0941 40.3186 35.6137 40.9662 35.4405 42.013C35.1544 43.6923 34.2808 44.7542 32.9253 45.1834C32.0894 45.447 31.7279 45.3641 31.5848 45.0328C31.3137 44.4303 31.0351 43.5869 30.764 42.3594ZM31.2836 41.1997C31.1857 41.0867 31.2535 40.9587 31.3439 40.8909C31.8108 40.5295 32.2475 40.2885 32.6768 40.168C32.24 40.6801 31.8936 40.9964 31.6376 41.1394C31.5171 41.2147 31.3664 41.29 31.2836 41.1997ZM30.395 40.9361C30.3197 40.7328 30.1841 40.3939 29.9582 39.9345C29.9055 39.8291 29.8904 39.7086 29.9808 39.6182C30.7866 38.8351 31.7204 38.4435 32.722 38.2251C33.1813 38.1272 33.3169 38.2175 33.2416 38.9857C33.2039 39.3547 32.7973 39.4902 32.6994 39.5279C31.6827 39.9571 31.2384 40.0701 30.395 40.9361ZM29.047 39.1965C29.0922 39.317 29.0997 39.4601 29.0922 39.6182C28.8964 39.8442 28.8211 40.04 28.8587 40.2056C28.9115 40.4316 29.0847 40.5069 29.3859 40.4316C29.9281 41.7871 30.4552 43.3459 30.9598 45.1307C30.9974 45.2587 30.9146 45.319 30.7263 45.3114C30.3272 45.319 30.1314 45.0855 30.1992 44.6186C30.2143 44.5056 30.1841 44.4529 30.0561 44.4831C29.8302 44.5358 29.6645 44.7316 29.6269 45.0253C29.544 45.6578 30.1239 46.0419 31.2911 46.1624C31.389 46.3808 31.4418 46.5841 31.6376 46.7121C31.7957 46.8176 31.9689 46.7498 31.984 46.5916C31.9915 46.3808 32.0216 46.2603 32.1496 46.2076C32.9931 46.0042 33.7311 45.6804 34.3561 45.2211C36.1032 43.9333 36.6003 42.3745 36.2087 40.9813C35.9376 40.04 35.1318 39.5128 33.9721 39.3923C33.8666 39.3848 33.8666 39.2794 33.9269 39.0384C34.213 37.9013 33.9193 37.3289 33.1136 37.2988C32.2249 37.2687 31.133 37.7657 29.8076 38.7823C29.6871 38.8727 29.5967 38.8426 29.5591 38.7296C29.3407 38.0745 29.0244 37.2009 28.7006 36.0788C28.6253 35.8153 28.5199 35.6571 28.3165 35.7324C28.1057 35.8077 28.0755 36.0261 28.1433 36.3123C28.3843 37.3139 28.678 38.2627 29.047 39.1965ZM38.5206 29.4217C38.257 29.2711 38.1591 28.887 38.4151 28.3448C38.8143 27.5165 39.4243 27.2529 39.6652 27.4788C39.8008 27.6068 39.733 27.8704 39.5297 28.006C39.3339 28.134 39.1456 28.3072 39.0477 28.5708C39.0101 28.6762 39.0628 28.744 39.1532 28.744C40.3129 28.759 41.0358 29.113 41.209 29.8284C41.3822 30.5814 41.0584 31.1914 40.4032 31.6809C40.0342 31.9671 39.6728 32.1102 39.2812 32.0198C38.9498 31.937 38.8143 31.7638 38.8444 31.5002C38.8745 31.2216 39.0327 31.0333 39.3339 31.0032C39.5598 30.9806 39.733 31.0785 39.7857 31.1914C40.1623 31.2893 40.4786 30.8676 40.5463 30.4384C40.599 30.1145 40.4032 29.6702 39.974 29.6476C39.2812 29.6025 38.7992 29.5874 38.5206 29.4217ZM36.8337 29.9489C37.1952 29.9489 37.4889 30.5589 37.4889 31.3119C37.4889 32.065 37.1952 32.675 36.8337 32.675C36.4722 32.675 36.1785 32.065 36.1785 31.3119C36.1785 30.5589 36.4722 29.9489 36.8337 29.9489ZM37.1425 29.1205C36.7659 28.9548 36.3894 29.2109 36.1484 29.7455C35.6062 30.9504 35.7116 32.1102 36.2463 33.1268C36.4045 33.4205 37.022 33.7142 37.4362 33.3904C38.2796 32.7202 38.4302 30.8224 38.0537 29.8736C37.7826 29.2033 37.5039 28.9548 37.1425 29.1205ZM30.2218 34.535C30.2745 34.7459 30.2971 35.0019 30.282 35.2806C30.0486 35.3408 29.8377 35.386 29.5967 35.2655C29.4461 35.1902 29.4612 34.9342 29.529 34.8589C29.5817 34.7986 29.657 34.7986 29.6796 34.7459C29.7172 34.6329 29.672 34.5501 29.5591 34.5275C29.4085 34.5049 29.2202 34.5727 29.1374 34.7534C29.0169 35.0095 28.9943 35.2203 29.0771 35.4237C29.1976 35.7249 29.8151 36.0186 30.4552 36.0412C30.5757 36.0412 30.6586 36.1767 30.6812 36.4328C30.7263 36.9373 30.892 37.1708 31.2008 37.1256C31.4719 37.0879 31.4945 36.7415 31.246 36.0788C32.7672 36.1391 33.829 35.7023 35.8547 34.2489C36.0957 34.0757 36.2087 33.91 36.1785 33.7669C36.1334 33.5862 35.915 33.5485 35.7041 33.6765C33.9193 34.7986 32.6241 35.386 31.6451 35.4387C31.2234 35.4613 31.0276 35.3634 30.9749 35.1676C30.4477 33.1117 29.6419 30.0694 28.5801 26.0405C28.5199 25.7995 28.3843 25.6715 28.1885 25.7016C28.0228 25.7317 27.9626 25.9049 28.0228 26.1609C28.3918 27.7876 28.7985 29.5422 29.3332 31.4098C29.5817 32.3361 29.913 33.3678 30.2218 34.535ZM30.4552 58.1512C30.8694 57.4132 31.3213 57.1873 31.4794 57.353C31.5999 57.4734 31.3966 57.8274 31.0803 58.4298C30.0561 60.3652 30.2143 62.4362 31.2535 63.882C32.1572 65.1472 33.5729 65.4334 34.582 64.7255C35.8321 63.8519 36.2764 61.796 35.9074 59.9134C35.5309 58.0006 34.6573 57.1798 33.6482 57.2174C33.219 57.2325 32.7446 57.4734 32.4433 58.1738C32.1572 58.8365 32.0216 59.0775 31.8484 58.7612C31.5397 58.2039 31.6074 57.7295 31.9162 57.3304C32.5186 56.5396 33.1964 56.1481 34.0172 56.261C35.2071 56.4192 36.171 57.8199 36.6003 59.7477C37.2027 62.4437 36.2538 64.7857 34.8908 65.5764C33.4298 66.4274 31.5698 65.8927 30.5833 64.3038C29.3934 62.3834 29.2579 60.3125 30.4552 58.1512ZM51.4281 17.9826C52.0908 18.442 52.6481 18.9014 53.0774 19.3683C53.1828 19.549 53.3033 19.6695 53.4162 19.7147C53.6346 19.8201 53.8229 19.9933 53.981 20.2494C53.966 20.3849 54.0639 20.5506 54.2446 20.7464C54.35 21.01 54.5835 21.62 54.9299 22.5764C54.9224 23.0583 54.9901 23.4725 55.1332 23.834C55.1633 24.3461 55.1332 24.6473 55.0429 24.7527C55.0956 25.0389 54.9977 25.4079 54.7642 25.8898C54.5985 26.2739 54.5383 26.545 54.576 26.7032C54.335 27.1324 54.0112 27.6595 53.612 28.2846C53.4539 28.3599 53.3635 28.4804 53.3485 28.6385C53.3635 28.8193 53.4614 28.887 53.6572 28.8419C53.9133 28.8494 54.1166 28.7891 54.2521 28.6687C54.3576 28.5934 54.5082 28.5331 54.704 28.4879C55.0429 28.3448 55.2838 28.2168 55.4043 28.0813C55.5323 27.9984 55.6077 27.9156 55.6227 27.8403C55.8788 27.6972 56.0294 27.6294 56.0896 27.6445C56.7674 27.1399 57.2945 26.7257 57.6936 26.4019C58.3036 25.6564 58.7781 25.0012 59.1395 24.4515C59.2676 24.4138 59.3429 24.3235 59.3579 24.1729C59.3805 24.0222 59.4408 23.849 59.5387 23.6683C59.6742 23.4198 59.7796 23.0207 59.8474 22.4634C59.9077 22.245 59.9378 22.0341 59.9528 21.8233C60.0357 21.4543 60.0357 20.7841 59.9528 19.8352C59.742 19.4436 59.5688 19.0219 59.4558 18.5851C59.4332 18.4345 59.3203 18.2613 59.1094 18.073C59.0642 17.8396 58.8835 17.5308 58.5672 17.1317C58.5597 17.0187 58.4768 16.9434 58.3112 16.8907C58.2359 16.6949 58.1304 16.5744 57.9949 16.5368C58.0099 16.4464 57.9798 16.3861 57.9045 16.3485C57.6183 16.1753 57.1063 15.7837 56.3607 15.1812C56.0896 14.993 55.7959 14.8424 55.4721 14.7671C54.591 14.4131 53.5894 14.1646 52.4448 14.029C52.0532 13.9839 51.6541 13.9914 51.2248 14.0516C50.9161 14.1345 50.547 14.1872 50.1103 14.2023C49.7865 14.2399 49.3873 14.3604 48.928 14.5713C48.815 14.5863 48.702 14.6541 48.5815 14.7671C48.4159 14.7445 48.3481 14.7821 48.3632 14.865C48.2276 14.8499 48.0996 14.9026 47.9866 15.008C47.8661 15.0156 47.7682 15.0457 47.708 15.0833C47.2336 15.3319 46.729 15.6858 46.2019 16.1602C46.0362 16.2506 46.0287 16.3636 46.1868 16.4991C46.8118 16.5066 47.2863 16.5066 47.6251 16.5066C47.9188 16.6045 48.1598 16.6874 48.3481 16.7551C48.559 16.7853 48.7849 16.8003 49.0409 16.7853C49.2744 16.8907 49.553 17.0263 49.9069 17.1769C50.0952 17.1769 50.178 17.2296 50.178 17.3425C50.3738 17.335 50.5169 17.3953 50.6224 17.5383C50.7579 17.5233 50.9161 17.6061 51.0968 17.817C51.1947 17.8019 51.2323 17.832 51.2248 17.9224C51.3152 17.9525 51.3754 17.9751 51.4281 17.9826Z" fill="#005337"/>
</svg>
