<svg width="257" height="176" viewBox="0 0 257 176" fill="none" xmlns="http://www.w3.org/2000/svg">
<path d="M28.594 103H38.566V100.156H33.364L35.524 98.644C37.396 97.294 38.44 96.25 38.44 94.234V94.198C38.44 91.822 36.55 90.184 33.796 90.184C31.348 90.184 30.016 91.138 28.666 92.884L31.024 94.846C32.014 93.712 32.68 93.226 33.526 93.226C34.372 93.226 34.93 93.712 34.93 94.504C34.93 95.26 34.48 95.854 33.31 96.772L28.594 100.372V103ZM45.7844 103.252C49.3844 103.252 51.6344 100.264 51.6344 96.7V96.664C51.6344 93.1 49.4024 90.148 45.8204 90.148C42.2384 90.148 39.9704 93.136 39.9704 96.7V96.736C39.9704 100.3 42.1844 103.252 45.7844 103.252ZM45.8204 100.156C44.4164 100.156 43.4804 98.716 43.4804 96.7V96.664C43.4804 94.648 44.3984 93.244 45.7844 93.244C47.1704 93.244 48.1244 94.702 48.1244 96.7V96.736C48.1244 98.734 47.2244 100.156 45.8204 100.156ZM52.7991 103H62.7711V100.156H57.5691L59.7291 98.644C61.6011 97.294 62.6451 96.25 62.6451 94.234V94.198C62.6451 91.822 60.7551 90.184 58.0011 90.184C55.5531 90.184 54.2211 91.138 52.8711 92.884L55.2291 94.846C56.2191 93.712 56.8851 93.226 57.7311 93.226C58.5771 93.226 59.1351 93.712 59.1351 94.504C59.1351 95.26 58.6851 95.854 57.5151 96.772L52.7991 100.372V103ZM66.3715 103H69.8095V90.31H67.2715L63.5815 91.354L64.2475 94.054L66.3715 93.568V103Z" fill="black"/>
<path d="M31.39 125.1C32.78 125.1 33.78 124.32 33.78 123.12V123.1C33.78 122.03 33.06 121.46 31.5 121.12C29.96 120.79 29.6 120.42 29.6 119.76V119.74C29.6 119.11 30.18 118.61 31.09 118.61C31.81 118.61 32.46 118.84 33.11 119.37L33.57 118.76C32.86 118.19 32.13 117.9 31.11 117.9C29.78 117.9 28.81 118.71 28.81 119.81V119.83C28.81 120.98 29.55 121.5 31.16 121.85C32.63 122.16 32.98 122.53 32.98 123.18V123.2C32.98 123.89 32.36 124.39 31.42 124.39C30.45 124.39 29.75 124.06 29.02 123.4L28.53 123.98C29.37 124.73 30.28 125.1 31.39 125.1ZM35.7165 122.73H39.8165C39.8265 122.61 39.8265 122.53 39.8265 122.46C39.8265 120.94 38.9465 119.72 37.4165 119.72C35.9865 119.72 34.9365 120.92 34.9365 122.42C34.9365 124.03 36.0965 125.12 37.5165 125.12C38.4965 125.12 39.1265 124.73 39.6465 124.15L39.1665 123.72C38.7465 124.16 38.2465 124.45 37.5365 124.45C36.6265 124.45 35.8265 123.82 35.7165 122.73ZM35.7165 122.11C35.8265 121.11 36.5065 120.37 37.3965 120.37C38.4165 120.37 38.9565 121.17 39.0465 122.11H35.7165ZM46.3063 125.11C47.2163 125.11 47.8063 124.69 48.1663 124.23V125H48.9263V121.84C48.9263 121.18 48.7463 120.68 48.3863 120.32C48.0163 119.95 47.4463 119.75 46.7163 119.75C45.9563 119.75 45.4063 119.93 44.8363 120.19L45.0663 120.82C45.5463 120.6 46.0263 120.45 46.6363 120.45C47.6063 120.45 48.1663 120.93 48.1663 121.85V122.01C47.7063 121.88 47.2463 121.79 46.5863 121.79C45.2763 121.79 44.3763 122.37 44.3763 123.48V123.5C44.3763 124.56 45.3363 125.11 46.3063 125.11ZM46.4563 124.49C45.7563 124.49 45.1562 124.11 45.1562 123.46V123.44C45.1562 122.82 45.7063 122.4 46.6663 122.4C47.2963 122.4 47.7963 122.51 48.1763 122.62V123.1C48.1763 123.92 47.4063 124.49 46.4563 124.49ZM50.5573 126.6H51.3273V124.01C51.7273 124.59 52.3473 125.11 53.3073 125.11C54.5573 125.11 55.7773 124.11 55.7773 122.42V122.4C55.7773 120.7 54.5473 119.72 53.3073 119.72C52.3573 119.72 51.7473 120.25 51.3273 120.87V119.83H50.5573V126.6ZM53.1673 124.42C52.2073 124.42 51.2973 123.62 51.2973 122.42V122.4C51.2973 121.22 52.2073 120.41 53.1673 120.41C54.1473 120.41 54.9873 121.19 54.9873 122.41V122.43C54.9873 123.68 54.1673 124.42 53.1673 124.42ZM57.6579 122.73H61.7579C61.7679 122.61 61.7679 122.53 61.7679 122.46C61.7679 120.94 60.8879 119.72 59.3579 119.72C57.9279 119.72 56.8779 120.92 56.8779 122.42C56.8779 124.03 58.0379 125.12 59.4579 125.12C60.4379 125.12 61.0679 124.73 61.5879 124.15L61.1079 123.72C60.6879 124.16 60.1879 124.45 59.4779 124.45C58.5679 124.45 57.7679 123.82 57.6579 122.73ZM57.6579 122.11C57.7679 121.11 58.4479 120.37 59.3379 120.37C60.3579 120.37 60.8979 121.17 60.9879 122.11H57.6579ZM63.1159 125H63.8859V122.94C63.8859 121.38 64.8059 120.57 65.9359 120.57H65.9959V119.74C65.0159 119.7 64.2659 120.32 63.8859 121.18V119.83H63.1159V125ZM68.8986 125.09C69.2686 125.09 69.5586 125.01 69.8286 124.87V124.21C69.5586 124.34 69.3386 124.39 69.0786 124.39C68.5586 124.39 68.2086 124.16 68.2086 123.53V120.51H69.8486V119.83H68.2086V118.27H67.4386V119.83H66.7186V120.51H67.4386V123.63C67.4386 124.68 68.0686 125.09 68.8986 125.09ZM73.1116 125.11C74.0016 125.11 74.5316 124.66 74.8816 124.1V125H75.6416V119.83H74.8816V122.79C74.8816 123.76 74.2116 124.41 73.3316 124.41C72.4216 124.41 71.9016 123.81 71.9016 122.85V119.83H71.1316V123.04C71.1316 124.27 71.8616 125.11 73.1116 125.11ZM77.3737 125H78.1437V122.94C78.1437 121.38 79.0637 120.57 80.1937 120.57H80.2537V119.74C79.2737 119.7 78.5237 120.32 78.1437 121.18V119.83H77.3737V125ZM83.2618 119.05H83.8618L85.0018 117.97L84.2018 117.6L83.2618 119.05ZM83.5618 125.12C85.1218 125.12 86.2718 123.88 86.2718 122.42V122.4C86.2718 120.94 85.1318 119.72 83.5818 119.72C82.0218 119.72 80.8818 120.96 80.8818 122.42V122.44C80.8818 123.9 82.0118 125.12 83.5618 125.12ZM83.5818 124.43C82.4918 124.43 81.6718 123.53 81.6718 122.42V122.4C81.6718 121.31 82.4418 120.4 83.5618 120.4C84.6518 120.4 85.4818 121.31 85.4818 122.42V122.44C85.4818 123.53 84.7018 124.43 83.5818 124.43ZM91.3284 125H92.0984V117.7H91.3284V125ZM95.4254 125.11C96.3354 125.11 96.9254 124.69 97.2854 124.23V125H98.0454V121.84C98.0454 121.18 97.8654 120.68 97.5054 120.32C97.1354 119.95 96.5654 119.75 95.8354 119.75C95.0754 119.75 94.5254 119.93 93.9554 120.19L94.1854 120.82C94.6654 120.6 95.1454 120.45 95.7554 120.45C96.7254 120.45 97.2854 120.93 97.2854 121.85V122.01C96.8254 121.88 96.3654 121.79 95.7054 121.79C94.3954 121.79 93.4954 122.37 93.4954 123.48V123.5C93.4954 124.56 94.4554 125.11 95.4254 125.11ZM95.5754 124.49C94.8754 124.49 94.2754 124.11 94.2754 123.46V123.44C94.2754 122.82 94.8254 122.4 95.7854 122.4C96.4154 122.4 96.9154 122.51 97.2954 122.62V123.1C97.2954 123.92 96.5254 124.49 95.5754 124.49ZM104.978 125.1C106.008 125.1 106.818 124.53 106.818 123.55V123.53C106.818 122.6 105.958 122.29 105.158 122.05C104.468 121.84 103.828 121.65 103.828 121.16V121.14C103.828 120.71 104.218 120.39 104.828 120.39C105.328 120.39 105.878 120.58 106.358 120.89L106.708 120.31C106.178 119.96 105.478 119.74 104.848 119.74C103.828 119.74 103.088 120.33 103.088 121.22V121.24C103.088 122.19 103.988 122.47 104.798 122.7C105.478 122.89 106.088 123.09 106.088 123.61V123.63C106.088 124.13 105.638 124.45 105.018 124.45C104.408 124.45 103.788 124.21 103.228 123.79L102.838 124.34C103.418 124.81 104.238 125.1 104.978 125.1ZM110.149 125.11C111.039 125.11 111.569 124.66 111.919 124.1V125H112.679V119.83H111.919V122.79C111.919 123.76 111.249 124.41 110.369 124.41C109.459 124.41 108.939 123.81 108.939 122.85V119.83H108.169V123.04C108.169 124.27 108.899 125.11 110.149 125.11ZM116.741 125.12C117.711 125.12 118.331 124.7 118.851 124.12L118.361 123.66C117.951 124.1 117.441 124.43 116.781 124.43C115.701 124.43 114.881 123.54 114.881 122.42V122.4C114.881 121.29 115.681 120.4 116.731 120.4C117.431 120.4 117.891 120.75 118.301 121.18L118.811 120.64C118.331 120.13 117.721 119.72 116.741 119.72C115.231 119.72 114.091 120.96 114.091 122.42V122.44C114.091 123.89 115.231 125.12 116.741 125.12ZM122.024 125.11C122.914 125.11 123.444 124.66 123.794 124.1V125H124.554V119.83H123.794V122.79C123.794 123.76 123.124 124.41 122.244 124.41C121.334 124.41 120.814 123.81 120.814 122.85V119.83H120.044V123.04C120.044 124.27 120.774 125.11 122.024 125.11ZM126.286 125H127.056V122.94C127.056 121.38 127.976 120.57 129.106 120.57H129.166V119.74C128.186 119.7 127.436 120.32 127.056 121.18V119.83H126.286V125ZM132.049 125.1C133.079 125.1 133.889 124.53 133.889 123.55V123.53C133.889 122.6 133.029 122.29 132.229 122.05C131.539 121.84 130.899 121.65 130.899 121.16V121.14C130.899 120.71 131.289 120.39 131.899 120.39C132.399 120.39 132.949 120.58 133.429 120.89L133.779 120.31C133.249 119.96 132.549 119.74 131.919 119.74C130.899 119.74 130.159 120.33 130.159 121.22V121.24C130.159 122.19 131.059 122.47 131.869 122.7C132.549 122.89 133.159 123.09 133.159 123.61V123.63C133.159 124.13 132.709 124.45 132.089 124.45C131.479 124.45 130.859 124.21 130.299 123.79L129.909 124.34C130.489 124.81 131.309 125.1 132.049 125.1ZM136.859 125.11C137.769 125.11 138.359 124.69 138.719 124.23V125H139.479V121.84C139.479 121.18 139.299 120.68 138.939 120.32C138.569 119.95 137.999 119.75 137.269 119.75C136.509 119.75 135.959 119.93 135.389 120.19L135.619 120.82C136.099 120.6 136.579 120.45 137.189 120.45C138.159 120.45 138.719 120.93 138.719 121.85V122.01C138.259 121.88 137.799 121.79 137.139 121.79C135.829 121.79 134.929 122.37 134.929 123.48V123.5C134.929 124.56 135.889 125.11 136.859 125.11ZM137.009 124.49C136.309 124.49 135.709 124.11 135.709 123.46V123.44C135.709 122.82 136.259 122.4 137.219 122.4C137.849 122.4 138.349 122.51 138.729 122.62V123.1C138.729 123.92 137.959 124.49 137.009 124.49ZM141.18 125H141.95V117.7H141.18V125ZM147.459 125H148.229V119.26L152.749 125H153.379V118H152.609V123.61L148.199 118H147.459V125ZM156.659 121C157.479 121 158.229 120.29 158.229 119.48V119.46C158.229 118.64 157.479 117.94 156.659 117.94C155.839 117.94 155.089 118.64 155.089 119.46V119.48C155.089 120.29 155.839 121 156.659 121ZM156.659 120.48C156.089 120.48 155.669 120 155.669 119.48V119.46C155.669 118.94 156.089 118.46 156.659 118.46C157.229 118.46 157.649 118.94 157.649 119.46V119.48C157.649 120 157.229 120.48 156.659 120.48ZM164.331 125H165.111V117.95H164.531L162.821 118.54L163.011 119.18L164.331 118.77V125ZM169.075 125.12C170.805 125.12 171.985 123.55 171.985 121.33V121.31C171.985 119.91 171.645 119.13 171.115 118.6C170.665 118.15 170.075 117.88 169.275 117.88C167.785 117.88 166.755 118.93 166.755 120.26V120.28C166.755 121.54 167.755 122.45 169.195 122.45C170.165 122.45 170.795 121.94 171.175 121.33C171.205 123.12 170.355 124.4 169.095 124.4C168.475 124.4 167.945 124.15 167.375 123.65L166.915 124.26C167.505 124.75 168.165 125.12 169.075 125.12ZM169.285 121.77C168.265 121.77 167.565 121.13 167.565 120.24V120.22C167.565 119.35 168.195 118.58 169.245 118.58C170.295 118.58 171.025 119.28 171.025 120.17V120.19C171.025 120.99 170.355 121.77 169.285 121.77ZM179.221 125.11C180.171 125.11 180.781 124.58 181.201 123.96V125H181.971V117.7H181.201V120.82C180.801 120.24 180.181 119.72 179.221 119.72C177.981 119.72 176.751 120.72 176.751 122.41V122.43C176.751 124.13 177.981 125.11 179.221 125.11ZM179.361 124.42C178.381 124.42 177.541 123.64 177.541 122.42V122.4C177.541 121.15 178.361 120.41 179.361 120.41C180.321 120.41 181.231 121.21 181.231 122.4V122.42C181.231 123.61 180.321 124.42 179.361 124.42ZM184.152 122.73H188.252C188.262 122.61 188.262 122.53 188.262 122.46C188.262 120.94 187.382 119.72 185.852 119.72C184.422 119.72 183.372 120.92 183.372 122.42C183.372 124.03 184.532 125.12 185.952 125.12C186.932 125.12 187.562 124.73 188.082 124.15L187.602 123.72C187.182 124.16 186.682 124.45 185.972 124.45C185.062 124.45 184.262 123.82 184.152 122.73ZM184.152 122.11C184.262 121.11 184.942 120.37 185.832 120.37C186.852 120.37 187.392 121.17 187.482 122.11H184.152ZM193.332 125H194.122V123.12L195.612 121.61L198.302 125H199.292L196.162 121.06L199.162 118H198.142L194.122 122.18V118H193.332V125ZM200.519 125H201.309V121.95H205.099V121.23H201.309V118.73H205.549V118H200.519V125ZM210.135 125.12C211.405 125.12 212.205 124.63 212.935 123.89L212.415 123.38C211.745 124.02 211.115 124.39 210.155 124.39C208.615 124.39 207.445 123.12 207.445 121.5V121.48C207.445 119.87 208.605 118.61 210.155 118.61C211.105 118.61 211.765 119.01 212.355 119.57L212.895 118.99C212.195 118.33 211.435 117.88 210.165 117.88C208.105 117.88 206.625 119.52 206.625 121.5V121.52C206.625 123.53 208.115 125.12 210.135 125.12ZM218.24 122.73H222.34C222.35 122.61 222.35 122.53 222.35 122.46C222.35 120.94 221.47 119.72 219.94 119.72C218.51 119.72 217.46 120.92 217.46 122.42C217.46 124.03 218.62 125.12 220.04 125.12C221.02 125.12 221.65 124.73 222.17 124.15L221.69 123.72C221.27 124.16 220.77 124.45 220.06 124.45C219.15 124.45 218.35 123.82 218.24 122.73ZM218.24 122.11C218.35 121.11 219.03 120.37 219.92 120.37C220.94 120.37 221.48 121.17 221.57 122.11H218.24ZM223.698 125H224.468V122.04C224.468 121.07 225.128 120.42 226.018 120.42C226.928 120.42 227.448 121.02 227.448 121.98V125H228.218V121.79C228.218 120.56 227.488 119.72 226.238 119.72C225.348 119.72 224.808 120.17 224.468 120.73V119.83H223.698V125ZM29.32 134.73H33.42C33.43 134.61 33.43 134.53 33.43 134.46C33.43 132.94 32.55 131.72 31.02 131.72C29.59 131.72 28.54 132.92 28.54 134.42C28.54 136.03 29.7 137.12 31.12 137.12C32.1 137.12 32.73 136.73 33.25 136.15L32.77 135.72C32.35 136.16 31.85 136.45 31.14 136.45C30.23 136.45 29.43 135.82 29.32 134.73ZM29.32 134.11C29.43 133.11 30.11 132.37 31 132.37C32.02 132.37 32.56 133.17 32.65 134.11H29.32ZM34.848 137H35.618V129.7H34.848V137ZM43.0064 137.1C44.0364 137.1 44.8464 136.53 44.8464 135.55V135.53C44.8464 134.6 43.9864 134.29 43.1864 134.05C42.4964 133.84 41.8564 133.65 41.8564 133.16V133.14C41.8564 132.71 42.2464 132.39 42.8564 132.39C43.3564 132.39 43.9064 132.58 44.3864 132.89L44.7364 132.31C44.2064 131.96 43.5064 131.74 42.8764 131.74C41.8564 131.74 41.1164 132.33 41.1164 133.22V133.24C41.1164 134.19 42.0164 134.47 42.8264 134.7C43.5064 134.89 44.1164 135.09 44.1164 135.61V135.63C44.1164 136.13 43.6664 136.45 43.0464 136.45C42.4364 136.45 41.8164 136.21 41.2564 135.79L40.8664 136.34C41.4464 136.81 42.2664 137.1 43.0064 137.1ZM48.1769 137.11C49.0669 137.11 49.5969 136.66 49.9469 136.1V137H50.7069V131.83H49.9469V134.79C49.9469 135.76 49.2769 136.41 48.3969 136.41C47.4869 136.41 46.9669 135.81 46.9669 134.85V131.83H46.1969V135.04C46.1969 136.27 46.9269 137.11 48.1769 137.11ZM52.439 137H53.209V134.94C53.209 133.38 54.129 132.57 55.259 132.57H55.319V131.74C54.339 131.7 53.589 132.32 53.209 133.18V131.83H52.439V137ZM56.7271 134.73H60.8271C60.8371 134.61 60.8371 134.53 60.8371 134.46C60.8371 132.94 59.9571 131.72 58.4271 131.72C56.9971 131.72 55.9471 132.92 55.9471 134.42C55.9471 136.03 57.1071 137.12 58.5271 137.12C59.5071 137.12 60.1371 136.73 60.6571 136.15L60.1771 135.72C59.7571 136.16 59.2571 136.45 58.5471 136.45C57.6371 136.45 56.8371 135.82 56.7271 134.73ZM56.7271 134.11C56.8371 133.11 57.5171 132.37 58.4071 132.37C59.4271 132.37 59.9671 133.17 60.0571 134.11H56.7271ZM63.8951 137.1C64.9251 137.1 65.7351 136.53 65.7351 135.55V135.53C65.7351 134.6 64.8751 134.29 64.0751 134.05C63.3851 133.84 62.7451 133.65 62.7451 133.16V133.14C62.7451 132.71 63.1351 132.39 63.7451 132.39C64.2451 132.39 64.7951 132.58 65.2751 132.89L65.6251 132.31C65.0951 131.96 64.3951 131.74 63.7651 131.74C62.7451 131.74 62.0051 132.33 62.0051 133.22V133.24C62.0051 134.19 62.9051 134.47 63.7151 134.7C64.3951 134.89 65.0051 135.09 65.0051 135.61V135.63C65.0051 136.13 64.5551 136.45 63.9351 136.45C63.3251 136.45 62.7051 136.21 62.1451 135.79L61.7551 136.34C62.3351 136.81 63.1551 137.1 63.8951 137.1ZM68.7979 137.09C69.1679 137.09 69.4579 137.01 69.7279 136.87V136.21C69.4579 136.34 69.2379 136.39 68.9779 136.39C68.4579 136.39 68.1079 136.16 68.1079 135.53V132.51H69.7479V131.83H68.1079V130.27H67.3379V131.83H66.6179V132.51H67.3379V135.63C67.3379 136.68 67.9679 137.09 68.7979 137.09ZM71.4244 134.73H75.5244C75.5344 134.61 75.5344 134.53 75.5344 134.46C75.5344 132.94 74.6544 131.72 73.1244 131.72C71.6944 131.72 70.6444 132.92 70.6444 134.42C70.6444 136.03 71.8044 137.12 73.2244 137.12C74.2044 137.12 74.8344 136.73 75.3544 136.15L74.8744 135.72C74.4544 136.16 73.9544 136.45 73.2444 136.45C72.3344 136.45 71.5344 135.82 71.4244 134.73ZM71.4244 134.11C71.5344 133.11 72.2144 132.37 73.1044 132.37C74.1244 132.37 74.6644 133.17 74.7544 134.11H71.4244ZM81.5738 138.63C82.3538 138.63 82.8538 138.24 83.2938 137.17L85.4638 131.83H84.6438L82.9838 136.14L81.1038 131.83H80.2538L82.6038 136.98C82.2938 137.71 82.0038 137.95 81.5438 137.95C81.2138 137.95 80.9838 137.89 80.7338 137.76L80.4738 138.37C80.8238 138.54 81.1438 138.63 81.5738 138.63ZM92.2834 137.1C93.3134 137.1 94.1234 136.53 94.1234 135.55V135.53C94.1234 134.6 93.2634 134.29 92.4634 134.05C91.7734 133.84 91.1334 133.65 91.1334 133.16V133.14C91.1334 132.71 91.5234 132.39 92.1334 132.39C92.6334 132.39 93.1834 132.58 93.6634 132.89L94.0134 132.31C93.4834 131.96 92.7834 131.74 92.1534 131.74C91.1334 131.74 90.3934 132.33 90.3934 133.22V133.24C90.3934 134.19 91.2934 134.47 92.1034 134.7C92.7834 134.89 93.3934 135.09 93.3934 135.61V135.63C93.3934 136.13 92.9434 136.45 92.3234 136.45C91.7134 136.45 91.0934 136.21 90.5334 135.79L90.1434 136.34C90.7234 136.81 91.5434 137.1 92.2834 137.1ZM96.0139 134.73H100.114C100.124 134.61 100.124 134.53 100.124 134.46C100.124 132.94 99.2439 131.72 97.7139 131.72C96.2839 131.72 95.2339 132.92 95.2339 134.42C95.2339 136.03 96.3939 137.12 97.8139 137.12C98.7939 137.12 99.4239 136.73 99.9439 136.15L99.4639 135.72C99.0439 136.16 98.5439 136.45 97.8339 136.45C96.9239 136.45 96.1239 135.82 96.0139 134.73ZM96.0139 134.11C96.1239 133.11 96.8039 132.37 97.6939 132.37C98.7139 132.37 99.2539 133.17 99.3439 134.11H96.0139ZM107.693 137.12C108.663 137.12 109.283 136.7 109.803 136.12L109.313 135.66C108.903 136.1 108.393 136.43 107.733 136.43C106.653 136.43 105.833 135.54 105.833 134.42V134.4C105.833 133.29 106.633 132.4 107.683 132.4C108.383 132.4 108.843 132.75 109.253 133.18L109.763 132.64C109.283 132.13 108.673 131.72 107.693 131.72C106.183 131.72 105.043 132.96 105.043 134.42V134.44C105.043 135.89 106.183 137.12 107.693 137.12ZM111.39 134.73H115.49C115.5 134.61 115.5 134.53 115.5 134.46C115.5 132.94 114.62 131.72 113.09 131.72C111.66 131.72 110.61 132.92 110.61 134.42C110.61 136.03 111.77 137.12 113.19 137.12C114.17 137.12 114.8 136.73 115.32 136.15L114.84 135.72C114.42 136.16 113.92 136.45 113.21 136.45C112.3 136.45 111.5 135.82 111.39 134.73ZM111.39 134.11C111.5 133.11 112.18 132.37 113.07 132.37C114.09 132.37 114.63 133.17 114.72 134.11H111.39ZM116.918 137H117.688V129.7H116.918V137ZM119.935 134.73H124.035C124.045 134.61 124.045 134.53 124.045 134.46C124.045 132.94 123.165 131.72 121.635 131.72C120.205 131.72 119.155 132.92 119.155 134.42C119.155 136.03 120.315 137.12 121.735 137.12C122.715 137.12 123.345 136.73 123.865 136.15L123.385 135.72C122.965 136.16 122.465 136.45 121.755 136.45C120.845 136.45 120.045 135.82 119.935 134.73ZM119.935 134.11C120.045 133.11 120.725 132.37 121.615 132.37C122.635 132.37 123.175 133.17 123.265 134.11H119.935ZM128.143 137.11C129.393 137.11 130.613 136.11 130.613 134.42V134.4C130.613 132.7 129.383 131.72 128.143 131.72C127.193 131.72 126.583 132.25 126.163 132.87V129.7H125.393V137H126.163V136.01C126.563 136.59 127.183 137.11 128.143 137.11ZM128.003 136.42C127.043 136.42 126.133 135.62 126.133 134.42V134.4C126.133 133.22 127.043 132.41 128.003 132.41C128.983 132.41 129.823 133.19 129.823 134.41V134.43C129.823 135.68 129.003 136.42 128.003 136.42ZM132.033 137H132.803V134.94C132.803 133.38 133.723 132.57 134.853 132.57H134.913V131.74C133.933 131.7 133.183 132.32 132.803 133.18V131.83H132.033V137ZM138.221 137.12C139.781 137.12 140.931 135.88 140.931 134.42V134.4C140.931 132.94 139.791 131.72 138.241 131.72C136.681 131.72 135.541 132.96 135.541 134.42V134.44C135.541 135.9 136.671 137.12 138.221 137.12ZM138.241 136.43C137.151 136.43 136.331 135.53 136.331 134.42V134.4C136.331 133.31 137.101 132.4 138.221 132.4C139.311 132.4 140.141 133.31 140.141 134.42V134.44C140.141 135.53 139.361 136.43 138.241 136.43ZM146.678 134.73H150.778C150.788 134.61 150.788 134.53 150.788 134.46C150.788 132.94 149.908 131.72 148.378 131.72C146.948 131.72 145.898 132.92 145.898 134.42C145.898 136.03 147.058 137.12 148.478 137.12C149.458 137.12 150.088 136.73 150.608 136.15L150.128 135.72C149.708 136.16 149.208 136.45 148.498 136.45C147.588 136.45 146.788 135.82 146.678 134.73ZM146.678 134.11C146.788 133.11 147.468 132.37 148.358 132.37C149.378 132.37 149.918 133.17 150.008 134.11H146.678ZM152.206 137H152.976V129.7H152.206V137ZM160.904 137.12C162.204 137.12 163.244 136.26 163.244 135.01V134.99C163.244 133.71 162.154 133.12 160.934 133.02L163.134 130.58V130H158.664V130.71H162.084L159.874 133.2L160.034 133.67H160.484C161.634 133.67 162.444 134.15 162.444 135.02V135.04C162.444 135.86 161.764 136.4 160.914 136.4C160.054 136.4 159.404 136.02 158.864 135.36L158.294 135.87C158.864 136.61 159.734 137.12 160.904 137.12ZM167.497 137.12C169.297 137.12 170.457 135.46 170.457 133.5V133.48C170.457 131.52 169.317 129.88 167.517 129.88C165.717 129.88 164.547 131.54 164.547 133.5V133.52C164.547 135.48 165.687 137.12 167.497 137.12ZM167.517 136.4C166.207 136.4 165.367 135.03 165.367 133.5V133.48C165.367 131.94 166.187 130.6 167.497 130.6C168.797 130.6 169.637 131.97 169.637 133.5V133.52C169.637 135.05 168.827 136.4 167.517 136.4ZM177.367 137.11C178.277 137.11 178.867 136.69 179.227 136.23V137H179.987V133.84C179.987 133.18 179.807 132.68 179.447 132.32C179.077 131.95 178.507 131.75 177.777 131.75C177.017 131.75 176.467 131.93 175.897 132.19L176.127 132.82C176.607 132.6 177.087 132.45 177.697 132.45C178.667 132.45 179.227 132.93 179.227 133.85V134.01C178.767 133.88 178.307 133.79 177.647 133.79C176.337 133.79 175.437 134.37 175.437 135.48V135.5C175.437 136.56 176.397 137.11 177.367 137.11ZM177.517 136.49C176.817 136.49 176.217 136.11 176.217 135.46V135.44C176.217 134.82 176.767 134.4 177.727 134.4C178.357 134.4 178.857 134.51 179.237 134.62V135.1C179.237 135.92 178.467 136.49 177.517 136.49ZM181.618 137H182.388V134.04C182.388 133.07 183.048 132.42 183.938 132.42C184.848 132.42 185.368 133.02 185.368 133.98V137H186.138V133.79C186.138 132.56 185.408 131.72 184.158 131.72C183.268 131.72 182.728 132.17 182.388 132.73V131.83H181.618V137ZM187.8 130.7H188.68V129.85H187.8V130.7ZM187.85 137H188.62V131.83H187.85V137ZM192.137 137.04H192.817L195.067 131.83H194.237L192.487 136.12L190.747 131.83H189.897L192.137 137.04ZM196.433 134.73H200.533C200.543 134.61 200.543 134.53 200.543 134.46C200.543 132.94 199.663 131.72 198.133 131.72C196.703 131.72 195.653 132.92 195.653 134.42C195.653 136.03 196.813 137.12 198.233 137.12C199.213 137.12 199.843 136.73 200.363 136.15L199.883 135.72C199.463 136.16 198.963 136.45 198.253 136.45C197.343 136.45 196.543 135.82 196.433 134.73ZM196.433 134.11C196.543 133.11 197.223 132.37 198.113 132.37C199.133 132.37 199.673 133.17 199.763 134.11H196.433ZM201.891 137H202.661V134.94C202.661 133.38 203.581 132.57 204.711 132.57H204.771V131.74C203.791 131.7 203.041 132.32 202.661 133.18V131.83H201.891V137ZM207.654 137.1C208.684 137.1 209.494 136.53 209.494 135.55V135.53C209.494 134.6 208.634 134.29 207.834 134.05C207.144 133.84 206.504 133.65 206.504 133.16V133.14C206.504 132.71 206.894 132.39 207.504 132.39C208.004 132.39 208.554 132.58 209.034 132.89L209.384 132.31C208.854 131.96 208.154 131.74 207.524 131.74C206.504 131.74 205.764 132.33 205.764 133.22V133.24C205.764 134.19 206.664 134.47 207.474 134.7C208.154 134.89 208.764 135.09 208.764 135.61V135.63C208.764 136.13 208.314 136.45 207.694 136.45C207.084 136.45 206.464 136.21 205.904 135.79L205.514 136.34C206.094 136.81 206.914 137.1 207.654 137.1ZM212.464 137.11C213.374 137.11 213.964 136.69 214.324 136.23V137H215.084V133.84C215.084 133.18 214.904 132.68 214.544 132.32C214.174 131.95 213.604 131.75 212.874 131.75C212.114 131.75 211.564 131.93 210.994 132.19L211.224 132.82C211.704 132.6 212.184 132.45 212.794 132.45C213.764 132.45 214.324 132.93 214.324 133.85V134.01C213.864 133.88 213.404 133.79 212.744 133.79C211.434 133.79 210.534 134.37 210.534 135.48V135.5C210.534 136.56 211.494 137.11 212.464 137.11ZM212.614 136.49C211.914 136.49 211.314 136.11 211.314 135.46V135.44C211.314 134.82 211.864 134.4 212.824 134.4C213.454 134.4 213.954 134.51 214.334 134.62V135.1C214.334 135.92 213.564 136.49 212.614 136.49ZM216.715 137H217.485V134.94C217.485 133.38 218.405 132.57 219.535 132.57H219.595V131.74C218.615 131.7 217.865 132.32 217.485 133.18V131.83H216.715V137ZM220.788 130.7H221.668V129.85H220.788V130.7ZM220.838 137H221.608V131.83H220.838V137ZM225.755 137.12C227.315 137.12 228.465 135.88 228.465 134.42V134.4C228.465 132.94 227.325 131.72 225.775 131.72C224.215 131.72 223.075 132.96 223.075 134.42V134.44C223.075 135.9 224.205 137.12 225.755 137.12ZM225.775 136.43C224.685 136.43 223.865 135.53 223.865 134.42V134.4C223.865 133.31 224.635 132.4 225.755 132.4C226.845 132.4 227.675 133.31 227.675 134.42V134.44C227.675 135.53 226.895 136.43 225.775 136.43ZM31.03 149.11C31.98 149.11 32.59 148.58 33.01 147.96V149H33.78V141.7H33.01V144.82C32.61 144.24 31.99 143.72 31.03 143.72C29.79 143.72 28.56 144.72 28.56 146.41V146.43C28.56 148.13 29.79 149.11 31.03 149.11ZM31.17 148.42C30.19 148.42 29.35 147.64 29.35 146.42V146.4C29.35 145.15 30.17 144.41 31.17 144.41C32.13 144.41 33.04 145.21 33.04 146.4V146.42C33.04 147.61 32.13 148.42 31.17 148.42ZM35.9606 146.73H40.0606C40.0706 146.61 40.0706 146.53 40.0706 146.46C40.0706 144.94 39.1906 143.72 37.6606 143.72C36.2306 143.72 35.1806 144.92 35.1806 146.42C35.1806 148.03 36.3406 149.12 37.7606 149.12C38.7406 149.12 39.3706 148.73 39.8906 148.15L39.4106 147.72C38.9906 148.16 38.4906 148.45 37.7806 148.45C36.8706 148.45 36.0706 147.82 35.9606 146.73ZM35.9606 146.11C36.0706 145.11 36.7506 144.37 37.6406 144.37C38.6606 144.37 39.2006 145.17 39.2906 146.11H35.9606ZM44.5466 149H47.6566C49.1866 149 50.1966 148.29 50.1966 147.09V147.07C50.1966 146.11 49.5266 145.63 48.6966 145.38C49.2466 145.14 49.8066 144.67 49.8066 143.76V143.74C49.8066 143.29 49.6466 142.92 49.3566 142.62C48.9566 142.23 48.3266 142 47.5266 142H44.5466V149ZM45.3266 145.12V142.71H47.4566C48.4566 142.71 49.0066 143.16 49.0066 143.85V143.87C49.0066 144.69 48.3466 145.12 47.3966 145.12H45.3266ZM45.3266 148.29V145.82H47.5366C48.7566 145.82 49.3966 146.26 49.3966 147.02V147.04C49.3966 147.82 48.7366 148.29 47.6766 148.29H45.3266ZM53.5334 149.11C54.4234 149.11 54.9534 148.66 55.3034 148.1V149H56.0634V143.83H55.3034V146.79C55.3034 147.76 54.6334 148.41 53.7534 148.41C52.8434 148.41 52.3234 147.81 52.3234 146.85V143.83H51.5534V147.04C51.5534 148.27 52.2834 149.11 53.5334 149.11ZM57.7955 149H58.5655V146.94C58.5655 145.38 59.4855 144.57 60.6155 144.57H60.6755V143.74C59.6955 143.7 58.9455 144.32 58.5655 145.18V143.83H57.7955V149ZM63.9234 150.62C64.7434 150.62 65.4334 150.39 65.8934 149.93C66.3134 149.51 66.5534 148.9 66.5534 148.1V143.83H65.7834V144.76C65.3634 144.2 64.7334 143.72 63.7634 143.72C62.5334 143.72 61.3334 144.65 61.3334 146.16V146.18C61.3334 147.67 62.5234 148.6 63.7634 148.6C64.7134 148.6 65.3434 148.11 65.7934 147.51V148.12C65.7934 149.33 65.0534 149.96 63.9134 149.96C63.1734 149.96 62.5134 149.73 61.9234 149.3L61.5734 149.9C62.2634 150.38 63.0634 150.62 63.9234 150.62ZM63.9134 147.92C62.9534 147.92 62.1234 147.2 62.1234 146.16V146.14C62.1234 145.08 62.9334 144.4 63.9134 144.4C64.8934 144.4 65.8134 145.09 65.8134 146.15V146.17C65.8134 147.21 64.8934 147.92 63.9134 147.92ZM68.7341 146.73H72.8341C72.8441 146.61 72.8441 146.53 72.8441 146.46C72.8441 144.94 71.9641 143.72 70.4341 143.72C69.0041 143.72 67.9541 144.92 67.9541 146.42C67.9541 148.03 69.1141 149.12 70.5341 149.12C71.5141 149.12 72.1441 148.73 72.6641 148.15L72.1841 147.72C71.7641 148.16 71.2641 148.45 70.5541 148.45C69.6441 148.45 68.8441 147.82 68.7341 146.73ZM68.7341 146.11C68.8441 145.11 69.5241 144.37 70.4141 144.37C71.4341 144.37 71.9741 145.17 72.0641 146.11H68.7341ZM74.192 149H74.962V146.94C74.962 145.38 75.882 144.57 77.012 144.57H77.072V143.74C76.092 143.7 75.342 144.32 74.962 145.18V143.83H74.192V149ZM81.3728 149H82.1628V147.12L83.6528 145.61L86.3428 149H87.3328L84.2028 145.06L87.2028 142H86.1828L82.1628 146.18V142H81.3728V149ZM88.4503 142.7H89.3303V141.85H88.4503V142.7ZM88.5003 149H89.2703V143.83H88.5003V149ZM91.0573 149H91.8273V146.04C91.8273 145.07 92.4873 144.42 93.3773 144.42C94.2873 144.42 94.8073 145.02 94.8073 145.98V149H95.5773V145.79C95.5773 144.56 94.8473 143.72 93.5973 143.72C92.7073 143.72 92.1673 144.17 91.8273 144.73V143.83H91.0573V149ZM99.5094 150.62C100.329 150.62 101.019 150.39 101.479 149.93C101.899 149.51 102.139 148.9 102.139 148.1V143.83H101.369V144.76C100.949 144.2 100.319 143.72 99.3494 143.72C98.1194 143.72 96.9194 144.65 96.9194 146.16V146.18C96.9194 147.67 98.1094 148.6 99.3494 148.6C100.299 148.6 100.929 148.11 101.379 147.51V148.12C101.379 149.33 100.639 149.96 99.4994 149.96C98.7594 149.96 98.0994 149.73 97.5094 149.3L97.1594 149.9C97.8494 150.38 98.6494 150.62 99.5094 150.62ZM99.4994 147.92C98.5394 147.92 97.7094 147.2 97.7094 146.16V146.14C97.7094 145.08 98.5194 144.4 99.4994 144.4C100.479 144.4 101.399 145.09 101.399 146.15V146.17C101.399 147.21 100.479 147.92 99.4994 147.92ZM107.318 146.73H111.418C111.428 146.61 111.428 146.53 111.428 146.46C111.428 144.94 110.548 143.72 109.018 143.72C107.588 143.72 106.538 144.92 106.538 146.42C106.538 148.03 107.698 149.12 109.118 149.12C110.098 149.12 110.728 148.73 111.248 148.15L110.768 147.72C110.348 148.16 109.848 148.45 109.138 148.45C108.228 148.45 107.428 147.82 107.318 146.73ZM107.318 146.11C107.428 145.11 108.108 144.37 108.998 144.37C110.018 144.37 110.558 145.17 110.648 146.11H107.318ZM112.776 149H113.546V146.04C113.546 145.07 114.206 144.42 115.096 144.42C116.006 144.42 116.526 145.02 116.526 145.98V149H117.296V145.79C117.296 144.56 116.566 143.72 115.316 143.72C114.426 143.72 113.886 144.17 113.546 144.73V143.83H112.776V149ZM122.066 149H122.836V143.34L125.386 147.08H125.426L127.976 143.33V149H128.766V142H127.966L125.416 145.82L122.866 142H122.066V149ZM132.458 143.05H133.058L134.198 141.97L133.398 141.6L132.458 143.05ZM131.078 146.73H135.178C135.188 146.61 135.188 146.53 135.188 146.46C135.188 144.94 134.308 143.72 132.778 143.72C131.348 143.72 130.298 144.92 130.298 146.42C130.298 148.03 131.458 149.12 132.878 149.12C133.858 149.12 134.488 148.73 135.008 148.15L134.528 147.72C134.108 148.16 133.608 148.45 132.898 148.45C131.988 148.45 131.188 147.82 131.078 146.73ZM131.078 146.11C131.188 145.11 131.868 144.37 132.758 144.37C133.778 144.37 134.318 145.17 134.408 146.11H131.078ZM135.763 149H136.623L138.233 146.89L139.833 149H140.723L138.683 146.35L140.643 143.83H139.783L138.253 145.83L136.723 143.83H135.843L137.793 146.37L135.763 149ZM141.995 142.7H142.875V141.85H141.995V142.7ZM142.045 149H142.815V143.83H142.045V149ZM146.932 149.12C147.902 149.12 148.522 148.7 149.042 148.12L148.552 147.66C148.142 148.1 147.632 148.43 146.972 148.43C145.892 148.43 145.072 147.54 145.072 146.42V146.4C145.072 145.29 145.872 144.4 146.922 144.4C147.622 144.4 148.082 144.75 148.492 145.18L149.002 144.64C148.522 144.13 147.912 143.72 146.932 143.72C145.422 143.72 144.282 144.96 144.282 146.42V146.44C144.282 147.89 145.422 149.12 146.932 149.12ZM152.529 149.12C154.089 149.12 155.239 147.88 155.239 146.42V146.4C155.239 144.94 154.099 143.72 152.549 143.72C150.989 143.72 149.849 144.96 149.849 146.42V146.44C149.849 147.9 150.979 149.12 152.529 149.12ZM152.549 148.43C151.459 148.43 150.639 147.53 150.639 146.42V146.4C150.639 145.31 151.409 144.4 152.529 144.4C153.619 144.4 154.449 145.31 154.449 146.42V146.44C154.449 147.53 153.669 148.43 152.549 148.43Z" fill="black"/>
<g clip-path="url(#clip0_325_967)">
<path d="M65 58.9152V43.3534C65 43.311 65.0206 43.2898 65.0206 43.2473C65.0206 43.1837 65.0206 43.1201 65 43.0777V34.0035C65 33.9399 65.0206 33.8763 65.0206 33.8127C65.0206 29.9117 59.1872 23 46.5103 23C33.7097 23 28 29.9117 28 33.8127V37.5866V42.9717V59.424H28.0412C28.2061 60.4417 29.1337 61.7138 30.8033 62.6678C33.8953 64.47 39.1928 64.9788 46.5103 64.9788C53.8279 64.9788 59.1253 64.47 62.2173 62.6678C63.8869 61.7138 64.7939 60.4205 64.9794 59.424H65V59.2968C65 59.2332 65.0206 59.1484 65.0206 59.0848C65 59.0424 65 58.9788 65 58.9152Z" fill="white"/>
<path d="M62.3409 45.8761C61.6813 45.3673 60.6712 45.0068 59.2695 45.0068C56.7342 45.0068 54.2812 46.6393 54.2812 50.4556C54.2812 54.1022 56.7342 55.8196 59.1665 55.8196C61.7225 55.8196 63.3303 54.2082 63.3303 51.8337C63.3303 50.3284 62.4233 49.3107 60.5888 49.3107H60.0528C59.1046 49.3107 58.3626 49.7772 58.3626 50.7736C58.3626 51.6853 59.1665 52.1305 59.7643 52.1305C60.0528 52.1305 60.259 52.2153 60.259 52.4485C60.259 52.7454 59.9085 52.9362 59.5375 52.9362C58.3214 52.9362 57.4762 52.0669 57.4762 50.4768C57.4762 48.6959 58.6099 48.0598 59.4963 48.0598C60.5682 48.0598 60.7537 48.6111 61.4957 48.6111C62.3615 48.6111 62.9592 47.8902 62.9592 47.1482C62.9592 46.5757 62.7119 46.1517 62.3409 45.8761Z" fill="#E42313"/>
<path d="M47.8912 51.4735V53.8904C47.8912 54.9717 47.2934 55.841 46.1597 55.841C45.026 55.841 44.4282 54.9717 44.4282 53.8904V47C44.4282 45.8975 45.0672 45.007 46.2009 45.007C46.8811 45.007 47.4789 45.2827 48.0561 46.4275L49.5608 49.4381C49.6433 49.5865 49.7051 49.6501 49.7876 49.6501C49.9112 49.6501 49.9731 49.5653 49.9731 49.3533V46.9364C49.9731 45.8551 50.5708 44.9858 51.7045 44.9858C52.8176 44.9858 53.436 45.8551 53.436 46.9364V53.8268C53.436 54.9293 52.797 55.8198 51.6633 55.8198C51.0037 55.8198 50.3853 55.5441 49.8082 54.3993L48.3034 51.3887C48.221 51.2403 48.1591 51.1766 48.0767 51.1766C47.953 51.1766 47.8912 51.2615 47.8912 51.4735Z" fill="#E42313"/>
<path d="M33.1118 53.848V52.2579C33.1118 52.1307 33.1736 52.0247 33.2973 52.0247C33.4622 52.0247 33.5241 52.1943 33.5653 52.3003C33.8126 52.9152 34.5341 54.2297 35.2143 54.9929C35.6678 55.5017 36.2243 55.8198 36.8221 55.8198C37.8321 55.8198 38.6773 54.9081 38.6773 53.954C38.6773 53.3604 38.4299 52.9152 37.9558 52.3639C37.358 51.6855 36.6366 50.795 36.3686 50.371C36.2656 50.2226 36.2656 50.1166 36.2656 50.0742C36.2656 49.947 36.3274 49.8622 36.4511 49.735C36.7603 49.4381 37.5023 48.7173 37.9146 48.06C38.2238 47.5512 38.3681 47.106 38.3681 46.7244C38.3681 45.7491 37.5023 44.9858 36.5748 44.9858C35.977 44.9858 35.4204 45.3251 35.0288 45.9611C34.5135 46.8092 33.9157 47.7844 33.5241 48.1873C33.421 48.2933 33.3798 48.3145 33.2973 48.3145C33.1736 48.3145 33.1118 48.2297 33.1118 48.0812V46.9576C33.1118 45.8551 32.4728 44.9858 31.3391 44.9858C30.1848 44.9858 29.5664 45.8763 29.5664 46.9576V53.8268C29.5664 54.9293 30.1848 55.7986 31.3391 55.7986C32.4728 55.8198 33.1118 54.9293 33.1118 53.848Z" fill="#E42313"/>
<path d="M62.4234 56.9434C63.0624 56.9434 63.3304 57.2614 63.3304 57.8126C63.3304 58.7667 62.4647 60.1024 60.7744 61.0988C57.9505 62.7313 53.1271 63.1978 46.4279 63.1978C39.7287 63.1978 34.9053 62.7313 32.0814 61.0988C30.3911 60.1236 29.5254 58.7879 29.5254 57.8126C29.5254 57.2614 29.814 56.9434 30.4324 56.9434H62.4234Z" fill="#F07E26"/>
<path d="M62.4233 35.6574H30.4529C29.8139 35.6574 29.5459 35.3182 29.5459 34.7246C29.5459 31.1627 34.7609 24.8447 46.4484 24.8447C58.0122 24.8447 63.3509 31.1415 63.3509 34.7246C63.3509 35.3182 63.0623 35.6574 62.4233 35.6574Z" fill="#F07E26"/>
<path d="M60.3621 40.0884C60.1765 40.0884 60.0941 39.9824 60.0941 39.834V39.0707C60.0941 38.9223 60.1765 38.8163 60.3621 38.8163H60.5063C60.9598 38.8163 61.1041 39.1556 61.1041 39.4312C61.1041 39.7068 60.9598 40.0884 60.5063 40.0884H60.3621ZM51.9933 37.5018C51.5398 37.1626 50.9008 36.9082 49.9526 36.9082C48.2623 36.9082 46.6339 38.0531 46.6339 40.6821C46.6339 43.205 48.2623 44.3711 49.8907 44.3711C51.6016 44.3711 52.6735 43.2474 52.6735 41.6361C52.6735 40.5972 52.0757 39.8764 50.8595 39.8764H50.5091C49.8701 39.8764 49.3754 40.1944 49.3754 40.8941C49.3754 41.5089 49.9114 41.8269 50.303 41.8269C50.5091 41.8269 50.6328 41.8905 50.6328 42.0601C50.6328 42.251 50.4061 42.3994 50.1381 42.3994C49.3342 42.3994 48.7777 41.8057 48.7777 40.7033C48.7777 39.4736 49.5403 39.0283 50.1175 39.0283C50.8389 39.0283 50.9626 39.41 51.4573 39.41C52.0345 39.41 52.4261 38.9223 52.4261 38.4135C52.4055 37.9895 52.2406 37.6927 51.9933 37.5018ZM56.2601 41.5089H55.518C55.3325 41.5089 55.2501 41.6149 55.2501 41.7633V41.9753C55.2501 42.1237 55.3325 42.2298 55.518 42.2298H56.4868C57.0846 42.2298 57.5793 42.5902 57.5793 43.2474C57.5793 43.9259 57.1052 44.2863 56.4868 44.2863H54.4462C53.5804 44.2863 53.1682 43.7775 53.1682 43.0778V38.1591C53.1682 37.4594 53.5804 36.9506 54.4462 36.9506H56.4868C57.0846 36.9506 57.5793 37.311 57.5793 37.9683C57.5793 38.6467 57.1052 39.0071 56.4868 39.0071H55.518C55.3325 39.0071 55.2501 39.1131 55.2501 39.2616V39.4312C55.2501 39.5796 55.3325 39.6856 55.518 39.6856H56.2601C56.7754 39.6856 57.1877 40.0036 57.1877 40.576C57.1877 41.1485 56.7754 41.5089 56.2601 41.5089ZM58.0534 43.1414C58.0534 43.8199 58.4245 44.3499 59.1253 44.3499C59.8261 44.3499 60.1972 43.8199 60.1972 43.1414V41.9541C60.1972 41.8057 60.259 41.7421 60.3621 41.7421C60.4857 41.7421 60.527 41.8269 60.5476 41.9541C60.6506 42.5266 60.898 43.2898 61.2072 43.6927C61.5782 44.2015 61.9286 44.3499 62.279 44.3499C62.8356 44.3499 63.3303 43.8835 63.3303 43.3322C63.3303 42.9506 63.186 42.675 62.9799 42.4206C62.6089 41.9329 62.3821 41.6361 62.2378 41.2333C62.1966 41.1485 62.2172 41.0637 62.3203 40.9789C62.6501 40.7033 63.0417 40.1096 63.0417 39.1768C63.0417 37.7563 61.908 36.9506 60.527 36.9506H59.3314C58.4657 36.9506 58.0534 37.4594 58.0534 38.1591V43.1414ZM41.2334 43.1414C41.2334 43.8199 41.6044 44.3499 42.3052 44.3499C43.0061 44.3499 43.3771 43.8199 43.3771 43.1414V41.9541C43.3771 41.8057 43.4389 41.7421 43.542 41.7421C43.6657 41.7421 43.7069 41.8269 43.7275 41.9541C43.8306 42.5266 44.0779 43.2898 44.3871 43.6927C44.7582 44.2015 45.1086 44.3499 45.459 44.3499C46.0155 44.3499 46.5102 43.8835 46.5102 43.3322C46.5102 42.9506 46.366 42.675 46.1598 42.4206C45.8506 41.9965 45.5621 41.6361 45.4178 41.2333C45.3765 41.1485 45.3972 41.0637 45.5002 40.9789C45.83 40.7033 46.2217 40.1096 46.2217 39.1768C46.2217 37.7563 45.088 36.9506 43.7069 36.9506H42.4907C41.625 36.9506 41.2128 37.4594 41.2128 38.1591V43.1414H41.2334ZM43.542 40.0884C43.3565 40.0884 43.274 39.9824 43.274 39.834V39.0707C43.274 38.9223 43.3565 38.8163 43.542 38.8163H43.6863C44.1398 38.8163 44.2841 39.1556 44.2841 39.4312C44.2841 39.7068 44.1398 40.0884 43.6863 40.0884H43.542ZM31.7309 41.2333H31.9164C32.4317 41.2333 32.5966 41.5937 32.5966 41.9117C32.5966 42.2086 32.4523 42.6114 31.9164 42.6114H31.7309C31.5453 42.6114 31.4629 42.5054 31.4629 42.357V41.4877C31.4629 41.3393 31.5453 41.2333 31.7309 41.2333ZM31.7309 39.8976C31.5453 39.8976 31.4629 39.7916 31.4629 39.6432V38.8799C31.4629 38.7315 31.5453 38.6255 31.7309 38.6255H31.8751C32.3492 38.6255 32.4729 38.9647 32.4729 39.2404C32.4729 39.516 32.3286 39.8976 31.8751 39.8976H31.7309ZM30.8239 44.2863H32.3492C33.7921 44.2863 34.6785 43.2898 34.6785 42.0601C34.6785 41.0637 34.1013 40.6184 33.9777 40.4912C33.9158 40.4488 33.8746 40.4064 33.8746 40.364C33.8746 40.3004 33.9158 40.2792 33.957 40.2156C34.1632 39.9612 34.3693 39.5796 34.3693 39.0071C34.3693 37.6715 33.4829 36.9506 32.1225 36.9506H30.8239C29.9582 36.9506 29.5459 37.4594 29.5459 38.1591V43.0778C29.5459 43.7775 29.9582 44.2863 30.8239 44.2863ZM37.8529 44.3499C36.1008 44.3499 35.1732 43.2686 35.1732 41.9117V38.1379C35.1732 37.4594 35.5442 36.9294 36.2451 36.9294C36.9459 36.9294 37.3375 37.4594 37.3375 38.1379V41.7845C37.3375 42.0601 37.4612 42.357 37.8529 42.357C38.2445 42.357 38.3888 42.0389 38.3888 41.7845V38.1379C38.3888 37.4594 38.7598 36.9294 39.4607 36.9294C40.1615 36.9294 40.5325 37.4594 40.5325 38.1379V41.8905C40.5531 43.2686 39.605 44.3499 37.8529 44.3499Z" fill="#E42313"/>
<path d="M43.171 47.1058C43.171 45.9397 42.5114 45.0068 41.2952 45.0068C40.079 45.0068 39.4194 45.9397 39.4194 47.1058V53.7206C39.4194 54.8867 40.079 55.8196 41.2952 55.8196C42.5114 55.8196 43.171 54.8867 43.171 53.7206V47.1058Z" fill="#E42313"/>
<path d="M63.0831 55.8623C63.0831 56.1803 62.8564 56.4135 62.5472 56.4135C62.238 56.4135 62.0112 56.1803 62.0112 55.8623C62.0112 55.5443 62.238 55.311 62.5472 55.311C62.8564 55.311 63.0831 55.5443 63.0831 55.8623ZM62.9594 55.8623C62.9594 55.6291 62.7945 55.4382 62.5678 55.4382C62.341 55.4382 62.1761 55.6291 62.1761 55.8623C62.1761 56.0955 62.341 56.2863 62.5678 56.2863C62.7739 56.2863 62.9594 56.0955 62.9594 55.8623ZM62.7533 56.0955C62.7739 56.1167 62.7533 56.1379 62.7327 56.1379H62.6915C62.6708 56.1379 62.6502 56.1379 62.6296 56.1167C62.609 56.0531 62.5678 55.9895 62.5472 55.9259H62.4853V56.1167C62.4853 56.1379 62.4647 56.1591 62.4441 56.1591H62.4029C62.3823 56.1591 62.3616 56.1379 62.3616 56.1167V55.6291C62.3616 55.6079 62.3823 55.5867 62.4029 55.5867H62.5678C62.6708 55.5867 62.7533 55.6503 62.7533 55.7563C62.7533 55.8411 62.7121 55.8835 62.6708 55.9047C62.6708 55.9683 62.7121 56.0319 62.7533 56.0955ZM62.4853 55.8199H62.5678C62.609 55.8199 62.6502 55.7987 62.6502 55.7563C62.6502 55.7139 62.6296 55.6927 62.5678 55.6927H62.4853V55.8199Z" fill="#E42313"/>
</g>
<g clip-path="url(#clip1_325_967)">
<path d="M127.513 23.0002H109.409H106.591H88.4874C88.4874 23.0002 86.8434 22.8247 87.0196 25.106L90.014 63.4598C90.014 63.4598 89.9944 64.9807 91.9319 64.9807H106.943H109.096H124.107C126.025 64.9807 126.025 63.4598 126.025 63.4598L129.02 25.106C129.157 22.8442 127.513 23.0002 127.513 23.0002Z" fill="white"/>
<path d="M97.4705 52.7549H90.327L88.1546 25.3204C88.0372 24.209 88.9375 24.1895 88.9375 24.1895H97.4901" fill="#E12F2E"/>
<path d="M118.607 52.7549H125.751L127.923 25.3204C128.041 24.209 127.141 24.1895 127.141 24.1895H118.588" fill="#E12F2E"/>
<path fill-rule="evenodd" clip-rule="evenodd" d="M109.487 53.9443C109.429 53.9443 109.35 53.9443 109.292 53.9443C109.292 53.9443 109.292 53.9443 109.272 53.9443C108.881 53.8663 108.509 53.7493 108.137 53.6323C108.098 53.6128 108.059 53.5933 108.019 53.5738C107.961 53.5349 107.941 53.4764 107.961 53.4179C107.961 53.3789 107.98 53.3399 108 53.3204C108.019 53.2619 108.059 53.2034 108.059 53.1254C108.078 53.0474 108.078 52.9694 108.078 52.8914C108.078 52.6184 108.098 52.3454 108.098 52.0725C108.117 51.507 108.117 50.922 108.137 50.3566C108.137 50.2981 108.117 50.2396 108.098 50.1811C108.059 50.2201 108.019 50.2591 108 50.3176C107.824 50.7466 107.589 51.117 107.315 51.4875C107.021 51.8775 106.708 52.2284 106.356 52.5794C106.336 52.5989 106.317 52.6184 106.297 52.6379C106.18 52.7354 106.043 52.7744 105.886 52.7159C105.69 52.6574 105.495 52.5794 105.279 52.5209C105.103 52.4624 104.966 52.4039 104.829 52.2869C104.81 52.2869 104.81 52.2674 104.79 52.2674C105.984 51.1755 106.982 49.9471 107.667 48.5042C107.667 48.4847 107.648 48.4847 107.648 48.4847C107.628 48.4457 107.608 48.4262 107.55 48.4457C107.452 48.4652 107.374 48.4652 107.276 48.4652C107.139 48.4847 106.982 48.4847 106.826 48.4847C106.532 48.5042 106.219 48.5237 105.925 48.5432C105.749 48.5627 105.573 48.5627 105.377 48.5822C105.221 48.5822 105.084 48.5627 104.947 48.4847C104.868 48.4457 104.81 48.3677 104.771 48.2897C104.751 48.2117 104.751 48.1532 104.751 48.0752C104.751 47.8608 104.771 47.6268 104.771 47.4123C104.771 47.2758 104.771 47.1588 104.771 47.0223C104.771 46.8468 104.868 46.7298 105.045 46.7103C105.182 46.6908 105.319 46.6713 105.456 46.6518C105.651 46.6323 105.847 46.6128 106.043 46.5739C106.043 46.5739 106.062 46.5739 106.062 46.5544C105.964 46.4764 105.886 46.3789 105.769 46.3204C105.416 46.1059 105.064 45.8914 104.751 45.6379C104.32 45.3064 103.929 44.9555 103.596 44.507C103.009 43.7271 102.696 42.8691 102.735 41.8942C102.735 41.7382 102.716 41.6017 102.637 41.4847C102.481 41.1532 102.344 40.8218 102.226 40.4708C102.128 40.1588 102.07 39.8273 102.05 39.4959C102.031 39.3204 102.05 39.1254 102.05 38.9499C102.05 38.8914 102.031 38.8329 102.011 38.7744C101.972 38.7159 101.933 38.6769 101.894 38.6184C101.62 38.3259 101.365 38.014 101.111 37.702C100.661 37.078 100.289 36.3956 100.073 35.6351C99.9756 35.3232 99.9169 35.0112 99.8778 34.6797C99.8386 34.3482 99.8582 33.9973 99.8778 33.6658C99.8973 33.3343 99.9365 33.0223 99.9756 32.7103C99.9952 32.3789 100.034 32.0279 100.054 31.6964C100.073 31.5014 100.073 31.3064 100.073 31.1115C100.073 30.8775 100.054 30.663 99.9756 30.429C99.8973 30.195 99.7799 29.9805 99.6233 29.7856C99.5646 29.7271 99.5255 29.6686 99.5059 29.5711C99.5059 29.5516 99.4863 29.5516 99.4863 29.5516C99.4863 29.5321 99.4863 29.4931 99.4863 29.4736C99.4863 29.4541 99.5059 29.4346 99.5059 29.4346C99.5255 29.3956 99.5255 29.3566 99.545 29.3176C99.6429 29.1421 99.7603 29.0251 99.9365 28.9471C100.073 28.8886 100.23 28.8496 100.367 28.8106C100.758 28.7326 101.15 28.6156 101.522 28.4791C101.6 28.4401 101.678 28.4012 101.757 28.3427C101.874 28.2452 101.972 28.1477 102.07 28.0502C102.089 28.0307 102.089 28.0307 102.109 28.0112C102.07 27.9722 102.031 27.9527 101.991 27.9332C101.854 27.8552 101.717 27.7772 101.58 27.6992C101.443 27.6212 101.306 27.5237 101.189 27.4067C101.052 27.2702 100.954 27.1337 100.895 26.9388C100.895 26.9193 100.895 26.9193 100.876 26.8998C100.993 26.8803 101.091 26.8803 101.189 26.8608C101.483 26.8413 101.776 26.7633 102.05 26.6463C102.579 26.4318 102.95 26.0808 103.107 25.5349C103.127 25.4764 103.166 25.4179 103.224 25.3789C103.283 25.3399 103.322 25.3009 103.381 25.2814C103.479 25.2424 103.577 25.2034 103.675 25.1449C104.594 24.7549 105.553 24.4624 106.552 24.3064C106.845 24.2674 107.158 24.2285 107.452 24.2285C107.511 24.2285 107.589 24.209 107.648 24.1895C107.726 24.1895 107.804 24.1895 107.882 24.1895C107.902 24.1895 107.902 24.209 107.922 24.209C108.196 24.2479 108.47 24.2869 108.744 24.3259C108.959 24.3649 109.194 24.3844 109.409 24.4429C109.918 24.5599 110.407 24.7159 110.877 24.9109C111.464 25.1644 112.032 25.4569 112.56 25.8273C113.206 26.2758 113.773 26.8218 114.243 27.4457C114.713 28.0502 115.065 28.7326 115.32 29.4541C115.515 29.9805 115.633 30.507 115.711 31.053C115.75 31.3454 115.77 31.6184 115.789 31.9109C115.809 32.2229 115.789 32.5349 115.77 32.8468C115.75 33.1393 115.711 33.4318 115.652 33.7243C115.633 33.8023 115.633 33.8803 115.613 33.9388C115.691 33.9778 115.75 34.0168 115.809 34.0557C116.024 34.1922 116.161 34.4067 116.22 34.6407C116.22 34.6797 116.239 34.7187 116.239 34.7382C116.239 34.8357 116.239 34.9527 116.239 35.0502C116.239 35.0502 116.239 35.0697 116.22 35.0697C116.2 35.1672 116.2 35.2647 116.161 35.3622C116.004 36.0641 115.789 36.7661 115.496 37.429C115.241 38.0335 114.948 38.5989 114.674 39.1839C114.635 39.2619 114.595 39.3399 114.537 39.3984C114.419 39.5544 114.282 39.6323 114.106 39.6713C114.047 39.6908 113.969 39.6908 113.91 39.6908C113.813 39.6908 113.754 39.7493 113.734 39.8273C113.734 39.8663 113.715 39.9053 113.715 39.9443C113.715 40.0028 113.715 40.0808 113.734 40.1393C113.734 40.3733 113.734 40.6268 113.734 40.8608C113.715 41.1142 113.695 41.3677 113.636 41.6017C113.558 42.0307 113.441 42.4596 113.304 42.8886C113.088 43.5321 112.756 44.0975 112.306 44.6045C111.875 45.092 111.386 45.5014 110.838 45.8719C110.622 46.0084 110.407 46.1449 110.192 46.2619C110.074 46.3399 109.957 46.4179 109.84 46.4764C109.84 46.4764 109.82 46.4764 109.82 46.4959C109.84 46.5154 109.84 46.5349 109.84 46.5544C109.859 46.5544 109.879 46.5544 109.898 46.5544C110.035 46.5349 110.172 46.5154 110.329 46.5154C110.407 46.5154 110.466 46.5154 110.544 46.5154C110.74 46.5154 110.916 46.5154 111.112 46.5349C111.307 46.5349 111.425 46.6323 111.444 46.8273C111.444 46.8663 111.444 46.9248 111.444 46.9833C111.444 47.2953 111.444 47.6073 111.425 47.8998C111.425 47.9193 111.425 47.9388 111.425 47.9583C111.425 48.0362 111.405 48.1337 111.386 48.2117C111.347 48.3092 111.288 48.3677 111.17 48.4067C111.073 48.4457 110.975 48.4457 110.877 48.4457C110.622 48.4262 110.388 48.4262 110.133 48.4067C109.761 48.3872 109.389 48.3872 109.018 48.3677C108.959 48.3677 108.9 48.3677 108.861 48.3872C108.881 48.4652 108.9 48.5237 108.92 48.5822C109.037 48.9917 109.135 49.4206 109.194 49.8301C109.252 50.2201 109.311 50.6296 109.35 51.039C109.389 51.39 109.409 51.741 109.429 52.092C109.448 52.3649 109.448 52.6574 109.448 52.9304C109.448 53.1839 109.448 53.4374 109.429 53.6908C109.585 53.8078 109.566 53.8858 109.487 53.9443ZM103.127 27.3677C103.244 27.3482 103.361 27.3482 103.479 27.3287C103.733 27.2897 103.968 27.2312 104.223 27.1922C104.614 27.1337 105.005 27.1142 105.397 27.1337C105.769 27.1532 106.141 27.1922 106.493 27.2897C107.139 27.4652 107.706 27.7577 108.235 28.1867C108.313 28.2452 108.391 28.3037 108.45 28.3817C108.548 28.4791 108.567 28.5961 108.47 28.7131C108.45 28.7326 108.43 28.7716 108.391 28.7911C108.293 28.8691 108.176 28.9276 108.059 28.9666C107.902 29.0056 107.765 29.0056 107.628 28.9276C107.295 28.7716 106.943 28.6936 106.591 28.6546C106.375 28.6351 106.141 28.6351 105.925 28.6351C105.769 28.6546 105.612 28.6546 105.456 28.6936C105.123 28.7716 104.829 28.9276 104.594 29.1811C104.34 29.4541 104.125 29.7466 103.949 30.078C103.635 30.6435 103.44 31.2479 103.322 31.8914C103.303 32.0279 103.283 32.1644 103.244 32.3009C103.205 32.5349 103.087 32.7103 102.853 32.8273C102.794 32.8468 102.755 32.9053 102.735 32.9638C102.676 33.1003 102.657 33.2368 102.676 33.3928C102.676 33.4318 102.696 33.4903 102.716 33.5293C102.755 33.6073 102.813 33.6463 102.892 33.6268C102.931 33.6268 102.95 33.6268 102.99 33.6268C103.048 33.6268 103.107 33.6073 103.166 33.6073C103.557 33.6073 103.929 33.6268 104.32 33.6268C104.692 33.6268 105.045 33.6463 105.416 33.6463C105.632 33.6463 105.827 33.6853 106.043 33.7438C106.454 33.8413 106.826 34.0362 107.139 34.3287C107.276 34.4652 107.452 34.5042 107.628 34.4652C107.765 34.4457 107.902 34.4262 108.039 34.4262C108.078 34.4262 108.137 34.4262 108.176 34.4262C108.313 34.4262 108.45 34.4067 108.607 34.4067C108.704 34.4067 108.802 34.3677 108.881 34.3092C109.018 34.2117 109.155 34.1337 109.292 34.0557C109.566 33.9388 109.879 33.8608 110.172 33.8608C110.368 33.8413 110.564 33.8413 110.759 33.8413C111.268 33.8413 111.777 33.8218 112.286 33.8413C112.501 33.8608 112.736 33.8608 112.951 33.8803C113.284 33.8998 113.597 33.9583 113.91 34.0362C113.95 34.0362 113.969 34.0362 114.008 34.0362C114.067 34.0362 114.106 33.9973 114.126 33.9388C114.126 33.8998 114.145 33.8608 114.126 33.8413C114.126 33.7438 114.106 33.6658 114.106 33.5683C114.067 33.2368 113.95 32.9443 113.793 32.6518C113.578 32.3009 113.48 31.9109 113.48 31.5014C113.48 31.2284 113.48 30.9555 113.46 30.6825C113.46 30.6045 113.48 30.5265 113.48 30.4485C113.519 30.4485 113.539 30.4485 113.558 30.4485C113.578 30.468 113.578 30.4875 113.597 30.507C113.793 30.8775 113.969 31.2479 114.126 31.6184C114.321 32.0864 114.517 32.5739 114.713 33.0418C114.713 33.0613 114.732 33.0808 114.752 33.1198C114.772 33.0613 114.811 33.0223 114.83 32.9833C114.889 32.8663 114.928 32.7493 114.928 32.6323C114.928 32.5544 114.928 32.4569 114.928 32.3789C114.928 32.0474 114.948 31.6964 114.948 31.3649C114.928 30.897 114.869 30.4485 114.772 30C114.674 29.5321 114.517 29.0836 114.302 28.6351C113.91 27.8162 113.343 27.1337 112.619 26.5683C112.129 26.1783 111.601 25.8663 111.033 25.5934C110.094 25.1449 109.096 24.9304 108.039 24.9109C107.726 24.9109 107.413 24.9304 107.1 24.9694C106.728 25.0084 106.356 25.0864 106.004 25.1839C105.671 25.2814 105.358 25.3789 105.025 25.4764C104.868 25.5154 104.751 25.6323 104.614 25.7298C104.634 25.7688 104.634 25.7883 104.653 25.8078C104.731 25.8078 104.81 25.8078 104.868 25.8078C105.025 25.8078 105.142 25.8468 105.279 25.9248C105.26 25.9638 105.221 25.9833 105.201 26.0223C105.162 26.0808 105.103 26.1003 105.045 26.1198C104.927 26.1588 104.829 26.1978 104.712 26.2368C104.242 26.4318 103.812 26.6853 103.401 26.9973C103.283 27.0752 103.205 27.1727 103.087 27.2702C103.107 27.3092 103.107 27.3287 103.127 27.3677ZM113.989 39.1449C114.047 39.0474 114.126 38.9499 114.165 38.8524C114.361 38.4039 114.556 37.9555 114.732 37.4875C114.869 37.1365 115.026 36.7856 115.124 36.4151C115.183 36.2006 115.241 36.0056 115.241 35.7911C115.241 35.5961 115.222 35.3817 115.222 35.1867C115.222 35.1672 115.202 35.1282 115.202 35.1087C115.143 35.0112 115.085 34.9527 114.987 34.9137C114.967 34.8942 114.928 34.8942 114.889 34.8942C114.791 34.9137 114.713 34.9527 114.635 35.0307C114.576 35.0892 114.556 35.1477 114.556 35.2257C114.576 35.3037 114.595 35.3622 114.615 35.4401C114.635 35.4986 114.654 35.5376 114.674 35.5961C114.713 35.7521 114.674 35.8691 114.556 35.9861C114.478 36.0446 114.4 36.0836 114.302 36.1226C114.302 36.1226 114.302 36.1031 114.282 36.1031C114.282 36.0251 114.263 35.9666 114.263 35.8886C114.243 35.7131 114.243 35.5376 114.243 35.3622C114.224 35.2062 114.224 35.0307 114.204 34.8747C114.204 34.7967 114.145 34.7187 114.087 34.6602C114.047 34.6212 113.989 34.6017 113.93 34.6212C113.871 34.6407 113.813 34.6407 113.773 34.6602C113.558 34.7577 113.402 34.9137 113.284 35.1087C113.265 35.1477 113.245 35.2062 113.225 35.2452C113.206 35.3232 113.186 35.3817 113.167 35.4596C113.088 35.7521 113.03 36.0446 112.912 36.3371C112.814 36.5906 112.697 36.8051 112.501 37C112.286 37.195 112.032 37.312 111.738 37.3315C111.601 37.351 111.523 37.2925 111.484 37.1755V37.156C111.464 37.117 111.464 37.0975 111.503 37.078C111.523 37.0585 111.542 37.0585 111.562 37.0585C111.601 37.039 111.64 37.039 111.66 37.039C111.875 36.9805 112.051 36.883 112.208 36.7271C112.364 36.5711 112.462 36.3761 112.521 36.1616C112.521 36.1421 112.521 36.1421 112.521 36.1226C112.521 36.0641 112.501 36.0251 112.462 35.9861C112.403 35.9471 112.325 35.9276 112.247 35.9081C112.169 35.8886 112.09 35.8691 112.012 35.8496C111.973 35.8301 111.934 35.8106 111.914 35.7716C111.895 35.7326 111.875 35.6936 111.836 35.6741C111.738 35.5571 111.621 35.4986 111.464 35.5181C111.425 35.5181 111.386 35.5181 111.347 35.5376C111.151 35.5766 110.975 35.6156 110.779 35.6351C110.603 35.6546 110.407 35.6546 110.231 35.6156C109.957 35.5766 109.703 35.4791 109.468 35.3427C109.389 35.3037 109.311 35.2842 109.213 35.2647C109.233 35.3622 109.252 35.4401 109.311 35.5376C109.37 35.6351 109.35 35.7131 109.272 35.7911C109.233 35.8301 109.174 35.8691 109.115 35.9081C109.096 35.9276 109.057 35.9276 109.018 35.9471C108.959 35.9666 108.92 35.9471 108.881 35.9081C108.861 35.8886 108.841 35.8496 108.822 35.8106C108.724 35.6351 108.646 35.4401 108.567 35.2452C108.548 35.1867 108.528 35.1282 108.489 35.0892C108.391 34.9527 108.274 34.8552 108.098 34.8552C108.039 34.8552 107.98 34.8552 107.941 34.8747C107.726 34.9137 107.55 35.0112 107.452 35.2257C107.413 35.3232 107.393 35.4206 107.374 35.5181C107.354 35.6741 107.354 35.8496 107.354 36.0056C107.334 36.2396 107.315 36.4541 107.256 36.6686C107.217 36.8635 107.158 37.0585 107.08 37.2535C107.002 37.4485 107.021 37.624 107.119 37.7995C107.158 37.8775 107.217 37.9555 107.276 38.0335C107.628 38.4624 108.078 38.6574 108.646 38.5989C108.998 38.5599 109.311 38.4039 109.605 38.209C109.722 38.131 109.761 38.0335 109.742 37.897C109.722 37.819 109.703 37.741 109.703 37.663C109.703 37.624 109.683 37.6045 109.683 37.5655C109.683 37.4875 109.722 37.429 109.8 37.4485C109.84 37.4485 109.859 37.4485 109.898 37.468C109.957 37.4875 110.035 37.507 110.094 37.546C110.211 37.6045 110.329 37.663 110.427 37.7605C110.544 37.897 110.681 38.0335 110.799 38.17C110.936 38.3259 111.053 38.5014 111.19 38.6574C111.366 38.8719 111.562 39.0474 111.816 39.1644C111.875 39.1839 111.914 39.2229 111.953 39.2619C112.012 39.3009 112.032 39.3594 112.051 39.4179C112.09 39.6323 112.129 39.8663 112.129 40.0808C112.129 40.2563 112.11 40.4123 112.071 40.5683C112.012 40.7828 111.914 40.9583 111.777 41.1337C111.601 41.3677 111.464 41.6212 111.425 41.9137C111.386 42.0892 111.327 42.2647 111.249 42.4401C111.229 42.4596 111.229 42.4791 111.21 42.4986C111.17 42.5181 111.112 42.5571 111.073 42.5766C110.994 42.4986 110.994 42.4596 110.975 42.3817C110.955 42.2257 110.955 42.0502 110.936 41.8942C110.936 41.8357 110.936 41.7772 110.916 41.7187C110.857 41.4067 110.544 41.2507 110.27 41.3482C110.192 41.3677 110.114 41.4067 110.035 41.4262C109.683 41.5237 109.35 41.5822 108.978 41.6017C108.665 41.6212 108.333 41.6017 108.019 41.5627C107.902 41.5432 107.785 41.5432 107.687 41.5432C107.452 41.5627 107.256 41.6797 107.1 41.8162C107.08 41.8357 107.08 41.8357 107.06 41.8552C107.158 41.9137 107.256 41.9722 107.354 42.0112C107.648 42.1477 107.785 42.4206 107.726 42.7326C107.706 42.8106 107.687 42.9081 107.628 42.9861C107.471 42.8106 107.334 42.6351 107.197 42.4596C107.158 42.4596 107.119 42.4791 107.08 42.4791C107.08 42.4986 107.1 42.5181 107.1 42.5376C107.119 42.6351 107.139 42.7521 107.158 42.8496C107.178 43.1031 107.158 43.3566 107.1 43.6101C107.041 43.8245 106.982 44.0585 106.923 44.273C106.904 44.39 106.865 44.4875 106.865 44.6045C106.865 44.819 106.904 45.0335 107.002 45.2479C107.139 45.5794 107.354 45.8524 107.608 46.1059C107.882 46.3984 108.196 46.6713 108.489 46.9248C108.528 46.9638 108.567 46.9833 108.607 47.0028C108.685 47.0418 108.744 47.0223 108.783 46.9443C108.802 46.9053 108.822 46.8468 108.841 46.7883C108.881 46.6323 108.939 46.4764 109.037 46.3594C109.115 46.2424 109.194 46.1449 109.272 46.0279C109.35 45.9109 109.448 45.7939 109.526 45.6769C109.663 45.4624 109.722 45.2284 109.644 44.9555C109.624 44.8775 109.663 44.7995 109.663 44.7215C109.703 44.741 109.722 44.7605 109.742 44.78C109.781 44.819 109.82 44.8385 109.84 44.8775C110.016 45.0335 110.172 45.0725 110.388 44.9555C110.446 44.9165 110.505 44.897 110.564 44.858C110.975 44.6435 111.366 44.3705 111.718 44.078C112.09 43.7466 112.423 43.3761 112.658 42.9276C113.069 42.2062 113.265 41.4067 113.323 40.5878C113.343 40.3733 113.323 40.1588 113.343 39.9443C113.343 39.8663 113.362 39.7883 113.382 39.7103C113.421 39.5739 113.48 39.4374 113.558 39.3204C113.636 39.1839 113.734 39.0474 113.793 38.9109C113.793 38.9109 113.793 38.9109 113.813 38.9109C113.852 38.9694 113.91 39.0084 113.969 39.0669C113.93 39.1254 113.969 39.1254 113.989 39.1449ZM103.048 37.195C103.048 37.195 103.048 37.2145 103.048 37.195C103.048 37.2925 103.068 37.39 103.087 37.4875C103.087 37.507 103.107 37.5265 103.107 37.5265C103.244 37.7605 103.401 38.014 103.538 38.2479C103.616 38.3649 103.694 38.4624 103.772 38.5599C103.909 38.7159 104.105 38.7744 104.32 38.7159C104.399 38.6964 104.477 38.6574 104.555 38.6184C104.712 38.5404 104.849 38.4429 105.005 38.3649C105.142 38.2869 105.26 38.2089 105.397 38.1505C105.456 38.1115 105.514 38.053 105.553 37.975C105.612 37.819 105.671 37.663 105.749 37.507V37.4875C105.73 37.4875 105.73 37.4875 105.73 37.4875C105.612 37.507 105.475 37.5265 105.358 37.546C105.279 37.546 105.182 37.5655 105.103 37.5655C105.025 37.5655 104.947 37.5265 104.908 37.468C104.868 37.4095 104.829 37.3315 104.79 37.273C104.829 37.2535 104.868 37.2145 104.908 37.195C104.986 37.1365 105.084 37.117 105.201 37.0975C105.436 37.0975 105.671 37.039 105.886 36.922C106.141 36.8051 106.297 36.6101 106.395 36.3566C106.415 36.3176 106.415 36.2786 106.415 36.2396C106.415 36.1616 106.395 36.1031 106.356 36.0446C106.336 36.0251 106.336 36.0056 106.317 35.9861C106.238 35.9081 106.238 35.8301 106.317 35.7326C106.356 35.6741 106.395 35.6156 106.454 35.5766C106.473 35.5571 106.473 35.5181 106.454 35.4986C106.454 35.4791 106.434 35.4791 106.434 35.4596C106.375 35.4791 106.317 35.4986 106.278 35.5181C106.023 35.6156 105.749 35.6156 105.495 35.5766C105.358 35.5571 105.221 35.5181 105.064 35.4986C104.908 35.4791 104.751 35.4986 104.594 35.5376C104.379 35.5961 104.223 35.7326 104.086 35.8886C104.046 35.9276 104.027 35.9666 103.988 35.9861C103.909 36.0641 103.812 36.0836 103.714 36.0251C103.655 35.9861 103.596 35.9471 103.557 35.9081C103.538 35.8886 103.518 35.8691 103.498 35.8496C103.479 35.8301 103.459 35.8301 103.44 35.8301C103.322 35.8301 103.185 35.8496 103.068 35.8886C103.029 35.9081 103.009 35.9276 103.009 35.9471C102.99 36.0251 102.99 36.1031 103.029 36.1811C103.166 36.5126 103.381 36.7856 103.694 36.9805C103.733 37 103.772 37.039 103.812 37.0585C103.89 37.0975 103.909 37.1755 103.89 37.2535C103.87 37.351 103.831 37.429 103.714 37.468C103.694 37.468 103.675 37.468 103.635 37.468C103.596 37.468 103.557 37.4485 103.518 37.429C103.459 37.39 103.381 37.3705 103.322 37.3315C103.224 37.2925 103.127 37.2535 103.048 37.195ZM104.888 28.2062C104.79 28.1672 104.634 28.1282 104.536 28.1282C104.32 28.1282 104.105 28.1672 103.909 28.2647C103.381 28.5181 102.872 28.7911 102.383 29.0836C102.148 29.2201 101.913 29.3566 101.639 29.4541C101.385 29.5516 101.13 29.6296 100.856 29.6296C100.817 29.6296 100.778 29.6296 100.758 29.6296C100.641 29.6491 100.602 29.7076 100.621 29.8245C100.621 29.844 100.641 29.883 100.641 29.9025C100.68 30.0195 100.739 30.117 100.798 30.2145C100.915 30.4095 100.974 30.624 101.013 30.8385C101.032 31.053 101.013 31.2674 100.993 31.4624C100.954 31.6964 100.935 31.9499 100.895 32.1839C100.856 32.4764 100.856 32.7493 100.856 33.0418C100.856 33.3148 100.876 33.5683 100.935 33.8413C100.954 33.9193 100.974 33.9778 100.993 34.0362C101.052 34.1337 101.13 34.1727 101.228 34.1337C101.287 34.1142 101.346 34.0752 101.385 34.0557C101.443 34.0168 101.483 33.9778 101.502 33.9193C101.522 33.8608 101.541 33.7828 101.561 33.7048C101.561 33.5488 101.58 33.3928 101.58 33.2368C101.6 32.9833 101.639 32.7298 101.678 32.4764C101.737 32.0864 101.835 31.6964 101.972 31.3064C102.031 31.131 102.109 30.975 102.226 30.819C102.383 30.624 102.539 30.429 102.716 30.234C102.833 30.0975 102.95 29.961 103.048 29.8245C103.185 29.5906 103.342 29.3761 103.518 29.1811C103.831 28.8106 104.223 28.5181 104.653 28.3232C104.731 28.3037 104.79 28.2452 104.888 28.2062ZM105.436 39.9638C105.514 40.1003 105.593 40.1783 105.71 40.1978C105.769 40.2173 105.827 40.2173 105.886 40.2173C106.101 40.2173 106.336 40.1783 106.552 40.1393C106.826 40.1003 107.1 40.0613 107.374 40.0418C107.608 40.0223 107.843 40.0223 108.098 40.0028C108.47 40.0028 108.841 40.0028 109.213 40.0418C109.37 40.0418 109.526 40.0613 109.683 40.0808C109.859 40.1003 110.035 40.1198 110.231 40.1198C110.388 40.1393 110.544 40.1393 110.681 40.1588C110.896 40.1783 111.092 40.1783 111.288 40.1393C111.366 40.1198 111.405 40.0808 111.444 40.0223C111.464 39.9833 111.464 39.9443 111.425 39.9053C111.386 39.8663 111.347 39.8273 111.288 39.8078C111.268 39.7883 111.229 39.7883 111.21 39.7688C110.994 39.6713 110.818 39.5154 110.681 39.3204C110.564 39.1644 110.446 39.0084 110.329 38.8329C110.29 38.7744 110.231 38.7159 110.172 38.6574C110.114 38.5794 110.016 38.5404 109.918 38.5599C109.859 38.5599 109.8 38.5989 109.742 38.6379C109.644 38.7159 109.546 38.7549 109.429 38.8134C109.272 38.8914 109.115 38.9694 108.959 39.0669C108.881 39.1059 108.822 39.1644 108.763 39.2229C108.704 39.2814 108.665 39.3204 108.607 39.3594C108.489 39.4374 108.372 39.4764 108.235 39.4374C108 39.3789 107.765 39.3399 107.53 39.2619C107.393 39.2229 107.256 39.1644 107.119 39.1254C106.963 39.0669 106.786 39.0474 106.63 39.1059C106.512 39.1449 106.415 39.2034 106.317 39.2814C106.141 39.4374 105.945 39.5739 105.749 39.7103C105.671 39.7688 105.593 39.8078 105.514 39.8663C105.534 39.8858 105.495 39.9248 105.436 39.9638ZM105.632 42.0502C105.632 42.0502 105.612 42.0502 105.632 42.0502C105.573 42.1477 105.514 42.2452 105.475 42.3427C105.456 42.3817 105.436 42.4401 105.397 42.4791C105.319 42.6156 105.24 42.6156 105.162 42.4986C105.103 42.4401 105.064 42.3622 105.025 42.2842C104.966 42.1867 104.908 42.0697 104.888 41.9527C104.771 41.3092 104.653 40.6658 104.516 40.0223C104.497 39.9443 104.477 39.8468 104.457 39.7688C104.418 39.6518 104.34 39.6128 104.223 39.6518C104.046 39.6908 103.89 39.7883 103.753 39.9248C103.577 40.1393 103.498 40.3733 103.557 40.6463C103.577 40.8023 103.616 40.9778 103.675 41.1337C103.812 41.6407 104.007 42.1087 104.32 42.5376C104.536 42.8496 104.81 43.1226 105.123 43.3566C105.338 43.5126 105.593 43.6101 105.867 43.6491C105.906 43.6491 105.945 43.6491 106.004 43.6491C106.101 43.6296 106.16 43.5711 106.16 43.4736C106.16 43.4151 106.141 43.3761 106.141 43.3176C106.101 43.1811 106.062 43.0251 106.023 42.8886C105.945 42.6351 105.867 42.4011 105.808 42.1477C105.73 42.0697 105.71 42.0307 105.632 42.0502ZM109.703 40.8413C108.861 40.7438 108.039 40.7048 107.217 40.8413C107.237 40.8998 107.256 40.9388 107.295 40.9778C107.413 41.1142 107.569 41.1727 107.745 41.1727C107.882 41.1727 108.039 41.1727 108.176 41.1532C108.352 41.1532 108.509 41.1337 108.685 41.1142C108.802 41.0947 108.939 41.0947 109.057 41.0752C109.233 41.0362 109.389 40.9973 109.566 40.9583C109.605 40.9388 109.663 40.9388 109.703 40.9193C109.703 40.8998 109.703 40.8803 109.703 40.8413ZM103.714 35.1867C103.753 35.1867 103.812 35.1672 103.851 35.1867C104.007 35.1867 104.144 35.1477 104.301 35.0892C104.497 34.9917 104.692 34.9137 104.908 34.8552C105.162 34.7967 105.397 34.7772 105.651 34.8357C105.671 34.8357 105.671 34.8357 105.69 34.8357V34.8162C105.612 34.4847 105.319 34.2897 104.966 34.4262C104.908 34.4457 104.829 34.4847 104.771 34.5042C104.438 34.6602 104.105 34.8357 103.772 34.9917C103.714 35.0502 103.694 35.0892 103.714 35.1867ZM110.251 34.9722C110.368 34.9722 110.466 34.9527 110.564 34.9332C110.701 34.8942 110.857 34.8942 110.994 34.9137C111.17 34.9332 111.307 35.0112 111.444 35.1282C111.562 35.2257 111.699 35.3037 111.836 35.3622C111.934 35.4012 112.032 35.4012 112.129 35.3817C112.11 35.3622 112.11 35.3427 112.09 35.3232C112.032 35.2647 111.992 35.2257 111.934 35.1672C111.816 35.0697 111.699 34.9527 111.562 34.8552C111.484 34.7967 111.425 34.7382 111.347 34.6797C111.053 34.4847 110.701 34.4847 110.427 34.6992C110.368 34.7772 110.309 34.8552 110.251 34.9722ZM101.424 34.7577C101.306 34.7577 101.228 34.7967 101.169 34.8552C101.111 34.9137 101.091 34.9722 101.13 35.0502C101.248 35.3817 101.385 35.7131 101.502 36.0446C101.522 36.1031 101.58 36.1226 101.639 36.1421C101.659 36.1421 101.678 36.1421 101.678 36.1226C101.698 36.1031 101.717 36.0641 101.717 36.0251C101.678 35.6741 101.639 35.3427 101.58 34.9917C101.58 34.9332 101.541 34.8747 101.522 34.8162C101.502 34.7772 101.463 34.7577 101.424 34.7577ZM104.027 34.3872C104.007 34.3872 104.007 34.3677 104.007 34.3677C103.988 34.3677 103.949 34.3482 103.929 34.3482C103.694 34.2897 103.459 34.3092 103.244 34.3677C103.166 34.3872 103.087 34.4262 103.029 34.4847C102.95 34.5627 102.892 34.6407 102.853 34.7187C102.833 34.7382 102.833 34.7772 102.833 34.7967C102.813 34.9137 102.911 35.0112 103.009 34.9917C103.029 34.9917 103.068 34.9722 103.087 34.9722C103.42 34.7967 103.714 34.6017 104.027 34.4067C104.007 34.3872 104.027 34.3872 104.027 34.3872ZM106.728 37.468C106.669 37.468 106.63 37.4875 106.571 37.4875C106.473 37.4875 106.415 37.546 106.375 37.624C106.375 37.6435 106.356 37.663 106.356 37.663C106.317 37.741 106.297 37.819 106.258 37.897C106.238 37.9165 106.258 37.936 106.258 37.9555C106.278 37.9945 106.297 38.0335 106.336 38.0725C106.415 38.17 106.473 38.2869 106.552 38.3844C106.571 38.4234 106.61 38.4429 106.649 38.4429C106.669 38.4429 106.689 38.4429 106.728 38.4429C106.786 38.4429 106.806 38.4234 106.806 38.3649C106.806 38.3259 106.806 38.3064 106.806 38.2674C106.806 38.1115 106.786 37.975 106.786 37.8385C106.767 37.702 106.747 37.585 106.728 37.468ZM112.58 34.9137C112.58 34.8357 112.56 34.7577 112.56 34.6797C112.56 34.5432 112.482 34.4457 112.364 34.4067C112.169 34.3092 111.973 34.3092 111.777 34.3482C111.738 34.3482 111.679 34.3677 111.64 34.4067C111.66 34.4262 111.66 34.4652 111.699 34.4652C111.875 34.6017 112.051 34.7577 112.247 34.8747C112.286 34.8942 112.325 34.9137 112.345 34.9137C112.403 34.8942 112.482 34.9137 112.58 34.9137ZM101.874 34.1532C101.894 34.2507 101.913 34.3482 101.933 34.4457C101.952 34.5042 101.952 34.5237 102.031 34.5237C102.07 34.5237 102.089 34.5237 102.128 34.5237C102.207 34.5237 102.305 34.5042 102.383 34.5042C102.52 34.4847 102.481 34.4847 102.5 34.3872C102.5 34.3482 102.52 34.3092 102.5 34.2507C102.305 34.2117 102.089 34.1727 101.874 34.1532ZM112.932 34.2702C112.932 34.3287 112.912 34.3677 112.912 34.4262C112.912 34.5237 112.951 34.5822 113.049 34.6017C113.069 34.6017 113.088 34.6017 113.088 34.6017C113.147 34.6017 113.206 34.6017 113.265 34.6017C113.284 34.6017 113.323 34.6017 113.343 34.5822C113.402 34.5432 113.46 34.4847 113.48 34.4067C113.48 34.3872 113.48 34.3872 113.48 34.3677C113.441 34.3092 113.402 34.2702 113.343 34.2702C113.225 34.2507 113.088 34.2702 112.932 34.2702Z" fill="black"/>
<path fill-rule="evenodd" clip-rule="evenodd" d="M121.25 56.3041C121.25 56.2846 121.309 56.2846 121.328 56.2456C121.446 56.2066 121.465 56.1286 121.504 56.0506C121.543 55.9921 121.583 55.8946 121.583 55.8361C121.583 55.7581 121.563 55.6606 121.504 55.5826C121.465 55.5046 121.406 55.4656 121.328 55.4071C121.309 55.4071 121.25 55.4071 121.25 55.3681V55.2901C121.309 55.2901 121.328 55.3291 121.406 55.3291C121.465 55.3876 121.543 55.4266 121.563 55.5436C121.641 55.6606 121.68 55.7191 121.68 55.8361C121.68 55.9531 121.641 56.0116 121.622 56.1091C121.543 56.1871 121.465 56.2651 121.406 56.3236C121.328 56.3236 121.289 56.382 121.25 56.382V56.3041ZM121.25 56.1286V56.1676H121.367L121.309 56.0311C121.25 56.0311 121.25 55.9921 121.25 55.9531V56.1286V56.1286ZM121.25 55.8556L121.309 55.8166C121.328 55.8166 121.328 55.7386 121.328 55.7191C121.328 55.6801 121.328 55.6801 121.309 55.6411C121.309 55.6021 121.25 55.6021 121.25 55.5631V55.8556ZM121.113 56.421C121.172 56.421 121.191 56.421 121.269 56.382V56.3041H121.113V56.421ZM121.25 55.3876V55.3096C121.191 55.2706 121.152 55.2706 121.093 55.2706V55.3876H121.25ZM121.25 55.5631H121.093V55.6411H121.172C121.172 55.6411 121.172 55.6801 121.211 55.6801V55.7191C121.211 55.7386 121.211 55.7776 121.172 55.7776C121.172 55.8166 121.132 55.8166 121.093 55.8166V55.9141C121.152 55.9726 121.152 56.0116 121.172 56.0701L121.23 56.1286V55.9531C121.211 55.9531 121.211 55.8946 121.211 55.8946C121.172 55.8946 121.172 55.8751 121.132 55.8751C121.172 55.8751 121.211 55.8751 121.23 55.8361V55.5631H121.25ZM120.976 56.382V56.3041H121.113V56.421C121.093 56.421 121.035 56.421 120.976 56.382ZM120.976 55.8751V55.8166H121.093H121.113V55.9141C121.093 55.9141 121.054 55.8946 121.015 55.8946H120.976V55.8751ZM120.976 55.6411V55.5631H121.093H121.113V55.6411H121.093H120.976ZM120.976 55.3876V55.3096C121.035 55.2706 121.093 55.2706 121.113 55.2706V55.3876H120.976ZM120.976 55.3096C120.937 55.3096 120.878 55.3486 120.839 55.3486C120.761 55.4071 120.682 55.4461 120.624 55.5631C120.584 55.6801 120.545 55.7386 120.545 55.8556C120.545 55.9726 120.584 56.0311 120.624 56.1286C120.702 56.2066 120.761 56.2846 120.839 56.3431C120.878 56.3431 120.937 56.4015 120.976 56.4015V56.3236C120.937 56.3041 120.898 56.3041 120.878 56.2651C120.8 56.2261 120.761 56.1481 120.721 56.0701C120.663 56.0116 120.663 55.9141 120.663 55.8556C120.663 55.7776 120.663 55.6801 120.721 55.6021C120.78 55.5241 120.819 55.4851 120.878 55.4266C120.917 55.4266 120.937 55.4266 120.976 55.3876V55.3096ZM120.976 55.5631H120.878V56.1676H120.976V55.8751V55.8166V55.6411V55.5631ZM112.815 61.4322V57.474C114.283 55.3291 117.884 54.6467 120.33 55.5046L120.076 57.591C119.978 57.63 119.723 57.63 119.625 57.4935C118.608 56.0311 115.672 56.85 115.046 58.9559C114.909 60.4183 116.416 61.8807 119.645 60.7887L119.332 62.5826C116.592 63.1091 114.009 62.7191 112.815 61.4322ZM112.815 56.1091L113.069 55.2121H112.815V56.1091ZM112.815 55.2121H112.599V57.006L112.815 56.1286V55.2121ZM112.815 57.4545C112.736 57.591 112.678 57.708 112.599 57.8444V61.1397C112.678 61.2567 112.756 61.3737 112.815 61.4322V57.4545ZM112.384 60.7692V58.3709C112.423 58.1759 112.541 58.0004 112.599 57.8639V61.1592C112.541 61.0422 112.423 60.9057 112.384 60.7692ZM112.384 57.396V55.2121H112.599V57.006L112.502 57.4155H112.384V57.396ZM112.384 55.2121H106.297C105.847 56.2261 106.728 55.9141 106.728 56.2651L105.652 60.2038V62.6411H108.47C108.47 62.1731 108.352 62.1146 108.098 61.7247L108.568 59.6773C109.135 59.5798 110.544 59.6578 111.014 60.1063L111.562 58.0589L109.057 58.1369L109.39 56.85L111.582 56.889C112.012 56.967 112.091 57.357 112.384 57.435V55.2121V55.2121ZM112.384 58.3514C112.345 58.4099 112.306 58.4879 112.306 58.6049C112.051 59.4433 112.091 60.1453 112.384 60.7692V58.3514ZM105.671 55.8166V55.2316H105.886C105.926 55.4851 105.847 55.6801 105.671 55.8166ZM105.671 55.2316V55.8166C105.593 55.8556 105.515 55.8751 105.456 55.9141V55.2316H105.671ZM105.671 60.1843V62.6216H105.456V60.9837L105.671 60.1843ZM105.201 62.6216H105.456V60.9837L105.201 61.8027V62.6216ZM105.201 56.0116C105.299 55.9726 105.378 55.9726 105.456 55.9141V55.2316H105.201V56.0116ZM105.201 55.2316V55.9921H105.123L101.874 58.6829C102.696 59.9893 103.049 60.3988 103.871 61.6857C104.262 62.0171 104.653 61.8612 104.595 62.6606L101.757 62.5826C100.817 62.5436 99.604 60.4573 98.8603 59.5798L98.3711 61.2177L98.8016 61.9976L98.7233 62.5436H94.8091V62.5046V62.3291C94.8874 61.7832 95.3962 61.9196 95.4941 61.6467C96.1008 59.8528 96.6684 58.2344 97.0989 56.421C97.1968 56.0896 97.0598 55.9921 96.7075 55.8751C96.5901 55.6216 96.6684 55.2706 96.9619 55.1926C97.9992 55.2316 99.0365 55.2706 100.093 55.2706L100.524 55.3096C100.465 55.6411 100.387 55.9141 99.9955 56.0311C99.7998 56.1091 99.2713 57.6105 99.2713 58.4294L102.148 56.2261C102.305 56.0506 102.305 55.9336 101.796 55.8751C101.698 55.7386 101.757 55.5046 101.933 55.2511H105.201V55.2316ZM105.201 61.8027V62.6216H104.986L105.201 61.8027Z" fill="black"/>
</g>
<defs>
<clipPath id="clip0_325_967">
<rect width="37" height="42" fill="white" transform="translate(28 23)"/>
</clipPath>
<clipPath id="clip1_325_967">
<rect width="42" height="42" fill="white" transform="translate(87 23)"/>
</clipPath>
</defs>
</svg>
