<svg width="277" height="55" viewBox="0 0 277 55" fill="none" xmlns="http://www.w3.org/2000/svg">
<path d="M14.2285 1.29614H220.552L272.434 27.9071V53.2961H143.331H78.28H45.9535L14.2285 40.1285V27.2961V1.29614Z" fill="white" stroke="white" stroke-width="2"/>
<path d="M13.2676 45.0742L35.0481 54.296H13.2676V45.0742Z" fill="white"/>
<path d="M43.3963 20.6961H44.8183V33.2961H43.3963V20.6961ZM57.7786 30.7941V20.6961H59.1646V33.2961H58.0306L49.8946 22.9641V33.2961H48.5086V20.6961H49.8406L57.7786 30.7941ZM63.8273 23.8461C63.8273 24.1461 63.8753 24.4161 63.9713 24.6561C64.0673 24.8961 64.2413 25.1181 64.4933 25.3221C64.7453 25.5141 65.0933 25.6941 65.5373 25.8621C65.9813 26.0181 66.5513 26.1681 67.2473 26.3121C68.6513 26.6241 69.6833 27.0561 70.3433 27.6081C71.0153 28.1601 71.3513 28.9221 71.3513 29.8941C71.3513 30.4341 71.2433 30.9261 71.0273 31.3701C70.8113 31.8141 70.5113 32.1921 70.1273 32.5041C69.7553 32.8161 69.3053 33.0561 68.7773 33.2241C68.2493 33.3921 67.6733 33.4761 67.0493 33.4761C66.0413 33.4761 65.1173 33.3141 64.2773 32.9901C63.4493 32.6541 62.6573 32.1441 61.9013 31.4601L62.7833 30.4161C63.4433 31.0161 64.1093 31.4661 64.7813 31.7661C65.4533 32.0541 66.2273 32.1981 67.1033 32.1981C67.9553 32.1981 68.6333 32.0001 69.1373 31.6041C69.6533 31.2081 69.9113 30.6861 69.9113 30.0381C69.9113 29.7381 69.8633 29.4741 69.7673 29.2461C69.6713 29.0061 69.5033 28.7901 69.2633 28.5981C69.0233 28.4061 68.6873 28.2321 68.2553 28.0761C67.8353 27.9201 67.2953 27.7701 66.6353 27.6261C65.9153 27.4701 65.2853 27.2901 64.7453 27.0861C64.2173 26.8821 63.7793 26.6361 63.4313 26.3481C63.0833 26.0601 62.8253 25.7241 62.6573 25.3401C62.4893 24.9561 62.4053 24.5001 62.4053 23.9721C62.4053 23.4681 62.5073 23.0061 62.7113 22.5861C62.9153 22.1661 63.2033 21.8061 63.5753 21.5061C63.9473 21.1941 64.3853 20.9541 64.8893 20.7861C65.3933 20.6061 65.9453 20.5161 66.5453 20.5161C67.4693 20.5161 68.2733 20.6481 68.9573 20.9121C69.6533 21.1641 70.3253 21.5481 70.9733 22.0641L70.1453 23.1621C69.5573 22.6821 68.9633 22.3341 68.3633 22.1181C67.7753 21.9021 67.1573 21.7941 66.5093 21.7941C66.1013 21.7941 65.7293 21.8481 65.3933 21.9561C65.0693 22.0641 64.7873 22.2081 64.5473 22.3881C64.3193 22.5681 64.1393 22.7841 64.0073 23.0361C63.8873 23.2881 63.8273 23.5581 63.8273 23.8461ZM85.0429 31.2981C84.7189 31.6341 84.3769 31.9401 84.0169 32.2161C83.6689 32.4801 83.2909 32.7081 82.8829 32.9001C82.4749 33.0921 82.0369 33.2421 81.5689 33.3501C81.1009 33.4581 80.5789 33.5121 80.0029 33.5121C79.0909 33.5121 78.2509 33.3441 77.4829 33.0081C76.7149 32.6721 76.0489 32.2161 75.4849 31.6401C74.9209 31.0521 74.4769 30.3621 74.1529 29.5701C73.8409 28.7781 73.6849 27.9261 73.6849 27.0141C73.6849 26.1141 73.8409 25.2681 74.1529 24.4761C74.4769 23.6841 74.9209 22.9941 75.4849 22.4061C76.0489 21.8061 76.7209 21.3381 77.5009 21.0021C78.2809 20.6541 79.1329 20.4801 80.0569 20.4801C80.6329 20.4801 81.1489 20.5281 81.6049 20.6241C82.0729 20.7201 82.5049 20.8581 82.9009 21.0381C83.2969 21.2061 83.6629 21.4161 83.9989 21.6681C84.3349 21.9081 84.6589 22.1781 84.9709 22.4781L83.9989 23.5221C83.4589 23.0181 82.8769 22.6041 82.2529 22.2801C81.6409 21.9561 80.9029 21.7941 80.0389 21.7941C79.3429 21.7941 78.6949 21.9261 78.0949 22.1901C77.5069 22.4541 76.9909 22.8201 76.5469 23.2881C76.1149 23.7561 75.7729 24.3081 75.5209 24.9441C75.2809 25.5681 75.1609 26.2461 75.1609 26.9781C75.1609 27.7101 75.2809 28.3941 75.5209 29.0301C75.7729 29.6661 76.1149 30.2181 76.5469 30.6861C76.9909 31.1541 77.5069 31.5261 78.0949 31.8021C78.6949 32.0661 79.3429 32.1981 80.0389 32.1981C80.9029 32.1981 81.6469 32.0421 82.2709 31.7301C82.8949 31.4061 83.5069 30.9561 84.1069 30.3801L85.0429 31.2981ZM97.954 33.2961H96.208L92.554 28.4001H88.954V33.2961H87.532V20.6961H92.95C93.646 20.6961 94.27 20.7861 94.822 20.9661C95.386 21.1461 95.866 21.4041 96.262 21.7401C96.658 22.0641 96.964 22.4601 97.18 22.9281C97.396 23.3841 97.504 23.8941 97.504 24.4581C97.504 24.9861 97.42 25.4601 97.252 25.8801C97.084 26.2881 96.844 26.6481 96.532 26.9601C96.232 27.2601 95.872 27.5121 95.452 27.7161C95.032 27.9201 94.576 28.0641 94.084 28.1481L97.954 33.2961ZM96.064 24.5121C96.064 23.7201 95.782 23.1081 95.218 22.6761C94.654 22.2321 93.862 22.0101 92.842 22.0101H88.954V27.1221H92.824C93.292 27.1221 93.724 27.0621 94.12 26.9421C94.516 26.8221 94.858 26.6541 95.146 26.4381C95.434 26.2101 95.656 25.9341 95.812 25.6101C95.98 25.2861 96.064 24.9201 96.064 24.5121ZM100.666 20.6961H102.088V33.2961H100.666V20.6961ZM111.142 20.6961C111.766 20.6961 112.33 20.7741 112.834 20.9301C113.338 21.0741 113.77 21.2841 114.13 21.5601C114.49 21.8241 114.766 22.1541 114.958 22.5501C115.15 22.9341 115.246 23.3661 115.246 23.8461C115.246 24.2661 115.186 24.6321 115.066 24.9441C114.958 25.2561 114.808 25.5321 114.616 25.7721C114.424 26.0121 114.208 26.2161 113.968 26.3841C113.74 26.5401 113.5 26.6721 113.248 26.7801C113.62 26.8881 113.968 27.0321 114.292 27.2121C114.628 27.3801 114.916 27.5841 115.156 27.8241C115.396 28.0641 115.588 28.3521 115.732 28.6881C115.876 29.0241 115.948 29.4081 115.948 29.8401C115.948 30.3801 115.84 30.8661 115.624 31.2981C115.408 31.7301 115.096 32.0961 114.688 32.3961C114.292 32.6841 113.812 32.9061 113.248 33.0621C112.684 33.2181 112.06 33.2961 111.376 33.2961H105.778V20.6961H111.142ZM110.908 26.3121C111.76 26.3121 112.456 26.1201 112.996 25.7361C113.536 25.3521 113.806 24.7881 113.806 24.0441C113.806 23.4081 113.566 22.9041 113.086 22.5321C112.606 22.1601 111.916 21.9741 111.016 21.9741H107.182V26.3121H110.908ZM111.412 32.0181C112.372 32.0181 113.128 31.8201 113.68 31.4241C114.232 31.0281 114.508 30.4701 114.508 29.7501C114.508 29.0541 114.226 28.5201 113.662 28.1481C113.098 27.7641 112.264 27.5721 111.16 27.5721H107.182V32.0181H111.412ZM118.894 20.6961H120.316V33.2961H118.894V20.6961ZM134.429 33.2961H132.683L129.029 28.4001H125.429V33.2961H124.007V20.6961H129.425C130.121 20.6961 130.745 20.7861 131.297 20.9661C131.861 21.1461 132.341 21.4041 132.737 21.7401C133.133 22.0641 133.439 22.4601 133.655 22.9281C133.871 23.3841 133.979 23.8941 133.979 24.4581C133.979 24.9861 133.895 25.4601 133.727 25.8801C133.559 26.2881 133.319 26.6481 133.007 26.9601C132.707 27.2601 132.347 27.5121 131.927 27.7161C131.507 27.9201 131.051 28.0641 130.559 28.1481L134.429 33.2961ZM132.539 24.5121C132.539 23.7201 132.257 23.1081 131.693 22.6761C131.129 22.2321 130.337 22.0101 129.317 22.0101H125.429V27.1221H129.299C129.767 27.1221 130.199 27.0621 130.595 26.9421C130.991 26.8221 131.333 26.6541 131.621 26.4381C131.909 26.2101 132.131 25.9341 132.287 25.6101C132.455 25.2861 132.539 24.9201 132.539 24.5121ZM138.112 23.8461C138.112 24.1461 138.16 24.4161 138.256 24.6561C138.352 24.8961 138.526 25.1181 138.778 25.3221C139.03 25.5141 139.378 25.6941 139.822 25.8621C140.266 26.0181 140.836 26.1681 141.532 26.3121C142.936 26.6241 143.968 27.0561 144.628 27.6081C145.3 28.1601 145.636 28.9221 145.636 29.8941C145.636 30.4341 145.528 30.9261 145.312 31.3701C145.096 31.8141 144.796 32.1921 144.412 32.5041C144.04 32.8161 143.59 33.0561 143.062 33.2241C142.534 33.3921 141.958 33.4761 141.334 33.4761C140.326 33.4761 139.402 33.3141 138.562 32.9901C137.734 32.6541 136.942 32.1441 136.186 31.4601L137.068 30.4161C137.728 31.0161 138.394 31.4661 139.066 31.7661C139.738 32.0541 140.512 32.1981 141.388 32.1981C142.24 32.1981 142.918 32.0001 143.422 31.6041C143.938 31.2081 144.196 30.6861 144.196 30.0381C144.196 29.7381 144.148 29.4741 144.052 29.2461C143.956 29.0061 143.788 28.7901 143.548 28.5981C143.308 28.4061 142.972 28.2321 142.54 28.0761C142.12 27.9201 141.58 27.7701 140.92 27.6261C140.2 27.4701 139.57 27.2901 139.03 27.0861C138.502 26.8821 138.064 26.6361 137.716 26.3481C137.368 26.0601 137.11 25.7241 136.942 25.3401C136.774 24.9561 136.69 24.5001 136.69 23.9721C136.69 23.4681 136.792 23.0061 136.996 22.5861C137.2 22.1661 137.488 21.8061 137.86 21.5061C138.232 21.1941 138.67 20.9541 139.174 20.7861C139.678 20.6061 140.23 20.5161 140.83 20.5161C141.754 20.5161 142.558 20.6481 143.242 20.9121C143.938 21.1641 144.61 21.5481 145.258 22.0641L144.43 23.1621C143.842 22.6821 143.248 22.3341 142.648 22.1181C142.06 21.9021 141.442 21.7941 140.794 21.7941C140.386 21.7941 140.014 21.8481 139.678 21.9561C139.354 22.0641 139.072 22.2081 138.832 22.3881C138.604 22.5681 138.424 22.7841 138.292 23.0361C138.172 23.2881 138.112 23.5581 138.112 23.8461ZM157.636 20.6961V21.9921H149.95V26.2941H156.826V27.5901H149.95V32.0001H157.726V33.2961H148.528V20.6961H157.636ZM171.977 20.6061L177.719 33.2961H176.189L174.713 29.9661H167.855L166.361 33.2961H164.903L170.645 20.6061H171.977ZM174.155 28.6881L171.293 22.2621L168.413 28.6881H174.155ZM188.898 27.6261H181.626V33.2961H180.204V20.6961H181.626V26.2941H188.898V20.6961H190.32V33.2961H188.898V27.6261ZM206.174 26.9781C206.174 27.8541 206.018 28.6881 205.706 29.4801C205.394 30.2601 204.956 30.9501 204.392 31.5501C203.828 32.1501 203.15 32.6301 202.358 32.9901C201.566 33.3381 200.69 33.5121 199.73 33.5121C198.77 33.5121 197.894 33.3381 197.102 32.9901C196.322 32.6421 195.65 32.1741 195.086 31.5861C194.522 30.9861 194.084 30.2961 193.772 29.5161C193.472 28.7241 193.322 27.8901 193.322 27.0141C193.322 26.1381 193.478 25.3101 193.79 24.5301C194.102 23.7381 194.54 23.0421 195.104 22.4421C195.668 21.8421 196.346 21.3681 197.138 21.0201C197.93 20.6601 198.806 20.4801 199.766 20.4801C200.726 20.4801 201.596 20.6541 202.376 21.0021C203.168 21.3501 203.846 21.8241 204.41 22.4241C204.974 23.0121 205.406 23.7021 205.706 24.4941C206.018 25.2741 206.174 26.1021 206.174 26.9781ZM204.698 27.0141C204.698 26.2941 204.572 25.6161 204.32 24.9801C204.08 24.3441 203.738 23.7921 203.294 23.3241C202.85 22.8561 202.322 22.4841 201.71 22.2081C201.11 21.9321 200.45 21.7941 199.73 21.7941C199.01 21.7941 198.344 21.9321 197.732 22.2081C197.132 22.4721 196.616 22.8381 196.184 23.3061C195.752 23.7741 195.41 24.3261 195.158 24.9621C194.918 25.5861 194.798 26.2581 194.798 26.9781C194.798 27.6981 194.918 28.3761 195.158 29.0121C195.41 29.6481 195.758 30.2001 196.202 30.6681C196.646 31.1361 197.168 31.5081 197.768 31.7841C198.38 32.0601 199.046 32.1981 199.766 32.1981C200.486 32.1981 201.146 32.0661 201.746 31.8021C202.358 31.5261 202.88 31.1541 203.312 30.6861C203.744 30.2181 204.08 29.6721 204.32 29.0481C204.572 28.4121 204.698 27.7341 204.698 27.0141ZM219.595 33.2961H217.849L214.195 28.4001H210.595V33.2961H209.173V20.6961H214.591C215.287 20.6961 215.911 20.7861 216.463 20.9661C217.027 21.1461 217.507 21.4041 217.903 21.7401C218.299 22.0641 218.605 22.4601 218.821 22.9281C219.037 23.3841 219.145 23.8941 219.145 24.4581C219.145 24.9861 219.061 25.4601 218.893 25.8801C218.725 26.2881 218.485 26.6481 218.173 26.9601C217.873 27.2601 217.513 27.5121 217.093 27.7161C216.673 27.9201 216.217 28.0641 215.725 28.1481L219.595 33.2961ZM217.705 24.5121C217.705 23.7201 217.423 23.1081 216.859 22.6761C216.295 22.2321 215.503 22.0101 214.483 22.0101H210.595V27.1221H214.465C214.933 27.1221 215.365 27.0621 215.761 26.9421C216.157 26.8221 216.499 26.6541 216.787 26.4381C217.075 26.2101 217.297 25.9341 217.453 25.6101C217.621 25.2861 217.705 24.9201 217.705 24.5121ZM228.174 20.6061L233.916 33.2961H232.386L230.91 29.9661H224.052L222.558 33.2961H221.1L226.842 20.6061H228.174ZM230.352 28.6881L227.49 22.2621L224.61 28.6881H230.352Z" fill="black"/>
</svg>
