<svg width="277" height="55" viewBox="0 0 277 55" fill="none" xmlns="http://www.w3.org/2000/svg">
<path d="M69.5981 30.5501L74.0981 19.6961H75.6281L70.2101 32.3861H68.9501L63.5321 19.6961H65.1161L69.5981 30.5501ZM87.2201 19.6961V20.9921H79.5341V25.2941H86.4101V26.5901H79.5341V31.0001H87.3101V32.2961H78.1121V19.6961H87.2201ZM100.593 32.2961H98.8467L95.1927 27.4001H91.5927V32.2961H90.1707V19.6961H95.5887C96.2847 19.6961 96.9087 19.7861 97.4607 19.9661C98.0247 20.1461 98.5047 20.4041 98.9007 20.7401C99.2967 21.0641 99.6027 21.4601 99.8187 21.9281C100.035 22.3841 100.143 22.8941 100.143 23.4581C100.143 23.9861 100.059 24.4601 99.8907 24.8801C99.7227 25.2881 99.4827 25.6481 99.1707 25.9601C98.8707 26.2601 98.5107 26.5121 98.0907 26.7161C97.6707 26.9201 97.2147 27.0641 96.7227 27.1481L100.593 32.2961ZM98.7027 23.5121C98.7027 22.7201 98.4207 22.1081 97.8567 21.6761C97.2927 21.2321 96.5007 21.0101 95.4807 21.0101H91.5927V26.1221H95.4627C95.9307 26.1221 96.3627 26.0621 96.7587 25.9421C97.1547 25.8221 97.4967 25.6541 97.7847 25.4381C98.0727 25.2101 98.2947 24.9341 98.4507 24.6101C98.6187 24.2861 98.7027 23.9201 98.7027 23.5121ZM118.871 19.6961V26.9141C118.871 27.8381 118.745 28.6481 118.493 29.3441C118.241 30.0401 117.881 30.6221 117.413 31.0901C116.957 31.5581 116.405 31.9121 115.757 32.1521C115.121 32.3801 114.407 32.4941 113.615 32.4941C112.835 32.4941 112.121 32.3801 111.473 32.1521C110.837 31.9121 110.285 31.5641 109.817 31.1081C109.361 30.6401 109.007 30.0641 108.755 29.3801C108.503 28.6961 108.377 27.9101 108.377 27.0221V19.6961H109.799V26.9321C109.799 28.3001 110.135 29.3501 110.807 30.0821C111.491 30.8141 112.439 31.1801 113.651 31.1801C114.815 31.1801 115.739 30.8321 116.423 30.1361C117.107 29.4401 117.449 28.4021 117.449 27.0221V19.6961H118.871ZM127.597 19.6961C128.221 19.6961 128.785 19.7741 129.289 19.9301C129.793 20.0741 130.225 20.2841 130.585 20.5601C130.945 20.8241 131.221 21.1541 131.413 21.5501C131.605 21.9341 131.701 22.3661 131.701 22.8461C131.701 23.2661 131.641 23.6321 131.521 23.9441C131.413 24.2561 131.263 24.5321 131.071 24.7721C130.879 25.0121 130.663 25.2161 130.423 25.3841C130.195 25.5401 129.955 25.6721 129.703 25.7801C130.075 25.8881 130.423 26.0321 130.747 26.2121C131.083 26.3801 131.371 26.5841 131.611 26.8241C131.851 27.0641 132.043 27.3521 132.187 27.6881C132.331 28.0241 132.403 28.4081 132.403 28.8401C132.403 29.3801 132.295 29.8661 132.079 30.2981C131.863 30.7301 131.551 31.0961 131.143 31.3961C130.747 31.6841 130.267 31.9061 129.703 32.0621C129.139 32.2181 128.515 32.2961 127.831 32.2961H122.233V19.6961H127.597ZM127.363 25.3121C128.215 25.3121 128.911 25.1201 129.451 24.7361C129.991 24.3521 130.261 23.7881 130.261 23.0441C130.261 22.4081 130.021 21.9041 129.541 21.5321C129.061 21.1601 128.371 20.9741 127.471 20.9741H123.637V25.3121H127.363ZM127.867 31.0181C128.827 31.0181 129.583 30.8201 130.135 30.4241C130.687 30.0281 130.963 29.4701 130.963 28.7501C130.963 28.0541 130.681 27.5201 130.117 27.1481C129.553 26.7641 128.719 26.5721 127.615 26.5721H123.637V31.0181H127.867ZM135.349 19.6961H136.771V32.2961H135.349V19.6961ZM151.262 30.2981C150.938 30.6341 150.596 30.9401 150.236 31.2161C149.888 31.4801 149.51 31.7081 149.102 31.9001C148.694 32.0921 148.256 32.2421 147.788 32.3501C147.32 32.4581 146.798 32.5121 146.222 32.5121C145.31 32.5121 144.47 32.3441 143.702 32.0081C142.934 31.6721 142.268 31.2161 141.704 30.6401C141.14 30.0521 140.696 29.3621 140.372 28.5701C140.06 27.7781 139.904 26.9261 139.904 26.0141C139.904 25.1141 140.06 24.2681 140.372 23.4761C140.696 22.6841 141.14 21.9941 141.704 21.4061C142.268 20.8061 142.94 20.3381 143.72 20.0021C144.5 19.6541 145.352 19.4801 146.276 19.4801C146.852 19.4801 147.368 19.5281 147.824 19.6241C148.292 19.7201 148.724 19.8581 149.12 20.0381C149.516 20.2061 149.882 20.4161 150.218 20.6681C150.554 20.9081 150.878 21.1781 151.19 21.4781L150.218 22.5221C149.678 22.0181 149.096 21.6041 148.472 21.2801C147.86 20.9561 147.122 20.7941 146.258 20.7941C145.562 20.7941 144.914 20.9261 144.314 21.1901C143.726 21.4541 143.21 21.8201 142.766 22.2881C142.334 22.7561 141.992 23.3081 141.74 23.9441C141.5 24.5681 141.38 25.2461 141.38 25.9781C141.38 26.7101 141.5 27.3941 141.74 28.0301C141.992 28.6661 142.334 29.2181 142.766 29.6861C143.21 30.1541 143.726 30.5261 144.314 30.8021C144.914 31.0661 145.562 31.1981 146.258 31.1981C147.122 31.1981 147.866 31.0421 148.49 30.7301C149.114 30.4061 149.726 29.9561 150.326 29.3801L151.262 30.2981ZM159.745 19.6061L165.487 32.2961H163.957L162.481 28.9661H155.623L154.129 32.2961H152.671L158.413 19.6061H159.745ZM161.923 27.6881L159.061 21.2621L156.181 27.6881H161.923ZM178.033 30.2981C177.709 30.6341 177.367 30.9401 177.007 31.2161C176.659 31.4801 176.281 31.7081 175.873 31.9001C175.465 32.0921 175.027 32.2421 174.559 32.3501C174.091 32.4581 173.569 32.5121 172.993 32.5121C172.081 32.5121 171.241 32.3441 170.473 32.0081C169.705 31.6721 169.039 31.2161 168.475 30.6401C167.911 30.0521 167.467 29.3621 167.143 28.5701C166.831 27.7781 166.675 26.9261 166.675 26.0141C166.675 25.1141 166.831 24.2681 167.143 23.4761C167.467 22.6841 167.911 21.9941 168.475 21.4061C169.039 20.8061 169.711 20.3381 170.491 20.0021C171.271 19.6541 172.123 19.4801 173.047 19.4801C173.623 19.4801 174.139 19.5281 174.595 19.6241C175.063 19.7201 175.495 19.8581 175.891 20.0381C176.287 20.2061 176.653 20.4161 176.989 20.6681C177.325 20.9081 177.649 21.1781 177.961 21.4781L176.989 22.5221C176.449 22.0181 175.867 21.6041 175.243 21.2801C174.631 20.9561 173.893 20.7941 173.029 20.7941C172.333 20.7941 171.685 20.9261 171.085 21.1901C170.497 21.4541 169.981 21.8201 169.537 22.2881C169.105 22.7561 168.763 23.3081 168.511 23.9441C168.271 24.5681 168.151 25.2461 168.151 25.9781C168.151 26.7101 168.271 27.3941 168.511 28.0301C168.763 28.6661 169.105 29.2181 169.537 29.6861C169.981 30.1541 170.497 30.5261 171.085 30.8021C171.685 31.0661 172.333 31.1981 173.029 31.1981C173.893 31.1981 174.637 31.0421 175.261 30.7301C175.885 30.4061 176.497 29.9561 177.097 29.3801L178.033 30.2981ZM180.648 19.6961H182.07V32.2961H180.648V19.6961ZM198.055 25.9781C198.055 26.8541 197.899 27.6881 197.587 28.4801C197.275 29.2601 196.837 29.9501 196.273 30.5501C195.709 31.1501 195.031 31.6301 194.239 31.9901C193.447 32.3381 192.571 32.5121 191.611 32.5121C190.651 32.5121 189.775 32.3381 188.983 31.9901C188.203 31.6421 187.531 31.1741 186.967 30.5861C186.403 29.9861 185.965 29.2961 185.653 28.5161C185.353 27.7241 185.203 26.8901 185.203 26.0141C185.203 25.1381 185.359 24.3101 185.671 23.5301C185.983 22.7381 186.421 22.0421 186.985 21.4421C187.549 20.8421 188.227 20.3681 189.019 20.0201C189.811 19.6601 190.687 19.4801 191.647 19.4801C192.607 19.4801 193.477 19.6541 194.257 20.0021C195.049 20.3501 195.727 20.8241 196.291 21.4241C196.855 22.0121 197.287 22.7021 197.587 23.4941C197.899 24.2741 198.055 25.1021 198.055 25.9781ZM196.579 26.0141C196.579 25.2941 196.453 24.6161 196.201 23.9801C195.961 23.3441 195.619 22.7921 195.175 22.3241C194.731 21.8561 194.203 21.4841 193.591 21.2081C192.991 20.9321 192.331 20.7941 191.611 20.7941C190.891 20.7941 190.225 20.9321 189.613 21.2081C189.013 21.4721 188.497 21.8381 188.065 22.3061C187.633 22.7741 187.291 23.3261 187.039 23.9621C186.799 24.5861 186.679 25.2581 186.679 25.9781C186.679 26.6981 186.799 27.3761 187.039 28.0121C187.291 28.6481 187.639 29.2001 188.083 29.6681C188.527 30.1361 189.049 30.5081 189.649 30.7841C190.261 31.0601 190.927 31.1981 191.647 31.1981C192.367 31.1981 193.027 31.0661 193.627 30.8021C194.239 30.5261 194.761 30.1541 195.193 29.6861C195.625 29.2181 195.961 28.6721 196.201 28.0481C196.453 27.4121 196.579 26.7341 196.579 26.0141ZM192.277 18.5801H191.161L192.871 15.9701L194.311 16.6361L192.277 18.5801ZM210.323 29.7941V19.6961H211.709V32.2961H210.575L202.439 21.9641V32.2961H201.053V19.6961H202.385L210.323 29.7941Z" fill="url(#paint0_linear_40_23)"/>
<path d="M13.3359 1.29614H219.66L271.542 27.9071V53.2961H142.439H77.3874H45.061L13.3359 40.1285V27.2961V1.29614Z" stroke="white" stroke-width="2"/>
<path d="M12.375 45.0742L34.1555 54.296H12.375V45.0742Z" fill="white"/>
<defs>
<linearGradient id="paint0_linear_40_23" x1="138.161" y1="18.2961" x2="138.161" y2="35.2961" gradientUnits="userSpaceOnUse">
<stop stop-color="white"/>
<stop offset="1" stop-color="#03B9BB"/>
</linearGradient>
</defs>
</svg>
