<svg width="35" height="57" viewBox="0 0 35 57" fill="none" xmlns="http://www.w3.org/2000/svg">
<path d="M34.3298 45.6358C28.7016 49.4291 23.0907 53.2109 17.47 56.9994C17.3602 56.9275 17.2621 56.8652 17.1664 56.8006C11.7321 53.1378 6.29836 49.4739 0.860957 45.8165C0.669633 45.6878 0.594821 45.5566 0.595434 45.327C0.60218 40.3913 0.601566 35.4562 0.596661 30.5206C0.596661 30.2921 0.566613 30.0582 0.510197 29.8364C0.0220758 27.9059 -0.0999545 25.95 0.0772654 23.9717C0.155757 23.0947 0.318873 22.2328 0.532886 21.3788C0.577038 21.2029 0.597887 21.0174 0.597887 20.836C0.601566 17.3685 0.60034 13.9016 0.60034 10.4341V10.0194H0.962751C3.90313 10.0194 6.84351 10.0182 9.78389 10.0224C10.0046 10.0224 10.2046 9.98437 10.4069 9.89552C12.8273 8.83477 15.3642 8.34821 18.0096 8.42739C20.3183 8.49629 22.5265 9.00582 24.636 9.9342C24.7728 9.99404 24.9371 10.0158 25.0886 10.0158C28.0388 10.0206 30.9889 10.0194 33.9391 10.0194H34.3298V10.4038C34.3298 13.881 34.3285 17.3576 34.3328 20.8348C34.3328 21.0252 34.3567 21.2211 34.4046 21.4054C34.8749 23.218 35.0251 25.0585 34.8933 26.9213C34.8234 27.9144 34.6541 28.8941 34.4113 29.8618C34.3604 30.0649 34.3328 30.2794 34.3322 30.4892C34.3279 35.4151 34.3291 40.3405 34.3291 45.2665L34.3298 45.6358ZM17.4896 10.7C9.10137 10.7145 2.27933 17.4441 2.30692 25.678C2.33452 33.967 9.1351 40.6488 17.5435 40.6294C26.0292 40.6095 32.8096 33.7059 32.6827 25.4362C32.5594 17.3957 25.8839 10.7054 17.4896 10.7ZM8.14721 40.2039C8.13862 40.3037 8.13065 40.3514 8.13065 40.3992C8.13004 42.8603 8.13188 45.3221 8.12513 47.7833C8.12513 47.9574 8.20362 48.0414 8.33179 48.1284C10.9165 49.874 13.4988 51.6219 16.0829 53.3687C16.1436 53.4098 16.211 53.4406 16.292 53.486V42.8349C13.3602 42.6252 10.6614 41.7603 8.14721 40.2039ZM18.6308 53.4956C18.7252 53.4412 18.7847 53.4116 18.8387 53.3754C21.4319 51.6219 24.0246 49.8661 26.6204 48.1163C26.7602 48.022 26.8037 47.9193 26.8037 47.7591C26.7994 45.3251 26.8007 42.8906 26.8001 40.4566C26.8001 40.3853 26.7896 40.3133 26.781 40.2051C24.2656 41.7657 21.5558 42.6276 18.6308 42.838V53.4956ZM32.0431 35.2767C32.0222 35.2725 32.0014 35.2677 31.9805 35.2634C31.9554 35.2918 31.9278 35.3184 31.9063 35.3487C31.1251 36.468 30.2218 37.4822 29.1977 38.3907C29.069 38.5049 29.0542 38.6276 29.0549 38.7763C29.0567 41.2296 29.0561 43.6835 29.0573 46.1369C29.0573 46.2281 29.0683 46.3194 29.0769 46.4494C29.1947 46.3774 29.2768 46.3309 29.3559 46.2789C30.1752 45.7319 30.9902 45.1789 31.8156 44.6403C31.9934 44.5243 32.0492 44.398 32.0486 44.1925C32.0418 41.3142 32.0437 38.4354 32.0437 35.5572C32.0437 35.4641 32.0431 35.3698 32.0431 35.2767ZM2.91033 35.2133C2.89807 35.3293 2.88396 35.4025 2.88396 35.4756C2.88274 38.401 2.88396 41.3257 2.88028 44.2511C2.88028 44.4125 2.92811 44.5152 3.06793 44.6071C3.93134 45.1752 4.788 45.7525 5.64773 46.3255C5.7066 46.3647 5.77344 46.3925 5.85807 46.4373C5.86297 46.323 5.86972 46.2469 5.86972 46.1701C5.86972 43.6987 5.86849 41.2272 5.8734 38.7558C5.8734 38.5865 5.82127 38.4711 5.69372 38.358C4.70644 37.4828 3.83997 36.5019 3.08019 35.4284C3.03665 35.3668 2.98576 35.3088 2.91033 35.2133ZM31.9928 16.1029C32.0664 15.794 32.0584 12.5217 31.9928 12.3065C31.3845 12.2539 28.728 12.2763 28.4993 12.3428C29.8508 13.4259 31.0043 14.674 31.9928 16.1029ZM6.3977 12.3041H2.90604C2.89745 12.3712 2.88457 12.4268 2.88457 12.4818C2.88887 13.6677 2.895 14.8541 2.90113 16.04C2.90113 16.046 2.91156 16.0545 2.91892 16.0581C2.9275 16.0624 2.93792 16.0624 2.96245 16.0678C3.92827 14.6692 5.07989 13.4277 6.3977 12.3041Z" fill="white"/>
<path d="M33.4473 5.08739V1.58722C33.4277 1.58239 33.4081 1.57755 33.3885 1.57272C32.9678 2.74649 32.5471 3.91966 32.1252 5.09706H30.7381C30.323 3.93658 29.9078 2.77671 29.4927 1.61623C29.4712 1.61865 29.4498 1.62107 29.4289 1.62349C29.4075 2.77067 29.4332 3.91845 29.4148 5.08618H27.8407C27.8407 3.46272 27.8407 1.83685 27.8407 0.188605H30.2923C30.6572 1.22397 31.0282 2.27746 31.3998 3.33036C31.8474 2.29922 32.1872 1.23787 32.5766 0.181352H35.0006V5.088L33.4473 5.08739Z" fill="white"/>
<path d="M23.2955 0.00628397C23.9541 0.00628397 24.4404 0.0461754 24.9163 0.176125C26.0317 0.480146 26.6541 1.22237 26.7173 2.3629C26.7351 2.68747 26.7173 3.02171 26.6559 3.34084C26.5026 4.1429 26.017 4.69111 25.2443 4.98425C24.4974 5.26712 23.718 5.30217 22.9307 5.24777C22.5002 5.21816 22.0764 5.14623 21.6711 4.98908C20.7684 4.63973 20.2816 3.97669 20.2086 3.03682C20.1791 2.65665 20.1988 2.26317 20.2662 1.88783C20.3962 1.16434 20.8353 0.654217 21.5135 0.347779C22.1329 0.0679343 22.7933 0.0105149 23.2955 0.00628397ZM21.9575 2.62461C21.963 2.62461 21.9679 2.62461 21.9734 2.62461C21.9734 2.72071 21.9648 2.81802 21.9746 2.91292C22.039 3.52096 22.3794 3.93498 22.9429 4.08427C23.2796 4.17373 23.6211 4.17373 23.9578 4.0873C24.4312 3.9652 24.7409 3.66965 24.8715 3.20183C24.9831 2.80231 24.9806 2.40158 24.8519 2.00629C24.72 1.60315 24.449 1.32754 24.0338 1.20847C23.8664 1.16072 23.6898 1.12143 23.5169 1.11962C22.7363 1.11236 22.1396 1.4182 21.9857 2.27828C21.9654 2.39131 21.9667 2.50796 21.9587 2.6234L21.9575 2.62461Z" fill="white"/>
<path d="M9.70968 3.60782C9.76978 3.98316 10.0396 4.12399 10.3732 4.15905C10.6252 4.18564 10.8834 4.18625 11.1348 4.16328C11.2734 4.15059 11.4242 4.09015 11.5365 4.00734C11.7983 3.81393 11.7345 3.4543 11.4169 3.35638C11.1575 3.276 10.8834 3.23611 10.6142 3.19198C10.112 3.10978 9.60728 3.04088 9.10505 2.95868C8.96156 2.93511 8.81868 2.8934 8.68193 2.84263C8.19197 2.6607 7.89088 2.32586 7.82895 1.79941C7.76701 1.26994 7.9197 0.826906 8.35877 0.496896C8.67948 0.256338 9.05293 0.134851 9.44232 0.0798489C10.3125 -0.0434518 11.1814 -0.0295502 12.0405 0.176555C12.3569 0.252712 12.6537 0.376617 12.9082 0.58514C13.2259 0.845039 13.3933 1.17807 13.4215 1.60116H11.5683C11.5487 1.56671 11.5162 1.52017 11.4941 1.4694C11.4199 1.29714 11.2857 1.18835 11.1115 1.13274C10.7295 1.01125 10.3413 1.00279 9.95375 1.10433C9.88016 1.12367 9.80841 1.16296 9.74586 1.20708C9.62383 1.29291 9.57784 1.41802 9.59931 1.56308C9.62138 1.70996 9.73421 1.77403 9.86483 1.79699C10.2211 1.85985 10.5798 1.91365 10.9367 1.97167C11.4101 2.04843 11.8866 2.11068 12.3557 2.208C12.5918 2.25695 12.8273 2.34459 13.0401 2.45701C13.4006 2.64741 13.592 2.96472 13.6275 3.36968C13.6962 4.14092 13.3773 4.66978 12.6519 4.97622C12.176 5.17688 11.6701 5.24216 11.1599 5.2609C10.4639 5.28689 9.76549 5.28145 9.08788 5.0965C8.84627 5.03062 8.60528 4.92907 8.39249 4.79852C7.96202 4.53439 7.77437 4.12037 7.73696 3.60782H9.70968Z" fill="white"/>
<path d="M3.66336 3.24816H1.62625V3.92389H3.81421V5.17262H0.056416C-0.00735861 4.96228 -0.0220758 0.436416 0.0410856 0.0985475H3.8044V1.33337H1.62993V1.97405H3.66336V3.24816Z" fill="white"/>
<path d="M19.6138 0.182561V1.2687H17.7931V5.08981H16.1135C16.0939 4.77733 16.1068 4.46243 16.1043 4.14874C16.1019 3.83021 16.1043 3.51168 16.1043 3.19255V1.2826H14.2867V0.182561H19.6138Z" fill="white"/>
<path d="M6.76869 2.21944V3.05051H4.80027C4.76838 2.78457 4.78432 2.51137 4.79475 2.21944H6.76869Z" fill="white"/>
<path d="M27.1373 27.8031C27.1011 28.4269 27.0699 29.0434 26.9117 29.6466C26.8651 29.8237 26.8093 29.9996 26.7369 30.1676C26.3432 31.0815 25.5571 31.4804 24.5716 31.2743C24.1853 31.1933 23.8241 31.0482 23.4776 30.8639C22.6437 30.4209 21.8704 29.8817 21.2112 29.2211C20.1988 28.2069 18.946 27.8527 17.5711 27.7747C16.6544 27.7227 15.7511 27.8231 14.8754 28.1096C14.3291 28.2885 13.8428 28.5605 13.4203 28.9545C12.758 29.5729 12.0577 30.1501 11.2728 30.6137C10.93 30.8161 10.567 30.9908 10.2003 31.148C9.82804 31.3075 9.43128 31.3619 9.02104 31.313C8.5691 31.2592 8.20608 31.0555 7.91541 30.717C7.56833 30.3121 7.41748 29.8267 7.32243 29.3178C7.20163 28.6681 7.18139 28.0111 7.2188 27.3547C7.31691 25.6399 7.64069 23.9657 8.21282 22.3416C8.49613 21.5366 8.84995 20.7605 9.37732 20.0781C9.60789 19.7801 9.85931 19.4906 10.1389 19.238C10.8877 18.5634 11.7897 18.3531 12.7831 18.4571C13.6245 18.5453 14.4308 18.7913 15.2519 18.9714C15.7769 19.0869 16.3055 19.1884 16.8365 19.2766C17.3093 19.3552 17.7753 19.2513 18.2334 19.1515C19.0551 18.9726 19.8695 18.7593 20.6918 18.584C21.0726 18.503 21.4645 18.4552 21.8538 18.4311C22.8883 18.3676 23.7487 18.746 24.4551 19.4815C25.0352 20.0854 25.4651 20.7835 25.7889 21.5474C26.3426 22.8548 26.7099 24.2141 26.9055 25.6158C27.0067 26.3417 27.0619 27.0742 27.1373 27.8031ZM10.8871 22.0654C9.99299 22.3011 9.52756 22.7925 9.52204 23.516C9.51959 23.8418 9.62077 24.1434 9.82252 24.4063C10.0899 24.7545 10.4511 24.9455 10.8791 24.9932C11.0821 25.8043 11.5898 26.274 12.2858 26.3126C12.6206 26.3314 12.9272 26.2456 13.2032 26.0648C13.592 25.8104 13.7821 25.4272 13.8759 25.0005C14.6859 24.8216 15.179 24.3036 15.2078 23.617C15.2397 22.8451 14.8061 22.3368 13.8802 22.0612C13.6337 21.2011 13.0989 20.7405 12.3606 20.7526C11.6284 20.7647 11.0845 21.244 10.8871 22.0654ZM21.5957 24.4529C21.0996 24.4498 20.6906 24.8494 20.6955 25.3323C20.7004 25.8031 21.1014 26.196 21.581 26.199C22.0764 26.202 22.4836 25.8025 22.4793 25.3178C22.475 24.8415 22.0801 24.4559 21.5957 24.4529ZM21.5926 22.616C22.082 22.6136 22.4726 22.2347 22.4787 21.7554C22.4848 21.2718 22.0746 20.8651 21.5834 20.8681C21.1045 20.8711 20.7034 21.2628 20.6949 21.7348C20.6869 22.2165 21.0965 22.6185 21.5926 22.616ZM20.6838 23.5753C20.6887 23.0814 20.292 22.6837 19.7971 22.6862C19.317 22.6886 18.9178 23.079 18.9116 23.5529C18.9055 24.0358 19.3163 24.4456 19.8039 24.4432C20.2871 24.4408 20.6789 24.0546 20.6838 23.5753ZM23.3673 22.6862C22.8724 22.6916 22.4799 23.0947 22.4904 23.5867C22.5002 24.06 22.9074 24.4504 23.3838 24.4432C23.8787 24.4353 24.273 24.031 24.2619 23.5414C24.2515 23.0663 23.848 22.6813 23.3673 22.6862Z" fill="white"/>
</svg>
