<svg width="540" height="136" viewBox="0 0 540 136" fill="none" xmlns="http://www.w3.org/2000/svg">
<g clip-path="url(#clip0_73_26)">
<path fill-rule="evenodd" clip-rule="evenodd" d="M78.1278 0H84.3013C84.9836 0.0816719 85.6606 0.174233 86.3429 0.234126C91.6933 0.740492 96.9083 1.94379 102.08 3.40299C110.647 5.82593 118.196 10.013 124.543 16.3289C129.682 21.4361 133.662 27.3601 136.728 33.9102C140.156 41.2334 142.549 48.8779 143.426 56.9525C143.535 57.938 143.638 58.9235 143.735 59.9199V69.9928C143.686 70.265 143.6 70.5264 143.589 70.7932C143.383 75.6554 142.804 80.4577 141.91 85.26C140.183 94.478 136.208 102.536 130.289 109.707C124.835 116.312 118.429 121.865 111.579 126.945C108.93 128.911 106.19 130.751 103.028 131.764C101.593 132.227 100.06 132.434 98.5546 132.608C97.6989 132.706 97.3686 132.112 97.8235 131.361C98.1592 130.817 98.6412 130.299 99.1611 129.934C102.892 127.343 106.775 124.98 110.366 122.203C118.878 115.62 125.377 107.393 129.525 97.3746C133.067 88.8209 134.567 79.8479 134.664 70.6407C134.708 66.8021 134.437 62.9363 134.069 59.1087C133.473 52.9615 132.011 47.0049 129.731 41.2661C127.326 35.2278 124.104 29.6741 119.247 25.3183C116.469 22.8409 113.441 20.6194 110.333 18.5667C103.087 13.7808 95.4895 9.75707 86.6624 8.80967C85.2869 8.66266 83.8951 8.60822 82.5088 8.59733C82.1568 8.59733 81.5665 8.89679 81.5124 9.15814C81.4257 9.58283 81.5773 10.1491 81.821 10.5248C82.0431 10.8678 82.498 11.1346 82.9041 11.2544C83.7002 11.494 84.5125 11.6791 85.3356 11.7716C86.8519 11.9622 88.3899 11.9677 89.89 12.2344C93.7295 12.9259 97.244 14.5485 100.683 16.3235C106.315 19.2092 111.546 22.6884 116.003 27.2348C123.07 34.4437 127.11 43.15 128.545 53.1412C129.298 58.3791 129.704 63.6387 129.845 68.9202C129.996 74.4466 129.644 79.9186 128.274 85.2981C126.384 92.703 122.973 99.3674 118.721 105.656C114.925 111.27 110.566 116.306 105.237 120.531C91.3413 131.557 68.7537 137.971 50.4931 135.461C43.1011 134.454 36.0665 132.341 29.476 128.807C24.8621 126.335 20.9792 122.905 17.4105 119.105C14.2804 115.778 11.524 112.174 9.81274 107.872C9.15747 106.233 8.59969 104.567 8.66467 102.76C8.69717 101.937 8.87587 101.208 9.75317 100.87C10.5709 100.554 11.1178 101.05 11.5565 101.578C12.7749 103.059 13.9663 104.573 15.1252 106.108C19.2572 111.602 23.8873 116.617 29.5139 120.602C35.46 124.811 42.1967 127.212 49.2096 128.927C52.2152 129.662 55.2424 130.218 58.3616 129.945C58.8869 129.907 59.4014 129.782 59.4609 129.15C59.5259 128.475 58.9898 128.328 58.4808 128.236C57.1756 127.985 55.8597 127.767 54.5492 127.55C50.7043 126.896 46.9081 126.112 43.361 124.381C35.4004 120.488 28.2683 115.43 22.2085 108.95C15.97 102.27 12.2063 94.3256 11.4482 85.1511C10.9825 79.6192 10.9445 74.0383 10.8633 68.4846C10.82 65.5825 10.885 62.6423 11.2857 59.7784C12.1089 53.9633 13.9284 48.4205 16.739 43.248C21.0117 35.353 26.7412 28.7431 34.2199 23.772C38.3789 21.006 42.9765 19.0459 47.5796 17.1456C49.0905 16.5195 50.6122 15.9097 52.1123 15.2454C52.3885 15.1202 52.5563 14.7608 52.7729 14.5104C52.4589 14.3579 52.1556 14.102 51.8253 14.0639C51.4245 14.0149 50.9967 14.1183 50.5905 14.1946C45.9929 15.0821 41.6822 16.77 37.5503 18.937C26.7033 24.6268 18.4665 32.8865 13.1432 44.0157C8.93003 52.809 7.23501 62.1632 6.98049 71.844C6.95883 72.6008 6.96966 73.3686 6.82345 74.0927C6.57434 75.3396 5.72954 75.6772 4.65729 75.002C3.55797 74.316 2.90271 73.2923 2.69693 72.0183C2.04166 67.951 1.71133 63.8728 1.96585 59.7457C2.43699 52.1284 4.43526 44.9468 8.04191 38.2442C13.7335 27.6704 21.889 19.4978 32.1945 13.465C45.4459 5.71703 59.9429 2.08536 75.0031 0.353911C76.0482 0.234126 77.0934 0.12523 78.1332 0H78.1278Z" fill="#DF2A37"/>
<path fill-rule="evenodd" clip-rule="evenodd" d="M0 84.2636C0.119138 83.8661 0.227446 83.4686 0.346584 83.0821C1.11557 80.6156 3.96406 79.9023 5.81612 81.7154C7.01833 82.8969 7.43532 84.4378 7.62485 86.0277C7.93895 88.663 8.16639 91.2983 8.41008 93.9444C8.51298 95.1477 7.53279 96.0407 6.27642 95.9372C3.69329 95.7249 1.75458 94.2221 1.01809 91.7393C0.649846 90.487 0.454892 89.1802 0.184123 87.9007C0.1408 87.6884 0.0595692 87.4869 0 87.28L0 84.2636Z" fill="#DF2A37"/>
<path fill-rule="evenodd" clip-rule="evenodd" d="M109.125 72.8622C99.1012 73.5047 89.0557 73.9784 79.0535 74.8441C72.463 75.4158 65.8995 76.4558 59.3469 77.4249C51.9603 78.5139 44.5846 79.7499 37.2089 80.9314C34.4199 81.3887 31.631 81.8788 28.8367 82.3525C28.6092 82.3906 28.3764 82.4341 28.1435 82.4341C27.407 82.4233 26.703 82.2545 26.4377 81.465C26.1831 80.7136 26.5893 80.1419 27.185 79.7444C30.2826 77.6972 33.3531 75.6118 36.5049 73.6571C41.2054 70.7278 46.2417 68.4628 51.3159 66.2903C52.0795 65.9636 52.621 65.4954 53.0651 64.7985C54.8413 61.9672 56.6717 59.1685 58.4642 56.3536C58.9137 55.6512 59.4877 55.2755 60.3434 55.0904C68.8347 53.2228 77.3152 51.3063 85.7956 49.406C87.756 48.965 88.3084 49.2808 88.8499 51.2192C89.5214 53.653 90.1659 56.0814 90.8049 58.5206C90.9673 59.1522 91.3085 59.4843 91.9475 59.6749C96.3286 61.0034 100.742 62.2557 105.053 63.7857C108.064 64.8584 110.95 66.3176 113.88 67.6298C114.54 67.9292 115.158 68.3321 115.748 68.7623C116.837 69.5463 117.069 70.1834 116.745 71.2233C116.398 72.2959 115.423 73.0201 114.302 73.0419C112.58 73.0745 110.858 73.1127 109.136 73.1453C109.131 73.0528 109.125 72.9548 109.12 72.8622H109.125Z" fill="white"/>
<path fill-rule="evenodd" clip-rule="evenodd" d="M414.092 62.8383C419.757 62.2939 424.918 61.8474 430.051 61.2212C430.69 61.145 431.362 60.2031 431.768 59.5225C435.115 53.8163 438.305 48.0176 441.776 42.3931C443.108 40.2316 445.003 38.4076 446.742 36.5073C447.364 35.8213 448.209 35.2659 449.054 34.863C451.442 33.725 453.57 35.1842 453.023 37.7869C452.455 40.5038 451.448 43.1445 450.489 45.7635C448.946 50.0376 447.283 54.2682 445.534 58.88C447.651 58.4389 449.325 57.9435 451.025 57.8019C451.827 57.7366 452.688 58.3464 453.511 58.6458C453.17 59.4898 453.078 60.6985 452.455 61.096C450.002 62.6913 447.332 63.9382 444.857 65.5063C443.909 66.1052 442.918 67.0798 442.561 68.098C440.704 73.4502 439.176 78.9114 437.276 84.2418C436.55 86.2836 435.299 88.1838 433.999 89.9425C433.209 91.0151 431.974 91.9135 430.761 92.4907C426.905 94.3419 423.158 92.0333 423.011 87.7537C422.838 82.7227 424.382 78.0184 425.947 73.325C426.039 73.0528 426.125 72.7751 426.299 72.2469C425.633 72.3395 425.107 72.3885 424.598 72.5028C419.735 73.5755 414.899 74.7352 410.015 75.688C408.596 75.9603 407.87 76.5048 407.361 77.8442C405.309 83.2073 403.256 88.565 400.976 93.8246C399.872 96.3619 398.442 98.8121 396.817 101.055C395.924 102.302 394.467 103.342 393.048 103.952C389.014 105.689 385.039 103.326 385.228 98.9754C385.412 94.9953 386.301 90.9825 387.367 87.1167C388.353 83.5285 389.989 80.1147 391.369 76.5429C389.582 75.9766 387.698 75.5792 385.997 74.7733C383.615 73.6517 380.918 72.3558 381.226 69.1216C381.53 65.98 384.329 65.1524 386.848 64.6787C389.859 64.107 392.945 63.8565 396.01 63.7422C397.608 63.6823 398.409 63.0888 399.27 61.7875C404.253 54.3281 409.246 46.8905 414.493 39.6272C416.139 37.3513 418.435 35.4619 420.683 33.7359C421.614 33.0281 423.764 32.6034 424.398 33.1642C425.259 33.921 425.697 35.8431 425.438 37.0736C424.907 39.6435 423.975 42.1754 422.876 44.5656C420.136 50.5059 417.222 56.3481 414.087 62.8274L414.092 62.8383Z" fill="white"/>
<path fill-rule="evenodd" clip-rule="evenodd" d="M516.556 56.8654C522.107 56.3699 527.49 55.8799 532.878 55.4171C534.373 55.281 535.889 55.0795 537.368 55.2102C538.272 55.3027 539.128 55.967 540 56.3754C539.312 57.1104 538.738 58.2647 537.899 58.5097C530.804 60.5406 523.732 62.7294 516.524 64.2159C512.571 65.0271 510.166 66.6279 508.444 70.3522C504.518 78.8624 500.148 87.1657 495.935 95.5507C495.523 96.3674 495.09 97.2331 494.44 97.8375C493.942 98.3057 492.994 98.725 492.42 98.5562C491.841 98.3928 491.126 97.5053 491.083 96.8846C490.931 94.7339 490.871 92.5451 491.083 90.4053C491.862 82.5158 494.494 75.1871 498.15 68.2123C498.366 67.804 498.55 67.3902 498.724 66.9655C498.772 66.8511 498.74 66.7041 498.74 66.5081C497.142 66.029 495.518 65.588 493.926 65.038C493.254 64.8148 492.593 64.4554 492.03 64.0307C490.682 63.0071 489.902 61.6786 490.416 59.9254C490.942 58.134 492.247 57.1322 494.056 57.2084C496.46 57.3173 498.859 57.5841 501.236 57.9653C503.424 58.3083 504.773 57.5351 506.148 55.7492C508.737 52.3789 511.656 49.2536 514.558 46.1392C516.183 44.3968 517.878 44.1518 519.286 45.0829C520.699 45.9976 521.208 47.9795 520.244 50.054C519.205 52.3081 517.889 54.4261 516.551 56.8708L516.556 56.8654Z" fill="white"/>
<path fill-rule="evenodd" clip-rule="evenodd" d="M473.981 88.6739C470.786 91.1621 467.64 93.7321 464.38 96.1223C460.99 98.5997 457.302 100.337 452.926 99.9773C448.843 99.6397 446 96.9227 446.422 92.8228C446.791 89.2782 447.971 85.7936 448.941 82.3307C449.428 80.5993 450.175 78.9277 450.933 77.2834C451.6 75.8187 451.334 74.904 449.932 74.0383C447.836 72.7479 447.982 71.3758 450.192 70.2759C456.392 67.1887 461.634 70.265 461.542 77.2017C461.499 80.5666 460.654 83.926 460.129 87.5577C460.708 87.2691 461.315 87.0187 461.878 86.6811C468.501 82.6628 474.377 77.8061 478.85 71.3703C479.998 69.7042 481.178 67.9782 482.695 66.6933C483.588 65.931 485.337 65.4464 486.355 65.8058C487.206 66.1107 488.115 67.8911 488.023 68.9202C487.661 72.6553 486.881 76.3632 486.274 80.0711C485.646 83.8661 484.953 87.6503 484.46 91.4616C484.276 92.8664 484.687 94.3365 484.644 95.7684C484.601 96.9717 484.666 98.8175 484 99.1987C483.079 99.7431 481.254 99.6288 480.279 99.0353C476.868 96.9608 474.739 93.8029 473.981 89.8009C473.862 89.1639 473.754 88.5323 473.646 87.9007C473.765 88.1566 473.873 88.418 473.998 88.6793L473.981 88.6739Z" fill="white"/>
<path fill-rule="evenodd" clip-rule="evenodd" d="M352.075 82.2599C343.633 86.7519 335.39 91.6848 325.377 87.7973C319.426 93.2802 312.126 93.3782 304.761 92.8446C298.609 92.3927 292.495 91.5378 286.354 90.9879C284.529 90.8191 282.666 90.9879 280.825 91.1295C276.736 91.4453 274.814 89.0496 277.056 85.6357C279.206 82.347 282.006 79.2217 285.163 76.9186C291.515 72.2742 298.306 68.245 304.913 63.9545C305.411 63.6333 305.877 63.2794 306.797 62.626C303.088 62.5933 299.903 62.7186 296.735 62.4899C293.99 62.2884 291.179 61.9944 288.585 61.1559C285.266 60.0833 283.76 56.909 284.638 53.996C285.314 51.7364 287.096 50.6801 289.365 50.8217C293.865 51.1048 298.376 51.3226 302.887 51.3553C306.965 51.3879 311.048 50.9469 315.115 51.1103C317.444 51.2028 319.87 51.7636 322.02 52.6675C325.275 54.0341 326.195 57.0505 324.511 60.1704C323.758 61.5643 322.718 62.9363 321.5 63.9327C314.687 69.5082 307.777 74.9748 300.905 80.4795C300.505 80.8007 300.109 81.122 299.405 81.6991C307.117 83.3761 314.249 86.5885 322.182 84.2854C320.471 76.6354 324.24 71.3758 329.417 66.9655C337.297 60.2412 346.416 56.4407 356.9 56.4625C358.498 56.4625 360.095 56.8763 361.704 57.0287C362.668 57.1213 363.68 57.2411 364.612 57.056C367.623 56.4516 369.719 58.1068 369.356 61.194C369.166 62.7676 368.489 64.3084 367.872 65.7949C366.919 68.0817 365.749 70.265 364.812 72.5464C363.626 75.443 364.655 77.2561 367.644 78.1437C369.253 78.6228 370.926 79.1019 372.345 79.9676C374.414 81.2254 374.267 83.2563 372.226 84.6012C366.903 88.1076 356.635 86.986 352.081 82.2654L352.075 82.2599ZM339.122 74.8114C339.273 75.1926 339.42 75.5737 339.577 75.9548C342.631 75.1218 345.647 74.0546 348.75 73.521C353.803 72.6607 354.296 68.1416 356.76 64.5534C349.167 65.8929 342.95 68.3975 339.122 74.8169V74.8114Z" fill="white"/>
<path fill-rule="evenodd" clip-rule="evenodd" d="M200.272 43.4494C198.317 51.8399 194.575 59.1468 190.73 66.372C183.798 79.4068 176.688 92.3328 169.507 105.231C168.131 107.709 166.225 109.903 164.379 112.07C162.987 113.687 161.167 115.07 158.904 114.052C156.618 113.018 156.613 110.753 156.775 108.613C157.252 102.417 159.543 96.7322 161.839 91.0696C168.148 75.5084 175.968 60.8074 186.739 47.8379C187.816 46.5366 188.943 45.2789 190.372 43.6128C188.927 43.7652 187.86 43.9504 186.793 43.983C183.062 44.1191 181.025 41.4185 182.764 38.0972C183.777 36.1698 185.547 34.2913 187.443 33.2513C193.123 30.1206 199.384 29.391 205.801 29.7939C212.402 30.2023 218.321 32.2441 223.157 36.9102C230.219 43.7217 231.405 53.9742 225.984 62.1523C219.843 71.4193 210.702 75.8024 200.136 77.5828C197.429 78.0402 194.613 78.0239 191.862 77.9422C190.616 77.9095 189.289 77.3759 188.19 76.7334C186.571 75.7915 186.712 74.3432 188.434 73.6463C189.56 73.1943 190.789 72.9384 191.992 72.7043C198.609 71.4139 204.734 68.9964 209.868 64.5044C211.357 63.214 212.7 61.6133 213.686 59.909C216.225 55.526 215.207 50.5113 211.227 47.4241C208.048 44.9631 204.371 43.7162 200.261 43.4331L200.272 43.4494Z" fill="white"/>
<path fill-rule="evenodd" clip-rule="evenodd" d="M258.211 90.2692C262.749 90.8409 267.282 91.2003 271.733 92.0387C276.948 93.0134 282.114 94.3256 287.264 95.6269C293.66 97.2494 300.061 97.2821 306.494 95.9644C307.171 95.8283 307.913 95.5506 308.52 95.714C309.332 95.9372 310.486 96.3783 310.681 96.9935C310.935 97.7667 310.681 99.1714 310.101 99.6615C308.715 100.843 307.106 101.877 305.422 102.553C297.965 105.536 290.2 105.449 282.428 104.295C269.518 102.378 256.619 100.832 243.562 102.711C241.504 103.01 239.447 103.413 237.383 103.467C233.614 103.571 231.475 100.446 232.715 96.8411C233.896 93.4054 236.349 90.9062 239.138 88.8046C248.138 82.0095 257.214 75.3232 266.269 68.6153C266.507 68.4356 266.848 68.3811 267.357 68.1906C262.3 67.8857 257.691 67.7332 253.104 67.2595C251.328 67.0798 249.508 66.372 247.9 65.5281C245.799 64.4337 244.851 61.8528 245.615 59.9907C246.53 57.7747 248.398 57.3445 250.564 57.4371C260.258 57.8346 269.951 58.2702 279.645 58.537C284.421 58.6676 286.436 61.2757 284.438 65.6206C283.457 67.7495 282.006 69.8512 280.268 71.3921C273.515 77.3923 266.561 83.1583 259.678 89.0169C259.11 89.496 258.547 89.9752 258.216 90.2638L258.211 90.2692Z" fill="white"/>
<path fill-rule="evenodd" clip-rule="evenodd" d="M215.824 87.8245C216.512 83.1202 218.429 78.8787 221.305 75.2035C225.014 70.461 229.022 65.9528 232.899 61.3465C234.193 59.811 235.515 58.3083 236.744 56.7293C237.724 55.4715 238.959 54.3717 240.437 55.1775C241.455 55.7329 242.457 57.1159 242.658 58.2702C243.367 62.3537 242.663 66.4265 240.67 69.971C236.917 76.7062 232.715 83.1855 228.859 89.8663C227.495 92.2293 226.72 94.9245 225.453 97.3529C224.944 98.3329 223.828 99.656 222.984 99.6615C221.435 99.6669 219.507 99.2368 218.418 98.2458C215.927 95.9644 215.662 92.6758 215.624 89.4416C215.624 88.9134 215.749 88.369 215.819 87.8354L215.824 87.8245Z" fill="white"/>
<path fill-rule="evenodd" clip-rule="evenodd" d="M237.097 45.5076C237.909 44.2008 239.084 41.5329 240.947 39.4856C245.658 34.2913 251.713 31.3184 258.585 30.1805C259.787 29.9845 261.135 30.6923 262.419 30.9809C262.067 32.2441 262.072 33.8067 261.314 34.7105C257.209 39.6272 253.034 44.4948 248.62 49.112C247.153 50.6529 245.019 51.8507 242.967 52.4551C239.214 53.5441 236.42 50.7727 237.102 45.5021L237.097 45.5076Z" fill="white"/>
</g>
<defs>
<clipPath id="clip0_73_26">
<rect width="540" height="136" fill="white"/>
</clipPath>
</defs>
</svg>
