<svg width="62" height="59" viewBox="0 0 62 59" fill="none" xmlns="http://www.w3.org/2000/svg">
<path d="M30.55 52.4021C43.2213 52.4021 53.4934 42.1299 53.4934 29.4586C53.4934 16.7873 43.2213 6.5152 30.55 6.5152C17.8787 6.5152 7.60653 16.7873 7.60653 29.4586C7.60653 42.1299 17.8787 52.4021 30.55 52.4021Z" fill="white"/>
<path d="M3.37695 37.7395C3.32957 36.8591 3.23979 35.8155 2.66496 35.0972C2.37318 34.7331 1.96917 34.5249 1.48786 34.5112C-0.646877 34.4638 0.048908 37.9028 0.36438 39.0525C0.511518 39.5525 0.72973 40.0475 1.13872 40.3892C1.52028 40.7159 2.03401 40.9179 2.54401 41.0064C3.458 41.171 3.68494 40.4291 3.61512 40.0899C3.46673 39.3991 3.42683 38.6934 3.37695 37.7395Z" fill="#DF2A37"/>
<path d="M41.185 29.3177C41.1775 29.3377 41.1713 29.3788 41.185 29.3975C41.1937 29.4075 41.2224 29.4337 41.3409 29.425C41.8359 29.3826 43.0067 28.7728 43.3372 28.5584C43.3733 28.2915 43.4332 28.112 43.7923 27.3488C43.3185 27.4548 41.7099 27.9262 41.185 29.3177Z" fill="#DF2A37"/>
<path d="M61.6209 23.4397C61.6209 23.4397 59.5834 6.39551 44.9532 1.76692C36.7883 -0.816711 32.7184 -0.046111 27.7194 0.82549C21.8464 1.84423 14.7963 4.33808 9.72754 8.65369C6.26732 11.6014 2.77344 16.0617 1.4305 21.6716C0.702293 24.7216 0.621242 27.6469 1.16989 30.8353C1.37439 31.9912 3.00661 33.066 3.02282 31.1832C3.23106 10.2198 20.4885 6.33815 21.0995 6.2147C21.3215 6.1748 21.5409 6.13116 21.7317 6.0763C22.006 6.0127 22.3165 5.96657 22.5734 6.00771C22.7255 6.03016 22.8589 6.31571 22.6195 6.43416C21.2367 7.0888 15.8662 8.90557 12.9371 11.4618C9.97319 14.0653 6.08403 18.2438 4.86079 25.4672C4.65131 26.7067 4.45055 33.0959 5.03162 37.5936C5.37702 40.181 7.14142 43.6823 8.32101 45.1899C11.4782 49.2399 16.9472 52.6914 19.9249 53.7475C21.8177 54.4259 24.1158 54.6291 25.2892 54.9059C25.7032 55.0019 25.652 55.5107 25.2356 55.573C23.3415 55.8748 18.7752 54.8161 15.0008 52.9595C12.1615 51.5629 10.2076 49.6451 8.30355 47.5765C6.20622 45.3033 5.08025 42.9317 4.30217 43.0863C3.01783 43.3494 4.1064 46.0914 4.66876 47.1488C6.60275 50.7748 10.4932 53.9196 12.4209 54.9782C18.4697 58.2813 24.5884 58.3661 27.3753 58.1355C39.2622 57.1441 46.5792 51.4445 49.8224 46.973C51.724 44.3519 55.9735 38.833 55.8875 30.7567C55.875 29.4711 55.9972 20.5369 53.0757 15.8746C52.4098 14.8098 50.416 10.4617 42.8596 6.73467C42.2785 6.44913 39.7011 5.15108 37.5901 5.0825C36.6973 5.06005 34.9017 4.98773 35.0713 3.92659C35.1873 3.18717 39.5927 4.16975 40.0565 4.29943C43.2262 5.17851 47.2837 7.61874 50.0968 9.76221C58.8302 16.447 57.9349 30.5834 57.9349 30.5834C57.5471 45.6163 48.7551 51.9744 42.4232 55.7239C42.301 55.795 41.8446 56.376 41.998 56.603C42.1464 56.8262 42.4469 56.8025 42.7474 56.7726C45.1814 56.5344 47.5406 54.7351 49.5656 53.1502C59.9986 44.9879 60.5373 38.6111 61.1171 36.2058C61.9725 32.7094 62.0224 25.6505 61.6209 23.4397ZM17.7702 33.4663C17.0121 33.5922 16.537 33.4438 16.4597 33.2368C16.441 33.1944 16.4198 33.081 16.5757 32.9787C16.7116 32.8939 16.9036 32.8291 17.1468 32.748C17.4074 32.6595 17.7266 32.5548 18.0583 32.3877C19.2927 31.7742 20.5558 30.6981 20.3663 29.5272C20.1481 28.1107 18.2877 28.0297 17.7665 28.0359C17.87 28.3364 17.7665 29.3963 16.0507 33.7655C15.8911 34.177 15.739 34.5773 15.5881 34.9613C14.5581 37.6298 13.8087 39.5575 13.0643 39.6909C13.0169 39.7009 12.9708 39.7009 12.9334 39.6934C12.785 39.6834 12.6665 39.6036 12.5818 39.474C12.2214 38.9191 12.4571 37.3455 13.3025 34.6596C14.4659 30.9799 15.9584 28.8439 16.4472 28.2055C16.1879 28.3015 15.9672 28.3663 15.7888 28.4013C15.416 28.4624 15.2814 28.3801 15.2078 28.309C15.1367 28.2379 15.012 28.0072 15.0457 27.708C15.0731 27.4561 15.2215 27.0833 15.7639 26.7216C16.2664 26.39 17.0058 26.1119 17.7565 25.9797C19.1605 25.7303 20.4399 26.0047 21.3452 26.7404C23.1869 28.2379 22.2068 30.3365 22.1968 30.3552C21.0596 32.7692 18.3575 33.3615 17.8288 33.455L17.7702 33.4638V33.4663ZM29.3105 33.0161C30.6634 32.8727 31.7408 33.0161 32.6897 33.1408C33.4428 33.2431 34.0987 33.3316 34.7509 33.2618C35.1611 33.2156 35.9753 33.0847 36.4417 32.8765C36.4467 32.8765 36.5576 32.8254 36.6798 32.8116C36.8494 32.7929 36.9754 32.8528 37.039 32.985C37.1886 33.2842 36.8644 33.5236 36.6861 33.6571L36.6649 33.6758C36.0701 34.1234 35.1424 34.4314 34.0351 34.5523C33.59 34.5972 33.1136 34.6159 32.6298 34.5972C31.2856 34.5523 30.0749 34.581 29.0349 34.6932C27.7531 34.8317 26.9713 35.0598 26.4538 35.2095C26.1832 35.2868 25.985 35.3417 25.8191 35.3591C25.5909 35.3816 25.4189 35.3292 25.2505 35.1858C24.9712 34.9439 24.9513 34.5174 25.1869 34.0199C25.4613 33.4538 26.0573 32.9002 26.5773 32.4076C26.6533 32.3415 26.7219 32.2755 26.7905 32.2119C27.7681 31.2854 29.3492 29.7866 29.9153 29.2492C29.6572 29.314 29.2282 29.41 28.6933 29.4711C28.4626 29.4936 28.2344 29.5085 28.0075 29.5135C27.3765 29.5322 26.9376 29.4499 26.6683 29.2828C26.3952 29.1157 26.2555 28.804 26.3254 28.5334C26.3952 28.2379 26.6945 28.0683 27.1184 28.0895H27.1683C27.2518 28.0983 27.4326 28.117 27.5486 28.1045C27.5486 28.1045 31.5201 27.698 31.5774 27.6918C31.9241 27.6568 32.1697 27.7292 32.3056 27.9062C32.5176 28.1731 32.4041 28.5933 32.3206 28.8202C32.0986 29.41 31.2994 30.3041 30.8505 30.7854C30.1859 31.4862 29.0212 32.6857 28.606 33.1121C28.8429 33.0697 29.0773 33.0373 29.3118 33.0136L29.3105 33.0161ZM28.1272 24.0694C28.1047 24.143 27.9751 24.3749 27.9152 24.4685C27.6521 24.8887 27.081 25.7515 26.6109 26.4012C26.3753 26.7154 25.9363 27.3114 25.4139 27.3987C25.4014 27.4037 25.3877 27.4087 25.3752 27.4087C24.9488 27.4636 24.6096 27.2329 24.546 26.8364C24.4762 26.4423 24.6458 25.9087 24.9887 25.4373C25.7443 24.3936 27 23.7901 27.6147 23.653C27.8641 23.5931 28.0199 23.6156 28.1097 23.7116C28.1733 23.7889 28.182 23.9073 28.1259 24.0669L28.1272 24.0694ZM24.546 28.6382C24.6146 28.4649 24.7168 28.213 24.9799 28.1481C24.9887 28.1481 24.9924 28.1431 25.0024 28.1431C25.1021 28.1232 25.2268 28.1481 25.3104 28.2005C25.4825 28.3152 25.5697 28.5808 25.6146 29.1332C25.7007 30.3016 24.9562 31.7655 24.359 32.9376C23.9974 33.6471 23.6881 34.2568 23.6083 34.682C23.6557 34.8204 23.6507 34.9464 23.5871 35.0648C23.5111 35.1983 23.3639 35.2918 23.1894 35.3242C22.9587 35.3641 22.7243 35.298 22.5434 35.1359C22.1494 34.7768 21.9225 34.0024 22.0098 33.3341C22.1207 32.4999 22.3764 31.5859 24.3652 28.92C24.5061 28.7292 24.5323 28.6893 24.5448 28.6382H24.546ZM28.0536 40.777C27.9526 41.3107 27.8479 41.8843 27.7556 42.4815C27.6371 43.2247 27.4888 44.0589 27.1795 44.635C26.9488 45.0664 26.6309 45.3358 26.2743 45.3994C26.1234 45.423 25.9638 45.4143 25.8054 45.3644C24.9513 45.1699 25.248 43.2546 25.5298 42.0339C24.5211 42.4716 23.5098 42.8294 22.6021 43.0801C22.3527 43.9567 22.127 44.8195 21.9312 45.64C21.713 46.5789 21.3202 47.8496 20.4299 48.0092C20.3077 48.0291 20.1805 48.0291 20.0396 48.0092C19.8289 47.9705 19.6568 47.8608 19.5384 47.665C19.0396 46.8358 19.5932 44.7273 19.991 43.4828C19.4872 43.4679 19.062 43.3831 18.7316 43.2322C18.3376 43.0501 18.1169 42.7821 18.1331 42.5115C18.1443 42.2097 18.4423 41.9317 18.9523 41.7346C19.2802 41.6062 19.8189 41.5015 20.3913 41.403L20.6544 41.3543L20.7741 41.3331C21.8202 38.767 23.3614 35.9788 24.1719 35.8354C24.1869 35.8329 24.2068 35.823 24.2243 35.823C24.3403 35.8205 24.5485 35.8791 24.5934 36.2731C24.6682 36.8641 24.2081 38.1647 23.9612 38.8642L23.955 38.8879C23.6981 39.6099 23.4874 40.2408 23.2804 40.873C24.2044 40.6922 25.076 40.4989 25.8615 40.3057C25.9176 40.2882 25.9737 40.277 26.0323 40.2658C26.7581 38.0163 27.8766 35.6895 28.6035 35.5636C28.6422 35.5524 28.6758 35.5524 28.7045 35.5524C28.8404 35.5673 28.9314 35.6172 28.9975 35.7008C29.1709 35.9539 29.0337 36.5075 28.7606 37.6098C28.6284 38.1422 28.4614 38.8019 28.2868 39.6099C28.5374 39.5238 28.7319 39.454 28.8766 39.3979C28.9514 39.368 29.015 39.3443 29.0686 39.3268C29.2644 39.2557 29.3529 39.2483 29.434 39.2757C29.5512 39.2894 29.5936 39.363 29.6035 39.4104C29.6422 39.5201 29.5661 39.676 29.4128 39.8343C29.1609 40.0775 28.6858 40.4092 28.0524 40.7745L28.0536 40.777ZM36.2197 37.7669C36.201 37.9652 36.1474 38.3168 36.09 38.7283C35.9354 39.8206 35.6948 41.4728 35.8893 41.8693C36.0177 42.1224 35.9853 42.2883 35.9417 42.3768C35.893 42.4741 35.8008 42.5364 35.6811 42.5576C35.4915 42.5888 35.2546 42.514 35.0489 42.3481C34.7571 42.1187 34.1087 41.6 34.0613 40.5513C33.1573 41.7359 32.3056 42.4741 31.5263 42.7509C31.3854 42.797 31.2482 42.8332 31.1148 42.8619C30.4128 42.9841 29.8841 42.7359 29.6771 42.1785C29.4178 41.494 29.6983 40.6885 29.9739 39.9079C30.0437 39.7021 30.111 39.5014 30.1672 39.3094C30.1809 39.267 30.1933 39.2258 30.2083 39.1784C30.2831 38.9577 30.333 38.8106 30.02 38.6747C29.8467 38.6036 29.7569 38.5201 29.7395 38.4216C29.7257 38.3467 29.7519 38.2719 29.823 38.2008C29.9265 38.0849 30.222 37.9365 30.5537 37.8767C30.8106 37.8318 31.1722 37.8268 31.4677 38.0487C31.7171 38.237 31.8717 38.55 31.9066 38.9902C31.9565 39.4266 31.8792 40.2333 31.6685 40.9029C31.944 40.7845 32.7657 40.2159 33.5102 39.4989C34.1748 38.868 34.5638 38.252 34.8456 37.8006C35.1411 37.3367 35.3544 36.9976 35.6798 36.9402C35.7185 36.9365 35.7584 36.9277 35.8033 36.9365C35.9068 36.9365 35.9965 36.9814 36.0701 37.0587C36.1948 37.1971 36.2434 37.4377 36.2222 37.7644L36.2197 37.7669ZM45.2874 35.298C45.2038 35.3778 44.9033 35.52 44.5953 35.6596L44.5292 35.6858C43.4319 36.1896 42.0566 36.7245 40.3259 37.3218C39.4854 39.4291 38.3258 42.8668 38.236 43.1487C38.13 43.4928 37.9554 43.721 37.7809 43.7547C37.716 43.7609 37.6524 43.7484 37.6013 43.7073C37.4816 43.62 37.3968 43.4192 37.3594 43.1112C37.1562 41.4678 37.4467 39.6647 38.226 37.747C37.7148 37.7544 37.2634 37.6859 36.9417 37.545C36.7285 37.4514 36.5726 37.2968 36.499 37.1085C36.4454 36.9627 36.4504 36.803 36.5128 36.6646C36.615 36.4377 36.7871 36.3055 37.0252 36.2594L37.0377 36.2556C37.1936 36.232 37.3582 36.2432 37.4642 36.2556C37.9779 36.3043 38.7061 36.1983 38.9704 36.1571C39.7024 34.7943 40.3795 33.9601 40.574 33.7319C40.7062 33.5735 40.8658 33.4787 41.0329 33.4451C41.2099 33.4139 41.3795 33.4675 41.493 33.5972C41.6538 33.768 41.7025 34.0536 41.6127 34.3815C41.5354 34.677 41.3097 35.1446 41.0977 35.5998L41.0329 35.7245C41.2386 35.6733 41.4319 35.6272 41.6052 35.5848C41.9182 35.5112 42.1651 35.4489 42.3085 35.419C42.816 35.3155 43.2275 35.2232 43.5778 35.1459C44.8223 34.879 45.154 34.8042 45.3235 34.9663C45.3609 35 45.3809 35.0511 45.3809 35.0997C45.3809 35.1696 45.346 35.2369 45.2886 35.298H45.2874ZM46.8535 29.7991C46.5642 30.1395 45.6976 30.3477 45.2899 30.3864L45.2762 30.3914C44.5118 30.45 43.8596 30.2467 43.6564 29.8876C43.5728 29.94 43.4681 30.0173 43.3322 30.1133C42.7274 30.5522 41.7237 31.2866 40.6151 31.3777C40.362 31.3964 40.1126 31.3814 39.8795 31.3378C39.7635 31.3153 39.6612 31.2767 39.564 31.2305C39.4854 31.5186 39.1138 31.8266 38.5203 32.071C38.049 32.2692 37.5352 32.3839 36.8931 32.4338C36.3781 32.4812 35.8419 32.4787 35.3232 32.4725C34.8007 32.4675 34.2683 32.4675 33.7458 32.5086C33.3555 32.5411 33.0114 32.5947 32.6897 32.6795C32.449 32.7393 32.2308 32.6608 32.1361 32.4912C31.9465 32.1408 32.2582 31.4363 32.9066 30.7442C33.4927 30.1183 34.3107 29.4649 35.1025 28.8314C35.5788 28.4499 36.0339 28.0858 36.3993 27.7516C36.0427 27.8077 35.3207 27.9162 34.6785 27.9673C34.3381 28.0022 34.0613 28.011 33.8531 27.9973C33.454 27.9798 32.9291 27.8027 32.7782 27.3775C32.6822 27.1132 32.6984 26.8326 32.8293 26.6418C32.9328 26.4785 33.0974 26.3825 33.2907 26.3638H33.3219C33.4117 26.3575 33.4752 26.375 33.5563 26.395C33.6847 26.4236 33.7645 26.4423 33.9528 26.4137C34.3705 26.3675 35.3793 26.2104 36.8744 25.9623C37.039 25.9348 37.1986 25.9149 37.3457 25.9024C38.2871 25.8239 38.6837 26.077 38.8545 26.2989C39.0764 26.5945 39.0478 26.9947 38.7834 27.4287C38.6974 27.5621 38.2597 28.0521 37.9991 28.3302C37.4043 28.9536 35.9018 30.4537 35.4167 30.9013C35.6786 30.92 35.9616 30.9562 36.2534 30.9924C36.8419 31.0722 37.5103 31.1532 38.0989 31.1071C38.4792 31.0772 38.7934 30.9924 39.054 30.854C39.0677 30.8477 39.0964 30.8378 39.1251 30.834C39.0989 30.7916 39.0777 30.748 39.059 30.7068C38.8096 30.1544 38.9069 29.4811 39.3346 28.7641C40.2049 27.3114 42.2199 26.0608 43.9307 25.9174C44.2711 25.89 44.6028 25.9049 44.9133 25.9648C44.9856 25.9174 45.2063 25.7902 45.3859 25.8039C45.4944 25.8114 45.6527 25.88 45.76 26.0346C45.8472 26.163 45.9308 26.4074 45.8198 26.7952C45.7213 27.1294 45.6265 27.405 45.5455 27.6481C45.3397 28.2541 45.2325 28.5584 45.4582 28.8215C45.5567 28.9412 45.7038 29.011 45.8834 29.0285C46.7413 29.1008 46.9371 29.3514 46.9558 29.5509C46.9583 29.6407 46.9271 29.7267 46.856 29.8053L46.8535 29.7991ZM36.9255 11.6126C36.9317 11.6126 36.9629 11.6102 36.9629 11.6102C37.4268 11.5852 37.5951 11.8633 37.731 12.3433C37.7697 12.4818 37.8445 12.7972 37.9318 13.1937C38.1026 13.9581 38.4642 15.5417 38.6275 15.7948C38.7847 15.8684 39.6413 16.1427 40.4717 16.4058C41.9706 16.8747 43.8272 17.4645 44.5791 17.8136C44.7899 17.9096 45.0505 18.0194 45.3323 18.1428C47.8398 19.2501 49.0331 19.8735 49.0506 20.4284C49.0606 20.714 48.9571 20.982 48.765 21.1841C48.5344 21.4384 48.1952 21.5556 47.8635 21.4983C47.5269 21.4409 41.8072 21.4671 36.1262 21.7626C33.8144 21.8811 31.8592 22.0295 30.3056 22.199C24.1021 22.8961 13.29 24.4784 12.9508 24.5483C12.876 24.5632 12.795 24.5707 12.7264 24.5769C12.3985 24.5956 12.1279 24.4834 12.0082 24.2876C11.9147 24.1393 11.9196 23.9497 12.0169 23.7739C12.2725 23.3076 15.6953 21.32 17.4697 20.3898C19.0782 19.5556 20.9586 18.785 21.9649 18.3697C22.3215 18.2263 22.6582 18.0879 22.718 18.058C22.8103 17.9607 23.4051 17.0655 23.8826 16.346C25.4675 13.9469 25.5897 13.8384 25.7867 13.8259C25.9463 13.801 28.4713 13.2935 30.9103 12.8047C34.5414 12.0728 36.7634 11.6289 36.9242 11.6139L36.9255 11.6126Z" fill="#DF2A37"/>
<path d="M53.2702 52.4619C52.8375 52.4407 52.4597 52.5754 52.143 52.8671C51.8188 53.1564 51.6479 53.5193 51.628 53.9507C51.6056 54.3871 51.739 54.7675 52.027 55.0867C52.3163 55.4109 52.6804 55.5842 53.1143 55.6054C53.5508 55.6266 53.9248 55.4894 54.2503 55.1977C54.572 54.9046 54.7416 54.5405 54.7665 54.1053C54.7852 53.6714 54.6505 53.2948 54.3613 52.9744C54.072 52.6539 53.7066 52.4831 53.2702 52.4606V52.4619ZM54.5421 54.0954C54.5234 54.4732 54.3775 54.7887 54.1007 55.0405C53.8251 55.2912 53.4996 55.4109 53.1256 55.3909C52.7502 55.3722 52.4385 55.2238 52.1866 54.947C51.9397 54.6677 51.8263 54.3398 51.8437 53.9632C51.8612 53.5904 52.0096 53.2774 52.2814 53.0268C52.5607 52.7749 52.8824 52.6589 53.2577 52.6764C53.633 52.6938 53.9448 52.8447 54.1979 53.1203C54.4473 53.3996 54.5608 53.725 54.5421 54.0954Z" fill="#DF2A37"/>
<path d="M53.9186 53.6977C53.9298 53.4795 53.8488 53.3298 53.6717 53.245C53.5757 53.2001 53.4211 53.1727 53.2054 53.1615L52.6031 53.1303L52.5158 54.8548L52.8188 54.8685L52.8537 54.1902L53.0919 54.2027C53.2552 54.2114 53.3675 54.2388 53.4286 54.2762C53.5345 54.3473 53.5857 54.4807 53.572 54.679L53.5657 54.8137L53.5707 54.8723V54.8922C53.5707 54.8922 53.5732 54.9022 53.5769 54.9084L53.8612 54.9221L53.8513 54.9022C53.845 54.886 53.8388 54.8561 53.8388 54.8099C53.8388 54.7638 53.8425 54.7214 53.8425 54.6815L53.8488 54.5555C53.8538 54.4683 53.8263 54.3785 53.769 54.285C53.7104 54.1902 53.6156 54.1291 53.4809 54.1004C53.5882 54.0892 53.6742 54.0655 53.7341 54.0306C53.85 53.9633 53.9111 53.8535 53.9186 53.7002V53.6977ZM53.4298 53.9695C53.3662 53.9907 53.2652 53.9969 53.1405 53.9919L52.8625 53.9782L52.8949 53.3548L53.1542 53.3672C53.3226 53.3747 53.4473 53.4034 53.5183 53.4483C53.5919 53.4957 53.6281 53.5817 53.6218 53.7076C53.6156 53.8398 53.5508 53.9258 53.4298 53.9695Z" fill="#DF2A37"/>
</svg>
