<svg width="23" height="23" viewBox="0 0 23 23" fill="none" xmlns="http://www.w3.org/2000/svg">
<path d="M9.80051 1.43962C10.4323 -0.33087 12.9361 -0.33087 13.5679 1.43962L15.3703 6.49115C15.5664 7.0407 15.9927 7.47722 16.5375 7.68626L21.6099 9.63273C23.3212 10.2894 23.3212 12.7105 21.6099 13.3672L16.5375 15.3137C15.9927 15.5227 15.5664 15.9592 15.3703 16.5088L13.5679 21.5603C12.9361 23.3308 10.4323 23.3308 9.80051 21.5603L7.99804 16.5088C7.80195 15.9592 7.37564 15.5227 6.83089 15.3137L1.7585 13.3672C0.0472033 12.7105 0.0472069 10.2894 1.7585 9.63273L6.83089 7.68626C7.37565 7.47722 7.80195 7.0407 7.99804 6.49115L9.80051 1.43962Z" fill="url(#paint0_angular_11_318)"/>
<defs>
<radialGradient id="paint0_angular_11_318" cx="0" cy="0" r="1" gradientUnits="userSpaceOnUse" gradientTransform="translate(11.6842 11.5) rotate(90) scale(15.3394 14.7916)">
<stop stop-color="#03B9BB"/>
<stop offset="1" stop-color="white"/>
</radialGradient>
</defs>
</svg>
