<svg width="228" height="292" viewBox="0 0 228 292" fill="none" xmlns="http://www.w3.org/2000/svg">
<g clip-path="url(#clip0_110_5)">
<path d="M111.038 291.846C87.7428 291.846 64.4164 292.399 41.1669 291.4C17.4102 290.386 0.937333 274.391 0.537804 250.82C-0.276621 203.495 -0.138323 156.138 0.722202 108.813C1.12173 86.8864 20.0994 70.1534 42.0889 70.092C88.1269 69.969 134.165 69.9537 180.203 70.092C203.268 70.1688 221.754 88.5612 221.862 111.702C222.061 157.736 222.077 203.771 221.862 249.806C221.754 274.207 203.068 291.57 177.007 291.8C155.017 292 133.043 291.846 111.054 291.846C111.054 291.769 111.054 291.923 111.054 291.846H111.038Z" fill="#51AE6C"/>
<path d="M105.921 223.593C105.998 216.463 100.282 210.609 93.1361 210.532C86.006 210.455 80.1514 216.171 80.0746 223.316C79.9977 230.446 85.7141 236.3 92.8595 236.377C92.9056 236.377 92.9517 236.377 92.9978 236.377C100.036 236.484 105.829 230.845 105.921 223.808C105.921 223.731 105.921 223.654 105.921 223.593ZM116.478 202.665V244.49H105.721V240.695C101.895 243.844 97.0699 245.565 92.1065 245.535C79.3831 245.535 69.4102 235.762 69.4102 223.547C69.4102 211.331 79.3677 201.574 92.1065 201.574C97.0699 201.543 101.895 203.264 105.721 206.414V202.619L116.478 202.65V202.665ZM152.22 235.009H144.138C141.679 235.009 140.096 233.949 140.096 231.721V212.161H152.22V202.665H140.096V190.757H129.247V202.665H121.057V212.161H129.247V234.425C129.247 240.049 133.289 244.49 140.588 244.49H152.22V234.994V235.009ZM176.73 245.565C189.161 245.565 196.169 239.757 196.169 231.721C196.169 226.005 192.02 221.749 183.338 219.905L174.164 218.061C168.832 217.093 167.157 216.125 167.157 214.189C167.157 211.669 169.723 210.117 174.456 210.117C179.588 210.117 183.338 211.469 184.413 216.125H195.17C194.57 207.413 188.163 201.605 175.147 201.605C163.899 201.605 156.016 206.153 156.016 214.973C156.016 221.073 160.365 225.037 169.723 226.973L179.972 229.293C184.014 230.062 185.105 231.137 185.105 232.781C185.105 235.393 182.047 237.038 177.099 237.038C170.891 237.038 167.341 235.685 165.958 231.03H155.109C156.692 239.742 163.3 245.55 176.715 245.55M26.0459 187.853H66.5828V197.533H36.9869V211.377H65.7991V220.766H36.9869V234.81H66.5828V244.49H26.0459V187.837V187.853Z" fill="#1F140F"/>
<path d="M195.186 138.791V131.17H192.297C187.672 131.17 184.291 133.275 182.232 136.594V131.508H173.98V172.764H182.309V149.301C182.309 142.909 186.258 138.775 191.713 138.775H195.17L195.186 138.791ZM135.333 148.333C136.824 142.018 142.018 137.807 148.195 137.807C154.372 137.807 159.566 142.018 160.965 148.333H135.333ZM148.364 130.693C136.532 130.601 126.866 140.112 126.759 151.944C126.759 152.005 126.759 152.082 126.759 152.143C126.759 164.436 136.486 173.67 149.102 173.67C156.77 173.67 163.024 170.352 167.234 164.851L161.195 160.487C158.06 164.62 153.942 166.556 149.071 166.556C142.171 166.602 136.255 161.624 135.133 154.817H169.339V152.143C169.339 139.836 160.442 130.693 148.318 130.693M100.789 166.541C92.8756 166.479 86.5292 160.026 86.5907 152.113C86.6521 144.2 93.1061 137.854 101.02 137.915C108.887 137.976 115.234 144.369 115.234 152.236C115.203 160.164 108.765 166.572 100.82 166.556C100.82 166.556 100.82 166.556 100.805 166.556M78.1237 172.764H86.3755V167.586C90.3555 171.55 95.7645 173.763 101.373 173.732C113.743 173.732 123.47 164.098 123.47 152.205C123.47 140.312 113.743 130.601 101.373 130.601C95.7798 130.586 90.4016 132.798 86.4524 136.747V116.111H78.1237V172.749V172.764ZM48.8659 166.126C56.8718 166.126 63.0492 160.057 63.0492 151.068V116.127H71.7005V172.779H63.126V167.524C59.2537 171.489 53.8907 173.763 47.8824 173.763C35.5124 173.763 26.0312 164.943 26.0312 151.59V116.142H34.6826V151.083C34.6826 160.226 40.7831 166.141 48.8659 166.141" fill="#1F140F"/>
</g>
<path d="M30.0582 14.6618C30.0582 16.5364 29.7162 18.3098 29.0322 19.9818C28.3482 21.6538 27.3855 23.1231 26.1442 24.3898C24.9029 25.6311 23.4335 26.6191 21.7362 27.3538C20.0389 28.0884 18.1642 28.4558 16.1122 28.4558C14.0602 28.4558 12.1855 28.1011 10.4882 27.3918C8.79085 26.6571 7.33419 25.6691 6.11819 24.4278C4.90219 23.1864 3.95219 21.7298 3.26819 20.0578C2.58419 18.3858 2.24219 16.6124 2.24219 14.7378C2.24219 12.8631 2.58419 11.0898 3.26819 9.41777C3.95219 7.74577 4.91485 6.2891 6.15619 5.04777C7.39752 3.7811 8.86685 2.78043 10.5642 2.04577C12.2615 1.3111 14.1362 0.943766 16.1882 0.943766C18.2402 0.943766 20.1149 1.3111 21.8122 2.04577C23.5095 2.7551 24.9662 3.73043 26.1822 4.97177C27.3982 6.2131 28.3482 7.66976 29.0322 9.34177C29.7162 11.0138 30.0582 12.7871 30.0582 14.6618ZM25.1562 14.7378C25.1562 13.4458 24.9282 12.2298 24.4722 11.0898C24.0415 9.92443 23.4209 8.9111 22.6102 8.04977C21.8249 7.18843 20.8749 6.50443 19.7602 5.99776C18.6455 5.4911 17.4295 5.23776 16.1122 5.23776C14.7949 5.23776 13.5789 5.4911 12.4642 5.99776C11.3749 6.4791 10.4375 7.15043 9.65219 8.01177C8.86685 8.84777 8.24619 9.84843 7.79019 11.0138C7.35952 12.1538 7.14419 13.3698 7.14419 14.6618C7.14419 15.9538 7.35952 17.1824 7.79019 18.3478C8.24619 19.4878 8.86685 20.4884 9.65219 21.3498C10.4629 22.2111 11.4255 22.8951 12.5402 23.4018C13.6549 23.9084 14.8709 24.1618 16.1882 24.1618C17.5055 24.1618 18.7089 23.9211 19.7982 23.4398C20.9129 22.9331 21.8629 22.2618 22.6482 21.4258C23.4335 20.5644 24.0415 19.5638 24.4722 18.4238C24.9282 17.2584 25.1562 16.0298 25.1562 14.7378Z" fill="white"/>
<path d="M39.7713 20.3618V27.9998H35.1733V7.93577H39.7713V12.4578C40.4047 10.9378 41.304 9.72177 42.4693 8.80977C43.6347 7.89777 45.104 7.47977 46.8773 7.55576V12.4198H46.6113C45.598 12.4198 44.6733 12.5844 43.8373 12.9138C43.0013 13.2431 42.2793 13.7371 41.6713 14.3958C41.0633 15.0544 40.5947 15.8904 40.2653 16.9038C39.936 17.8918 39.7713 19.0444 39.7713 20.3618Z" fill="white"/>
<path d="M70.036 27.9998H65.438V24.6558C64.7033 25.6944 63.7786 26.5811 62.664 27.3158C61.5746 28.0504 60.2193 28.4178 58.598 28.4178C57.4073 28.4178 56.2546 28.1898 55.14 27.7338C54.0253 27.2778 53.0373 26.6064 52.176 25.7198C51.3146 24.8078 50.618 23.7058 50.086 22.4138C49.554 21.1218 49.288 19.6398 49.288 17.9678C49.288 16.2958 49.5413 14.8138 50.048 13.5218C50.58 12.2298 51.2766 11.1404 52.138 10.2538C52.9993 9.34177 53.9873 8.65777 55.102 8.20177C56.242 7.74576 57.4073 7.51777 58.598 7.51777C60.2446 7.51777 61.6126 7.87243 62.702 8.58177C63.7913 9.2911 64.7033 10.1144 65.438 11.0518V0.259766H70.036V27.9998ZM65.514 17.9678C65.514 16.9798 65.3493 16.0931 65.02 15.3078C64.716 14.5224 64.298 13.8511 63.766 13.2938C63.234 12.7111 62.6133 12.2678 61.904 11.9638C61.1946 11.6598 60.46 11.5078 59.7 11.5078C58.9146 11.5078 58.1673 11.6598 57.458 11.9638C56.774 12.2424 56.166 12.6604 55.634 13.2178C55.102 13.7751 54.684 14.4591 54.38 15.2698C54.076 16.0551 53.924 16.9544 53.924 17.9678C53.924 18.9558 54.076 19.8551 54.38 20.6658C54.684 21.4511 55.102 22.1224 55.634 22.6798C56.166 23.2371 56.774 23.6678 57.458 23.9718C58.1673 24.2758 58.9146 24.4278 59.7 24.4278C60.46 24.4278 61.1946 24.2758 61.904 23.9718C62.6133 23.6678 63.234 23.2371 63.766 22.6798C64.298 22.0971 64.716 21.4131 65.02 20.6278C65.3493 19.8424 65.514 18.9558 65.514 17.9678Z" fill="white"/>
<path d="M79.267 19.6018C79.5457 21.2484 80.2043 22.5151 81.243 23.4018C82.2817 24.2631 83.5483 24.6938 85.043 24.6938C86.183 24.6938 87.171 24.4911 88.007 24.0858C88.843 23.6804 89.6663 23.0851 90.477 22.2998L93.175 24.6938C92.2123 25.8338 91.0597 26.7458 89.717 27.4298C88.3997 28.1138 86.8163 28.4558 84.967 28.4558C83.523 28.4558 82.1677 28.2024 80.901 27.6958C79.6597 27.1891 78.5703 26.4798 77.633 25.5678C76.721 24.6558 75.999 23.5664 75.467 22.2998C74.935 21.0078 74.669 19.5764 74.669 18.0058C74.669 16.5618 74.9097 15.2064 75.391 13.9398C75.8723 12.6731 76.5437 11.5711 77.405 10.6338C78.2917 9.6711 79.3303 8.9111 80.521 8.35377C81.7117 7.79643 83.029 7.51777 84.473 7.51777C86.069 7.51777 87.4623 7.8091 88.653 8.39177C89.869 8.97443 90.8697 9.75977 91.655 10.7478C92.4657 11.7358 93.0737 12.8884 93.479 14.2058C93.8843 15.5231 94.087 16.9038 94.087 18.3478C94.087 18.5504 94.0743 18.7531 94.049 18.9558C94.049 19.1584 94.0363 19.3738 94.011 19.6018H79.267ZM79.229 16.5618H89.527C89.451 15.8271 89.2863 15.1431 89.033 14.5098C88.7797 13.8511 88.4377 13.2938 88.007 12.8378C87.5763 12.3564 87.057 11.9764 86.449 11.6978C85.8663 11.4191 85.195 11.2798 84.435 11.2798C83.0163 11.2798 81.8383 11.7738 80.901 12.7618C79.989 13.7244 79.4317 14.9911 79.229 16.5618Z" fill="white"/>
<path d="M103.303 16.6758V27.9998H98.7046V7.93577H103.303V11.0518C103.632 10.5704 103.987 10.1271 104.367 9.72176C104.772 9.2911 105.228 8.9111 105.735 8.58177C106.267 8.25243 106.837 7.9991 107.445 7.82177C108.078 7.6191 108.787 7.51777 109.573 7.51777C111.853 7.51777 113.613 8.21443 114.855 9.60777C116.096 11.0011 116.717 12.8758 116.717 15.2318V27.9998H112.119V16.5998C112.119 15.0291 111.739 13.8258 110.979 12.9898C110.244 12.1284 109.193 11.6978 107.825 11.6978C106.482 11.6978 105.393 12.1411 104.557 13.0278C103.721 13.8891 103.303 15.1051 103.303 16.6758Z" fill="white"/>
<path d="M139.103 27.9998H134.543V25.5298C133.859 26.3404 132.985 27.0244 131.921 27.5818C130.857 28.1391 129.565 28.4178 128.045 28.4178C127.082 28.4178 126.17 28.2784 125.309 27.9998C124.448 27.7464 123.688 27.3664 123.029 26.8598C122.396 26.3278 121.876 25.6818 121.471 24.9218C121.091 24.1364 120.901 23.2371 120.901 22.2238V22.1478C120.901 21.0584 121.104 20.1084 121.509 19.2978C121.914 18.4871 122.472 17.8158 123.181 17.2838C123.916 16.7518 124.777 16.3591 125.765 16.1058C126.778 15.8271 127.868 15.6878 129.033 15.6878C130.249 15.6878 131.275 15.7638 132.111 15.9158C132.972 16.0678 133.796 16.2704 134.581 16.5238V16.0298C134.581 14.6364 134.15 13.5724 133.289 12.8378C132.453 12.1031 131.237 11.7358 129.641 11.7358C128.501 11.7358 127.488 11.8498 126.601 12.0778C125.714 12.3058 124.815 12.6098 123.903 12.9898L122.649 9.30377C123.764 8.7971 124.904 8.39177 126.069 8.08776C127.234 7.78377 128.64 7.63177 130.287 7.63177C133.276 7.63177 135.493 8.3791 136.937 9.87376C138.381 11.3431 139.103 13.4204 139.103 16.1058V27.9998ZM134.657 20.7418V19.4878C134.074 19.2598 133.378 19.0698 132.567 18.9178C131.782 18.7658 130.946 18.6898 130.059 18.6898C128.615 18.6898 127.488 18.9684 126.677 19.5258C125.866 20.0831 125.461 20.8811 125.461 21.9198V21.9958C125.461 22.9584 125.828 23.6931 126.563 24.1998C127.323 24.7064 128.248 24.9598 129.337 24.9598C130.097 24.9598 130.794 24.8584 131.427 24.6558C132.086 24.4531 132.656 24.1744 133.137 23.8198C133.618 23.4398 133.986 22.9964 134.239 22.4898C134.518 21.9578 134.657 21.3751 134.657 20.7418Z" fill="white"/>
<path d="M176.712 17.9678C176.712 19.6398 176.446 21.1218 175.914 22.4138C175.408 23.7058 174.711 24.8078 173.824 25.7198C172.963 26.6064 171.962 27.2778 170.822 27.7338C169.708 28.1898 168.555 28.4178 167.364 28.4178C165.718 28.4178 164.35 28.0631 163.26 27.3538C162.171 26.6444 161.272 25.8211 160.562 24.8838V34.0798H155.964V7.93577H160.562V11.2798C161.297 10.2158 162.209 9.3291 163.298 8.61976C164.388 7.8851 165.743 7.51777 167.364 7.51777C168.555 7.51777 169.708 7.74576 170.822 8.20177C171.937 8.65777 172.925 9.34177 173.786 10.2538C174.673 11.1404 175.382 12.2298 175.914 13.5218C176.446 14.8138 176.712 16.2958 176.712 17.9678ZM172.038 17.9678C172.038 16.9798 171.886 16.0931 171.582 15.3078C171.278 14.4971 170.86 13.8131 170.328 13.2558C169.822 12.6984 169.214 12.2678 168.504 11.9638C167.82 11.6598 167.086 11.5078 166.3 11.5078C165.515 11.5078 164.768 11.6598 164.058 11.9638C163.349 12.2678 162.728 12.7111 162.196 13.2938C161.664 13.8511 161.234 14.5224 160.904 15.3078C160.6 16.0931 160.448 16.9798 160.448 17.9678C160.448 18.9558 160.6 19.8424 160.904 20.6278C161.234 21.4131 161.664 22.0971 162.196 22.6798C162.728 23.2371 163.349 23.6678 164.058 23.9718C164.768 24.2758 165.515 24.4278 166.3 24.4278C167.086 24.4278 167.82 24.2758 168.504 23.9718C169.214 23.6678 169.822 23.2371 170.328 22.6798C170.86 22.1224 171.278 21.4511 171.582 20.6658C171.886 19.8551 172.038 18.9558 172.038 17.9678Z" fill="white"/>
<path d="M201.713 17.9678C201.713 19.4118 201.435 20.7671 200.877 22.0338C200.345 23.3004 199.598 24.4151 198.635 25.3778C197.698 26.3151 196.571 27.0624 195.253 27.6198C193.936 28.1771 192.505 28.4558 190.959 28.4558C189.439 28.4558 188.021 28.1898 186.703 27.6578C185.411 27.1004 184.284 26.3531 183.321 25.4158C182.384 24.4531 181.649 23.3511 181.117 22.1098C180.585 20.8431 180.319 19.4878 180.319 18.0438C180.319 16.5998 180.585 15.2444 181.117 13.9778C181.675 12.6858 182.422 11.5711 183.359 10.6338C184.322 9.6711 185.449 8.9111 186.741 8.35377C188.059 7.79643 189.49 7.51777 191.035 7.51777C192.581 7.51777 193.999 7.79643 195.291 8.35377C196.609 8.88577 197.736 9.6331 198.673 10.5958C199.636 11.5331 200.383 12.6351 200.915 13.9018C201.447 15.1684 201.713 16.5238 201.713 17.9678ZM197.115 18.0438C197.115 17.1571 196.963 16.3211 196.659 15.5358C196.355 14.7504 195.925 14.0664 195.367 13.4838C194.835 12.8758 194.189 12.4071 193.429 12.0778C192.695 11.7231 191.871 11.5458 190.959 11.5458C190.047 11.5458 189.211 11.7231 188.451 12.0778C187.717 12.4071 187.083 12.8631 186.551 13.4458C186.019 14.0284 185.614 14.7124 185.335 15.4978C185.057 16.2578 184.917 17.0811 184.917 17.9678C184.917 18.8544 185.069 19.7031 185.373 20.5138C185.677 21.2991 186.095 21.9831 186.627 22.5658C187.185 23.1484 187.831 23.6171 188.565 23.9718C189.325 24.3011 190.149 24.4658 191.035 24.4658C191.973 24.4658 192.809 24.3011 193.543 23.9718C194.303 23.6171 194.949 23.1484 195.481 22.5658C196.013 21.9831 196.419 21.3118 196.697 20.5518C196.976 19.7664 197.115 18.9304 197.115 18.0438Z" fill="white"/>
<path d="M210.994 20.3618V27.9998H206.396V7.93577H210.994V12.4578C211.627 10.9378 212.527 9.72177 213.692 8.80977C214.857 7.89777 216.327 7.47977 218.1 7.55576V12.4198H217.834C216.821 12.4198 215.896 12.5844 215.06 12.9138C214.224 13.2431 213.502 13.7371 212.894 14.3958C212.286 15.0544 211.817 15.8904 211.488 16.9038C211.159 17.8918 210.994 19.0444 210.994 20.3618Z" fill="white"/>
<path d="M227.033 13.1418H221.979V7.93577H227.033V13.1418ZM227.033 27.9998H221.979V22.7938H227.033V27.9998Z" fill="white"/>
<defs>
<clipPath id="clip0_110_5">
<rect width="222" height="222" fill="white" transform="translate(0 69.9998)"/>
</clipPath>
</defs>
</svg>
