<svg width="155" height="17" viewBox="0 0 155 17" fill="none" xmlns="http://www.w3.org/2000/svg">
<path d="M29.2 9.58232C29.3267 9.45799 29.4534 9.35852 29.5547 9.23419C29.6054 9.15959 29.6561 9.08498 29.7068 9.01038C29.7321 8.98552 29.7574 8.93579 29.7828 8.91092C29.8841 8.76172 29.9601 8.61252 30.0362 8.46332C30.0615 8.38872 30.1122 8.31412 30.1375 8.23952C30.1629 8.18978 30.1882 8.16492 30.1882 8.11518C30.1882 8.09032 30.2135 8.06545 30.2135 8.04058C30.4923 7.26971 30.5683 6.44911 30.4416 5.55391C30.2135 3.73863 29.2253 2.54503 27.4516 1.89849C26.5648 1.57523 25.5512 1.42603 24.2589 1.42603C23.4481 1.42603 22.6119 1.42603 21.7757 1.42603H18.7604V15.6249H20.7622V11.0495H24.7404C24.7404 11.0495 26.3367 13.1134 26.9195 13.8843C27.3756 14.4811 27.8317 15.053 28.2625 15.6498C28.7946 15.6498 29.352 15.6498 29.8841 15.6498H30.3149C30.1882 15.5006 30.0615 15.3514 29.9602 15.1773L27.2236 11.696L26.5901 10.8754C26.9448 10.8008 27.3249 10.7013 27.705 10.5521C28.2625 10.2786 28.7692 9.98019 29.2 9.58232ZM26.8688 9.15959C26.286 9.43312 25.7539 9.58232 25.2725 9.60719C24.7404 9.63206 24.2336 9.63205 23.7015 9.63205C23.3721 9.63205 23.0173 9.63205 22.6879 9.63205C22.3585 9.63205 22.0038 9.63205 21.6744 9.63205H20.8382V2.91803H23.3214C23.9042 2.91803 24.487 2.91803 25.0698 2.9429C26.0326 2.99263 26.8435 3.29103 27.5023 3.86297C28.2118 4.48464 28.5665 5.30524 28.5412 6.32478C28.5412 7.64272 27.9584 8.63738 26.8688 9.15959Z" fill="white"/>
<path d="M14.3008 8.51303H8.16888V9.78124H12.7045V12.9393C12.5525 13.0885 12.3751 13.2377 12.1724 13.3621C12.071 13.4367 11.9443 13.4864 11.843 13.5361C11.7416 13.5859 11.6403 13.6107 11.5136 13.6605C11.2855 13.7351 11.0575 13.8345 10.8041 13.8843C9.66386 14.1827 8.42227 14.2324 7.99151 14.2324C7.94083 14.2324 7.89015 14.2324 7.83948 14.2324C7.58609 14.2324 7.30736 14.2324 7.02864 14.2075C5.20425 14.0832 3.83596 13.1134 3.17715 11.5219C2.44233 9.75637 2.39165 7.9411 3.02512 6.10096C3.68393 4.18622 5.07756 3.04235 7.10465 2.76881C8.2449 2.61961 9.46115 2.66934 11.0575 2.99261C11.6656 3.11694 12.2991 3.26615 12.9072 3.41535C12.9326 3.41535 12.9579 3.41535 12.9832 3.44021L13.414 2.17201C12.0457 1.67467 10.5507 1.3514 9.00506 1.22707C8.54896 1.17734 8.14354 1.17734 7.73812 1.17734C6.6739 1.17734 5.73636 1.32654 4.87485 1.62494C3.17715 2.22174 1.98623 3.31588 1.30209 4.85762C0.263201 7.19509 0.237863 9.63204 1.20073 12.1436C1.88488 13.934 3.25317 15.0779 5.22959 15.6001C6.6739 15.9731 8.21956 15.9731 10.2213 15.6249C11.5136 15.3763 12.8312 14.9287 14.3515 14.1827C14.3515 12.7404 14.3515 11.2732 14.3515 9.83097V8.51303H14.3008Z" fill="white"/>
<path d="M44.9606 1.40118V3.09212C44.9606 5.18093 44.9606 7.26974 44.9606 9.35855C44.9606 10.204 44.8086 10.9749 44.5299 11.6463C43.795 13.4118 42.4521 14.2324 40.349 14.1578C38.4739 14.1081 37.1056 13.0637 36.5988 11.3479C36.3961 10.6516 36.2948 9.98022 36.2694 9.35855C36.2441 7.26974 36.2441 5.1312 36.2441 3.06726V1.40118H34.1917V2.99266C34.1917 4.95713 34.1917 6.94647 34.1917 8.91094C34.1917 10.4527 34.3944 11.5966 34.8251 12.641C35.4079 14.0584 36.3708 14.9784 37.7897 15.426C39.5888 15.998 41.4639 16.0228 43.2883 15.4509C44.7579 15.0033 45.7461 14.0584 46.3542 12.5912C46.7597 11.5717 46.9624 10.4278 46.9624 8.86121C46.9624 6.94647 46.9624 5.00686 46.9624 3.09212V1.40118H44.9606Z" fill="white"/>
<path d="M61.7349 2.96772C60.8734 2.12225 59.7585 1.62492 58.3142 1.47572C57.478 1.40112 56.5911 1.37625 55.755 1.37625H55.5016C54.8681 1.37625 54.2346 1.37625 53.6012 1.37625H51.6248V15.5752H53.6265V11.6214H56.3631C56.7685 11.6214 57.1486 11.6214 57.554 11.6214C58.5422 11.5965 59.4037 11.4224 60.2146 11.0992C61.4815 10.577 62.2924 9.75635 62.7231 8.56275C63.0779 7.59294 63.1539 6.52367 62.9512 5.33007C62.7485 4.38513 62.3684 3.58939 61.7349 2.96772ZM60.3159 8.91088C59.6825 9.63201 58.7956 10.0547 57.706 10.1293C57.0979 10.1542 56.4898 10.1791 55.9323 10.1791H54.9948H54.5387C54.3613 10.1791 53.6012 10.1791 53.6012 10.1791V9.33361V2.89312H54.488C54.8428 2.91799 55.2229 2.89312 55.5776 2.91799C56.4138 2.94286 57.2753 2.96772 58.1368 3.09206C59.9612 3.34073 61.1268 4.783 61.0761 6.67287C61.0761 7.24481 60.9747 8.14001 60.3159 8.91088Z" fill="white"/>
<path d="M76.1526 1.5752C75.2151 1.2768 74.2522 1.12759 73.2893 1.12759C72.3011 1.12759 71.2876 1.30166 70.274 1.62493C68.8804 2.0974 67.8162 2.96773 67.0814 4.23594C66.4479 5.37981 66.1185 6.72261 66.0931 8.46328C66.1185 9.90555 66.2958 10.9748 66.6759 11.9446C67.4108 13.7599 68.703 14.9038 70.6034 15.4508C72.0984 15.8984 73.6948 15.9482 75.2911 15.6C77.9263 15.053 79.548 13.5112 80.1815 10.9251C80.6376 9.06009 80.5869 7.21995 80.0041 5.42954C79.3707 3.46507 78.1037 2.19686 76.1526 1.5752ZM77.9263 11.2484C77.3182 12.9144 76.0006 13.9091 74.1509 14.1578C73.8468 14.2075 73.5427 14.2075 73.2387 14.2075C72.5039 14.2075 71.7944 14.0832 71.1609 13.8096C69.8179 13.2626 68.8804 12.1933 68.5003 10.7262C68.323 10.0548 68.1709 9.43309 68.1709 8.63735C68.1456 8.26435 68.1456 8.01568 68.1456 7.84161C68.2723 6.82208 68.3483 6.29988 68.8551 5.28034C69.5392 3.91267 70.7048 3.04233 72.3011 2.81853C73.4414 2.64447 74.5056 2.74393 75.4431 3.11693C76.7608 3.63914 77.673 4.68354 78.0784 6.10094C78.5852 7.94108 78.5345 9.65689 77.9263 11.2484Z" fill="white"/>
<path d="M94.9794 10.4278C94.878 10.2786 94.802 10.204 94.726 10.1045C92.4708 7.14536 87.7832 1.00327 87.7832 1.00327C87.7832 1.00327 84.7425 1.00327 84.6412 1.00327C84.6412 6.02635 84.6412 10.9997 84.6412 15.9731C85.8068 15.9731 86.947 15.9731 88.1126 15.9731C88.1126 12.8896 88.1126 9.83097 88.1126 6.69776C88.2139 6.82209 88.2646 6.87182 88.3153 6.94642C90.5958 9.90557 95.2581 15.9731 95.2581 15.9731C95.2581 15.9731 97.2092 15.9731 98.0454 15.9731C98.172 15.9731 98.2987 15.9731 98.4254 15.9731C98.4254 10.9748 98.4254 6.00149 98.4254 1.02813C97.2599 1.02813 96.1449 1.02813 94.954 1.02813C94.9794 4.13648 94.9794 7.24483 94.9794 10.4278Z" fill="white"/>
<path d="M148.571 0.978424H143.858C143.858 0.978424 140.361 9.78126 138.689 14.0583C138.435 14.68 138.182 15.3265 137.928 15.9731C137.979 15.998 141.653 15.9731 141.653 15.9731L142.717 13.188H149.686C149.686 13.188 150.471 15.2519 150.75 15.9731C151.991 15.9731 153.233 15.9731 154.5 15.9731C152.498 10.9997 148.571 0.978424 148.571 0.978424ZM143.883 10.0797C144.669 7.99085 145.429 5.92691 146.189 3.9127C146.949 5.92691 147.709 7.99085 148.52 10.0797C146.949 10.0797 145.429 10.0797 143.883 10.0797Z" fill="white"/>
<path d="M137.168 1.00327C137.042 1.00327 133.19 1.00327 133.19 1.00327C133.19 1.00327 129.82 5.92689 129.617 6.20042C129.567 6.15069 125.994 1.00327 125.994 1.00327C125.994 1.00327 125.994 1.00327 125.817 1.00327C124.651 1.00327 122.168 1.00327 122.066 1.00327C123.688 3.46507 125.335 5.95175 126.931 8.41356C125.284 10.95 121.965 15.9979 121.965 15.9979H125.893C125.893 15.9979 129.541 10.6018 129.617 10.4775C129.693 10.6018 133.418 15.9979 133.418 15.9979H137.295L132.303 8.41356C132.329 8.38869 137.118 1.10273 137.168 1.00327Z" fill="white"/>
<path d="M119.685 12.0939C118.266 12.7404 116.771 13.1134 115.2 13.1134C113.375 13.1383 112.032 12.268 111.399 10.6019C110.968 9.45803 110.943 8.26443 111.171 7.07082C111.323 6.27509 111.627 5.52908 112.21 4.95715C112.97 4.21114 113.933 3.93761 114.972 3.86301C116.34 3.78841 117.683 4.06194 119 4.43494C119.254 4.50954 119.482 4.58414 119.735 4.65874C120.09 3.7884 120.445 2.94294 120.774 2.09747C119.862 1.625 118.899 1.27686 117.886 1.07793C115.985 0.68006 114.085 0.630327 112.21 1.20226C110.107 1.8488 108.688 3.24134 108.003 5.28041C107.319 7.31949 107.294 9.43316 107.927 11.4971C108.713 14.133 110.588 15.625 113.35 16.0975C114.617 16.2964 115.884 16.2467 117.125 16.0477C118.62 15.7991 120.014 15.2769 121.332 14.4811C120.952 13.6356 120.571 12.7902 120.166 11.9198C119.989 11.9696 119.837 12.0193 119.685 12.0939Z" fill="white"/>
<path d="M101.846 15.9731C103.012 15.9731 104.127 15.9731 105.292 15.9731C105.292 10.9749 105.292 6.00155 105.292 1.0282C104.127 1.0282 102.986 1.0282 101.846 1.0282C101.846 6.02642 101.846 10.9998 101.846 15.9731Z" fill="white"/>
</svg>
