<svg width="276" height="161" viewBox="0 0 276 161" fill="none" xmlns="http://www.w3.org/2000/svg">
<g clip-path="url(#clip0_301_95)">
<path d="M44.2818 57.6523C44.4771 57.4578 44.6723 57.3022 44.8285 57.1077C44.9066 56.991 44.9847 56.8743 45.0628 56.7576C45.1019 56.7187 45.1409 56.6409 45.18 56.602C45.3362 56.3685 45.4533 56.1351 45.5704 55.9017C45.6095 55.785 45.6876 55.6683 45.7266 55.5516C45.7657 55.4738 45.8047 55.4349 45.8047 55.3571C45.8047 55.3182 45.8438 55.2793 45.8438 55.2404C46.2733 54.0345 46.3905 52.7507 46.1952 51.3502C45.8438 48.5104 44.3209 46.6432 41.5874 45.6317C40.2207 45.126 38.6587 44.8926 36.6672 44.8926C35.4177 44.8926 34.129 44.8926 32.8404 44.8926H28.1935V67.1054H31.2784V59.9475H37.4092C37.4092 59.9475 39.8693 63.1763 40.7674 64.3823C41.4703 65.3159 42.1732 66.2107 42.837 67.1443C43.657 67.1443 44.5161 67.1443 45.3362 67.1443H46C45.8047 66.9109 45.6095 66.6775 45.4533 66.4052L41.236 60.9589L40.2598 59.6752C40.8064 59.5585 41.3922 59.4029 41.9779 59.1695C42.837 58.7415 43.618 58.2747 44.2818 57.6523ZM40.6893 56.991C39.7912 57.4189 38.9711 57.6523 38.2292 57.6912C37.4092 57.7301 36.6282 57.7301 35.8081 57.7301C35.3005 57.7301 34.7538 57.7301 34.2462 57.7301C33.7385 57.7301 33.1918 57.7301 32.6842 57.7301H31.3956V47.2267H35.2224C36.1205 47.2267 37.0187 47.2267 37.9168 47.2656C39.4007 47.3434 40.6502 47.8102 41.6655 48.7049C42.7589 49.6775 43.3056 50.9612 43.2665 52.5562C43.2665 54.618 42.3684 56.174 40.6893 56.991Z" fill="white"/>
<path d="M21.3209 55.9795H11.871V57.9635H18.8608V62.904C18.6265 63.1374 18.3532 63.3708 18.0408 63.5653C17.8846 63.682 17.6893 63.7598 17.5331 63.8376C17.3769 63.9154 17.2207 63.9543 17.0255 64.0322C16.674 64.1489 16.3226 64.3045 15.9321 64.3823C14.1749 64.8491 12.2615 64.9269 11.5976 64.9269C11.5195 64.9269 11.4414 64.9269 11.3633 64.9269C10.9729 64.9269 10.5433 64.9269 10.1138 64.888C7.30222 64.6935 5.19356 63.1763 4.17829 60.6866C3.04586 57.9246 2.96776 55.0848 3.94399 52.2061C4.95927 49.2106 7.10698 47.4212 10.2309 46.9932C11.9881 46.7598 13.8625 46.8376 16.3226 47.3434C17.2598 47.5379 18.236 47.7713 19.1732 48.0047C19.2122 48.0047 19.2513 48.0047 19.2903 48.0436L19.9542 46.0596C17.8455 45.2816 15.5416 44.7759 13.1596 44.5813C12.4567 44.5035 11.8319 44.5035 11.2071 44.5035C9.56708 44.5035 8.12226 44.7369 6.79458 45.2038C4.17829 46.1374 2.34297 47.8491 1.28864 50.261C-0.312377 53.9177 -0.351426 57.7301 1.13244 61.6592C2.18677 64.4601 4.29543 66.2495 7.34127 67.0665C9.56708 67.65 11.9491 67.65 15.034 67.1054C17.0255 66.7164 19.056 66.0161 21.399 64.8491C21.399 62.5928 21.399 60.2976 21.399 58.0413V55.9795H21.3209Z" fill="white"/>
<path d="M68.5705 44.8536V47.4989C68.5705 50.7667 68.5705 54.0344 68.5705 57.3021C68.5705 58.6248 68.3362 59.8308 67.9066 60.8811C66.7742 63.6431 64.7046 64.9269 61.4635 64.8102C58.5739 64.7324 56.4652 63.0985 55.6842 60.4143C55.3718 59.325 55.2156 58.2747 55.1766 57.3021C55.1375 54.0344 55.1375 50.6889 55.1375 47.46V44.8536H51.9745V47.3433C51.9745 50.4166 51.9745 53.5287 51.9745 56.6019C51.9745 59.0138 52.2869 60.8033 52.9508 62.4372C53.8489 64.6546 55.3328 66.0939 57.5195 66.7941C60.292 67.6889 63.1817 67.7278 65.9932 66.833C68.2581 66.1328 69.781 64.6546 70.7182 62.3594C71.343 60.7644 71.6554 58.9749 71.6554 56.5241C71.6554 53.5287 71.6554 50.4944 71.6554 47.4989V44.8536H68.5705Z" fill="white"/>
<path d="M94.421 47.3044C93.0934 45.9817 91.3752 45.2037 89.1494 44.9703C87.8608 44.8536 86.494 44.8147 85.2054 44.8147H84.8149C83.8387 44.8147 82.8625 44.8147 81.8862 44.8147H78.8404V67.0275H81.9253V60.8422H86.1426C86.7674 60.8422 87.3531 60.8422 87.9779 60.8422C89.5008 60.8033 90.8285 60.5309 92.0781 60.0252C94.0305 59.2083 95.2801 57.9245 95.944 56.0573C96.4906 54.5401 96.6078 52.8673 96.2954 51.0001C95.983 49.5218 95.3973 48.2769 94.421 47.3044ZM92.2343 56.6019C91.258 57.73 89.8913 58.3914 88.2122 58.5081C87.275 58.547 86.3378 58.5859 85.4788 58.5859H84.0339H83.3311C83.0577 58.5859 81.8862 58.5859 81.8862 58.5859V57.2632V47.1877H83.253C83.7996 47.2266 84.3854 47.1877 84.9321 47.2266C86.2207 47.2655 87.5484 47.3044 88.876 47.4989C91.6876 47.8879 93.4839 50.1442 93.4058 53.1007C93.4058 53.9955 93.2496 55.3959 92.2343 56.6019Z" fill="white"/>
<path d="M116.64 45.1259C115.195 44.6591 113.711 44.4257 112.228 44.4257C110.705 44.4257 109.143 44.698 107.581 45.2037C105.433 45.9428 103.793 47.3044 102.66 49.2884C101.684 51.0778 101.177 53.1785 101.138 55.9016C101.177 58.1579 101.45 59.8307 102.036 61.3478C103.168 64.1877 105.16 65.9771 108.088 66.833C110.392 67.5332 112.852 67.611 115.312 67.0664C119.374 66.2105 121.873 63.7986 122.849 59.7529C123.552 56.8353 123.474 53.9565 122.576 51.1556C121.599 48.0824 119.647 46.0984 116.64 45.1259ZM119.374 60.2586C118.436 62.865 116.406 64.4211 113.555 64.8101C113.087 64.8879 112.618 64.8879 112.149 64.8879C111.017 64.8879 109.924 64.6934 108.947 64.2655C106.878 63.4096 105.433 61.7369 104.847 59.4417C104.574 58.3913 104.34 57.4188 104.34 56.1739C104.301 55.5904 104.301 55.2014 104.301 54.9291C104.496 53.3341 104.613 52.5172 105.394 50.9222C106.448 48.7826 108.244 47.4211 110.705 47.071C112.462 46.7987 114.102 46.9543 115.547 47.5378C117.577 48.3547 118.983 49.9886 119.608 52.206C120.389 55.0847 120.311 57.7689 119.374 60.2586Z" fill="white"/>
<path d="M145.654 58.9749C145.498 58.7415 145.38 58.6248 145.263 58.4692C141.788 53.8399 134.564 44.2312 134.564 44.2312C134.564 44.2312 129.878 44.2312 129.722 44.2312C129.722 52.0893 129.722 59.8696 129.722 67.65C131.518 67.65 133.275 67.65 135.071 67.65C135.071 62.8262 135.071 58.0413 135.071 53.1397C135.228 53.3342 135.306 53.412 135.384 53.5287C138.898 58.158 146.083 67.65 146.083 67.65C146.083 67.65 149.09 67.65 150.379 67.65C150.574 67.65 150.769 67.65 150.964 67.65C150.964 59.8307 150.964 52.0504 150.964 44.2701C149.168 44.2701 147.45 44.2701 145.615 44.2701C145.654 49.1328 145.654 53.9955 145.654 58.9749Z" fill="white"/>
<path d="M228.243 44.1923H220.98C220.98 44.1923 215.591 57.9634 213.014 64.6545C212.623 65.627 212.233 66.6385 211.842 67.6499C211.92 67.6888 217.582 67.6499 217.582 67.6499L219.222 63.293H229.961C229.961 63.293 231.172 66.5218 231.601 67.6499C233.514 67.6499 235.428 67.6499 237.38 67.6499C234.295 59.8696 228.243 44.1923 228.243 44.1923ZM221.019 58.4303C222.229 55.1625 223.401 51.9337 224.572 48.7827C225.744 51.9337 226.915 55.1625 228.165 58.4303C225.744 58.4303 223.401 58.4303 221.019 58.4303Z" fill="white"/>
<path d="M210.671 44.2312C210.475 44.2312 204.54 44.2312 204.54 44.2312C204.54 44.2312 199.346 51.9337 199.034 52.3616C198.956 52.2838 193.45 44.2312 193.45 44.2312C193.45 44.2312 193.45 44.2312 193.177 44.2312C191.38 44.2312 187.553 44.2312 187.397 44.2312C189.896 48.0825 192.435 51.9726 194.895 55.8239C192.357 59.7918 187.241 67.6889 187.241 67.6889H193.294C193.294 67.6889 198.917 59.2472 199.034 59.0527C199.151 59.2472 204.891 67.6889 204.891 67.6889H210.866L203.173 55.8239C203.212 55.785 210.593 44.3868 210.671 44.2312Z" fill="white"/>
<path d="M183.727 61.5813C181.54 62.5928 179.236 63.1763 176.815 63.1763C174.003 63.2152 171.934 61.8536 170.958 59.2472C170.294 57.4577 170.255 55.5905 170.606 53.7232C170.84 52.4783 171.309 51.3113 172.207 50.4165C173.379 49.2495 174.862 48.8216 176.464 48.7049C178.572 48.5882 180.642 49.0161 182.672 49.5996C183.063 49.7163 183.414 49.833 183.805 49.9497C184.351 48.5882 184.898 47.2655 185.406 45.9429C184 45.2037 182.516 44.6591 180.954 44.3479C178.025 43.7255 175.097 43.6477 172.207 44.5424C168.966 45.5538 166.779 47.7323 165.725 50.9223C164.671 54.1122 164.632 57.4188 165.608 60.6477C166.818 64.7712 169.708 67.1053 173.964 67.8445C175.917 68.1557 177.869 68.0779 179.783 67.7667C182.087 67.3776 184.234 66.5607 186.265 65.3159C185.679 63.9932 185.093 62.6706 184.469 61.309C184.195 61.3868 183.961 61.4646 183.727 61.5813Z" fill="white"/>
<path d="M156.236 67.65C158.032 67.65 159.751 67.65 161.547 67.65C161.547 59.8308 161.547 52.0505 161.547 44.2701C159.751 44.2701 157.993 44.2701 156.236 44.2701C156.236 52.0894 156.236 59.8697 156.236 67.65Z" fill="white"/>
<path d="M263.309 16.8833L262.997 18.5172C266.667 18.9062 267.37 19.1785 266.901 22.2128L264.598 35.5172L255.304 16.9611H247.143L246.791 18.595C250.188 18.9451 251.555 19.2563 251.243 20.968L249.681 28.9039C249.095 30.4989 247.963 30.8101 246.83 30.8101C242.222 30.8101 239.294 26.2586 239.294 19.2563C239.294 9.4531 245.151 2.0229 251.789 2.0229C255.031 2.0229 256.671 3.30665 257.256 9.18079H258.662C259.248 5.48514 259.951 2.91764 260.107 1.20597C258.857 0.739147 256.514 0.0778198 252.883 0.0778198C240.153 0.0778198 232.109 9.18079 232.109 19.2563C232.109 27.8536 237.341 32.833 246.166 32.833C247.182 32.833 248.119 32.7552 248.939 32.6385L247.572 39.6796L246.986 42.8696C246.713 43.8032 245.503 44.1922 244.058 44.4256L243.667 46.0595H256.358L256.671 44.4256C252.922 44.0366 252.258 43.7643 252.805 40.5744L252.922 39.9909L252.649 41.3913L253.43 37.0732L255.577 25.325C260.458 34.8559 265.3 45.087 265.769 46.0206L267.761 45.9817L271.705 24.508L272.486 20.6179C273.071 19.0618 274.008 18.8284 275.609 18.5561L276 16.9222H263.309V16.8833Z" fill="white"/>
</g>
<g clip-path="url(#clip1_301_95)">
<path d="M45.7711 154.336V137.292C45.7711 137.245 45.7945 137.222 45.7945 137.176C45.7945 137.106 45.7945 137.036 45.7711 136.99V127.051C45.7711 126.982 45.7945 126.912 45.7945 126.843C45.7945 122.57 39.1728 115 24.7828 115C10.2525 115 3.77112 122.57 3.77112 126.843V130.976V136.874V154.893H3.81791C4.0051 156.008 5.05803 157.401 6.95329 158.446C10.463 160.419 16.4764 160.977 24.7828 160.977C33.0892 160.977 39.1026 160.419 42.6123 158.446C44.5076 157.401 45.5371 155.984 45.7477 154.893H45.7711V154.754C45.7711 154.684 45.7945 154.591 45.7945 154.521C45.7711 154.475 45.7711 154.405 45.7711 154.336Z" fill="white"/>
<path d="M42.7528 140.055C42.004 139.498 40.8575 139.103 39.2664 139.103C36.3884 139.103 33.604 140.891 33.604 145.071C33.604 149.065 36.3884 150.946 39.1494 150.946C42.0508 150.946 43.8759 149.181 43.8759 146.58C43.8759 144.931 42.8463 143.817 40.7639 143.817H40.1555C39.0792 143.817 38.2369 144.328 38.2369 145.419C38.2369 146.418 39.1494 146.905 39.828 146.905C40.1555 146.905 40.3895 146.998 40.3895 147.253C40.3895 147.579 39.9917 147.788 39.5706 147.788C38.1901 147.788 37.2307 146.835 37.2307 145.094C37.2307 143.143 38.5177 142.447 39.5238 142.447C40.7405 142.447 40.9511 143.051 41.7934 143.051C42.7761 143.051 43.4547 142.261 43.4547 141.448C43.4547 140.821 43.1739 140.357 42.7528 140.055Z" fill="#E42313"/>
<path d="M26.3505 146.185V148.832C26.3505 150.017 25.6719 150.969 24.385 150.969C23.0981 150.969 22.4196 150.017 22.4196 148.832V141.286C22.4196 140.078 23.1449 139.103 24.4318 139.103C25.204 139.103 25.8825 139.405 26.5377 140.659L28.2457 143.956C28.3393 144.119 28.4095 144.188 28.5031 144.188C28.6435 144.188 28.7137 144.095 28.7137 143.863V141.216C28.7137 140.032 29.3923 139.08 30.6792 139.08C31.9427 139.08 32.6446 140.032 32.6446 141.216V148.763C32.6446 149.97 31.9193 150.945 30.6324 150.945C29.8836 150.945 29.1817 150.644 28.5265 149.39L26.8184 146.092C26.7249 145.93 26.6547 145.86 26.5611 145.86C26.4207 145.86 26.3505 145.953 26.3505 146.185Z" fill="#E42313"/>
<path d="M9.57389 148.786V147.044C9.57389 146.905 9.64408 146.789 9.78447 146.789C9.97166 146.789 10.0419 146.975 10.0887 147.091C10.3694 147.764 11.1884 149.204 11.9605 150.04C12.4753 150.597 13.107 150.945 13.7856 150.945C14.9321 150.945 15.8914 149.947 15.8914 148.902C15.8914 148.252 15.6107 147.764 15.0725 147.16C14.3939 146.417 13.575 145.442 13.2708 144.978C13.1538 144.815 13.1538 144.699 13.1538 144.653C13.1538 144.513 13.224 144.42 13.3644 144.281C13.7154 143.956 14.5577 143.167 15.0257 142.447C15.3767 141.889 15.5405 141.402 15.5405 140.984C15.5405 139.916 14.5577 139.08 13.5048 139.08C12.8263 139.08 12.1945 139.451 11.7499 140.148C11.165 141.077 10.4864 142.145 10.0419 142.586C9.92486 142.702 9.87807 142.725 9.78447 142.725C9.64408 142.725 9.57389 142.632 9.57389 142.47V141.239C9.57389 140.032 8.84854 139.08 7.56163 139.08C6.25133 139.08 5.54938 140.055 5.54938 141.239V148.763C5.54938 149.97 6.25133 150.922 7.56163 150.922C8.84854 150.945 9.57389 149.97 9.57389 148.786Z" fill="#E42313"/>
<path d="M42.8464 152.176C43.5717 152.176 43.8759 152.524 43.8759 153.128C43.8759 154.173 42.8932 155.636 40.9745 156.727C37.7689 158.515 32.2937 159.026 24.6893 159.026C17.0848 159.026 11.6096 158.515 8.40402 156.727C6.48535 155.659 5.50262 154.196 5.50262 153.128C5.50262 152.524 5.8302 152.176 6.53215 152.176H42.8464Z" fill="#F07E26"/>
<path d="M42.8463 128.863H6.55553C5.83018 128.863 5.526 128.491 5.526 127.841C5.526 123.94 11.4458 117.02 24.7126 117.02C37.8391 117.02 43.8993 123.917 43.8993 127.841C43.8993 128.491 43.5717 128.863 42.8463 128.863Z" fill="#F07E26"/>
<path d="M40.5065 133.716C40.2959 133.716 40.2023 133.6 40.2023 133.437V132.601C40.2023 132.439 40.2959 132.323 40.5065 132.323H40.6703C41.1851 132.323 41.3488 132.694 41.3488 132.996C41.3488 133.298 41.1851 133.716 40.6703 133.716H40.5065ZM31.0068 130.883C30.492 130.511 29.7667 130.233 28.6903 130.233C26.7717 130.233 24.9232 131.487 24.9232 134.366C24.9232 137.129 26.7717 138.406 28.6202 138.406C30.5622 138.406 31.7789 137.176 31.7789 135.411C31.7789 134.273 31.1004 133.484 29.7199 133.484H29.3221C28.5968 133.484 28.0352 133.832 28.0352 134.598C28.0352 135.272 28.6435 135.62 29.0881 135.62C29.3221 135.62 29.4625 135.69 29.4625 135.875C29.4625 136.084 29.2051 136.247 28.9009 136.247C27.9884 136.247 27.3566 135.597 27.3566 134.389C27.3566 133.042 28.2224 132.555 28.8775 132.555C29.6965 132.555 29.8369 132.973 30.3984 132.973C31.0536 132.973 31.4981 132.439 31.4981 131.881C31.4747 131.417 31.2876 131.092 31.0068 130.883ZM35.8502 135.272H35.0079C34.7973 135.272 34.7037 135.388 34.7037 135.55V135.782C34.7037 135.945 34.7973 136.061 35.0079 136.061H36.1076C36.7862 136.061 37.3477 136.456 37.3477 137.176C37.3477 137.919 36.8096 138.313 36.1076 138.313H33.7912C32.8085 138.313 32.3405 137.756 32.3405 136.99V131.603C32.3405 130.836 32.8085 130.279 33.7912 130.279H36.1076C36.7862 130.279 37.3477 130.674 37.3477 131.394C37.3477 132.137 36.8096 132.532 36.1076 132.532H35.0079C34.7973 132.532 34.7037 132.648 34.7037 132.81V132.996C34.7037 133.158 34.7973 133.275 35.0079 133.275H35.8502C36.4352 133.275 36.9032 133.623 36.9032 134.25C36.9032 134.877 36.4352 135.272 35.8502 135.272ZM37.8859 137.06C37.8859 137.803 38.3071 138.383 39.1026 138.383C39.8981 138.383 40.3193 137.803 40.3193 137.06V135.759C40.3193 135.597 40.3895 135.527 40.5065 135.527C40.6469 135.527 40.6937 135.62 40.7171 135.759C40.8341 136.386 41.1149 137.222 41.4658 137.663C41.887 138.221 42.2848 138.383 42.6825 138.383C43.3143 138.383 43.8759 137.872 43.8759 137.269C43.8759 136.851 43.7121 136.549 43.4781 136.27C43.0569 135.736 42.7995 135.411 42.6358 134.97C42.589 134.877 42.6124 134.784 42.7293 134.691C43.1037 134.389 43.5483 133.739 43.5483 132.717C43.5483 131.161 42.2614 130.279 40.6937 130.279H39.3366C38.3539 130.279 37.8859 130.836 37.8859 131.603V137.06ZM18.7929 137.06C18.7929 137.803 19.214 138.383 20.0096 138.383C20.8051 138.383 21.2263 137.803 21.2263 137.06V135.759C21.2263 135.597 21.2965 135.527 21.4135 135.527C21.5539 135.527 21.6007 135.62 21.6241 135.759C21.741 136.386 22.0218 137.222 22.3728 137.663C22.794 138.221 23.1917 138.383 23.5895 138.383C24.2213 138.383 24.7828 137.872 24.7828 137.269C24.7828 136.851 24.619 136.549 24.3851 136.27C24.0341 135.806 23.7065 135.411 23.5427 134.97C23.4959 134.877 23.5193 134.784 23.6363 134.691C24.0107 134.389 24.4552 133.739 24.4552 132.717C24.4552 131.161 23.1683 130.279 21.6007 130.279H20.2202C19.2374 130.279 18.7695 130.836 18.7695 131.603V137.06H18.7929ZM21.4135 133.716C21.2029 133.716 21.1093 133.6 21.1093 133.437V132.601C21.1093 132.439 21.2029 132.323 21.4135 132.323H21.5773C22.092 132.323 22.2558 132.694 22.2558 132.996C22.2558 133.298 22.092 133.716 21.5773 133.716H21.4135ZM8.00622 134.97H8.21681C8.80177 134.97 8.98895 135.364 8.98895 135.713C8.98895 136.038 8.82517 136.479 8.21681 136.479H8.00622C7.79564 136.479 7.70205 136.363 7.70205 136.2V135.248C7.70205 135.086 7.79564 134.97 8.00622 134.97ZM8.00622 133.507C7.79564 133.507 7.70205 133.391 7.70205 133.228V132.392C7.70205 132.23 7.79564 132.114 8.00622 132.114H8.17001C8.70817 132.114 8.84856 132.485 8.84856 132.787C8.84856 133.089 8.68478 133.507 8.17001 133.507H8.00622ZM6.9767 138.313H8.70817C10.3461 138.313 11.3522 137.222 11.3522 135.875C11.3522 134.784 10.697 134.296 10.5566 134.157C10.4864 134.111 10.4397 134.064 10.4397 134.018C10.4397 133.948 10.4864 133.925 10.5332 133.855C10.7672 133.576 11.0012 133.158 11.0012 132.532C11.0012 131.069 9.99508 130.279 8.45079 130.279H6.9767C5.99397 130.279 5.526 130.836 5.526 131.603V136.99C5.526 137.756 5.99397 138.313 6.9767 138.313ZM14.9555 138.383C12.9667 138.383 11.9137 137.199 11.9137 135.713V131.579C11.9137 130.836 12.3349 130.256 13.1305 130.256C13.926 130.256 14.3706 130.836 14.3706 131.579V135.573C14.3706 135.875 14.511 136.2 14.9555 136.2C15.4001 136.2 15.5639 135.852 15.5639 135.573V131.579C15.5639 130.836 15.9851 130.256 16.7806 130.256C17.5761 130.256 17.9973 130.836 17.9973 131.579V135.69C18.0207 137.199 16.9444 138.383 14.9555 138.383Z" fill="#E42313"/>
<path d="M20.9923 141.402C20.9923 140.125 20.2435 139.103 18.863 139.103C17.4825 139.103 16.7338 140.125 16.7338 141.402V148.647C16.7338 149.924 17.4825 150.946 18.863 150.946C20.2435 150.946 20.9923 149.924 20.9923 148.647V141.402Z" fill="#E42313"/>
<path d="M43.5951 150.992C43.5951 151.34 43.3377 151.596 42.9867 151.596C42.6357 151.596 42.3784 151.34 42.3784 150.992C42.3784 150.644 42.6357 150.388 42.9867 150.388C43.3377 150.388 43.5951 150.644 43.5951 150.992ZM43.4547 150.992C43.4547 150.736 43.2675 150.528 43.0101 150.528C42.7527 150.528 42.5655 150.736 42.5655 150.992C42.5655 151.247 42.7527 151.456 43.0101 151.456C43.2441 151.456 43.4547 151.247 43.4547 150.992ZM43.2207 151.247C43.2441 151.271 43.2207 151.294 43.1973 151.294H43.1505C43.1271 151.294 43.1037 151.294 43.0803 151.271C43.0569 151.201 43.0101 151.131 42.9867 151.062H42.9165V151.271C42.9165 151.294 42.8931 151.317 42.8697 151.317H42.8229C42.7995 151.317 42.7761 151.294 42.7761 151.271V150.736C42.7761 150.713 42.7995 150.69 42.8229 150.69H43.0101C43.1271 150.69 43.2207 150.76 43.2207 150.876C43.2207 150.969 43.1739 151.015 43.1271 151.038C43.1271 151.108 43.1739 151.178 43.2207 151.247ZM42.9165 150.945H43.0101C43.0569 150.945 43.1037 150.922 43.1037 150.876C43.1037 150.829 43.0803 150.806 43.0101 150.806H42.9165V150.945Z" fill="#E42313"/>
</g>
<g clip-path="url(#clip2_301_95)">
<path d="M116.142 115H96.3144H93.2278H73.4002C73.4002 115 71.5996 114.808 71.7925 117.306L75.0721 159.313C75.0721 159.313 75.0507 160.979 77.1728 160.979H93.6136H95.9715H112.412C114.513 160.979 114.513 159.313 114.513 159.313L117.793 117.306C117.943 114.829 116.142 115 116.142 115Z" fill="white"/>
<path d="M83.239 147.589H75.4151L73.0358 117.541C72.9072 116.324 73.8932 116.303 73.8932 116.303H83.2604" fill="#E12F2E"/>
<path d="M106.389 147.589H114.213L116.592 117.541C116.721 116.324 115.735 116.303 115.735 116.303H106.368" fill="#E12F2E"/>
<path fill-rule="evenodd" clip-rule="evenodd" d="M96.4002 148.891C96.3359 148.891 96.2501 148.891 96.1858 148.891C96.1858 148.891 96.1858 148.891 96.1644 148.891C95.7357 148.806 95.3284 148.678 94.9211 148.55C94.8783 148.528 94.8354 148.507 94.7925 148.486C94.7282 148.443 94.7068 148.379 94.7282 148.315C94.7282 148.272 94.7497 148.229 94.7711 148.208C94.7925 148.144 94.8354 148.08 94.8354 147.994C94.8568 147.909 94.8568 147.824 94.8568 147.738C94.8568 147.439 94.8783 147.14 94.8783 146.841C94.8997 146.222 94.8997 145.581 94.9211 144.962C94.9211 144.898 94.8997 144.834 94.8783 144.77C94.8354 144.812 94.7925 144.855 94.7711 144.919C94.5782 145.389 94.321 145.795 94.0209 146.201C93.6993 146.628 93.3564 147.012 92.9705 147.397C92.9491 147.418 92.9277 147.439 92.9062 147.461C92.7776 147.567 92.6276 147.61 92.4561 147.546C92.2417 147.482 92.0274 147.397 91.7916 147.332C91.5987 147.268 91.4486 147.204 91.2986 147.076C91.2772 147.076 91.2772 147.055 91.2557 147.055C92.5633 145.859 93.6565 144.514 94.4067 142.933C94.4067 142.912 94.3853 142.912 94.3853 142.912C94.3638 142.869 94.3424 142.848 94.2781 142.869C94.1709 142.89 94.0852 142.89 93.978 142.89C93.828 142.912 93.6565 142.912 93.485 142.912C93.1635 142.933 92.8205 142.955 92.499 142.976C92.306 142.997 92.1131 142.997 91.8988 143.019C91.7273 143.019 91.5773 142.997 91.4272 142.912C91.3415 142.869 91.2772 142.784 91.2343 142.698C91.2129 142.613 91.2129 142.549 91.2129 142.463C91.2129 142.228 91.2343 141.972 91.2343 141.737C91.2343 141.588 91.2343 141.46 91.2343 141.31C91.2343 141.118 91.3415 140.99 91.5344 140.968C91.6844 140.947 91.8345 140.926 91.9845 140.904C92.1989 140.883 92.4132 140.862 92.6276 140.819C92.6276 140.819 92.649 140.819 92.649 140.798C92.5418 140.712 92.4561 140.605 92.3275 140.541C91.9417 140.306 91.5558 140.072 91.2129 139.794C90.7413 139.431 90.3126 139.046 89.9482 138.555C89.3051 137.701 88.9622 136.761 89.005 135.694C89.005 135.523 88.9836 135.373 88.8978 135.245C88.7264 134.882 88.5763 134.519 88.4477 134.135C88.3405 133.793 88.2762 133.43 88.2548 133.067C88.2334 132.875 88.2548 132.661 88.2548 132.469C88.2548 132.405 88.2334 132.341 88.2119 132.277C88.1691 132.213 88.1262 132.17 88.0833 132.106C87.7832 131.786 87.5046 131.444 87.2259 131.102C86.7329 130.419 86.3256 129.671 86.0898 128.838C85.9827 128.497 85.9184 128.155 85.8755 127.792C85.8326 127.429 85.854 127.045 85.8755 126.682C85.8969 126.319 85.9398 125.977 85.9827 125.635C86.0041 125.272 86.047 124.888 86.0684 124.525C86.0898 124.311 86.0898 124.098 86.0898 123.884C86.0898 123.628 86.0684 123.393 85.9827 123.137C85.8969 122.88 85.7683 122.645 85.5968 122.432C85.5325 122.368 85.4896 122.304 85.4682 122.197C85.4682 122.176 85.4468 122.176 85.4468 122.176C85.4468 122.154 85.4468 122.111 85.4468 122.09C85.4468 122.069 85.4682 122.047 85.4682 122.047C85.4896 122.005 85.4896 121.962 85.5111 121.919C85.6183 121.727 85.7469 121.599 85.9398 121.514C86.0898 121.449 86.2613 121.407 86.4114 121.364C86.8401 121.279 87.2688 121.15 87.676 121.001C87.7618 120.958 87.8475 120.916 87.9333 120.851C88.0619 120.745 88.1691 120.638 88.2762 120.531C88.2977 120.51 88.2977 120.51 88.3191 120.488C88.2762 120.446 88.2334 120.424 88.1905 120.403C88.0404 120.318 87.8904 120.232 87.7403 120.147C87.5903 120.061 87.4403 119.955 87.3116 119.826C87.1616 119.677 87.0544 119.527 86.9901 119.314C86.9901 119.293 86.9901 119.293 86.9687 119.271C87.0973 119.25 87.2045 119.25 87.3116 119.228C87.6332 119.207 87.9547 119.122 88.2548 118.994C88.8335 118.759 89.2408 118.374 89.4123 117.776C89.4337 117.712 89.4766 117.648 89.5409 117.605C89.6052 117.563 89.6481 117.52 89.7124 117.499C89.8196 117.456 89.9267 117.413 90.0339 117.349C91.0414 116.922 92.0917 116.602 93.1849 116.431C93.5064 116.388 93.8494 116.345 94.1709 116.345C94.2352 116.345 94.321 116.324 94.3853 116.303C94.471 116.303 94.5567 116.303 94.6425 116.303C94.6639 116.303 94.6639 116.324 94.6854 116.324C94.9855 116.367 95.2855 116.41 95.5856 116.452C95.8214 116.495 96.0786 116.516 96.3144 116.58C96.8718 116.708 97.4076 116.879 97.9221 117.093C98.5651 117.371 99.1868 117.691 99.7655 118.097C100.473 118.588 101.094 119.186 101.609 119.869C102.123 120.531 102.509 121.279 102.788 122.069C103.002 122.645 103.131 123.222 103.217 123.82C103.259 124.14 103.281 124.439 103.302 124.76C103.324 125.101 103.302 125.443 103.281 125.785C103.259 126.105 103.217 126.425 103.152 126.746C103.131 126.831 103.131 126.916 103.109 126.981C103.195 127.023 103.259 127.066 103.324 127.109C103.56 127.258 103.71 127.493 103.774 127.749C103.774 127.792 103.795 127.835 103.795 127.856C103.795 127.963 103.795 128.091 103.795 128.198C103.795 128.198 103.795 128.219 103.774 128.219C103.752 128.326 103.752 128.433 103.71 128.54C103.538 129.308 103.302 130.077 102.981 130.803C102.702 131.465 102.381 132.085 102.081 132.725C102.038 132.811 101.995 132.896 101.93 132.96C101.802 133.131 101.652 133.216 101.459 133.259C101.395 133.28 101.309 133.28 101.245 133.28C101.137 133.28 101.073 133.345 101.052 133.43C101.052 133.473 101.03 133.515 101.03 133.558C101.03 133.622 101.03 133.708 101.052 133.772C101.052 134.028 101.052 134.306 101.052 134.562C101.03 134.839 101.009 135.117 100.944 135.373C100.859 135.843 100.73 136.313 100.58 136.783C100.344 137.488 99.9799 138.107 99.4868 138.662C99.0153 139.196 98.4794 139.644 97.8792 140.05C97.6434 140.2 97.4076 140.349 97.1718 140.477C97.0432 140.563 96.9146 140.648 96.786 140.712C96.786 140.712 96.7646 140.712 96.7646 140.734C96.786 140.755 96.786 140.776 96.786 140.798C96.8074 140.798 96.8289 140.798 96.8503 140.798C97.0004 140.776 97.1504 140.755 97.3219 140.755C97.4076 140.755 97.4719 140.755 97.5577 140.755C97.772 140.755 97.9649 140.755 98.1793 140.776C98.3937 140.776 98.5223 140.883 98.5437 141.097C98.5437 141.139 98.5437 141.203 98.5437 141.267C98.5437 141.609 98.5437 141.951 98.5223 142.271C98.5223 142.293 98.5223 142.314 98.5223 142.335C98.5223 142.421 98.5008 142.527 98.4794 142.613C98.4365 142.72 98.3722 142.784 98.2436 142.826C98.1364 142.869 98.0293 142.869 97.9221 142.869C97.6434 142.848 97.3862 142.848 97.1075 142.826C96.7003 142.805 96.293 142.805 95.8857 142.784C95.8214 142.784 95.7571 142.784 95.7142 142.805C95.7357 142.89 95.7571 142.955 95.7786 143.019C95.9072 143.467 96.0143 143.937 96.0786 144.385C96.143 144.812 96.2073 145.261 96.2501 145.709C96.293 146.094 96.3144 146.478 96.3359 146.863C96.3573 147.162 96.3573 147.482 96.3573 147.781C96.3573 148.059 96.3573 148.336 96.3359 148.614C96.5074 148.742 96.4859 148.827 96.4002 148.891ZM89.4337 119.784C89.5623 119.762 89.691 119.762 89.8196 119.741C90.0982 119.698 90.3554 119.634 90.6341 119.591C91.0628 119.527 91.4915 119.506 91.9202 119.527C92.3275 119.549 92.7348 119.591 93.1206 119.698C93.828 119.89 94.4496 120.211 95.0283 120.681C95.1141 120.745 95.1998 120.809 95.2641 120.894C95.3713 121.001 95.3927 121.129 95.2855 121.257C95.2641 121.279 95.2427 121.321 95.1998 121.343C95.0926 121.428 94.964 121.492 94.8354 121.535C94.6639 121.578 94.5139 121.578 94.3638 121.492C93.9994 121.321 93.6136 121.236 93.2278 121.193C92.992 121.172 92.7348 121.172 92.499 121.172C92.3275 121.193 92.156 121.193 91.9845 121.236C91.6201 121.321 91.2986 121.492 91.0414 121.77C90.7627 122.069 90.5269 122.389 90.334 122.752C89.991 123.371 89.7767 124.033 89.6481 124.738C89.6266 124.888 89.6052 125.037 89.5623 125.187C89.5195 125.443 89.3909 125.635 89.1336 125.763C89.0693 125.785 89.0265 125.849 89.005 125.913C88.9407 126.062 88.9193 126.212 88.9407 126.383C88.9407 126.425 88.9622 126.489 88.9836 126.532C89.0265 126.617 89.0908 126.66 89.1765 126.639C89.2194 126.639 89.2408 126.639 89.2837 126.639C89.348 126.639 89.4123 126.617 89.4766 126.617C89.9053 126.617 90.3126 126.639 90.7413 126.639C91.1485 126.639 91.5344 126.66 91.9417 126.66C92.1774 126.66 92.3918 126.703 92.6276 126.767C93.0777 126.874 93.485 127.087 93.828 127.408C93.978 127.557 94.1709 127.6 94.3638 127.557C94.5139 127.536 94.6639 127.514 94.814 127.514C94.8568 127.514 94.9211 127.514 94.964 127.514C95.1141 127.514 95.2641 127.493 95.4356 127.493C95.5428 127.493 95.6499 127.45 95.7357 127.386C95.8857 127.28 96.0358 127.194 96.1858 127.109C96.4859 126.981 96.8289 126.895 97.1504 126.895C97.3648 126.874 97.5791 126.874 97.7935 126.874C98.3508 126.874 98.9081 126.852 99.4654 126.874C99.7012 126.895 99.9584 126.895 100.194 126.916C100.559 126.938 100.902 127.002 101.245 127.087C101.287 127.087 101.309 127.087 101.352 127.087C101.416 127.087 101.459 127.045 101.48 126.981C101.48 126.938 101.502 126.895 101.48 126.874C101.48 126.767 101.459 126.682 101.459 126.575C101.416 126.212 101.287 125.891 101.116 125.571C100.88 125.187 100.773 124.76 100.773 124.311C100.773 124.012 100.773 123.713 100.752 123.414C100.752 123.329 100.773 123.243 100.773 123.158C100.816 123.158 100.837 123.158 100.859 123.158C100.88 123.179 100.88 123.201 100.902 123.222C101.116 123.628 101.309 124.033 101.48 124.439C101.695 124.952 101.909 125.486 102.123 125.998C102.123 126.02 102.145 126.041 102.166 126.084C102.188 126.02 102.231 125.977 102.252 125.934C102.316 125.806 102.359 125.678 102.359 125.55C102.359 125.464 102.359 125.358 102.359 125.272C102.359 124.909 102.381 124.525 102.381 124.162C102.359 123.649 102.295 123.158 102.188 122.667C102.081 122.154 101.909 121.663 101.673 121.172C101.245 120.275 100.623 119.527 99.8298 118.908C99.2939 118.481 98.7152 118.139 98.0936 117.84C97.0647 117.349 95.9715 117.114 94.814 117.093C94.471 117.093 94.128 117.114 93.7851 117.157C93.3778 117.2 92.9705 117.285 92.5847 117.392C92.2203 117.499 91.8773 117.605 91.5129 117.712C91.3415 117.755 91.2129 117.883 91.0628 117.99C91.0842 118.033 91.0842 118.054 91.1057 118.075C91.1914 118.075 91.2772 118.075 91.3415 118.075C91.5129 118.075 91.6416 118.118 91.7916 118.203C91.7702 118.246 91.7273 118.267 91.7059 118.31C91.663 118.374 91.5987 118.396 91.5344 118.417C91.4058 118.46 91.2986 118.502 91.17 118.545C90.6555 118.759 90.184 119.036 89.7338 119.378C89.6052 119.463 89.5195 119.57 89.3909 119.677C89.4123 119.72 89.4123 119.741 89.4337 119.784ZM101.33 132.682C101.395 132.576 101.48 132.469 101.523 132.362C101.738 131.871 101.952 131.38 102.145 130.867C102.295 130.483 102.466 130.098 102.574 129.693C102.638 129.458 102.702 129.244 102.702 129.009C102.702 128.796 102.681 128.561 102.681 128.347C102.681 128.326 102.659 128.283 102.659 128.262C102.595 128.155 102.531 128.091 102.423 128.048C102.402 128.027 102.359 128.027 102.316 128.027C102.209 128.048 102.123 128.091 102.038 128.176C101.973 128.241 101.952 128.305 101.952 128.39C101.973 128.475 101.995 128.54 102.016 128.625C102.038 128.689 102.059 128.732 102.081 128.796C102.123 128.967 102.081 129.095 101.952 129.223C101.866 129.287 101.78 129.33 101.673 129.372C101.673 129.372 101.673 129.351 101.652 129.351C101.652 129.266 101.63 129.202 101.63 129.116C101.609 128.924 101.609 128.732 101.609 128.54C101.587 128.369 101.588 128.176 101.566 128.006C101.566 127.92 101.502 127.835 101.437 127.771C101.395 127.728 101.33 127.707 101.266 127.728C101.202 127.749 101.137 127.749 101.094 127.771C100.859 127.877 100.687 128.048 100.559 128.262C100.537 128.305 100.516 128.369 100.494 128.411C100.473 128.497 100.451 128.561 100.43 128.646C100.344 128.967 100.28 129.287 100.151 129.607C100.044 129.885 99.9156 130.12 99.7012 130.333C99.4654 130.547 99.1868 130.675 98.8652 130.696C98.7152 130.718 98.6294 130.654 98.5866 130.526V130.504C98.5651 130.462 98.5651 130.44 98.608 130.419C98.6294 130.397 98.6509 130.397 98.6723 130.397C98.7152 130.376 98.7581 130.376 98.7795 130.376C99.0153 130.312 99.2082 130.205 99.3797 130.034C99.5512 129.864 99.6583 129.65 99.7226 129.415C99.7226 129.394 99.7226 129.394 99.7226 129.372C99.7226 129.308 99.7012 129.266 99.6583 129.223C99.594 129.18 99.5083 129.159 99.4225 129.137C99.3368 129.116 99.2511 129.095 99.1653 129.073C99.1225 129.052 99.0796 129.031 99.0581 128.988C99.0367 128.945 99.0153 128.903 98.9724 128.881C98.8652 128.753 98.7366 128.689 98.5651 128.71C98.5223 128.71 98.4794 128.71 98.4365 128.732C98.2222 128.774 98.0293 128.817 97.8149 128.838C97.622 128.86 97.4076 128.86 97.2147 128.817C96.9146 128.774 96.636 128.668 96.3787 128.518C96.293 128.475 96.2073 128.454 96.1001 128.433C96.1215 128.54 96.143 128.625 96.2073 128.732C96.2716 128.838 96.2501 128.924 96.1644 129.009C96.1215 129.052 96.0572 129.095 95.9929 129.137C95.9715 129.159 95.9286 129.159 95.8857 129.18C95.8214 129.202 95.7786 129.18 95.7357 129.137C95.7143 129.116 95.6928 129.073 95.6714 129.031C95.5642 128.838 95.4785 128.625 95.3927 128.411C95.3713 128.347 95.3499 128.283 95.307 128.241C95.1998 128.091 95.0712 127.984 94.8783 127.984C94.814 127.984 94.7497 127.984 94.7068 128.006C94.471 128.048 94.2781 128.155 94.1709 128.39C94.128 128.497 94.1066 128.604 94.0852 128.71C94.0637 128.881 94.0637 129.073 94.0637 129.244C94.0423 129.501 94.0209 129.735 93.9566 129.97C93.9137 130.184 93.8494 130.397 93.7636 130.611C93.6779 130.825 93.6993 131.017 93.8065 131.209C93.8494 131.294 93.9137 131.38 93.978 131.465C94.3638 131.935 94.8568 132.149 95.4785 132.085C95.8643 132.042 96.2073 131.871 96.5288 131.657C96.6574 131.572 96.7003 131.465 96.6788 131.316C96.6574 131.23 96.636 131.145 96.636 131.059C96.636 131.017 96.6145 130.995 96.6145 130.953C96.6145 130.867 96.6574 130.803 96.7431 130.825C96.786 130.825 96.8074 130.825 96.8503 130.846C96.9146 130.867 97.0004 130.889 97.0647 130.931C97.1933 130.995 97.3219 131.059 97.4291 131.166C97.5577 131.316 97.7077 131.465 97.8363 131.615C97.9864 131.786 98.115 131.978 98.265 132.149C98.458 132.384 98.6723 132.576 98.951 132.704C99.0153 132.725 99.0581 132.768 99.101 132.811C99.1653 132.853 99.1868 132.917 99.2082 132.981C99.2511 133.216 99.2939 133.473 99.2939 133.708C99.2939 133.9 99.2725 134.071 99.2296 134.241C99.1653 134.476 99.0581 134.669 98.9081 134.861C98.7152 135.117 98.5651 135.395 98.5223 135.715C98.4794 135.907 98.4151 136.099 98.3293 136.292C98.3079 136.313 98.3079 136.334 98.2865 136.356C98.2436 136.377 98.1793 136.42 98.1364 136.441C98.0507 136.356 98.0507 136.313 98.0293 136.228C98.0078 136.057 98.0078 135.864 97.9864 135.694C97.9864 135.63 97.9864 135.565 97.9649 135.501C97.9006 135.16 97.5577 134.989 97.2576 135.096C97.1718 135.117 97.0861 135.16 97.0004 135.181C96.6145 135.288 96.2501 135.352 95.8429 135.373C95.4999 135.395 95.1355 135.373 94.7925 135.331C94.6639 135.309 94.5353 135.309 94.4281 135.309C94.1709 135.331 93.9566 135.459 93.7851 135.608C93.7636 135.63 93.7636 135.63 93.7422 135.651C93.8494 135.715 93.9566 135.779 94.0637 135.822C94.3853 135.971 94.5353 136.27 94.471 136.612C94.4496 136.697 94.4281 136.804 94.3638 136.89C94.1923 136.697 94.0423 136.505 93.8923 136.313C93.8494 136.313 93.8065 136.334 93.7636 136.334C93.7636 136.356 93.7851 136.377 93.7851 136.398C93.8065 136.505 93.828 136.633 93.8494 136.74C93.8708 137.018 93.8494 137.295 93.7851 137.573C93.7208 137.808 93.6565 138.064 93.5922 138.299C93.5707 138.427 93.5279 138.534 93.5279 138.662C93.5279 138.897 93.5707 139.132 93.6779 139.367C93.8279 139.73 94.0637 140.029 94.3424 140.306C94.6425 140.627 94.9855 140.926 95.307 141.203C95.3499 141.246 95.3927 141.267 95.4356 141.289C95.5213 141.332 95.5856 141.31 95.6285 141.225C95.6499 141.182 95.6714 141.118 95.6928 141.054C95.7357 140.883 95.8 140.712 95.9072 140.584C95.9929 140.456 96.0786 140.349 96.1644 140.221C96.2501 140.093 96.3573 139.965 96.443 139.837C96.5931 139.602 96.6574 139.345 96.5717 139.046C96.5502 138.961 96.5931 138.876 96.5931 138.79C96.636 138.812 96.6574 138.833 96.6788 138.854C96.7217 138.897 96.7646 138.918 96.786 138.961C96.9789 139.132 97.1504 139.175 97.3862 139.046C97.4505 139.004 97.5148 138.982 97.5791 138.94C98.0293 138.705 98.458 138.406 98.8438 138.085C99.2511 137.722 99.6155 137.317 99.8727 136.825C100.323 136.035 100.537 135.16 100.601 134.263C100.623 134.028 100.601 133.793 100.623 133.558C100.623 133.473 100.644 133.387 100.666 133.302C100.709 133.152 100.773 133.003 100.859 132.875C100.944 132.725 101.052 132.576 101.116 132.426C101.116 132.426 101.116 132.426 101.137 132.426C101.18 132.49 101.245 132.533 101.309 132.597C101.266 132.661 101.309 132.661 101.33 132.682ZM89.348 130.547C89.348 130.547 89.348 130.568 89.348 130.547C89.348 130.654 89.3694 130.76 89.3909 130.867C89.3909 130.889 89.4123 130.91 89.4123 130.91C89.5623 131.166 89.7338 131.444 89.8839 131.7C89.9696 131.828 90.0554 131.935 90.1411 132.042C90.2911 132.213 90.5055 132.277 90.7413 132.213C90.827 132.191 90.9128 132.149 90.9985 132.106C91.17 132.02 91.32 131.914 91.4915 131.828C91.6416 131.743 91.7702 131.657 91.9202 131.593C91.9845 131.551 92.0488 131.487 92.0917 131.401C92.156 131.23 92.2203 131.059 92.3061 130.889V130.867C92.2846 130.867 92.2846 130.867 92.2846 130.867C92.156 130.889 92.006 130.91 91.8773 130.931C91.7916 130.931 91.6844 130.953 91.5987 130.953C91.5129 130.953 91.4272 130.91 91.3843 130.846C91.3415 130.782 91.2986 130.696 91.2557 130.632C91.2986 130.611 91.3415 130.568 91.3843 130.547C91.4701 130.483 91.5773 130.462 91.7059 130.44C91.9631 130.44 92.2203 130.376 92.4561 130.248C92.7348 130.12 92.9062 129.906 93.0134 129.629C93.0348 129.586 93.0348 129.543 93.0348 129.501C93.0348 129.415 93.0134 129.351 92.9705 129.287C92.9491 129.266 92.9491 129.244 92.9277 129.223C92.8419 129.137 92.8419 129.052 92.9277 128.945C92.9705 128.881 93.0134 128.817 93.0777 128.774C93.0992 128.753 93.0992 128.71 93.0777 128.689C93.0777 128.668 93.0563 128.668 93.0563 128.646C92.992 128.668 92.9277 128.689 92.8848 128.71C92.6061 128.817 92.306 128.817 92.0274 128.774C91.8773 128.753 91.7273 128.71 91.5558 128.689C91.3843 128.668 91.2129 128.689 91.0414 128.732C90.8056 128.796 90.6341 128.945 90.4841 129.116C90.4412 129.159 90.4198 129.202 90.3769 129.223C90.2911 129.308 90.184 129.33 90.0768 129.266C90.0125 129.223 89.9482 129.18 89.9053 129.137C89.8839 129.116 89.8624 129.095 89.841 129.073C89.8196 129.052 89.7981 129.052 89.7767 129.052C89.6481 129.052 89.498 129.073 89.3694 129.116C89.3266 129.137 89.3051 129.159 89.3051 129.18C89.2837 129.266 89.2837 129.351 89.3266 129.436C89.4766 129.799 89.7124 130.098 90.0554 130.312C90.0982 130.333 90.1411 130.376 90.184 130.397C90.2697 130.44 90.2911 130.526 90.2697 130.611C90.2483 130.718 90.2054 130.803 90.0768 130.846C90.0554 130.846 90.0339 130.846 89.991 130.846C89.9482 130.846 89.9053 130.825 89.8624 130.803C89.7981 130.76 89.7124 130.739 89.6481 130.696C89.5409 130.654 89.4337 130.611 89.348 130.547ZM91.3629 120.702C91.2557 120.659 91.0842 120.617 90.9771 120.617C90.7413 120.617 90.5055 120.659 90.2911 120.766C89.7124 121.044 89.1551 121.343 88.6192 121.663C88.362 121.812 88.1047 121.962 87.8047 122.069C87.526 122.176 87.2473 122.261 86.9472 122.261C86.9044 122.261 86.8615 122.261 86.8401 122.261C86.7115 122.282 86.6686 122.346 86.69 122.475C86.69 122.496 86.7115 122.539 86.7115 122.56C86.7543 122.688 86.8186 122.795 86.8829 122.902C87.0115 123.115 87.0759 123.35 87.1187 123.585C87.1402 123.82 87.1187 124.055 87.0973 124.268C87.0544 124.525 87.033 124.802 86.9901 125.059C86.9472 125.379 86.9472 125.678 86.9472 125.998C86.9472 126.297 86.9687 126.575 87.033 126.874C87.0544 126.959 87.0759 127.023 87.0973 127.087C87.1616 127.194 87.2473 127.237 87.3545 127.194C87.4188 127.173 87.4831 127.13 87.526 127.109C87.5903 127.066 87.6332 127.023 87.6546 126.959C87.676 126.895 87.6975 126.81 87.7189 126.724C87.7189 126.553 87.7403 126.383 87.7403 126.212C87.7618 125.934 87.8047 125.656 87.8475 125.379C87.9118 124.952 88.019 124.525 88.1691 124.098C88.2334 123.905 88.3191 123.734 88.4477 123.564C88.6192 123.35 88.7907 123.137 88.9836 122.923C89.1122 122.773 89.2408 122.624 89.348 122.475C89.498 122.218 89.6695 121.983 89.8624 121.77C90.2054 121.364 90.6341 121.044 91.1057 120.83C91.1914 120.809 91.2557 120.745 91.3629 120.702ZM91.9631 133.579C92.0488 133.729 92.1346 133.814 92.2632 133.836C92.3275 133.857 92.3918 133.857 92.4561 133.857C92.6919 133.857 92.9491 133.814 93.1849 133.772C93.485 133.729 93.7851 133.686 94.0852 133.665C94.3424 133.643 94.5996 133.643 94.8783 133.622C95.2855 133.622 95.6928 133.622 96.1001 133.665C96.2716 133.665 96.443 133.686 96.6145 133.708C96.8074 133.729 97.0004 133.75 97.2147 133.75C97.3862 133.772 97.5577 133.772 97.7077 133.793C97.9435 133.814 98.1579 133.814 98.3722 133.772C98.458 133.75 98.5008 133.708 98.5437 133.643C98.5651 133.601 98.5651 133.558 98.5223 133.515C98.4794 133.473 98.4365 133.43 98.3722 133.409C98.3508 133.387 98.3079 133.387 98.2865 133.366C98.0507 133.259 97.8578 133.088 97.7077 132.875C97.5791 132.704 97.4505 132.533 97.3219 132.341C97.279 132.277 97.2147 132.213 97.1504 132.149C97.0861 132.063 96.9789 132.02 96.8718 132.042C96.8074 132.042 96.7431 132.085 96.6788 132.127C96.5717 132.213 96.4645 132.255 96.3359 132.319C96.1644 132.405 95.9929 132.49 95.8214 132.597C95.7357 132.64 95.6714 132.704 95.6071 132.768C95.5428 132.832 95.4999 132.875 95.4356 132.917C95.307 133.003 95.1784 133.046 95.0283 133.003C94.7711 132.939 94.5139 132.896 94.2567 132.811C94.1066 132.768 93.9566 132.704 93.8065 132.661C93.635 132.597 93.4421 132.576 93.2706 132.64C93.142 132.682 93.0348 132.747 92.9277 132.832C92.7348 133.003 92.5204 133.152 92.3061 133.302C92.2203 133.366 92.1346 133.409 92.0488 133.473C92.0703 133.494 92.0274 133.537 91.9631 133.579ZM92.1774 135.864C92.1774 135.864 92.156 135.864 92.1774 135.864C92.1131 135.971 92.0488 136.078 92.006 136.185C91.9845 136.228 91.9631 136.292 91.9202 136.334C91.8345 136.484 91.7487 136.484 91.663 136.356C91.5987 136.292 91.5558 136.206 91.5129 136.121C91.4486 136.014 91.3843 135.886 91.3629 135.758C91.2343 135.053 91.1057 134.348 90.9556 133.643C90.9342 133.558 90.9128 133.451 90.8913 133.366C90.8485 133.238 90.7627 133.195 90.6341 133.238C90.4412 133.28 90.2697 133.387 90.1197 133.537C89.9267 133.772 89.841 134.028 89.9053 134.327C89.9267 134.498 89.9696 134.69 90.0339 134.861C90.184 135.416 90.3983 135.929 90.7413 136.398C90.9771 136.74 91.2772 137.039 91.6201 137.295C91.8559 137.466 92.1346 137.573 92.4347 137.616C92.4775 137.616 92.5204 137.616 92.5847 137.616C92.6919 137.594 92.7562 137.53 92.7562 137.423C92.7562 137.359 92.7348 137.317 92.7348 137.253C92.6919 137.103 92.649 136.932 92.6061 136.783C92.5204 136.505 92.4347 136.249 92.3704 135.971C92.2846 135.886 92.2632 135.843 92.1774 135.864ZM96.636 134.54C95.7143 134.434 94.814 134.391 93.9137 134.54C93.9351 134.604 93.9566 134.647 93.9994 134.69C94.128 134.839 94.2995 134.903 94.4924 134.903C94.6425 134.903 94.814 134.903 94.964 134.882C95.1569 134.882 95.3284 134.861 95.5213 134.839C95.6499 134.818 95.8 134.818 95.9286 134.797C96.1215 134.754 96.293 134.711 96.4859 134.669C96.5288 134.647 96.5931 134.647 96.636 134.626C96.636 134.604 96.636 134.583 96.636 134.54ZM90.0768 128.347C90.1197 128.347 90.184 128.326 90.2268 128.347C90.3983 128.347 90.5484 128.305 90.7198 128.241C90.9342 128.134 91.1485 128.048 91.3843 127.984C91.663 127.92 91.9202 127.899 92.1989 127.963C92.2203 127.963 92.2203 127.963 92.2417 127.963V127.942C92.156 127.578 91.8345 127.365 91.4486 127.514C91.3843 127.536 91.2986 127.578 91.2343 127.6C90.8699 127.771 90.5055 127.963 90.1411 128.134C90.0768 128.198 90.0554 128.241 90.0768 128.347ZM97.2362 128.112C97.3648 128.112 97.4719 128.091 97.5791 128.07C97.7292 128.027 97.9006 128.027 98.0507 128.048C98.2436 128.07 98.3937 128.155 98.5437 128.283C98.6723 128.39 98.8224 128.475 98.9724 128.54C99.0796 128.582 99.1868 128.582 99.2939 128.561C99.2725 128.54 99.2725 128.518 99.2511 128.497C99.1868 128.433 99.1439 128.39 99.0796 128.326C98.951 128.219 98.8224 128.091 98.6723 127.984C98.5866 127.92 98.5223 127.856 98.4365 127.792C98.115 127.578 97.7292 127.578 97.4291 127.813C97.3648 127.899 97.3005 127.984 97.2362 128.112ZM87.5689 127.877C87.4403 127.877 87.3545 127.92 87.2902 127.984C87.2259 128.048 87.2045 128.112 87.2473 128.198C87.3759 128.561 87.526 128.924 87.6546 129.287C87.676 129.351 87.7403 129.372 87.8047 129.394C87.8261 129.394 87.8475 129.394 87.8475 129.372C87.869 129.351 87.8904 129.308 87.8904 129.266C87.8475 128.881 87.8047 128.518 87.7403 128.134C87.7403 128.07 87.6975 128.006 87.676 127.942C87.6546 127.899 87.6117 127.877 87.5689 127.877ZM90.4197 127.472C90.3983 127.472 90.3983 127.45 90.3983 127.45C90.3769 127.45 90.334 127.429 90.3126 127.429C90.0554 127.365 89.7981 127.386 89.5623 127.45C89.4766 127.472 89.3909 127.514 89.3266 127.578C89.2408 127.664 89.1765 127.749 89.1336 127.835C89.1122 127.856 89.1122 127.899 89.1122 127.92C89.0908 128.048 89.1979 128.155 89.3051 128.134C89.3266 128.134 89.3694 128.112 89.3909 128.112C89.7553 127.92 90.0768 127.707 90.4197 127.493C90.3983 127.472 90.4197 127.472 90.4197 127.472ZM93.3778 130.846C93.3135 130.846 93.2706 130.867 93.2063 130.867C93.0992 130.867 93.0348 130.931 92.992 131.017C92.992 131.038 92.9705 131.059 92.9705 131.059C92.9277 131.145 92.9062 131.23 92.8634 131.316C92.8419 131.337 92.8634 131.358 92.8634 131.38C92.8848 131.423 92.9062 131.465 92.9491 131.508C93.0348 131.615 93.0992 131.743 93.1849 131.85C93.2063 131.892 93.2492 131.914 93.2921 131.914C93.3135 131.914 93.3349 131.914 93.3778 131.914C93.4421 131.914 93.4636 131.892 93.4636 131.828C93.4636 131.786 93.4636 131.764 93.4636 131.721C93.4636 131.551 93.4421 131.401 93.4421 131.252C93.4207 131.102 93.3992 130.974 93.3778 130.846ZM99.7869 128.048C99.7869 127.963 99.7655 127.877 99.7655 127.792C99.7655 127.643 99.6798 127.536 99.5512 127.493C99.3368 127.386 99.1225 127.386 98.9081 127.429C98.8652 127.429 98.8009 127.45 98.7581 127.493C98.7795 127.514 98.7795 127.557 98.8224 127.557C99.0153 127.707 99.2082 127.877 99.4225 128.006C99.4654 128.027 99.5083 128.048 99.5297 128.048C99.594 128.027 99.6798 128.048 99.7869 128.048ZM88.0619 127.215C88.0833 127.322 88.1047 127.429 88.1262 127.536C88.1476 127.6 88.1476 127.621 88.2334 127.621C88.2762 127.621 88.2977 127.621 88.3405 127.621C88.4263 127.621 88.5334 127.6 88.6192 127.6C88.7692 127.578 88.7264 127.578 88.7478 127.472C88.7478 127.429 88.7692 127.386 88.7478 127.322C88.5334 127.28 88.2977 127.237 88.0619 127.215ZM100.173 127.344C100.173 127.408 100.151 127.45 100.151 127.514C100.151 127.621 100.194 127.685 100.301 127.707C100.323 127.707 100.344 127.707 100.344 127.707C100.409 127.707 100.473 127.707 100.537 127.707C100.559 127.707 100.601 127.707 100.623 127.685C100.687 127.643 100.752 127.578 100.773 127.493C100.773 127.472 100.773 127.472 100.773 127.45C100.73 127.386 100.687 127.344 100.623 127.344C100.494 127.322 100.344 127.344 100.173 127.344Z" fill="black"/>
<path fill-rule="evenodd" clip-rule="evenodd" d="M109.283 151.475C109.283 151.454 109.347 151.454 109.368 151.411C109.497 151.369 109.519 151.283 109.561 151.198C109.604 151.134 109.647 151.027 109.647 150.963C109.647 150.877 109.626 150.771 109.561 150.685C109.519 150.6 109.454 150.557 109.368 150.493C109.347 150.493 109.283 150.493 109.283 150.45V150.365C109.347 150.365 109.368 150.408 109.454 150.408C109.519 150.472 109.604 150.514 109.626 150.643C109.711 150.771 109.754 150.835 109.754 150.963C109.754 151.091 109.711 151.155 109.69 151.262C109.604 151.347 109.519 151.433 109.454 151.497C109.368 151.497 109.326 151.561 109.283 151.561V151.475ZM109.283 151.283V151.326H109.411L109.347 151.176C109.283 151.176 109.283 151.134 109.283 151.091V151.283ZM109.283 150.984L109.347 150.942C109.368 150.942 109.368 150.856 109.368 150.835C109.368 150.792 109.368 150.792 109.347 150.749C109.347 150.707 109.283 150.707 109.283 150.664V150.984ZM109.133 151.604C109.197 151.604 109.218 151.604 109.304 151.561V151.475H109.133V151.604ZM109.283 150.472V150.386C109.218 150.344 109.176 150.344 109.111 150.344V150.472H109.283ZM109.283 150.664H109.111V150.749H109.197C109.197 150.749 109.197 150.792 109.24 150.792V150.835C109.24 150.856 109.24 150.899 109.197 150.899C109.197 150.942 109.154 150.942 109.111 150.942V151.048C109.176 151.112 109.176 151.155 109.197 151.219L109.261 151.283V151.091C109.24 151.091 109.24 151.027 109.24 151.027C109.197 151.027 109.197 151.006 109.154 151.006C109.197 151.006 109.24 151.006 109.261 150.963V150.664H109.283ZM108.983 151.561V151.475H109.133V151.604C109.111 151.604 109.047 151.604 108.983 151.561ZM108.983 151.006V150.942H109.111H109.133V151.048C109.111 151.048 109.068 151.027 109.025 151.027H108.983V151.006ZM108.983 150.749V150.664H109.111H109.133V150.749H109.111H108.983ZM108.983 150.472V150.386C109.047 150.344 109.111 150.344 109.133 150.344V150.472H108.983ZM108.983 150.386C108.94 150.386 108.875 150.429 108.833 150.429C108.747 150.493 108.661 150.536 108.597 150.664C108.554 150.792 108.511 150.856 108.511 150.984C108.511 151.112 108.554 151.176 108.597 151.283C108.683 151.369 108.747 151.454 108.833 151.518C108.875 151.518 108.94 151.582 108.983 151.582V151.497C108.94 151.475 108.897 151.475 108.875 151.433C108.79 151.39 108.747 151.305 108.704 151.219C108.64 151.155 108.64 151.048 108.64 150.984C108.64 150.899 108.64 150.792 108.704 150.707C108.768 150.621 108.811 150.578 108.875 150.514C108.918 150.514 108.94 150.514 108.983 150.472V150.386ZM108.983 150.664H108.875V151.326H108.983V151.006V150.942V150.749V150.664ZM100.044 157.092V152.757C101.652 150.408 105.596 149.66 108.275 150.6L107.997 152.885C107.889 152.928 107.611 152.928 107.504 152.778C106.389 151.176 103.174 152.073 102.488 154.38C102.338 155.981 103.988 157.583 107.525 156.387L107.182 158.352C104.181 158.929 101.352 158.501 100.044 157.092ZM100.044 151.262L100.323 150.279H100.044V151.262ZM100.044 150.279H99.8083V152.244L100.044 151.283V150.279ZM100.044 152.735C99.9584 152.885 99.8941 153.013 99.8083 153.162V156.772C99.8941 156.9 99.9798 157.028 100.044 157.092V152.735ZM99.5726 156.366V153.739C99.6154 153.526 99.744 153.333 99.8083 153.184V156.793C99.744 156.665 99.6154 156.515 99.5726 156.366ZM99.5726 152.671V150.279H99.8083V152.244L99.7012 152.693H99.5726V152.671ZM99.5726 150.279H92.9062C92.4132 151.39 93.3778 151.048 93.3778 151.433L92.1988 155.747V158.416H95.2855C95.2855 157.903 95.1569 157.839 94.8782 157.412L95.3927 155.17C96.0143 155.063 97.5576 155.149 98.0721 155.64L98.6723 153.397L95.9286 153.483L96.293 152.073L98.6937 152.116C99.1653 152.201 99.251 152.629 99.5726 152.714V150.279ZM99.5726 153.718C99.5297 153.782 99.4868 153.867 99.4868 153.995C99.2082 154.914 99.251 155.682 99.5726 156.366V153.718ZM92.2203 150.942V150.301H92.4561C92.4989 150.578 92.4132 150.792 92.2203 150.942ZM92.2203 150.301V150.942C92.1345 150.984 92.0488 151.006 91.9845 151.048V150.301H92.2203ZM92.2203 155.725V158.395H91.9845V156.601L92.2203 155.725ZM91.7058 158.395H91.9845V156.601L91.7058 157.498V158.395ZM91.7058 151.155C91.813 151.112 91.8988 151.112 91.9845 151.048V150.301H91.7058V151.155ZM91.7058 150.301V151.134H91.6201L88.0618 154.081C88.9621 155.512 89.348 155.96 90.2482 157.37C90.6769 157.733 91.1056 157.562 91.0413 158.437L87.9332 158.352C86.9043 158.309 85.5754 156.024 84.7608 155.063L84.2249 156.857L84.6965 157.711L84.6108 158.309H80.3237V158.266V158.074C80.4095 157.476 80.9668 157.626 81.074 157.327C81.7385 155.362 82.3601 153.59 82.8317 151.604C82.9388 151.24 82.7888 151.134 82.4029 151.006C82.2743 150.728 82.3601 150.344 82.6816 150.258C83.8177 150.301 84.9537 150.344 86.1112 150.344L86.5828 150.386C86.5185 150.749 86.4328 151.048 86.0041 151.176C85.7897 151.262 85.211 152.906 85.211 153.803L88.3619 151.39C88.5334 151.198 88.5334 151.07 87.9761 151.006C87.8689 150.856 87.9332 150.6 88.1262 150.322H91.7058V150.301ZM91.7058 157.498V158.395H91.47L91.7058 157.498Z" fill="black"/>
</g>
<g clip-path="url(#clip3_301_95)">
<path d="M178.639 116.399C190.01 120.035 191.595 133.512 191.595 133.512C191.897 135.267 191.872 140.835 191.218 143.607C190.765 145.514 190.362 150.549 182.262 157.008C180.702 158.254 178.865 159.678 176.979 159.881C176.752 159.907 176.501 159.932 176.4 159.754C176.274 159.576 176.626 159.118 176.727 159.068C181.633 156.092 188.45 151.058 188.752 139.182C188.752 139.182 189.431 128.019 182.639 122.756C180.45 121.052 177.306 119.145 174.84 118.458C174.488 118.357 171.067 117.594 170.966 118.179C170.84 119.018 172.224 119.069 172.928 119.094C174.564 119.145 176.576 120.162 177.029 120.391C182.891 123.315 184.45 126.773 184.953 127.613C187.218 131.3 187.142 138.343 187.142 139.36C187.218 145.743 183.922 150.091 182.438 152.176C179.922 155.711 174.262 160.212 165.029 161C162.865 161.178 158.136 161.127 153.431 158.508C151.922 157.669 148.903 155.202 147.419 152.329C146.991 151.49 146.136 149.328 147.142 149.125C147.746 148.998 148.626 150.88 150.262 152.66C151.746 154.287 153.255 155.813 155.469 156.906C158.413 158.381 161.935 159.195 163.419 158.966C163.746 158.915 163.771 158.508 163.469 158.432C162.564 158.203 160.777 158.05 159.293 157.516C156.979 156.677 152.727 153.956 150.287 150.752C149.381 149.557 147.998 146.786 147.746 144.751C147.293 141.191 147.444 136.156 147.595 135.165C148.551 129.469 151.545 126.163 153.859 124.103C156.123 122.069 160.299 120.645 161.356 120.111C161.532 120.009 161.431 119.806 161.306 119.781C161.104 119.755 160.878 119.781 160.652 119.831C160.501 119.882 160.325 119.908 160.148 119.933C159.645 120.009 146.262 123.112 146.111 139.666C146.086 141.166 144.828 140.301 144.677 139.386C144.249 136.868 144.299 134.555 144.878 132.139C145.909 127.714 148.626 124.18 151.293 121.866C155.218 118.433 160.702 116.475 165.255 115.661C169.13 114.975 172.299 114.364 178.639 116.399ZM145.759 147.421C146.463 147.548 146.639 146.964 146.589 146.684C146.463 146.124 146.438 145.59 146.413 144.828C146.362 144.141 146.312 143.302 145.859 142.742C145.633 142.463 145.306 142.285 144.953 142.285C143.293 142.259 143.847 144.955 144.098 145.87C144.199 146.277 144.375 146.658 144.702 146.938C144.953 147.192 145.356 147.345 145.759 147.421Z" fill="white"/>
<path d="M178.941 129.316C178.715 129.215 178.513 129.138 178.362 129.062C177.784 128.782 176.325 128.325 175.167 127.943C174.513 127.74 173.859 127.511 173.733 127.46C173.608 127.257 173.331 126.011 173.18 125.4C173.104 125.095 173.054 124.841 173.029 124.739C172.928 124.358 172.803 124.129 172.425 124.154H172.4C172.274 124.154 170.564 124.51 167.746 125.095C165.859 125.502 163.897 125.909 163.771 125.934C163.62 125.96 163.52 126.036 162.287 127.918C161.909 128.477 161.457 129.189 161.381 129.265C161.331 129.291 161.079 129.393 160.803 129.52C160.023 129.85 158.564 130.461 157.306 131.122C155.922 131.859 153.281 133.436 153.079 133.792C153.004 133.919 153.004 134.071 153.079 134.198C153.18 134.351 153.381 134.453 153.633 134.427C153.683 134.427 153.733 134.427 153.809 134.402C154.086 134.351 162.463 133.08 167.268 132.546C168.476 132.418 169.985 132.291 171.771 132.19C176.174 131.961 180.626 131.935 180.878 131.986C181.13 132.037 181.406 131.935 181.582 131.732C181.733 131.579 181.809 131.351 181.809 131.147C181.809 130.689 180.878 130.206 178.941 129.316Z" fill="#E0262B"/>
<path d="M163.645 138.013C163.62 137.58 163.545 137.377 163.419 137.275C163.343 137.224 163.268 137.224 163.167 137.224H163.142C162.941 137.275 162.865 137.479 162.815 137.606C162.79 137.631 162.79 137.682 162.664 137.835C161.13 139.945 160.928 140.657 160.853 141.318C160.777 141.852 160.954 142.463 161.255 142.742C161.406 142.87 161.582 142.92 161.759 142.895C161.884 142.87 162.01 142.793 162.06 142.692C162.111 142.59 162.111 142.488 162.086 142.386C162.136 142.056 162.387 141.573 162.664 141.013C163.142 140.098 163.721 138.954 163.645 138.013Z" fill="#E0262B"/>
<path d="M163.469 136.665H163.494C163.897 136.589 164.249 136.131 164.425 135.877C164.803 135.368 165.23 134.682 165.432 134.351C165.482 134.275 165.582 134.097 165.608 134.02C165.658 133.893 165.633 133.792 165.582 133.741C165.507 133.664 165.406 133.639 165.205 133.69C164.727 133.792 163.746 134.275 163.167 135.114C162.891 135.495 162.765 135.902 162.815 136.207C162.865 136.512 163.117 136.716 163.469 136.665Z" fill="#E0262B"/>
<path d="M172.224 140.912C172.123 140.912 172.048 140.963 172.048 140.963C171.696 141.115 171.042 141.217 170.74 141.268C170.237 141.319 169.733 141.268 169.13 141.166C168.4 141.064 167.57 140.963 166.513 141.064C166.337 141.09 166.161 141.115 165.96 141.141C166.287 140.81 167.192 139.869 167.696 139.31C168.048 138.928 168.677 138.216 168.828 137.759C168.903 137.581 168.979 137.25 168.828 137.047C168.727 136.894 168.526 136.843 168.249 136.869C168.199 136.869 165.13 137.199 165.13 137.199C165.029 137.199 164.903 137.199 164.828 137.199C164.803 137.199 164.803 137.199 164.777 137.199C164.45 137.174 164.224 137.326 164.174 137.555C164.123 137.759 164.224 138.013 164.45 138.14C164.652 138.267 165.004 138.343 165.507 138.318C165.683 138.318 165.859 138.293 166.035 138.293C166.463 138.242 166.79 138.165 166.991 138.115C166.564 138.547 165.331 139.717 164.576 140.454C164.526 140.505 164.475 140.556 164.425 140.607C164.023 140.988 163.57 141.42 163.343 141.878C163.167 142.259 163.167 142.615 163.394 142.793C163.52 142.921 163.645 142.946 163.821 142.921C163.947 142.895 164.098 142.87 164.325 142.793C164.727 142.666 165.331 142.488 166.337 142.387C167.142 142.31 168.073 142.259 169.13 142.31C169.507 142.31 169.884 142.31 170.211 142.259C171.067 142.158 171.796 141.929 172.249 141.573L172.274 141.547C172.4 141.446 172.652 141.242 172.551 141.013C172.476 140.963 172.375 140.912 172.224 140.912Z" fill="#E0262B"/>
<path d="M161.004 139.004C161.004 138.979 161.759 137.326 160.35 136.156C159.645 135.572 158.639 135.368 157.557 135.546C156.979 135.648 156.4 135.877 156.023 136.131C155.595 136.411 155.494 136.716 155.469 136.919C155.444 137.148 155.545 137.352 155.595 137.402C155.645 137.453 155.771 137.53 156.048 137.479C156.174 137.453 156.35 137.402 156.551 137.326C156.174 137.835 155.016 139.513 154.111 142.437C153.457 144.548 153.281 145.794 153.557 146.252C153.633 146.353 153.708 146.404 153.834 146.43C153.859 146.43 153.909 146.43 153.935 146.43C154.513 146.328 155.092 144.802 155.897 142.692C156.023 142.386 156.123 142.081 156.249 141.751C157.582 138.292 157.658 137.453 157.582 137.224C157.985 137.224 159.419 137.275 159.595 138.394C159.746 139.31 158.765 140.174 157.809 140.657C157.557 140.784 157.306 140.861 157.104 140.937C156.903 141.013 156.752 141.064 156.652 141.115C156.526 141.191 156.551 141.293 156.551 141.318C156.601 141.496 156.979 141.598 157.557 141.496H157.608C158.01 141.369 160.098 140.912 161.004 139.004Z" fill="#E0262B"/>
<path d="M171.872 144.828C171.897 144.573 171.847 144.37 171.746 144.268C171.696 144.217 171.62 144.167 171.545 144.167C171.52 144.167 171.469 144.167 171.444 144.167C171.193 144.217 171.042 144.472 170.79 144.853C170.564 145.209 170.262 145.692 169.759 146.201C169.18 146.76 168.551 147.218 168.325 147.32C168.501 146.786 168.551 146.15 168.501 145.794C168.476 145.438 168.35 145.209 168.148 145.056C167.922 144.879 167.645 144.879 167.444 144.929C167.193 144.98 166.966 145.107 166.865 145.184C166.815 145.234 166.79 145.311 166.79 145.362C166.815 145.438 166.865 145.514 167.016 145.565C167.268 145.667 167.218 145.794 167.167 145.972C167.167 145.997 167.142 146.048 167.142 146.074C167.092 146.226 167.042 146.379 166.991 146.557C166.79 147.167 166.564 147.803 166.765 148.337C166.916 148.769 167.343 148.972 167.872 148.871C167.972 148.845 168.073 148.82 168.199 148.794C168.803 148.566 169.457 147.981 170.161 147.065C170.186 147.904 170.715 148.311 170.916 148.489C171.067 148.616 171.268 148.693 171.419 148.667C171.52 148.642 171.57 148.591 171.62 148.515C171.645 148.438 171.67 148.311 171.57 148.108C171.419 147.803 171.595 146.48 171.721 145.616C171.821 145.26 171.872 144.98 171.872 144.828Z" fill="#E0262B"/>
<path d="M178.941 142.615C178.815 142.488 178.538 142.539 177.582 142.768C177.306 142.819 176.979 142.895 176.601 142.971C176.501 142.997 176.299 143.048 176.048 143.098C175.922 143.124 175.771 143.175 175.595 143.2L175.645 143.098C175.821 142.742 175.998 142.361 176.048 142.132C176.123 141.878 176.073 141.649 175.947 141.522C175.847 141.42 175.721 141.369 175.595 141.395C175.469 141.42 175.343 141.496 175.243 141.624C175.092 141.802 174.564 142.463 174.01 143.531C173.809 143.556 173.23 143.658 172.853 143.607C172.777 143.607 172.652 143.582 172.526 143.607C172.35 143.632 172.199 143.76 172.123 143.938C172.073 144.039 172.073 144.166 172.123 144.294C172.174 144.446 172.299 144.573 172.476 144.65C172.727 144.751 173.079 144.802 173.482 144.802C172.878 146.328 172.652 147.752 172.803 149.049C172.828 149.303 172.903 149.456 172.979 149.506C173.029 149.532 173.079 149.557 173.13 149.532C173.255 149.506 173.406 149.328 173.482 149.049C173.557 148.82 174.438 146.124 175.092 144.446C176.425 143.963 177.507 143.556 178.362 143.149L178.413 143.124C178.664 143.022 178.891 142.895 178.941 142.844C178.991 142.793 179.016 142.742 179.016 142.692C178.991 142.692 178.966 142.641 178.941 142.615Z" fill="#E0262B"/>
<path d="M166.74 146.15C166.74 146.124 166.689 146.048 166.614 146.048C166.538 146.023 166.488 146.023 166.337 146.099C166.287 146.124 166.236 146.124 166.186 146.15C166.086 146.201 165.935 146.252 165.733 146.328C165.859 145.692 165.985 145.158 166.111 144.751C166.312 143.887 166.438 143.429 166.287 143.251C166.236 143.175 166.161 143.149 166.06 143.124C166.035 143.124 166.01 143.124 165.985 143.124C165.431 143.226 164.551 145.056 163.997 146.836C163.947 146.836 163.922 146.862 163.872 146.862C163.268 147.014 162.589 147.167 161.859 147.32C162.01 146.811 162.186 146.328 162.387 145.743V145.718C162.589 145.158 162.941 144.141 162.891 143.658C162.84 143.353 162.689 143.302 162.614 143.302C162.589 143.302 162.589 143.302 162.564 143.302C161.935 143.404 160.752 145.616 159.922 147.65L159.821 147.676L159.62 147.701C159.167 147.777 158.765 147.854 158.513 147.955C158.111 148.108 157.884 148.337 157.884 148.566C157.884 148.769 158.035 148.998 158.337 149.125C158.589 149.252 158.916 149.303 159.318 149.328C159.016 150.32 158.589 151.973 158.966 152.634C159.067 152.787 159.192 152.888 159.343 152.914C159.444 152.939 159.545 152.939 159.645 152.914C160.325 152.787 160.626 151.795 160.803 151.032C160.953 150.371 161.13 149.71 161.331 148.998C162.035 148.794 162.815 148.515 163.595 148.159C163.369 149.125 163.142 150.625 163.821 150.778C163.947 150.829 164.073 150.829 164.174 150.803C164.45 150.752 164.702 150.549 164.878 150.193C165.13 149.735 165.23 149.074 165.331 148.489C165.406 148.032 165.482 147.574 165.557 147.142C166.06 146.862 166.413 146.582 166.614 146.404C166.714 146.353 166.79 146.226 166.74 146.15Z" fill="#E0262B"/>
<path d="M179.369 137.911C179.218 137.911 179.117 137.835 179.042 137.758C178.865 137.555 178.941 137.301 179.117 136.843C179.193 136.64 179.243 136.436 179.318 136.156C179.394 135.851 179.343 135.648 179.268 135.546C179.193 135.419 179.067 135.368 178.991 135.368C178.84 135.368 178.689 135.47 178.614 135.495C178.362 135.444 178.111 135.444 177.859 135.47C176.526 135.572 174.966 136.563 174.287 137.733C173.96 138.292 173.884 138.826 174.086 139.259C174.111 139.284 174.111 139.335 174.136 139.36C174.111 139.36 174.086 139.386 174.086 139.386C173.884 139.488 173.633 139.564 173.331 139.589C172.878 139.64 172.35 139.564 171.897 139.513C171.671 139.488 171.444 139.462 171.243 139.437C171.62 139.081 172.777 137.911 173.23 137.402C173.432 137.174 173.784 136.792 173.834 136.69C174.035 136.334 174.06 136.029 173.884 135.8C173.759 135.622 173.432 135.419 172.702 135.495C172.576 135.495 172.476 135.521 172.35 135.546C171.193 135.75 170.413 135.877 170.086 135.902C169.935 135.928 169.884 135.902 169.784 135.877C169.733 135.851 169.658 135.851 169.608 135.851H169.582C169.432 135.877 169.306 135.953 169.23 136.08C169.13 136.233 169.104 136.462 169.18 136.665C169.306 136.996 169.708 137.148 170.01 137.148C170.161 137.148 170.388 137.148 170.639 137.123C171.142 137.072 171.696 136.996 171.972 136.945C171.696 137.199 171.343 137.504 170.966 137.809C170.362 138.318 169.708 138.826 169.255 139.335C168.752 139.894 168.501 140.428 168.652 140.708C168.727 140.835 168.903 140.912 169.079 140.861C169.331 140.784 169.582 140.759 169.91 140.734C170.312 140.708 170.74 140.708 171.142 140.708C171.545 140.708 171.947 140.708 172.35 140.683C172.853 140.632 173.255 140.556 173.608 140.403C174.06 140.2 174.362 139.971 174.413 139.742C174.488 139.767 174.564 139.818 174.664 139.818C174.84 139.844 175.042 139.869 175.243 139.844C176.098 139.767 176.878 139.182 177.356 138.852C177.457 138.776 177.532 138.725 177.608 138.674C177.759 138.954 178.262 139.106 178.865 139.081H178.891C179.193 139.055 179.872 138.877 180.098 138.623C180.149 138.547 180.174 138.496 180.174 138.42C180.199 138.165 180.048 137.987 179.369 137.911ZM177.759 136.589C177.482 137.199 177.432 137.326 177.406 137.555C177.155 137.733 176.224 138.216 175.847 138.242C175.746 138.242 175.721 138.242 175.721 138.216C175.721 138.191 175.721 138.165 175.721 138.165C176.123 137.046 177.381 136.69 177.759 136.589Z" fill="#E0262B"/>
<path d="M185.91 156.982H186.01C186.136 156.982 186.186 157.033 186.211 157.135C186.237 157.237 186.262 157.338 186.287 157.364H186.513C186.488 157.338 186.463 157.262 186.438 157.135C186.413 157.008 186.362 156.931 186.262 156.906C186.362 156.881 186.463 156.779 186.463 156.677C186.463 156.601 186.413 156.525 186.362 156.474C186.287 156.423 186.211 156.397 186.035 156.397C185.884 156.397 185.759 156.423 185.658 156.423V157.389H185.884V156.982H185.91ZM185.91 156.55C185.935 156.55 185.985 156.525 186.035 156.525C186.186 156.525 186.237 156.575 186.237 156.677C186.237 156.779 186.136 156.83 186.01 156.83H185.91V156.55Z" fill="#E0262B"/>
<path d="M186.06 157.847C186.614 157.847 187.041 157.415 187.041 156.881C187.041 156.347 186.614 155.914 186.06 155.914C185.507 155.914 185.079 156.347 185.079 156.881C185.079 157.415 185.507 157.847 186.06 157.847ZM186.06 156.092C186.488 156.092 186.79 156.448 186.79 156.855C186.79 157.288 186.488 157.644 186.06 157.644C185.633 157.644 185.306 157.313 185.306 156.855C185.306 156.448 185.633 156.092 186.06 156.092Z" fill="#E0262B"/>
</g>
<path d="M227.584 119.572C227.584 121.344 228.799 122.159 230.015 123.435C230.825 124.285 231.452 125.065 232.704 125.065C233.072 125.065 233.33 124.711 233.33 124.356C233.33 123.009 232.041 122.655 231.267 121.556C230.126 119.891 229.831 117.694 227.731 117.694C227.289 117.694 226.884 117.977 226.884 118.402C226.847 118.934 227.584 119.04 227.584 119.572Z" fill="#FFC425"/>
<path d="M258.968 129.991C258.01 128.822 257.053 128.467 255.8 127.546C253.811 126.093 252.485 124.959 249.98 124.959C249.28 124.959 248.912 124.604 248.212 124.604C247.107 124.604 246.518 124.498 245.412 124.498C242.65 124.498 241.103 125.455 238.672 126.731C234.435 128.963 232.373 132.153 232.115 136.795C232.041 138.248 232.115 139.099 232.225 140.552C232.446 142.962 233.551 144.167 234.767 146.293C235.651 147.817 236.609 148.703 238.303 149.341C239.998 149.979 241.14 149.695 242.908 150.156C244.307 150.51 245.191 150.51 246.665 150.51C248.875 150.51 250.091 149.837 252.153 148.986C255.1 147.746 256.758 146.683 258.858 144.308C260.257 142.714 261.399 141.615 261.399 139.524C261.399 138.603 261.657 138.107 261.657 137.185C261.657 135.803 261.178 135.023 260.552 133.783C259.852 132.33 259.999 131.231 258.968 129.991Z" fill="#FFC425"/>
<path d="M217.859 138.425C218.301 138.46 218.559 138.673 219.001 138.673C220.659 138.673 221.469 137.822 223.09 137.397C224.416 137.078 225.226 136.901 226.479 136.476C226.773 136.369 227.215 136.369 227.215 136.051C227.215 135.448 226.258 135.413 226.258 134.81C226.258 134.562 226.516 134.491 226.516 134.208C226.516 134.066 226.405 133.995 226.405 133.853C225.853 133.853 225.558 133.605 225.005 133.605C223.348 133.605 222.722 134.775 221.174 135.377C220.438 135.661 219.37 135.59 219.37 136.369C219.37 136.476 219.48 136.547 219.48 136.653H220.327C220.475 136.582 220.548 136.511 220.696 136.405L220.953 136.653C219.959 137.504 219.038 137.468 217.786 137.929C217.749 138.141 217.786 138.248 217.859 138.425Z" fill="#FFC425"/>
<path d="M271.382 134.102C270.829 134.598 270.203 134.421 269.54 134.811C268.84 135.2 268.545 135.874 267.698 135.874C267.551 135.874 267.551 135.626 267.403 135.626C266.446 135.626 266.225 136.512 265.414 136.902C265.488 137.15 265.672 137.256 265.672 137.469C265.672 137.61 265.414 137.575 265.414 137.717C265.414 138.036 265.746 138.284 266.077 138.284C268.251 138.284 268.951 136.157 271.124 136.051C271.124 135.803 271.124 135.697 271.124 135.484C271.64 135.448 272.229 135.307 272.229 134.846C272.229 134.421 271.787 134.279 271.382 134.102Z" fill="#FFC425"/>
<path d="M225.263 146.86C224.306 147.427 223.569 147.568 222.722 148.277C223.422 148.88 223.716 149.376 224.195 150.155C225.263 149.482 226.037 149.199 226.995 148.383C227.437 148.029 227.363 147.462 227.842 147.214C228.431 146.895 229.168 146.789 229.168 146.151C229.168 145.513 228.247 145.442 227.584 145.442C226.516 145.442 226.147 146.328 225.263 146.86Z" fill="#FFC425"/>
<path d="M265.304 148.951C264.788 148.596 264.604 148.029 263.978 148.029C263.683 148.029 263.536 148.207 263.241 148.277C263.351 148.526 263.425 148.667 263.609 148.88C263.462 149.022 263.241 149.093 263.241 149.305C263.241 150.12 264.346 150.014 264.935 150.546C265.893 151.396 265.893 152.991 267.256 152.991C267.44 152.991 267.514 152.743 267.698 152.743C268.066 152.743 268.177 153.133 268.472 153.345C268.693 153.097 268.84 152.955 269.098 152.743C267.587 151.254 266.998 150.12 265.304 148.951Z" fill="#FFC425"/>
<path d="M251.306 155.578C251.306 157.35 252.153 158.307 252.153 160.079C252.743 160.079 253.111 160.504 253.369 161H253.848V158.413C253.848 156.924 253.664 155.897 252.743 154.656C252.153 154.94 251.306 154.94 251.306 155.578Z" fill="#FFC425"/>
<path d="M246.26 121.308C250.533 124.285 253.185 127.439 253.185 132.542C253.185 134.633 252.743 135.945 251.601 137.681C251.011 138.567 249.906 138.851 249.906 139.914C249.906 140.02 250.017 140.056 250.017 140.162H250.606C255.137 138.709 257.973 136.866 260.11 132.79C261.104 130.841 261.915 129.636 261.915 127.475C261.915 126.589 261.878 126.057 261.804 125.206C261.546 122.903 260.478 121.663 258.894 119.926C255.653 116.418 252.337 115 247.475 115C244.749 115 243.276 115.886 240.661 116.63C239.113 117.055 237.75 117.481 237.272 118.969H239.445C242.281 118.969 243.976 119.749 246.26 121.308Z" fill="white"/>
<path d="M257.458 158.873C257.458 158.909 257.458 158.98 257.458 159.051C257.458 159.122 257.458 159.192 257.458 159.228V160.681H257.9V158.519H257.237L256.831 160.22L256.426 158.519H255.763V160.681H256.205V159.228C256.205 159.192 256.205 159.122 256.205 159.051C256.205 158.98 256.205 158.909 256.205 158.873L256.61 160.681H257.052L257.458 158.873Z" fill="white"/>
<path d="M258.71 160.255H258.268V160.681H258.71V160.255Z" fill="white"/>
<path d="M260.92 160.504C260.92 160.468 260.92 160.397 260.92 160.291V160.149C260.92 160.007 260.883 159.901 260.846 159.83C260.81 159.759 260.736 159.689 260.625 159.653C260.736 159.618 260.846 159.547 260.883 159.44C260.92 159.334 260.957 159.228 260.957 159.122C260.957 159.051 260.957 158.98 260.92 158.909C260.883 158.838 260.846 158.767 260.81 158.732C260.736 158.661 260.662 158.625 260.589 158.59C260.515 158.554 260.404 158.554 260.22 158.519H259.189V160.681H259.631V159.83H260.073C260.183 159.83 260.294 159.866 260.331 159.901C260.368 159.937 260.404 160.043 260.404 160.185V160.397C260.404 160.468 260.404 160.504 260.404 160.575C260.404 160.61 260.404 160.645 260.441 160.681H260.957V160.61C260.957 160.61 260.92 160.539 260.92 160.504ZM260.368 159.44C260.331 159.476 260.257 159.476 260.147 159.476H259.631V158.909H260.147C260.257 158.909 260.331 158.909 260.368 158.944C260.441 158.98 260.478 159.086 260.478 159.192C260.515 159.334 260.478 159.405 260.368 159.44Z" fill="white"/>
<path d="M261.804 160.255H261.362V160.681H261.804V160.255Z" fill="white"/>
<path d="M237.714 153.593C236.609 155.011 236.719 156.251 235.614 157.704C236.093 158.058 236.093 158.59 236.019 159.157L236.425 159.441L238.008 157.385C238.929 156.18 239.445 155.259 239.445 153.77C238.782 153.593 238.119 153.062 237.714 153.593Z" fill="#FFC425"/>
<defs>
<clipPath id="clip0_301_95">
<rect width="276" height="68" fill="white"/>
</clipPath>
<clipPath id="clip1_301_95">
<rect width="42" height="46" fill="white" transform="translate(3.77112 115)"/>
</clipPath>
<clipPath id="clip2_301_95">
<rect width="46" height="46" fill="white" transform="translate(71.7711 115)"/>
</clipPath>
<clipPath id="clip3_301_95">
<rect width="48" height="46" fill="white" transform="translate(143.771 115)"/>
</clipPath>
</defs>
</svg>
