<svg width="309" height="127" viewBox="0 0 309 127" fill="none" xmlns="http://www.w3.org/2000/svg">
<g clip-path="url(#clip0_330_603)">
<path d="M60.7818 57.6523C60.9771 57.4578 61.1723 57.3022 61.3285 57.1077C61.4066 56.991 61.4847 56.8743 61.5628 56.7576C61.6019 56.7187 61.6409 56.6409 61.68 56.602C61.8362 56.3685 61.9533 56.1351 62.0704 55.9017C62.1095 55.785 62.1876 55.6683 62.2266 55.5516C62.2657 55.4738 62.3047 55.4349 62.3047 55.3571C62.3047 55.3182 62.3438 55.2793 62.3438 55.2404C62.7733 54.0345 62.8905 52.7507 62.6952 51.3502C62.3438 48.5104 60.8209 46.6432 58.0874 45.6317C56.7207 45.126 55.1587 44.8926 53.1672 44.8926C51.9177 44.8926 50.629 44.8926 49.3404 44.8926H44.6935V67.1054H47.7784V59.9475H53.9092C53.9092 59.9475 56.3693 63.1763 57.2674 64.3823C57.9703 65.3159 58.6732 66.2107 59.337 67.1443C60.157 67.1443 61.0161 67.1443 61.8362 67.1443H62.5C62.3047 66.9109 62.1095 66.6775 61.9533 66.4052L57.736 60.9589L56.7598 59.6752C57.3064 59.5585 57.8922 59.4029 58.4779 59.1695C59.337 58.7415 60.118 58.2747 60.7818 57.6523ZM57.1893 56.991C56.2912 57.4189 55.4711 57.6523 54.7292 57.6912C53.9092 57.7301 53.1282 57.7301 52.3081 57.7301C51.8005 57.7301 51.2538 57.7301 50.7462 57.7301C50.2385 57.7301 49.6918 57.7301 49.1842 57.7301H47.8956V47.2267H51.7224C52.6205 47.2267 53.5187 47.2267 54.4168 47.2656C55.9007 47.3434 57.1502 47.8102 58.1655 48.7049C59.2589 49.6775 59.8056 50.9612 59.7665 52.5562C59.7665 54.618 58.8684 56.174 57.1893 56.991Z" fill="white"/>
<path d="M37.8209 55.9796H28.371V57.9636H35.3608V62.9041C35.1265 63.1375 34.8532 63.3709 34.5408 63.5655C34.3846 63.6822 34.1893 63.76 34.0331 63.8378C33.8769 63.9156 33.7207 63.9545 33.5255 64.0323C33.174 64.149 32.8226 64.3046 32.4321 64.3824C30.6749 64.8492 28.7615 64.927 28.0976 64.927C28.0195 64.927 27.9414 64.927 27.8633 64.927C27.4729 64.927 27.0433 64.927 26.6138 64.8881C23.8022 64.6936 21.6936 63.1764 20.6783 60.6867C19.5459 57.9247 19.4678 55.0849 20.444 52.2062C21.4593 49.2108 23.607 47.4213 26.7309 46.9934C28.4881 46.76 30.3625 46.8378 32.8226 47.3435C33.7598 47.538 34.736 47.7714 35.6732 48.0048C35.7122 48.0048 35.7513 48.0048 35.7903 48.0437L36.4542 46.0597C34.3455 45.2817 32.0416 44.776 29.6596 44.5815C28.9567 44.5037 28.3319 44.5037 27.7071 44.5037C26.0671 44.5037 24.6223 44.7371 23.2946 45.2039C20.6783 46.1375 18.843 47.8492 17.7886 50.2611C16.1876 53.9179 16.1486 57.7302 17.6324 61.6593C18.6868 64.4602 20.7954 66.2497 23.8413 67.0666C26.0671 67.6501 28.4491 67.6501 31.534 67.1055C33.5255 66.7165 35.556 66.0163 37.899 64.8492C37.899 62.5929 37.899 60.2977 37.899 58.0414V55.9796H37.8209Z" fill="white"/>
<path d="M85.0705 44.8538V47.4991C85.0705 50.7668 85.0705 54.0345 85.0705 57.3023C85.0705 58.6249 84.8362 59.8309 84.4066 60.8812C83.2742 63.6432 81.2046 64.927 77.9635 64.8103C75.0739 64.7325 72.9652 63.0986 72.1842 60.4144C71.8718 59.3252 71.7156 58.2748 71.6766 57.3023C71.6375 54.0345 71.6375 50.689 71.6375 47.4602V44.8538H68.4745V47.3435C68.4745 50.4167 68.4745 53.5288 68.4745 56.602C68.4745 59.0139 68.7869 60.8034 69.4508 62.4373C70.3489 64.6547 71.8328 66.094 74.0195 66.7943C76.792 67.689 79.6817 67.7279 82.4932 66.8332C84.7581 66.1329 86.281 64.6547 87.2182 62.3595C87.843 60.7645 88.1554 58.975 88.1554 56.5242C88.1554 53.5288 88.1554 50.4945 88.1554 47.4991V44.8538H85.0705V44.8538Z" fill="white"/>
<path d="M110.921 47.3046C109.593 45.982 107.875 45.204 105.649 44.9705C104.361 44.8538 102.994 44.8149 101.705 44.8149H101.315C100.339 44.8149 99.3625 44.8149 98.3863 44.8149H95.3404V67.0278H98.4253V60.8424H102.643C103.267 60.8424 103.853 60.8424 104.478 60.8424C106.001 60.8035 107.329 60.5312 108.578 60.0255C110.531 59.2085 111.78 57.9248 112.444 56.0575C112.991 54.5403 113.108 52.8676 112.795 51.0003C112.483 49.522 111.897 48.2772 110.921 47.3046ZM108.734 56.6021C107.758 57.7303 106.391 58.3916 104.712 58.5083C103.775 58.5472 102.838 58.5861 101.979 58.5861H100.534H99.8311C99.5577 58.5861 98.3863 58.5861 98.3863 58.5861V57.2635V47.1879H99.753C100.3 47.2268 100.885 47.1879 101.432 47.2268C102.721 47.2657 104.048 47.3046 105.376 47.4992C108.188 47.8882 109.984 50.1445 109.906 53.101C109.906 53.9957 109.75 55.3962 108.734 56.6021Z" fill="white"/>
<path d="M133.14 45.126C131.695 44.6592 130.211 44.4258 128.728 44.4258C127.205 44.4258 125.643 44.6981 124.081 45.2038C121.933 45.9429 120.293 47.3045 119.16 49.2885C118.184 51.078 117.677 53.1786 117.638 55.9017C117.677 58.158 117.95 59.8308 118.536 61.348C119.668 64.1878 121.66 65.9773 124.588 66.8331C126.892 67.5333 129.352 67.6111 131.812 67.0665C135.874 66.2107 138.373 63.7988 139.349 59.753C140.052 56.8354 139.974 53.9567 139.076 51.1558C138.099 48.0825 136.147 46.0986 133.14 45.126ZM135.874 60.2587C134.936 62.8651 132.906 64.4212 130.055 64.8102C129.587 64.888 129.118 64.888 128.649 64.888C127.517 64.888 126.424 64.6935 125.447 64.2656C123.378 63.4098 121.933 61.737 121.347 59.4418C121.074 58.3914 120.84 57.4189 120.84 56.1741C120.801 55.5905 120.801 55.2015 120.801 54.9292C120.996 53.3342 121.113 52.5173 121.894 50.9223C122.948 48.7828 124.744 47.4212 127.205 47.0711C128.962 46.7988 130.602 46.9544 132.047 47.5379C134.077 48.3548 135.483 49.9887 136.108 52.2061C136.889 55.0848 136.811 57.769 135.874 60.2587Z" fill="white"/>
<path d="M162.154 58.9749C161.998 58.7415 161.88 58.6248 161.763 58.4692C158.288 53.8399 151.064 44.2312 151.064 44.2312C151.064 44.2312 146.378 44.2312 146.222 44.2312C146.222 52.0893 146.222 59.8696 146.222 67.65C148.018 67.65 149.775 67.65 151.571 67.65C151.571 62.8262 151.571 58.0413 151.571 53.1397C151.728 53.3342 151.806 53.412 151.884 53.5287C155.398 58.158 162.583 67.65 162.583 67.65C162.583 67.65 165.59 67.65 166.879 67.65C167.074 67.65 167.269 67.65 167.464 67.65C167.464 59.8307 167.464 52.0504 167.464 44.2701C165.668 44.2701 163.95 44.2701 162.115 44.2701C162.154 49.1328 162.154 53.9955 162.154 58.9749Z" fill="white"/>
<path d="M244.743 44.1924H237.48C237.48 44.1924 232.091 57.9636 229.514 64.6546C229.123 65.6272 228.733 66.6386 228.342 67.6501C228.42 67.689 234.082 67.6501 234.082 67.6501L235.722 63.2931H246.461C246.461 63.2931 247.672 66.5219 248.101 67.6501C250.014 67.6501 251.928 67.6501 253.88 67.6501C250.795 59.8697 244.743 44.1924 244.743 44.1924ZM237.519 58.4304C238.729 55.1626 239.901 51.9338 241.072 48.7828C242.244 51.9338 243.415 55.1626 244.665 58.4304C242.244 58.4304 239.901 58.4304 237.519 58.4304Z" fill="white"/>
<path d="M227.171 44.2312C226.975 44.2312 221.04 44.2312 221.04 44.2312C221.04 44.2312 215.846 51.9337 215.534 52.3616C215.456 52.2838 209.95 44.2312 209.95 44.2312C209.95 44.2312 209.95 44.2312 209.677 44.2312C207.88 44.2312 204.054 44.2312 203.897 44.2312C206.396 48.0825 208.935 51.9726 211.395 55.8239C208.857 59.7918 203.741 67.6889 203.741 67.6889H209.794C209.794 67.6889 215.417 59.2472 215.534 59.0527C215.651 59.2472 221.391 67.6889 221.391 67.6889H227.366L219.673 55.8239C219.712 55.785 227.093 44.3868 227.171 44.2312Z" fill="white"/>
<path d="M200.227 61.5814C198.04 62.5929 195.736 63.1764 193.315 63.1764C190.503 63.2153 188.434 61.8537 187.458 59.2473C186.794 57.4579 186.755 55.5906 187.106 53.7233C187.34 52.4785 187.809 51.3114 188.707 50.4167C189.879 49.2496 191.363 48.8217 192.964 48.705C195.072 48.5883 197.142 49.0162 199.172 49.5997C199.563 49.7164 199.914 49.8331 200.305 49.9498C200.851 48.5883 201.398 47.2656 201.906 45.943C200.5 45.2038 199.016 44.6592 197.454 44.348C194.526 43.7256 191.597 43.6478 188.707 44.5425C185.466 45.554 183.279 47.7325 182.225 50.9224C181.171 54.1123 181.132 57.419 182.108 60.6478C183.318 64.7714 186.208 67.1055 190.464 67.8446C192.417 68.1558 194.369 68.078 196.283 67.7668C198.587 67.3778 200.734 66.5608 202.765 65.316C202.179 63.9933 201.593 62.6707 200.969 61.3091C200.695 61.3869 200.461 61.4647 200.227 61.5814Z" fill="white"/>
<path d="M172.736 67.6501C174.532 67.6501 176.25 67.6501 178.047 67.6501C178.047 59.8309 178.047 52.0506 178.047 44.2703C176.25 44.2703 174.493 44.2703 172.736 44.2703C172.736 52.0895 172.736 59.8698 172.736 67.6501Z" fill="white"/>
<path d="M279.809 16.8834L279.497 18.5172C283.167 18.9063 283.87 19.1786 283.402 22.2129L281.098 35.5172L271.804 16.9612H263.643L263.291 18.595C266.688 18.9452 268.055 19.2564 267.743 20.968L266.181 28.904C265.595 30.4989 264.463 30.8101 263.33 30.8101C258.722 30.8101 255.794 26.2587 255.794 19.2564C255.794 9.45317 261.651 2.02296 268.289 2.02296C271.531 2.02296 273.171 3.30671 273.756 9.18085H275.162C275.748 5.4852 276.451 2.9177 276.607 1.20603C275.357 0.739208 273.014 0.0778809 269.383 0.0778809C256.653 0.0778809 248.609 9.18085 248.609 19.2564C248.609 27.8536 253.841 32.833 262.666 32.833C263.682 32.833 264.619 32.7552 265.439 32.6385L264.072 39.6797L263.486 42.8696C263.213 43.8033 262.003 44.1923 260.558 44.4257L260.167 46.0596H272.858L273.171 44.4257C269.422 44.0367 268.758 43.7644 269.305 40.5744L269.422 39.9909L269.149 41.3914L269.93 37.0733L272.077 25.325C276.958 34.8559 281.801 45.087 282.269 46.0207L284.261 45.9818L288.205 24.5081L288.986 20.6179C289.571 19.0619 290.509 18.8285 292.11 18.5561L292.5 16.9223H279.809V16.8834Z" fill="white"/>
</g>
<g clip-path="url(#clip1_330_603)">
<path d="M54.5234 117.154V106.038C54.5234 106.008 54.5385 105.993 54.5385 105.962C54.5385 105.917 54.5385 105.872 54.5234 105.841V99.3597C54.5234 99.3142 54.5385 99.2688 54.5385 99.2234C54.5385 96.4369 50.2817 91.5 41.031 91.5C31.69 91.5 27.5234 96.4369 27.5234 99.2234V101.919V105.766V117.517H27.5535C27.6739 118.244 28.3507 119.153 29.5691 119.834C31.8254 121.121 35.6911 121.485 41.031 121.485C46.3708 121.485 50.2365 121.121 52.4928 119.834C53.7112 119.153 54.373 118.229 54.5084 117.517H54.5234V117.426C54.5234 117.381 54.5385 117.32 54.5385 117.275C54.5234 117.245 54.5234 117.199 54.5234 117.154Z" fill="white"/>
<path d="M52.5831 107.84C52.1017 107.477 51.3647 107.219 50.3418 107.219C48.4917 107.219 46.7017 108.385 46.7017 111.111C46.7017 113.716 48.4917 114.943 50.2666 114.943C52.1318 114.943 53.3051 113.792 53.3051 112.096C53.3051 111.02 52.6432 110.293 51.3045 110.293H50.9134C50.2215 110.293 49.68 110.627 49.68 111.338C49.68 111.99 50.2666 112.308 50.7028 112.308C50.9134 112.308 51.0638 112.368 51.0638 112.535C51.0638 112.747 50.8081 112.883 50.5374 112.883C49.6499 112.883 49.0332 112.262 49.0332 111.126C49.0332 109.854 49.8605 109.4 50.5073 109.4C51.2895 109.4 51.4248 109.794 51.9663 109.794C52.5981 109.794 53.0343 109.279 53.0343 108.749C53.0343 108.34 52.8538 108.037 52.5831 107.84Z" fill="#E42313"/>
<path d="M42.0387 111.838V113.565C42.0387 114.337 41.6025 114.958 40.7752 114.958C39.9479 114.958 39.5117 114.337 39.5117 113.565V108.643C39.5117 107.855 39.978 107.219 40.8053 107.219C41.3017 107.219 41.7379 107.416 42.1591 108.234L43.2571 110.384C43.3173 110.49 43.3624 110.536 43.4226 110.536C43.5128 110.536 43.558 110.475 43.558 110.324V108.597C43.558 107.825 43.9942 107.204 44.8215 107.204C45.6337 107.204 46.085 107.825 46.085 108.597V113.519C46.085 114.307 45.6187 114.943 44.7914 114.943C44.3101 114.943 43.8588 114.746 43.4376 113.928L42.3396 111.778C42.2794 111.672 42.2343 111.626 42.1741 111.626C42.0839 111.626 42.0387 111.687 42.0387 111.838Z" fill="#E42313"/>
<path d="M31.2538 113.534V112.398C31.2538 112.308 31.2989 112.232 31.3892 112.232C31.5095 112.232 31.5546 112.353 31.5847 112.429C31.7652 112.868 32.2917 113.807 32.7881 114.352C33.119 114.715 33.5251 114.943 33.9613 114.943C34.6984 114.943 35.3151 114.291 35.3151 113.61C35.3151 113.186 35.1346 112.868 34.7886 112.474C34.3524 111.99 33.826 111.354 33.6304 111.051C33.5552 110.945 33.5552 110.869 33.5552 110.839C33.5552 110.748 33.6003 110.687 33.6906 110.596C33.9162 110.384 34.4577 109.869 34.7585 109.4C34.9842 109.037 35.0895 108.718 35.0895 108.446C35.0895 107.749 34.4577 107.204 33.7808 107.204C33.3446 107.204 32.9385 107.446 32.6527 107.901C32.2767 108.506 31.8404 109.203 31.5546 109.491C31.4794 109.567 31.4494 109.582 31.3892 109.582C31.2989 109.582 31.2538 109.521 31.2538 109.415V108.612C31.2538 107.825 30.7875 107.204 29.9602 107.204C29.1179 107.204 28.6666 107.84 28.6666 108.612V113.519C28.6666 114.307 29.1179 114.927 29.9602 114.927C30.7875 114.943 31.2538 114.307 31.2538 113.534Z" fill="#E42313"/>
<path d="M52.6432 115.745C53.1095 115.745 53.3051 115.973 53.3051 116.366C53.3051 117.048 52.6733 118.002 51.4399 118.714C49.3792 119.88 45.8594 120.213 40.9708 120.213C36.0822 120.213 32.5624 119.88 30.5017 118.714C29.2683 118.017 28.6365 117.063 28.6365 116.366C28.6365 115.973 28.8471 115.745 29.2984 115.745H52.6432Z" fill="#E12F2E"/>
<path d="M52.6432 100.541H29.3134C28.8471 100.541 28.6516 100.299 28.6516 99.8747C28.6516 97.3305 32.4571 92.8176 40.9858 92.8176C49.4242 92.8176 53.3201 97.3154 53.3201 99.8747C53.3201 100.299 53.1095 100.541 52.6432 100.541Z" fill="#E12F2E"/>
<path d="M51.139 103.706C51.0036 103.706 50.9435 103.63 50.9435 103.524V102.979C50.9435 102.873 51.0036 102.797 51.139 102.797H51.2443C51.5752 102.797 51.6805 103.04 51.6805 103.236C51.6805 103.433 51.5752 103.706 51.2443 103.706H51.139ZM45.0321 101.858C44.7011 101.616 44.2348 101.434 43.5429 101.434C42.3095 101.434 41.1212 102.252 41.1212 104.13C41.1212 105.932 42.3095 106.765 43.4978 106.765C44.7463 106.765 45.5284 105.962 45.5284 104.811C45.5284 104.069 45.0922 103.554 44.2048 103.554H43.949C43.4827 103.554 43.1217 103.782 43.1217 104.281C43.1217 104.721 43.5128 104.948 43.7986 104.948C43.949 104.948 44.0393 104.993 44.0393 105.114C44.0393 105.251 43.8738 105.357 43.6783 105.357C43.0917 105.357 42.6855 104.933 42.6855 104.145C42.6855 103.267 43.2421 102.949 43.6633 102.949C44.1897 102.949 44.28 103.221 44.641 103.221C45.0621 103.221 45.3479 102.873 45.3479 102.51C45.3329 102.207 45.2126 101.995 45.0321 101.858ZM48.1457 104.721H47.6042C47.4688 104.721 47.4087 104.796 47.4087 104.902V105.054C47.4087 105.16 47.4688 105.235 47.6042 105.235H48.3112C48.7474 105.235 49.1084 105.493 49.1084 105.962C49.1084 106.447 48.7624 106.704 48.3112 106.704H46.822C46.1903 106.704 45.8894 106.341 45.8894 105.841V102.328C45.8894 101.828 46.1903 101.465 46.822 101.465H48.3112C48.7474 101.465 49.1084 101.722 49.1084 102.192C49.1084 102.676 48.7624 102.934 48.3112 102.934H47.6042C47.4688 102.934 47.4087 103.009 47.4087 103.115V103.236C47.4087 103.342 47.4688 103.418 47.6042 103.418H48.1457C48.5217 103.418 48.8226 103.645 48.8226 104.054C48.8226 104.463 48.5217 104.721 48.1457 104.721ZM49.4543 105.887C49.4543 106.371 49.7251 106.75 50.2365 106.75C50.7479 106.75 51.0187 106.371 51.0187 105.887V105.039C51.0187 104.933 51.0638 104.887 51.139 104.887C51.2293 104.887 51.2593 104.948 51.2744 105.039C51.3496 105.447 51.5301 105.993 51.7557 106.28C52.0265 106.644 52.2822 106.75 52.5379 106.75C52.944 106.75 53.305 106.417 53.305 106.023C53.305 105.75 53.1997 105.553 53.0493 105.372C52.7786 105.023 52.6131 104.811 52.5078 104.524C52.4777 104.463 52.4928 104.403 52.568 104.342C52.8087 104.145 53.0944 103.721 53.0944 103.055C53.0944 102.04 52.2672 101.465 51.2594 101.465H50.3869C49.7552 101.465 49.4543 101.828 49.4543 102.328V105.887ZM37.1802 105.887C37.1802 106.371 37.451 106.75 37.9624 106.75C38.4738 106.75 38.7446 106.371 38.7446 105.887V105.039C38.7446 104.933 38.7897 104.887 38.8649 104.887C38.9552 104.887 38.9853 104.948 39.0003 105.039C39.0755 105.447 39.256 105.993 39.4816 106.28C39.7524 106.644 40.0081 106.75 40.2638 106.75C40.6699 106.75 41.0309 106.417 41.0309 106.023C41.0309 105.75 40.9256 105.553 40.7752 105.372C40.5496 105.069 40.339 104.811 40.2337 104.524C40.2036 104.463 40.2187 104.403 40.2939 104.342C40.5346 104.145 40.8204 103.721 40.8204 103.055C40.8204 102.04 39.9931 101.465 38.9853 101.465H38.0978C37.466 101.465 37.1652 101.828 37.1652 102.328V105.887H37.1802ZM38.8649 103.706C38.7295 103.706 38.6694 103.63 38.6694 103.524V102.979C38.6694 102.873 38.7295 102.797 38.8649 102.797H38.9702C39.3011 102.797 39.4064 103.04 39.4064 103.236C39.4064 103.433 39.3011 103.706 38.9702 103.706H38.8649ZM30.246 104.524H30.3814C30.7574 104.524 30.8777 104.781 30.8777 105.008C30.8777 105.22 30.7724 105.508 30.3814 105.508H30.246C30.1106 105.508 30.0504 105.432 30.0504 105.326V104.705C30.0504 104.599 30.1106 104.524 30.246 104.524ZM30.246 103.57C30.1106 103.57 30.0504 103.494 30.0504 103.388V102.843C30.0504 102.737 30.1106 102.661 30.246 102.661H30.3513C30.6972 102.661 30.7875 102.903 30.7875 103.1C30.7875 103.297 30.6822 103.57 30.3513 103.57H30.246ZM29.5841 106.704H30.6972C31.7502 106.704 32.397 105.993 32.397 105.114C32.397 104.403 31.9758 104.085 31.8855 103.994C31.8404 103.963 31.8103 103.933 31.8103 103.903C31.8103 103.857 31.8404 103.842 31.8705 103.797C32.0209 103.615 32.1713 103.342 32.1713 102.934C32.1713 101.98 31.5245 101.465 30.5318 101.465H29.5841C28.9524 101.465 28.6516 101.828 28.6516 102.328V105.841C28.6516 106.341 28.9524 106.704 29.5841 106.704ZM34.7134 106.75C33.4348 106.75 32.758 105.977 32.758 105.008V102.313C32.758 101.828 33.0287 101.449 33.5401 101.449C34.0516 101.449 34.3373 101.828 34.3373 102.313V104.917C34.3373 105.114 34.4276 105.326 34.7134 105.326C34.9992 105.326 35.1045 105.099 35.1045 104.917V102.313C35.1045 101.828 35.3752 101.449 35.8866 101.449C36.3981 101.449 36.6688 101.828 36.6688 102.313V104.993C36.6839 105.977 35.9919 106.75 34.7134 106.75Z" fill="#E42313"/>
<path d="M38.5942 108.718C38.5942 107.886 38.1128 107.219 37.2254 107.219C36.3379 107.219 35.8566 107.886 35.8566 108.718V113.443C35.8566 114.276 36.3379 114.943 37.2254 114.943C38.1128 114.943 38.5942 114.276 38.5942 113.443V108.718Z" fill="#E42313"/>
<path d="M53.1245 114.973C53.1245 115.2 52.9591 115.367 52.7335 115.367C52.5078 115.367 52.3424 115.2 52.3424 114.973C52.3424 114.746 52.5078 114.579 52.7335 114.579C52.9591 114.579 53.1245 114.746 53.1245 114.973ZM53.0343 114.973C53.0343 114.807 52.914 114.67 52.7485 114.67C52.583 114.67 52.4627 114.807 52.4627 114.973C52.4627 115.14 52.583 115.276 52.7485 115.276C52.8989 115.276 53.0343 115.14 53.0343 114.973ZM52.8839 115.14C52.8989 115.155 52.8839 115.17 52.8688 115.17H52.8388C52.8237 115.17 52.8087 115.17 52.7936 115.155C52.7786 115.109 52.7485 115.064 52.7335 115.019H52.6883V115.155C52.6883 115.17 52.6733 115.185 52.6583 115.185H52.6282C52.6131 115.185 52.5981 115.17 52.5981 115.155V114.807C52.5981 114.791 52.6131 114.776 52.6282 114.776H52.7485C52.8237 114.776 52.8839 114.822 52.8839 114.897C52.8839 114.958 52.8538 114.988 52.8237 115.003C52.8237 115.049 52.8538 115.094 52.8839 115.14ZM52.6883 114.943H52.7485C52.7786 114.943 52.8087 114.928 52.8087 114.897C52.8087 114.867 52.7936 114.852 52.7485 114.852H52.6883V114.943Z" fill="#E42313"/>
</g>
<g clip-path="url(#clip2_330_603)">
<path d="M107.497 91.5H94.9965H93.0506H80.5506C80.5506 91.5 79.4155 91.3747 79.5371 93.0042L81.6046 120.4C81.6046 120.4 81.5911 121.486 82.929 121.486H93.2938H94.7803H105.145C106.47 121.486 106.47 120.4 106.47 120.4L108.537 93.0042C108.632 91.3886 107.497 91.5 107.497 91.5Z" fill="white"/>
<path d="M86.7532 112.754H81.8207L80.3207 93.1574C80.2397 92.3635 80.8613 92.3496 80.8613 92.3496H86.7667" fill="#E12F2E"/>
<path d="M101.348 112.754H106.28L107.78 93.1574C107.861 92.3635 107.24 92.3496 107.24 92.3496H101.334" fill="#E12F2E"/>
<path fill-rule="evenodd" clip-rule="evenodd" d="M95.0505 113.603C95.0099 113.603 94.9559 113.603 94.9153 113.603C94.9153 113.603 94.9153 113.603 94.9018 113.603C94.6315 113.547 94.3748 113.464 94.118 113.38C94.091 113.366 94.064 113.352 94.0369 113.338C93.9964 113.311 93.9829 113.269 93.9964 113.227C93.9964 113.199 94.0099 113.171 94.0234 113.157C94.0369 113.116 94.064 113.074 94.064 113.018C94.0775 112.962 94.0775 112.907 94.0775 112.851C94.0775 112.656 94.091 112.461 94.091 112.266C94.1045 111.862 94.1045 111.444 94.118 111.04C94.118 110.999 94.1045 110.957 94.091 110.915C94.064 110.943 94.0369 110.971 94.0234 111.013C93.9018 111.319 93.7396 111.584 93.5505 111.848C93.3478 112.127 93.1315 112.377 92.8883 112.628C92.8748 112.642 92.8613 112.656 92.8478 112.67C92.7667 112.74 92.6721 112.767 92.564 112.726C92.4288 112.684 92.2937 112.628 92.145 112.586C92.0234 112.545 91.9288 112.503 91.8342 112.419C91.8207 112.419 91.8207 112.405 91.8072 112.405C92.6315 111.625 93.3207 110.748 93.7937 109.717C93.7937 109.703 93.7802 109.703 93.7802 109.703C93.7667 109.676 93.7532 109.662 93.7126 109.676C93.645 109.689 93.591 109.689 93.5234 109.689C93.4288 109.703 93.3207 109.703 93.2126 109.703C93.0099 109.717 92.7937 109.731 92.591 109.745C92.4694 109.759 92.3478 109.759 92.2126 109.773C92.1045 109.773 92.0099 109.759 91.9153 109.703C91.8613 109.676 91.8207 109.62 91.7937 109.564C91.7802 109.508 91.7802 109.467 91.7802 109.411C91.7802 109.258 91.7937 109.091 91.7937 108.937C91.7937 108.84 91.7937 108.756 91.7937 108.659C91.7937 108.533 91.8613 108.45 91.9829 108.436C92.0775 108.422 92.1721 108.408 92.2667 108.394C92.4018 108.38 92.5369 108.366 92.6721 108.338C92.6721 108.338 92.6856 108.338 92.6856 108.325C92.618 108.269 92.564 108.199 92.4829 108.157C92.2396 108.004 91.9964 107.851 91.7802 107.67C91.4829 107.433 91.2126 107.182 90.9829 106.862C90.5775 106.305 90.3613 105.692 90.3883 104.996C90.3883 104.884 90.3748 104.787 90.3207 104.703C90.2126 104.467 90.118 104.23 90.0369 103.979C89.9694 103.756 89.9288 103.52 89.9153 103.283C89.9018 103.157 89.9153 103.018 89.9153 102.893C89.9153 102.851 89.9018 102.809 89.8883 102.767C89.8613 102.726 89.8342 102.698 89.8072 102.656C89.618 102.447 89.4423 102.224 89.2667 102.001C88.9559 101.556 88.6991 101.068 88.5505 100.525C88.4829 100.302 88.4423 100.079 88.4153 99.8426C88.3883 99.6059 88.4018 99.3552 88.4153 99.1184C88.4288 98.8816 88.4559 98.6588 88.4829 98.436C88.4964 98.1992 88.5234 97.9485 88.5369 97.7117C88.5505 97.5724 88.5505 97.4332 88.5505 97.2939C88.5505 97.1268 88.5369 96.9736 88.4829 96.8064C88.4288 96.6393 88.3478 96.4861 88.2396 96.3468C88.1991 96.305 88.1721 96.2633 88.1586 96.1936C88.1586 96.1797 88.1451 96.1797 88.1451 96.1797C88.1451 96.1658 88.1451 96.1379 88.1451 96.124C88.1451 96.1101 88.1586 96.0961 88.1586 96.0961C88.1721 96.0683 88.1721 96.0404 88.1856 96.0126C88.2532 95.8872 88.3342 95.8036 88.4559 95.7479C88.5505 95.7062 88.6586 95.6783 88.7532 95.6504C89.0234 95.5947 89.2937 95.5112 89.5505 95.4137C89.6045 95.3858 89.6586 95.358 89.7126 95.3162C89.7937 95.2465 89.8613 95.1769 89.9288 95.1073C89.9423 95.0933 89.9423 95.0933 89.9559 95.0794C89.9288 95.0516 89.9018 95.0376 89.8748 95.0237C89.7802 94.968 89.6856 94.9123 89.591 94.8566C89.4964 94.8009 89.4018 94.7312 89.3207 94.6477C89.2261 94.5502 89.1586 94.4527 89.118 94.3134C89.118 94.2995 89.118 94.2995 89.1045 94.2855C89.1856 94.2716 89.2532 94.2716 89.3207 94.2577C89.5234 94.2438 89.7261 94.188 89.9153 94.1045C90.2802 93.9513 90.5369 93.7006 90.6451 93.3106C90.6586 93.2688 90.6856 93.227 90.7261 93.1992C90.7667 93.1713 90.7937 93.1435 90.8342 93.1296C90.9018 93.1017 90.9694 93.0738 91.0369 93.0321C91.6721 92.7535 92.3342 92.5446 93.0234 92.4332C93.2261 92.4053 93.4423 92.3775 93.645 92.3775C93.6856 92.3775 93.7396 92.3635 93.7802 92.3496C93.8342 92.3496 93.8883 92.3496 93.9423 92.3496C93.9559 92.3496 93.9559 92.3635 93.9694 92.3635C94.1586 92.3914 94.3478 92.4192 94.5369 92.4471C94.6856 92.475 94.8478 92.4889 94.9964 92.5307C95.3478 92.6142 95.6856 92.7257 96.0099 92.8649C96.4153 93.046 96.8072 93.2549 97.1721 93.5195C97.618 93.8399 98.0099 94.2298 98.3342 94.6755C98.6586 95.1073 98.9018 95.5947 99.0775 96.1101C99.2126 96.4861 99.2937 96.8621 99.3478 97.2521C99.3748 97.461 99.3883 97.656 99.4018 97.8649C99.4153 98.0878 99.4018 98.3106 99.3883 98.5335C99.3748 98.7424 99.3477 98.9513 99.3072 99.1602C99.2937 99.2159 99.2937 99.2716 99.2802 99.3134C99.3342 99.3413 99.3748 99.3691 99.4153 99.397C99.564 99.4945 99.6586 99.6477 99.6991 99.8148C99.6991 99.8426 99.7126 99.8705 99.7126 99.8844C99.7126 99.9541 99.7126 100.038 99.7126 100.107C99.7126 100.107 99.7126 100.121 99.6991 100.121C99.6856 100.191 99.6856 100.26 99.6586 100.33C99.5505 100.832 99.4018 101.333 99.1991 101.806C99.0234 102.238 98.8207 102.642 98.6315 103.06C98.6045 103.116 98.5775 103.171 98.5369 103.213C98.4559 103.325 98.3613 103.38 98.2396 103.408C98.1991 103.422 98.145 103.422 98.1045 103.422C98.0369 103.422 97.9964 103.464 97.9829 103.52C97.9829 103.547 97.9694 103.575 97.9694 103.603C97.9694 103.645 97.9694 103.701 97.9829 103.742C97.9829 103.909 97.9829 104.091 97.9829 104.258C97.9694 104.439 97.9559 104.62 97.9153 104.787C97.8613 105.093 97.7802 105.4 97.6856 105.706C97.5369 106.166 97.3072 106.57 96.9964 106.932C96.6991 107.28 96.3613 107.572 95.9829 107.837C95.8342 107.935 95.6856 108.032 95.5369 108.116C95.4559 108.171 95.3748 108.227 95.2937 108.269C95.2937 108.269 95.2802 108.269 95.2802 108.283C95.2937 108.297 95.2937 108.311 95.2937 108.325C95.3072 108.325 95.3207 108.325 95.3342 108.325C95.4288 108.311 95.5234 108.297 95.6315 108.297C95.6856 108.297 95.7261 108.297 95.7802 108.297C95.9153 108.297 96.0369 108.297 96.1721 108.311C96.3072 108.311 96.3883 108.38 96.4018 108.52C96.4018 108.547 96.4018 108.589 96.4018 108.631C96.4018 108.854 96.4018 109.077 96.3883 109.286C96.3883 109.299 96.3883 109.313 96.3883 109.327C96.3883 109.383 96.3748 109.453 96.3613 109.508C96.3342 109.578 96.2937 109.62 96.2126 109.648C96.145 109.676 96.0775 109.676 96.0099 109.676C95.8342 109.662 95.6721 109.662 95.4964 109.648C95.2396 109.634 94.9829 109.634 94.7261 109.62C94.6856 109.62 94.645 109.62 94.618 109.634C94.6315 109.689 94.645 109.731 94.6586 109.773C94.7396 110.065 94.8072 110.372 94.8478 110.664C94.8883 110.943 94.9288 111.235 94.9559 111.528C94.9829 111.779 94.9964 112.029 95.0099 112.28C95.0234 112.475 95.0234 112.684 95.0234 112.879C95.0234 113.06 95.0234 113.241 95.0099 113.422C95.118 113.506 95.1045 113.561 95.0505 113.603ZM90.6586 94.6198C90.7396 94.6059 90.8207 94.6059 90.9018 94.5919C91.0775 94.5641 91.2396 94.5223 91.4153 94.4945C91.6856 94.4527 91.9559 94.4387 92.2261 94.4527C92.4829 94.4666 92.7396 94.4945 92.9829 94.5641C93.4288 94.6894 93.8207 94.8984 94.1856 95.2048C94.2396 95.2465 94.2937 95.2883 94.3342 95.344C94.4018 95.4137 94.4153 95.4972 94.3478 95.5808C94.3342 95.5947 94.3207 95.6226 94.2937 95.6365C94.2261 95.6922 94.145 95.734 94.064 95.7619C93.9559 95.7897 93.8613 95.7897 93.7667 95.734C93.5369 95.6226 93.2937 95.5669 93.0505 95.539C92.9018 95.5251 92.7396 95.5251 92.591 95.5251C92.4829 95.539 92.3748 95.539 92.2667 95.5669C92.0369 95.6226 91.8342 95.734 91.6721 95.9151C91.4964 96.1101 91.3478 96.319 91.2261 96.5557C91.0099 96.9596 90.8748 97.3914 90.7937 97.851C90.7802 97.9485 90.7667 98.046 90.7396 98.1435C90.7126 98.3106 90.6315 98.436 90.4694 98.5195C90.4288 98.5335 90.4018 98.5752 90.3883 98.617C90.3478 98.7145 90.3342 98.812 90.3478 98.9234C90.3478 98.9513 90.3613 98.9931 90.3748 99.0209C90.4018 99.0766 90.4423 99.1045 90.4964 99.0906C90.5234 99.0906 90.5369 99.0906 90.564 99.0906C90.6045 99.0906 90.645 99.0766 90.6856 99.0766C90.9559 99.0766 91.2126 99.0906 91.4829 99.0906C91.7396 99.0906 91.9829 99.1045 92.2396 99.1045C92.3883 99.1045 92.5234 99.1323 92.6721 99.1741C92.9559 99.2438 93.2126 99.383 93.4288 99.5919C93.5234 99.6894 93.645 99.7173 93.7667 99.6894C93.8613 99.6755 93.9559 99.6616 94.0505 99.6616C94.0775 99.6616 94.118 99.6616 94.145 99.6616C94.2396 99.6616 94.3342 99.6477 94.4423 99.6477C94.5099 99.6477 94.5775 99.6198 94.6315 99.578C94.7261 99.5084 94.8207 99.4527 94.9153 99.397C95.1045 99.3134 95.3207 99.2577 95.5234 99.2577C95.6586 99.2438 95.7937 99.2438 95.9288 99.2438C96.2802 99.2438 96.6315 99.2298 96.9829 99.2438C97.1315 99.2577 97.2937 99.2577 97.4423 99.2716C97.6721 99.2855 97.8883 99.3273 98.1045 99.383C98.1315 99.383 98.145 99.383 98.1721 99.383C98.2126 99.383 98.2396 99.3552 98.2532 99.3134C98.2532 99.2855 98.2667 99.2577 98.2532 99.2438C98.2532 99.1741 98.2396 99.1184 98.2396 99.0488C98.2126 98.812 98.1315 98.6031 98.0234 98.3942C97.8748 98.1435 97.8072 97.8649 97.8072 97.5724C97.8072 97.3775 97.8072 97.1825 97.7937 96.9875C97.7937 96.9318 97.8072 96.8761 97.8072 96.8204C97.8342 96.8204 97.8478 96.8204 97.8613 96.8204C97.8748 96.8343 97.8748 96.8482 97.8883 96.8621C98.0234 97.1268 98.145 97.3914 98.2532 97.656C98.3883 97.9903 98.5234 98.3385 98.6586 98.6727C98.6586 98.6867 98.6721 98.7006 98.6856 98.7284C98.6991 98.6867 98.7261 98.6588 98.7396 98.6309C98.7802 98.5474 98.8072 98.4638 98.8072 98.3802C98.8072 98.3245 98.8072 98.2549 98.8072 98.1992C98.8072 97.9624 98.8207 97.7117 98.8207 97.475C98.8072 97.1407 98.7667 96.8204 98.6991 96.5C98.6315 96.1658 98.5234 95.8454 98.3748 95.5251C98.1045 94.9401 97.7126 94.4527 97.2126 94.0488C96.8748 93.7702 96.5099 93.5474 96.118 93.3524C95.4694 93.0321 94.7802 92.8789 94.0505 92.8649C93.8342 92.8649 93.618 92.8789 93.4018 92.9067C93.145 92.9346 92.8883 92.9903 92.645 93.0599C92.4153 93.1296 92.1991 93.1992 91.9694 93.2688C91.8613 93.2967 91.7802 93.3802 91.6856 93.4499C91.6991 93.4777 91.6991 93.4917 91.7126 93.5056C91.7667 93.5056 91.8207 93.5056 91.8613 93.5056C91.9694 93.5056 92.0505 93.5335 92.145 93.5892C92.1315 93.617 92.1045 93.6309 92.091 93.6588C92.064 93.7006 92.0234 93.7145 91.9829 93.7284C91.9018 93.7563 91.8342 93.7841 91.7532 93.812C91.4288 93.9513 91.1315 94.1323 90.8478 94.3552C90.7667 94.4109 90.7126 94.4805 90.6315 94.5502C90.645 94.578 90.645 94.5919 90.6586 94.6198ZM98.1586 103.032C98.1991 102.962 98.2532 102.893 98.2802 102.823C98.4153 102.503 98.5505 102.182 98.6721 101.848C98.7667 101.598 98.8748 101.347 98.9423 101.082C98.9829 100.929 99.0234 100.79 99.0234 100.637C99.0234 100.497 99.0099 100.344 99.0099 100.205C99.0099 100.191 98.9964 100.163 98.9964 100.149C98.9559 100.079 98.9153 100.038 98.8478 100.01C98.8342 99.9958 98.8072 99.9958 98.7802 99.9958C98.7126 100.01 98.6586 100.038 98.6045 100.093C98.564 100.135 98.5505 100.177 98.5505 100.233C98.564 100.288 98.5775 100.33 98.591 100.386C98.6045 100.428 98.618 100.455 98.6315 100.497C98.6586 100.609 98.6315 100.692 98.5505 100.776C98.4964 100.818 98.4423 100.845 98.3748 100.873C98.3748 100.873 98.3748 100.859 98.3613 100.859C98.3613 100.804 98.3478 100.762 98.3478 100.706C98.3342 100.581 98.3342 100.455 98.3342 100.33C98.3207 100.219 98.3207 100.093 98.3072 99.9819C98.3072 99.9262 98.2667 99.8705 98.2261 99.8287C98.1991 99.8009 98.1586 99.7869 98.118 99.8009C98.0775 99.8148 98.0369 99.8148 98.0099 99.8287C97.8613 99.8984 97.7532 100.01 97.6721 100.149C97.6586 100.177 97.645 100.219 97.6315 100.247C97.618 100.302 97.6045 100.344 97.591 100.4C97.5369 100.609 97.4964 100.818 97.4153 101.026C97.3478 101.208 97.2667 101.361 97.1315 101.5C96.9829 101.639 96.8072 101.723 96.6045 101.737C96.5099 101.751 96.4559 101.709 96.4288 101.625V101.611C96.4153 101.584 96.4153 101.57 96.4423 101.556C96.4559 101.542 96.4694 101.542 96.4829 101.542C96.5099 101.528 96.5369 101.528 96.5505 101.528C96.6991 101.486 96.8207 101.416 96.9288 101.305C97.0369 101.194 97.1045 101.054 97.145 100.901C97.145 100.887 97.145 100.887 97.145 100.873C97.145 100.832 97.1315 100.804 97.1045 100.776C97.064 100.748 97.0099 100.734 96.9559 100.72C96.9018 100.706 96.8478 100.692 96.7937 100.678C96.7667 100.664 96.7396 100.65 96.7261 100.623C96.7126 100.595 96.6991 100.567 96.6721 100.553C96.6045 100.469 96.5234 100.428 96.4153 100.442C96.3883 100.442 96.3613 100.442 96.3342 100.455C96.1991 100.483 96.0775 100.511 95.9423 100.525C95.8207 100.539 95.6856 100.539 95.564 100.511C95.3748 100.483 95.1991 100.414 95.0369 100.316C94.9829 100.288 94.9288 100.274 94.8613 100.26C94.8748 100.33 94.8883 100.386 94.9288 100.455C94.9694 100.525 94.9559 100.581 94.9018 100.637C94.8748 100.664 94.8342 100.692 94.7937 100.72C94.7802 100.734 94.7532 100.734 94.7261 100.748C94.6856 100.762 94.6586 100.748 94.6315 100.72C94.618 100.706 94.6045 100.678 94.591 100.65C94.5234 100.525 94.4694 100.386 94.4153 100.247C94.4018 100.205 94.3883 100.163 94.3613 100.135C94.2937 100.038 94.2126 99.968 94.091 99.968C94.0505 99.968 94.0099 99.968 93.9829 99.9819C93.8342 100.01 93.7126 100.079 93.645 100.233C93.618 100.302 93.6045 100.372 93.591 100.442C93.5775 100.553 93.5775 100.678 93.5775 100.79C93.564 100.957 93.5505 101.11 93.5099 101.263C93.4829 101.403 93.4423 101.542 93.3883 101.681C93.3342 101.82 93.3478 101.946 93.4153 102.071C93.4423 102.127 93.4829 102.182 93.5234 102.238C93.7667 102.545 94.0775 102.684 94.4694 102.642C94.7126 102.614 94.9288 102.503 95.1315 102.364C95.2126 102.308 95.2396 102.238 95.2261 102.141C95.2126 102.085 95.1991 102.029 95.1991 101.974C95.1991 101.946 95.1856 101.932 95.1856 101.904C95.1856 101.848 95.2126 101.806 95.2667 101.82C95.2937 101.82 95.3072 101.82 95.3342 101.834C95.3748 101.848 95.4288 101.862 95.4694 101.89C95.5505 101.932 95.6315 101.974 95.6991 102.043C95.7802 102.141 95.8748 102.238 95.9559 102.336C96.0505 102.447 96.1315 102.572 96.2261 102.684C96.3478 102.837 96.4829 102.962 96.6586 103.046C96.6991 103.06 96.7261 103.088 96.7532 103.116C96.7937 103.143 96.8072 103.185 96.8207 103.227C96.8478 103.38 96.8748 103.547 96.8748 103.701C96.8748 103.826 96.8613 103.937 96.8342 104.049C96.7937 104.202 96.7261 104.327 96.6315 104.453C96.5099 104.62 96.4153 104.801 96.3883 105.01C96.3613 105.135 96.3207 105.26 96.2667 105.386C96.2532 105.4 96.2532 105.414 96.2396 105.428C96.2126 105.442 96.1721 105.469 96.145 105.483C96.091 105.428 96.091 105.4 96.0775 105.344C96.064 105.233 96.064 105.107 96.0505 104.996C96.0505 104.954 96.0505 104.912 96.0369 104.87C95.9964 104.648 95.7802 104.536 95.591 104.606C95.5369 104.62 95.4829 104.648 95.4288 104.662C95.1856 104.731 94.9559 104.773 94.6991 104.787C94.4829 104.801 94.2532 104.787 94.0369 104.759C93.9559 104.745 93.8748 104.745 93.8072 104.745C93.645 104.759 93.5099 104.843 93.4018 104.94C93.3883 104.954 93.3883 104.954 93.3748 104.968C93.4423 105.01 93.5099 105.052 93.5775 105.079C93.7802 105.177 93.8748 105.372 93.8342 105.595C93.8207 105.65 93.8072 105.72 93.7667 105.776C93.6586 105.65 93.564 105.525 93.4694 105.4C93.4423 105.4 93.4153 105.414 93.3883 105.414C93.3883 105.428 93.4018 105.442 93.4018 105.455C93.4153 105.525 93.4288 105.609 93.4423 105.678C93.4559 105.859 93.4423 106.04 93.4018 106.221C93.3613 106.375 93.3207 106.542 93.2802 106.695C93.2667 106.779 93.2396 106.848 93.2396 106.932C93.2396 107.085 93.2667 107.238 93.3342 107.391C93.4288 107.628 93.5775 107.823 93.7532 108.004C93.9423 108.213 94.1586 108.408 94.3613 108.589C94.3883 108.617 94.4153 108.631 94.4423 108.645C94.4964 108.673 94.5369 108.659 94.564 108.603C94.5775 108.575 94.591 108.533 94.6045 108.492C94.6315 108.38 94.6721 108.269 94.7396 108.185C94.7937 108.102 94.8478 108.032 94.9018 107.948C94.9559 107.865 95.0234 107.781 95.0775 107.698C95.1721 107.545 95.2126 107.377 95.1586 107.182C95.145 107.127 95.1721 107.071 95.1721 107.015C95.1991 107.029 95.2126 107.043 95.2261 107.057C95.2532 107.085 95.2802 107.099 95.2937 107.127C95.4153 107.238 95.5234 107.266 95.6721 107.182C95.7126 107.155 95.7532 107.141 95.7937 107.113C96.0775 106.96 96.3478 106.765 96.591 106.556C96.8478 106.319 97.0775 106.054 97.2396 105.734C97.5234 105.219 97.6586 104.648 97.6991 104.063C97.7126 103.909 97.6991 103.756 97.7126 103.603C97.7126 103.547 97.7261 103.492 97.7396 103.436C97.7667 103.338 97.8072 103.241 97.8613 103.157C97.9153 103.06 97.9829 102.962 98.0234 102.865C98.0234 102.865 98.0234 102.865 98.0369 102.865C98.064 102.907 98.1045 102.935 98.145 102.976C98.118 103.018 98.145 103.018 98.1586 103.032ZM90.6045 101.639C90.6045 101.639 90.6045 101.653 90.6045 101.639C90.6045 101.709 90.618 101.779 90.6315 101.848C90.6315 101.862 90.6451 101.876 90.6451 101.876C90.7396 102.043 90.8478 102.224 90.9423 102.391C90.9964 102.475 91.0505 102.545 91.1045 102.614C91.1991 102.726 91.3342 102.767 91.4829 102.726C91.5369 102.712 91.591 102.684 91.645 102.656C91.7532 102.6 91.8478 102.531 91.9559 102.475C92.0505 102.419 92.1315 102.364 92.2261 102.322C92.2667 102.294 92.3072 102.252 92.3342 102.196C92.3748 102.085 92.4153 101.974 92.4694 101.862V101.848C92.4559 101.848 92.4559 101.848 92.4559 101.848C92.3748 101.862 92.2802 101.876 92.1991 101.89C92.145 101.89 92.0775 101.904 92.0234 101.904C91.9694 101.904 91.9153 101.876 91.8883 101.834C91.8613 101.793 91.8342 101.737 91.8072 101.695C91.8342 101.681 91.8613 101.653 91.8883 101.639C91.9423 101.598 92.0099 101.584 92.091 101.57C92.2532 101.57 92.4153 101.528 92.564 101.444C92.7396 101.361 92.8478 101.221 92.9153 101.04C92.9288 101.013 92.9288 100.985 92.9288 100.957C92.9288 100.901 92.9153 100.859 92.8883 100.818C92.8748 100.804 92.8748 100.79 92.8613 100.776C92.8072 100.72 92.8072 100.664 92.8613 100.595C92.8883 100.553 92.9153 100.511 92.9559 100.483C92.9694 100.469 92.9694 100.442 92.9559 100.428C92.9559 100.414 92.9423 100.414 92.9423 100.4C92.9018 100.414 92.8613 100.428 92.8342 100.442C92.6586 100.511 92.4694 100.511 92.2937 100.483C92.1991 100.469 92.1045 100.442 91.9964 100.428C91.8883 100.414 91.7802 100.428 91.6721 100.455C91.5234 100.497 91.4153 100.595 91.3207 100.706C91.2937 100.734 91.2802 100.762 91.2532 100.776C91.1991 100.832 91.1315 100.845 91.064 100.804C91.0234 100.776 90.9829 100.748 90.9559 100.72C90.9423 100.706 90.9288 100.692 90.9153 100.678C90.9018 100.664 90.8883 100.664 90.8748 100.664C90.7937 100.664 90.6991 100.678 90.618 100.706C90.591 100.72 90.5775 100.734 90.5775 100.748C90.564 100.804 90.564 100.859 90.591 100.915C90.6856 101.152 90.8342 101.347 91.0505 101.486C91.0775 101.5 91.1045 101.528 91.1315 101.542C91.1856 101.57 91.1991 101.625 91.1856 101.681C91.1721 101.751 91.145 101.806 91.064 101.834C91.0505 101.834 91.0369 101.834 91.0099 101.834C90.9829 101.834 90.9559 101.82 90.9288 101.806C90.8883 101.779 90.8342 101.765 90.7937 101.737C90.7261 101.709 90.6586 101.681 90.6045 101.639ZM91.8748 95.2187C91.8072 95.1908 91.6991 95.163 91.6315 95.163C91.4829 95.163 91.3342 95.1908 91.1991 95.2605C90.8342 95.4415 90.4829 95.6365 90.145 95.8454C89.9829 95.9429 89.8207 96.0404 89.6315 96.1101C89.4559 96.1797 89.2802 96.2354 89.091 96.2354C89.064 96.2354 89.0369 96.2354 89.0234 96.2354C88.9423 96.2493 88.9153 96.2911 88.9288 96.3747C88.9288 96.3886 88.9423 96.4165 88.9423 96.4304C88.9694 96.514 89.0099 96.5836 89.0505 96.6532C89.1315 96.7925 89.1721 96.9457 89.1991 97.0989C89.2126 97.2521 89.1991 97.4053 89.1856 97.5446C89.1586 97.7117 89.145 97.8928 89.118 98.0599C89.091 98.2688 89.091 98.4638 89.091 98.6727C89.091 98.8677 89.1045 99.0488 89.145 99.2438C89.1586 99.2995 89.1721 99.3413 89.1856 99.383C89.2261 99.4527 89.2802 99.4805 89.3478 99.4527C89.3883 99.4387 89.4288 99.4109 89.4559 99.397C89.4964 99.3691 89.5234 99.3413 89.5369 99.2995C89.5505 99.2577 89.564 99.202 89.5775 99.1463C89.5775 99.0348 89.591 98.9234 89.591 98.812C89.6045 98.6309 89.6315 98.4499 89.6586 98.2688C89.6991 97.9903 89.7667 97.7117 89.8613 97.4332C89.9018 97.3078 89.9559 97.1964 90.0369 97.085C90.1451 96.9457 90.2532 96.8064 90.3748 96.6672C90.4559 96.5697 90.5369 96.4722 90.6045 96.3747C90.6991 96.2075 90.8072 96.0543 90.9288 95.9151C91.145 95.6504 91.4153 95.4415 91.7126 95.3023C91.7667 95.2883 91.8072 95.2465 91.8748 95.2187ZM92.2532 103.617C92.3072 103.715 92.3613 103.77 92.4423 103.784C92.4829 103.798 92.5234 103.798 92.564 103.798C92.7126 103.798 92.8748 103.77 93.0234 103.742C93.2126 103.715 93.4018 103.687 93.591 103.673C93.7532 103.659 93.9153 103.659 94.091 103.645C94.3478 103.645 94.6045 103.645 94.8613 103.673C94.9694 103.673 95.0775 103.687 95.1856 103.701C95.3072 103.715 95.4288 103.728 95.564 103.728C95.6721 103.742 95.7802 103.742 95.8748 103.756C96.0234 103.77 96.1586 103.77 96.2937 103.742C96.3478 103.728 96.3748 103.701 96.4018 103.659C96.4153 103.631 96.4153 103.603 96.3883 103.575C96.3613 103.547 96.3342 103.52 96.2937 103.506C96.2802 103.492 96.2532 103.492 96.2396 103.478C96.091 103.408 95.9694 103.297 95.8748 103.157C95.7937 103.046 95.7126 102.935 95.6315 102.809C95.6045 102.767 95.564 102.726 95.5234 102.684C95.4829 102.628 95.4153 102.6 95.3478 102.614C95.3072 102.614 95.2667 102.642 95.2261 102.67C95.1586 102.726 95.091 102.754 95.0099 102.795C94.9018 102.851 94.7937 102.907 94.6856 102.976C94.6315 103.004 94.591 103.046 94.5505 103.088C94.5099 103.13 94.4829 103.157 94.4423 103.185C94.3613 103.241 94.2802 103.269 94.1856 103.241C94.0234 103.199 93.8613 103.171 93.6991 103.116C93.6045 103.088 93.5099 103.046 93.4153 103.018C93.3072 102.976 93.1856 102.962 93.0775 103.004C92.9964 103.032 92.9288 103.074 92.8613 103.13C92.7396 103.241 92.6045 103.338 92.4694 103.436C92.4153 103.478 92.3613 103.506 92.3072 103.547C92.3207 103.561 92.2937 103.589 92.2532 103.617ZM92.3883 105.107C92.3883 105.107 92.3748 105.107 92.3883 105.107C92.3478 105.177 92.3072 105.247 92.2802 105.316C92.2667 105.344 92.2532 105.386 92.2261 105.414C92.1721 105.511 92.118 105.511 92.064 105.428C92.0234 105.386 91.9964 105.33 91.9694 105.274C91.9288 105.205 91.8883 105.121 91.8748 105.038C91.7937 104.578 91.7126 104.118 91.618 103.659C91.6045 103.603 91.591 103.533 91.5775 103.478C91.5505 103.394 91.4964 103.366 91.4153 103.394C91.2937 103.422 91.1856 103.492 91.091 103.589C90.9694 103.742 90.9153 103.909 90.9559 104.104C90.9694 104.216 90.9964 104.341 91.0369 104.453C91.1315 104.815 91.2667 105.149 91.4829 105.455C91.6315 105.678 91.8207 105.873 92.0369 106.04C92.1856 106.152 92.3613 106.221 92.5505 106.249C92.5775 106.249 92.6045 106.249 92.645 106.249C92.7126 106.235 92.7532 106.194 92.7532 106.124C92.7532 106.082 92.7396 106.054 92.7396 106.013C92.7126 105.915 92.6856 105.804 92.6586 105.706C92.6045 105.525 92.5505 105.358 92.5099 105.177C92.4559 105.121 92.4423 105.093 92.3883 105.107ZM95.1991 104.244C94.618 104.174 94.0505 104.146 93.4829 104.244C93.4964 104.286 93.5099 104.313 93.5369 104.341C93.618 104.439 93.7261 104.481 93.8478 104.481C93.9423 104.481 94.0505 104.481 94.145 104.467C94.2667 104.467 94.3748 104.453 94.4964 104.439C94.5775 104.425 94.6721 104.425 94.7532 104.411C94.8748 104.383 94.9829 104.355 95.1045 104.327C95.1315 104.313 95.1721 104.313 95.1991 104.299C95.1991 104.286 95.1991 104.272 95.1991 104.244ZM91.064 100.205C91.091 100.205 91.1315 100.191 91.1586 100.205C91.2667 100.205 91.3613 100.177 91.4694 100.135C91.6045 100.065 91.7396 100.01 91.8883 99.968C92.064 99.9262 92.2261 99.9123 92.4018 99.9541C92.4153 99.9541 92.4153 99.9541 92.4288 99.9541V99.9401C92.3748 99.7034 92.1721 99.5641 91.9288 99.6616C91.8883 99.6755 91.8342 99.7034 91.7937 99.7173C91.564 99.8287 91.3342 99.9541 91.1045 100.065C91.064 100.107 91.0505 100.135 91.064 100.205ZM95.5775 100.052C95.6586 100.052 95.7261 100.038 95.7937 100.024C95.8883 99.9958 95.9964 99.9958 96.091 100.01C96.2126 100.024 96.3072 100.079 96.4018 100.163C96.4829 100.233 96.5775 100.288 96.6721 100.33C96.7396 100.358 96.8072 100.358 96.8748 100.344C96.8613 100.33 96.8613 100.316 96.8478 100.302C96.8072 100.26 96.7802 100.233 96.7396 100.191C96.6586 100.121 96.5775 100.038 96.4829 99.968C96.4288 99.9262 96.3883 99.8844 96.3342 99.8426C96.1315 99.7034 95.8883 99.7034 95.6991 99.8566C95.6586 99.9123 95.618 99.968 95.5775 100.052ZM89.4829 99.8984C89.4018 99.8984 89.3478 99.9262 89.3072 99.968C89.2667 100.01 89.2532 100.052 89.2802 100.107C89.3613 100.344 89.4559 100.581 89.5369 100.818C89.5505 100.859 89.591 100.873 89.6315 100.887C89.6451 100.887 89.6586 100.887 89.6586 100.873C89.6721 100.859 89.6856 100.832 89.6856 100.804C89.6586 100.553 89.6315 100.316 89.591 100.065C89.591 100.024 89.564 99.9819 89.5505 99.9401C89.5369 99.9123 89.5099 99.8984 89.4829 99.8984ZM91.2802 99.6337C91.2667 99.6337 91.2667 99.6198 91.2667 99.6198C91.2532 99.6198 91.2261 99.6059 91.2126 99.6059C91.0505 99.5641 90.8883 99.578 90.7396 99.6198C90.6856 99.6337 90.6315 99.6616 90.591 99.7034C90.5369 99.7591 90.4964 99.8148 90.4694 99.8705C90.4559 99.8844 90.4559 99.9123 90.4559 99.9262C90.4423 100.01 90.5099 100.079 90.5775 100.065C90.591 100.065 90.618 100.052 90.6315 100.052C90.8613 99.9262 91.064 99.7869 91.2802 99.6477C91.2667 99.6337 91.2802 99.6337 91.2802 99.6337ZM93.145 101.834C93.1045 101.834 93.0775 101.848 93.0369 101.848C92.9694 101.848 92.9288 101.89 92.9018 101.946C92.9018 101.96 92.8883 101.974 92.8883 101.974C92.8613 102.029 92.8478 102.085 92.8207 102.141C92.8072 102.155 92.8207 102.169 92.8207 102.182C92.8342 102.21 92.8478 102.238 92.8748 102.266C92.9288 102.336 92.9694 102.419 93.0234 102.489C93.0369 102.517 93.064 102.531 93.091 102.531C93.1045 102.531 93.118 102.531 93.145 102.531C93.1856 102.531 93.1991 102.517 93.1991 102.475C93.1991 102.447 93.1991 102.433 93.1991 102.405C93.1991 102.294 93.1856 102.196 93.1856 102.099C93.1721 102.001 93.1586 101.918 93.145 101.834ZM97.1856 100.01C97.1856 99.9541 97.1721 99.8984 97.1721 99.8426C97.1721 99.7452 97.118 99.6755 97.0369 99.6477C96.9018 99.578 96.7667 99.578 96.6315 99.6059C96.6045 99.6059 96.564 99.6198 96.5369 99.6477C96.5505 99.6616 96.5505 99.6894 96.5775 99.6894C96.6991 99.7869 96.8207 99.8984 96.9559 99.9819C96.9829 99.9958 97.0099 100.01 97.0234 100.01C97.064 99.9958 97.118 100.01 97.1856 100.01ZM89.7937 99.4666C89.8072 99.5362 89.8207 99.6059 89.8342 99.6755C89.8478 99.7173 89.8478 99.7312 89.9018 99.7312C89.9288 99.7312 89.9423 99.7312 89.9694 99.7312C90.0234 99.7312 90.091 99.7173 90.145 99.7173C90.2396 99.7034 90.2126 99.7034 90.2261 99.6337C90.2261 99.6059 90.2396 99.578 90.2261 99.5362C90.091 99.5084 89.9423 99.4805 89.7937 99.4666ZM97.4288 99.5502C97.4288 99.5919 97.4153 99.6198 97.4153 99.6616C97.4153 99.7312 97.4423 99.773 97.5099 99.7869C97.5234 99.7869 97.5369 99.7869 97.5369 99.7869C97.5775 99.7869 97.618 99.7869 97.6586 99.7869C97.6721 99.7869 97.6991 99.7869 97.7126 99.773C97.7532 99.7452 97.7937 99.7034 97.8072 99.6477C97.8072 99.6337 97.8072 99.6337 97.8072 99.6198C97.7802 99.578 97.7532 99.5502 97.7126 99.5502C97.6315 99.5362 97.5369 99.5502 97.4288 99.5502Z" fill="#E12F2E"/>
<path fill-rule="evenodd" clip-rule="evenodd" d="M103.172 115.288C103.172 115.275 103.213 115.275 103.226 115.247C103.307 115.219 103.321 115.163 103.348 115.107C103.375 115.066 103.402 114.996 103.402 114.954C103.402 114.898 103.388 114.829 103.348 114.773C103.321 114.717 103.28 114.69 103.226 114.648C103.213 114.648 103.172 114.648 103.172 114.62V114.564C103.213 114.564 103.226 114.592 103.28 114.592C103.321 114.634 103.375 114.662 103.388 114.745C103.442 114.829 103.469 114.871 103.469 114.954C103.469 115.038 103.442 115.08 103.429 115.149C103.375 115.205 103.321 115.261 103.28 115.302C103.226 115.302 103.199 115.344 103.172 115.344V115.288ZM103.172 115.163V115.191H103.253L103.213 115.093C103.172 115.093 103.172 115.066 103.172 115.038V115.163V115.163ZM103.172 114.968L103.213 114.94C103.226 114.94 103.226 114.885 103.226 114.871C103.226 114.843 103.226 114.843 103.213 114.815C103.213 114.787 103.172 114.787 103.172 114.759V114.968ZM103.078 115.372C103.118 115.372 103.132 115.372 103.186 115.344V115.288H103.078V115.372ZM103.172 114.634V114.578C103.132 114.55 103.105 114.55 103.064 114.55V114.634H103.172ZM103.172 114.759H103.064V114.815H103.118C103.118 114.815 103.118 114.843 103.145 114.843V114.871C103.145 114.885 103.145 114.912 103.118 114.912C103.118 114.94 103.091 114.94 103.064 114.94V115.01C103.105 115.052 103.105 115.08 103.118 115.121L103.159 115.163V115.038C103.145 115.038 103.145 114.996 103.145 114.996C103.118 114.996 103.118 114.982 103.091 114.982C103.118 114.982 103.145 114.982 103.159 114.954V114.759H103.172ZM102.983 115.344V115.288H103.078V115.372C103.064 115.372 103.023 115.372 102.983 115.344ZM102.983 114.982V114.94H103.064H103.078V115.01C103.064 115.01 103.037 114.996 103.01 114.996H102.983V114.982ZM102.983 114.815V114.759H103.064H103.078V114.815H103.064H102.983ZM102.983 114.634V114.578C103.023 114.55 103.064 114.55 103.078 114.55V114.634H102.983ZM102.983 114.578C102.956 114.578 102.915 114.606 102.888 114.606C102.834 114.648 102.78 114.676 102.74 114.759C102.713 114.843 102.686 114.885 102.686 114.968C102.686 115.052 102.713 115.093 102.74 115.163C102.794 115.219 102.834 115.275 102.888 115.316C102.915 115.316 102.956 115.358 102.983 115.358V115.302C102.956 115.288 102.929 115.288 102.915 115.261C102.861 115.233 102.834 115.177 102.807 115.121C102.767 115.08 102.767 115.01 102.767 114.968C102.767 114.912 102.767 114.843 102.807 114.787C102.848 114.731 102.875 114.703 102.915 114.662C102.942 114.662 102.956 114.662 102.983 114.634V114.578ZM102.983 114.759H102.915V115.191H102.983V114.982V114.94V114.815V114.759ZM97.3478 118.951V116.124C98.3613 114.592 100.848 114.105 102.537 114.717L102.361 116.208C102.294 116.236 102.118 116.236 102.05 116.138C101.348 115.093 99.3207 115.678 98.8883 117.183C98.7937 118.227 99.8343 119.272 102.064 118.492L101.848 119.773C99.9559 120.149 98.1721 119.871 97.3478 118.951ZM97.3478 115.149L97.5234 114.508H97.3478V115.149ZM97.3478 114.508H97.1991V115.79L97.3478 115.163V114.508ZM97.3478 116.11C97.2937 116.208 97.2532 116.291 97.1991 116.389V118.742C97.2532 118.826 97.3072 118.91 97.3478 118.951V116.11ZM97.0505 118.478V116.765C97.0775 116.625 97.1586 116.5 97.1991 116.403V118.756C97.1586 118.673 97.0775 118.575 97.0505 118.478ZM97.0505 116.068V114.508H97.1991V115.79L97.1316 116.082H97.0505V116.068ZM97.0505 114.508H92.8478C92.537 115.233 93.1451 115.01 93.1451 115.261L92.4018 118.074V119.815H94.3478C94.3478 119.481 94.2667 119.439 94.091 119.16L94.4153 117.698C94.8072 117.628 95.7802 117.684 96.1045 118.004L96.4829 116.542L94.7532 116.598L94.9829 115.678L96.4964 115.706C96.7937 115.762 96.8478 116.041 97.0505 116.096V114.508V114.508ZM97.0505 116.751C97.0234 116.793 96.9964 116.848 96.9964 116.932C96.8207 117.531 96.8478 118.032 97.0505 118.478V116.751ZM92.4153 114.94V114.522H92.564C92.591 114.703 92.537 114.843 92.4153 114.94ZM92.4153 114.522V114.94C92.3613 114.968 92.3072 114.982 92.2667 115.01V114.522H92.4153ZM92.4153 118.06V119.801H92.2667V118.631L92.4153 118.06ZM92.091 119.801H92.2667V118.631L92.091 119.216V119.801ZM92.091 115.08C92.1586 115.052 92.2126 115.052 92.2667 115.01V114.522H92.091V115.08ZM92.091 114.522V115.066H92.037L89.7937 116.988C90.3613 117.921 90.6045 118.213 91.1721 119.132C91.4424 119.369 91.7126 119.258 91.6721 119.829L89.7126 119.773C89.064 119.745 88.2262 118.255 87.7126 117.628L87.3748 118.798L87.6721 119.355L87.618 119.745H84.9153V119.717V119.592C84.9694 119.202 85.3207 119.3 85.3883 119.105C85.8072 117.823 86.1991 116.667 86.4964 115.372C86.564 115.135 86.4694 115.066 86.2262 114.982C86.1451 114.801 86.1991 114.55 86.4018 114.495C87.118 114.522 87.8343 114.55 88.564 114.55L88.8613 114.578C88.8207 114.815 88.7667 115.01 88.4964 115.093C88.3613 115.149 87.9964 116.222 87.9964 116.807L89.9829 115.233C90.091 115.107 90.091 115.024 89.7397 114.982C89.6721 114.885 89.7126 114.717 89.8343 114.536H92.091V114.522ZM92.091 119.216V119.801H91.9424L92.091 119.216Z" fill="#E12F2E"/>
</g>
<g clip-path="url(#clip3_330_603)">
<path d="M156.769 92.4121C164.349 94.7836 165.406 103.573 165.406 103.573C165.607 104.717 165.591 108.349 165.154 110.157C164.853 111.401 164.584 114.684 159.184 118.896C158.144 119.709 156.92 120.638 155.662 120.77C155.511 120.787 155.343 120.803 155.276 120.687C155.192 120.571 155.427 120.273 155.494 120.24C158.765 118.299 163.31 115.016 163.511 107.271C163.511 107.271 163.964 99.9909 159.435 96.558C157.976 95.4469 155.88 94.2032 154.236 93.7554C154.001 93.6891 151.72 93.1915 151.653 93.573C151.57 94.1202 152.492 94.1534 152.962 94.17C154.052 94.2032 155.393 94.8665 155.695 95.0158C159.603 96.9229 160.643 99.1783 160.978 99.7255C162.488 102.13 162.437 106.724 162.437 107.387C162.488 111.55 160.291 114.386 159.301 115.745C157.624 118.051 153.85 120.986 147.695 121.5C146.253 121.616 143.1 121.583 139.964 119.875C138.957 119.328 136.945 117.719 135.955 115.845C135.67 115.298 135.1 113.888 135.771 113.755C136.173 113.672 136.76 114.9 137.85 116.061C138.84 117.122 139.846 118.117 141.322 118.83C143.284 119.792 145.632 120.323 146.622 120.173C146.84 120.14 146.857 119.875 146.656 119.825C146.052 119.676 144.861 119.576 143.871 119.228C142.328 118.681 139.494 116.906 137.867 114.817C137.263 114.037 136.341 112.23 136.173 110.903C135.871 108.581 135.972 105.298 136.073 104.651C136.71 100.936 138.706 98.7803 140.249 97.437C141.758 96.1103 144.542 95.1816 145.247 94.8333C145.364 94.767 145.297 94.6343 145.213 94.6178C145.079 94.6012 144.928 94.6178 144.777 94.6509C144.676 94.6841 144.559 94.7007 144.442 94.7173C144.106 94.767 135.184 96.7902 135.083 107.586C135.066 108.565 134.228 108.001 134.127 107.404C133.842 105.762 133.876 104.253 134.261 102.677C134.949 99.7919 136.76 97.4867 138.538 95.9776C141.154 93.7388 144.811 92.4619 147.846 91.9312C150.429 91.4834 152.542 91.0854 156.769 92.4121ZM134.848 112.644C135.318 112.727 135.435 112.346 135.402 112.163C135.318 111.799 135.301 111.45 135.284 110.953C135.251 110.505 135.217 109.958 134.915 109.593C134.765 109.41 134.546 109.294 134.312 109.294C133.205 109.278 133.574 111.036 133.741 111.633C133.809 111.898 133.926 112.147 134.144 112.329C134.312 112.495 134.58 112.595 134.848 112.644Z" fill="white"/>
<path d="M156.97 106.607C156.819 106.54 156.685 106.491 156.584 106.441C156.199 106.259 155.226 105.96 154.454 105.711C154.018 105.579 153.582 105.429 153.498 105.396C153.414 105.263 153.23 104.451 153.129 104.053C153.079 103.854 153.045 103.688 153.029 103.622C152.962 103.373 152.878 103.224 152.626 103.24H152.609C152.526 103.24 151.385 103.472 149.507 103.854C148.249 104.119 146.941 104.385 146.857 104.401C146.756 104.418 146.689 104.467 145.867 105.695C145.616 106.06 145.314 106.524 145.263 106.574C145.23 106.59 145.062 106.657 144.878 106.739C144.358 106.955 143.385 107.353 142.547 107.784C141.624 108.265 139.863 109.293 139.729 109.526C139.679 109.608 139.679 109.708 139.729 109.791C139.796 109.89 139.93 109.957 140.098 109.94C140.131 109.94 140.165 109.94 140.215 109.924C140.4 109.89 145.985 109.061 149.188 108.713C149.993 108.63 150.999 108.547 152.19 108.481C155.125 108.331 158.094 108.315 158.261 108.348C158.429 108.381 158.614 108.315 158.731 108.182C158.832 108.083 158.882 107.933 158.882 107.801C158.882 107.502 158.261 107.187 156.97 106.607Z" fill="#E0262B"/>
<path d="M161.616 118.88H161.683C161.767 118.88 161.8 118.913 161.817 118.979C161.834 119.046 161.85 119.112 161.867 119.128H162.018C162.001 119.112 161.985 119.062 161.968 118.979C161.951 118.896 161.918 118.847 161.85 118.83C161.918 118.813 161.985 118.747 161.985 118.681C161.985 118.631 161.951 118.581 161.918 118.548C161.867 118.515 161.817 118.498 161.7 118.498C161.599 118.498 161.515 118.515 161.448 118.515V119.145H161.599V118.88H161.616ZM161.616 118.598C161.632 118.598 161.666 118.581 161.7 118.581C161.8 118.581 161.834 118.614 161.834 118.681C161.834 118.747 161.767 118.78 161.683 118.78H161.616V118.598Z" fill="#E0262B"/>
<path d="M161.716 119.444C162.085 119.444 162.37 119.162 162.37 118.814C162.37 118.465 162.085 118.183 161.716 118.183C161.347 118.183 161.062 118.465 161.062 118.814C161.062 119.162 161.347 119.444 161.716 119.444ZM161.716 118.299C162.001 118.299 162.203 118.532 162.203 118.797C162.203 119.079 162.001 119.311 161.716 119.311C161.431 119.311 161.213 119.095 161.213 118.797C161.213 118.532 161.431 118.299 161.716 118.299Z" fill="#E0262B"/>
</g>
<path d="M255.474 106.339C255.565 106.198 255.759 105.903 255.539 105.762C255.41 105.685 255.215 105.865 255.138 105.98C255.138 105.98 254.918 106.134 254.555 106.891C254.892 106.942 255.319 106.57 255.474 106.339Z" fill="white"/>
<path d="M258.271 110.622L258.181 110.558C257.948 110.699 257.754 110.699 257.637 110.648C257.249 110.443 257.676 109.558 257.676 109.545L257.935 109.071C258.699 107.827 259.217 107.647 258.479 107.365C258.155 107.134 256.912 107.981 256.213 108.75C256.484 108.186 257.132 107.147 257.028 107.057C256.899 106.929 256.303 106.891 256.031 106.968C256.161 107.211 255.954 107.545 255.954 107.545C255.954 107.545 255.203 109.186 255.164 109.263C254.931 109.879 254.257 111.071 254.387 111.122C254.503 111.174 254.879 111.366 255.034 111.289C255.565 110.058 256.808 108.994 257.054 109.045C256.718 109.648 256.29 111.007 256.756 111.302C257.184 111.571 257.844 111.264 258.129 110.802C258.259 110.661 258.207 110.815 258.271 110.622Z" fill="white"/>
<path d="M242.292 108.224C243.289 106.75 243.911 108.481 244.468 107.788C244.727 107.442 244.442 107.211 244.131 107.006C243.975 106.903 243.445 106.673 242.758 106.929C242.564 106.968 242.59 106.609 242.486 106.621C242.253 106.673 242.072 106.519 242.007 106.685C242.072 106.968 241.528 108.186 241.217 109.083C241.036 109.609 240.622 111.071 240.466 111.199C240.557 111.379 241.075 111.238 241.191 111.058L242.085 108.673L242.292 108.224Z" fill="white"/>
<path d="M236.543 101.287C235.52 100.697 233.784 100.953 233.318 101.697C233.085 102.069 232.761 102.903 233.033 102.877C233.474 102.826 234.73 101.492 235.792 102.069C237.501 102.928 237.216 105.891 235.442 108.404C233.849 110.584 231.389 111.494 230.068 110.468C228.566 109.532 227.97 107.109 229.395 104.711C230.456 102.12 233.176 101.428 233.279 101.248C233.383 101.082 233.461 100.979 233.279 100.864C233.046 100.723 232.049 101.056 231.661 101.236C230.599 101.723 229.343 102.89 228.657 104.185C228.074 105.249 227.634 106.314 227.685 107.814C227.75 109.661 228.553 110.738 229.498 111.251C230.495 111.751 230.91 111.943 231.661 111.828C233.124 111.61 234.82 110.763 236.271 108.558C237.889 106.134 238.459 102.39 236.543 101.287Z" fill="white"/>
<path d="M245.853 113.495L245.516 113.995C245.4 114.162 245.516 114.341 245.646 114.405C246.604 114.828 247.808 114.405 248.43 113.418C249.116 112.648 250.204 109.84 251.007 108.481C251.227 108.122 251.512 107.557 251.46 107.493C251.24 107.211 250.903 106.968 250.826 107.275C250.696 106.993 250.476 106.891 250.204 106.775C249.336 106.403 248.534 106.993 247.847 108.058C247.601 108.442 247.342 108.814 247.2 109.737C246.902 110.122 245.413 110.943 244.998 110.686C244.908 110.635 244.804 110.404 244.908 110.379C245.141 110.314 246.306 109.481 246.708 108.853L246.876 108.583C247.057 108.301 247.174 107.532 246.63 107.198C246.009 106.814 245.245 107.352 244.804 107.942C244.209 108.494 243.846 110.02 243.846 110.02C243.626 110.276 243.121 109.968 243.056 110.276C243.017 110.43 243.043 110.532 243.108 110.674C243.224 110.904 243.755 110.456 243.885 110.738C243.975 110.943 243.898 110.994 244.455 111.353C245.322 111.892 246.915 110.712 247.226 110.609C247.886 111.584 248.508 111.045 248.831 111.058C248.935 111.058 248.391 112.251 247.938 112.764C246.98 114.174 245.853 113.495 245.853 113.495ZM244.675 109.66C244.675 109.263 244.947 108.827 245.348 108.353C245.491 108.186 245.827 107.801 246.073 107.955C246.229 108.058 246.151 108.314 246.009 108.532C246.009 108.532 244.973 109.827 244.675 109.66ZM248.262 110.084C248.029 109.917 248.184 109.199 248.663 108.417C249.078 107.891 249.595 107.493 249.971 107.75C250.217 107.917 250.139 108.211 249.79 108.865C249.285 109.712 248.611 110.314 248.262 110.084Z" fill="white"/>
<path d="M251.745 111.199C252.587 111.623 253.571 110.853 254.477 109.404C255.177 108.263 254.969 107.288 254.62 107.173C254.374 107.211 254.348 107.211 254.387 106.929C253.506 106.326 252.056 107.455 251.447 108.558C250.554 110.186 251.292 110.969 251.745 111.199ZM252.509 108.519C252.859 108.109 253.493 107.455 253.946 107.827C254.115 107.968 254.102 108.622 253.675 109.237C253.195 109.943 252.587 110.52 252.159 110.212C251.745 109.93 252.25 108.827 252.509 108.519Z" fill="white"/>
<path d="M240.363 106.557C239.793 106.211 239.055 106.48 238.977 106.467C238.705 106.416 240.272 103.21 240.168 103.018C240.026 102.787 239.586 102.428 239.482 102.595C239.417 102.697 238.977 103.595 237.838 107.173C237.566 107.993 237.164 109.096 237.164 109.096C237.164 109.096 236.607 110.789 236.491 110.879C236.426 111.058 237.112 111.238 237.177 111.174C237.294 111.071 237.203 110.93 237.294 111.007C237.734 111.43 239.236 111.481 240.233 109.866L240.479 109.455C241.036 108.558 241.114 107.006 240.363 106.557ZM238.148 110.289C237.682 110.032 238.006 109.109 238.459 108.211C238.77 107.609 239.417 107.147 239.806 107.378C240.026 107.519 240.246 108.16 239.754 109.199C239.391 109.955 238.679 110.571 238.148 110.289Z" fill="white"/>
<path d="M221.573 107.16C221.962 106.852 222.778 106.98 222.972 106.775C223.192 106.557 222.985 106.403 222.881 106.249C222.195 105.788 220.602 106.455 220.304 106.98C219.683 108.096 222.428 108.404 221.742 109.648C221.509 110.007 221.237 110.597 220.317 110.353C220.343 110.045 220.304 110.263 220.149 109.994C219.734 109.558 219.217 109.609 219.009 109.968C218.763 110.417 219.048 110.763 219.527 111.033C220.071 111.328 221.742 111.417 222.454 110.212C223.645 108.211 221.211 107.468 221.573 107.16Z" fill="white"/>
<path d="M201.852 105.711C201.023 107.621 200.621 109.814 200.233 110.802C200.116 111.225 200.583 111.481 200.829 111.033C201.334 109.596 202.357 107.506 202.641 105.916C202.706 105.531 202.046 105.275 201.852 105.711Z" fill="white"/>
<path d="M204.157 106.993C204.506 106.66 205.348 106.711 205.529 106.493C205.723 106.249 205.516 106.134 205.4 105.98C204.674 105.583 203.159 106.493 202.913 107.044C202.382 108.211 205.322 108.263 204.662 109.75C204.467 110.122 204.441 110.507 203.392 110.455C203.25 110.379 203.224 110.327 203.211 110.186C202.771 109.737 202.214 109.878 202.046 110.25C201.839 110.712 202.085 111.007 202.59 111.225C203.159 111.481 204.856 111.392 205.451 110.135C206.436 108.006 203.82 107.327 204.157 106.993Z" fill="white"/>
<path d="M219.022 110.981C218.323 110.827 217.714 110.661 217.831 109.75C218.362 109.096 219.463 107.288 219.799 106.634C220.019 106.172 220.408 105.223 220.55 104.98C220.939 104.749 223.555 104.775 225.38 103.531C225.562 103.441 225.497 103.082 225.354 103.069C223.788 103.223 222.363 104.069 220.835 103.826C220.978 102.736 221.12 102.338 220.641 101.992C219.89 101.748 219.229 103.082 218.66 103.839C218.504 104.185 216.199 103.826 214.671 104.133C214.309 104.262 214.412 104.775 214.412 104.775C215.384 105.147 217.417 104.877 218.025 104.993C217.093 106.442 216.795 109.006 216.976 109.571C216.497 110.212 215.137 110.93 214.671 109.955C214.568 109.789 215.474 109.891 216.186 108.673C216.899 107.455 216.847 106.237 216.342 106.019C214.956 105.659 213.441 108.545 213.519 109.519C213.299 109.648 213.066 109.724 212.988 109.365C212.833 108.968 213.817 107.775 214.102 106.224C214.127 105.98 213.376 105.403 213.35 105.698C213.143 106.967 212.263 109.609 211.227 109.75C210.618 109.545 211.02 108.327 211.952 107.006C212.017 106.839 211.395 106.147 211.279 106.673C211.071 107.198 210.566 107.904 210.463 108.545C210.32 109.109 210.23 110.25 210.735 110.43C211.434 110.686 211.848 110.571 212.483 109.763C212.664 110.096 213.079 110.263 213.48 110.186C215.099 112.571 216.937 110.52 217.132 110.443C217.313 111.199 218.478 111.686 218.686 111.661C218.867 111.635 219.191 111.225 219.022 110.981ZM214.632 109.07C214.425 108.968 214.594 108.455 214.853 107.993C215.112 107.519 215.526 106.967 215.746 107.108C215.992 107.211 215.733 107.852 215.487 108.314C215.228 108.788 214.866 109.173 214.632 109.07ZM219.981 103.236C220.136 103.274 220.084 103.646 220.006 103.89C219.864 103.967 219.488 103.851 219.488 103.851C219.488 103.595 219.838 103.185 219.981 103.236ZM217.792 108.365C217.546 108.211 218.349 105.826 218.958 105.044C219.009 104.941 219.54 105.018 219.605 105.082C218.88 107.121 218.064 108.198 217.792 108.365Z" fill="white"/>
<path d="M210.605 107.326C210.709 107.134 210.748 106.852 210.01 106.711C208.792 104.787 207.005 106.57 206.28 108.083C205.762 109.186 205.943 110.007 206.72 110.443C206.785 110.481 206.954 110.648 207.977 110.481C208.21 110.443 207.394 112.263 205.969 115.033C206.034 115.2 206.643 115.649 206.772 115.457C208.378 112.212 210.372 107.48 210.605 107.326ZM208.896 108.327C208.443 108.942 207.86 109.75 207.277 109.596C207.031 109.532 206.72 108.968 207.614 107.686C208.443 106.672 208.818 106.698 209.233 107.019C209.401 107.147 209.349 107.724 208.896 108.327Z" fill="white"/>
<path d="M198.925 104.826C199.585 104.223 200.79 102.851 199.456 102.133C197.138 100.992 194.691 102.069 194.6 101.646C194.729 100.787 195.351 98.6324 195.429 97.6962C195.455 97.427 194.82 97.3885 194.704 97.8373C194.445 98.5426 193.927 100.992 193.758 101.992C193.512 102.479 192.942 102.351 192.904 102.736C192.774 103.364 193.551 103.121 193.409 103.467C193.279 104.339 192.774 107.134 192.062 109.673C190.78 109.353 191.557 108.494 191.648 108.353C191.673 107.968 190.094 108.519 190.637 109.519C190.871 110.225 191.57 110.584 191.79 110.802C191.894 111.045 191.66 111.571 191.894 111.725C192.036 111.828 192.049 112.135 192.632 111.328C194.341 112.097 198.562 111.905 200.065 109.224C201.515 106.634 199.482 105.429 198.925 104.826ZM194.432 102.826C195.105 102.441 197.604 102.338 198.925 103.082C199.21 103.48 198.394 104.505 197.747 104.416C196.309 104.223 195.209 104.044 194.082 104.608C194.095 103.698 194.237 103.031 194.432 102.826ZM197.397 105.057C197.125 105.134 195.364 105.724 195.04 105.416C194.872 105.301 194.885 105.083 195.196 104.993C195.675 104.775 197.669 104.98 197.397 105.057ZM199.301 108.468C197.747 110.661 194.898 111.687 192.761 110.173C192.774 109.237 193.331 107.339 193.732 105.916C196.685 106.788 197.475 105.159 198.329 105.621C199.417 106.224 200.039 107.429 199.301 108.468Z" fill="white"/>
<path d="M265.782 99.8378C265.782 100.479 266.209 100.774 266.637 101.236C266.922 101.543 267.142 101.825 267.582 101.825C267.712 101.825 267.802 101.697 267.802 101.569C267.802 101.082 267.349 100.953 267.077 100.556C266.676 99.9533 266.572 99.1582 265.834 99.1582C265.678 99.1582 265.536 99.2608 265.536 99.4147C265.523 99.607 265.782 99.6455 265.782 99.8378Z" fill="white"/>
<path d="M276.815 103.608C276.478 103.185 276.141 103.056 275.701 102.723C275.002 102.197 274.536 101.787 273.655 101.787C273.409 101.787 273.28 101.659 273.034 101.659C272.645 101.659 272.438 101.62 272.05 101.62C271.078 101.62 270.534 101.966 269.68 102.428C268.191 103.236 267.465 104.39 267.375 106.07C267.349 106.596 267.375 106.903 267.414 107.429C267.491 108.301 267.88 108.737 268.307 109.507C268.618 110.058 268.955 110.379 269.55 110.609C270.146 110.84 270.547 110.738 271.169 110.904C271.661 111.033 271.972 111.033 272.49 111.033C273.267 111.033 273.694 110.789 274.419 110.481C275.455 110.032 276.038 109.648 276.776 108.788C277.268 108.211 277.669 107.814 277.669 107.057C277.669 106.724 277.76 106.544 277.76 106.211C277.76 105.711 277.592 105.429 277.372 104.98C277.126 104.454 277.177 104.057 276.815 103.608Z" fill="white"/>
<path d="M262.363 106.66C262.519 106.673 262.61 106.75 262.765 106.75C263.348 106.75 263.632 106.442 264.202 106.288C264.668 106.172 264.953 106.108 265.394 105.954C265.497 105.916 265.653 105.916 265.653 105.801C265.653 105.583 265.316 105.57 265.316 105.352C265.316 105.262 265.407 105.236 265.407 105.134C265.407 105.082 265.368 105.057 265.368 105.006C265.173 105.006 265.07 104.916 264.876 104.916C264.293 104.916 264.073 105.339 263.529 105.557C263.27 105.66 262.894 105.634 262.894 105.916C262.894 105.954 262.933 105.98 262.933 106.019H263.231C263.283 105.993 263.309 105.967 263.361 105.929L263.451 106.019C263.102 106.326 262.778 106.314 262.338 106.48C262.325 106.557 262.338 106.596 262.363 106.66Z" fill="white"/>
<path d="M281.179 105.095C280.985 105.275 280.764 105.211 280.531 105.352C280.285 105.493 280.182 105.737 279.884 105.737C279.832 105.737 279.832 105.647 279.78 105.647C279.444 105.647 279.366 105.967 279.081 106.109C279.107 106.198 279.172 106.237 279.172 106.314C279.172 106.365 279.081 106.352 279.081 106.403C279.081 106.519 279.198 106.609 279.314 106.609C280.078 106.609 280.324 105.839 281.088 105.801C281.088 105.711 281.088 105.673 281.088 105.596C281.269 105.583 281.477 105.531 281.477 105.365C281.477 105.211 281.321 105.16 281.179 105.095Z" fill="white"/>
<path d="M264.966 109.712C264.63 109.917 264.371 109.968 264.073 110.225C264.319 110.443 264.422 110.622 264.591 110.904C264.966 110.661 265.238 110.558 265.575 110.263C265.73 110.135 265.704 109.93 265.873 109.84C266.08 109.724 266.339 109.686 266.339 109.455C266.339 109.224 266.015 109.199 265.782 109.199C265.407 109.199 265.277 109.519 264.966 109.712Z" fill="white"/>
<path d="M279.042 110.468C278.861 110.34 278.796 110.135 278.576 110.135C278.472 110.135 278.421 110.199 278.317 110.225C278.356 110.315 278.382 110.366 278.446 110.443C278.395 110.494 278.317 110.52 278.317 110.597C278.317 110.892 278.705 110.853 278.913 111.045C279.249 111.353 279.249 111.93 279.728 111.93C279.793 111.93 279.819 111.841 279.884 111.841C280.013 111.841 280.052 111.982 280.156 112.059C280.233 111.969 280.285 111.917 280.376 111.841C279.845 111.302 279.638 110.892 279.042 110.468Z" fill="white"/>
<path d="M274.121 112.866C274.121 113.508 274.419 113.854 274.419 114.495C274.626 114.495 274.756 114.649 274.847 114.828H275.015V113.892C275.015 113.354 274.95 112.982 274.626 112.533C274.419 112.636 274.121 112.636 274.121 112.866Z" fill="white"/>
<path d="M272.347 100.466C273.849 101.543 274.782 102.684 274.782 104.531C274.782 105.288 274.626 105.762 274.225 106.39C274.018 106.711 273.629 106.814 273.629 107.198C273.629 107.237 273.668 107.25 273.668 107.288H273.875C275.468 106.762 276.465 106.095 277.216 104.621C277.566 103.915 277.851 103.479 277.851 102.697C277.851 102.377 277.838 102.184 277.812 101.876C277.721 101.043 277.346 100.594 276.789 99.9658C275.649 98.6963 274.484 98.1833 272.775 98.1833C271.816 98.1833 271.298 98.5039 270.379 98.7732C269.835 98.9271 269.356 99.081 269.188 99.6196H269.952C270.949 99.6196 271.545 99.9017 272.347 100.466Z" fill="white"/>
<path d="M276.284 114.059C276.284 114.072 276.284 114.097 276.284 114.123C276.284 114.149 276.284 114.174 276.284 114.187V114.713H276.439V113.931H276.206L276.064 114.546L275.921 113.931H275.688V114.713H275.844V114.187C275.844 114.174 275.844 114.149 275.844 114.123C275.844 114.097 275.844 114.072 275.844 114.059L275.986 114.713H276.141L276.284 114.059Z" fill="white"/>
<path d="M276.724 114.559H276.569V114.713H276.724V114.559Z" fill="white"/>
<path d="M277.501 114.649C277.501 114.636 277.501 114.61 277.501 114.572V114.521C277.501 114.469 277.488 114.431 277.475 114.405C277.462 114.379 277.436 114.354 277.398 114.341C277.436 114.328 277.475 114.303 277.488 114.264C277.501 114.226 277.514 114.187 277.514 114.149C277.514 114.123 277.514 114.097 277.501 114.072C277.488 114.046 277.475 114.02 277.462 114.008C277.436 113.982 277.411 113.969 277.385 113.956C277.359 113.943 277.32 113.943 277.255 113.931H276.893V114.713H277.048V114.405H277.203C277.242 114.405 277.281 114.418 277.294 114.431C277.307 114.444 277.32 114.482 277.32 114.533V114.61C277.32 114.636 277.32 114.649 277.32 114.674C277.32 114.687 277.32 114.7 277.333 114.713H277.514V114.687C277.514 114.687 277.501 114.674 277.501 114.649ZM277.307 114.264C277.294 114.277 277.268 114.277 277.229 114.277H277.048V114.072H277.229C277.268 114.072 277.294 114.072 277.307 114.085C277.333 114.097 277.346 114.136 277.346 114.174C277.359 114.226 277.346 114.251 277.307 114.264Z" fill="white"/>
<path d="M277.812 114.559H277.657V114.713H277.812V114.559Z" fill="white"/>
<path d="M269.343 112.148C268.955 112.661 268.993 113.11 268.605 113.636C268.773 113.764 268.773 113.956 268.747 114.162L268.89 114.264L269.447 113.52C269.77 113.084 269.952 112.751 269.952 112.212C269.719 112.148 269.486 111.956 269.343 112.148Z" fill="white"/>
<defs>
<clipPath id="clip0_330_603">
<rect width="276" height="68" fill="white" transform="translate(16.5)"/>
</clipPath>
<clipPath id="clip1_330_603">
<rect width="27" height="30" fill="white" transform="translate(27.5234 91.5)"/>
</clipPath>
<clipPath id="clip2_330_603">
<rect width="29" height="30" fill="white" transform="translate(79.5234 91.5)"/>
</clipPath>
<clipPath id="clip3_330_603">
<rect width="32" height="30" fill="white" transform="translate(133.523 91.5)"/>
</clipPath>
</defs>
</svg>
