<svg width="978" height="122" viewBox="0 0 978 122" fill="none" xmlns="http://www.w3.org/2000/svg">
<g clip-path="url(#clip0_416_798)">
<path d="M111 104.325V59.1217C111 58.9985 111.062 58.9369 111.062 58.8137C111.062 58.629 111.062 58.4442 111 58.321V31.9626C111 31.7779 111.062 31.5931 111.062 31.4084C111.062 20.0767 93.5616 0 55.5309 0C17.1292 0 0 20.0767 0 31.4084V42.3705V58.0131V105.803H0.123677C0.618384 108.759 3.40111 112.454 8.41003 115.226C17.6858 120.46 33.5783 121.938 55.5309 121.938C77.4836 121.938 93.376 120.46 102.652 115.226C107.661 112.454 110.382 108.698 110.938 105.803H111V105.434C111 105.249 111.062 105.003 111.062 104.818C111 104.695 111 104.51 111 104.325Z" fill="white"/>
<path d="M103.023 66.4503C101.044 64.9722 98.0139 63.9253 93.8089 63.9253C86.2028 63.9253 78.844 68.6673 78.844 79.7527C78.844 90.3453 86.2028 95.3337 93.4997 95.3337C101.168 95.3337 105.991 90.6532 105.991 83.7557C105.991 79.3831 103.27 76.4271 97.7666 76.4271H96.1588C93.3142 76.4271 91.088 77.7819 91.088 80.6764C91.088 83.3246 93.4997 84.6179 95.293 84.6179C96.1588 84.6179 96.7771 84.8642 96.7771 85.5416C96.7771 86.4038 95.7259 86.9581 94.6128 86.9581C90.9643 86.9581 88.429 84.4331 88.429 79.8142C88.429 74.6411 91.8301 72.7935 94.4891 72.7935C97.7047 72.7935 98.2613 74.3948 100.487 74.3948C103.085 74.3948 104.878 72.3009 104.878 70.1454C104.878 68.4826 104.136 67.2509 103.023 66.4503Z" fill="#E42313"/>
<path d="M59.674 82.7088V89.7295C59.674 92.8703 57.8807 95.3953 54.4796 95.3953C51.0785 95.3953 49.2852 92.8703 49.2852 89.7295V69.7143C49.2852 66.5119 51.2022 63.9254 54.6033 63.9254C56.6439 63.9254 58.4373 64.726 60.1687 68.0516L64.6829 76.7966C64.9303 77.2277 65.1158 77.4125 65.3632 77.4125C65.7342 77.4125 65.9197 77.1661 65.9197 76.5503V69.5296C65.9197 66.3888 67.713 63.8638 71.1141 63.8638C74.4534 63.8638 76.3086 66.3888 76.3086 69.5296V89.5447C76.3086 92.7472 74.3916 95.3337 70.9905 95.3337C69.0116 95.3337 67.1565 94.5331 65.425 91.2075L60.9108 82.4625C60.6634 82.0314 60.4779 81.8466 60.2306 81.8466C59.8595 81.8466 59.674 82.0929 59.674 82.7088Z" fill="#E42313"/>
<path d="M15.3359 89.6063V84.9874C15.3359 84.6179 15.5214 84.31 15.8925 84.31C16.3872 84.31 16.5727 84.8027 16.6964 85.1106C17.4384 86.8966 19.6028 90.7149 21.6434 92.9319C23.0039 94.41 24.6735 95.3337 26.4668 95.3337C29.4969 95.3337 32.0323 92.6856 32.0323 89.9143C32.0323 88.1899 31.2902 86.8966 29.868 85.2954C28.0746 83.3247 25.9103 80.7381 25.1064 79.5064C24.7972 79.0753 24.7972 78.7674 24.7972 78.6442C24.7972 78.2747 24.9827 78.0283 25.3537 77.6588C26.2813 76.7966 28.5075 74.7027 29.7443 72.7936C30.6719 71.3156 31.1047 70.0223 31.1047 68.9137C31.1047 66.0808 28.5075 63.8638 25.7248 63.8638C23.9315 63.8638 22.2618 64.8491 21.0869 66.6967C19.5409 69.1601 17.7476 71.993 16.5727 73.1631C16.2635 73.471 16.1398 73.5326 15.8925 73.5326C15.5214 73.5326 15.3359 73.2863 15.3359 72.8552V69.5912C15.3359 66.3888 13.4189 63.8638 10.0178 63.8638C6.55486 63.8638 4.69971 66.4503 4.69971 69.5912V89.5447C4.69971 92.7472 6.55486 95.2722 10.0178 95.2722C13.4189 95.3337 15.3359 92.7472 15.3359 89.6063Z" fill="#E42313"/>
<path d="M103.27 98.5977C105.187 98.5977 105.991 99.5214 105.991 101.123C105.991 103.894 103.394 107.774 98.323 110.668C89.8511 115.41 75.3809 116.765 55.2834 116.765C35.186 116.765 20.7158 115.41 12.2439 110.668C7.17314 107.835 4.57593 103.956 4.57593 101.123C4.57593 99.5214 5.44167 98.5977 7.29682 98.5977H103.27Z" fill="#F07E26"/>
<path d="M103.27 36.7663H7.35883C5.44184 36.7663 4.63794 35.7809 4.63794 34.0565C4.63794 23.7103 20.2831 5.35791 55.3454 5.35791C90.0368 5.35791 106.053 23.6487 106.053 34.0565C106.053 35.7809 105.187 36.7663 103.27 36.7663Z" fill="#F07E26"/>
<path d="M97.0864 49.6377C96.5298 49.6377 96.2825 49.3297 96.2825 48.8986V46.6816C96.2825 46.2505 96.5298 45.9426 97.0864 45.9426H97.5193C98.8797 45.9426 99.3126 46.9279 99.3126 47.7285C99.3126 48.5291 98.8797 49.6377 97.5193 49.6377H97.0864ZM71.98 42.1243C70.6195 41.1389 68.7026 40.3999 65.858 40.3999C60.7872 40.3999 55.902 43.7255 55.902 51.362C55.902 58.6907 60.7872 62.0778 65.6725 62.0778C70.8051 62.0778 74.0207 58.8138 74.0207 54.1334C74.0207 51.1157 72.2273 49.0218 68.5789 49.0218H67.5276C65.6106 49.0218 64.1265 49.9456 64.1265 51.9779C64.1265 53.7639 65.7343 54.6876 66.9092 54.6876C67.5276 54.6876 67.8987 54.8724 67.8987 55.3651C67.8987 55.9193 67.2184 56.3504 66.4145 56.3504C64.0028 56.3504 62.3332 54.626 62.3332 51.4236C62.3332 47.8517 64.6212 46.5584 66.3527 46.5584C68.517 46.5584 68.8881 47.6669 70.3722 47.6669C72.1037 47.6669 73.2786 46.2505 73.2786 44.7724C73.2168 43.5407 72.7221 42.6786 71.98 42.1243ZM84.7805 53.7639H82.5544C81.9978 53.7639 81.7505 54.0718 81.7505 54.5029V55.1187C81.7505 55.5498 81.9978 55.8577 82.5544 55.8577H85.4608C87.2541 55.8577 88.7382 56.9047 88.7382 58.8138C88.7382 60.7846 87.3159 61.8315 85.4608 61.8315H79.3388C76.7416 61.8315 75.5048 60.3535 75.5048 58.3211V44.0334C75.5048 42.0011 76.7416 40.5231 79.3388 40.5231H85.4608C87.2541 40.5231 88.7382 41.57 88.7382 43.4792C88.7382 45.4499 87.3159 46.4968 85.4608 46.4968H82.5544C81.9978 46.4968 81.7505 46.8047 81.7505 47.2358V47.7285C81.7505 48.1596 81.9978 48.4675 82.5544 48.4675H84.7805C86.3265 48.4675 87.5633 49.3913 87.5633 51.0541C87.5633 52.7169 86.3265 53.7639 84.7805 53.7639ZM90.1605 58.5059C90.1605 60.4766 91.2736 62.0163 93.3761 62.0163C95.4786 62.0163 96.5917 60.4766 96.5917 58.5059V55.0571C96.5917 54.626 96.7772 54.4413 97.0864 54.4413C97.4574 54.4413 97.5811 54.6876 97.6429 55.0571C97.9521 56.7199 98.6942 58.937 99.6218 60.1071C100.735 61.5852 101.786 62.0163 102.837 62.0163C104.507 62.0163 105.991 60.6614 105.991 59.0602C105.991 57.9516 105.558 57.151 104.94 56.412C103.827 54.9956 103.147 54.1334 102.714 52.9633C102.59 52.7169 102.652 52.4706 102.961 52.2242C103.95 51.4236 105.125 49.6992 105.125 46.9895C105.125 42.8633 101.724 40.5231 97.5811 40.5231H93.9945C91.3973 40.5231 90.1605 42.0011 90.1605 44.0334V58.5059ZM39.7003 58.5059C39.7003 60.4766 40.8134 62.0163 42.9159 62.0163C45.0184 62.0163 46.1315 60.4766 46.1315 58.5059V55.0571C46.1315 54.626 46.317 54.4413 46.6262 54.4413C46.9973 54.4413 47.1209 54.6876 47.1828 55.0571C47.492 56.7199 48.234 58.937 49.1616 60.1071C50.2747 61.5852 51.326 62.0163 52.3772 62.0163C54.0468 62.0163 55.531 60.6614 55.531 59.0602C55.531 57.9516 55.0981 57.151 54.4797 56.412C53.5521 55.1803 52.6864 54.1334 52.2535 52.9633C52.1299 52.7169 52.1917 52.4706 52.5009 52.2242C53.4903 51.4236 54.6652 49.6992 54.6652 46.9895C54.6652 42.8633 51.2641 40.5231 47.1209 40.5231H43.4725C40.8753 40.5231 39.6385 42.0011 39.6385 44.0334V58.5059H39.7003ZM46.6262 49.6377C46.0697 49.6377 45.8223 49.3297 45.8223 48.8986V46.6816C45.8223 46.2505 46.0697 45.9426 46.6262 45.9426H47.0591C48.4195 45.9426 48.8524 46.9279 48.8524 47.7285C48.8524 48.5291 48.4195 49.6377 47.0591 49.6377H46.6262ZM11.1928 52.9633H11.7494C13.2953 52.9633 13.79 54.0102 13.79 54.934C13.79 55.7962 13.3572 56.9663 11.7494 56.9663H11.1928C10.6363 56.9663 10.3889 56.6584 10.3889 56.2273V53.7023C10.3889 53.2712 10.6363 52.9633 11.1928 52.9633ZM11.1928 49.0834C10.6363 49.0834 10.3889 48.7755 10.3889 48.3444V46.1273C10.3889 45.6962 10.6363 45.3883 11.1928 45.3883H11.6257C13.048 45.3883 13.419 46.3737 13.419 47.1743C13.419 47.9749 12.9861 49.0834 11.6257 49.0834H11.1928ZM8.47192 61.8315H13.048C17.3767 61.8315 20.0357 58.937 20.0357 55.3651C20.0357 52.4706 18.3042 51.1773 17.9332 50.8078C17.7477 50.6846 17.624 50.5614 17.624 50.4383C17.624 50.2535 17.7477 50.1919 17.8714 50.0072C18.4897 49.2681 19.1081 48.1596 19.1081 46.4968C19.1081 42.617 16.4491 40.5231 12.3677 40.5231H8.47192C5.87471 40.5231 4.63794 42.0011 4.63794 44.0334V58.3211C4.63794 60.3535 5.87471 61.8315 8.47192 61.8315ZM29.5588 62.0163C24.3026 62.0163 21.5198 58.8754 21.5198 54.934V43.9718C21.5198 42.0011 22.6329 40.4615 24.7354 40.4615C26.8379 40.4615 28.0129 42.0011 28.0129 43.9718V54.5645C28.0129 55.3651 28.3839 56.2273 29.5588 56.2273C30.7338 56.2273 31.1666 55.3035 31.1666 54.5645V43.9718C31.1666 42.0011 32.2797 40.4615 34.3822 40.4615C36.4847 40.4615 37.5978 42.0011 37.5978 43.9718V54.8724C37.6597 58.8754 34.8151 62.0163 29.5588 62.0163Z" fill="#E42313"/>
<path d="M45.5131 70.0222C45.5131 66.635 43.5343 63.9253 39.8858 63.9253C36.2374 63.9253 34.2585 66.635 34.2585 70.0222V89.2367C34.2585 92.6239 36.2374 95.3337 39.8858 95.3337C43.5343 95.3337 45.5131 92.6239 45.5131 89.2367V70.0222Z" fill="#E42313"/>
<path d="M105.249 95.4569C105.249 96.3807 104.569 97.0581 103.641 97.0581C102.714 97.0581 102.033 96.3807 102.033 95.4569C102.033 94.5332 102.714 93.8557 103.641 93.8557C104.569 93.8557 105.249 94.5332 105.249 95.4569ZM104.878 95.4569C104.878 94.7795 104.383 94.2252 103.703 94.2252C103.023 94.2252 102.528 94.7795 102.528 95.4569C102.528 96.1344 103.023 96.6886 103.703 96.6886C104.321 96.6886 104.878 96.1344 104.878 95.4569ZM104.26 96.1344C104.321 96.196 104.26 96.2575 104.198 96.2575H104.074C104.012 96.2575 103.95 96.2575 103.889 96.1959C103.827 96.0112 103.703 95.8264 103.641 95.6417H103.456V96.1959C103.456 96.2575 103.394 96.3191 103.332 96.3191H103.208C103.147 96.3191 103.085 96.2575 103.085 96.1959V94.7795C103.085 94.7179 103.147 94.6563 103.208 94.6563H103.703C104.012 94.6563 104.26 94.8411 104.26 95.149C104.26 95.3953 104.136 95.5185 104.012 95.5801C104.012 95.7649 104.136 95.9496 104.26 96.1344ZM103.456 95.3338H103.703C103.827 95.3338 103.95 95.2722 103.95 95.149C103.95 95.0258 103.889 94.9642 103.703 94.9642H103.456V95.3338Z" fill="#E42313"/>
</g>
<g clip-path="url(#clip1_416_798)">
<path d="M279.679 2.89995e-05H227.093H218.907H166.321C166.321 2.89995e-05 161.545 -0.50972 162.057 6.11702L170.755 117.526C170.755 117.526 170.698 121.943 176.326 121.943H219.93H226.184H269.788C275.359 121.943 275.359 117.526 275.359 117.526L284.057 6.11702C284.455 -0.453082 279.679 2.89995e-05 279.679 2.89995e-05Z" fill="white"/>
<path d="M192.415 86.4309H171.665L165.354 6.74013C165.013 3.51172 167.628 3.45508 167.628 3.45508H192.472" fill="#E12F2E"/>
<path d="M253.813 86.4309H274.563L280.873 6.74013C281.214 3.51172 278.599 3.45508 278.599 3.45508H253.756" fill="#E12F2E"/>
<path fill-rule="evenodd" clip-rule="evenodd" d="M227.321 89.8859C227.15 89.8859 226.923 89.8859 226.752 89.8859C226.752 89.8859 226.752 89.8859 226.695 89.8859C225.558 89.6593 224.478 89.3195 223.398 88.9797C223.284 88.923 223.171 88.8664 223.057 88.8098C222.886 88.6965 222.829 88.5266 222.886 88.3566C222.886 88.2434 222.943 88.1301 223 88.0735C223.057 87.9035 223.171 87.7336 223.171 87.5071C223.227 87.2805 223.227 87.054 223.227 86.8274C223.227 86.0345 223.284 85.2415 223.284 84.4486C223.341 82.806 223.341 81.1069 223.398 79.4644C223.398 79.2944 223.341 79.1245 223.284 78.9546C223.171 79.0679 223.057 79.1812 223 79.3511C222.488 80.5971 221.806 81.6733 221.01 82.7494C220.157 83.8822 219.248 84.9017 218.225 85.9212C218.168 85.9778 218.111 86.0345 218.054 86.0911C217.713 86.3743 217.315 86.4876 216.86 86.3176C216.292 86.1477 215.723 85.9212 215.098 85.7513C214.586 85.5813 214.188 85.4114 213.79 85.0716C213.733 85.0716 213.733 85.015 213.677 85.015C217.144 81.8432 220.044 78.2749 222.034 74.0837C222.034 74.027 221.977 74.027 221.977 74.027C221.92 73.9137 221.863 73.8571 221.692 73.9138C221.408 73.9704 221.181 73.9704 220.897 73.9704C220.499 74.027 220.044 74.027 219.589 74.027C218.736 74.0837 217.827 74.1403 216.974 74.1969C216.462 74.2536 215.951 74.2536 215.382 74.3102C214.927 74.3102 214.529 74.2536 214.131 74.027C213.904 73.9137 213.733 73.6872 213.62 73.4606C213.563 73.2341 213.563 73.0642 213.563 72.8376C213.563 72.2146 213.62 71.5349 213.62 70.9119C213.62 70.5154 213.62 70.1756 213.62 69.7791C213.62 69.2694 213.904 68.9295 214.416 68.8729C214.814 68.8163 215.212 68.7596 215.61 68.703C216.178 68.6463 216.747 68.5897 217.315 68.4764C217.315 68.4764 217.372 68.4764 217.372 68.4198C217.088 68.1932 216.86 67.91 216.519 67.7401C215.496 67.1171 214.472 66.4941 213.563 65.7578C212.312 64.7949 211.175 63.7754 210.209 62.4727C208.503 60.2072 207.594 57.7151 207.707 54.8831C207.707 54.43 207.651 54.0335 207.423 53.6937C206.968 52.7308 206.57 51.768 206.229 50.7485C205.945 49.8423 205.774 48.8794 205.718 47.9165C205.661 47.4068 205.718 46.8404 205.718 46.3307C205.718 46.1607 205.661 45.9908 205.604 45.8209C205.49 45.651 205.377 45.5377 205.263 45.3678C204.467 44.5182 203.728 43.612 202.989 42.7058C201.681 40.8933 200.601 38.911 199.976 36.7021C199.692 35.7958 199.521 34.8896 199.407 33.9268C199.294 32.9639 199.35 31.9444 199.407 30.9815C199.464 30.0187 199.578 29.1125 199.692 28.2062C199.748 27.2434 199.862 26.2239 199.919 25.261C199.976 24.6946 199.976 24.1282 199.976 23.5619C199.976 22.8822 199.919 22.2592 199.692 21.5795C199.464 20.8998 199.123 20.2768 198.668 19.7104C198.498 19.5405 198.384 19.3706 198.327 19.0874C198.327 19.0308 198.27 19.0307 198.27 19.0307C198.27 18.9741 198.27 18.8608 198.27 18.8042C198.27 18.7476 198.327 18.6909 198.327 18.6909C198.384 18.5776 198.384 18.4644 198.441 18.3511C198.725 17.8413 199.066 17.5015 199.578 17.2749C199.976 17.105 200.431 16.9918 200.829 16.8785C201.966 16.6519 203.103 16.3121 204.183 15.9156C204.41 15.8023 204.637 15.6891 204.865 15.5191C205.206 15.2359 205.49 14.9528 205.774 14.6696C205.831 14.6129 205.831 14.6129 205.888 14.5563C205.774 14.443 205.661 14.3864 205.547 14.3297C205.149 14.1032 204.751 13.8766 204.353 13.6501C203.955 13.4235 203.557 13.1403 203.216 12.8005C202.818 12.404 202.534 12.0075 202.363 11.4412C202.363 11.3845 202.363 11.3845 202.307 11.3279C202.648 11.2712 202.932 11.2712 203.216 11.2146C204.069 11.158 204.922 10.9314 205.718 10.5916C207.253 9.96854 208.333 8.94904 208.788 7.36316C208.844 7.19324 208.958 7.02332 209.129 6.91005C209.299 6.79677 209.413 6.68349 209.583 6.62685C209.868 6.51357 210.152 6.4003 210.436 6.23038C213.108 5.0976 215.894 4.24802 218.793 3.79491C219.646 3.68163 220.555 3.56836 221.408 3.56836C221.579 3.56836 221.806 3.51172 221.977 3.45508C222.204 3.45508 222.431 3.45508 222.659 3.45508C222.716 3.45508 222.716 3.51172 222.773 3.51172C223.568 3.62499 224.364 3.73827 225.16 3.85155C225.786 3.96483 226.468 4.02147 227.093 4.19138C228.571 4.53122 229.993 4.98433 231.357 5.55071C233.062 6.28702 234.711 7.1366 236.246 8.21274C238.122 9.51543 239.771 11.1013 241.135 12.9138C242.5 14.6696 243.523 16.6519 244.262 18.7476C244.83 20.2768 245.171 21.8061 245.399 23.3919C245.513 24.2415 245.569 25.0345 245.626 25.884C245.683 26.7903 245.626 27.6965 245.569 28.6027C245.513 29.4523 245.399 30.3019 245.228 31.1515C245.171 31.378 245.171 31.6046 245.115 31.7745C245.342 31.8878 245.513 32.001 245.683 32.1143C246.308 32.5108 246.706 33.1338 246.877 33.8135C246.877 33.9268 246.934 34.04 246.934 34.0967C246.934 34.3799 246.934 34.7197 246.934 35.0029C246.934 35.0029 246.934 35.0595 246.877 35.0595C246.82 35.3427 246.82 35.6259 246.706 35.9091C246.252 37.9481 245.626 39.9871 244.774 41.9128C244.034 43.6686 243.182 45.3112 242.386 47.0103C242.272 47.2369 242.158 47.4634 241.988 47.6333C241.647 48.0865 241.249 48.313 240.737 48.4263C240.567 48.4829 240.339 48.4829 240.169 48.4829C239.884 48.4829 239.714 48.6528 239.657 48.8794C239.657 48.9927 239.6 49.106 239.6 49.2192C239.6 49.3892 239.6 49.6157 239.657 49.7856C239.657 50.4653 239.657 51.2016 239.657 51.8813C239.6 52.6176 239.543 53.3539 239.373 54.0335C239.145 55.2796 238.804 56.5256 238.406 57.7717C237.781 59.6408 236.815 61.2833 235.507 62.7559C234.256 64.1719 232.835 65.3613 231.243 66.4374C230.618 66.8339 229.993 67.2304 229.367 67.5702C229.026 67.7968 228.685 68.0233 228.344 68.1932C228.344 68.1932 228.287 68.1932 228.287 68.2499C228.344 68.3065 228.344 68.3632 228.344 68.4198C228.401 68.4198 228.458 68.4198 228.514 68.4198C228.912 68.3632 229.31 68.3065 229.765 68.3065C229.993 68.3065 230.163 68.3065 230.39 68.3065C230.959 68.3065 231.471 68.3065 232.039 68.3632C232.608 68.3632 232.949 68.6463 233.006 69.2127C233.006 69.326 233.006 69.4959 233.006 69.6658C233.006 70.5721 233.006 71.4783 232.949 72.3279C232.949 72.3845 232.949 72.4411 232.949 72.4978C232.949 72.7243 232.892 73.0075 232.835 73.2341C232.721 73.5173 232.551 73.6872 232.21 73.8005C231.925 73.9138 231.641 73.9138 231.357 73.9138C230.618 73.8571 229.936 73.8571 229.197 73.8005C228.116 73.7438 227.036 73.7438 225.956 73.6872C225.786 73.6872 225.615 73.6872 225.501 73.7438C225.558 73.9704 225.615 74.1403 225.672 74.3102C226.013 75.4996 226.297 76.7457 226.468 77.9351C226.638 79.0679 226.809 80.2573 226.923 81.4467C227.036 82.4662 227.093 83.4857 227.15 84.5052C227.207 85.2981 227.207 86.1477 227.207 86.9407C227.207 87.677 227.207 88.4133 227.15 89.1496C227.605 89.4894 227.548 89.716 227.321 89.8859ZM208.844 12.6872C209.185 12.6306 209.527 12.6306 209.868 12.5739C210.607 12.4606 211.289 12.2907 212.028 12.1775C213.165 12.0075 214.302 11.9509 215.439 12.0075C216.519 12.0642 217.599 12.1775 218.623 12.4606C220.499 12.9704 222.147 13.82 223.682 15.066C223.91 15.236 224.137 15.4059 224.308 15.6324C224.592 15.9156 224.649 16.2554 224.364 16.5953C224.308 16.6519 224.251 16.7652 224.137 16.8218C223.853 17.0484 223.512 17.2183 223.171 17.3316C222.716 17.4449 222.318 17.4449 221.92 17.2183C220.953 16.7652 219.93 16.5386 218.907 16.4254C218.281 16.3687 217.599 16.3687 216.974 16.3687C216.519 16.4254 216.064 16.4254 215.61 16.5386C214.643 16.7652 213.79 17.2183 213.108 17.9546C212.369 18.7476 211.744 19.5971 211.232 20.56C210.322 22.2025 209.754 23.9583 209.413 25.8274C209.356 26.2239 209.299 26.6204 209.185 27.0168C209.072 27.6965 208.731 28.2062 208.048 28.5461C207.878 28.6027 207.764 28.7726 207.707 28.9425C207.537 29.339 207.48 29.7355 207.537 30.1886C207.537 30.3019 207.594 30.4718 207.651 30.5851C207.764 30.8116 207.935 30.9249 208.162 30.8683C208.276 30.8683 208.333 30.8683 208.446 30.8683C208.617 30.8683 208.788 30.8116 208.958 30.8116C210.095 30.8116 211.175 30.8683 212.312 30.8683C213.392 30.8683 214.416 30.9249 215.496 30.9249C216.121 30.9249 216.69 31.0382 217.315 31.2081C218.509 31.4913 219.589 32.0577 220.499 32.9073C220.897 33.3037 221.408 33.417 221.92 33.3037C222.318 33.2471 222.716 33.1905 223.114 33.1905C223.227 33.1905 223.398 33.1905 223.512 33.1905C223.91 33.1905 224.308 33.1338 224.762 33.1338C225.047 33.1338 225.331 33.0205 225.558 32.8506C225.956 32.5674 226.354 32.3409 226.752 32.1143C227.548 31.7745 228.458 31.5479 229.31 31.5479C229.879 31.4913 230.447 31.4913 231.016 31.4913C232.494 31.4913 233.972 31.4346 235.45 31.4913C236.075 31.5479 236.758 31.5479 237.383 31.6046C238.349 31.6612 239.259 31.8311 240.169 32.0577C240.282 32.0577 240.339 32.0577 240.453 32.0577C240.623 32.0577 240.737 31.9444 240.794 31.7745C240.794 31.6612 240.851 31.5479 240.794 31.4913C240.794 31.2081 240.737 30.9815 240.737 30.6983C240.623 29.7355 240.282 28.8859 239.828 28.0363C239.202 27.0168 238.918 25.884 238.918 24.6946C238.918 23.9017 238.918 23.1087 238.861 22.3158C238.861 22.0892 238.918 21.8627 238.918 21.6361C239.032 21.6361 239.089 21.6361 239.145 21.6361C239.202 21.6928 239.202 21.7494 239.259 21.8061C239.828 22.8822 240.339 23.9583 240.794 25.0345C241.363 26.3938 241.931 27.8098 242.5 29.1691C242.5 29.2257 242.556 29.2824 242.613 29.3957C242.67 29.2257 242.784 29.1125 242.841 28.9992C243.011 28.6593 243.125 28.3195 243.125 27.9797C243.125 27.7531 243.125 27.4699 243.125 27.2434C243.125 26.2805 243.182 25.261 243.182 24.2982C243.125 22.9388 242.954 21.6361 242.67 20.3334C242.386 18.9741 241.931 17.6714 241.306 16.3687C240.169 13.9899 238.52 12.0075 236.417 10.365C234.995 9.23224 233.46 8.32602 231.812 7.53307C229.083 6.23038 226.184 5.60735 223.114 5.55071C222.204 5.55071 221.294 5.60735 220.385 5.72063C219.305 5.83391 218.225 6.06046 217.201 6.34366C216.235 6.62685 215.325 6.91005 214.359 7.19324C213.904 7.30652 213.563 7.64635 213.165 7.92954C213.222 8.04282 213.222 8.09946 213.279 8.1561C213.506 8.1561 213.733 8.1561 213.904 8.1561C214.359 8.1561 214.7 8.26938 215.098 8.49593C215.041 8.60921 214.927 8.66585 214.87 8.77913C214.757 8.94904 214.586 9.00568 214.416 9.06232C214.075 9.1756 213.79 9.28888 213.449 9.40215C212.085 9.96854 210.834 10.7048 209.64 11.6111C209.299 11.8376 209.072 12.1208 208.731 12.404C208.788 12.5173 208.788 12.5739 208.844 12.6872ZM240.396 46.897C240.567 46.6139 240.794 46.3307 240.908 46.0475C241.476 44.7448 242.045 43.4421 242.556 42.0827C242.954 41.0632 243.409 40.0438 243.693 38.9676C243.864 38.3446 244.034 37.7782 244.034 37.1552C244.034 36.5888 243.978 35.9658 243.978 35.3994C243.978 35.3427 243.921 35.2294 243.921 35.1728C243.75 34.8896 243.58 34.7197 243.295 34.6064C243.239 34.5498 243.125 34.5498 243.011 34.5498C242.727 34.6064 242.5 34.7197 242.272 34.9463C242.102 35.1162 242.045 35.2861 242.045 35.5126C242.102 35.7392 242.158 35.9091 242.215 36.1357C242.272 36.3056 242.329 36.4189 242.386 36.5888C242.5 37.0419 242.386 37.3817 242.045 37.7216C241.817 37.8915 241.59 38.0048 241.306 38.118C241.306 38.118 241.306 38.0614 241.249 38.0614C241.249 37.8348 241.192 37.6649 241.192 37.4384C241.135 36.9286 241.135 36.4189 241.135 35.9091C241.078 35.456 241.078 34.9463 241.021 34.4931C241.021 34.2666 240.851 34.04 240.68 33.8701C240.567 33.7568 240.396 33.7002 240.226 33.7568C240.055 33.8135 239.884 33.8135 239.771 33.8701C239.145 34.1533 238.691 34.6064 238.349 35.1728C238.293 35.2861 238.236 35.456 238.179 35.5693C238.122 35.7958 238.065 35.9658 238.008 36.1923C237.781 37.0419 237.61 37.8915 237.269 38.7411C236.985 39.4774 236.644 40.1004 236.075 40.6668C235.45 41.2332 234.711 41.573 233.858 41.6296C233.46 41.6863 233.233 41.5164 233.119 41.1765V41.1199C233.062 41.0066 233.062 40.95 233.176 40.8933C233.233 40.8367 233.29 40.8367 233.347 40.8367C233.46 40.7801 233.574 40.7801 233.631 40.7801C234.256 40.6101 234.768 40.3269 235.223 39.8738C235.678 39.4207 235.962 38.8543 236.132 38.2313C236.132 38.1747 236.132 38.1747 236.132 38.118C236.132 37.9481 236.075 37.8348 235.962 37.7216C235.791 37.6083 235.564 37.5516 235.336 37.495C235.109 37.4384 234.882 37.3817 234.654 37.3251C234.541 37.2684 234.427 37.2118 234.37 37.0985C234.313 36.9853 234.256 36.872 234.143 36.8153C233.858 36.4755 233.517 36.3056 233.062 36.3622C232.949 36.3622 232.835 36.3622 232.721 36.4189C232.153 36.5321 231.641 36.6454 231.073 36.7021C230.561 36.7587 229.993 36.7587 229.481 36.6454C228.685 36.5321 227.946 36.2489 227.264 35.8525C227.036 35.7392 226.809 35.6826 226.525 35.6259C226.582 35.9091 226.638 36.1357 226.809 36.4189C226.979 36.7021 226.923 36.9286 226.695 37.1552C226.582 37.2684 226.411 37.3817 226.24 37.495C226.184 37.5516 226.07 37.5516 225.956 37.6083C225.786 37.6649 225.672 37.6083 225.558 37.495C225.501 37.4384 225.445 37.3251 225.388 37.2118C225.103 36.7021 224.876 36.1357 224.649 35.5693C224.592 35.3994 224.535 35.2295 224.421 35.1162C224.137 34.7197 223.796 34.4365 223.284 34.4365C223.114 34.4365 222.943 34.4365 222.829 34.4931C222.204 34.6064 221.692 34.8896 221.408 35.5126C221.294 35.7958 221.238 36.079 221.181 36.3622C221.124 36.8153 221.124 37.3251 221.124 37.7782C221.067 38.4579 221.01 39.0809 220.84 39.7039C220.726 40.2703 220.555 40.8367 220.328 41.4031C220.101 41.9695 220.157 42.4792 220.442 42.989C220.555 43.2155 220.726 43.4421 220.897 43.6686C221.92 44.9147 223.227 45.4811 224.876 45.3112C225.899 45.1979 226.809 44.7448 227.662 44.1784C228.003 43.9518 228.116 43.6686 228.06 43.2722C228.003 43.0456 227.946 42.819 227.946 42.5925C227.946 42.4792 227.889 42.4226 227.889 42.3093C227.889 42.0827 228.003 41.9128 228.23 41.9695C228.344 41.9695 228.401 41.9695 228.514 42.0261C228.685 42.0827 228.912 42.1394 229.083 42.2527C229.424 42.4226 229.765 42.5925 230.049 42.8757C230.39 43.2722 230.788 43.6686 231.13 44.0651C231.527 44.5182 231.869 45.028 232.267 45.4811C232.778 46.1041 233.347 46.6138 234.086 46.9537C234.256 47.0103 234.37 47.1236 234.484 47.2369C234.654 47.3502 234.711 47.5201 234.768 47.69C234.882 48.313 234.995 48.9927 234.995 49.6157C234.995 50.1255 234.938 50.5786 234.825 51.0317C234.654 51.6547 234.37 52.1645 233.972 52.6742C233.46 53.3539 233.062 54.0902 232.949 54.9398C232.835 55.4495 232.664 55.9593 232.437 56.469C232.38 56.5256 232.38 56.5823 232.323 56.6389C232.21 56.6956 232.039 56.8088 231.925 56.8655C231.698 56.6389 231.698 56.5256 231.641 56.2991C231.584 55.846 231.584 55.3362 231.527 54.8831C231.527 54.7132 231.527 54.5433 231.471 54.3734C231.3 53.4671 230.39 53.014 229.595 53.2972C229.367 53.3539 229.14 53.4671 228.912 53.5238C227.889 53.807 226.923 53.9769 225.842 54.0335C224.933 54.0902 223.966 54.0335 223.057 53.9203C222.716 53.8636 222.375 53.8636 222.09 53.8636C221.408 53.9203 220.84 54.2601 220.385 54.6566C220.328 54.7132 220.328 54.7132 220.271 54.7698C220.555 54.9398 220.84 55.1097 221.124 55.2229C221.977 55.6194 222.375 56.4124 222.204 57.3186C222.147 57.5451 222.09 57.8283 221.92 58.0549C221.465 57.5451 221.067 57.0354 220.669 56.5256C220.555 56.5256 220.442 56.5823 220.328 56.5823C220.328 56.6389 220.385 56.6956 220.385 56.7522C220.442 57.0354 220.499 57.3752 220.555 57.6584C220.612 58.3947 220.555 59.131 220.385 59.8673C220.214 60.4904 220.044 61.17 219.873 61.793C219.816 62.1329 219.703 62.4161 219.703 62.7559C219.703 63.3789 219.816 64.002 220.101 64.625C220.499 65.5878 221.124 66.3808 221.863 67.1171C222.659 67.9667 223.568 68.7596 224.421 69.4959C224.535 69.6092 224.649 69.6658 224.762 69.7225C224.99 69.8358 225.16 69.7791 225.274 69.5526C225.331 69.4393 225.388 69.2694 225.445 69.0995C225.558 68.6463 225.729 68.1932 226.013 67.8534C226.24 67.5136 226.468 67.2304 226.695 66.8905C226.923 66.5507 227.207 66.2109 227.434 65.871C227.832 65.248 228.003 64.5684 227.775 63.7754C227.719 63.5489 227.832 63.3223 227.832 63.0957C227.946 63.1524 228.003 63.209 228.06 63.2657C228.173 63.3789 228.287 63.4356 228.344 63.5489C228.856 64.002 229.31 64.1152 229.936 63.7754C230.106 63.6621 230.277 63.6055 230.447 63.4922C231.641 62.8692 232.778 62.0762 233.801 61.2267C234.882 60.2638 235.848 59.1877 236.53 57.885C237.724 55.7893 238.293 53.4671 238.463 51.0883C238.52 50.4653 238.463 49.8423 238.52 49.2192C238.52 48.9927 238.577 48.7661 238.634 48.5396C238.747 48.1431 238.918 47.7466 239.145 47.4068C239.373 47.0103 239.657 46.6138 239.828 46.2174C239.828 46.2174 239.828 46.2174 239.884 46.2174C239.998 46.3873 240.169 46.5006 240.339 46.6705C240.226 46.8404 240.339 46.8404 240.396 46.897ZM208.617 41.2332C208.617 41.2332 208.617 41.2898 208.617 41.2332C208.617 41.5164 208.674 41.7996 208.731 42.0827C208.731 42.1394 208.788 42.196 208.788 42.196C209.185 42.8757 209.64 43.612 210.038 44.2917C210.266 44.6315 210.493 44.9147 210.72 45.1979C211.118 45.651 211.687 45.8209 212.312 45.651C212.54 45.5943 212.767 45.4811 212.994 45.3678C213.449 45.1412 213.847 44.858 214.302 44.6315C214.7 44.4049 215.041 44.1784 215.439 44.0085C215.609 43.8952 215.78 43.7253 215.894 43.4987C216.064 43.0456 216.235 42.5925 216.462 42.1394V42.0827C216.405 42.0827 216.405 42.0827 216.405 42.0827C216.064 42.1394 215.666 42.196 215.325 42.2527C215.098 42.2527 214.814 42.3093 214.586 42.3093C214.359 42.3093 214.131 42.196 214.018 42.0261C213.904 41.8562 213.79 41.6296 213.677 41.4597C213.79 41.4031 213.904 41.2898 214.018 41.2332C214.245 41.0632 214.529 41.0066 214.87 40.95C215.553 40.95 216.235 40.7801 216.86 40.4402C217.599 40.1004 218.054 39.534 218.338 38.7977C218.395 38.6844 218.395 38.5711 218.395 38.4579C218.395 38.2313 218.338 38.0614 218.225 37.8915C218.168 37.8348 218.168 37.7782 218.111 37.7216C217.883 37.495 217.883 37.2684 218.111 36.9853C218.225 36.8153 218.338 36.6454 218.509 36.5321C218.566 36.4755 218.566 36.3622 218.509 36.3056C218.509 36.2489 218.452 36.249 218.452 36.1923C218.281 36.249 218.111 36.3056 217.997 36.3622C217.258 36.6454 216.462 36.6454 215.723 36.5321C215.325 36.4755 214.927 36.3622 214.473 36.3056C214.018 36.2489 213.563 36.3056 213.108 36.4189C212.483 36.5888 212.028 36.9853 211.63 37.4384C211.516 37.5516 211.459 37.6649 211.346 37.7216C211.118 37.9481 210.834 38.0048 210.55 37.8348C210.379 37.7216 210.209 37.6083 210.095 37.495C210.038 37.4384 209.981 37.3817 209.925 37.3251C209.868 37.2684 209.811 37.2684 209.754 37.2684C209.413 37.2684 209.015 37.3251 208.674 37.4384C208.56 37.495 208.503 37.5516 208.503 37.6083C208.446 37.8348 208.446 38.0614 208.56 38.2879C208.958 39.2508 209.583 40.0437 210.493 40.6101C210.607 40.6668 210.72 40.7801 210.834 40.8367C211.062 40.95 211.118 41.1765 211.062 41.4031C211.005 41.6863 210.891 41.9128 210.55 42.0261C210.493 42.0261 210.436 42.0261 210.322 42.0261C210.209 42.0261 210.095 41.9695 209.981 41.9128C209.811 41.7996 209.583 41.7429 209.413 41.6296C209.129 41.5164 208.844 41.4031 208.617 41.2332ZM213.961 15.1227C213.677 15.0094 213.222 14.8961 212.938 14.8961C212.312 14.8961 211.687 15.0094 211.118 15.2926C209.583 16.0289 208.105 16.8218 206.684 17.6714C206.002 18.0679 205.32 18.4644 204.524 18.7476C203.785 19.0307 203.046 19.2573 202.25 19.2573C202.136 19.2573 202.022 19.2573 201.966 19.2573C201.624 19.3139 201.511 19.4839 201.568 19.8237C201.568 19.8803 201.624 19.9936 201.624 20.0502C201.738 20.3901 201.909 20.6733 202.079 20.9565C202.42 21.5229 202.591 22.1459 202.705 22.7689C202.761 23.3919 202.705 24.015 202.648 24.5814C202.534 25.261 202.477 25.9973 202.363 26.677C202.25 27.5266 202.25 28.3195 202.25 29.1691C202.25 29.962 202.307 30.6983 202.477 31.4913C202.534 31.7178 202.591 31.8878 202.648 32.0577C202.818 32.3409 203.046 32.4541 203.33 32.3409C203.5 32.2842 203.671 32.171 203.785 32.1143C203.955 32.001 204.069 31.8878 204.126 31.7178C204.183 31.5479 204.24 31.3214 204.296 31.0948C204.296 30.6417 204.353 30.1886 204.353 29.7355C204.41 28.9992 204.524 28.2629 204.637 27.5266C204.808 26.3938 205.092 25.261 205.49 24.1282C205.661 23.6185 205.888 23.1654 206.229 22.7123C206.684 22.1459 207.139 21.5795 207.651 21.0131C207.992 20.6166 208.333 20.2202 208.617 19.8237C209.015 19.144 209.47 18.521 209.981 17.9546C210.891 16.8785 212.028 16.0289 213.279 15.4625C213.506 15.4059 213.677 15.236 213.961 15.1227ZM215.553 49.2759C215.78 49.6723 216.007 49.8989 216.349 49.9555C216.519 50.0122 216.69 50.0122 216.86 50.0122C217.486 50.0122 218.168 49.8989 218.793 49.7856C219.589 49.6723 220.385 49.5591 221.181 49.5024C221.863 49.4458 222.545 49.4458 223.284 49.3891C224.364 49.3891 225.445 49.3892 226.525 49.5024C226.979 49.5024 227.434 49.5591 227.889 49.6157C228.401 49.6723 228.912 49.729 229.481 49.729C229.936 49.7856 230.39 49.7856 230.788 49.8423C231.414 49.8989 231.982 49.8989 232.551 49.7856C232.778 49.729 232.892 49.6157 233.006 49.4458C233.062 49.3325 233.062 49.2192 232.949 49.106C232.835 48.9927 232.721 48.8794 232.551 48.8228C232.494 48.7661 232.38 48.7661 232.323 48.7095C231.698 48.4263 231.186 47.9732 230.788 47.4068C230.447 46.9537 230.106 46.5006 229.765 45.9908C229.651 45.8209 229.481 45.651 229.31 45.4811C229.14 45.2545 228.856 45.1412 228.571 45.1979C228.401 45.1979 228.23 45.3112 228.06 45.4244C227.775 45.651 227.491 45.7643 227.15 45.9342C226.695 46.1607 226.24 46.3873 225.786 46.6705C225.558 46.7838 225.388 46.9537 225.217 47.1236C225.047 47.2935 224.933 47.4068 224.762 47.5201C224.421 47.7466 224.08 47.8599 223.682 47.7466C223 47.5767 222.318 47.4634 221.636 47.2369C221.238 47.1236 220.84 46.9537 220.442 46.8404C219.987 46.6705 219.475 46.6138 219.02 46.7838C218.679 46.897 218.395 47.067 218.111 47.2935C217.599 47.7466 217.031 48.1431 216.462 48.5396C216.235 48.7095 216.007 48.8228 215.78 48.9927C215.837 49.0493 215.723 49.1626 215.553 49.2759ZM216.121 55.3362C216.121 55.3362 216.064 55.3362 216.121 55.3362C215.951 55.6194 215.78 55.9026 215.666 56.1858C215.609 56.2991 215.553 56.469 215.439 56.5823C215.212 56.9788 214.984 56.9788 214.757 56.6389C214.586 56.469 214.472 56.2424 214.359 56.0159C214.188 55.7327 214.018 55.3929 213.961 55.053C213.62 53.1839 213.279 51.3149 212.881 49.4458C212.824 49.2192 212.767 48.936 212.71 48.7095C212.596 48.3697 212.369 48.2564 212.028 48.3697C211.516 48.4829 211.062 48.7661 210.664 49.1626C210.152 49.7856 209.925 50.4653 210.095 51.2582C210.152 51.7113 210.266 52.2211 210.436 52.6742C210.834 54.1468 211.403 55.5061 212.312 56.7522C212.938 57.6584 213.733 58.4514 214.643 59.131C215.268 59.5841 216.007 59.8673 216.803 59.9806C216.917 59.9806 217.031 59.9806 217.201 59.9806C217.486 59.924 217.656 59.7541 217.656 59.4709C217.656 59.3009 217.599 59.1877 217.599 59.0177C217.486 58.6213 217.372 58.1682 217.258 57.7717C217.031 57.0354 216.803 56.3557 216.633 55.6194C216.405 55.3929 216.349 55.2796 216.121 55.3362ZM227.946 51.8246C225.501 51.5414 223.114 51.4282 220.726 51.8246C220.783 51.9945 220.84 52.1078 220.953 52.2211C221.294 52.6176 221.749 52.7875 222.261 52.7875C222.659 52.7875 223.114 52.7875 223.512 52.7308C224.023 52.7308 224.478 52.6742 224.99 52.6176C225.331 52.5609 225.729 52.5609 226.07 52.5043C226.582 52.391 227.036 52.2777 227.548 52.1645C227.662 52.1078 227.832 52.1078 227.946 52.0512C227.946 51.9945 227.946 51.9379 227.946 51.8246ZM210.55 35.3994C210.664 35.3994 210.834 35.3427 210.948 35.3994C211.403 35.3994 211.801 35.2861 212.255 35.1162C212.824 34.833 213.392 34.6064 214.018 34.4365C214.757 34.2666 215.439 34.21 216.178 34.3799C216.235 34.3799 216.235 34.3799 216.292 34.3799V34.3232C216.064 33.3604 215.212 32.794 214.188 33.1905C214.018 33.2471 213.79 33.3604 213.62 33.417C212.653 33.8701 211.687 34.3799 210.72 34.833C210.55 35.0029 210.493 35.1162 210.55 35.3994ZM229.538 34.7763C229.879 34.7763 230.163 34.7197 230.447 34.6631C230.845 34.5498 231.3 34.5498 231.698 34.6064C232.21 34.6631 232.608 34.8896 233.006 35.2295C233.347 35.5126 233.745 35.7392 234.143 35.9091C234.427 36.0224 234.711 36.0224 234.995 35.9658C234.938 35.9091 234.938 35.8525 234.882 35.7958C234.711 35.6259 234.597 35.5126 234.427 35.3427C234.086 35.0595 233.745 34.7197 233.347 34.4365C233.119 34.2666 232.949 34.0967 232.721 33.9268C231.869 33.3604 230.845 33.3604 230.049 33.9834C229.879 34.21 229.708 34.4365 229.538 34.7763ZM203.898 34.1533C203.557 34.1533 203.33 34.2666 203.159 34.4365C202.989 34.6064 202.932 34.7763 203.046 35.0029C203.387 35.9658 203.785 36.9286 204.126 37.8915C204.183 38.0614 204.353 38.118 204.524 38.1747C204.581 38.1747 204.637 38.1747 204.637 38.118C204.694 38.0614 204.751 37.9481 204.751 37.8348C204.637 36.8153 204.524 35.8525 204.353 34.833C204.353 34.6631 204.24 34.4931 204.183 34.3232C204.126 34.2099 204.012 34.1533 203.898 34.1533ZM211.459 33.0772C211.403 33.0772 211.403 33.0205 211.403 33.0205C211.346 33.0205 211.232 32.9639 211.175 32.9639C210.493 32.794 209.811 32.8506 209.185 33.0205C208.958 33.0772 208.731 33.1905 208.56 33.3604C208.333 33.5869 208.162 33.8135 208.048 34.04C207.992 34.0967 207.992 34.21 207.992 34.2666C207.935 34.6064 208.219 34.8896 208.503 34.833C208.56 34.833 208.674 34.7763 208.731 34.7763C209.697 34.2666 210.55 33.7002 211.459 33.1338C211.403 33.0772 211.459 33.0772 211.459 33.0772ZM219.305 42.0261C219.134 42.0261 219.02 42.0827 218.85 42.0827C218.566 42.0827 218.395 42.2527 218.281 42.4792C218.281 42.5359 218.225 42.5925 218.225 42.5925C218.111 42.819 218.054 43.0456 217.94 43.2722C217.883 43.3288 217.94 43.3854 217.94 43.4421C217.997 43.5554 218.054 43.6686 218.168 43.7819C218.395 44.0651 218.566 44.4049 218.793 44.6881C218.85 44.8014 218.964 44.858 219.077 44.858C219.134 44.858 219.191 44.858 219.305 44.858C219.475 44.858 219.532 44.8014 219.532 44.6315C219.532 44.5182 219.532 44.4616 219.532 44.3483C219.532 43.8952 219.475 43.4987 219.475 43.1022C219.418 42.7058 219.362 42.3659 219.305 42.0261ZM236.303 34.6064C236.303 34.3799 236.246 34.1533 236.246 33.9268C236.246 33.5303 236.019 33.2471 235.678 33.1338C235.109 32.8506 234.541 32.8506 233.972 32.9639C233.858 32.9639 233.688 33.0205 233.574 33.1338C233.631 33.1905 233.631 33.3037 233.745 33.3037C234.256 33.7002 234.768 34.1533 235.336 34.4931C235.45 34.5498 235.564 34.6064 235.621 34.6064C235.791 34.5498 236.019 34.6064 236.303 34.6064ZM205.206 32.3975C205.263 32.6807 205.32 32.9639 205.377 33.2471C205.433 33.417 205.433 33.4736 205.661 33.4736C205.774 33.4736 205.831 33.4736 205.945 33.4736C206.172 33.4736 206.457 33.417 206.684 33.417C207.082 33.3604 206.968 33.3604 207.025 33.0772C207.025 32.9639 207.082 32.8506 207.025 32.6807C206.457 32.5674 205.831 32.4541 205.206 32.3975ZM237.326 32.7373C237.326 32.9073 237.269 33.0205 237.269 33.1905C237.269 33.4736 237.383 33.6436 237.667 33.7002C237.724 33.7002 237.781 33.7002 237.781 33.7002C237.952 33.7002 238.122 33.7002 238.293 33.7002C238.349 33.7002 238.463 33.7002 238.52 33.6436C238.691 33.5303 238.861 33.3604 238.918 33.1338C238.918 33.0772 238.918 33.0772 238.918 33.0205C238.804 32.8506 238.691 32.7373 238.52 32.7373C238.179 32.6807 237.781 32.7373 237.326 32.7373Z" fill="black"/>
<path fill-rule="evenodd" clip-rule="evenodd" d="M261.487 96.7392C261.487 96.6826 261.658 96.6826 261.715 96.5693C262.056 96.456 262.113 96.2295 262.226 96.0029C262.34 95.833 262.454 95.5498 262.454 95.3799C262.454 95.1533 262.397 94.8702 262.226 94.6436C262.113 94.4171 261.942 94.3038 261.715 94.1339C261.658 94.1339 261.487 94.1339 261.487 94.0206V93.794C261.658 93.794 261.715 93.9073 261.942 93.9073C262.113 94.0772 262.34 94.1905 262.397 94.5303C262.624 94.8702 262.738 95.0401 262.738 95.3799C262.738 95.7197 262.624 95.8897 262.568 96.1729C262.34 96.3994 262.113 96.626 261.942 96.7959C261.715 96.7959 261.601 96.9658 261.487 96.9658V96.7392ZM261.487 96.2295V96.3428H261.828L261.658 95.9463C261.487 95.9463 261.487 95.833 261.487 95.7197V96.2295ZM261.487 95.4365L261.658 95.3233C261.715 95.3233 261.715 95.0967 261.715 95.0401C261.715 94.9268 261.715 94.9268 261.658 94.8135C261.658 94.7002 261.487 94.7002 261.487 94.587V95.4365ZM261.089 97.0791C261.26 97.0791 261.317 97.0791 261.544 96.9658V96.7392H261.089V97.0791ZM261.487 94.0772V93.8507C261.317 93.7374 261.203 93.7374 261.033 93.7374V94.0772H261.487ZM261.487 94.587H261.033V94.8135H261.26C261.26 94.8135 261.26 94.9268 261.374 94.9268V95.0401C261.374 95.0967 261.374 95.21 261.26 95.21C261.26 95.3233 261.146 95.3233 261.033 95.3233V95.6065C261.203 95.7764 261.203 95.8897 261.26 96.0596L261.431 96.2295V95.7197C261.374 95.7197 261.374 95.5498 261.374 95.5498C261.26 95.5498 261.26 95.4932 261.146 95.4932C261.26 95.4932 261.374 95.4932 261.431 95.3799V94.587H261.487ZM260.691 96.9658V96.7392H261.089V97.0791C261.033 97.0791 260.862 97.0791 260.691 96.9658ZM260.691 95.4932V95.3233H261.033H261.089V95.6065C261.033 95.6065 260.919 95.5498 260.805 95.5498H260.691V95.4932ZM260.691 94.8135V94.587H261.033H261.089V94.8135H261.033H260.691ZM260.691 94.0772V93.8507C260.862 93.7374 261.033 93.7374 261.089 93.7374V94.0772H260.691ZM260.691 93.8507C260.578 93.8507 260.407 93.9639 260.294 93.9639C260.066 94.1338 259.839 94.2471 259.668 94.587C259.554 94.9268 259.441 95.0967 259.441 95.4365C259.441 95.7764 259.554 95.9463 259.668 96.2295C259.896 96.456 260.066 96.6826 260.294 96.8525C260.407 96.8525 260.578 97.0224 260.691 97.0224V96.7959C260.578 96.7392 260.464 96.7392 260.407 96.626C260.18 96.5127 260.066 96.2861 259.952 96.0596C259.782 95.8897 259.782 95.6065 259.782 95.4365C259.782 95.21 259.782 94.9268 259.952 94.7002C260.123 94.4737 260.237 94.3604 260.407 94.1905C260.521 94.1905 260.578 94.1905 260.691 94.0772V93.8507ZM260.691 94.587H260.407V96.3428H260.691V95.4932V95.3233V94.8135V94.587ZM236.985 111.635V100.138C241.249 93.9073 251.709 91.9249 258.815 94.417L258.076 100.477C257.792 100.591 257.053 100.591 256.769 100.194C253.813 95.9463 245.285 98.3251 243.466 104.442C243.068 108.69 247.445 112.938 256.826 109.766L255.916 114.977C247.957 116.506 240.453 115.373 236.985 111.635ZM236.985 96.1729L237.724 93.5675H236.985V96.1729ZM236.985 93.5675H236.36V98.7782L236.985 96.2295V93.5675ZM236.985 100.081C236.758 100.477 236.587 100.817 236.36 101.214V110.786C236.587 111.125 236.814 111.465 236.985 111.635V100.081ZM235.734 109.71V102.743C235.848 102.177 236.189 101.667 236.36 101.27V110.842C236.189 110.502 235.848 110.106 235.734 109.71ZM235.734 99.911V93.5675H236.36V98.7782L236.075 99.9676H235.734V99.911ZM235.734 93.5675H218.054C216.746 96.5127 219.305 95.6065 219.305 96.626L216.178 108.067V115.147H224.364C224.364 113.788 224.023 113.618 223.284 112.485L224.649 106.538C226.297 106.255 230.39 106.481 231.755 107.784L233.347 101.837L226.07 102.063L227.036 98.3251L233.404 98.4384C234.654 98.665 234.882 99.7977 235.734 100.024V93.5675ZM235.734 102.686C235.621 102.856 235.507 103.083 235.507 103.423C234.768 105.858 234.882 107.897 235.734 109.71V102.686ZM216.235 95.3233V93.6241H216.86C216.974 94.3604 216.746 94.9268 216.235 95.3233ZM216.235 93.6241V95.3233C216.007 95.4365 215.78 95.4932 215.609 95.6065V93.6241H216.235ZM216.235 108.01V115.09H215.609V110.333L216.235 108.01ZM214.87 115.09H215.609V110.333L214.87 112.711V115.09ZM214.87 95.8897C215.155 95.7764 215.382 95.7764 215.609 95.6065V93.6241H214.87V95.8897ZM214.87 93.6241V95.833H214.643L205.206 103.649C207.594 107.444 208.617 108.633 211.005 112.372C212.142 113.334 213.279 112.881 213.108 115.203L204.865 114.977C202.136 114.864 198.611 108.803 196.451 106.255L195.03 111.012L196.28 113.278L196.053 114.864H184.683V114.75V114.241C184.911 112.655 186.389 113.051 186.673 112.258C188.435 107.048 190.084 102.346 191.335 97.0791C191.619 96.1162 191.221 95.833 190.198 95.4932C189.856 94.7569 190.084 93.7374 190.937 93.5108C193.95 93.6241 196.963 93.7374 200.033 93.7374L201.283 93.8507C201.113 94.8135 200.885 95.6065 199.748 95.9463C199.18 96.1728 197.645 100.534 197.645 102.913L206.002 96.5127C206.457 96.0029 206.457 95.6631 204.979 95.4932C204.694 95.0967 204.865 94.417 205.376 93.6807H214.87V93.6241ZM214.87 112.711V115.09H214.245L214.87 112.711Z" fill="black"/>
</g>
<g clip-path="url(#clip2_416_798)">
<path d="M426.981 3.70911C457.304 13.3531 461.531 49.0966 461.531 49.0966C462.336 53.75 462.268 68.5195 460.524 75.8705C459.317 80.9286 458.243 94.2818 436.642 111.412C432.482 114.716 427.585 118.493 422.554 119.032C421.95 119.1 421.279 119.167 421.011 118.695C420.675 118.223 421.614 117.009 421.883 116.874C434.964 108.984 453.145 95.6306 453.95 64.1359C453.95 64.1359 455.761 34.5295 437.648 20.5693C431.811 16.0507 423.426 10.9927 416.851 9.1718C415.912 8.90204 406.788 6.87882 406.52 8.42995C406.185 10.6555 409.874 10.7904 411.753 10.8578C416.113 10.9927 421.48 13.6903 422.688 14.2973C438.319 22.0529 442.478 31.2249 443.82 33.4504C449.858 43.2293 449.656 61.9103 449.656 64.608C449.858 81.5355 441.069 93.0679 437.111 98.598C430.403 107.972 415.308 119.909 390.688 122C384.918 122.472 372.306 122.337 359.761 115.391C355.736 113.165 347.686 106.623 343.728 99.0026C342.587 96.7771 340.306 91.0447 342.99 90.5051C344.6 90.1679 346.948 95.1585 351.308 99.8794C355.266 104.196 359.292 108.242 365.195 111.142C373.044 115.054 382.436 117.212 386.394 116.605C387.266 116.47 387.333 115.391 386.528 115.188C384.113 114.581 379.35 114.177 375.392 112.761C369.22 110.535 357.883 103.319 351.375 94.8213C348.96 91.6516 345.271 84.3006 344.6 78.9053C343.392 69.4637 343.795 56.1104 344.197 53.4803C346.746 38.3736 354.73 29.6063 360.902 24.1436C366.939 18.7484 378.076 14.9717 380.893 13.5554C381.363 13.2857 381.094 12.7461 380.759 12.6787C380.222 12.6113 379.619 12.6787 379.015 12.8136C378.612 12.9485 378.143 13.0159 377.673 13.0834C376.331 13.2857 340.642 21.5134 340.239 65.4172C340.172 69.3962 336.818 67.1033 336.415 64.6754C335.275 57.9988 335.409 51.8617 336.952 45.4548C339.702 33.7202 346.948 24.3459 354.059 18.2088C364.524 9.10436 379.149 3.91143 391.292 1.75333C401.623 -0.0675609 410.076 -1.68613 426.981 3.70911ZM339.3 85.9866C341.178 86.3238 341.648 84.7727 341.514 84.0308C341.178 82.5471 341.111 81.1309 341.044 79.1077C340.91 77.2868 340.776 75.0612 339.568 73.5775C338.964 72.8357 338.092 72.3636 337.153 72.3636C332.725 72.2962 334.201 79.4449 334.872 81.8727C335.141 82.9518 335.61 83.9634 336.482 84.7052C337.153 85.3796 338.227 85.7843 339.3 85.9866Z" fill="#E0262B"/>
<path d="M427.786 37.969C427.182 37.6992 426.646 37.4969 426.243 37.2946C424.7 36.5527 420.809 35.3388 417.723 34.3272C415.979 33.7877 414.235 33.1807 413.899 33.0458C413.564 32.5063 412.826 29.2017 412.424 27.5831C412.222 26.7738 412.088 26.0994 412.021 25.8297C411.753 24.8181 411.417 24.2111 410.411 24.2785H410.344C410.008 24.2785 405.447 25.2227 397.933 26.7738C392.902 27.8529 387.669 28.9319 387.333 28.9994C386.931 29.0668 386.663 29.2691 383.375 34.2597C382.369 35.7434 381.161 37.6318 380.96 37.8341C380.826 37.9015 380.155 38.1713 379.417 38.5085C377.338 39.3852 373.447 41.0038 370.092 42.7572C366.403 44.713 359.359 48.8943 358.822 49.8385C358.621 50.1757 358.621 50.5804 358.822 50.9176C359.09 51.3222 359.627 51.592 360.298 51.5245C360.432 51.5245 360.566 51.5245 360.767 51.4571C361.505 51.3222 383.845 47.9502 396.658 46.5339C399.878 46.1967 403.904 45.8595 408.667 45.5898C420.407 44.9828 432.281 44.9153 432.952 45.0502C433.623 45.1851 434.361 44.9153 434.83 44.3758C435.233 43.9712 435.434 43.3642 435.434 42.8247C435.434 41.6108 432.952 40.3294 427.786 37.969Z" fill="#FBFCFC"/>
<path d="M386.998 61.0335C386.931 59.887 386.73 59.3475 386.394 59.0778C386.193 58.9429 385.992 58.9429 385.723 58.9429H385.656C385.12 59.0778 384.918 59.6173 384.784 59.9545C384.717 60.0219 384.717 60.1568 384.382 60.5614C380.289 66.159 379.753 68.0474 379.551 69.8008C379.35 71.2171 379.82 72.8356 380.625 73.5775C381.027 73.9147 381.497 74.0496 381.966 73.9821C382.302 73.9147 382.637 73.7124 382.771 73.4426C382.906 73.1728 382.906 72.9031 382.839 72.6333C382.973 71.7566 383.644 70.4752 384.382 68.9915C385.656 66.5637 387.199 63.5288 386.998 61.0335Z" fill="#FBFCFC"/>
<path d="M386.528 57.4593H386.595C387.669 57.2569 388.608 56.043 389.078 55.3686C390.084 54.0198 391.224 52.1989 391.761 51.3222C391.895 51.1198 392.164 50.6478 392.231 50.4454C392.365 50.1082 392.298 49.8385 392.164 49.7036C391.962 49.5013 391.694 49.4338 391.157 49.5687C389.883 49.8385 387.266 51.1198 385.723 53.3454C384.985 54.357 384.65 55.436 384.784 56.2453C384.918 57.0546 385.589 57.5941 386.528 57.4593Z" fill="#E0262B"/>
<path d="M409.874 68.7218C409.606 68.7218 409.405 68.8567 409.405 68.8567C408.466 69.2613 406.721 69.5311 405.916 69.666C404.575 69.8008 403.233 69.666 401.623 69.3962C399.677 69.1264 397.463 68.8567 394.646 69.1264C394.176 69.1939 393.707 69.2613 393.17 69.3288C394.042 68.452 396.457 65.9567 397.799 64.473C398.738 63.4614 400.415 61.5731 400.818 60.3592C401.019 59.8871 401.22 59.0103 400.818 58.4708C400.549 58.0662 400.013 57.9313 399.275 57.9987C399.141 57.9987 390.956 58.8755 390.956 58.8755C390.688 58.8755 390.352 58.8755 390.151 58.8755C390.084 58.8755 390.084 58.8755 390.017 58.8755C389.145 58.808 388.541 59.2127 388.407 59.8196C388.273 60.3592 388.541 61.0336 389.145 61.3708C389.681 61.708 390.621 61.9103 391.962 61.8429C392.432 61.8429 392.902 61.7754 393.371 61.7754C394.512 61.6405 395.384 61.4382 395.92 61.3033C394.78 62.4498 391.493 65.5521 389.48 67.5079C389.346 67.6427 389.212 67.7776 389.078 67.9125C388.004 68.9241 386.797 70.0706 386.193 71.2845C385.723 72.2961 385.723 73.2403 386.327 73.7124C386.663 74.0496 386.998 74.117 387.468 74.0496C387.803 73.9822 388.206 73.9147 388.809 73.7124C389.883 73.3752 391.493 72.9031 394.176 72.6333C396.323 72.431 398.805 72.2962 401.623 72.431C402.629 72.431 403.635 72.431 404.507 72.2961C406.788 72.0264 408.734 71.4194 409.941 70.4753L410.009 70.4078C410.344 70.1381 411.015 69.5985 410.746 68.9916C410.545 68.8567 410.277 68.7218 409.874 68.7218Z" fill="#FBFCFC"/>
<path d="M379.954 63.6638C379.954 63.5964 381.967 59.2127 378.21 56.1105C376.331 54.5593 373.648 54.0198 370.763 54.4919C369.22 54.7617 367.677 55.3686 366.671 56.043C365.531 56.7849 365.262 57.5942 365.195 58.1337C365.128 58.7406 365.396 59.2802 365.531 59.415C365.665 59.5499 366 59.7523 366.738 59.6174C367.074 59.5499 367.543 59.4151 368.08 59.2127C367.074 60.5615 363.988 65.0126 361.572 72.7683C359.828 78.3659 359.359 81.6704 360.097 82.8844C360.298 83.1541 360.499 83.289 360.835 83.3564C360.902 83.3564 361.036 83.3564 361.103 83.3564C362.646 83.0867 364.189 79.0403 366.336 73.4427C366.671 72.6334 366.939 71.8241 367.275 70.9474C370.83 61.7755 371.032 59.5499 370.83 58.943C371.904 58.943 375.728 59.0778 376.197 62.0452C376.6 64.4731 373.983 66.7661 371.434 68.0474C370.763 68.3846 370.092 68.587 369.556 68.7893C369.019 68.9916 368.617 69.1265 368.348 69.2614C368.013 69.4637 368.08 69.7335 368.08 69.8009C368.214 70.273 369.22 70.5427 370.763 70.273H370.897C371.971 69.9358 377.539 68.7218 379.954 63.6638Z" fill="#FBFCFC"/>
<path d="M408.935 79.1077C409.002 78.4333 408.868 77.8938 408.6 77.624C408.466 77.4891 408.264 77.3542 408.063 77.3542C407.996 77.3542 407.862 77.3542 407.795 77.3542C407.124 77.4891 406.721 78.1635 406.051 79.1751C405.447 80.1193 404.642 81.4007 403.3 82.7495C401.757 84.2332 400.08 85.4471 399.476 85.7169C399.946 84.3006 400.08 82.6146 399.946 81.6705C399.879 80.7263 399.543 80.1193 399.007 79.7147C398.403 79.2426 397.665 79.2426 397.128 79.3775C396.457 79.5124 395.853 79.8496 395.585 80.0519C395.451 80.1868 395.384 80.3891 395.384 80.524C395.451 80.7263 395.585 80.9286 395.988 81.0635C396.659 81.3332 396.524 81.6705 396.39 82.1425C396.39 82.21 396.323 82.3449 396.323 82.4123C396.189 82.8169 396.055 83.2216 395.921 83.6937C395.384 85.3123 394.78 86.9983 395.317 88.4145C395.719 89.561 396.86 90.1005 398.269 89.8308C398.537 89.7633 398.805 89.6959 399.141 89.6285C400.751 89.0215 402.495 87.4704 404.373 85.0425C404.44 87.268 405.849 88.3471 406.386 88.8192C406.789 89.1564 407.325 89.3587 407.728 89.2912C407.996 89.2238 408.13 89.0889 408.264 88.8866C408.331 88.6843 408.399 88.3471 408.13 87.8076C407.728 86.9983 408.197 83.4914 408.533 81.1984C408.801 80.2542 408.935 79.5124 408.935 79.1077Z" fill="#FBFCFC"/>
<path d="M427.786 73.2404C427.451 72.9032 426.713 73.0381 424.164 73.6451C423.426 73.7799 422.554 73.9823 421.547 74.1846C421.279 74.252 420.742 74.3869 420.071 74.5218C419.736 74.5892 419.333 74.7241 418.864 74.7916L418.998 74.5218C419.468 73.5776 419.937 72.566 420.071 71.959C420.273 71.2846 420.138 70.6777 419.803 70.3405C419.535 70.0707 419.199 69.9358 418.864 70.0033C418.528 70.0707 418.193 70.273 417.925 70.6102C417.522 71.0823 416.113 72.8358 414.637 75.6683C414.101 75.7357 412.558 76.0055 411.551 75.8706C411.35 75.8706 411.015 75.8032 410.679 75.8706C410.21 75.938 409.807 76.2752 409.606 76.7473C409.472 77.0171 409.472 77.3543 409.606 77.6915C409.74 78.0961 410.076 78.4333 410.545 78.6357C411.216 78.9054 412.155 79.0403 413.229 79.0403C411.619 83.0867 411.015 86.8634 411.417 90.3029C411.484 90.9773 411.686 91.3819 411.887 91.5168C412.021 91.5843 412.155 91.6517 412.289 91.5843C412.625 91.5168 413.027 91.0447 413.229 90.3029C413.43 89.6959 415.778 82.5472 417.522 78.0961C421.078 76.8148 423.962 75.7357 426.243 74.6567L426.377 74.5892C427.048 74.3195 427.652 73.9823 427.786 73.8474C427.92 73.7125 427.988 73.5776 427.988 73.4427C427.92 73.4427 427.853 73.3079 427.786 73.2404Z" fill="#FBFCFC"/>
<path d="M395.25 82.6145C395.25 82.5471 395.115 82.3448 394.914 82.3448C394.713 82.2773 394.579 82.2773 394.176 82.4797C394.042 82.5471 393.908 82.5471 393.774 82.6145C393.505 82.7494 393.103 82.8843 392.566 83.0866C392.902 81.4006 393.237 79.9844 393.572 78.9053C394.109 76.6123 394.444 75.3984 394.042 74.9263C393.908 74.724 393.707 74.6566 393.438 74.5891C393.371 74.5891 393.304 74.5891 393.237 74.5891C391.761 74.8589 389.413 79.7146 387.937 84.4354C387.803 84.4354 387.736 84.5029 387.602 84.5029C385.992 84.9075 384.18 85.3122 382.235 85.7168C382.637 84.368 383.107 83.0866 383.644 81.5355V81.4681C384.18 79.9844 385.12 77.2867 384.985 76.0054C384.851 75.1961 384.449 75.0612 384.247 75.0612C384.18 75.0612 384.18 75.0612 384.113 75.0612C382.436 75.331 379.283 81.1983 377.069 86.5935L376.801 86.661L376.264 86.7284C375.057 86.9307 373.983 87.1331 373.312 87.4028C372.239 87.8075 371.635 88.4144 371.635 89.0214C371.635 89.5609 372.038 90.1679 372.843 90.5051C373.514 90.8423 374.386 90.9772 375.459 91.0446C374.654 93.6748 373.514 98.0584 374.52 99.8119C374.788 100.217 375.124 100.486 375.526 100.554C375.795 100.621 376.063 100.621 376.331 100.554C378.143 100.217 378.948 97.5863 379.417 95.5631C379.82 93.8097 380.289 92.0562 380.826 90.1679C382.704 89.6284 384.784 88.8865 386.864 87.9423C386.26 90.5051 385.656 94.4841 387.468 94.8887C387.803 95.0236 388.138 95.0236 388.407 94.9562C389.145 94.8213 389.816 94.2817 390.285 93.3376C390.956 92.1237 391.224 90.3702 391.493 88.8191C391.694 87.6051 391.895 86.3912 392.096 85.2447C393.438 84.5029 394.377 83.761 394.914 83.2889C395.182 83.1541 395.384 82.8169 395.25 82.6145Z" fill="#FBFCFC"/>
<path d="M428.927 60.7638C428.524 60.7638 428.256 60.5615 428.055 60.3592C427.585 59.8197 427.786 59.1453 428.256 57.9313C428.457 57.3918 428.591 56.8523 428.793 56.1104C428.994 55.3011 428.86 54.7616 428.658 54.4919C428.457 54.1547 428.122 54.0198 427.921 54.0198C427.518 54.0198 427.115 54.2895 426.914 54.357C426.243 54.2221 425.572 54.2221 424.902 54.2895C421.346 54.5593 417.187 57.1895 415.375 60.2918C414.503 61.7754 414.302 63.1917 414.839 64.3382C414.906 64.4056 414.906 64.5405 414.973 64.608C414.906 64.608 414.839 64.6754 414.839 64.6754C414.302 64.9452 413.631 65.1475 412.826 65.2149C411.619 65.3498 410.21 65.1475 409.002 65.0126C408.399 64.9452 407.795 64.8777 407.258 64.8103C408.264 63.8661 411.35 60.7638 412.558 59.415C413.095 58.8081 414.034 57.7965 414.168 57.5267C414.705 56.5825 414.772 55.7732 414.302 55.1663C413.967 54.6942 413.095 54.1547 411.149 54.357C410.814 54.357 410.545 54.4244 410.21 54.4919C407.124 55.0314 405.044 55.3686 404.172 55.436C403.77 55.5035 403.635 55.436 403.367 55.3686C403.233 55.3011 403.032 55.3011 402.897 55.3011H402.83C402.428 55.3686 402.092 55.5709 401.891 55.9081C401.623 56.3128 401.556 56.9197 401.757 57.4592C402.092 58.336 403.166 58.7406 403.971 58.7406C404.373 58.7406 404.977 58.7406 405.648 58.6732C406.99 58.5383 408.466 58.336 409.204 58.2011C408.466 58.8755 407.526 59.6848 406.52 60.4941C404.91 61.8429 403.166 63.1917 401.958 64.5405C400.617 66.0242 399.946 67.4405 400.348 68.1823C400.549 68.5195 401.019 68.7218 401.489 68.5869C402.16 68.3846 402.83 68.3172 403.702 68.2497C404.776 68.1823 405.916 68.1823 406.99 68.1823C408.063 68.1823 409.136 68.1823 410.21 68.1149C411.552 67.98 412.625 67.7777 413.564 67.373C414.772 66.8335 415.577 66.2265 415.711 65.6196C415.912 65.687 416.113 65.8219 416.382 65.8219C416.851 65.8893 417.388 65.9568 417.925 65.8893C420.206 65.687 422.285 64.1359 423.56 63.2591C423.828 63.0568 424.03 62.9219 424.231 62.7871C424.633 63.5289 425.975 63.9335 427.585 63.8661H427.652C428.457 63.7987 430.269 63.3266 430.872 62.6522C431.006 62.4499 431.074 62.315 431.074 62.1126C431.141 61.4382 430.738 60.9662 428.927 60.7638ZM424.633 57.2569C423.895 58.8755 423.761 59.2127 423.694 59.8197C423.023 60.2917 420.541 61.5731 419.535 61.6406C419.266 61.6406 419.199 61.6406 419.199 61.5731C419.199 61.5057 419.199 61.4382 419.199 61.4382C420.273 58.4709 423.627 57.5267 424.633 57.2569Z" fill="#FBFCFC"/>
<path d="M446.369 111.344H446.637C446.973 111.344 447.107 111.479 447.174 111.749C447.241 112.019 447.308 112.289 447.375 112.356H447.979C447.912 112.289 447.845 112.086 447.778 111.749C447.711 111.412 447.577 111.209 447.308 111.142C447.577 111.075 447.845 110.805 447.845 110.535C447.845 110.333 447.711 110.13 447.577 109.996C447.375 109.861 447.174 109.793 446.705 109.793C446.302 109.793 445.967 109.861 445.698 109.861V112.423H446.302V111.344H446.369ZM446.369 110.198C446.436 110.198 446.57 110.13 446.705 110.13C447.107 110.13 447.241 110.265 447.241 110.535C447.241 110.805 446.973 110.94 446.637 110.94H446.369V110.198Z" fill="#E0262B"/>
<path d="M446.772 113.637C448.248 113.637 449.388 112.491 449.388 111.074C449.388 109.658 448.248 108.512 446.772 108.512C445.296 108.512 444.155 109.658 444.155 111.074C444.155 112.491 445.296 113.637 446.772 113.637ZM446.772 108.984C447.912 108.984 448.717 109.928 448.717 111.007C448.717 112.154 447.912 113.098 446.772 113.098C445.631 113.098 444.759 112.221 444.759 111.007C444.759 109.928 445.631 108.984 446.772 108.984Z" fill="#E0262B"/>
</g>
<g clip-path="url(#clip3_416_798)">
<path d="M845.067 60.1482C845.531 59.4274 846.524 57.9202 845.398 57.1994C844.736 56.8063 843.743 57.7237 843.346 58.3134C843.346 58.3134 842.221 59.0997 840.367 62.9658C842.088 63.2279 844.273 61.3277 845.067 60.1482Z" fill="#00703C"/>
<path d="M859.367 82.0342L858.903 81.7065C857.712 82.4273 856.719 82.4273 856.123 82.1652C854.137 81.1168 856.322 76.5954 856.322 76.5299L857.646 74.1054C861.551 67.7493 864.2 66.8319 860.426 65.3903C858.771 64.2108 852.416 68.5356 848.841 72.4672C850.231 69.584 853.541 64.2763 853.011 63.8176C852.349 63.1624 849.304 62.9658 847.914 63.359C848.576 64.604 847.517 66.3077 847.517 66.3077C847.517 66.3077 843.677 74.6951 843.478 75.0883C842.287 78.2336 838.844 84.3276 839.506 84.5897C840.102 84.8518 842.022 85.8347 842.816 85.4416C845.531 79.151 851.886 73.7122 853.144 73.9743C851.423 77.0541 849.238 84 851.621 85.5071C853.806 86.8832 857.182 85.3105 858.639 82.9515C859.301 82.2307 859.036 83.0171 859.367 82.0342Z" fill="#00703C"/>
<path d="M777.674 69.7807C782.772 62.2451 785.949 71.0912 788.796 67.5528C790.12 65.7835 788.663 64.6041 787.075 63.5556C786.28 63.0314 783.566 61.8519 780.057 63.1625C779.064 63.359 779.197 61.5243 778.667 61.5898C777.475 61.8519 776.549 61.0656 776.218 61.9175C776.549 63.359 773.768 69.5841 772.179 74.171C771.252 76.8576 769.134 84.3277 768.34 84.983C768.803 85.9004 771.451 85.1796 772.047 84.2622L776.615 72.0741L777.674 69.7807Z" fill="#00703C"/>
<path d="M748.281 34.3305C743.051 31.3162 734.18 32.6268 731.796 36.4274C730.605 38.3276 728.95 42.5869 730.34 42.4558C732.591 42.1937 739.012 35.3789 744.441 38.3276C753.18 42.718 751.723 57.8547 742.653 70.698C734.511 81.8376 721.932 86.49 715.18 81.2479C707.5 76.4644 704.455 64.0798 711.737 51.8262C717.166 38.5897 731.068 35.0513 731.598 34.1339C732.127 33.2821 732.525 32.7578 731.598 32.1681C730.406 31.4473 725.309 33.151 723.323 34.0684C717.894 36.5584 711.473 42.5214 707.964 49.1396C704.985 54.5783 702.734 60.0171 702.999 67.6838C703.33 77.1197 707.434 82.6239 712.267 85.245C717.364 87.8006 719.483 88.7835 723.323 88.1937C730.803 87.0798 739.476 82.755 746.89 71.4843C755.166 59.0997 758.078 39.9658 748.281 34.3305Z" fill="#00703C"/>
<path d="M795.879 96.7121L794.158 99.2677C793.562 100.12 794.158 101.037 794.82 101.365C799.719 103.527 805.876 101.365 809.054 96.319C812.562 92.3874 818.123 78.0369 822.228 71.0911C823.353 69.2563 824.81 66.3731 824.545 66.0455C823.419 64.6039 821.698 63.3589 821.301 64.9315C820.639 63.4899 819.513 62.9657 818.123 62.376C813.688 60.4757 809.583 63.4899 806.074 68.9287C804.817 70.8945 803.493 72.7948 802.764 77.5127C801.242 79.4785 793.629 83.6723 791.51 82.3617C791.047 82.0996 790.517 80.9201 791.047 80.7891C792.238 80.4614 798.196 76.2022 800.249 72.9913L801.109 71.6153C802.036 70.1737 802.632 66.2421 799.852 64.5384C796.674 62.5725 792.768 65.3247 790.517 68.3389C787.472 71.1566 785.618 78.9543 785.618 78.9543C784.493 80.2649 781.911 78.6922 781.58 80.2649C781.381 81.0512 781.514 81.5754 781.845 82.2962C782.441 83.4757 785.155 81.1822 785.817 82.6238C786.28 83.6723 785.883 83.9344 788.73 85.7691C793.165 88.5213 801.308 82.4928 802.897 81.9686C806.273 86.9486 809.451 84.1965 811.106 84.262C811.635 84.262 808.855 90.356 806.538 92.9771C801.639 100.185 795.879 96.7121 795.879 96.7121ZM789.855 77.1196C789.855 75.0882 791.245 72.8603 793.298 70.4358C794.026 69.5839 795.747 67.6181 797.005 68.4045C797.799 68.9287 797.402 70.2392 796.674 71.3532C796.674 71.3532 791.378 77.9714 789.855 77.1196ZM808.193 79.2819C807.001 78.4301 807.796 74.7606 810.245 70.7634C812.364 68.0768 815.012 66.0455 816.932 67.356C818.189 68.2079 817.792 69.715 816.005 73.0569C813.423 77.3817 809.98 80.4614 808.193 79.2819Z" fill="#00703C"/>
<path d="M826.001 84.9829C830.304 87.1453 835.336 83.2137 839.97 75.8091C843.545 69.9772 842.485 64.9972 840.698 64.4074C839.44 64.604 839.308 64.604 839.506 63.1624C835.005 60.0826 827.59 65.849 824.479 71.4844C819.911 79.8063 823.684 83.8034 826.001 84.9829ZM829.907 71.2878C831.695 69.1909 834.938 65.849 837.255 67.7493C838.116 68.4701 838.05 71.812 835.865 74.9573C833.416 78.5613 830.304 81.51 828.12 79.9373C826.001 78.4958 828.583 72.8604 829.907 71.2878Z" fill="#00703C"/>
<path d="M767.81 61.2621C764.897 59.4929 761.124 60.869 760.727 60.8034C759.336 60.5413 767.347 44.1596 766.817 43.1767C766.089 41.9972 763.838 40.1624 763.308 41.0143C762.977 41.5385 760.727 46.1254 754.901 64.4074C753.511 68.6012 751.458 74.2365 751.458 74.2365C751.458 74.2365 748.612 82.8861 748.016 83.3448C747.685 84.2621 751.194 85.1795 751.525 84.8519C752.12 84.3277 751.657 83.6069 752.12 84C754.371 86.1624 762.051 86.4245 767.148 78.1681L768.406 76.0712C771.253 71.4844 771.65 63.5556 767.81 61.2621ZM756.49 80.3305C754.106 79.02 755.761 74.302 758.079 69.7151C759.667 66.6354 762.977 64.2764 764.963 65.4559C766.089 66.1767 767.214 69.453 764.699 74.7607C762.845 78.6268 759.204 81.7721 756.49 80.3305Z" fill="#00703C"/>
<path d="M671.751 64.3418C673.737 62.7692 677.908 63.4244 678.901 62.376C680.027 61.262 678.967 60.4757 678.438 59.6894C674.929 57.3304 666.786 60.7378 665.264 63.4244C662.086 69.1253 676.121 70.6979 672.612 77.0541C671.42 78.8888 670.03 81.9031 665.33 80.6581C665.462 79.0854 665.264 80.1994 664.469 78.8233C662.351 76.5954 659.703 76.8575 658.643 78.6922C657.386 80.9857 658.842 82.7549 661.292 84.131C664.072 85.6381 672.612 86.0968 676.253 79.9373C682.344 69.715 669.898 65.9145 671.751 64.3418Z" fill="#00703C"/>
<path d="M570.927 56.9373C566.69 66.7008 564.637 77.9059 562.651 82.9515C562.056 85.1139 564.439 86.4244 565.697 84.131C568.278 76.792 573.508 66.1111 574.965 57.9857C575.296 56.0199 571.92 54.7094 570.927 56.9373Z" fill="#00703C"/>
<path d="M582.71 63.4902C584.498 61.7865 588.801 62.0486 589.728 60.9346C590.721 59.6896 589.661 59.0999 589.066 58.3135C585.358 56.2822 577.613 60.9346 576.355 63.7523C573.641 69.7153 588.668 69.9774 585.292 77.5785C584.299 79.4788 584.167 81.4446 578.804 81.1825C578.076 80.7893 577.944 80.5272 577.878 79.8064C575.627 77.513 572.78 78.2338 571.919 80.1341C570.86 82.493 572.118 84.0002 574.7 85.1141C577.613 86.4247 586.285 85.966 589.33 79.5443C594.362 68.6668 580.989 65.1939 582.71 63.4902Z" fill="#00703C"/>
<path d="M658.71 83.8689C655.135 83.0826 652.023 82.2307 652.619 77.5783C655.333 74.2364 660.961 64.9971 662.682 61.6552C663.807 59.2962 665.793 54.4472 666.521 53.2022C668.508 52.0227 681.88 52.1538 691.215 45.7977C692.142 45.339 691.811 43.5042 691.082 43.4387C683.072 44.225 675.79 48.5498 667.978 47.3048C668.706 41.735 669.434 39.7037 666.985 37.9344C663.145 36.6894 659.769 43.5042 656.856 47.3703C656.062 49.1396 644.278 47.3048 636.466 48.8774C634.612 49.5327 635.142 52.1538 635.142 52.1538C640.107 54.0541 650.501 52.678 653.612 53.2678C648.846 60.6723 647.323 73.7777 648.25 76.6609C645.8 79.9373 638.849 83.6068 636.466 78.6267C635.936 77.7749 640.57 78.2991 644.212 72.074C647.853 65.849 647.588 59.6239 645.006 58.5099C637.922 56.6752 630.177 71.4188 630.574 76.3988C629.449 77.0541 628.257 77.4472 627.86 75.6125C627.065 73.5811 632.097 67.4871 633.553 59.5584C633.686 58.3133 629.846 55.3646 629.713 56.8717C628.654 63.3589 624.152 76.8575 618.856 77.5783C615.745 76.5299 617.797 70.3048 622.564 63.5555C622.895 62.7037 619.717 59.1652 619.121 61.8518C618.062 64.5384 615.48 68.1424 614.95 71.4188C614.222 74.3019 613.759 80.1339 616.341 81.0512C619.916 82.3618 622.034 81.772 625.278 77.6438C626.205 79.3475 628.323 80.1994 630.375 79.8062C638.651 91.9943 648.051 81.5099 649.044 81.1168C649.971 84.9829 655.929 87.4729 656.988 87.3418C657.915 87.2108 659.57 85.1139 658.71 83.8689ZM636.267 74.1054C635.208 73.5811 636.069 70.9601 637.393 68.6011C638.717 66.1766 640.835 63.3589 641.961 64.0797C643.219 64.6039 641.894 67.8803 640.637 70.2393C639.313 72.6638 637.459 74.6296 636.267 74.1054ZM663.609 44.2906C664.403 44.4871 664.138 46.3874 663.741 47.6324C663.013 48.0256 661.093 47.4359 661.093 47.4359C661.093 46.1253 662.88 44.0284 663.609 44.2906ZM652.421 70.5014C651.163 69.7151 655.267 57.527 658.379 53.5299C658.644 53.0057 661.358 53.3988 661.689 53.7264C657.981 64.1453 653.811 69.6495 652.421 70.5014Z" fill="#00703C"/>
<path d="M615.679 65.1937C616.208 64.2108 616.407 62.7692 612.633 62.0484C606.41 52.2193 597.275 61.3276 593.567 69.0598C590.919 74.6951 591.846 78.8888 595.818 81.1167C596.149 81.3133 597.01 82.1652 602.24 81.3133C603.431 81.1167 599.261 90.4216 591.979 104.575C592.31 105.427 595.421 107.721 596.083 106.738C604.292 90.1595 614.487 65.98 615.679 65.1937ZM606.94 70.3048C604.623 73.4501 601.644 77.5783 598.665 76.792C597.407 76.4643 595.818 73.5811 600.386 67.0284C604.623 61.8518 606.543 61.9828 608.661 63.621C609.522 64.2763 609.257 67.225 606.94 70.3048Z" fill="#00703C"/>
<path d="M555.965 52.416C559.341 49.3362 565.498 42.3248 558.679 38.6553C546.829 32.8234 534.317 38.3277 533.854 36.1653C534.516 31.775 537.693 20.7664 538.09 15.983C538.223 14.6069 534.979 14.4103 534.383 16.7038C533.059 20.3077 530.411 32.8234 529.55 37.9345C528.293 40.4246 525.38 39.7693 525.181 41.7351C524.519 44.9459 528.491 43.7009 527.763 45.4701C527.101 49.926 524.519 64.2109 520.878 77.1852C514.324 75.5471 518.296 71.1567 518.76 70.4359C518.892 68.4701 510.815 71.2878 513.596 76.3989C514.787 80.0029 518.362 81.8377 519.488 82.9516C520.017 84.1966 518.826 86.8832 520.017 87.6696C520.746 88.1938 520.812 89.7664 523.791 85.6382C532.53 89.5699 554.111 88.5869 561.791 74.8918C569.205 61.6553 558.812 55.4958 555.965 52.416ZM532.993 42.1938C536.435 40.228 549.212 39.7038 555.965 43.5043C557.421 45.5357 553.251 50.7778 549.941 50.3191C542.592 49.3362 536.965 48.4189 531.205 51.302C531.272 46.6496 532 43.2422 532.993 42.1938ZM548.153 53.5955C546.763 53.9887 537.759 57.0029 536.104 55.4303C535.244 54.8405 535.31 53.7265 536.899 53.2679C539.348 52.1539 549.543 53.2023 548.153 53.5955ZM557.885 71.0257C549.941 82.2308 535.376 87.473 524.453 79.7408C524.519 74.9573 527.366 65.2593 529.418 57.9858C544.512 62.4416 548.55 54.1197 552.92 56.4787C558.481 59.5585 561.658 65.718 557.885 71.0257Z" fill="#00703C"/>
<path d="M897.764 26.9258C897.764 30.2022 899.949 31.7093 902.133 34.0683C903.59 35.6409 904.715 37.0825 906.966 37.0825C907.628 37.0825 908.091 36.4272 908.091 35.772C908.091 33.2819 905.774 32.6267 904.384 30.5953C902.332 27.5156 901.802 23.4529 898.029 23.4529C897.234 23.4529 896.506 23.9771 896.506 24.7634C896.44 25.7463 897.764 25.9429 897.764 26.9258Z" fill="#FFC425"/>
<path d="M954.168 46.1909C952.446 44.0285 950.725 43.3732 948.474 41.6695C944.899 38.9829 942.516 36.886 938.014 36.886C936.756 36.886 936.094 36.2308 934.837 36.2308C932.851 36.2308 931.791 36.0342 929.805 36.0342C924.84 36.0342 922.06 37.8034 917.69 40.1624C910.077 44.2906 906.37 50.188 905.907 58.7721C905.774 61.4587 905.907 63.0313 906.105 65.7179C906.502 70.1738 908.488 72.4017 910.673 76.3333C912.262 79.151 913.983 80.7892 917.028 81.9687C920.074 83.1481 922.126 82.6239 925.304 83.4758C927.819 84.131 929.408 84.131 932.056 84.131C936.028 84.131 938.213 82.886 941.92 81.3134C947.216 79.0199 950.195 77.0541 953.969 72.6638C956.485 69.7151 958.537 67.6838 958.537 63.8177C958.537 62.114 959 61.1966 959 59.4929C959 56.9373 958.14 55.4957 957.014 53.2023C955.756 50.5157 956.021 48.4843 954.168 46.1909Z" fill="#FFC425"/>
<path d="M880.287 61.7862C881.081 61.8517 881.544 62.2449 882.339 62.2449C885.318 62.2449 886.774 60.6722 889.687 59.8859C892.07 59.2962 893.527 58.9685 895.778 58.1822C896.307 57.9856 897.102 57.9856 897.102 57.3959C897.102 56.2819 895.381 56.2164 895.381 55.1024C895.381 54.6437 895.844 54.5127 895.844 53.9885C895.844 53.7264 895.645 53.5953 895.645 53.3332C894.652 53.3332 894.123 52.8745 893.13 52.8745C890.151 52.8745 889.025 55.0369 886.245 56.1509C884.921 56.6751 883.001 56.544 883.001 57.9856C883.001 58.1822 883.199 58.3133 883.199 58.5098H884.722C884.987 58.3788 885.119 58.2477 885.384 58.0511L885.848 58.5098C884.06 60.0825 882.405 60.017 880.154 60.8688C880.088 61.262 880.154 61.4586 880.287 61.7862Z" fill="#FFC425"/>
<path d="M976.478 53.792C975.485 54.7094 974.359 54.3817 973.167 55.1025C971.91 55.8233 971.38 57.0683 969.857 57.0683C969.593 57.0683 969.593 56.6097 969.328 56.6097C967.607 56.6097 967.209 58.2478 965.753 58.9686C965.885 59.4273 966.216 59.6239 966.216 60.0171C966.216 60.2792 965.753 60.2136 965.753 60.4758C965.753 61.0655 966.349 61.5242 966.945 61.5242C970.85 61.5242 972.108 57.5926 976.014 57.396C976.014 56.9373 976.014 56.7407 976.014 56.3475C976.941 56.282 978 56.0199 978 55.1681C978 54.3817 977.206 54.1196 976.478 53.792Z" fill="#FFC425"/>
<path d="M893.593 77.3818C891.872 78.4303 890.548 78.6924 889.025 80.0029C890.283 81.1169 890.813 82.0342 891.673 83.4758C893.593 82.2308 894.983 81.7066 896.705 80.1995C897.499 79.5442 897.367 78.4958 898.227 78.0371C899.286 77.4474 900.61 77.2508 900.61 76.0713C900.61 74.8918 898.955 74.7607 897.764 74.7607C895.844 74.7607 895.182 76.3989 893.593 77.3818Z" fill="#FFC425"/>
<path d="M965.554 81.2479C964.627 80.5926 964.296 79.5442 963.171 79.5442C962.641 79.5442 962.377 79.8718 961.847 80.0029C962.046 80.4616 962.178 80.7237 962.509 81.1168C962.244 81.3789 961.847 81.51 961.847 81.9032C961.847 83.4103 963.833 83.2137 964.892 84.1966C966.613 85.7693 966.613 88.718 969.063 88.718C969.394 88.718 969.526 88.2593 969.857 88.2593C970.519 88.2593 970.718 88.9801 971.248 89.3733C971.645 88.9146 971.91 88.6525 972.373 88.2593C969.659 85.5072 968.599 83.4103 965.554 81.2479Z" fill="#FFC425"/>
<path d="M940.398 93.5013C940.398 96.7777 941.92 98.5469 941.92 101.823C942.98 101.823 943.642 102.61 944.105 103.527H944.966V98.7435C944.966 95.9913 944.635 94.0911 942.98 91.7976C941.92 92.3218 940.398 92.3218 940.398 93.5013Z" fill="#FFC425"/>
<path d="M931.328 30.1367C939.007 35.641 943.774 41.4729 943.774 50.9088C943.774 54.7749 942.98 57.1994 940.927 60.4102C939.868 62.0484 937.882 62.5726 937.882 64.5384C937.882 64.735 938.081 64.8005 938.081 64.9971H939.14C947.283 62.3105 952.38 58.9031 956.22 51.3675C958.007 47.7635 959.464 45.5356 959.464 41.5384C959.464 39.9002 959.397 38.9173 959.265 37.3447C958.802 33.0854 956.882 30.792 954.035 27.5812C948.209 21.094 942.251 18.4729 933.513 18.4729C928.614 18.4729 925.966 20.1111 921.265 21.4871C918.485 22.2735 916.035 23.0598 915.175 25.8119H919.081C924.178 25.8119 927.224 27.2535 931.328 30.1367Z" fill="#00703C"/>
<path d="M951.453 99.5955C951.453 99.661 951.453 99.792 951.453 99.9231C951.453 100.054 951.453 100.185 951.453 100.251V102.937H952.248V98.9402H951.056L950.328 102.085L949.6 98.9402H948.408V102.937H949.202V100.251C949.202 100.185 949.202 100.054 949.202 99.9231C949.202 99.792 949.202 99.661 949.202 99.5955L949.931 102.937H950.725L951.453 99.5955Z" fill="#00703C"/>
<path d="M953.704 102.151H952.91V102.937H953.704V102.151Z" fill="#00703C"/>
<path d="M957.676 102.61C957.676 102.544 957.676 102.413 957.676 102.217V101.954C957.676 101.692 957.61 101.496 957.544 101.365C957.478 101.234 957.345 101.103 957.147 101.037C957.345 100.972 957.544 100.84 957.61 100.644C957.676 100.447 957.742 100.251 957.742 100.054C957.742 99.9231 957.742 99.792 957.676 99.661C957.61 99.5299 957.544 99.3989 957.478 99.3333C957.345 99.2023 957.213 99.1368 957.08 99.0712C956.948 99.0057 956.749 99.0057 956.418 98.9402H954.565V102.937H955.359V101.365H956.154C956.352 101.365 956.551 101.43 956.617 101.496C956.683 101.561 956.749 101.758 956.749 102.02V102.413C956.749 102.544 956.749 102.61 956.749 102.741C956.749 102.806 956.749 102.872 956.816 102.937H957.742V102.806C957.742 102.806 957.676 102.741 957.676 102.61ZM956.683 100.644C956.617 100.709 956.485 100.709 956.286 100.709H955.359V99.661H956.286C956.485 99.661 956.617 99.661 956.683 99.7265C956.816 99.792 956.882 99.9886 956.882 100.185C956.948 100.447 956.882 100.578 956.683 100.644Z" fill="#00703C"/>
<path d="M959.265 102.151H958.471V102.937H959.265V102.151Z" fill="#00703C"/>
<path d="M915.969 89.8319C913.983 92.4529 914.182 94.7464 912.196 97.433C913.056 98.0883 913.056 99.0712 912.924 100.12L913.652 100.644L916.499 96.8433C918.154 94.6153 919.081 92.9116 919.081 90.1595C917.889 89.8319 916.698 88.849 915.969 89.8319Z" fill="#FFC425"/>
</g>
<defs>
<clipPath id="clip0_416_798">
<rect width="111" height="122" fill="white"/>
</clipPath>
<clipPath id="clip1_416_798">
<rect width="122" height="122" fill="white" transform="translate(162)"/>
</clipPath>
<clipPath id="clip2_416_798">
<rect width="128" height="122" fill="white" transform="translate(334)"/>
</clipPath>
<clipPath id="clip3_416_798">
<rect width="465" height="92" fill="white" transform="translate(513 15)"/>
</clipPath>
</defs>
</svg>
