<svg width="111" height="122" viewBox="0 0 111 122" fill="none" xmlns="http://www.w3.org/2000/svg">
<g clip-path="url(#clip0_205_871)">
<path d="M111 104.325V59.1217C111 58.9985 111.062 58.9369 111.062 58.8137C111.062 58.629 111.062 58.4442 111 58.321V31.9626C111 31.7779 111.062 31.5931 111.062 31.4084C111.062 20.0767 93.5616 0 55.5309 0C17.1292 0 0 20.0767 0 31.4084V42.3705V58.0131V105.803H0.123677C0.618384 108.759 3.40111 112.454 8.41003 115.226C17.6858 120.46 33.5783 121.938 55.5309 121.938C77.4836 121.938 93.376 120.46 102.652 115.226C107.661 112.454 110.382 108.698 110.938 105.803H111V105.434C111 105.249 111.062 105.003 111.062 104.818C111 104.695 111 104.51 111 104.325Z" fill="white"/>
<path d="M103.023 66.4503C101.044 64.9722 98.0139 63.9253 93.8089 63.9253C86.2028 63.9253 78.844 68.6673 78.844 79.7527C78.844 90.3453 86.2028 95.3337 93.4997 95.3337C101.168 95.3337 105.991 90.6532 105.991 83.7557C105.991 79.3831 103.27 76.4271 97.7666 76.4271H96.1588C93.3142 76.4271 91.088 77.7819 91.088 80.6764C91.088 83.3246 93.4997 84.6179 95.293 84.6179C96.1588 84.6179 96.7771 84.8642 96.7771 85.5416C96.7771 86.4038 95.7259 86.9581 94.6128 86.9581C90.9643 86.9581 88.429 84.4331 88.429 79.8142C88.429 74.6411 91.8301 72.7935 94.4891 72.7935C97.7047 72.7935 98.2613 74.3948 100.487 74.3948C103.085 74.3948 104.878 72.3009 104.878 70.1454C104.878 68.4826 104.136 67.2509 103.023 66.4503Z" fill="#E42313"/>
<path d="M59.674 82.7087V89.7294C59.674 92.8703 57.8807 95.3953 54.4796 95.3953C51.0785 95.3953 49.2852 92.8703 49.2852 89.7294V69.7143C49.2852 66.5119 51.2022 63.9253 54.6033 63.9253C56.6439 63.9253 58.4373 64.7259 60.1687 68.0515L64.6829 76.7966C64.9303 77.2277 65.1158 77.4124 65.3632 77.4124C65.7342 77.4124 65.9197 77.1661 65.9197 76.5502V69.5295C65.9197 66.3887 67.713 63.8637 71.1141 63.8637C74.4534 63.8637 76.3086 66.3887 76.3086 69.5295V89.5447C76.3086 92.7471 74.3916 95.3337 70.9905 95.3337C69.0116 95.3337 67.1565 94.5331 65.425 91.2075L60.9108 82.4624C60.6634 82.0313 60.4779 81.8465 60.2306 81.8465C59.8595 81.8465 59.674 82.0929 59.674 82.7087Z" fill="#E42313"/>
<path d="M15.3359 89.6063V84.9874C15.3359 84.6179 15.5214 84.3099 15.8925 84.3099C16.3872 84.3099 16.5727 84.8026 16.6964 85.1106C17.4384 86.8965 19.6028 90.7148 21.6434 92.9319C23.0039 94.4099 24.6735 95.3337 26.4668 95.3337C29.4969 95.3337 32.0323 92.6855 32.0323 89.9142C32.0323 88.1898 31.2902 86.8965 29.868 85.2953C28.0746 83.3246 25.9103 80.738 25.1064 79.5063C24.7972 79.0752 24.7972 78.7673 24.7972 78.6441C24.7972 78.2746 24.9827 78.0283 25.3537 77.6588C26.2813 76.7966 28.5075 74.7027 29.7443 72.7935C30.6719 71.3155 31.1047 70.0222 31.1047 68.9137C31.1047 66.0808 28.5075 63.8637 25.7248 63.8637C23.9315 63.8637 22.2618 64.8491 21.0869 66.6966C19.5409 69.16 17.7476 71.9929 16.5727 73.1631C16.2635 73.471 16.1398 73.5326 15.8925 73.5326C15.5214 73.5326 15.3359 73.2862 15.3359 72.8551V69.5911C15.3359 66.3887 13.4189 63.8637 10.0178 63.8637C6.55486 63.8637 4.69971 66.4503 4.69971 69.5911V89.5447C4.69971 92.7471 6.55486 95.2721 10.0178 95.2721C13.4189 95.3337 15.3359 92.7471 15.3359 89.6063Z" fill="#E42313"/>
<path d="M103.27 98.5977C105.187 98.5977 105.991 99.5215 105.991 101.123C105.991 103.894 103.394 107.774 98.323 110.668C89.8511 115.41 75.3809 116.765 55.2834 116.765C35.186 116.765 20.7158 115.41 12.2439 110.668C7.17314 107.835 4.57593 103.956 4.57593 101.123C4.57593 99.5215 5.44167 98.5977 7.29682 98.5977H103.27Z" fill="#F07E26"/>
<path d="M103.27 36.7663H7.35883C5.44184 36.7663 4.63794 35.7809 4.63794 34.0565C4.63794 23.7102 20.2831 5.35789 55.3454 5.35789C90.0368 5.35789 106.053 23.6487 106.053 34.0565C106.053 35.7809 105.187 36.7663 103.27 36.7663Z" fill="#F07E26"/>
<path d="M97.0864 49.6376C96.5298 49.6376 96.2825 49.3296 96.2825 48.8985V46.6815C96.2825 46.2504 96.5298 45.9424 97.0864 45.9424H97.5193C98.8797 45.9424 99.3126 46.9278 99.3126 47.7284C99.3126 48.529 98.8797 49.6376 97.5193 49.6376H97.0864ZM71.98 42.1242C70.6195 41.1388 68.7026 40.3998 65.858 40.3998C60.7872 40.3998 55.902 43.7254 55.902 51.3619C55.902 58.6906 60.7872 62.0777 65.6725 62.0777C70.8051 62.0777 74.0207 58.8137 74.0207 54.1333C74.0207 51.1156 72.2273 49.0217 68.5789 49.0217H67.5276C65.6106 49.0217 64.1265 49.9455 64.1265 51.9778C64.1265 53.7638 65.7343 54.6875 66.9092 54.6875C67.5276 54.6875 67.8987 54.8723 67.8987 55.365C67.8987 55.9192 67.2184 56.3503 66.4145 56.3503C64.0028 56.3503 62.3332 54.6259 62.3332 51.4235C62.3332 47.8516 64.6212 46.5583 66.3527 46.5583C68.517 46.5583 68.8881 47.6668 70.3722 47.6668C72.1037 47.6668 73.2786 46.2504 73.2786 44.7723C73.2168 43.5406 72.7221 42.6784 71.98 42.1242ZM84.7805 53.7638H82.5544C81.9978 53.7638 81.7505 54.0717 81.7505 54.5028V55.1186C81.7505 55.5497 81.9978 55.8576 82.5544 55.8576H85.4608C87.2541 55.8576 88.7382 56.9046 88.7382 58.8137C88.7382 60.7844 87.3159 61.8314 85.4608 61.8314H79.3388C76.7416 61.8314 75.5048 60.3533 75.5048 58.321V44.0333C75.5048 42.001 76.7416 40.523 79.3388 40.523H85.4608C87.2541 40.523 88.7382 41.5699 88.7382 43.479C88.7382 45.4498 87.3159 46.4967 85.4608 46.4967H82.5544C81.9978 46.4967 81.7505 46.8046 81.7505 47.2357V47.7284C81.7505 48.1595 81.9978 48.4674 82.5544 48.4674H84.7805C86.3265 48.4674 87.5633 49.3912 87.5633 51.054C87.5633 52.7168 86.3265 53.7638 84.7805 53.7638ZM90.1605 58.5058C90.1605 60.4765 91.2736 62.0161 93.3761 62.0161C95.4786 62.0161 96.5917 60.4765 96.5917 58.5058V55.057C96.5917 54.6259 96.7772 54.4412 97.0864 54.4412C97.4574 54.4412 97.5811 54.6875 97.6429 55.057C97.9521 56.7198 98.6942 58.9369 99.6218 60.107C100.735 61.585 101.786 62.0161 102.837 62.0161C104.507 62.0161 105.991 60.6613 105.991 59.0601C105.991 57.9515 105.558 57.1509 104.94 56.4119C103.827 54.9955 103.147 54.1333 102.714 52.9631C102.59 52.7168 102.652 52.4705 102.961 52.2241C103.95 51.4235 105.125 49.6991 105.125 46.9894C105.125 42.8632 101.724 40.523 97.5811 40.523H93.9945C91.3973 40.523 90.1605 42.001 90.1605 44.0333V58.5058ZM39.7003 58.5058C39.7003 60.4765 40.8134 62.0161 42.9159 62.0161C45.0184 62.0161 46.1315 60.4765 46.1315 58.5058V55.057C46.1315 54.6259 46.317 54.4412 46.6262 54.4412C46.9973 54.4412 47.1209 54.6875 47.1828 55.057C47.492 56.7198 48.234 58.9369 49.1616 60.107C50.2747 61.585 51.326 62.0161 52.3772 62.0161C54.0468 62.0161 55.531 60.6613 55.531 59.0601C55.531 57.9515 55.0981 57.1509 54.4797 56.4119C53.5521 55.1802 52.6864 54.1333 52.2535 52.9631C52.1299 52.7168 52.1917 52.4705 52.5009 52.2241C53.4903 51.4235 54.6652 49.6991 54.6652 46.9894C54.6652 42.8632 51.2641 40.523 47.1209 40.523H43.4725C40.8753 40.523 39.6385 42.001 39.6385 44.0333V58.5058H39.7003ZM46.6262 49.6376C46.0697 49.6376 45.8223 49.3296 45.8223 48.8985V46.6815C45.8223 46.2504 46.0697 45.9424 46.6262 45.9424H47.0591C48.4195 45.9424 48.8524 46.9278 48.8524 47.7284C48.8524 48.529 48.4195 49.6376 47.0591 49.6376H46.6262ZM11.1928 52.9631H11.7494C13.2953 52.9631 13.79 54.0101 13.79 54.9339C13.79 55.7961 13.3572 56.9662 11.7494 56.9662H11.1928C10.6363 56.9662 10.3889 56.6582 10.3889 56.2272V53.7022C10.3889 53.2711 10.6363 52.9631 11.1928 52.9631ZM11.1928 49.0833C10.6363 49.0833 10.3889 48.7754 10.3889 48.3443V46.1272C10.3889 45.6961 10.6363 45.3882 11.1928 45.3882H11.6257C13.048 45.3882 13.419 46.3735 13.419 47.1741C13.419 47.9748 12.9861 49.0833 11.6257 49.0833H11.1928ZM8.47192 61.8314H13.048C17.3767 61.8314 20.0357 58.9369 20.0357 55.365C20.0357 52.4705 18.3042 51.1772 17.9332 50.8077C17.7477 50.6845 17.624 50.5613 17.624 50.4382C17.624 50.2534 17.7477 50.1918 17.8714 50.0071C18.4897 49.268 19.1081 48.1595 19.1081 46.4967C19.1081 42.6169 16.4491 40.523 12.3677 40.523H8.47192C5.87471 40.523 4.63794 42.001 4.63794 44.0333V58.321C4.63794 60.3533 5.87471 61.8314 8.47192 61.8314ZM29.5588 62.0161C24.3026 62.0161 21.5198 58.8753 21.5198 54.9339V43.9717C21.5198 42.001 22.6329 40.4614 24.7354 40.4614C26.8379 40.4614 28.0129 42.001 28.0129 43.9717V54.5644C28.0129 55.365 28.3839 56.2272 29.5588 56.2272C30.7338 56.2272 31.1666 55.3034 31.1666 54.5644V43.9717C31.1666 42.001 32.2797 40.4614 34.3822 40.4614C36.4847 40.4614 37.5978 42.001 37.5978 43.9717V54.8723C37.6597 58.8753 34.8151 62.0161 29.5588 62.0161Z" fill="#E42313"/>
<path d="M45.5131 70.0222C45.5131 66.635 43.5343 63.9253 39.8858 63.9253C36.2374 63.9253 34.2585 66.635 34.2585 70.0222V89.2367C34.2585 92.6239 36.2374 95.3337 39.8858 95.3337C43.5343 95.3337 45.5131 92.6239 45.5131 89.2367V70.0222Z" fill="#E42313"/>
<path d="M105.249 95.4568C105.249 96.3806 104.569 97.0581 103.641 97.0581C102.714 97.0581 102.033 96.3806 102.033 95.4568C102.033 94.5331 102.714 93.8556 103.641 93.8556C104.569 93.8556 105.249 94.5331 105.249 95.4568ZM104.878 95.4568C104.878 94.7794 104.383 94.2251 103.703 94.2251C103.023 94.2251 102.528 94.7794 102.528 95.4568C102.528 96.1343 103.023 96.6885 103.703 96.6885C104.321 96.6885 104.878 96.1343 104.878 95.4568ZM104.26 96.1343C104.321 96.1959 104.26 96.2574 104.198 96.2574H104.074C104.012 96.2574 103.95 96.2574 103.889 96.1959C103.827 96.0111 103.703 95.8263 103.641 95.6416H103.456V96.1959C103.456 96.2574 103.394 96.319 103.332 96.319H103.208C103.147 96.319 103.085 96.2574 103.085 96.1959V94.7794C103.085 94.7178 103.147 94.6562 103.208 94.6562H103.703C104.012 94.6562 104.26 94.841 104.26 95.1489C104.26 95.3953 104.136 95.5184 104.012 95.58C104.012 95.7648 104.136 95.9495 104.26 96.1343ZM103.456 95.3337H103.703C103.827 95.3337 103.95 95.2721 103.95 95.1489C103.95 95.0257 103.889 94.9642 103.703 94.9642H103.456V95.3337Z" fill="#E42313"/>
</g>
<defs>
<clipPath id="clip0_205_871">
<rect width="111" height="122" fill="white"/>
</clipPath>
</defs>
</svg>
