<svg width="389" height="78" viewBox="0 0 389 78" fill="none" xmlns="http://www.w3.org/2000/svg">
<g clip-path="url(#clip0_215_500)">
<path d="M277.794 38.287C278.181 37.6838 279.012 36.4224 278.071 35.8191C277.517 35.49 276.686 36.2578 276.354 36.7514C276.354 36.7514 275.412 37.4095 273.862 40.6453C275.301 40.8647 277.129 39.2742 277.794 38.287Z" fill="#00703C"/>
<path d="M289.756 56.6047L289.368 56.3305C288.372 56.9337 287.541 56.9337 287.042 56.7144C285.381 55.8369 287.209 52.0527 287.209 51.9978L288.316 49.9686C291.584 44.6488 293.799 43.881 290.642 42.6745C289.258 41.6873 283.941 45.307 280.95 48.5976C282.113 46.1845 284.882 41.7422 284.439 41.3582C283.886 40.8098 281.338 40.6453 280.175 40.9743C280.729 42.0164 279.843 43.4423 279.843 43.4423C279.843 43.4423 276.631 50.4622 276.465 50.7913C275.468 53.4238 272.588 58.5242 273.142 58.7436C273.64 58.9629 275.246 59.7856 275.911 59.4565C278.181 54.1916 283.498 49.6396 284.55 49.859C283.11 52.4366 281.283 58.25 283.276 59.5114C285.104 60.6631 287.928 59.3468 289.147 57.3725C289.701 56.7692 289.479 57.4273 289.756 56.6047Z" fill="#00703C"/>
<path d="M221.415 46.349C225.68 40.042 228.338 47.4459 230.719 44.4843C231.827 43.0036 230.609 42.0164 229.279 41.1389C228.615 40.7001 226.344 39.713 223.409 40.8098C222.578 40.9744 222.689 39.4387 222.246 39.4936C221.249 39.713 220.474 39.0548 220.197 39.7678C220.474 40.9744 218.148 46.1845 216.819 50.0235C216.043 52.2721 214.271 58.5242 213.606 59.0726C213.994 59.8405 216.209 59.2372 216.708 58.4694L220.529 48.2685L221.415 46.349Z" fill="#00703C"/>
<path d="M196.826 16.6788C192.451 14.156 185.03 15.2528 183.036 18.4337C182.039 20.0242 180.655 23.589 181.818 23.4793C183.701 23.26 189.073 17.5563 193.614 20.0242C200.924 23.6987 199.706 36.3675 192.118 47.1168C185.307 56.4402 174.784 60.334 169.135 55.9466C162.711 51.943 160.163 41.5776 166.255 31.3219C170.797 20.2436 182.427 17.282 182.87 16.5142C183.313 15.8013 183.645 15.3625 182.87 14.8689C181.873 14.2657 177.609 15.6916 175.947 16.4594C171.406 18.5434 166.034 23.5342 163.099 29.0733C160.606 33.6253 158.723 38.1773 158.945 44.594C159.222 52.4914 162.656 57.0983 166.698 59.292C170.963 61.4309 172.735 62.2535 175.947 61.76C182.205 60.8276 189.46 57.208 195.663 47.7749C202.586 37.4095 205.022 21.3953 196.826 16.6788Z" fill="#00703C"/>
<path d="M236.645 68.8896L235.205 71.0285C234.707 71.7414 235.205 72.5092 235.759 72.7835C239.857 74.5933 245.008 72.7835 247.666 68.5605C250.601 65.2699 255.253 53.2592 258.687 47.4458C259.629 45.9102 260.847 43.4971 260.625 43.2229C259.684 42.0164 258.244 40.9743 257.912 42.2906C257.358 41.084 256.416 40.6453 255.253 40.1517C251.543 38.5612 248.109 41.084 245.174 45.636C244.122 47.2813 243.014 48.8718 242.405 52.8205C241.131 54.4658 234.762 57.9758 232.99 56.8789C232.602 56.6595 232.159 55.6723 232.602 55.5627C233.599 55.2884 238.584 51.7236 240.3 49.0363L241.02 47.8846C241.796 46.678 242.294 43.3874 239.968 41.9615C237.31 40.3162 234.042 42.6196 232.159 45.1424C229.612 47.5007 228.061 54.027 228.061 54.027C227.12 55.1239 224.96 53.8077 224.683 55.1239C224.517 55.782 224.627 56.2208 224.904 56.8241C225.403 57.8112 227.673 55.8917 228.227 57.0983C228.615 57.9758 228.283 58.1951 230.664 59.7307C234.375 62.0342 241.186 56.9886 242.516 56.5498C245.34 60.7179 247.998 58.4145 249.383 58.4694C249.826 58.4694 247.5 63.5698 245.562 65.7635C241.463 71.7963 236.645 68.8896 236.645 68.8896ZM231.605 52.4914C231.605 50.7913 232.768 48.9266 234.485 46.8974C235.095 46.1844 236.534 44.5391 237.587 45.1973C238.251 45.636 237.919 46.7329 237.31 47.6652C237.31 47.6652 232.879 53.2044 231.605 52.4914ZM246.946 54.3013C245.949 53.5883 246.614 50.5171 248.663 47.1716C250.435 44.9231 252.65 43.2229 254.257 44.3198C255.309 45.0327 254.977 46.2941 253.481 49.0911C251.321 52.7108 248.441 55.2884 246.946 54.3013Z" fill="#00703C"/>
<path d="M261.844 59.0726C265.444 60.8825 269.653 57.5919 273.529 51.3946C276.52 46.5135 275.634 42.3454 274.139 41.8518C273.086 42.0164 272.976 42.0164 273.142 40.8098C269.376 38.2322 263.173 43.0584 260.57 47.7749C256.749 54.74 259.905 58.0855 261.844 59.0726ZM265.111 47.6104C266.607 45.8554 269.32 43.0584 271.259 44.6488C271.979 45.2521 271.923 48.0491 270.096 50.6816C268.047 53.698 265.444 56.1659 263.616 54.8497C261.844 53.6431 264.004 48.9266 265.111 47.6104Z" fill="#00703C"/>
<path d="M213.163 39.2194C210.727 37.7386 207.57 38.8903 207.238 38.8355C206.075 38.6161 212.776 24.9053 212.333 24.0826C211.723 23.0954 209.841 21.5598 209.397 22.2728C209.121 22.7115 207.238 26.5506 202.364 41.8518C201.201 45.3618 199.484 50.0783 199.484 50.0783C199.484 50.0783 197.103 57.3176 196.604 57.7015C196.327 58.4694 199.263 59.2372 199.54 58.9629C200.038 58.5242 199.65 57.9209 200.038 58.25C201.921 60.0598 208.345 60.2792 212.61 53.3689L213.662 51.6139C216.043 47.7749 216.376 41.1389 213.163 39.2194ZM203.693 55.1788C201.699 54.0819 203.084 50.1332 205.022 46.2941C206.351 43.7165 209.121 41.7421 210.782 42.7293C211.723 43.3326 212.665 46.0748 210.56 50.5171C209.01 53.7528 205.964 56.3853 203.693 55.1788Z" fill="#00703C"/>
<path d="M132.805 41.797C134.466 40.4807 137.955 41.0292 138.786 40.1517C139.728 39.2193 138.841 38.5612 138.398 37.9031C135.463 35.9287 128.651 38.7806 127.377 41.0292C124.719 45.8005 136.46 47.1168 133.525 52.4366C132.528 53.9722 131.365 56.495 127.433 55.453C127.544 54.1367 127.377 55.0691 126.713 53.9174C124.941 52.0527 122.725 52.2721 121.839 53.8077C120.787 55.7272 122.005 57.208 124.055 58.3597C126.381 59.6211 133.525 60.005 136.571 54.8497C141.666 46.2941 131.254 43.1132 132.805 41.797Z" fill="#00703C"/>
<path d="M48.4588 35.5997C44.9144 43.7714 43.1976 53.1496 41.5361 57.3725C41.0377 59.1823 43.0314 60.2792 44.0837 58.3597C46.2436 52.2172 50.6187 43.2778 51.8371 36.4772C52.114 34.8319 49.2895 33.735 48.4588 35.5997Z" fill="#00703C"/>
<path d="M58.3168 41.084C59.8121 39.6581 63.4119 39.8775 64.1873 38.9452C65.018 37.9031 64.1319 37.4095 63.6335 36.7514C60.5321 35.0513 54.0524 38.9452 53.0002 41.3034C50.7296 46.2942 63.3012 46.5135 60.4767 52.8754C59.646 54.4658 59.5352 56.1111 55.0493 55.8917C54.4401 55.5627 54.3294 55.3433 54.274 54.74C52.391 52.8205 50.0096 53.4238 49.2896 55.0143C48.4035 56.9886 49.4558 58.25 51.6157 59.1823C54.0524 60.2792 61.3074 59.8953 63.855 54.5207C68.064 45.4167 56.8769 42.51 58.3168 41.084Z" fill="#00703C"/>
<path d="M121.895 58.1403C118.904 57.4822 116.301 56.7692 116.8 52.8753C119.07 50.0783 123.778 42.3454 125.218 39.5484C126.159 37.5741 127.821 33.5157 128.43 32.4736C130.091 31.4865 141.278 31.5961 149.087 26.2763C149.863 25.8924 149.586 24.3568 148.976 24.302C142.275 24.9601 136.183 28.5798 129.648 27.5377C130.258 22.8761 130.867 21.1759 128.818 19.6952C125.605 18.6531 122.781 24.3568 120.344 27.5926C119.68 29.0734 109.822 27.5377 103.287 28.854C101.736 29.4024 102.179 31.5961 102.179 31.5961C106.333 33.1866 115.028 32.0349 117.631 32.5285C113.643 38.7258 112.369 49.6944 113.145 52.1075C111.096 54.8497 105.28 57.9209 103.287 53.7528C102.844 53.0399 106.72 53.4786 109.766 48.2685C112.812 43.0584 112.591 37.8483 110.431 36.9159C104.505 35.3803 98.0255 47.7201 98.3577 51.8882C97.4163 52.4366 96.4194 52.7657 96.0871 51.23C95.4225 49.5299 99.6315 44.4295 100.85 37.7934C100.961 36.7514 97.7485 34.2835 97.6378 35.5449C96.7517 40.9744 92.9857 52.2721 88.5552 52.8753C85.9523 51.9979 87.6691 46.7877 91.6566 41.1389C91.9335 40.4259 89.2752 37.4644 88.7767 39.713C87.8906 41.9615 85.7307 44.9779 85.2877 47.7201C84.6785 50.1332 84.2908 55.0142 86.4507 55.782C89.4413 56.8789 91.2135 56.3853 93.9272 52.9302C94.7026 54.3561 96.4748 55.0691 98.1916 54.74C105.114 64.9409 112.978 56.1659 113.809 55.8369C114.585 59.0726 119.569 61.1567 120.455 61.047C121.23 60.9373 122.615 59.1823 121.895 58.1403ZM103.121 49.9687C102.234 49.5299 102.954 47.3362 104.062 45.3618C105.17 43.3326 106.942 40.9744 107.883 41.5776C108.936 42.0164 107.828 44.7585 106.776 46.7329C105.668 48.7621 104.117 50.4074 103.121 49.9687ZM125.993 25.015C126.658 25.1795 126.436 26.7699 126.104 27.812C125.495 28.141 123.889 27.6474 123.889 27.6474C123.889 26.5506 125.384 24.7956 125.993 25.015ZM116.634 46.9523C115.581 46.2941 119.015 36.0933 121.618 32.7479C121.84 32.3091 124.11 32.6382 124.387 32.9124C121.286 41.6325 117.797 46.2393 116.634 46.9523Z" fill="#00703C"/>
<path d="M85.8969 42.51C86.34 41.6873 86.5061 40.4808 83.3494 39.8775C78.1435 31.651 70.5008 39.2742 67.3995 45.7457C65.1842 50.4623 65.9595 53.9722 69.2824 55.8369C69.5593 56.0014 70.2793 56.7144 74.6545 56.0014C75.6513 55.8369 72.1623 63.6247 66.0703 75.4708C66.3472 76.1838 68.9502 78.1033 69.504 77.2806C76.3713 63.4053 84.9 43.1681 85.8969 42.51ZM78.5865 46.7878C76.6482 49.4202 74.156 52.8754 71.6638 52.2172C70.6116 51.943 69.2824 49.5299 73.1038 44.0456C76.6482 39.713 78.2543 39.8227 80.0265 41.1937C80.7464 41.7422 80.5249 44.2101 78.5865 46.7878Z" fill="#00703C"/>
<path d="M35.9426 31.8155C38.767 29.2379 43.9175 23.3696 38.2132 20.2984C28.2999 15.4174 17.8328 20.0242 17.4451 18.2144C17.999 14.5399 20.6573 5.3262 20.9896 1.32264C21.1003 0.170933 18.3866 0.00640318 17.8882 1.92592C16.7806 4.9423 14.5653 15.4174 13.8453 19.6952C12.7931 21.7792 10.3563 21.2308 10.1902 22.8761C9.63634 25.5634 12.9592 24.5214 12.35 26.0021C11.7962 29.7315 9.63634 41.6873 6.59036 52.5463C1.10759 51.1752 4.43048 47.5007 4.81815 46.8974C4.92891 45.2521 -1.82764 47.6104 0.498388 51.8882C1.49526 54.9046 4.48586 56.4402 5.42735 57.3725C5.8704 58.4145 4.87353 60.6631 5.8704 61.3212C6.4796 61.76 6.53498 63.0762 9.02715 59.6211C16.3375 62.9117 34.3919 62.089 40.8162 50.6268C47.0189 39.5484 38.324 34.3932 35.9426 31.8155ZM16.7252 23.26C19.605 21.6147 30.2937 21.1759 35.9426 24.3568C37.161 26.057 33.6719 30.4444 30.9029 30.0605C24.7555 29.2379 20.0481 28.4701 15.2299 30.8832C15.2853 26.9893 15.8945 24.1375 16.7252 23.26ZM29.4076 32.8027C28.2445 33.1318 20.7127 35.6546 19.3281 34.3383C18.6082 33.8447 18.6635 32.9124 19.9927 32.5285C22.0418 31.5961 30.5706 32.4736 29.4076 32.8027ZM37.5486 47.391C30.9029 56.7692 18.7189 61.1567 9.58096 54.6852C9.63634 50.6816 12.0177 42.5648 13.7346 36.4772C26.3616 40.2065 29.7398 33.2414 33.395 35.2158C38.0471 37.7934 40.7054 42.9487 37.5486 47.391Z" fill="#00703C"/>
<path d="M321.878 10.4815C321.878 13.2236 323.705 14.485 325.533 16.4594C326.751 17.7756 327.693 18.9822 329.576 18.9822C330.129 18.9822 330.517 18.4338 330.517 17.8853C330.517 15.8013 328.579 15.2528 327.416 13.5527C325.699 10.9751 325.256 7.57478 322.099 7.57478C321.434 7.57478 320.825 8.01353 320.825 8.67165C320.77 9.4943 321.878 9.65883 321.878 10.4815Z" fill="#FFC425"/>
<path d="M369.063 26.6054C367.623 24.7956 366.183 24.2472 364.3 22.8212C361.309 20.5727 359.316 18.8177 355.55 18.8177C354.497 18.8177 353.944 18.2692 352.891 18.2692C351.23 18.2692 350.344 18.1047 348.682 18.1047C344.529 18.1047 342.203 19.5855 338.548 21.5598C332.179 25.015 329.077 29.9509 328.69 37.1353C328.579 39.3839 328.69 40.7001 328.856 42.9487C329.188 46.6781 330.849 48.5427 332.677 51.8333C334.006 54.1916 335.446 55.5627 337.994 56.5499C340.541 57.537 342.258 57.0983 344.916 57.8113C347.021 58.3597 348.35 58.3597 350.565 58.3597C353.888 58.3597 355.716 57.3177 358.817 56.0014C363.248 54.0819 365.74 52.4366 368.897 48.7621C371.001 46.2942 372.718 44.594 372.718 41.3583C372.718 39.9323 373.106 39.1645 373.106 37.7386C373.106 35.5997 372.386 34.3932 371.444 32.4737C370.392 30.2251 370.613 28.5249 369.063 26.6054Z" fill="#FFC425"/>
<path d="M307.257 39.6581C307.921 39.713 308.309 40.042 308.974 40.042C311.466 40.042 312.684 38.7258 315.121 38.0677C317.115 37.5741 318.333 37.2999 320.216 36.6417C320.659 36.4772 321.324 36.4772 321.324 35.9836C321.324 35.0513 319.884 34.9964 319.884 34.0641C319.884 33.6802 320.271 33.5705 320.271 33.1318C320.271 32.9124 320.105 32.8027 320.105 32.5833C319.275 32.5833 318.832 32.1994 318.001 32.1994C315.509 32.1994 314.567 34.0093 312.241 34.9416C311.133 35.3803 309.527 35.2707 309.527 36.4772C309.527 36.6417 309.694 36.7514 309.694 36.916H310.967C311.189 36.8063 311.3 36.6966 311.521 36.5321L311.909 36.916C310.414 38.2322 309.029 38.1774 307.146 38.8903C307.091 39.2194 307.146 39.3839 307.257 39.6581Z" fill="#FFC425"/>
<path d="M387.726 32.9672C386.895 33.735 385.954 33.4608 384.957 34.0641C383.905 34.6674 383.462 35.7094 382.188 35.7094C381.967 35.7094 381.967 35.3255 381.745 35.3255C380.305 35.3255 379.973 36.6966 378.754 37.2999C378.865 37.6838 379.142 37.8483 379.142 38.1774C379.142 38.3967 378.754 38.3419 378.754 38.5613C378.754 39.0548 379.253 39.4387 379.751 39.4387C383.019 39.4387 384.071 36.1481 387.339 35.9836C387.339 35.5997 387.339 35.4352 387.339 35.1061C388.114 35.0513 389 34.8319 389 34.1189C389 33.4608 388.335 33.2415 387.726 32.9672Z" fill="#FFC425"/>
<path d="M318.388 52.7108C316.949 53.5883 315.841 53.8077 314.567 54.9046C315.619 55.8369 316.062 56.6047 316.782 57.8112C318.388 56.7692 319.551 56.3305 320.991 55.0691C321.656 54.5207 321.545 53.6432 322.265 53.2593C323.151 52.7657 324.259 52.6011 324.259 51.614C324.259 50.6268 322.874 50.5171 321.878 50.5171C320.271 50.5171 319.718 51.8882 318.388 52.7108Z" fill="#FFC425"/>
<path d="M378.588 55.9466C377.813 55.3982 377.536 54.5207 376.594 54.5207C376.151 54.5207 375.93 54.7949 375.487 54.9046C375.653 55.2885 375.764 55.5078 376.041 55.8369C375.819 56.0563 375.487 56.166 375.487 56.495C375.487 57.7564 377.148 57.5919 378.034 58.4145C379.474 59.7308 379.474 62.1987 381.523 62.1987C381.8 62.1987 381.911 61.8148 382.188 61.8148C382.742 61.8148 382.908 62.4181 383.351 62.7472C383.683 62.3633 383.905 62.1439 384.292 61.8148C382.022 59.5114 381.136 57.7564 378.588 55.9466Z" fill="#FFC425"/>
<path d="M357.543 66.2023C357.543 68.9444 358.817 70.4252 358.817 73.1674C359.703 73.1674 360.257 73.8255 360.645 74.5933H361.365V70.5897C361.365 68.2863 361.088 66.6959 359.703 64.7763C358.817 65.2151 357.543 65.2151 357.543 66.2023Z" fill="#FFC425"/>
<path d="M349.956 13.1688C356.38 17.7756 360.368 22.6567 360.368 30.5541C360.368 33.7899 359.703 35.8191 357.986 38.5064C357.1 39.8775 355.439 40.3162 355.439 41.9615C355.439 42.1261 355.605 42.1809 355.605 42.3454H356.491C363.303 40.0969 367.567 37.245 370.779 30.938C372.275 27.9216 373.493 26.057 373.493 22.7115C373.493 21.3405 373.438 20.5178 373.327 19.2016C372.939 15.6367 371.333 13.7172 368.952 11.0299C364.078 5.60043 359.094 3.40669 351.784 3.40669C347.685 3.40669 345.47 4.77777 341.538 5.92948C339.212 6.5876 337.163 7.24572 336.443 9.54914H339.71C343.975 9.54914 346.522 10.7557 349.956 13.1688Z" fill="#00703C"/>
<path d="M366.792 71.3027C366.792 71.3575 366.792 71.4672 366.792 71.5769C366.792 71.6866 366.792 71.7963 366.792 71.8511V74.0997H367.457V70.7543H366.46L365.85 73.3867L365.241 70.7543H364.244V74.0997H364.909V71.8511C364.909 71.7963 364.909 71.6866 364.909 71.5769C364.909 71.4672 364.909 71.3575 364.909 71.3027L365.518 74.0997H366.183L366.792 71.3027Z" fill="#00703C"/>
<path d="M368.675 73.4416H368.01V74.0997H368.675V73.4416Z" fill="#00703C"/>
<path d="M371.998 73.8255C371.998 73.7706 371.998 73.661 371.998 73.4964V73.2771C371.998 73.0577 371.942 72.8932 371.887 72.7835C371.832 72.6738 371.721 72.5641 371.555 72.5093C371.721 72.4544 371.887 72.3447 371.942 72.1802C371.998 72.0157 372.053 71.8511 372.053 71.6866C372.053 71.5769 372.053 71.4672 371.998 71.3575C371.942 71.2479 371.887 71.1382 371.832 71.0833C371.721 70.9736 371.61 70.9188 371.499 70.864C371.388 70.8091 371.222 70.8091 370.945 70.7543H369.395V74.0997H370.059V72.7835H370.724C370.89 72.7835 371.056 72.8383 371.112 72.8932C371.167 72.948 371.222 73.1125 371.222 73.3319V73.661C371.222 73.7706 371.222 73.8255 371.222 73.9352C371.222 73.99 371.222 74.0449 371.278 74.0997H372.053V73.99C372.053 73.99 371.998 73.9352 371.998 73.8255ZM371.167 72.1802C371.112 72.235 371.001 72.235 370.835 72.235H370.059V71.3575H370.835C371.001 71.3575 371.112 71.3575 371.167 71.4124C371.278 71.4672 371.333 71.6318 371.333 71.7963C371.389 72.0157 371.333 72.1253 371.167 72.1802Z" fill="#00703C"/>
<path d="M373.327 73.4416H372.662V74.0997H373.327V73.4416Z" fill="#00703C"/>
<path d="M337.107 63.131C335.446 65.3248 335.612 67.2443 333.951 69.4929C334.671 70.0413 334.671 70.8639 334.56 71.7414L335.169 72.1802L337.551 68.9993C338.935 67.1346 339.71 65.7087 339.71 63.4052C338.714 63.131 337.717 62.3084 337.107 63.131Z" fill="#FFC425"/>
</g>
<defs>
<clipPath id="clip0_215_500">
<rect width="389" height="77" fill="white" transform="translate(0 0.5)"/>
</clipPath>
</defs>
</svg>
