<svg width="122" height="122" viewBox="0 0 122 122" fill="none" xmlns="http://www.w3.org/2000/svg">
<g clip-path="url(#clip0_205_882)">
<path d="M117.679 -1.51806e-06H65.0933H56.9069H4.32066C4.32066 -1.51806e-06 -0.454732 -0.509751 0.0569174 6.11699L8.75496 117.526C8.75496 117.526 8.69811 121.943 14.3263 121.943H57.9302H64.1837H107.788C113.359 121.943 113.359 117.526 113.359 117.526L122.057 6.11699C122.455 -0.453112 117.679 -1.51806e-06 117.679 -1.51806e-06Z" fill="white"/>
<path d="M30.4147 86.4308H9.66452L3.35417 6.74002C3.01307 3.51161 5.62817 3.45497 5.62817 3.45497H30.4716" fill="#E12F2E"/>
<path d="M91.8127 86.4308H112.563L118.873 6.74002C119.214 3.51161 116.599 3.45497 116.599 3.45497H91.7559" fill="#E12F2E"/>
<path fill-rule="evenodd" clip-rule="evenodd" d="M65.3206 89.8858C65.15 89.8858 64.9226 89.8858 64.7521 89.8858C64.7521 89.8858 64.7521 89.8858 64.6952 89.8858C63.5582 89.6592 62.4781 89.3194 61.3979 88.9796C61.2842 88.9229 61.1705 88.8663 61.0568 88.8097C60.8863 88.6964 60.8294 88.5265 60.8863 88.3565C60.8863 88.2433 60.9431 88.13 61 88.0733C61.0568 87.9034 61.1705 87.7335 61.1705 87.507C61.2274 87.2804 61.2274 87.0538 61.2274 86.8273C61.2274 86.0343 61.2842 85.2414 61.2842 84.4485C61.3411 82.8059 61.3411 81.1068 61.3979 79.4642C61.3979 79.2943 61.3411 79.1244 61.2842 78.9545C61.1705 79.0678 61.0568 79.1811 61 79.351C60.4883 80.597 59.8061 81.6732 59.0102 82.7493C58.1575 83.8821 57.2479 84.9016 56.2246 85.9211C56.1677 85.9777 56.1109 86.0343 56.054 86.091C55.7129 86.3742 55.315 86.4875 54.8602 86.3175C54.2917 86.1476 53.7232 85.9211 53.0979 85.7512C52.5862 85.5812 52.1882 85.4113 51.7903 85.0715C51.7334 85.0715 51.7335 85.0149 51.6766 85.0149C55.1444 81.8431 58.0438 78.2748 60.0335 74.0836C60.0335 74.0269 59.9767 74.0269 59.9767 74.0269C59.9198 73.9136 59.863 73.857 59.6924 73.9137C59.4082 73.9703 59.1808 73.9703 58.8965 73.9703C58.4986 74.0269 58.0438 74.0269 57.589 74.0269C56.7362 74.0836 55.8266 74.1402 54.9739 74.1968C54.4622 74.2535 53.9506 74.2535 53.3821 74.3101C52.9273 74.3101 52.5293 74.2535 52.1314 74.0269C51.904 73.9136 51.7335 73.6871 51.6198 73.4605C51.5629 73.234 51.5629 73.0641 51.5629 72.8375C51.5629 72.2145 51.6198 71.5348 51.6198 70.9118C51.6198 70.5153 51.6198 70.1755 51.6198 69.779C51.6198 69.2693 51.904 68.9294 52.4156 68.8728C52.8136 68.8162 53.2116 68.7595 53.6095 68.7029C54.178 68.6462 54.7465 68.5896 55.315 68.4763C55.315 68.4763 55.3718 68.4763 55.3718 68.4197C55.0876 68.1931 54.8602 67.9099 54.5191 67.74C53.4958 67.117 52.4725 66.494 51.5629 65.7577C50.3122 64.7948 49.1752 63.7753 48.2088 62.4726C46.5033 60.2071 45.5937 57.715 45.7074 54.883C45.7074 54.4299 45.6505 54.0334 45.4231 53.6936C44.9683 52.7307 44.5704 51.7679 44.2293 50.7484C43.945 49.8422 43.7745 48.8793 43.7176 47.9164C43.6608 47.4067 43.7176 46.8403 43.7176 46.3306C43.7176 46.1606 43.6608 45.9907 43.6039 45.8208C43.4902 45.6509 43.3765 45.5376 43.2628 45.3677C42.4669 44.5181 41.7279 43.6119 40.9888 42.7057C39.6813 40.8932 38.6011 38.9109 37.9758 36.702C37.6915 35.7957 37.521 34.8895 37.4073 33.9267C37.2936 32.9638 37.3504 31.9443 37.4073 30.9814C37.4641 30.0186 37.5778 29.1124 37.6915 28.2061C37.7484 27.2433 37.8621 26.2238 37.9189 25.2609C37.9758 24.6945 37.9758 24.1281 37.9758 23.5617C37.9758 22.8821 37.9189 22.2591 37.6915 21.5794C37.4641 20.8997 37.123 20.2767 36.6682 19.7103C36.4977 19.5404 36.384 19.3705 36.3271 19.0873C36.3271 19.0306 36.2703 19.0306 36.2703 19.0306C36.2703 18.974 36.2703 18.8607 36.2703 18.8041C36.2703 18.7474 36.3271 18.6908 36.3271 18.6908C36.384 18.5775 36.384 18.4643 36.4408 18.351C36.7251 17.8412 37.0662 17.5014 37.5778 17.2748C37.9758 17.1049 38.4306 16.9916 38.8285 16.8784C39.9655 16.6518 41.1025 16.312 42.1827 15.9155C42.4101 15.8022 42.6375 15.689 42.8649 15.519C43.206 15.2358 43.4902 14.9526 43.7745 14.6695C43.8313 14.6128 43.8313 14.6128 43.8882 14.5562C43.7745 14.4429 43.6608 14.3863 43.5471 14.3296C43.1491 14.1031 42.7512 13.8765 42.3532 13.65C41.9553 13.4234 41.5573 13.1402 41.2162 12.8004C40.8183 12.4039 40.534 12.0074 40.3635 11.441C40.3635 11.3844 40.3635 11.3844 40.3066 11.3278C40.6477 11.2711 40.932 11.2711 41.2162 11.2145C42.069 11.1578 42.9217 10.9313 43.7176 10.5915C45.2526 9.96843 46.3327 8.94894 46.7875 7.36305C46.8444 7.19313 46.9581 7.02322 47.1286 6.90994C47.2992 6.79666 47.4129 6.68338 47.5834 6.62674C47.8677 6.51347 48.1519 6.40019 48.4362 6.23027C51.1081 5.0975 53.8937 4.24791 56.7931 3.7948C57.6458 3.68153 58.5554 3.56825 59.4082 3.56825C59.5787 3.56825 59.8061 3.51161 59.9767 3.45497C60.2041 3.45497 60.4315 3.45497 60.6589 3.45497C60.7157 3.45497 60.7157 3.51161 60.7726 3.51161C61.5685 3.62489 62.3644 3.73817 63.1603 3.85144C63.7856 3.96472 64.4678 4.02136 65.0932 4.19128C66.5713 4.53111 67.9925 4.98422 69.3569 5.55061C71.0624 6.28691 72.7111 7.13649 74.246 8.21263C76.1221 9.51532 77.7707 11.1012 79.1351 12.9137C80.4995 14.6695 81.5228 16.6518 82.2619 18.7474C82.8304 20.2767 83.1715 21.8059 83.3989 23.3918C83.5126 24.2414 83.5694 25.0344 83.6263 25.8839C83.6831 26.7902 83.6263 27.6964 83.5694 28.6026C83.5126 29.4522 83.3989 30.3018 83.2283 31.1513C83.1715 31.3779 83.1715 31.6045 83.1146 31.7744C83.342 31.8877 83.5126 32.0009 83.6831 32.1142C84.3085 32.5107 84.7064 33.1337 84.877 33.8134C84.877 33.9267 84.9338 34.0399 84.9338 34.0966C84.9338 34.3798 84.9338 34.7196 84.9338 35.0028C84.9338 35.0028 84.9338 35.0594 84.877 35.0594C84.8201 35.3426 84.8201 35.6258 84.7064 35.909C84.2516 37.948 83.6263 39.987 82.7735 41.9127C82.0345 43.6685 81.1817 45.3111 80.3858 47.0102C80.2721 47.2368 80.1584 47.4633 79.9879 47.6332C79.6468 48.0863 79.2488 48.3129 78.7372 48.4262C78.5666 48.4828 78.3392 48.4828 78.1687 48.4828C77.8844 48.4828 77.7139 48.6527 77.657 48.8793C77.657 48.9926 77.6002 49.1059 77.6002 49.2191C77.6002 49.389 77.6002 49.6156 77.657 49.7855C77.657 50.4652 77.657 51.2015 77.657 51.8812C77.6002 52.6175 77.5433 53.3538 77.3728 54.0334C77.1454 55.2795 76.8043 56.5255 76.4063 57.7716C75.781 59.6407 74.8145 61.2832 73.507 62.7558C72.2563 64.1718 70.835 65.3612 69.2432 66.4373C68.6179 66.8338 67.9925 67.2303 67.3672 67.5701C67.0261 67.7967 66.685 68.0232 66.3439 68.1931C66.3439 68.1931 66.287 68.1931 66.287 68.2498C66.3439 68.3064 66.3439 68.363 66.3439 68.4197C66.4007 68.4197 66.4576 68.4197 66.5144 68.4197C66.9124 68.363 67.3103 68.3064 67.7651 68.3064C67.9925 68.3064 68.1631 68.3064 68.3905 68.3064C68.959 68.3064 69.4706 68.3064 70.0391 68.363C70.6076 68.363 70.9487 68.6462 71.0056 69.2126C71.0056 69.3259 71.0056 69.4958 71.0056 69.6657C71.0056 70.572 71.0056 71.4782 70.9487 72.3278C70.9487 72.3844 70.9487 72.441 70.9487 72.4977C70.9487 72.7242 70.8919 73.0074 70.835 73.234C70.7213 73.5172 70.5508 73.6871 70.2097 73.8004C69.9254 73.9137 69.6412 73.9137 69.3569 73.9137C68.6179 73.857 67.9357 73.857 67.1966 73.8004C66.1165 73.7437 65.0363 73.7437 63.9562 73.6871C63.7856 73.6871 63.6151 73.6871 63.5014 73.7437C63.5582 73.9703 63.6151 74.1402 63.6719 74.3101C64.013 75.4995 64.2973 76.7456 64.4678 77.935C64.6384 79.0678 64.8089 80.2572 64.9226 81.4466C65.0363 82.4661 65.0932 83.4856 65.15 84.5051C65.2069 85.298 65.2069 86.1476 65.2069 86.9406C65.2069 87.6769 65.2069 88.4132 65.15 89.1495C65.6048 89.4893 65.548 89.7159 65.3206 89.8858ZM46.8444 12.6871C47.1855 12.6305 47.5266 12.6305 47.8677 12.5738C48.6067 12.4605 49.2889 12.2906 50.028 12.1773C51.165 12.0074 52.302 11.9508 53.4389 12.0074C54.5191 12.0641 55.5992 12.1773 56.6225 12.4605C58.4986 12.9703 60.1472 13.8199 61.6822 15.0659C61.9096 15.2358 62.137 15.4058 62.3075 15.6323C62.5918 15.9155 62.6486 16.2553 62.3644 16.5952C62.3075 16.6518 62.2507 16.7651 62.137 16.8217C61.8527 17.0483 61.5116 17.2182 61.1705 17.3315C60.7157 17.4448 60.3178 17.4448 59.9198 17.2182C58.9534 16.7651 57.9301 16.5385 56.9068 16.4253C56.2814 16.3686 55.5992 16.3686 54.9739 16.3686C54.5191 16.4253 54.0643 16.4253 53.6095 16.5385C52.6431 16.7651 51.7903 17.2182 51.1081 17.9545C50.3691 18.7474 49.7437 19.597 49.2321 20.5599C48.3225 22.2024 47.754 23.9582 47.4129 25.8273C47.356 26.2238 47.2992 26.6202 47.1855 27.0167C47.0718 27.6964 46.7307 28.2061 46.0485 28.546C45.8779 28.6026 45.7642 28.7725 45.7074 28.9424C45.5368 29.3389 45.48 29.7354 45.5368 30.1885C45.5368 30.3018 45.5937 30.4717 45.6505 30.585C45.7642 30.8115 45.9348 30.9248 46.1622 30.8682C46.2759 30.8682 46.3327 30.8682 46.4464 30.8682C46.617 30.8682 46.7875 30.8115 46.9581 30.8115C48.0951 30.8115 49.1752 30.8682 50.3122 30.8682C51.3924 30.8682 52.4156 30.9248 53.4958 30.9248C54.1211 30.9248 54.6896 31.0381 55.315 31.208C56.5088 31.4912 57.589 32.0576 58.4986 32.9072C58.8965 33.3036 59.4082 33.4169 59.9198 33.3036C60.3178 33.247 60.7157 33.1903 61.1137 33.1903C61.2274 33.1903 61.3979 33.1903 61.5116 33.1903C61.9096 33.1903 62.3075 33.1337 62.7623 33.1337C63.0466 33.1337 63.3308 33.0204 63.5582 32.8505C63.9562 32.5673 64.3541 32.3408 64.7521 32.1142C65.548 31.7744 66.4576 31.5478 67.3103 31.5478C67.8788 31.4912 68.4473 31.4912 69.0158 31.4912C70.4939 31.4912 71.972 31.4345 73.4501 31.4912C74.0755 31.5478 74.7577 31.5478 75.383 31.6045C76.3495 31.6611 77.2591 31.831 78.1687 32.0576C78.2824 32.0576 78.3392 32.0576 78.4529 32.0576C78.6235 32.0576 78.7372 31.9443 78.794 31.7744C78.794 31.6611 78.8509 31.5478 78.794 31.4912C78.794 31.208 78.7372 30.9814 78.7372 30.6982C78.6235 29.7354 78.2824 28.8858 77.8276 28.0362C77.2022 27.0167 76.918 25.8839 76.918 24.6945C76.918 23.9016 76.918 23.1086 76.8611 22.3157C76.8611 22.0891 76.918 21.8626 76.918 21.636C77.0317 21.636 77.0885 21.636 77.1454 21.636C77.2022 21.6927 77.2022 21.7493 77.2591 21.8059C77.8276 22.8821 78.3392 23.9582 78.794 25.0344C79.3625 26.3937 79.931 27.8097 80.4995 29.169C80.4995 29.2256 80.5564 29.2823 80.6132 29.3955C80.6701 29.2256 80.7838 29.1124 80.8406 28.9991C81.0112 28.6592 81.1249 28.3194 81.1249 27.9796C81.1249 27.753 81.1249 27.4698 81.1249 27.2433C81.1249 26.2804 81.1817 25.2609 81.1817 24.2981C81.1249 22.9387 80.9543 21.636 80.6701 20.3333C80.3858 18.974 79.931 17.6713 79.3057 16.3686C78.1687 13.9898 76.52 12.0074 74.4166 10.3649C72.9953 9.23213 71.4604 8.32591 69.8117 7.53297C67.0829 6.23027 64.1836 5.60725 61.1137 5.55061C60.2041 5.55061 59.2945 5.60725 58.3849 5.72052C57.3047 5.8338 56.2246 6.06036 55.2013 6.34355C54.2348 6.62674 53.3252 6.90994 52.3588 7.19313C51.904 7.30641 51.5629 7.64624 51.165 7.92944C51.2218 8.04271 51.2218 8.09935 51.2786 8.15599C51.506 8.15599 51.7335 8.15599 51.904 8.15599C52.3588 8.15599 52.6999 8.26927 53.0979 8.49582C53.041 8.6091 52.9273 8.66574 52.8704 8.77902C52.7568 8.94894 52.5862 9.00557 52.4156 9.06221C52.0745 9.17549 51.7903 9.28877 51.4492 9.40205C50.0848 9.96843 48.8341 10.7047 47.6403 11.611C47.2992 11.8375 47.0718 12.1207 46.7307 12.4039C46.7875 12.5172 46.7875 12.5738 46.8444 12.6871ZM78.3961 46.8969C78.5666 46.6137 78.794 46.3306 78.9077 46.0474C79.4762 44.7447 80.0447 43.442 80.5564 42.0826C80.9543 41.0631 81.4091 40.0436 81.6934 38.9675C81.8639 38.3445 82.0345 37.7781 82.0345 37.1551C82.0345 36.5887 81.9776 35.9656 81.9776 35.3993C81.9776 35.3426 81.9208 35.2293 81.9208 35.1727C81.7502 34.8895 81.5797 34.7196 81.2954 34.6063C81.2386 34.5497 81.1249 34.5497 81.0112 34.5497C80.7269 34.6063 80.4995 34.7196 80.2721 34.9461C80.1016 35.1161 80.0447 35.286 80.0447 35.5125C80.1016 35.7391 80.1584 35.909 80.2153 36.1356C80.2721 36.3055 80.329 36.4188 80.3858 36.5887C80.4995 37.0418 80.3858 37.3816 80.0447 37.7215C79.8173 37.8914 79.5899 38.0046 79.3057 38.1179C79.3057 38.1179 79.3057 38.0613 79.2488 38.0613C79.2488 37.8347 79.192 37.6648 79.192 37.4383C79.1351 36.9285 79.1351 36.4188 79.1351 35.909C79.0783 35.4559 79.0783 34.9461 79.0214 34.493C79.0214 34.2665 78.8509 34.0399 78.6803 33.87C78.5666 33.7567 78.3961 33.7001 78.2255 33.7567C78.055 33.8134 77.8844 33.8134 77.7707 33.87C77.1454 34.1532 76.6906 34.6063 76.3495 35.1727C76.2926 35.286 76.2358 35.4559 76.1789 35.5692C76.1221 35.7957 76.0652 35.9656 76.0084 36.1922C75.781 37.0418 75.6104 37.8914 75.2693 38.741C74.9851 39.4773 74.644 40.1003 74.0755 40.6667C73.4501 41.2331 72.7111 41.5729 71.8583 41.6295C71.4604 41.6862 71.233 41.5163 71.1193 41.1764V41.1198C71.0624 41.0065 71.0624 40.9499 71.1761 40.8932C71.233 40.8366 71.2898 40.8366 71.3467 40.8366C71.4604 40.7799 71.5741 40.7799 71.6309 40.7799C72.2563 40.61 72.7679 40.3268 73.2227 39.8737C73.6775 39.4206 73.9618 38.8542 74.1323 38.2312C74.1323 38.1746 74.1323 38.1746 74.1323 38.1179C74.1323 37.948 74.0755 37.8347 73.9618 37.7215C73.7912 37.6082 73.5638 37.5515 73.3364 37.4949C73.109 37.4383 72.8816 37.3816 72.6542 37.325C72.5405 37.2683 72.4268 37.2117 72.37 37.0984C72.3131 36.9851 72.2563 36.8719 72.1426 36.8152C71.8583 36.4754 71.5172 36.3055 71.0624 36.3621C70.9487 36.3621 70.835 36.3621 70.7213 36.4188C70.1528 36.532 69.6412 36.6453 69.0727 36.702C68.561 36.7586 67.9925 36.7586 67.4809 36.6453C66.685 36.532 65.9459 36.2488 65.2637 35.8524C65.0363 35.7391 64.8089 35.6825 64.5247 35.6258C64.5815 35.909 64.6384 36.1356 64.8089 36.4188C64.9795 36.702 64.9226 36.9285 64.6952 37.1551C64.5815 37.2683 64.411 37.3816 64.2404 37.4949C64.1836 37.5515 64.0699 37.5515 63.9562 37.6082C63.7856 37.6648 63.6719 37.6082 63.5582 37.4949C63.5014 37.4383 63.4445 37.325 63.3877 37.2117C63.1034 36.702 62.876 36.1356 62.6486 35.5692C62.5918 35.3993 62.5349 35.2293 62.4212 35.1161C62.137 34.7196 61.7959 34.4364 61.2842 34.4364C61.1137 34.4364 60.9431 34.4364 60.8294 34.493C60.2041 34.6063 59.6924 34.8895 59.4082 35.5125C59.2945 35.7957 59.2376 36.0789 59.1808 36.3621C59.1239 36.8152 59.1239 37.325 59.1239 37.7781C59.0671 38.4578 59.0102 39.0808 58.8397 39.7038C58.726 40.2702 58.5554 40.8366 58.328 41.403C58.1006 41.9694 58.1575 42.4791 58.4417 42.9889C58.5554 43.2154 58.726 43.442 58.8965 43.6685C59.9198 44.9146 61.2274 45.481 62.876 45.3111C63.8993 45.1978 64.8089 44.7447 65.6617 44.1783C66.0028 43.9517 66.1165 43.6685 66.0596 43.2721C66.0028 43.0455 65.9459 42.8189 65.9459 42.5924C65.9459 42.4791 65.8891 42.4225 65.8891 42.3092C65.8891 42.0826 66.0028 41.9127 66.2302 41.9694C66.3439 41.9694 66.4007 41.9694 66.5144 42.026C66.685 42.0826 66.9124 42.1393 67.0829 42.2526C67.424 42.4225 67.7651 42.5924 68.0494 42.8756C68.3905 43.2721 68.7884 43.6685 69.1295 44.065C69.5275 44.5181 69.8686 45.0279 70.2665 45.481C70.7782 46.104 71.3467 46.6137 72.0857 46.9536C72.2563 47.0102 72.37 47.1235 72.4837 47.2368C72.6542 47.35 72.7111 47.52 72.7679 47.6899C72.8816 48.3129 72.9953 48.9926 72.9953 49.6156C72.9953 50.1253 72.9385 50.5785 72.8248 51.0316C72.6542 51.6546 72.37 52.1643 71.972 52.6741C71.4604 53.3538 71.0624 54.0901 70.9487 54.9396C70.835 55.4494 70.6645 55.9591 70.4371 56.4689C70.3802 56.5255 70.3802 56.5822 70.3234 56.6388C70.2097 56.6954 70.0391 56.8087 69.9254 56.8654C69.698 56.6388 69.698 56.5255 69.6412 56.299C69.5843 55.8459 69.5843 55.3361 69.5275 54.883C69.5275 54.7131 69.5275 54.5432 69.4706 54.3733C69.3001 53.467 68.3905 53.0139 67.5946 53.2971C67.3672 53.3538 67.1398 53.467 66.9124 53.5237C65.8891 53.8069 64.9226 53.9768 63.8425 54.0334C62.9329 54.0901 61.9664 54.0334 61.0568 53.9201C60.7157 53.8635 60.3746 53.8635 60.0904 53.8635C59.4082 53.9201 58.8397 54.26 58.3849 54.6565C58.328 54.7131 58.328 54.7131 58.2712 54.7697C58.5554 54.9396 58.8397 55.1096 59.1239 55.2228C59.9767 55.6193 60.3746 56.4123 60.2041 57.3185C60.1472 57.545 60.0904 57.8282 59.9198 58.0548C59.465 57.545 59.0671 57.0353 58.6691 56.5255C58.5554 56.5255 58.4417 56.5822 58.328 56.5822C58.328 56.6388 58.3849 56.6954 58.3849 56.7521C58.4417 57.0353 58.4986 57.3751 58.5554 57.6583C58.6123 58.3946 58.5554 59.1309 58.3849 59.8672C58.2143 60.4902 58.0438 61.1699 57.8732 61.7929C57.8164 62.1328 57.7027 62.416 57.7027 62.7558C57.7027 63.3788 57.8164 64.0019 58.1006 64.6249C58.4986 65.5877 59.1239 66.3807 59.863 67.117C60.6589 67.9666 61.5685 68.7595 62.4212 69.4958C62.5349 69.6091 62.6486 69.6657 62.7623 69.7224C62.9897 69.8357 63.1603 69.779 63.274 69.5525C63.3308 69.4392 63.3877 69.2693 63.4445 69.0993C63.5582 68.6462 63.7288 68.1931 64.013 67.8533C64.2404 67.5135 64.4678 67.2303 64.6952 66.8904C64.9226 66.5506 65.2069 66.2108 65.4343 65.8709C65.8322 65.2479 66.0028 64.5682 65.7754 63.7753C65.7185 63.5487 65.8322 63.3222 65.8322 63.0956C65.9459 63.1523 66.0028 63.2089 66.0596 63.2656C66.1733 63.3788 66.287 63.4355 66.3439 63.5487C66.8555 64.0019 67.3103 64.1151 67.9357 63.7753C68.1062 63.662 68.2768 63.6054 68.4473 63.4921C69.6412 62.8691 70.7782 62.0761 71.8015 61.2266C72.8816 60.2637 73.8481 59.1876 74.5303 57.8849C75.7241 55.7892 76.2926 53.467 76.4632 51.0882C76.52 50.4652 76.4632 49.8422 76.52 49.2191C76.52 48.9926 76.5769 48.766 76.6337 48.5395C76.7474 48.143 76.918 47.7465 77.1454 47.4067C77.3728 47.0102 77.657 46.6137 77.8276 46.2173C77.8276 46.2173 77.8276 46.2173 77.8844 46.2173C77.9981 46.3872 78.1687 46.5005 78.3392 46.6704C78.2255 46.8403 78.3392 46.8403 78.3961 46.8969ZM46.617 41.2331C46.617 41.2331 46.617 41.2897 46.617 41.2331C46.617 41.5163 46.6738 41.7994 46.7307 42.0826C46.7307 42.1393 46.7875 42.1959 46.7875 42.1959C47.1855 42.8756 47.6403 43.6119 48.0382 44.2915C48.2656 44.6314 48.493 44.9146 48.7204 45.1978C49.1184 45.6509 49.6869 45.8208 50.3122 45.6509C50.5396 45.5942 50.767 45.481 50.9944 45.3677C51.4492 45.1411 51.8472 44.8579 52.302 44.6314C52.6999 44.4048 53.041 44.1783 53.4389 44.0084C53.6095 43.8951 53.7801 43.7252 53.8938 43.4986C54.0643 43.0455 54.2348 42.5924 54.4622 42.1393V42.0826C54.4054 42.0826 54.4054 42.0826 54.4054 42.0826C54.0643 42.1393 53.6664 42.1959 53.3253 42.2526C53.0979 42.2526 52.8136 42.3092 52.5862 42.3092C52.3588 42.3092 52.1314 42.1959 52.0177 42.026C51.904 41.8561 51.7903 41.6295 51.6766 41.4596C51.7903 41.403 51.904 41.2897 52.0177 41.2331C52.2451 41.0631 52.5294 41.0065 52.8704 40.9499C53.5526 40.9499 54.2348 40.7799 54.8602 40.4401C55.5992 40.1003 56.054 39.5339 56.3383 38.7976C56.3951 38.6843 56.3951 38.571 56.3951 38.4578C56.3951 38.2312 56.3383 38.0613 56.2246 37.8914C56.1677 37.8347 56.1677 37.7781 56.1109 37.7215C55.8835 37.4949 55.8835 37.2683 56.1109 36.9851C56.2246 36.8152 56.3383 36.6453 56.5088 36.532C56.5657 36.4754 56.5657 36.3621 56.5088 36.3055C56.5088 36.2488 56.452 36.2488 56.452 36.1922C56.2814 36.2488 56.1109 36.3055 55.9972 36.3621C55.2581 36.6453 54.4622 36.6453 53.7232 36.532C53.3252 36.4754 52.9273 36.3621 52.4725 36.3055C52.0177 36.2488 51.5629 36.3055 51.1081 36.4188C50.4828 36.5887 50.028 36.9851 49.63 37.4383C49.5163 37.5515 49.4595 37.6648 49.3458 37.7215C49.1184 37.948 48.8341 38.0046 48.5499 37.8347C48.3793 37.7215 48.2088 37.6082 48.0951 37.4949C48.0382 37.4383 47.9814 37.3816 47.9245 37.325C47.8677 37.2683 47.8108 37.2683 47.754 37.2683C47.4129 37.2683 47.0149 37.325 46.6738 37.4383C46.5601 37.4949 46.5033 37.5515 46.5033 37.6082C46.4464 37.8347 46.4464 38.0613 46.5601 38.2878C46.9581 39.2507 47.5834 40.0436 48.493 40.61C48.6067 40.6667 48.7204 40.7799 48.8341 40.8366C49.0615 40.9499 49.1184 41.1764 49.0615 41.403C49.0047 41.6862 48.891 41.9127 48.5499 42.026C48.493 42.026 48.4362 42.026 48.3225 42.026C48.2088 42.026 48.0951 41.9694 47.9814 41.9127C47.8108 41.7994 47.5834 41.7428 47.4129 41.6295C47.1286 41.5163 46.8444 41.403 46.617 41.2331ZM51.9609 15.1226C51.6766 15.0093 51.2218 14.896 50.9376 14.896C50.3122 14.896 49.6869 15.0093 49.1184 15.2925C47.5834 16.0288 46.1053 16.8217 44.6841 17.6713C44.0019 18.0678 43.3197 18.4643 42.5238 18.7474C41.7847 19.0306 41.0457 19.2572 40.2498 19.2572C40.1361 19.2572 40.0224 19.2572 39.9655 19.2572C39.6244 19.3138 39.5107 19.4838 39.5676 19.8236C39.5676 19.8802 39.6244 19.9935 39.6244 20.0501C39.7381 20.39 39.9087 20.6732 40.0792 20.9564C40.4203 21.5228 40.5909 22.1458 40.7046 22.7688C40.7614 23.3918 40.7046 24.0149 40.6477 24.5812C40.534 25.2609 40.4772 25.9972 40.3635 26.6769C40.2498 27.5265 40.2498 28.3194 40.2498 29.169C40.2498 29.9619 40.3066 30.6982 40.4772 31.4912C40.534 31.7177 40.5909 31.8877 40.6477 32.0576C40.8183 32.3408 41.0457 32.454 41.3299 32.3408C41.5005 32.2841 41.671 32.1708 41.7847 32.1142C41.9553 32.0009 42.069 31.8877 42.1258 31.7177C42.1827 31.5478 42.2395 31.3213 42.2964 31.0947C42.2964 30.6416 42.3532 30.1885 42.3532 29.7354C42.4101 28.9991 42.5238 28.2628 42.6375 27.5265C42.808 26.3937 43.0923 25.2609 43.4902 24.1281C43.6608 23.6184 43.8882 23.1653 44.2293 22.7122C44.6841 22.1458 45.1389 21.5794 45.6505 21.013C45.9916 20.6165 46.3327 20.2201 46.617 19.8236C47.0149 19.1439 47.4697 18.5209 47.9814 17.9545C48.891 16.8784 50.028 16.0288 51.2786 15.4624C51.506 15.4058 51.6766 15.2358 51.9609 15.1226ZM53.5526 49.2758C53.78 49.6722 54.0074 49.8988 54.3485 49.9554C54.5191 50.0121 54.6896 50.0121 54.8602 50.0121C55.4855 50.0121 56.1677 49.8988 56.7931 49.7855C57.589 49.6722 58.3849 49.559 59.1808 49.5023C59.863 49.4457 60.5452 49.4457 61.2842 49.389C62.3644 49.389 63.4445 49.389 64.5247 49.5023C64.9795 49.5023 65.4343 49.559 65.8891 49.6156C66.4007 49.6722 66.9124 49.7289 67.4809 49.7289C67.9357 49.7855 68.3905 49.7855 68.7884 49.8422C69.4138 49.8988 69.9823 49.8988 70.5508 49.7855C70.7782 49.7289 70.8919 49.6156 71.0056 49.4457C71.0624 49.3324 71.0624 49.2191 70.9487 49.1059C70.835 48.9926 70.7213 48.8793 70.5508 48.8227C70.4939 48.766 70.3802 48.766 70.3234 48.7094C69.698 48.4262 69.1864 47.9731 68.7884 47.4067C68.4473 46.9536 68.1062 46.5005 67.7651 45.9907C67.6514 45.8208 67.4809 45.6509 67.3103 45.481C67.1398 45.2544 66.8555 45.1411 66.5713 45.1978C66.4007 45.1978 66.2302 45.3111 66.0596 45.4243C65.7754 45.6509 65.4911 45.7642 65.15 45.9341C64.6952 46.1606 64.2404 46.3872 63.7856 46.6704C63.5582 46.7837 63.3877 46.9536 63.2171 47.1235C63.0466 47.2934 62.9329 47.4067 62.7623 47.52C62.4212 47.7465 62.0801 47.8598 61.6822 47.7465C61 47.5766 60.3178 47.4633 59.6356 47.2368C59.2376 47.1235 58.8397 46.9536 58.4417 46.8403C57.9869 46.6704 57.4753 46.6137 57.0205 46.7837C56.6794 46.8969 56.3951 47.0669 56.1109 47.2934C55.5992 47.7465 55.0308 48.143 54.4622 48.5395C54.2348 48.7094 54.0074 48.8227 53.78 48.9926C53.8369 49.0492 53.7232 49.1625 53.5526 49.2758ZM54.1211 55.3361C54.1211 55.3361 54.0643 55.3361 54.1211 55.3361C53.9506 55.6193 53.7801 55.9025 53.6663 56.1857C53.6095 56.299 53.5526 56.4689 53.4389 56.5822C53.2115 56.9786 52.9842 56.9786 52.7568 56.6388C52.5862 56.4689 52.4725 56.2423 52.3588 56.0158C52.1882 55.7326 52.0177 55.3928 51.9609 55.0529C51.6198 53.1838 51.2787 51.3148 50.8807 49.4457C50.8239 49.2191 50.767 48.9359 50.7101 48.7094C50.5964 48.3695 50.3691 48.2563 50.028 48.3695C49.5163 48.4828 49.0615 48.766 48.6636 49.1625C48.1519 49.7855 47.9245 50.4652 48.0951 51.2581C48.1519 51.7112 48.2656 52.221 48.4362 52.6741C48.8341 54.1467 49.4026 55.506 50.3122 56.7521C50.9376 57.6583 51.7334 58.4513 52.643 59.1309C53.2684 59.584 54.0075 59.8672 54.8033 59.9805C54.917 59.9805 55.0307 59.9805 55.2013 59.9805C55.4855 59.9239 55.6561 59.7539 55.6561 59.4708C55.6561 59.3008 55.5992 59.1876 55.5992 59.0176C55.4855 58.6212 55.3718 58.1681 55.2581 57.7716C55.0307 57.0353 54.8033 56.3556 54.6328 55.6193C54.4054 55.3928 54.3485 55.2795 54.1211 55.3361ZM65.9459 51.8245C63.5014 51.5413 61.1137 51.428 58.726 51.8245C58.7828 51.9944 58.8397 52.1077 58.9534 52.221C59.2945 52.6175 59.7493 52.7874 60.2609 52.7874C60.6589 52.7874 61.1137 52.7874 61.5116 52.7307C62.0233 52.7307 62.4781 52.6741 62.9897 52.6175C63.3308 52.5608 63.7288 52.5608 64.0699 52.5042C64.5815 52.3909 65.0363 52.2776 65.548 52.1643C65.6617 52.1077 65.8322 52.1077 65.9459 52.0511C65.9459 51.9944 65.9459 51.9378 65.9459 51.8245ZM48.5499 35.3993C48.6636 35.3993 48.8341 35.3426 48.9478 35.3993C49.4026 35.3993 49.8006 35.286 50.2554 35.1161C50.8239 34.8329 51.3924 34.6063 52.0177 34.4364C52.7568 34.2665 53.439 34.2098 54.178 34.3798C54.2348 34.3798 54.2348 34.3798 54.2917 34.3798V34.3231C54.0643 33.3603 53.2116 32.7939 52.1883 33.1903C52.0177 33.247 51.7903 33.3603 51.6198 33.4169C50.6533 33.87 49.6869 34.3798 48.7204 34.8329C48.5499 35.0028 48.493 35.1161 48.5499 35.3993ZM67.5377 34.7762C67.8788 34.7762 68.1631 34.7196 68.4473 34.663C68.8453 34.5497 69.3001 34.5497 69.698 34.6063C70.2097 34.663 70.6076 34.8895 71.0056 35.2293C71.3467 35.5125 71.7446 35.7391 72.1426 35.909C72.4268 36.0223 72.7111 36.0223 72.9953 35.9656C72.9385 35.909 72.9385 35.8524 72.8816 35.7957C72.7111 35.6258 72.5974 35.5125 72.4268 35.3426C72.0857 35.0594 71.7446 34.7196 71.3467 34.4364C71.1193 34.2665 70.9487 34.0966 70.7213 33.9267C69.8686 33.3603 68.8453 33.3603 68.0494 33.9833C67.8788 34.2098 67.7083 34.4364 67.5377 34.7762ZM41.8984 34.1532C41.5573 34.1532 41.3299 34.2665 41.1594 34.4364C40.9888 34.6063 40.932 34.7762 41.0457 35.0028C41.3868 35.9656 41.7847 36.9285 42.1258 37.8914C42.1827 38.0613 42.3532 38.1179 42.5238 38.1746C42.5806 38.1746 42.6375 38.1746 42.6375 38.1179C42.6943 38.0613 42.7512 37.948 42.7512 37.8347C42.6375 36.8152 42.5238 35.8524 42.3532 34.8329C42.3532 34.663 42.2395 34.493 42.1827 34.3231C42.1258 34.2098 42.0121 34.1532 41.8984 34.1532ZM49.4595 33.0771C49.4026 33.0771 49.4026 33.0204 49.4026 33.0204C49.3458 33.0204 49.2321 32.9638 49.1752 32.9638C48.493 32.7939 47.8108 32.8505 47.1855 33.0204C46.9581 33.0771 46.7307 33.1903 46.5601 33.3603C46.3327 33.5868 46.1622 33.8134 46.0485 34.0399C45.9916 34.0966 45.9916 34.2098 45.9916 34.2665C45.9348 34.6063 46.219 34.8895 46.5033 34.8329C46.5601 34.8329 46.6738 34.7762 46.7307 34.7762C47.6971 34.2665 48.5499 33.7001 49.4595 33.1337C49.4026 33.0771 49.4595 33.0771 49.4595 33.0771ZM57.3047 42.026C57.1342 42.026 57.0205 42.0826 56.8499 42.0826C56.5657 42.0826 56.3951 42.2526 56.2814 42.4791C56.2814 42.5357 56.2246 42.5924 56.2246 42.5924C56.1109 42.8189 56.054 43.0455 55.9403 43.2721C55.8835 43.3287 55.9403 43.3853 55.9403 43.442C55.9972 43.5552 56.054 43.6685 56.1677 43.7818C56.3951 44.065 56.5657 44.4048 56.7931 44.688C56.8499 44.8013 56.9636 44.8579 57.0773 44.8579C57.1342 44.8579 57.191 44.8579 57.3047 44.8579C57.4753 44.8579 57.5321 44.8013 57.5321 44.6314C57.5321 44.5181 57.5321 44.4615 57.5321 44.3482C57.5321 43.8951 57.4753 43.4986 57.4753 43.1021C57.4184 42.7057 57.3616 42.3658 57.3047 42.026ZM74.3029 34.6063C74.3029 34.3798 74.246 34.1532 74.246 33.9267C74.246 33.5302 74.0186 33.247 73.6775 33.1337C73.109 32.8505 72.5405 32.8505 71.972 32.9638C71.8583 32.9638 71.6878 33.0204 71.5741 33.1337C71.6309 33.1903 71.6309 33.3036 71.7446 33.3036C72.2563 33.7001 72.7679 34.1532 73.3364 34.493C73.4501 34.5497 73.5638 34.6063 73.6207 34.6063C73.7912 34.5497 74.0186 34.6063 74.3029 34.6063ZM43.206 32.3974C43.2628 32.6806 43.3197 32.9638 43.3765 33.247C43.4334 33.4169 43.4334 33.4735 43.6608 33.4735C43.7745 33.4735 43.8313 33.4735 43.945 33.4735C44.1724 33.4735 44.4567 33.4169 44.6841 33.4169C45.082 33.3603 44.9683 33.3603 45.0252 33.0771C45.0252 32.9638 45.082 32.8505 45.0252 32.6806C44.4567 32.5673 43.8313 32.454 43.206 32.3974ZM75.3262 32.7372C75.3262 32.9072 75.2693 33.0204 75.2693 33.1903C75.2693 33.4735 75.383 33.6435 75.6673 33.7001C75.7241 33.7001 75.781 33.7001 75.781 33.7001C75.9515 33.7001 76.1221 33.7001 76.2926 33.7001C76.3495 33.7001 76.4632 33.7001 76.52 33.6435C76.6906 33.5302 76.8611 33.3603 76.918 33.1337C76.918 33.0771 76.918 33.0771 76.918 33.0204C76.8043 32.8505 76.6906 32.7372 76.52 32.7372C76.1789 32.6806 75.781 32.7372 75.3262 32.7372Z" fill="black"/>
<path fill-rule="evenodd" clip-rule="evenodd" d="M99.4874 96.7391C99.4874 96.6824 99.6579 96.6824 99.7148 96.5692C100.056 96.4559 100.113 96.2293 100.226 96.0028C100.34 95.8329 100.454 95.5497 100.454 95.3798C100.454 95.1532 100.397 94.87 100.226 94.6435C100.113 94.4169 99.9422 94.3036 99.7148 94.1337C99.6579 94.1337 99.4874 94.1337 99.4874 94.0204V93.7939C99.6579 93.7939 99.7148 93.9071 99.9422 93.9071C100.113 94.0771 100.34 94.1903 100.397 94.5302C100.624 94.87 100.738 95.0399 100.738 95.3798C100.738 95.7196 100.624 95.8895 100.568 96.1727C100.34 96.3993 100.113 96.6258 99.9422 96.7957C99.7148 96.7957 99.6011 96.9656 99.4874 96.9656V96.7391ZM99.4874 96.2293V96.3426H99.8285L99.6579 95.9461C99.4874 95.9461 99.4874 95.8329 99.4874 95.7196V96.2293ZM99.4874 95.4364L99.6579 95.3231C99.7148 95.3231 99.7148 95.0966 99.7148 95.0399C99.7148 94.9266 99.7148 94.9266 99.6579 94.8134C99.6579 94.7001 99.4874 94.7001 99.4874 94.5868V95.4364ZM99.0894 97.0789C99.26 97.0789 99.3168 97.0789 99.5442 96.9656V96.7391H99.0894V97.0789ZM99.4874 94.0771V93.8505C99.3168 93.7372 99.2031 93.7372 99.0326 93.7372V94.0771H99.4874ZM99.4874 94.5868H99.0326V94.8134H99.26C99.26 94.8134 99.26 94.9266 99.3737 94.9266V95.0399C99.3737 95.0966 99.3737 95.2098 99.26 95.2098C99.26 95.3231 99.1463 95.3231 99.0326 95.3231V95.6063C99.2031 95.7762 99.2031 95.8895 99.26 96.0594L99.4305 96.2293V95.7196C99.3737 95.7196 99.3737 95.5497 99.3737 95.5497C99.26 95.5497 99.26 95.493 99.1463 95.493C99.26 95.493 99.3737 95.493 99.4305 95.3798V94.5868H99.4874ZM98.6915 96.9656V96.7391H99.0894V97.0789C99.0326 97.0789 98.862 97.0789 98.6915 96.9656ZM98.6915 95.493V95.3231H99.0326H99.0894V95.6063C99.0326 95.6063 98.9189 95.5497 98.8052 95.5497H98.6915V95.493ZM98.6915 94.8134V94.5868H99.0326H99.0894V94.8134H99.0326H98.6915ZM98.6915 94.0771V93.8505C98.862 93.7372 99.0326 93.7372 99.0894 93.7372V94.0771H98.6915ZM98.6915 93.8505C98.5778 93.8505 98.4072 93.9638 98.2935 93.9638C98.0661 94.1337 97.8387 94.247 97.6682 94.5868C97.5545 94.9266 97.4408 95.0966 97.4408 95.4364C97.4408 95.7762 97.5545 95.9461 97.6682 96.2293C97.8956 96.4559 98.0661 96.6824 98.2935 96.8524C98.4072 96.8524 98.5778 97.0223 98.6915 97.0223V96.7957C98.5778 96.7391 98.4641 96.7391 98.4072 96.6258C98.1798 96.5125 98.0661 96.286 97.9524 96.0594C97.7819 95.8895 97.7819 95.6063 97.7819 95.4364C97.7819 95.2098 97.7819 94.9266 97.9524 94.7001C98.123 94.4735 98.2367 94.3603 98.4072 94.1903C98.5209 94.1903 98.5778 94.1903 98.6915 94.0771V93.8505ZM98.6915 94.5868H98.4072V96.3426H98.6915V95.493V95.3231V94.8134V94.5868ZM74.9851 111.635V100.137C79.2488 93.9071 89.7092 91.9248 96.8154 94.4169L96.0764 100.477C95.7921 100.591 95.0531 100.591 94.7688 100.194C91.8126 95.9461 83.2851 98.325 81.466 104.442C81.068 108.69 85.4454 112.938 94.8257 109.766L93.9161 114.977C85.9571 116.506 78.4529 115.373 74.9851 111.635ZM74.9851 96.1727L75.7241 93.5673H74.9851V96.1727ZM74.9851 93.5673H74.3597V98.7781L74.9851 96.2293V93.5673ZM74.9851 100.081C74.7576 100.477 74.5871 100.817 74.3597 101.214V110.786C74.5871 111.125 74.8145 111.465 74.9851 111.635V100.081ZM73.7344 109.709V102.743C73.8481 102.176 74.1892 101.667 74.3597 101.27V110.842C74.1892 110.502 73.8481 110.106 73.7344 109.709ZM73.7344 99.9109V93.5673H74.3597V98.7781L74.0755 99.9675H73.7344V99.9109ZM73.7344 93.5673H56.054C54.7465 96.5125 57.3047 95.6063 57.3047 96.6258L54.178 108.067V115.147H62.3644C62.3644 113.787 62.0233 113.617 61.2842 112.485L62.6486 106.538C64.2973 106.254 68.3905 106.481 69.7549 107.784L71.3467 101.837L64.0699 102.063L65.0363 98.325L71.4035 98.4383C72.6542 98.6648 72.8816 99.7976 73.7344 100.024V93.5673ZM73.7344 102.686C73.6207 102.856 73.507 103.083 73.507 103.422C72.7679 105.858 72.8816 107.897 73.7344 109.709V102.686ZM54.2348 95.3231V93.624H54.8602C54.9739 94.3603 54.7465 94.9266 54.2348 95.3231ZM54.2348 93.624V95.3231C54.0074 95.4364 53.78 95.493 53.6095 95.6063V93.624H54.2348ZM54.2348 108.01V115.09H53.6095V110.332L54.2348 108.01ZM52.8704 115.09H53.6095V110.332L52.8704 112.711V115.09ZM52.8704 95.8895C53.1547 95.7762 53.3821 95.7762 53.6095 95.6063V93.624H52.8704V95.8895ZM52.8704 93.624V95.8329H52.643L43.2059 103.649C45.5936 107.444 46.6169 108.633 49.0046 112.371C50.1416 113.334 51.2786 112.881 51.1081 115.203L42.8648 114.977C40.136 114.864 36.6113 108.803 34.451 106.254L33.0298 111.012L34.2805 113.278L34.0531 114.864H22.6831V114.75V114.24C22.9105 112.655 24.3886 113.051 24.6729 112.258C26.4352 107.047 28.0838 102.346 29.3345 97.0789C29.6188 96.1161 29.2208 95.8329 28.1975 95.493C27.8564 94.7567 28.0839 93.7372 28.9366 93.5107C31.9496 93.624 34.9627 93.7372 38.0326 93.7372L39.2833 93.8505C39.1127 94.8134 38.8853 95.6063 37.7483 95.9461C37.1798 96.1727 35.6449 100.534 35.6449 102.913L44.0018 96.5125C44.4566 96.0028 44.4566 95.663 42.9785 95.493C42.6943 95.0966 42.8648 94.4169 43.3765 93.6806H52.8704V93.624ZM52.8704 112.711V115.09H52.2451L52.8704 112.711Z" fill="black"/>
</g>
<defs>
<clipPath id="clip0_205_882">
<rect width="122" height="122" fill="white"/>
</clipPath>
</defs>
</svg>
