<svg width="128" height="122" viewBox="0 0 128 122" fill="none" xmlns="http://www.w3.org/2000/svg">
<g clip-path="url(#clip0_205_889)">
<path d="M92.9812 3.70923C123.304 13.3532 127.531 49.0967 127.531 49.0967C128.336 53.7501 128.268 68.5196 126.524 75.8707C125.317 80.9287 124.243 94.2819 102.642 111.412C98.4823 114.716 93.585 118.493 88.5536 119.033C87.9498 119.1 87.2789 119.167 87.0106 118.695C86.6752 118.223 87.6144 117.009 87.8827 116.875C100.964 108.984 119.145 95.6307 119.95 64.136C119.95 64.136 121.761 34.5296 103.648 20.5694C97.8114 16.0509 89.4257 10.9928 82.8513 9.17192C81.9121 8.90216 72.7884 6.87894 72.52 8.43007C72.1846 10.6556 75.8743 10.7905 77.7527 10.8579C82.1133 10.9928 87.4802 13.6904 88.6877 14.2974C104.319 22.0531 108.478 31.225 109.82 33.4505C115.858 43.2294 115.656 61.9104 115.656 64.6081C115.858 81.5357 107.069 93.068 103.111 98.5981C96.4026 107.972 81.3083 119.909 56.6877 122C50.9183 122.472 38.3062 122.337 25.7611 115.391C21.736 113.165 13.6856 106.624 9.72758 99.0028C8.58712 96.7772 6.30619 91.0448 8.98963 90.5052C10.5997 90.168 12.9477 95.1587 17.3083 99.8795C21.2664 104.196 25.2915 108.242 31.1951 111.142C39.0441 115.054 48.4362 117.212 52.3942 116.605C53.2664 116.47 53.3334 115.391 52.5284 115.189C50.1133 114.582 45.3502 114.177 41.3921 112.761C35.2202 110.535 23.8827 103.319 17.3754 94.8215C14.9603 91.6517 11.2706 84.3007 10.5997 78.9055C9.39215 69.4638 9.79466 56.1106 10.1972 53.4804C12.7464 38.3737 20.7297 29.6064 26.9016 24.1437C32.9393 18.7485 44.0756 14.9718 46.8932 13.5556C47.3628 13.2858 47.0944 12.7463 46.759 12.6788C46.2223 12.6114 45.6186 12.6788 45.0148 12.8137C44.6123 12.9486 44.1427 13.016 43.6731 13.0835C42.3313 13.2858 6.64162 21.5135 6.23911 65.4174C6.17202 69.3964 2.81772 67.1034 2.41521 64.6755C1.27475 57.9989 1.40892 51.8618 2.9519 45.455C5.70242 33.7203 12.9477 24.3461 20.0588 18.209C30.5242 9.10448 45.149 3.91156 57.2915 1.75346C67.6227 -0.0674388 76.0756 -1.68601 92.9812 3.70923ZM5.29991 85.9867C7.17831 86.3239 7.64791 84.7728 7.51374 84.031C7.17831 82.5473 7.11123 81.131 7.04414 79.1078C6.90997 77.2869 6.7758 75.0614 5.56825 73.5777C4.96448 72.8358 4.09236 72.3637 3.15315 72.3637C-1.27452 72.2963 0.201373 79.445 0.872232 81.8729C1.14058 82.9519 1.61018 83.9635 2.4823 84.7054C3.15315 85.3798 4.22653 85.7844 5.29991 85.9867Z" fill="#E0262B"/>
<path d="M93.7862 37.9691C93.1824 37.6993 92.6458 37.497 92.2432 37.2947C90.7003 36.5528 86.8093 35.3389 83.7233 34.3273C81.9791 33.7877 80.2348 33.1808 79.8994 33.0459C79.564 32.5064 78.826 29.2018 78.4235 27.5832C78.2223 26.7739 78.0881 26.0995 78.021 25.8298C77.7527 24.8181 77.4172 24.2112 76.4109 24.2786H76.3439C76.0084 24.2786 71.4466 25.2228 63.933 26.7739C58.9015 27.853 53.6688 28.932 53.3334 28.9995C52.9309 29.0669 52.6625 29.2692 49.3753 34.2598C48.369 35.7435 47.1615 37.6319 46.9602 37.8342C46.826 37.9016 46.1552 38.1714 45.4172 38.5086C43.3376 39.3853 39.4466 41.0039 36.0923 42.7573C32.4026 44.7131 25.3585 48.8944 24.8218 49.8386C24.6206 50.1758 24.6206 50.5804 24.8218 50.9177C25.0902 51.3223 25.6269 51.5921 26.2977 51.5246C26.4319 51.5246 26.5661 51.5246 26.7673 51.4572C27.5053 51.3223 49.8449 47.9503 62.6583 46.534C65.8785 46.1968 69.9036 45.8596 74.6667 45.5898C86.4068 44.9829 98.281 44.9154 98.9518 45.0503C99.6227 45.1852 100.361 44.9154 100.83 44.3759C101.233 43.9713 101.434 43.3643 101.434 42.8248C101.434 41.6109 98.9518 40.3295 93.7862 37.9691Z" fill="#FBFCFC"/>
<path d="M52.9979 61.0337C52.9308 59.8872 52.7296 59.3477 52.3941 59.0779C52.1929 58.9431 51.9916 58.9431 51.7233 58.9431H51.6562C51.1195 59.0779 50.9182 59.6175 50.7841 59.9547C50.717 60.0221 50.717 60.157 50.3816 60.5616C46.2893 66.1592 45.7526 68.0475 45.5514 69.801C45.3501 71.2172 45.8197 72.8358 46.6247 73.5777C47.0273 73.9149 47.4969 74.0498 47.9665 73.9823C48.3019 73.9149 48.6373 73.7126 48.7715 73.4428C48.9057 73.173 48.9057 72.9033 48.8386 72.6335C48.9728 71.7568 49.6436 70.4754 50.3816 68.9917C51.6562 66.5638 53.1992 63.529 52.9979 61.0337Z" fill="#FBFCFC"/>
<path d="M52.5283 57.4594H52.5954C53.6688 57.2571 54.608 56.0431 55.0776 55.3687C56.0839 54.0199 57.2243 52.199 57.761 51.3223C57.8952 51.12 58.1635 50.6479 58.2306 50.4456C58.3648 50.1084 58.2977 49.8386 58.1635 49.7037C57.9623 49.5014 57.6939 49.4339 57.1572 49.5688C55.8826 49.8386 53.2663 51.12 51.7233 53.3455C50.9853 54.3571 50.6499 55.4362 50.7841 56.2454C50.9182 57.0547 51.5891 57.5943 52.5283 57.4594Z" fill="#E0262B"/>
<path d="M75.8743 68.7219C75.606 68.7219 75.4047 68.8568 75.4047 68.8568C74.4655 69.2615 72.7213 69.5312 71.9163 69.6661C70.5745 69.801 69.2328 69.6661 67.6228 69.3964C65.6773 69.1266 63.4634 68.8568 60.6458 69.1266C60.1762 69.194 59.7066 69.2615 59.1699 69.3289C60.042 68.4522 62.4571 65.9569 63.7988 64.4732C64.738 63.4616 66.4152 61.5732 66.8177 60.3593C67.019 59.8872 67.2202 59.0105 66.8177 58.471C66.5494 58.0663 66.0127 57.9315 65.2747 57.9989C65.1406 57.9989 56.9561 58.8756 56.9561 58.8756C56.6877 58.8756 56.3523 58.8756 56.151 58.8756C56.084 58.8756 56.084 58.8756 56.0169 58.8756C55.1447 58.8082 54.541 59.2128 54.4068 59.8198C54.2726 60.3593 54.541 61.0337 55.1447 61.3709C55.6814 61.7081 56.6206 61.9104 57.9624 61.843C58.432 61.843 58.9016 61.7756 59.3712 61.7756C60.5116 61.6407 61.3837 61.4384 61.9204 61.3035C60.78 62.45 57.4928 65.5522 55.4802 67.508C55.346 67.6429 55.2118 67.7778 55.0777 67.9127C54.0043 68.9243 52.7967 70.0708 52.193 71.2847C51.7234 72.2963 51.7234 73.2405 52.3271 73.7126C52.6626 74.0498 52.998 74.1172 53.4676 74.0498C53.803 73.9823 54.2055 73.9149 54.8093 73.7126C55.8827 73.3754 57.4928 72.9033 60.1762 72.6335C62.323 72.4312 64.8051 72.2963 67.6228 72.4312C68.629 72.4312 69.6353 72.4312 70.5074 72.2963C72.7884 72.0265 74.7339 71.4196 75.9414 70.4754L76.0085 70.408C76.3439 70.1382 77.0148 69.5987 76.7464 68.9917C76.5452 68.8568 76.2768 68.7219 75.8743 68.7219Z" fill="#FBFCFC"/>
<path d="M45.954 63.6639C45.954 63.5965 47.9666 59.2128 44.2098 56.1106C42.3314 54.5594 39.6479 54.0199 36.7633 54.492C35.2203 54.7617 33.6773 55.3687 32.671 56.0431C31.5306 56.785 31.2622 57.5942 31.1951 58.1338C31.128 58.7407 31.3964 59.2803 31.5306 59.4151C31.6647 59.55 32.0002 59.7523 32.7381 59.6175C33.0735 59.55 33.5431 59.4151 34.0798 59.2128C33.0735 60.5616 29.9876 65.0127 27.5725 72.7684C25.8282 78.3659 25.3586 81.6705 26.0966 82.8845C26.2978 83.1542 26.4991 83.2891 26.8345 83.3565C26.9016 83.3565 27.0358 83.3565 27.1029 83.3565C28.6459 83.0868 30.1888 79.0403 32.3356 73.4428C32.671 72.6335 32.9394 71.8242 33.2748 70.9475C36.8303 61.7756 37.0316 59.55 36.8303 58.9431C37.9037 58.9431 41.7276 59.0779 42.1972 62.0453C42.5997 64.4732 39.9834 66.7662 37.4341 68.0475C36.7633 68.3847 36.0924 68.5871 35.5557 68.7894C35.019 68.9917 34.6165 69.1266 34.3482 69.2615C34.0127 69.4638 34.0798 69.7335 34.0798 69.801C34.214 70.2731 35.2203 70.5428 36.7633 70.2731H36.8974C37.9708 69.9359 43.5389 68.7219 45.954 63.6639Z" fill="#FBFCFC"/>
<path d="M74.9353 79.1078C75.0023 78.4334 74.8682 77.8939 74.5998 77.6241C74.4657 77.4892 74.2644 77.3543 74.0631 77.3543C73.9961 77.3543 73.8619 77.3543 73.7948 77.3543C73.1239 77.4892 72.7214 78.1636 72.0506 79.1752C71.4468 80.1194 70.6418 81.4008 69.3 82.7496C67.7571 84.2333 66.0799 85.4472 65.4761 85.717C65.9457 84.3007 66.0799 82.6147 65.9457 81.6705C65.8787 80.7264 65.5432 80.1194 65.0065 79.7148C64.4028 79.2427 63.6648 79.2427 63.1281 79.3776C62.4573 79.5124 61.8535 79.8496 61.5851 80.052C61.451 80.1868 61.3839 80.3892 61.3839 80.5241C61.451 80.7264 61.5851 80.9287 61.9877 81.0636C62.6585 81.3333 62.5244 81.6705 62.3902 82.1426C62.3902 82.2101 62.3231 82.345 62.3231 82.4124C62.1889 82.817 62.0548 83.2217 61.9206 83.6938C61.3839 85.3123 60.7801 86.9984 61.3168 88.4146C61.7193 89.5611 62.8598 90.1006 64.2686 89.8309C64.5369 89.7634 64.8053 89.696 65.1407 89.6285C66.7508 89.0216 68.495 87.4704 70.3734 85.0426C70.4405 87.2681 71.8493 88.3472 72.386 88.8193C72.7885 89.1565 73.3252 89.3588 73.7277 89.2913C73.9961 89.2239 74.1302 89.089 74.2644 88.8867C74.3315 88.6844 74.3986 88.3472 74.1302 87.8076C73.7277 86.9984 74.1973 83.4914 74.5327 81.1985C74.8011 80.2543 74.9353 79.5124 74.9353 79.1078Z" fill="#FBFCFC"/>
<path d="M93.7863 73.2405C93.4509 72.9033 92.7129 73.0382 90.1636 73.6451C89.4257 73.78 88.5536 73.9823 87.5473 74.1846C87.279 74.2521 86.7423 74.387 86.0714 74.5218C85.736 74.5893 85.3335 74.7242 84.8639 74.7916L84.998 74.5218C85.4676 73.5777 85.9372 72.5661 86.0714 71.9591C86.2727 71.2847 86.1385 70.6777 85.8031 70.3405C85.5347 70.0708 85.1993 69.9359 84.8639 70.0033C84.5284 70.0708 84.193 70.2731 83.9247 70.6103C83.5221 71.0824 82.1133 72.8358 80.6374 75.6683C80.1008 75.7358 78.5578 76.0055 77.5515 75.8707C77.3502 75.8707 77.0148 75.8032 76.6794 75.8707C76.2098 75.9381 75.8073 76.2753 75.606 76.7474C75.4718 77.0172 75.4718 77.3544 75.606 77.6916C75.7402 78.0962 76.0756 78.4334 76.5452 78.6357C77.2161 78.9055 78.1553 79.0404 79.2286 79.0404C77.6186 83.0868 77.0148 86.8635 77.4173 90.3029C77.4844 90.9773 77.6857 91.382 77.8869 91.5169C78.0211 91.5843 78.1553 91.6518 78.2894 91.5843C78.6249 91.5169 79.0274 91.0448 79.2286 90.3029C79.4299 89.696 81.7779 82.5473 83.5221 78.0962C87.0777 76.8148 89.9624 75.7358 92.2433 74.6567L92.3775 74.5893C93.0483 74.3195 93.6521 73.9823 93.7863 73.8474C93.9205 73.7126 93.9876 73.5777 93.9876 73.4428C93.9205 73.4428 93.8534 73.3079 93.7863 73.2405Z" fill="#FBFCFC"/>
<path d="M61.2495 82.6147C61.2495 82.5473 61.1153 82.345 60.9141 82.345C60.7128 82.2775 60.5787 82.2775 60.1761 82.4798C60.042 82.5473 59.9078 82.5473 59.7736 82.6147C59.5053 82.7496 59.1028 82.8845 58.5661 83.0868C58.9015 81.4008 59.2369 79.9845 59.5724 78.9055C60.1091 76.6125 60.4445 75.3986 60.042 74.9265C59.9078 74.7242 59.7065 74.6567 59.4382 74.5893C59.3711 74.5893 59.304 74.5893 59.2369 74.5893C57.761 74.8591 55.413 79.7148 53.9371 84.4356C53.803 84.4356 53.7359 84.5031 53.6017 84.5031C51.9917 84.9077 50.1803 85.3123 48.2348 85.717C48.6374 84.3682 49.107 83.0868 49.6436 81.5357V81.4682C50.1803 79.9845 51.1195 77.2869 50.9854 76.0055C50.8512 75.1963 50.4487 75.0614 50.2474 75.0614C50.1803 75.0614 50.1803 75.0614 50.1132 75.0614C48.4361 75.3311 45.2831 81.1985 43.0692 86.5937L42.8009 86.6612L42.2642 86.7286C41.0566 86.9309 39.9833 87.1332 39.3124 87.403C38.239 87.8076 37.6353 88.4146 37.6353 89.0216C37.6353 89.5611 38.0378 90.1681 38.8428 90.5053C39.5137 90.8425 40.3858 90.9774 41.4592 91.0448C40.6541 93.675 39.5137 98.0586 40.52 99.8121C40.7883 100.217 41.1237 100.486 41.5262 100.554C41.7946 100.621 42.0629 100.621 42.3313 100.554C44.1426 100.217 44.9476 97.5865 45.4172 95.5633C45.8197 93.8099 46.2893 92.0564 46.826 90.1681C48.7044 89.6285 50.7841 88.8867 52.8638 87.9425C52.26 90.5053 51.6562 94.4843 53.4675 94.8889C53.803 95.0238 54.1384 95.0238 54.4067 94.9563C55.1447 94.8215 55.8156 94.2819 56.2852 93.3378C56.956 92.1238 57.2244 90.3704 57.4927 88.8193C57.694 87.6053 57.8952 86.3914 58.0965 85.2449C59.4382 84.5031 60.3774 83.7612 60.9141 83.2891C61.1824 83.1542 61.3837 82.817 61.2495 82.6147Z" fill="#FBFCFC"/>
<path d="M94.9268 60.764C94.5243 60.764 94.2559 60.5616 94.0547 60.3593C93.5851 59.8198 93.7863 59.1454 94.2559 57.9315C94.4572 57.3919 94.5914 56.8524 94.7926 56.1106C94.9939 55.3013 94.8597 54.7617 94.6585 54.492C94.4572 54.1548 94.1218 54.0199 93.9205 54.0199C93.518 54.0199 93.1155 54.2897 92.9142 54.3571C92.2434 54.2222 91.5725 54.2222 90.9016 54.2897C87.3461 54.5594 83.1868 57.1896 81.3754 60.2919C80.5033 61.7756 80.3021 63.1918 80.8387 64.3383C80.9058 64.4058 80.9058 64.5406 80.9729 64.6081C80.9058 64.6081 80.8387 64.6755 80.8387 64.6755C80.3021 64.9453 79.6312 65.1476 78.8262 65.215C77.6186 65.3499 76.2098 65.1476 75.0023 65.0127C74.3985 64.9453 73.7947 64.8778 73.258 64.8104C74.2643 63.8662 77.3503 60.764 78.5578 59.4151C79.0945 58.8082 80.0337 57.7966 80.1679 57.5268C80.7046 56.5826 80.7717 55.7734 80.3021 55.1664C79.9666 54.6943 79.0945 54.1548 77.149 54.3571C76.8136 54.3571 76.5452 54.4245 76.2098 54.492C73.1239 55.0315 71.0442 55.3687 70.1721 55.4361C69.7696 55.5036 69.6354 55.4361 69.3671 55.3687C69.2329 55.3013 69.0316 55.3013 68.8975 55.3013H68.8304C68.4279 55.3687 68.0924 55.571 67.8912 55.9082C67.6228 56.3129 67.5557 56.9198 67.757 57.4594C68.0924 58.3361 69.1658 58.7407 69.9708 58.7407C70.3733 58.7407 70.9771 58.7407 71.648 58.6733C72.9897 58.5384 74.4656 58.3361 75.2035 58.2012C74.4656 58.8756 73.5264 59.6849 72.5201 60.4942C70.91 61.843 69.1658 63.1918 67.9583 64.5406C66.6165 66.0243 65.9457 67.4406 66.3482 68.1824C66.5494 68.5196 67.019 68.7219 67.4886 68.5871C68.1595 68.3847 68.8304 68.3173 69.7025 68.2499C70.7759 68.1824 71.9163 68.1824 72.9897 68.1824C74.0631 68.1824 75.1364 68.1824 76.2098 68.115C77.5515 67.9801 78.6249 67.7778 79.5641 67.3731C80.7717 66.8336 81.5767 66.2266 81.7109 65.6197C81.9121 65.6871 82.1134 65.822 82.3817 65.822C82.8513 65.8894 83.388 65.9569 83.9247 65.8894C86.2056 65.6871 88.2853 64.136 89.5599 63.2593C89.8283 63.0569 90.0295 62.9221 90.2308 62.7872C90.6333 63.529 91.975 63.9337 93.5851 63.8662H93.6522C94.4572 63.7988 96.2685 63.3267 96.8723 62.6523C97.0065 62.45 97.0735 62.3151 97.0735 62.1128C97.1406 61.4384 96.7381 60.9663 94.9268 60.764ZM90.6333 57.257C89.8954 58.8756 89.7612 59.2128 89.6941 59.8198C89.0232 60.2919 86.5411 61.5732 85.5348 61.6407C85.2664 61.6407 85.1993 61.6407 85.1993 61.5732C85.1993 61.5058 85.1993 61.4384 85.1993 61.4384C86.2727 58.471 89.627 57.5268 90.6333 57.257Z" fill="#FBFCFC"/>
<path d="M112.369 111.344H112.637C112.973 111.344 113.107 111.479 113.174 111.749C113.241 112.019 113.308 112.289 113.375 112.356H113.979C113.912 112.289 113.845 112.086 113.778 111.749C113.711 111.412 113.577 111.21 113.308 111.142C113.577 111.075 113.845 110.805 113.845 110.535C113.845 110.333 113.711 110.13 113.577 109.996C113.375 109.861 113.174 109.793 112.705 109.793C112.302 109.793 111.967 109.861 111.698 109.861V112.423H112.302V111.344H112.369ZM112.369 110.198C112.436 110.198 112.57 110.13 112.705 110.13C113.107 110.13 113.241 110.265 113.241 110.535C113.241 110.805 112.973 110.94 112.637 110.94H112.369V110.198Z" fill="#E0262B"/>
<path d="M112.772 113.637C114.248 113.637 115.388 112.491 115.388 111.075C115.388 109.658 114.248 108.512 112.772 108.512C111.296 108.512 110.155 109.658 110.155 111.075C110.155 112.491 111.296 113.637 112.772 113.637ZM112.772 108.984C113.912 108.984 114.717 109.928 114.717 111.007C114.717 112.154 113.912 113.098 112.772 113.098C111.631 113.098 110.759 112.221 110.759 111.007C110.759 109.928 111.631 108.984 112.772 108.984Z" fill="#E0262B"/>
</g>
<defs>
<clipPath id="clip0_205_889">
<rect width="128" height="122" fill="white"/>
</clipPath>
</defs>
</svg>
