<svg width="34" height="29" viewBox="0 0 34 29" fill="none" xmlns="http://www.w3.org/2000/svg">
<path d="M9.17001 2.61003C9.28001 2.61003 9.39001 2.59003 9.52001 2.56003C9.54001 2.56003 9.56001 2.56003 9.59001 2.56003C10.32 2.56003 10.48 1.50003 10.48 0.280029H8.14001C8.14001 1.52003 8.32002 2.60003 9.18002 2.60003L9.17001 2.61003Z" fill="white"/>
<path d="M24.45 2.61003C24.56 2.61003 24.67 2.59003 24.8 2.56003C24.82 2.56003 24.84 2.56003 24.87 2.56003C25.6 2.56003 25.76 1.50003 25.76 0.280029H23.42C23.42 1.52003 23.6 2.60003 24.46 2.60003L24.45 2.61003Z" fill="white"/>
<path d="M29.69 0.280029H26.07C26.07 1.26003 25.97 2.13003 25.56 2.58003C25.37 2.78003 25.13 2.88003 24.86 2.88003C24.85 2.88003 24.84 2.88003 24.83 2.88003C24.7 2.91003 24.57 2.93003 24.45 2.93003C24.13 2.93003 23.84 2.81003 23.63 2.58003C23.19 2.11003 23.09 1.24003 23.09 0.290029H10.78C10.78 1.27003 10.68 2.14003 10.27 2.59003C10.08 2.79003 9.84001 2.89003 9.57001 2.89003C9.56001 2.89003 9.55001 2.89003 9.54001 2.89003C9.41001 2.92003 9.28001 2.94003 9.16001 2.94003C8.84001 2.94003 8.55 2.82003 8.34 2.59003C7.9 2.12003 7.80001 1.25003 7.80001 0.300029H4.19001C1.92001 0.300029 0.0700073 2.15003 0.0700073 4.42003V24.52C0.0700073 26.79 1.92001 28.64 4.19001 28.64H29.68C31.95 28.64 33.8 26.79 33.8 24.52V4.40003C33.8 2.13003 31.95 0.280029 29.68 0.280029H29.69ZM8.51001 26.48H2.42001V21.19H8.51001V26.48ZM8.51001 18.94H2.42001V13.65H8.51001V18.94ZM8.51001 11.4H2.42001V6.11003H8.51001V11.4ZM16.17 26.48H10.08V21.19H16.17V26.48ZM16.17 18.94H10.08V13.65H16.17V18.94ZM16.17 11.4H10.08V6.11003H16.17V11.4ZM23.82 26.48H17.73V21.19H23.82V26.48ZM23.82 18.94H17.73V13.65H23.82V18.94ZM23.82 11.4H17.73V6.11003H23.82V11.4ZM31.47 26.48H25.38V21.19H31.47V26.48ZM31.47 18.94H25.38V13.65H31.47V18.94ZM31.47 11.4H25.38V6.11003H31.47V11.4Z" fill="white"/>
</svg>
