<svg width="455" height="218" viewBox="0 0 455 218" fill="none" xmlns="http://www.w3.org/2000/svg">
<rect x="0.5" y="0.5" width="454" height="217" fill="#1A1A1A" stroke="#06C167"/>
<path d="M176.65 127.75C176.65 153.39 170.93 165.17 158.38 165.17C145.83 165.17 140 153.4 140 127.75C140 102.1 145.72 90.33 158.38 90.33C171.04 90.33 176.65 102.11 176.65 127.75ZM164.98 127.75C164.98 108.05 163.66 100.67 158.38 100.67C153.1 100.67 151.78 108.04 151.78 127.75C151.78 147.46 152.99 154.83 158.38 154.83C163.77 154.83 164.98 147.46 164.98 127.75Z" fill="white"/>
<path d="M181.16 145.36C181.16 136 184.9 130.06 190.29 127.2V126.98C185.45 124.45 181.93 118.51 181.93 109.92C181.93 98.25 188.97 90.33 198.99 90.33C209.01 90.33 216.05 98.25 216.05 109.92C216.05 118.5 212.53 124.45 207.69 126.98V127.2C213.08 130.06 216.82 136 216.82 145.36C216.82 157.47 209.34 165.17 198.99 165.17C188.64 165.17 181.16 157.47 181.16 145.36ZM192.5 143.93C192.5 151.52 194.37 156.26 198.99 156.26C203.61 156.26 205.48 151.53 205.48 143.93C205.48 136.33 203.39 131.49 198.99 131.49C194.59 131.49 192.5 136.44 192.5 143.93ZM205.04 110.91C205.04 103.43 202.84 99.13 198.99 99.13C195.14 99.13 192.94 103.42 192.94 110.91C192.94 118.4 195.25 122.58 198.99 122.58C202.73 122.58 205.04 118.29 205.04 110.91Z" fill="white"/>
<path d="M238.4 154.08H234.65L231.03 134.26H230.78L230.97 143.03V165.45H224.74V123.02H232.81L236.56 142.97H236.81L240.69 123.02H248.38V165.45H242.15V143.03L242.34 134.26H242.09L238.41 154.08H238.4Z" fill="white"/>
<path d="M265.2 154.46H258.59L257.13 165.45H250.97L257.64 123.02H266.47L273.08 165.45H266.66L265.2 154.46ZM259.29 149.38H264.5L262.02 130.77H261.77L259.29 149.38Z" fill="white"/>
<path d="M282.61 140.61L286.99 123.01H293.47L285.78 149.82V165.45H279.24V149.82L271.49 123.01H278.16L282.48 140.61H282.61Z" fill="white"/>
<path d="M314.81 144.23C314.81 158.33 311.44 165.83 304.01 165.83C296.58 165.83 293.15 158.33 293.15 144.23C293.15 130.13 296.52 122.63 304.01 122.63C311.5 122.63 314.81 130.13 314.81 144.23ZM300.01 144.23C300.01 154.9 300.84 160.17 304.01 160.17C307.18 160.17 307.95 154.9 307.95 144.23C307.95 133.56 307.19 128.29 304.01 128.29C300.83 128.29 300.01 133.56 300.01 144.23Z" fill="white"/>
<path d="M224.62 93.79H229.18C235.03 93.79 237.01 98.43 237.01 106.56C237.01 114.69 235.03 119.18 229.18 119.18H224.62V93.79ZM228.58 115.91H229.15C232.5 115.91 232.88 112.79 232.88 106.56C232.88 100.33 232.5 97.06 229.15 97.06H228.58V115.91Z" fill="white"/>
<path d="M248.6 119.18H239.06V93.79H248.64V97.13H243.05V104.62H247.42V107.93H243.05V115.84H248.6V119.18Z" fill="white"/>
<path d="M234.8 42.56C232.5 43.19 233.84 37.85 233.5 36.91C233.49 35.71 235.69 35.71 235.68 36.91C235.39 37.7 236.46 42.7 234.8 42.56Z" fill="white"/>
<path d="M219.17 42.61C219.28 42.61 219.39 42.59 219.52 42.56C219.54 42.56 219.56 42.56 219.59 42.56C220.32 42.56 220.48 41.5 220.48 40.28H218.14C218.14 41.52 218.32 42.6 219.18 42.6L219.17 42.61Z" fill="white"/>
<path d="M234.45 42.61C234.56 42.61 234.67 42.59 234.8 42.56C234.82 42.56 234.84 42.56 234.87 42.56C235.6 42.56 235.76 41.5 235.76 40.28H233.42C233.42 41.52 233.6 42.6 234.46 42.6L234.45 42.61Z" fill="white"/>
<path d="M239.69 40.28H236.07C236.07 41.26 235.97 42.13 235.56 42.58C235.37 42.78 235.13 42.88 234.86 42.88C234.85 42.88 234.84 42.88 234.83 42.88C234.7 42.91 234.57 42.93 234.45 42.93C234.13 42.93 233.84 42.81 233.63 42.58C233.19 42.11 233.09 41.24 233.09 40.29H220.78C220.78 41.27 220.68 42.14 220.27 42.59C220.08 42.79 219.84 42.89 219.57 42.89C219.56 42.89 219.55 42.89 219.54 42.89C219.41 42.92 219.28 42.94 219.16 42.94C218.84 42.94 218.55 42.82 218.34 42.59C217.9 42.12 217.8 41.25 217.8 40.3H214.19C211.92 40.3 210.07 42.15 210.07 44.42V64.52C210.07 66.79 211.92 68.64 214.19 68.64H239.68C241.95 68.64 243.8 66.79 243.8 64.52V44.4C243.8 42.13 241.95 40.28 239.68 40.28H239.69ZM218.51 66.48H212.42V61.19H218.51V66.48ZM218.51 58.94H212.42V53.65H218.51V58.94ZM218.51 51.4H212.42V46.11H218.51V51.4ZM226.17 66.48H220.08V61.19H226.17V66.48ZM226.17 58.94H220.08V53.65H226.17V58.94ZM226.17 51.4H220.08V46.11H226.17V51.4ZM233.82 66.48H227.73V61.19H233.82V66.48ZM233.82 58.94H227.73V53.65H233.82V58.94ZM233.82 51.4H227.73V46.11H233.82V51.4ZM241.47 66.48H235.38V61.19H241.47V66.48ZM241.47 58.94H235.38V53.65H241.47V58.94ZM241.47 51.4H235.38V46.11H241.47V51.4Z" fill="white"/>
</svg>
