<svg width="31" height="34" viewBox="0 0 31 34" fill="none" xmlns="http://www.w3.org/2000/svg">
<path d="M13.71 33.76C13.21 33.72 12.71 33.67 12.21 33.63C9.87001 33.44 7.57001 33.07 5.35001 32.31C4.05001 31.86 2.80001 31.3 1.75001 30.38C1.22001 29.91 0.81001 29.36 0.61001 28.68C0.23001 27.43 0.660008 26.39 1.53001 25.51C2.41001 24.62 3.51001 24.07 4.66001 23.62C6.19001 23.03 7.77001 22.64 9.39001 22.37C9.46001 22.36 9.53001 22.33 9.63001 22.31C9.57001 22.2 9.53001 22.12 9.48001 22.04C8.34001 20.27 7.19001 18.51 6.08001 16.72C4.64001 14.4 4.11001 11.87 4.59001 9.18003C5.29001 5.31003 7.45001 2.50003 11.04 0.95003C14.75 -0.63997 18.34 -0.19997 21.64 2.15003C23.92 3.78003 25.35 6.02003 25.91 8.76003C26.5 11.59 26.03 14.26 24.49 16.72C23.38 18.51 22.22 20.27 21.09 22.04C21.04 22.12 21 22.21 20.94 22.31C21.6 22.44 22.23 22.56 22.86 22.7C24.65 23.12 26.4 23.63 27.97 24.64C28.83 25.19 29.57 25.86 29.93 26.87C30.29 27.88 30.09 28.79 29.49 29.64C28.88 30.5 28.02 31.05 27.11 31.52C25.23 32.47 23.22 32.99 21.15 33.29C19.82 33.48 18.47 33.57 17.13 33.71C17.02 33.72 16.92 33.75 16.81 33.76H13.71ZM15.29 27.47C15.39 27.33 15.45 27.23 15.52 27.13C17.89 23.42 20.24 19.71 22.62 16.01C24.5 13.08 24.75 10.03 23.19 6.92003C21.76 4.07003 19.38 2.41003 16.2 2.09003C12.84 1.75003 10.13 3.03003 8.11001 5.73003C5.98001 8.57003 5.84001 12.69 7.75001 15.67C9.43001 18.29 11.11 20.92 12.79 23.54C13.62 24.83 14.44 26.13 15.29 27.47ZM15.28 31.83C16.52 31.75 17.75 31.7 18.99 31.59C21.14 31.4 23.24 30.99 25.26 30.19C26.18 29.83 27.08 29.41 27.75 28.65C28.26 28.08 28.25 27.59 27.75 27.02C27.28 26.48 26.68 26.12 26.04 25.81C24.1 24.88 22.02 24.46 19.91 24.18C19.83 24.17 19.7 24.26 19.64 24.35C19.39 24.71 19.16 25.09 18.93 25.46C18.02 26.88 17.11 28.31 16.21 29.73C15.95 30.14 15.61 30.36 15.11 30.28C14.75 30.22 14.54 29.98 14.36 29.69C13.24 27.93 12.12 26.18 11.01 24.42C10.89 24.24 10.8 24.14 10.54 24.19C10.08 24.29 9.61001 24.33 9.15001 24.41C7.41001 24.73 5.70001 25.15 4.14001 26.04C3.65001 26.32 3.20001 26.68 2.80001 27.08C2.32001 27.57 2.34001 28.09 2.80001 28.6C3.01001 28.84 3.25001 29.05 3.51001 29.23C4.55001 29.96 5.72001 30.38 6.93001 30.72C9.66001 31.5 12.46 31.75 15.29 31.82L15.28 31.83Z" fill="white"/>
<path d="M20.23 10.96C20.23 13.68 18.01 15.91 15.29 15.91C12.57 15.91 10.35 13.68 10.35 10.96C10.35 8.25003 12.57 6.04003 15.27 6.03003C17.99 6.03003 20.22 8.24003 20.22 10.96H20.23ZM18.25 10.97C18.25 9.36003 16.9 8.02003 15.29 8.01003C13.68 8.01003 12.34 9.34003 12.33 10.96C12.32 12.58 13.69 13.95 15.3 13.93C16.92 13.92 18.25 12.57 18.25 10.96V10.97Z" fill="white"/>
</svg>
