<svg width="380" height="84" viewBox="0 0 380 84" fill="none" xmlns="http://www.w3.org/2000/svg">
<path d="M216.105 1.5635C178.423 1.5635 0 -9.19902 0 30.2635C0 94.8385 90.8005 83.1794 159.809 83.1794C228.817 83.1794 380 92.1481 380 40.1292C380 -11.8896 253.787 1.5635 216.105 1.5635Z" fill="#723C2A"/>
<path d="M40.3034 54C39.5568 54 38.9701 53.8 38.5434 53.4C38.1168 53 37.9034 52.4933 37.9034 51.88C37.9034 51.4267 38.0368 50.9867 38.3034 50.56C39.0234 49.3867 39.3834 47.9333 39.3834 46.2V33.8C39.3834 32.0667 39.0234 30.6133 38.3034 29.44C38.0368 29.0133 37.9034 28.5733 37.9034 28.12C37.9034 27.5067 38.1168 27 38.5434 26.6C38.9701 26.2 39.5568 26 40.3034 26H47.9034C50.9968 26 53.6634 26.5733 55.9034 27.72C58.1434 28.8667 59.8501 30.4933 61.0234 32.6C62.1968 34.7067 62.7834 37.1733 62.7834 40C62.7834 42.8267 62.1968 45.2933 61.0234 47.4C59.8501 49.5067 58.1434 51.1333 55.9034 52.28C53.6634 53.4267 50.9968 54 47.9034 54H40.3034ZM47.9034 49.2C50.3834 49.2 52.3568 48.3733 53.8234 46.72C55.3168 45.0667 56.0634 42.8267 56.0634 40C56.0634 37.1733 55.3168 34.9333 53.8234 33.28C52.3568 31.6267 50.3834 30.8 47.9034 30.8H47.1434C46.7968 30.8 46.5301 30.8933 46.3434 31.08C46.1834 31.2667 46.1034 31.52 46.1034 31.84V48.16C46.1034 48.5067 46.1968 48.7733 46.3834 48.96C46.5701 49.12 46.8234 49.2 47.1434 49.2H47.9034ZM75.1384 54.56C73.0851 54.56 71.2851 54.12 69.7384 53.24C68.1918 52.36 66.9918 51.1067 66.1384 49.48C65.2851 47.8533 64.8584 45.9467 64.8584 43.76C64.8584 41.76 65.2851 39.9467 66.1384 38.32C67.0184 36.6933 68.2451 35.4133 69.8184 34.48C71.4184 33.52 73.2451 33.04 75.2984 33.04C77.2718 33.04 78.9518 33.4667 80.3384 34.32C81.7518 35.1733 82.8051 36.3333 83.4984 37.8C84.2184 39.24 84.5784 40.8267 84.5784 42.56C84.5784 43.3867 84.4051 43.9867 84.0584 44.36C83.7384 44.7067 83.2451 44.88 82.5784 44.88H72.0984C71.6718 44.88 71.4984 45.1067 71.5784 45.56C71.8184 46.6267 72.3651 47.5333 73.2184 48.28C74.0718 49.0267 75.0584 49.4 76.1784 49.4C77.7784 49.4 79.3118 48.8267 80.7784 47.68C81.2584 47.3067 81.7384 47.12 82.2184 47.12C82.6718 47.12 83.0451 47.2667 83.3384 47.56C83.6318 47.8267 83.7784 48.1867 83.7784 48.64C83.7784 48.9067 83.6984 49.2 83.5384 49.52C81.7784 52.88 78.9784 54.56 75.1384 54.56ZM77.5384 41.04C78.0184 41.04 78.2584 40.8133 78.2584 40.36C78.2584 39.5867 77.9651 38.9733 77.3784 38.52C76.8184 38.04 76.0851 37.8 75.1784 37.8C74.4051 37.8 73.7118 38.0267 73.0984 38.48C72.5118 38.9067 72.0584 39.5333 71.7384 40.36C71.7118 40.4133 71.6984 40.4933 71.6984 40.6C71.6984 40.8933 71.8718 41.04 72.2184 41.04H77.5384ZM94.2228 54.56C91.9561 54.56 90.1828 54.2267 88.9028 53.56C87.7828 52.9733 87.1161 52.3467 86.9028 51.68C86.7961 51.3867 86.6361 50.6267 86.4228 49.4L86.2228 48.28C86.1961 48.2 86.1828 48.0933 86.1828 47.96C86.1828 47.4267 86.4095 47 86.8628 46.68C87.3161 46.36 87.8361 46.2 88.4228 46.2C88.7695 46.2 89.0895 46.28 89.3828 46.44C89.7028 46.5733 89.9561 46.7733 90.1428 47.04C90.7561 48.08 91.3695 48.8133 91.9828 49.24C92.5961 49.64 93.3428 49.84 94.2228 49.84C94.9428 49.84 95.5161 49.6933 95.9428 49.4C96.3695 49.1067 96.5828 48.72 96.5828 48.24C96.5828 47.6267 96.2495 47.1333 95.5828 46.76C94.9428 46.36 93.7028 45.9333 91.8628 45.48C90.3695 45.1067 89.0895 44.4133 88.0228 43.4C86.9828 42.3867 86.4628 41.0667 86.4628 39.44C86.4628 37.44 87.2495 35.88 88.8228 34.76C90.3961 33.6133 92.3828 33.04 94.7828 33.04C96.4361 33.04 97.9961 33.3067 99.4628 33.84C100.503 34.2133 101.129 34.8533 101.343 35.76C101.556 36.5867 101.729 37.4133 101.863 38.24L101.903 38.6C101.903 39.24 101.676 39.7467 101.223 40.12C100.769 40.4667 100.249 40.64 99.6628 40.64C99.3161 40.64 98.9961 40.5867 98.7028 40.48C98.4361 40.3467 98.2228 40.16 98.0628 39.92C97.4761 39.0933 96.8895 38.4533 96.3028 38C95.7428 37.52 95.1161 37.28 94.4228 37.28C93.7028 37.28 93.1428 37.4133 92.7428 37.68C92.3428 37.9467 92.1428 38.3067 92.1428 38.76C92.1428 39.3467 92.4761 39.8267 93.1428 40.2C93.8361 40.5733 95.0495 40.9867 96.7828 41.44C98.7028 41.9467 100.169 42.6667 101.183 43.6C102.223 44.5333 102.743 45.9333 102.743 47.8C102.743 49.9333 101.943 51.6 100.343 52.8C98.7695 53.9733 96.7295 54.56 94.2228 54.56ZM114.344 54.56C112.531 54.56 110.877 54.1333 109.384 53.28C107.917 52.4 106.757 51.16 105.904 49.56C105.051 47.96 104.624 46.12 104.624 44.04C104.624 41.7733 105.077 39.8133 105.984 38.16C106.891 36.48 108.117 35.2133 109.664 34.36C111.237 33.48 112.971 33.04 114.864 33.04C116.331 33.04 117.611 33.2933 118.704 33.8C119.824 34.3067 120.677 34.9867 121.264 35.84C121.877 36.6667 122.184 37.56 122.184 38.52C122.184 39.56 121.877 40.36 121.264 40.92C120.651 41.4533 119.877 41.72 118.944 41.72C118.117 41.72 117.451 41.4533 116.944 40.92C116.437 40.36 116.077 39.7067 115.864 38.96C115.517 37.7867 114.891 37.2 113.984 37.2C113.077 37.2 112.331 37.6533 111.744 38.56C111.157 39.4667 110.864 40.6267 110.864 42.04C110.864 44.0133 111.397 45.5867 112.464 46.76C113.531 47.9333 114.904 48.52 116.584 48.52C118.104 48.52 119.451 48.0267 120.624 47.04C120.917 46.7733 121.264 46.64 121.664 46.64C122.091 46.64 122.451 46.8 122.744 47.12C123.037 47.4133 123.184 47.8133 123.184 48.32C123.184 48.8267 123.011 49.3867 122.664 50C121.811 51.44 120.677 52.56 119.264 53.36C117.877 54.16 116.237 54.56 114.344 54.56ZM131.55 54.56C129.55 54.56 127.99 53.8933 126.87 52.56C125.75 51.2267 125.19 49.3733 125.19 47V39.6C125.19 38.7733 125.136 38.0933 125.03 37.56C124.923 37 124.75 36.4267 124.51 35.84C124.376 35.4933 124.31 35.2 124.31 34.96C124.31 34.5333 124.47 34.2 124.79 33.96C125.11 33.72 125.536 33.6 126.07 33.6H129.63C130.323 33.6 130.816 33.7867 131.11 34.16C131.43 34.5067 131.59 35.0667 131.59 35.84V46C131.59 47.0933 131.87 47.9733 132.43 48.64C133.016 49.3067 133.776 49.64 134.71 49.64C135.643 49.64 136.39 49.3067 136.95 48.64C137.536 47.9733 137.83 47.0933 137.83 46V39.6C137.83 38.8 137.763 38.1333 137.63 37.6C137.523 37.04 137.323 36.4533 137.03 35.84C136.896 35.52 136.83 35.2533 136.83 35.04C136.83 34.6133 137.003 34.2667 137.35 34C137.696 33.7333 138.15 33.6 138.71 33.6H142.27C142.963 33.6 143.456 33.7867 143.75 34.16C144.07 34.5067 144.23 35.0667 144.23 35.84V49.08C144.23 49.9333 144.403 50.76 144.75 51.56C144.83 51.7467 144.87 51.96 144.87 52.2C144.87 52.6 144.736 52.96 144.47 53.28C144.23 53.6 143.91 53.8 143.51 53.88L140.39 54.48C140.176 54.5333 139.896 54.56 139.55 54.56C138.403 54.56 137.83 53.96 137.83 52.76V52.24C137.83 52.1067 137.803 51.9867 137.75 51.88C137.696 51.7733 137.616 51.72 137.51 51.72C137.323 51.72 137.163 51.8267 137.03 52.04C136.496 52.7867 135.723 53.4 134.71 53.88C133.696 54.3333 132.643 54.56 131.55 54.56ZM159.334 54.56C158.374 54.56 157.481 54.3467 156.654 53.92C155.854 53.4933 155.148 52.92 154.534 52.2C154.374 52.0133 154.214 51.92 154.054 51.92C153.948 51.92 153.854 51.9733 153.774 52.08C153.721 52.16 153.694 52.28 153.694 52.44C153.694 53.0533 153.534 53.4667 153.214 53.68C152.921 53.8933 152.361 54 151.534 54H148.014C147.561 54 147.214 53.84 146.974 53.52C146.734 53.2 146.614 52.8267 146.614 52.4C146.614 52.2133 146.668 51.9333 146.774 51.56C147.121 50.6 147.294 49.3733 147.294 47.88V30.44C147.294 29.5867 147.121 28.76 146.774 27.96C146.668 27.7467 146.614 27.4933 146.614 27.2C146.614 26.8267 146.734 26.4933 146.974 26.2C147.214 25.9067 147.561 25.72 148.014 25.64L151.134 25.04C151.348 24.9867 151.628 24.96 151.974 24.96C153.121 24.96 153.694 25.56 153.694 26.76V34.52C153.694 34.84 153.814 35 154.054 35C154.188 35 154.321 34.9333 154.454 34.8C155.708 33.6267 157.268 33.04 159.134 33.04C161.721 33.04 163.788 33.9733 165.334 35.84C166.881 37.68 167.654 40.32 167.654 43.76C167.654 45.9467 167.294 47.8533 166.574 49.48C165.881 51.1067 164.908 52.36 163.654 53.24C162.401 54.12 160.961 54.56 159.334 54.56ZM157.654 49.96C158.614 49.96 159.414 49.4667 160.054 48.48C160.721 47.4667 161.054 46.12 161.054 44.44C161.054 42.3333 160.734 40.68 160.094 39.48C159.454 38.28 158.508 37.68 157.254 37.68C156.268 37.68 155.454 38.1733 154.814 39.16C154.174 40.1467 153.854 41.5333 153.854 43.32C153.854 45.24 154.188 46.8267 154.854 48.08C155.548 49.3333 156.481 49.96 157.654 49.96ZM171.305 54C170.718 54 170.265 53.8667 169.945 53.6C169.652 53.3333 169.505 52.9733 169.505 52.52C169.505 52.28 169.545 52.0267 169.625 51.76C169.812 51.12 169.945 50.5333 170.025 50C170.105 49.4667 170.145 48.8 170.145 48V38.52C170.145 37.6667 169.972 36.84 169.625 36.04C169.545 35.8267 169.505 35.6133 169.505 35.4C169.505 35 169.625 34.64 169.865 34.32C170.132 34 170.465 33.8 170.865 33.72L173.985 33.12C174.198 33.0667 174.478 33.04 174.825 33.04C175.972 33.04 176.545 33.64 176.545 34.84V35.36C176.545 35.4933 176.572 35.6133 176.625 35.72C176.678 35.8267 176.758 35.88 176.865 35.88C176.998 35.88 177.158 35.7733 177.345 35.56C178.065 34.68 178.732 34.04 179.345 33.64C179.958 33.24 180.692 33.04 181.545 33.04C182.612 33.04 183.425 33.44 183.985 34.24C184.572 35.04 184.865 36 184.865 37.12C184.865 38.24 184.572 39.2267 183.985 40.08C183.425 40.9067 182.665 41.32 181.705 41.32C181.145 41.32 180.692 41.1867 180.345 40.92C180.025 40.6533 179.705 40.2667 179.385 39.76C179.172 39.44 178.972 39.2 178.785 39.04C178.625 38.88 178.425 38.8 178.185 38.8C177.678 38.8 177.278 39.1333 176.985 39.8C176.692 40.4667 176.545 41.3467 176.545 42.44V48C176.545 48.8 176.585 49.4667 176.665 50C176.745 50.5333 176.878 51.12 177.065 51.76C177.145 52.0267 177.185 52.28 177.185 52.52C177.185 52.9733 177.025 53.3333 176.705 53.6C176.412 53.8667 175.972 54 175.385 54H171.305ZM196.037 54.56C193.984 54.56 192.184 54.12 190.637 53.24C189.09 52.36 187.89 51.1067 187.037 49.48C186.184 47.8533 185.757 45.9467 185.757 43.76C185.757 41.76 186.184 39.9467 187.037 38.32C187.917 36.6933 189.144 35.4133 190.717 34.48C192.317 33.52 194.144 33.04 196.197 33.04C198.17 33.04 199.85 33.4667 201.237 34.32C202.65 35.1733 203.704 36.3333 204.397 37.8C205.117 39.24 205.477 40.8267 205.477 42.56C205.477 43.3867 205.304 43.9867 204.957 44.36C204.637 44.7067 204.144 44.88 203.477 44.88H192.997C192.57 44.88 192.397 45.1067 192.477 45.56C192.717 46.6267 193.264 47.5333 194.117 48.28C194.97 49.0267 195.957 49.4 197.077 49.4C198.677 49.4 200.21 48.8267 201.677 47.68C202.157 47.3067 202.637 47.12 203.117 47.12C203.57 47.12 203.944 47.2667 204.237 47.56C204.53 47.8267 204.677 48.1867 204.677 48.64C204.677 48.9067 204.597 49.2 204.437 49.52C202.677 52.88 199.877 54.56 196.037 54.56ZM198.437 41.04C198.917 41.04 199.157 40.8133 199.157 40.36C199.157 39.5867 198.864 38.9733 198.277 38.52C197.717 38.04 196.984 37.8 196.077 37.8C195.304 37.8 194.61 38.0267 193.997 38.48C193.41 38.9067 192.957 39.5333 192.637 40.36C192.61 40.4133 192.597 40.4933 192.597 40.6C192.597 40.8933 192.77 41.04 193.117 41.04H198.437ZM215.953 54C215.367 54 214.913 53.8667 214.593 53.6C214.3 53.3333 214.153 52.9733 214.153 52.52C214.153 52.28 214.193 52.0267 214.273 51.76C214.46 51.12 214.593 50.5333 214.673 50C214.753 49.4667 214.793 48.8 214.793 48V38.52C214.793 37.6667 214.62 36.84 214.273 36.04C214.193 35.8267 214.153 35.6133 214.153 35.4C214.153 35 214.273 34.64 214.513 34.32C214.78 34 215.113 33.8 215.513 33.72L218.633 33.12C218.847 33.0667 219.127 33.04 219.473 33.04C220.62 33.04 221.193 33.64 221.193 34.84V35.36C221.193 35.4933 221.22 35.6133 221.273 35.72C221.327 35.8267 221.407 35.88 221.513 35.88C221.7 35.88 221.86 35.7733 221.993 35.56C223.247 33.88 224.833 33.04 226.753 33.04C227.767 33.04 228.673 33.2533 229.473 33.68C230.273 34.1067 230.9 34.7333 231.353 35.56C231.433 35.72 231.553 35.8 231.713 35.8C231.873 35.8 232.007 35.72 232.113 35.56C233.42 33.88 235.367 33.04 237.953 33.04C239.687 33.04 241.06 33.6667 242.073 34.92C243.087 36.1467 243.593 37.7733 243.593 39.8V48C243.593 48.8 243.633 49.4667 243.713 50C243.793 50.5333 243.927 51.12 244.113 51.76C244.193 52.0267 244.233 52.28 244.233 52.52C244.233 52.9733 244.073 53.3333 243.753 53.6C243.46 53.8667 243.02 54 242.433 54H238.353C237.767 54 237.313 53.8667 236.993 53.6C236.7 53.3333 236.553 52.9733 236.553 52.52C236.553 52.28 236.593 52.0267 236.673 51.76C236.86 51.12 236.993 50.5333 237.073 50C237.153 49.4667 237.193 48.8 237.193 48V41C237.193 40.0667 236.98 39.3333 236.553 38.8C236.153 38.24 235.567 37.96 234.793 37.96C234.02 37.96 233.42 38.24 232.993 38.8C232.593 39.3333 232.393 40.0667 232.393 41V48C232.393 48.8 232.433 49.4667 232.513 50C232.593 50.5333 232.727 51.12 232.913 51.76C232.993 52.0267 233.033 52.28 233.033 52.52C233.033 52.9733 232.873 53.3333 232.553 53.6C232.26 53.8667 231.82 54 231.233 54H227.153C226.567 54 226.113 53.8667 225.793 53.6C225.5 53.3333 225.353 52.9733 225.353 52.52C225.353 52.28 225.393 52.0267 225.473 51.76C225.66 51.12 225.793 50.5333 225.873 50C225.953 49.4667 225.993 48.8 225.993 48V41C225.993 40.0667 225.78 39.3333 225.353 38.8C224.953 38.24 224.367 37.96 223.593 37.96C222.82 37.96 222.22 38.24 221.793 38.8C221.393 39.3333 221.193 40.0667 221.193 41V48C221.193 48.8 221.233 49.4667 221.313 50C221.393 50.5333 221.527 51.12 221.713 51.76C221.793 52.0267 221.833 52.28 221.833 52.52C221.833 52.9733 221.673 53.3333 221.353 53.6C221.06 53.8667 220.62 54 220.033 54H215.953ZM252.389 54.56C250.416 54.56 248.843 53.9867 247.669 52.84C246.496 51.6933 245.909 50.24 245.909 48.48C245.909 46.5067 246.589 44.96 247.949 43.84C249.309 42.72 251.176 42.16 253.549 42.16C254.403 42.16 255.336 42.24 256.349 42.4H256.509C256.883 42.4 257.069 42.16 257.069 41.68V40C257.069 38.9067 256.883 38.16 256.509 37.76C256.163 37.3333 255.616 37.12 254.869 37.12C254.389 37.12 253.949 37.32 253.549 37.72C253.176 38.0933 252.883 38.5867 252.669 39.2C252.403 40.0267 252.029 40.64 251.549 41.04C251.069 41.4133 250.403 41.6 249.549 41.6C248.589 41.6 247.829 41.2933 247.269 40.68C246.709 40.0667 246.429 39.28 246.429 38.32C246.429 37.3333 246.789 36.44 247.509 35.64C248.229 34.84 249.216 34.2133 250.469 33.76C251.749 33.28 253.189 33.04 254.789 33.04C257.696 33.04 259.869 33.6933 261.309 35C262.749 36.28 263.469 38.08 263.469 40.4V45.76C263.469 46.8267 263.563 47.7067 263.749 48.4C263.936 49.0933 264.283 49.8133 264.789 50.56C265.029 50.88 265.149 51.2 265.149 51.52C265.149 51.84 265.043 52.1333 264.829 52.4C264.616 52.64 264.323 52.8267 263.949 52.96L261.629 53.92C261.256 54.08 260.896 54.2133 260.549 54.32C260.203 54.4267 259.896 54.48 259.629 54.48C259.069 54.48 258.563 53.84 258.109 52.56C258.003 52.24 257.843 52.08 257.629 52.08C257.496 52.08 257.323 52.1867 257.109 52.4C255.909 53.84 254.336 54.56 252.389 54.56ZM254.349 49.92C255.123 49.92 255.763 49.64 256.269 49.08C256.803 48.4933 257.069 47.7867 257.069 46.96C257.069 46.56 256.856 46.2267 256.429 45.96C256.029 45.6933 255.549 45.56 254.989 45.56C254.136 45.56 253.469 45.7733 252.989 46.2C252.536 46.6 252.309 47.16 252.309 47.88C252.309 48.44 252.483 48.92 252.829 49.32C253.203 49.72 253.709 49.92 254.349 49.92ZM253.189 30.6C252.763 30.2 252.549 29.7067 252.549 29.12C252.549 28.5867 252.736 28.1333 253.109 27.76C254.203 26.6667 255.216 25.44 256.149 24.08C256.603 23.3867 257.216 23.04 257.989 23.04C258.629 23.04 259.216 23.3067 259.749 23.84C260.389 24.48 260.709 25.1467 260.709 25.84C260.709 26.5333 260.403 27.1067 259.789 27.56C258.216 28.7333 257.003 29.7067 256.149 30.48C255.963 30.6667 255.723 30.8267 255.429 30.96C255.136 31.0667 254.843 31.12 254.549 31.12C253.989 31.12 253.536 30.9467 253.189 30.6ZM274.535 54.56C272.269 54.56 270.495 54.2267 269.215 53.56C268.095 52.9733 267.429 52.3467 267.215 51.68C267.109 51.3867 266.949 50.6267 266.735 49.4L266.535 48.28C266.509 48.2 266.495 48.0933 266.495 47.96C266.495 47.4267 266.722 47 267.175 46.68C267.629 46.36 268.149 46.2 268.735 46.2C269.082 46.2 269.402 46.28 269.695 46.44C270.015 46.5733 270.269 46.7733 270.455 47.04C271.069 48.08 271.682 48.8133 272.295 49.24C272.909 49.64 273.655 49.84 274.535 49.84C275.255 49.84 275.829 49.6933 276.255 49.4C276.682 49.1067 276.895 48.72 276.895 48.24C276.895 47.6267 276.562 47.1333 275.895 46.76C275.255 46.36 274.015 45.9333 272.175 45.48C270.682 45.1067 269.402 44.4133 268.335 43.4C267.295 42.3867 266.775 41.0667 266.775 39.44C266.775 37.44 267.562 35.88 269.135 34.76C270.709 33.6133 272.695 33.04 275.095 33.04C276.749 33.04 278.309 33.3067 279.775 33.84C280.815 34.2133 281.442 34.8533 281.655 35.76C281.869 36.5867 282.042 37.4133 282.175 38.24L282.215 38.6C282.215 39.24 281.989 39.7467 281.535 40.12C281.082 40.4667 280.562 40.64 279.975 40.64C279.629 40.64 279.309 40.5867 279.015 40.48C278.749 40.3467 278.535 40.16 278.375 39.92C277.789 39.0933 277.202 38.4533 276.615 38C276.055 37.52 275.429 37.28 274.735 37.28C274.015 37.28 273.455 37.4133 273.055 37.68C272.655 37.9467 272.455 38.3067 272.455 38.76C272.455 39.3467 272.789 39.8267 273.455 40.2C274.149 40.5733 275.362 40.9867 277.095 41.44C279.015 41.9467 280.482 42.6667 281.495 43.6C282.535 44.5333 283.055 45.9333 283.055 47.8C283.055 49.9333 282.255 51.6 280.655 52.8C279.082 53.9733 277.042 54.56 274.535 54.56Z" fill="#F2E2D1"/>
<g clip-path="url(#clip0_105_195)">
<path d="M320.012 18C308.448 18 299.022 27.4014 299 38.9571C298.989 44.56 301.17 49.8383 305.141 53.8181C309.117 57.8035 314.397 59.9986 320.008 59.9986H320.022C331.587 59.9902 340.997 50.5691 341 38.9951C341.003 27.4253 331.592 18.0056 320.012 18ZM320.023 55.8797H319.999C315.512 55.8797 311.284 54.1188 308.093 50.9218C304.899 47.722 303.145 43.4822 303.152 38.9852C303.167 29.6963 310.718 22.1288 319.985 22.1175H320.008C324.498 22.1175 328.729 23.8783 331.918 27.074C335.109 30.271 336.865 34.5108 336.864 39.0119C336.861 48.3009 329.306 55.8684 320.023 55.8811V55.8797Z" fill="#F2E2D1"/>
<path d="M314.717 33.5003L320.026 39.0091L314.868 44.1876L317.544 47.2174L325.737 38.9599L317.583 30.5239L314.717 33.5003Z" fill="#F2E2D1"/>
</g>
<defs>
<clipPath id="clip0_105_195">
<rect width="42" height="42" fill="white" transform="translate(299 18)"/>
</clipPath>
</defs>
</svg>
