<svg width="312" height="56" viewBox="0 0 312 56" fill="none" xmlns="http://www.w3.org/2000/svg">
<path d="M177.434 1.04233C146.495 1.04233 0 -6.13268 0 20.1757C0 63.2257 74.552 55.4529 131.211 55.4529C187.871 55.4529 312 61.432 312 26.7528C312 -7.9264 208.373 1.04233 177.434 1.04233Z" fill="#003227"/>
<path d="M54.8953 34C54.5033 34 54.1953 33.895 53.9713 33.685C53.7473 33.475 53.6353 33.209 53.6353 32.887C53.6353 32.649 53.7053 32.418 53.8453 32.194C54.2233 31.578 54.4123 30.815 54.4123 29.905V23.395C54.4123 22.485 54.2233 21.722 53.8453 21.106C53.7053 20.882 53.6353 20.651 53.6353 20.413C53.6353 20.091 53.7473 19.825 53.9713 19.615C54.1953 19.405 54.5033 19.3 54.8953 19.3H58.8853C60.5093 19.3 61.9093 19.601 63.0853 20.203C64.2613 20.805 65.1573 21.659 65.7733 22.765C66.3893 23.871 66.6973 25.166 66.6973 26.65C66.6973 28.134 66.3893 29.429 65.7733 30.535C65.1573 31.641 64.2613 32.495 63.0853 33.097C61.9093 33.699 60.5093 34 58.8853 34H54.8953ZM58.8853 31.48C60.1873 31.48 61.2233 31.046 61.9933 30.178C62.7773 29.31 63.1693 28.134 63.1693 26.65C63.1693 25.166 62.7773 23.99 61.9933 23.122C61.2233 22.254 60.1873 21.82 58.8853 21.82H58.4863C58.3043 21.82 58.1643 21.869 58.0663 21.967C57.9823 22.065 57.9403 22.198 57.9403 22.366V30.934C57.9403 31.116 57.9893 31.256 58.0873 31.354C58.1853 31.438 58.3183 31.48 58.4863 31.48H58.8853ZM73.1837 34.294C72.1057 34.294 71.1607 34.063 70.3487 33.601C69.5367 33.139 68.9067 32.481 68.4587 31.627C68.0107 30.773 67.7867 29.772 67.7867 28.624C67.7867 27.574 68.0107 26.622 68.4587 25.768C68.9207 24.914 69.5647 24.242 70.3907 23.752C71.2307 23.248 72.1897 22.996 73.2677 22.996C74.3037 22.996 75.1857 23.22 75.9137 23.668C76.6557 24.116 77.2087 24.725 77.5727 25.495C77.9507 26.251 78.1397 27.084 78.1397 27.994C78.1397 28.428 78.0487 28.743 77.8667 28.939C77.6987 29.121 77.4397 29.212 77.0897 29.212H71.5877C71.3637 29.212 71.2727 29.331 71.3147 29.569C71.4407 30.129 71.7277 30.605 72.1757 30.997C72.6237 31.389 73.1417 31.585 73.7297 31.585C74.5697 31.585 75.3747 31.284 76.1447 30.682C76.3967 30.486 76.6487 30.388 76.9007 30.388C77.1387 30.388 77.3347 30.465 77.4887 30.619C77.6427 30.759 77.7197 30.948 77.7197 31.186C77.7197 31.326 77.6777 31.48 77.5937 31.648C76.6697 33.412 75.1997 34.294 73.1837 34.294ZM74.4437 27.196C74.6957 27.196 74.8217 27.077 74.8217 26.839C74.8217 26.433 74.6677 26.111 74.3597 25.873C74.0657 25.621 73.6807 25.495 73.2047 25.495C72.7987 25.495 72.4347 25.614 72.1127 25.852C71.8047 26.076 71.5667 26.405 71.3987 26.839C71.3847 26.867 71.3777 26.909 71.3777 26.965C71.3777 27.119 71.4687 27.196 71.6507 27.196H74.4437ZM83.203 34.294C82.013 34.294 81.082 34.119 80.41 33.769C79.822 33.461 79.472 33.132 79.36 32.782C79.304 32.628 79.22 32.229 79.108 31.585L79.003 30.997C78.989 30.955 78.982 30.899 78.982 30.829C78.982 30.549 79.101 30.325 79.339 30.157C79.577 29.989 79.85 29.905 80.158 29.905C80.34 29.905 80.508 29.947 80.662 30.031C80.83 30.101 80.963 30.206 81.061 30.346C81.383 30.892 81.705 31.277 82.027 31.501C82.349 31.711 82.741 31.816 83.203 31.816C83.581 31.816 83.882 31.739 84.106 31.585C84.33 31.431 84.442 31.228 84.442 30.976C84.442 30.654 84.267 30.395 83.917 30.199C83.581 29.989 82.93 29.765 81.964 29.527C81.18 29.331 80.508 28.967 79.948 28.435C79.402 27.903 79.129 27.21 79.129 26.356C79.129 25.306 79.542 24.487 80.368 23.899C81.194 23.297 82.237 22.996 83.497 22.996C84.365 22.996 85.184 23.136 85.954 23.416C86.5 23.612 86.829 23.948 86.941 24.424C87.053 24.858 87.144 25.292 87.214 25.726L87.235 25.915C87.235 26.251 87.116 26.517 86.878 26.713C86.64 26.895 86.367 26.986 86.059 26.986C85.877 26.986 85.709 26.958 85.555 26.902C85.415 26.832 85.303 26.734 85.219 26.608C84.911 26.174 84.603 25.838 84.295 25.6C84.001 25.348 83.672 25.222 83.308 25.222C82.93 25.222 82.636 25.292 82.426 25.432C82.216 25.572 82.111 25.761 82.111 25.999C82.111 26.307 82.286 26.559 82.636 26.755C83 26.951 83.637 27.168 84.547 27.406C85.555 27.672 86.325 28.05 86.857 28.54C87.403 29.03 87.676 29.765 87.676 30.745C87.676 31.865 87.256 32.74 86.416 33.37C85.59 33.986 84.519 34.294 83.203 34.294ZM93.7667 34.294C92.8147 34.294 91.9467 34.07 91.1627 33.622C90.3927 33.16 89.7837 32.509 89.3357 31.669C88.8877 30.829 88.6637 29.863 88.6637 28.771C88.6637 27.581 88.9017 26.552 89.3777 25.684C89.8537 24.802 90.4977 24.137 91.3097 23.689C92.1357 23.227 93.0457 22.996 94.0397 22.996C94.8097 22.996 95.4817 23.129 96.0557 23.395C96.6437 23.661 97.0917 24.018 97.3997 24.466C97.7217 24.9 97.8827 25.369 97.8827 25.873C97.8827 26.419 97.7217 26.839 97.3997 27.133C97.0777 27.413 96.6717 27.553 96.1817 27.553C95.7477 27.553 95.3977 27.413 95.1317 27.133C94.8657 26.839 94.6767 26.496 94.5647 26.104C94.3827 25.488 94.0537 25.18 93.5777 25.18C93.1017 25.18 92.7097 25.418 92.4017 25.894C92.0937 26.37 91.9397 26.979 91.9397 27.721C91.9397 28.757 92.2197 29.583 92.7797 30.199C93.3397 30.815 94.0607 31.123 94.9427 31.123C95.7407 31.123 96.4477 30.864 97.0637 30.346C97.2177 30.206 97.3997 30.136 97.6097 30.136C97.8337 30.136 98.0227 30.22 98.1767 30.388C98.3307 30.542 98.4077 30.752 98.4077 31.018C98.4077 31.284 98.3167 31.578 98.1347 31.9C97.6867 32.656 97.0917 33.244 96.3497 33.664C95.6217 34.084 94.7607 34.294 93.7667 34.294ZM102.646 34.294C101.61 34.294 100.784 33.993 100.168 33.391C99.5517 32.789 99.2437 32.026 99.2437 31.102C99.2437 30.066 99.6007 29.254 100.315 28.666C101.029 28.078 102.009 27.784 103.255 27.784C103.703 27.784 104.193 27.826 104.725 27.91H104.809C105.005 27.91 105.103 27.784 105.103 27.532V26.65C105.103 26.076 105.005 25.684 104.809 25.474C104.627 25.25 104.34 25.138 103.948 25.138C103.696 25.138 103.465 25.243 103.255 25.453C103.059 25.649 102.905 25.908 102.793 26.23C102.653 26.664 102.457 26.986 102.205 27.196C101.953 27.392 101.603 27.49 101.155 27.49C100.651 27.49 100.252 27.329 99.9577 27.007C99.6637 26.685 99.5167 26.272 99.5167 25.768C99.5167 25.25 99.7057 24.781 100.084 24.361C100.462 23.941 100.98 23.612 101.638 23.374C102.31 23.122 103.066 22.996 103.906 22.996C105.432 22.996 106.573 23.339 107.329 24.025C108.085 24.697 108.463 25.642 108.463 26.86V29.674C108.463 30.234 108.512 30.696 108.61 31.06C108.708 31.424 108.89 31.802 109.156 32.194C109.282 32.362 109.345 32.53 109.345 32.698C109.345 32.866 109.289 33.02 109.177 33.16C109.065 33.286 108.911 33.384 108.715 33.454L107.497 33.958C107.301 34.042 107.112 34.112 106.93 34.168C106.748 34.224 106.587 34.252 106.447 34.252C106.153 34.252 105.887 33.916 105.649 33.244C105.593 33.076 105.509 32.992 105.397 32.992C105.327 32.992 105.236 33.048 105.124 33.16C104.494 33.916 103.668 34.294 102.646 34.294ZM103.675 31.858C104.081 31.858 104.417 31.711 104.683 31.417C104.963 31.109 105.103 30.738 105.103 30.304C105.103 30.094 104.991 29.919 104.767 29.779C104.557 29.639 104.305 29.569 104.011 29.569C103.563 29.569 103.213 29.681 102.961 29.905C102.723 30.115 102.604 30.409 102.604 30.787C102.604 31.081 102.695 31.333 102.877 31.543C103.073 31.753 103.339 31.858 103.675 31.858ZM111.038 34C110.73 34 110.492 33.93 110.324 33.79C110.17 33.65 110.093 33.461 110.093 33.223C110.093 33.097 110.114 32.964 110.156 32.824C110.254 32.488 110.324 32.18 110.366 31.9C110.408 31.62 110.429 31.27 110.429 30.85V25.873C110.429 25.425 110.338 24.991 110.156 24.571C110.114 24.459 110.093 24.347 110.093 24.235C110.093 24.025 110.156 23.836 110.282 23.668C110.422 23.5 110.597 23.395 110.807 23.353L112.445 23.038C112.557 23.01 112.704 22.996 112.886 22.996C113.488 22.996 113.789 23.311 113.789 23.941V24.214C113.789 24.284 113.803 24.347 113.831 24.403C113.859 24.459 113.901 24.487 113.957 24.487C114.027 24.487 114.111 24.431 114.209 24.319C114.587 23.857 114.937 23.521 115.259 23.311C115.581 23.101 115.966 22.996 116.414 22.996C116.974 22.996 117.401 23.206 117.695 23.626C118.003 24.046 118.157 24.55 118.157 25.138C118.157 25.726 118.003 26.244 117.695 26.692C117.401 27.126 117.002 27.343 116.498 27.343C116.204 27.343 115.966 27.273 115.784 27.133C115.616 26.993 115.448 26.79 115.28 26.524C115.168 26.356 115.063 26.23 114.965 26.146C114.881 26.062 114.776 26.02 114.65 26.02C114.384 26.02 114.174 26.195 114.02 26.545C113.866 26.895 113.789 27.357 113.789 27.931V30.85C113.789 31.27 113.81 31.62 113.852 31.9C113.894 32.18 113.964 32.488 114.062 32.824C114.104 32.964 114.125 33.097 114.125 33.223C114.125 33.461 114.041 33.65 113.873 33.79C113.719 33.93 113.488 34 113.18 34H111.038ZM123.35 38.494C122.258 38.494 121.327 38.354 120.557 38.074C119.801 37.794 119.227 37.409 118.835 36.919C118.457 36.429 118.268 35.876 118.268 35.26C118.268 34.546 118.548 33.944 119.108 33.454C119.178 33.384 119.213 33.321 119.213 33.265C119.213 33.195 119.178 33.125 119.108 33.055C118.94 32.873 118.807 32.67 118.709 32.446C118.625 32.208 118.583 31.97 118.583 31.732C118.583 31.354 118.674 31.018 118.856 30.724C119.052 30.416 119.311 30.164 119.633 29.968C119.745 29.912 119.801 29.835 119.801 29.737C119.801 29.667 119.766 29.597 119.696 29.527C119.024 28.813 118.688 27.945 118.688 26.923C118.688 26.167 118.877 25.495 119.255 24.907C119.647 24.305 120.186 23.836 120.872 23.5C121.572 23.164 122.377 22.996 123.287 22.996C123.805 22.996 124.33 23.066 124.862 23.206C124.904 23.22 124.96 23.227 125.03 23.227C125.212 23.227 125.345 23.122 125.429 22.912C125.653 22.394 125.975 21.988 126.395 21.694C126.829 21.4 127.368 21.253 128.012 21.253C128.67 21.253 129.195 21.428 129.587 21.778C129.979 22.114 130.175 22.555 130.175 23.101C130.175 23.535 130.07 23.892 129.86 24.172C129.65 24.438 129.342 24.571 128.936 24.571C128.712 24.571 128.53 24.529 128.39 24.445C128.264 24.347 128.131 24.214 127.991 24.046C127.893 23.906 127.795 23.801 127.697 23.731C127.613 23.661 127.501 23.626 127.361 23.626C127.221 23.626 127.102 23.675 127.004 23.773C126.906 23.871 126.857 23.983 126.857 24.109C126.857 24.249 126.906 24.375 127.004 24.487C127.592 25.187 127.886 25.999 127.886 26.923C127.886 27.679 127.69 28.358 127.298 28.96C126.92 29.562 126.381 30.038 125.681 30.388C124.995 30.724 124.197 30.892 123.287 30.892C122.979 30.892 122.559 30.85 122.027 30.766H121.922C121.796 30.766 121.691 30.801 121.607 30.871C121.523 30.927 121.481 31.018 121.481 31.144C121.481 31.592 122.188 31.816 123.602 31.816C125.366 31.816 126.64 32.061 127.424 32.551C128.222 33.041 128.621 33.839 128.621 34.945C128.621 36.065 128.152 36.933 127.214 37.549C126.276 38.179 124.988 38.494 123.35 38.494ZM123.434 29.17C123.728 29.17 123.959 29.016 124.127 28.708C124.309 28.386 124.4 27.931 124.4 27.343C124.4 26.545 124.281 25.901 124.043 25.411C123.805 24.921 123.504 24.676 123.14 24.676C122.846 24.676 122.608 24.837 122.426 25.159C122.258 25.467 122.174 25.915 122.174 26.503C122.174 27.301 122.293 27.945 122.531 28.435C122.769 28.925 123.07 29.17 123.434 29.17ZM123.392 36.163C123.924 36.163 124.372 36.072 124.736 35.89C125.114 35.722 125.303 35.484 125.303 35.176C125.303 34.924 125.184 34.728 124.946 34.588C124.708 34.462 124.337 34.364 123.833 34.294C123.343 34.238 122.608 34.182 121.628 34.126C121.278 34.098 121.103 34.273 121.103 34.651C121.103 35.659 121.866 36.163 123.392 36.163ZM133.079 34.294C132.043 34.294 131.217 33.993 130.601 33.391C129.985 32.789 129.677 32.026 129.677 31.102C129.677 30.066 130.034 29.254 130.748 28.666C131.462 28.078 132.442 27.784 133.688 27.784C134.136 27.784 134.626 27.826 135.158 27.91H135.242C135.438 27.91 135.536 27.784 135.536 27.532V26.65C135.536 26.076 135.438 25.684 135.242 25.474C135.06 25.25 134.773 25.138 134.381 25.138C134.129 25.138 133.898 25.243 133.688 25.453C133.492 25.649 133.338 25.908 133.226 26.23C133.086 26.664 132.89 26.986 132.638 27.196C132.386 27.392 132.036 27.49 131.588 27.49C131.084 27.49 130.685 27.329 130.391 27.007C130.097 26.685 129.95 26.272 129.95 25.768C129.95 25.25 130.139 24.781 130.517 24.361C130.895 23.941 131.413 23.612 132.071 23.374C132.743 23.122 133.499 22.996 134.339 22.996C135.865 22.996 137.006 23.339 137.762 24.025C138.518 24.697 138.896 25.642 138.896 26.86V29.674C138.896 30.234 138.945 30.696 139.043 31.06C139.141 31.424 139.323 31.802 139.589 32.194C139.715 32.362 139.778 32.53 139.778 32.698C139.778 32.866 139.722 33.02 139.61 33.16C139.498 33.286 139.344 33.384 139.148 33.454L137.93 33.958C137.734 34.042 137.545 34.112 137.363 34.168C137.181 34.224 137.02 34.252 136.88 34.252C136.586 34.252 136.32 33.916 136.082 33.244C136.026 33.076 135.942 32.992 135.83 32.992C135.76 32.992 135.669 33.048 135.557 33.16C134.927 33.916 134.101 34.294 133.079 34.294ZM134.108 31.858C134.514 31.858 134.85 31.711 135.116 31.417C135.396 31.109 135.536 30.738 135.536 30.304C135.536 30.094 135.424 29.919 135.2 29.779C134.99 29.639 134.738 29.569 134.444 29.569C133.996 29.569 133.646 29.681 133.394 29.905C133.156 30.115 133.037 30.409 133.037 30.787C133.037 31.081 133.128 31.333 133.31 31.543C133.506 31.753 133.772 31.858 134.108 31.858ZM141.472 34C141.164 34 140.926 33.93 140.758 33.79C140.604 33.65 140.527 33.461 140.527 33.223C140.527 33.097 140.548 32.964 140.59 32.824C140.688 32.488 140.758 32.18 140.8 31.9C140.842 31.62 140.863 31.27 140.863 30.85V25.873C140.863 25.425 140.772 24.991 140.59 24.571C140.548 24.459 140.527 24.347 140.527 24.235C140.527 24.025 140.59 23.836 140.716 23.668C140.856 23.5 141.031 23.395 141.241 23.353L142.879 23.038C142.991 23.01 143.138 22.996 143.32 22.996C143.922 22.996 144.223 23.311 144.223 23.941V24.214C144.223 24.284 144.237 24.347 144.265 24.403C144.293 24.459 144.335 24.487 144.391 24.487C144.461 24.487 144.545 24.431 144.643 24.319C145.021 23.857 145.371 23.521 145.693 23.311C146.015 23.101 146.4 22.996 146.848 22.996C147.408 22.996 147.835 23.206 148.129 23.626C148.437 24.046 148.591 24.55 148.591 25.138C148.591 25.726 148.437 26.244 148.129 26.692C147.835 27.126 147.436 27.343 146.932 27.343C146.638 27.343 146.4 27.273 146.218 27.133C146.05 26.993 145.882 26.79 145.714 26.524C145.602 26.356 145.497 26.23 145.399 26.146C145.315 26.062 145.21 26.02 145.084 26.02C144.818 26.02 144.608 26.195 144.454 26.545C144.3 26.895 144.223 27.357 144.223 27.931V30.85C144.223 31.27 144.244 31.62 144.286 31.9C144.328 32.18 144.398 32.488 144.496 32.824C144.538 32.964 144.559 33.097 144.559 33.223C144.559 33.461 144.475 33.65 144.307 33.79C144.153 33.93 143.922 34 143.614 34H141.472ZM160.281 34.294C158.853 34.294 157.6 33.972 156.522 33.328C155.458 32.67 154.632 31.767 154.044 30.619C153.47 29.457 153.183 28.134 153.183 26.65C153.183 25.208 153.491 23.913 154.107 22.765C154.723 21.603 155.598 20.686 156.732 20.014C157.88 19.342 159.224 19.006 160.764 19.006C161.758 19.006 162.654 19.16 163.452 19.468C164.208 19.762 164.628 20.315 164.712 21.127L164.817 22.219C164.859 22.625 164.754 22.961 164.502 23.227C164.25 23.479 163.942 23.605 163.578 23.605C163.354 23.605 163.137 23.549 162.927 23.437C162.731 23.325 162.556 23.157 162.402 22.933C162.136 22.541 161.814 22.247 161.436 22.051C161.058 21.841 160.652 21.736 160.218 21.736C159.56 21.736 158.972 21.911 158.454 22.261C157.95 22.611 157.558 23.101 157.278 23.731C156.998 24.361 156.858 25.075 156.858 25.873C156.858 26.755 157.033 27.581 157.383 28.351C157.747 29.107 158.251 29.716 158.895 30.178C159.539 30.626 160.267 30.85 161.079 30.85C161.597 30.85 162.045 30.794 162.423 30.682C162.815 30.556 163.179 30.36 163.515 30.094C163.795 29.884 164.068 29.779 164.334 29.779C164.572 29.779 164.775 29.863 164.943 30.031C165.195 30.255 165.321 30.514 165.321 30.808C165.321 31.018 165.244 31.256 165.09 31.522C164.572 32.404 163.928 33.09 163.158 33.58C162.388 34.056 161.429 34.294 160.281 34.294ZM169.983 34.294C168.933 34.294 168.114 33.944 167.526 33.244C166.938 32.544 166.644 31.571 166.644 30.325V26.44C166.644 26.006 166.616 25.649 166.56 25.369C166.504 25.075 166.413 24.774 166.287 24.466C166.217 24.284 166.182 24.13 166.182 24.004C166.182 23.78 166.266 23.605 166.434 23.479C166.602 23.353 166.826 23.29 167.106 23.29H168.975C169.339 23.29 169.598 23.388 169.752 23.584C169.92 23.766 170.004 24.06 170.004 24.466V29.8C170.004 30.374 170.151 30.836 170.445 31.186C170.753 31.536 171.152 31.711 171.642 31.711C172.132 31.711 172.524 31.536 172.818 31.186C173.126 30.836 173.28 30.374 173.28 29.8V26.44C173.28 26.02 173.245 25.67 173.175 25.39C173.119 25.096 173.014 24.788 172.86 24.466C172.79 24.298 172.755 24.158 172.755 24.046C172.755 23.822 172.846 23.64 173.028 23.5C173.21 23.36 173.448 23.29 173.742 23.29H175.611C175.975 23.29 176.234 23.388 176.388 23.584C176.556 23.766 176.64 24.06 176.64 24.466V31.417C176.64 31.865 176.731 32.299 176.913 32.719C176.955 32.817 176.976 32.929 176.976 33.055C176.976 33.265 176.906 33.454 176.766 33.622C176.64 33.79 176.472 33.895 176.262 33.937L174.624 34.252C174.512 34.28 174.365 34.294 174.183 34.294C173.581 34.294 173.28 33.979 173.28 33.349V33.076C173.28 33.006 173.266 32.943 173.238 32.887C173.21 32.831 173.168 32.803 173.112 32.803C173.014 32.803 172.93 32.859 172.86 32.971C172.58 33.363 172.174 33.685 171.642 33.937C171.11 34.175 170.557 34.294 169.983 34.294ZM178.858 38.2C178.55 38.2 178.312 38.13 178.144 37.99C177.99 37.85 177.913 37.661 177.913 37.423C177.913 37.311 177.934 37.178 177.976 37.024C178.074 36.688 178.144 36.38 178.186 36.1C178.228 35.82 178.249 35.47 178.249 35.05V25.873C178.249 25.425 178.158 24.991 177.976 24.571C177.92 24.459 177.892 24.326 177.892 24.172C177.892 23.976 177.955 23.801 178.081 23.647C178.207 23.493 178.389 23.395 178.627 23.353L180.265 23.038C180.377 23.01 180.524 22.996 180.706 22.996C181.308 22.996 181.609 23.311 181.609 23.941V24.088C181.609 24.186 181.623 24.263 181.651 24.319C181.693 24.361 181.742 24.382 181.798 24.382C181.882 24.382 181.966 24.333 182.05 24.235C182.372 23.857 182.764 23.556 183.226 23.332C183.688 23.108 184.178 22.996 184.696 22.996C185.55 22.996 186.292 23.227 186.922 23.689C187.566 24.137 188.063 24.788 188.413 25.642C188.763 26.482 188.938 27.476 188.938 28.624C188.938 29.828 188.728 30.857 188.308 31.711C187.902 32.565 187.342 33.209 186.628 33.643C185.928 34.077 185.13 34.294 184.234 34.294C183.296 34.294 182.554 33.986 182.008 33.37C181.938 33.286 181.875 33.244 181.819 33.244C181.763 33.244 181.714 33.272 181.672 33.328C181.63 33.384 181.609 33.447 181.609 33.517V35.05C181.609 35.47 181.63 35.82 181.672 36.1C181.714 36.38 181.784 36.688 181.882 37.024C181.924 37.178 181.945 37.311 181.945 37.423C181.945 37.661 181.861 37.85 181.693 37.99C181.539 38.13 181.308 38.2 181 38.2H178.858ZM183.751 31.858C184.255 31.858 184.668 31.592 184.99 31.06C185.312 30.528 185.473 29.793 185.473 28.855C185.473 27.861 185.291 27.042 184.927 26.398C184.577 25.74 184.094 25.411 183.478 25.411C182.96 25.411 182.533 25.67 182.197 26.188C181.861 26.692 181.693 27.385 181.693 28.267C181.693 29.331 181.875 30.199 182.239 30.871C182.603 31.529 183.107 31.858 183.751 31.858ZM195.349 34.294C194.341 34.294 193.424 34.063 192.598 33.601C191.786 33.139 191.142 32.481 190.666 31.627C190.19 30.759 189.952 29.758 189.952 28.624C189.952 27.49 190.19 26.496 190.666 25.642C191.156 24.788 191.807 24.137 192.619 23.689C193.445 23.227 194.355 22.996 195.349 22.996C196.357 22.996 197.267 23.227 198.079 23.689C198.905 24.137 199.556 24.788 200.032 25.642C200.508 26.496 200.746 27.49 200.746 28.624C200.746 29.758 200.501 30.759 200.011 31.627C199.535 32.481 198.884 33.139 198.058 33.601C197.246 34.063 196.343 34.294 195.349 34.294ZM195.517 31.753C196.077 31.753 196.525 31.536 196.861 31.102C197.197 30.654 197.365 30.024 197.365 29.212C197.365 28.134 197.169 27.252 196.777 26.566C196.385 25.866 195.846 25.516 195.16 25.516C194.614 25.516 194.173 25.733 193.837 26.167C193.501 26.601 193.333 27.224 193.333 28.036C193.333 29.114 193.522 30.003 193.9 30.703C194.292 31.403 194.831 31.753 195.517 31.753ZM194.383 21.715C194.159 21.505 194.047 21.246 194.047 20.938C194.047 20.658 194.145 20.42 194.341 20.224C194.915 19.65 195.447 19.006 195.937 18.292C196.175 17.928 196.497 17.746 196.903 17.746C197.239 17.746 197.547 17.886 197.827 18.166C198.163 18.502 198.331 18.852 198.331 19.216C198.331 19.58 198.17 19.881 197.848 20.119C197.022 20.735 196.385 21.246 195.937 21.652C195.839 21.75 195.713 21.834 195.559 21.904C195.405 21.96 195.251 21.988 195.097 21.988C194.803 21.988 194.565 21.897 194.383 21.715ZM202.647 34C202.339 34 202.101 33.93 201.933 33.79C201.779 33.65 201.702 33.461 201.702 33.223C201.702 33.097 201.723 32.964 201.765 32.824C201.863 32.488 201.933 32.18 201.975 31.9C202.017 31.62 202.038 31.27 202.038 30.85V25.873C202.038 25.425 201.947 24.991 201.765 24.571C201.723 24.459 201.702 24.347 201.702 24.235C201.702 24.025 201.765 23.836 201.891 23.668C202.031 23.5 202.206 23.395 202.416 23.353L204.054 23.038C204.166 23.01 204.313 22.996 204.495 22.996C205.097 22.996 205.398 23.311 205.398 23.941V24.214C205.398 24.284 205.412 24.347 205.44 24.403C205.468 24.459 205.51 24.487 205.566 24.487C205.664 24.487 205.748 24.431 205.818 24.319C206.098 23.927 206.504 23.612 207.036 23.374C207.568 23.122 208.121 22.996 208.695 22.996C209.745 22.996 210.564 23.346 211.152 24.046C211.74 24.746 212.034 25.719 212.034 26.965V30.85C212.034 31.27 212.055 31.62 212.097 31.9C212.139 32.18 212.209 32.488 212.307 32.824C212.349 32.964 212.37 33.097 212.37 33.223C212.37 33.461 212.286 33.65 212.118 33.79C211.964 33.93 211.733 34 211.425 34H209.283C208.975 34 208.737 33.93 208.569 33.79C208.415 33.65 208.338 33.461 208.338 33.223C208.338 33.097 208.359 32.964 208.401 32.824C208.499 32.488 208.569 32.18 208.611 31.9C208.653 31.62 208.674 31.27 208.674 30.85V27.49C208.674 26.916 208.52 26.454 208.212 26.104C207.918 25.754 207.526 25.579 207.036 25.579C206.546 25.579 206.147 25.754 205.839 26.104C205.545 26.454 205.398 26.916 205.398 27.49V30.85C205.398 31.27 205.419 31.62 205.461 31.9C205.503 32.18 205.573 32.488 205.671 32.824C205.713 32.964 205.734 33.097 205.734 33.223C205.734 33.461 205.65 33.65 205.482 33.79C205.328 33.93 205.097 34 204.789 34H202.647Z" fill="#F2E2D1"/>
<g clip-path="url(#clip0_105_161)">
<path d="M237.002 39.9998C229.813 40.0015 223.989 34.1747 224 26.9924C224.011 19.7945 229.834 13.9815 237.016 13.9998C244.206 14.0181 249.984 19.7988 250 26.9898C250.015 34.172 244.194 39.9989 237.002 39.9998ZM236.981 37.8423C242.941 37.8606 247.812 33.0142 247.842 27.0359C247.871 21.062 243.009 16.1738 237.02 16.1564C231.058 16.139 226.187 20.9854 226.159 26.962C226.132 32.9359 230.993 37.8232 236.981 37.8423Z" fill="#F2E2D1"/>
<path d="M240.804 28.0992C241.356 28.649 241.856 29.1475 242.367 29.6564C242.319 29.7077 242.253 29.7834 242.182 29.8547C240.759 31.2788 239.336 32.7029 237.911 34.1253C237.287 34.7473 236.716 34.7491 236.099 34.1323C234.675 32.709 233.252 31.2849 231.829 29.8608C231.757 29.7886 231.688 29.7129 231.641 29.6634C232.149 29.1588 232.649 28.6621 233.147 28.1679C234.003 29.0257 234.904 29.9287 235.805 30.8317C235.834 30.8186 235.862 30.8056 235.891 30.7925V19.4485H238.08V30.8282C239.028 29.8791 239.934 28.9718 240.805 28.0992H240.804Z" fill="#F2E2D1"/>
</g>
<defs>
<clipPath id="clip0_105_161">
<rect width="26" height="26" fill="white" transform="translate(224 14)"/>
</clipPath>
</defs>
</svg>
