<svg width="872" height="45" viewBox="0 0 872 45" fill="none" xmlns="http://www.w3.org/2000/svg">
<path d="M11.8884 44.644C10.0484 44.644 8.54578 44.5673 7.38045 44.414C6.21511 44.2913 5.06511 44.0307 3.93045 43.632C2.85711 43.264 2.09045 42.804 1.63045 42.252C1.20111 41.6693 0.940445 41.0867 0.848445 40.504C0.787112 39.9213 0.756445 39.0013 0.756445 37.744C0.756445 36.456 0.679779 35.4747 0.526445 34.8C0.495779 34.6467 0.480445 34.4473 0.480445 34.202C0.480445 33.3433 0.787112 32.638 1.40045 32.086C2.01378 31.5033 2.73445 31.212 3.56245 31.212C4.63578 31.212 5.54045 31.7027 6.27645 32.684C7.71778 34.6467 9.37378 35.628 11.2444 35.628C12.2564 35.628 12.7624 35.2447 12.7624 34.478C12.7624 34.018 12.5171 33.6193 12.0264 33.282C11.5358 32.914 10.4471 32.4387 8.76045 31.856C6.42978 31.028 4.49778 29.8013 2.96445 28.176C1.46178 26.52 0.710445 24.174 0.710445 21.138C0.710445 17.918 1.84511 15.4493 4.11445 13.732C6.41445 12.0147 9.35845 11.156 12.9464 11.156C15.8904 11.156 18.1598 11.386 19.7544 11.846C21.3798 12.306 22.2844 13.2107 22.4684 14.56C22.6831 16.1547 23.0204 17.7647 23.4804 19.39C23.6031 19.7887 23.6644 20.2027 23.6644 20.632C23.6644 21.5213 23.3731 22.2267 22.7904 22.748C22.2384 23.2387 21.5331 23.484 20.6744 23.484C19.4784 23.484 18.4358 23.024 17.5464 22.104C16.6264 21.1533 15.8904 20.5247 15.3384 20.218C14.7864 19.8807 14.2498 19.712 13.7284 19.712C13.2991 19.712 12.9618 19.804 12.7164 19.988C12.4711 20.172 12.3484 20.4173 12.3484 20.724C12.3484 21.1227 12.5784 21.4907 13.0384 21.828C13.5291 22.1347 14.4951 22.518 15.9364 22.978C19.1871 24.0513 21.5178 25.3853 22.9284 26.98C24.3391 28.5747 25.0444 30.844 25.0444 33.788C25.0444 37.1 23.9251 39.7373 21.6864 41.7C19.4478 43.6627 16.1818 44.644 11.8884 44.644ZM28.6138 44C26.8964 44 26.0378 43.2027 26.0378 41.608C26.0378 41.0867 26.1758 40.3353 26.4518 39.354C26.7584 38.342 26.9578 37.008 27.0498 35.352C27.1418 33.696 27.1878 31.212 27.1878 27.9C27.1878 24.68 27.1264 22.2113 27.0038 20.494C26.9118 18.746 26.7278 17.3967 26.4518 16.446C26.1758 15.4647 26.0378 14.7133 26.0378 14.192C26.0378 12.5973 26.8964 11.8 28.6138 11.8H37.6298C39.3471 11.8 40.2058 12.5973 40.2058 14.192C40.2058 14.7133 40.0678 15.4647 39.7918 16.446C39.5158 17.3967 39.3164 18.746 39.1938 20.494C39.1018 22.2113 39.0558 24.68 39.0558 27.9C39.0558 31.212 39.1018 33.696 39.1938 35.352C39.2858 37.008 39.4851 38.342 39.7918 39.354C40.0678 40.3353 40.2058 41.0867 40.2058 41.608C40.2058 43.2027 39.3471 44 37.6298 44H28.6138ZM32.0638 9.776C31.5424 9.776 31.1438 9.638 30.8678 9.362C30.5918 9.086 30.4538 8.74867 30.4538 8.35C30.4538 8.13533 30.4998 7.89 30.5918 7.614C31.3278 5.866 32.0024 4.10266 32.6158 2.324C32.8304 1.64933 33.2291 1.15867 33.8118 0.851999C34.4251 0.514664 35.1458 0.345997 35.9738 0.345997C37.2004 0.345997 38.3658 0.652665 39.4698 1.266C40.5738 1.84867 41.1258 2.508 41.1258 3.244C41.1258 3.67333 40.9264 4.072 40.5278 4.44C39.2091 5.636 38.1358 6.832 37.3078 8.028C36.8171 8.70266 36.4031 9.16266 36.0658 9.408C35.7284 9.65333 35.2071 9.776 34.5018 9.776H32.0638ZM57.2401 44.644C54.0508 44.644 51.2141 43.9847 48.7301 42.666C46.2461 41.3473 44.3141 39.4307 42.9341 36.916C41.5541 34.4013 40.8641 31.4267 40.8641 27.992C40.8641 24.772 41.5081 21.8893 42.7961 19.344C44.1148 16.768 45.9855 14.7593 48.4081 13.318C50.8615 11.8767 53.7135 11.156 56.9641 11.156C58.0988 11.156 59.0188 11.248 59.7241 11.432C60.4295 11.5853 61.1655 11.8767 61.9321 12.306C62.3001 12.5207 62.6068 12.628 62.8521 12.628C63.1895 12.628 63.4655 12.49 63.6801 12.214C64.3241 11.5087 65.0755 11.156 65.9341 11.156C66.8235 11.156 67.5441 11.4013 68.0961 11.892C68.6788 12.3827 68.9701 13.0573 68.9701 13.916C68.9701 15.6947 69.0928 17.2587 69.3381 18.608C69.5528 19.6813 69.6601 20.5553 69.6601 21.23C69.6601 22.334 69.2001 23.2693 68.2801 24.036C67.3908 24.8027 66.3175 25.186 65.0601 25.186C64.2321 25.186 63.4501 25.002 62.7141 24.634C61.9781 24.266 61.3648 23.714 60.8741 22.978C59.7088 21.1993 58.3748 20.31 56.8721 20.31C55.7068 20.31 54.7255 20.7853 53.9281 21.736C53.1615 22.656 52.7781 23.9133 52.7781 25.508C52.7781 27.256 53.0695 28.8353 53.6521 30.246C54.2655 31.626 54.9861 32.7147 55.8141 33.512C56.6728 34.2787 57.4395 34.662 58.1141 34.662C58.8195 34.662 59.1721 34.4167 59.1721 33.926C59.1721 33.6193 59.0188 33.3433 58.7121 33.098C58.4055 32.8527 57.9148 32.5307 57.2401 32.132C56.6575 31.7947 56.2128 31.3653 55.9061 30.844C55.6301 30.3227 55.4921 29.7707 55.4921 29.188C55.4921 28.3907 55.7528 27.716 56.2741 27.164C56.7955 26.5813 57.5008 26.29 58.3901 26.29H67.9581C68.6635 26.29 69.2001 26.4587 69.5681 26.796C69.9361 27.1027 70.1201 27.5627 70.1201 28.176C70.1201 28.544 70.0435 28.9887 69.8901 29.51C69.6141 30.614 69.4761 31.856 69.4761 33.236C69.4761 34.1253 69.5221 34.846 69.6141 35.398C69.7368 35.9193 69.8135 36.226 69.8441 36.318C69.9975 36.87 70.0741 37.3147 70.0741 37.652C70.0741 38.5107 69.7521 39.3693 69.1081 40.228C68.1881 41.4547 66.6395 42.4973 64.4621 43.356C62.2848 44.2147 59.8775 44.644 57.2401 44.644ZM85.7095 44.644C83.2255 44.644 80.9255 44.1227 78.8095 43.08C76.6935 42.0373 75.0068 40.5193 73.7495 38.526C72.4921 36.5327 71.8635 34.1407 71.8635 31.35C71.8635 28.7127 72.1395 25.186 72.6915 20.77C72.7528 20.1567 72.7835 19.6967 72.7835 19.39C72.7835 18.3167 72.6148 17.366 72.2775 16.538C71.9708 15.7713 71.8175 15.02 71.8175 14.284C71.8175 13.5787 72.0475 12.996 72.5075 12.536C72.9675 12.0453 73.5808 11.8 74.3475 11.8H83.6395C84.4675 11.8 85.0961 12.03 85.5255 12.49C85.9855 12.95 86.2155 13.594 86.2155 14.422C86.2155 14.9127 86.1081 15.7253 85.8935 16.86C85.6175 18.3013 85.4335 19.5587 85.3415 20.632C84.9428 24.864 84.7435 27.808 84.7435 29.464C84.7435 31.9787 85.5715 33.236 87.2275 33.236C87.9635 33.236 88.5308 32.9447 88.9295 32.362C89.3588 31.7487 89.5735 30.8593 89.5735 29.694C89.5735 27.1793 89.4048 24.2047 89.0675 20.77C88.9448 19.6047 88.6841 18.2247 88.2855 16.63C87.9788 15.618 87.8255 14.8053 87.8255 14.192C87.8255 13.4867 88.0555 12.9193 88.5155 12.49C88.9755 12.03 89.6501 11.8 90.5395 11.8H95.7375C96.5961 11.8 97.2555 12.0147 97.7155 12.444C98.2061 12.8733 98.4515 13.4713 98.4515 14.238C98.4515 14.6673 98.3595 15.3113 98.1755 16.17C97.9608 17.2433 97.8535 18.1173 97.8535 18.792C97.8535 19.4667 97.8841 20.0033 97.9455 20.402C98.2521 22.8553 98.4821 25.048 98.6355 26.98C98.7888 28.8813 98.8655 30.8747 98.8655 32.96C98.8655 35.5053 98.2981 37.652 97.1635 39.4C96.0288 41.148 94.4648 42.4667 92.4715 43.356C90.5088 44.2147 88.2548 44.644 85.7095 44.644ZM103.094 44C101.377 44 100.518 43.2027 100.518 41.608C100.518 41.0867 100.656 40.3353 100.932 39.354C101.239 38.342 101.438 37.008 101.53 35.352C101.622 33.696 101.668 31.212 101.668 27.9C101.668 24.68 101.607 22.2113 101.484 20.494C101.392 18.746 101.208 17.3967 100.932 16.446C100.656 15.4647 100.518 14.7133 100.518 14.192C100.518 12.5973 101.377 11.8 103.094 11.8H118.826C120.329 11.8 121.418 12.076 122.092 12.628C122.798 13.1493 123.15 13.9313 123.15 14.974C123.15 16.1393 123.304 17.2587 123.61 18.332C123.702 18.7 123.748 19.0373 123.748 19.344C123.748 20.2027 123.457 20.9233 122.874 21.506C122.322 22.058 121.571 22.334 120.62 22.334C119.976 22.334 119.44 22.242 119.01 22.058C118.581 21.8433 118.075 21.5213 117.492 21.092C117.063 20.7547 116.664 20.494 116.296 20.31C115.959 20.126 115.545 20.034 115.054 20.034C114.564 20.034 114.15 20.2027 113.812 20.54C113.475 20.8467 113.306 21.322 113.306 21.966C113.306 22.5793 113.49 23.0547 113.858 23.392C114.257 23.6987 114.748 23.852 115.33 23.852C115.821 23.852 116.312 23.76 116.802 23.576C117.293 23.3613 117.814 23.254 118.366 23.254C119.348 23.254 120.099 23.6373 120.62 24.404C121.142 25.14 121.402 26.1673 121.402 27.486C121.402 28.8353 121.126 29.9393 120.574 30.798C120.053 31.6567 119.317 32.086 118.366 32.086C117.906 32.086 117.538 32.0093 117.262 31.856C117.017 31.7027 116.864 31.6107 116.802 31.58C116.342 31.2427 115.852 31.074 115.33 31.074C114.778 31.074 114.303 31.2427 113.904 31.58C113.506 31.8867 113.306 32.3313 113.306 32.914C113.306 33.6193 113.521 34.156 113.95 34.524C114.41 34.892 115.024 35.076 115.79 35.076C116.618 35.076 117.278 34.9533 117.768 34.708C118.259 34.432 118.75 34.0487 119.24 33.558C119.731 33.098 120.176 32.7607 120.574 32.546C120.973 32.3007 121.51 32.178 122.184 32.178C123.166 32.178 123.917 32.454 124.438 33.006C124.96 33.5273 125.22 34.248 125.22 35.168C125.22 35.628 125.19 35.9807 125.128 36.226C124.883 37.514 124.76 38.7713 124.76 39.998C124.76 41.3167 124.331 42.3133 123.472 42.988C122.644 43.6627 121.433 44 119.838 44H103.094ZM149.116 44.23C147.981 44.23 147 44 146.172 43.54C145.344 43.0493 144.562 42.3287 143.826 41.378C142.201 39.2927 140.115 36.2567 137.57 32.27C137.355 31.9633 137.125 31.81 136.88 31.81C136.727 31.81 136.604 31.8867 136.512 32.04C136.42 32.1627 136.374 32.3313 136.374 32.546C136.374 33.8953 136.497 35.076 136.742 36.088C137.018 37.1 137.386 38.112 137.846 39.124C138.275 40.136 138.49 40.872 138.49 41.332C138.49 42.1293 138.26 42.7733 137.8 43.264C137.34 43.7547 136.696 44 135.868 44H129.014C127.297 44 126.438 43.2027 126.438 41.608C126.438 41.0867 126.576 40.3353 126.852 39.354C127.159 38.342 127.358 37.008 127.45 35.352C127.542 33.696 127.588 31.212 127.588 27.9C127.588 24.68 127.527 22.2113 127.404 20.494C127.312 18.746 127.128 17.3967 126.852 16.446C126.576 15.4647 126.438 14.7133 126.438 14.192C126.438 13.456 126.668 12.8733 127.128 12.444C127.619 12.0147 128.324 11.8 129.244 11.8H133.062C134.319 11.8 135.27 11.9993 135.914 12.398C136.589 12.7967 137.325 13.4867 138.122 14.468C140.054 16.9213 141.955 19.5127 143.826 22.242C143.979 22.518 144.209 22.656 144.516 22.656C144.7 22.656 144.853 22.5947 144.976 22.472C145.099 22.3187 145.16 22.1347 145.16 21.92C145.16 20.2333 144.991 18.93 144.654 18.01C144.501 17.55 144.317 17.1513 144.102 16.814C143.887 16.4767 143.749 16.2773 143.688 16.216C143.412 15.7867 143.213 15.434 143.09 15.158C142.967 14.882 142.906 14.5753 142.906 14.238C142.906 13.5327 143.121 12.95 143.55 12.49C144.01 12.03 144.7 11.8 145.62 11.8H152.29C153.21 11.8 153.9 12.03 154.36 12.49C154.851 12.9193 155.096 13.502 155.096 14.238C155.096 14.698 154.927 15.434 154.59 16.446C154.406 17.0287 154.268 17.734 154.176 18.562C154.115 19.3593 154.053 20.4633 153.992 21.874C153.869 25.738 153.808 28.6973 153.808 30.752C153.808 32.7453 153.869 35.7047 153.992 39.63C154.053 41.0713 153.716 42.206 152.98 43.034C152.244 43.8313 151.125 44.23 149.622 44.23H149.116ZM170.58 44.644C167.82 44.644 165.336 43.9847 163.128 42.666C160.92 41.3473 159.187 39.4307 157.93 36.916C156.672 34.3707 156.044 31.3653 156.044 27.9C156.044 24.4347 156.672 21.4447 157.93 18.93C159.187 16.3847 160.92 14.4527 163.128 13.134C165.336 11.8153 167.82 11.156 170.58 11.156C173.37 11.156 175.854 11.8153 178.032 13.134C180.24 14.4527 181.972 16.3847 183.23 18.93C184.487 21.4447 185.116 24.4347 185.116 27.9C185.116 31.3653 184.487 34.3707 183.23 36.916C181.972 39.4307 180.24 41.3473 178.032 42.666C175.854 43.9847 173.37 44.644 170.58 44.644ZM170.58 36.088C171.009 36.088 171.331 35.904 171.546 35.536C171.791 35.1373 171.96 34.3553 172.052 33.19C172.174 32.0247 172.236 30.2613 172.236 27.9C172.236 25.508 172.174 23.7447 172.052 22.61C171.96 21.4447 171.791 20.678 171.546 20.31C171.331 19.9113 171.009 19.712 170.58 19.712C170.15 19.712 169.813 19.9113 169.568 20.31C169.353 20.678 169.184 21.4447 169.062 22.61C168.97 23.7447 168.924 25.508 168.924 27.9C168.924 30.2613 168.97 32.0247 169.062 33.19C169.184 34.3553 169.353 35.1373 169.568 35.536C169.813 35.904 170.15 36.088 170.58 36.088ZM197.685 44.644C195.845 44.644 194.343 44.5673 193.177 44.414C192.012 44.2913 190.862 44.0307 189.727 43.632C188.654 43.264 187.887 42.804 187.427 42.252C186.998 41.6693 186.737 41.0867 186.645 40.504C186.584 39.9213 186.553 39.0013 186.553 37.744C186.553 36.456 186.477 35.4747 186.323 34.8C186.293 34.6467 186.277 34.4473 186.277 34.202C186.277 33.3433 186.584 32.638 187.197 32.086C187.811 31.5033 188.531 31.212 189.359 31.212C190.433 31.212 191.337 31.7027 192.073 32.684C193.515 34.6467 195.171 35.628 197.041 35.628C198.053 35.628 198.559 35.2447 198.559 34.478C198.559 34.018 198.314 33.6193 197.823 33.282C197.333 32.914 196.244 32.4387 194.557 31.856C192.227 31.028 190.295 29.8013 188.761 28.176C187.259 26.52 186.507 24.174 186.507 21.138C186.507 17.918 187.642 15.4493 189.911 13.732C192.211 12.0147 195.155 11.156 198.743 11.156C201.687 11.156 203.957 11.386 205.551 11.846C207.177 12.306 208.081 13.2107 208.265 14.56C208.48 16.1547 208.817 17.7647 209.277 19.39C209.4 19.7887 209.461 20.2027 209.461 20.632C209.461 21.5213 209.17 22.2267 208.587 22.748C208.035 23.2387 207.33 23.484 206.471 23.484C205.275 23.484 204.233 23.024 203.343 22.104C202.423 21.1533 201.687 20.5247 201.135 20.218C200.583 19.8807 200.047 19.712 199.525 19.712C199.096 19.712 198.759 19.804 198.513 19.988C198.268 20.172 198.145 20.4173 198.145 20.724C198.145 21.1227 198.375 21.4907 198.835 21.828C199.326 22.1347 200.292 22.518 201.733 22.978C204.984 24.0513 207.315 25.3853 208.725 26.98C210.136 28.5747 210.841 30.844 210.841 33.788C210.841 37.1 209.722 39.7373 207.483 41.7C205.245 43.6627 201.979 44.644 197.685 44.644ZM221.688 44C219.971 44 219.112 43.2027 219.112 41.608C219.112 41.0867 219.25 40.3353 219.526 39.354C219.833 38.342 220.032 37.008 220.124 35.352C220.216 33.696 220.262 31.212 220.262 27.9C220.262 24.68 220.201 22.2113 220.078 20.494C219.986 18.746 219.802 17.3967 219.526 16.446C219.25 15.4647 219.112 14.7133 219.112 14.192C219.112 12.5973 219.971 11.8 221.688 11.8H237.42C238.923 11.8 240.011 12.076 240.686 12.628C241.391 13.1493 241.744 13.9313 241.744 14.974C241.744 16.1393 241.897 17.2587 242.204 18.332C242.296 18.7 242.342 19.0373 242.342 19.344C242.342 20.2027 242.051 20.9233 241.468 21.506C240.916 22.058 240.165 22.334 239.214 22.334C238.57 22.334 238.033 22.242 237.604 22.058C237.175 21.8433 236.669 21.5213 236.086 21.092C235.657 20.7547 235.258 20.494 234.89 20.31C234.553 20.126 234.139 20.034 233.648 20.034C233.157 20.034 232.743 20.2027 232.406 20.54C232.069 20.8467 231.9 21.322 231.9 21.966C231.9 22.5793 232.084 23.0547 232.452 23.392C232.851 23.6987 233.341 23.852 233.924 23.852C234.415 23.852 234.905 23.76 235.396 23.576C235.887 23.3613 236.408 23.254 236.96 23.254C237.941 23.254 238.693 23.6373 239.214 24.404C239.735 25.14 239.996 26.1673 239.996 27.486C239.996 28.8353 239.72 29.9393 239.168 30.798C238.647 31.6567 237.911 32.086 236.96 32.086C236.5 32.086 236.132 32.0093 235.856 31.856C235.611 31.7027 235.457 31.6107 235.396 31.58C234.936 31.2427 234.445 31.074 233.924 31.074C233.372 31.074 232.897 31.2427 232.498 31.58C232.099 31.8867 231.9 32.3313 231.9 32.914C231.9 33.6193 232.115 34.156 232.544 34.524C233.004 34.892 233.617 35.076 234.384 35.076C235.212 35.076 235.871 34.9533 236.362 34.708C236.853 34.432 237.343 34.0487 237.834 33.558C238.325 33.098 238.769 32.7607 239.168 32.546C239.567 32.3007 240.103 32.178 240.778 32.178C241.759 32.178 242.511 32.454 243.032 33.006C243.553 33.5273 243.814 34.248 243.814 35.168C243.814 35.628 243.783 35.9807 243.722 36.226C243.477 37.514 243.354 38.7713 243.354 39.998C243.354 41.3167 242.925 42.3133 242.066 42.988C241.238 43.6627 240.027 44 238.432 44H221.688ZM267.71 44.23C266.575 44.23 265.594 44 264.766 43.54C263.938 43.0493 263.156 42.3287 262.42 41.378C260.795 39.2927 258.709 36.2567 256.164 32.27C255.949 31.9633 255.719 31.81 255.474 31.81C255.321 31.81 255.198 31.8867 255.106 32.04C255.014 32.1627 254.968 32.3313 254.968 32.546C254.968 33.8953 255.091 35.076 255.336 36.088C255.612 37.1 255.98 38.112 256.44 39.124C256.869 40.136 257.084 40.872 257.084 41.332C257.084 42.1293 256.854 42.7733 256.394 43.264C255.934 43.7547 255.29 44 254.462 44H247.608C245.891 44 245.032 43.2027 245.032 41.608C245.032 41.0867 245.17 40.3353 245.446 39.354C245.753 38.342 245.952 37.008 246.044 35.352C246.136 33.696 246.182 31.212 246.182 27.9C246.182 24.68 246.121 22.2113 245.998 20.494C245.906 18.746 245.722 17.3967 245.446 16.446C245.17 15.4647 245.032 14.7133 245.032 14.192C245.032 13.456 245.262 12.8733 245.722 12.444C246.213 12.0147 246.918 11.8 247.838 11.8H251.656C252.913 11.8 253.864 11.9993 254.508 12.398C255.183 12.7967 255.919 13.4867 256.716 14.468C258.648 16.9213 260.549 19.5127 262.42 22.242C262.573 22.518 262.803 22.656 263.11 22.656C263.294 22.656 263.447 22.5947 263.57 22.472C263.693 22.3187 263.754 22.1347 263.754 21.92C263.754 20.2333 263.585 18.93 263.248 18.01C263.095 17.55 262.911 17.1513 262.696 16.814C262.481 16.4767 262.343 16.2773 262.282 16.216C262.006 15.7867 261.807 15.434 261.684 15.158C261.561 14.882 261.5 14.5753 261.5 14.238C261.5 13.5327 261.715 12.95 262.144 12.49C262.604 12.03 263.294 11.8 264.214 11.8H270.884C271.804 11.8 272.494 12.03 272.954 12.49C273.445 12.9193 273.69 13.502 273.69 14.238C273.69 14.698 273.521 15.434 273.184 16.446C273 17.0287 272.862 17.734 272.77 18.562C272.709 19.3593 272.647 20.4633 272.586 21.874C272.463 25.738 272.402 28.6973 272.402 30.752C272.402 32.7453 272.463 35.7047 272.586 39.63C272.647 41.0713 272.31 42.206 271.574 43.034C270.838 43.8313 269.719 44.23 268.216 44.23H267.71ZM304.77 44.23C303.636 44.23 302.654 44 301.826 43.54C300.998 43.0493 300.216 42.3287 299.48 41.378C297.855 39.2927 295.77 36.2567 293.224 32.27C293.01 31.9633 292.78 31.81 292.534 31.81C292.381 31.81 292.258 31.8867 292.166 32.04C292.074 32.1627 292.028 32.3313 292.028 32.546C292.028 33.8953 292.151 35.076 292.396 36.088C292.672 37.1 293.04 38.112 293.5 39.124C293.93 40.136 294.144 40.872 294.144 41.332C294.144 42.1293 293.914 42.7733 293.454 43.264C292.994 43.7547 292.35 44 291.522 44H284.668C282.951 44 282.092 43.2027 282.092 41.608C282.092 41.0867 282.23 40.3353 282.506 39.354C282.813 38.342 283.012 37.008 283.104 35.352C283.196 33.696 283.242 31.212 283.242 27.9C283.242 24.68 283.181 22.2113 283.058 20.494C282.966 18.746 282.782 17.3967 282.506 16.446C282.23 15.4647 282.092 14.7133 282.092 14.192C282.092 13.456 282.322 12.8733 282.782 12.444C283.273 12.0147 283.978 11.8 284.898 11.8H288.716C289.974 11.8 290.924 11.9993 291.568 12.398C292.243 12.7967 292.979 13.4867 293.776 14.468C295.708 16.9213 297.61 19.5127 299.48 22.242C299.634 22.518 299.864 22.656 300.17 22.656C300.354 22.656 300.508 22.5947 300.63 22.472C300.753 22.3187 300.814 22.1347 300.814 21.92C300.814 20.2333 300.646 18.93 300.308 18.01C300.155 17.55 299.971 17.1513 299.756 16.814C299.542 16.4767 299.404 16.2773 299.342 16.216C299.066 15.7867 298.867 15.434 298.744 15.158C298.622 14.882 298.56 14.5753 298.56 14.238C298.56 13.5327 298.775 12.95 299.204 12.49C299.664 12.03 300.354 11.8 301.274 11.8H307.944C308.864 11.8 309.554 12.03 310.014 12.49C310.505 12.9193 310.75 13.502 310.75 14.238C310.75 14.698 310.582 15.434 310.244 16.446C310.06 17.0287 309.922 17.734 309.83 18.562C309.769 19.3593 309.708 20.4633 309.646 21.874C309.524 25.738 309.462 28.6973 309.462 30.752C309.462 32.7453 309.524 35.7047 309.646 39.63C309.708 41.0713 309.37 42.206 308.634 43.034C307.898 43.8313 306.779 44.23 305.276 44.23H304.77ZM326.311 44.644C323.827 44.644 321.527 44.1227 319.411 43.08C317.295 42.0373 315.608 40.5193 314.351 38.526C313.094 36.5327 312.465 34.1407 312.465 31.35C312.465 28.7127 312.741 25.186 313.293 20.77C313.354 20.1567 313.385 19.6967 313.385 19.39C313.385 18.3167 313.216 17.366 312.879 16.538C312.572 15.7713 312.419 15.02 312.419 14.284C312.419 13.5787 312.649 12.996 313.109 12.536C313.569 12.0453 314.182 11.8 314.949 11.8H324.241C325.069 11.8 325.698 12.03 326.127 12.49C326.587 12.95 326.817 13.594 326.817 14.422C326.817 14.9127 326.71 15.7253 326.495 16.86C326.219 18.3013 326.035 19.5587 325.943 20.632C325.544 24.864 325.345 27.808 325.345 29.464C325.345 31.9787 326.173 33.236 327.829 33.236C328.565 33.236 329.132 32.9447 329.531 32.362C329.96 31.7487 330.175 30.8593 330.175 29.694C330.175 27.1793 330.006 24.2047 329.669 20.77C329.546 19.6047 329.286 18.2247 328.887 16.63C328.58 15.618 328.427 14.8053 328.427 14.192C328.427 13.4867 328.657 12.9193 329.117 12.49C329.577 12.03 330.252 11.8 331.141 11.8H336.339C337.198 11.8 337.857 12.0147 338.317 12.444C338.808 12.8733 339.053 13.4713 339.053 14.238C339.053 14.6673 338.961 15.3113 338.777 16.17C338.562 17.2433 338.455 18.1173 338.455 18.792C338.455 19.4667 338.486 20.0033 338.547 20.402C338.854 22.8553 339.084 25.048 339.237 26.98C339.39 28.8813 339.467 30.8747 339.467 32.96C339.467 35.5053 338.9 37.652 337.765 39.4C336.63 41.148 335.066 42.4667 333.073 43.356C331.11 44.2147 328.856 44.644 326.311 44.644ZM343.696 44C341.978 44 341.12 43.2027 341.12 41.608C341.12 41.0867 341.258 40.3353 341.534 39.354C341.84 38.342 342.04 37.008 342.132 35.352C342.224 33.696 342.27 31.212 342.27 27.9C342.27 24.68 342.208 22.2113 342.086 20.494C341.994 18.746 341.81 17.3967 341.534 16.446C341.258 15.4647 341.12 14.7133 341.12 14.192C341.12 12.5973 341.978 11.8 343.696 11.8H359.428C360.93 11.8 362.019 12.076 362.694 12.628C363.399 13.1493 363.752 13.9313 363.752 14.974C363.752 16.1393 363.905 17.2587 364.212 18.332C364.304 18.7 364.35 19.0373 364.35 19.344C364.35 20.2027 364.058 20.9233 363.476 21.506C362.924 22.058 362.172 22.334 361.222 22.334C360.578 22.334 360.041 22.242 359.612 22.058C359.182 21.8433 358.676 21.5213 358.094 21.092C357.664 20.7547 357.266 20.494 356.898 20.31C356.56 20.126 356.146 20.034 355.656 20.034C355.165 20.034 354.751 20.2027 354.414 20.54C354.076 20.8467 353.908 21.322 353.908 21.966C353.908 22.5793 354.092 23.0547 354.46 23.392C354.858 23.6987 355.349 23.852 355.932 23.852C356.422 23.852 356.913 23.76 357.404 23.576C357.894 23.3613 358.416 23.254 358.968 23.254C359.949 23.254 360.7 23.6373 361.222 24.404C361.743 25.14 362.004 26.1673 362.004 27.486C362.004 28.8353 361.728 29.9393 361.176 30.798C360.654 31.6567 359.918 32.086 358.968 32.086C358.508 32.086 358.14 32.0093 357.864 31.856C357.618 31.7027 357.465 31.6107 357.404 31.58C356.944 31.2427 356.453 31.074 355.932 31.074C355.38 31.074 354.904 31.2427 354.506 31.58C354.107 31.8867 353.908 32.3313 353.908 32.914C353.908 33.6193 354.122 34.156 354.552 34.524C355.012 34.892 355.625 35.076 356.392 35.076C357.22 35.076 357.879 34.9533 358.37 34.708C358.86 34.432 359.351 34.0487 359.842 33.558C360.332 33.098 360.777 32.7607 361.176 32.546C361.574 32.3007 362.111 32.178 362.786 32.178C363.767 32.178 364.518 32.454 365.04 33.006C365.561 33.5273 365.822 34.248 365.822 35.168C365.822 35.628 365.791 35.9807 365.73 36.226C365.484 37.514 365.362 38.7713 365.362 39.998C365.362 41.3167 364.932 42.3133 364.074 42.988C363.246 43.6627 362.034 44 360.44 44H343.696ZM378.586 44.644C376.746 44.644 375.243 44.5673 374.078 44.414C372.912 44.2913 371.762 44.0307 370.628 43.632C369.554 43.264 368.788 42.804 368.328 42.252C367.898 41.6693 367.638 41.0867 367.546 40.504C367.484 39.9213 367.454 39.0013 367.454 37.744C367.454 36.456 367.377 35.4747 367.224 34.8C367.193 34.6467 367.178 34.4473 367.178 34.202C367.178 33.3433 367.484 32.638 368.098 32.086C368.711 31.5033 369.432 31.212 370.26 31.212C371.333 31.212 372.238 31.7027 372.974 32.684C374.415 34.6467 376.071 35.628 377.942 35.628C378.954 35.628 379.46 35.2447 379.46 34.478C379.46 34.018 379.214 33.6193 378.724 33.282C378.233 32.914 377.144 32.4387 375.458 31.856C373.127 31.028 371.195 29.8013 369.662 28.176C368.159 26.52 367.408 24.174 367.408 21.138C367.408 17.918 368.542 15.4493 370.812 13.732C373.112 12.0147 376.056 11.156 379.644 11.156C382.588 11.156 384.857 11.386 386.452 11.846C388.077 12.306 388.982 13.2107 389.166 14.56C389.38 16.1547 389.718 17.7647 390.178 19.39C390.3 19.7887 390.362 20.2027 390.362 20.632C390.362 21.5213 390.07 22.2267 389.488 22.748C388.936 23.2387 388.23 23.484 387.372 23.484C386.176 23.484 385.133 23.024 384.244 22.104C383.324 21.1533 382.588 20.5247 382.036 20.218C381.484 19.8807 380.947 19.712 380.426 19.712C379.996 19.712 379.659 19.804 379.414 19.988C379.168 20.172 379.046 20.4173 379.046 20.724C379.046 21.1227 379.276 21.4907 379.736 21.828C380.226 22.1347 381.192 22.518 382.634 22.978C385.884 24.0513 388.215 25.3853 389.626 26.98C391.036 28.5747 391.742 30.844 391.742 33.788C391.742 37.1 390.622 39.7373 388.384 41.7C386.145 43.6627 382.879 44.644 378.586 44.644ZM401.764 44C401.059 44 400.491 43.7853 400.062 43.356C399.663 42.9267 399.464 42.3747 399.464 41.7C399.464 41.3627 399.571 40.826 399.786 40.09C400.062 38.986 400.261 38.02 400.384 37.192C400.537 36.364 400.645 35.214 400.706 33.742C400.798 31.6567 400.844 29.786 400.844 28.13C400.844 26.1367 400.798 24.1587 400.706 22.196C400.675 21.644 400.599 21.2453 400.476 21C400.353 20.7547 400.154 20.632 399.878 20.632C399.571 20.632 399.341 20.7853 399.188 21.092C399.035 21.368 398.912 21.7973 398.82 22.38C398.667 23.1773 398.299 23.7907 397.716 24.22C397.133 24.6493 396.397 24.864 395.508 24.864C394.465 24.864 393.591 24.5727 392.886 23.99C392.181 23.3767 391.828 22.518 391.828 21.414C391.828 21.1073 391.889 20.5247 392.012 19.666C392.196 18.5007 392.288 17.504 392.288 16.676C392.288 15.4493 392.426 14.4987 392.702 13.824C393.009 13.1187 393.53 12.6127 394.266 12.306C395.033 11.9687 396.106 11.8 397.486 11.8H415.978C417.358 11.8 418.416 11.9687 419.152 12.306C419.919 12.6127 420.44 13.1187 420.716 13.824C421.023 14.4987 421.176 15.4493 421.176 16.676C421.176 17.504 421.268 18.5007 421.452 19.666C421.575 20.5247 421.636 21.1073 421.636 21.414C421.636 22.518 421.283 23.3767 420.578 23.99C419.873 24.5727 418.999 24.864 417.956 24.864C417.097 24.864 416.361 24.6493 415.748 24.22C415.165 23.7907 414.797 23.1773 414.644 22.38C414.552 21.7973 414.429 21.368 414.276 21.092C414.123 20.7853 413.893 20.632 413.586 20.632C413.31 20.632 413.111 20.7547 412.988 21C412.865 21.2453 412.789 21.644 412.758 22.196C412.666 24.1587 412.62 26.1367 412.62 28.13C412.62 29.786 412.666 31.6567 412.758 33.742C412.819 35.214 412.911 36.364 413.034 37.192C413.187 38.02 413.402 38.986 413.678 40.09C413.893 40.826 414 41.3627 414 41.7C414 42.3747 413.785 42.9267 413.356 43.356C412.957 43.7853 412.405 44 411.7 44H401.764ZM425.319 44C423.602 44 422.743 43.2027 422.743 41.608C422.743 41.0867 422.881 40.3353 423.157 39.354C423.464 38.342 423.663 37.008 423.755 35.352C423.847 33.696 423.893 31.212 423.893 27.9C423.893 24.68 423.832 22.2113 423.709 20.494C423.617 18.746 423.433 17.3967 423.157 16.446C422.881 15.4647 422.743 14.7133 422.743 14.192C422.743 12.5973 423.602 11.8 425.319 11.8H438.567C442.063 11.8 444.884 12.5973 447.031 14.192C449.208 15.756 450.297 18.1173 450.297 21.276C450.297 23.116 449.929 24.6187 449.193 25.784C448.457 26.9187 447.506 27.762 446.341 28.314C446.004 28.4673 445.835 28.636 445.835 28.82C445.835 29.0347 446.004 29.234 446.341 29.418C447.598 30.062 448.564 30.982 449.239 32.178C449.944 33.3433 450.573 34.9073 451.125 36.87C451.248 37.33 451.462 37.974 451.769 38.802C451.984 39.2927 452.122 39.6913 452.183 39.998C452.275 40.274 452.321 40.6267 452.321 41.056C452.321 43.0187 451.171 44 448.871 44H442.017C439.686 44 438.521 42.942 438.521 40.826C438.521 40.0287 438.536 39.3847 438.567 38.894L438.613 34.708C438.613 33.9413 438.46 33.3587 438.153 32.96C437.877 32.5613 437.494 32.362 437.003 32.362C436.482 32.362 436.098 32.5307 435.853 32.868C435.608 33.2053 435.485 33.6653 435.485 34.248C435.485 34.9533 435.562 35.72 435.715 36.548C435.868 37.3453 436.068 38.066 436.313 38.71C436.405 38.9247 436.558 39.3233 436.773 39.906C437.018 40.4887 437.141 41.01 437.141 41.47C437.141 43.1567 436.19 44 434.289 44H425.319ZM436.543 25.14C437.187 25.14 437.754 24.91 438.245 24.45C438.736 23.9593 438.981 23.2387 438.981 22.288C438.981 21.3373 438.736 20.632 438.245 20.172C437.785 19.712 437.218 19.482 436.543 19.482C436.144 19.482 435.868 19.5587 435.715 19.712C435.562 19.8653 435.485 20.1413 435.485 20.54V24.082C435.485 24.7873 435.838 25.14 436.543 25.14ZM456.132 44C455.212 44 454.507 43.7393 454.016 43.218C453.525 42.6967 453.28 42.0373 453.28 41.24C453.28 40.6267 453.418 39.998 453.694 39.354C455.411 35.122 458.049 27.2867 461.606 15.848C462.066 14.3453 462.679 13.3027 463.446 12.72C464.213 12.1067 465.179 11.8 466.344 11.8H470.208C471.435 11.8 472.462 12.1067 473.29 12.72C474.118 13.3027 474.762 14.2993 475.222 15.71C476.51 19.7273 478.043 24.2353 479.822 29.234C481.601 34.202 482.904 37.6213 483.732 39.492C483.977 40.0747 484.1 40.6113 484.1 41.102C484.1 41.93 483.839 42.62 483.318 43.172C482.827 43.724 482.183 44 481.386 44H470.576C469.748 44 469.119 43.77 468.69 43.31C468.291 42.85 468.092 42.2827 468.092 41.608C468.092 41.1787 468.199 40.7187 468.414 40.228C468.751 39.492 468.92 38.8787 468.92 38.388C468.92 37.5907 468.552 37.1767 467.816 37.146C467.233 37.1153 466.666 37.1153 466.114 37.146C465.715 37.1767 465.409 37.3147 465.194 37.56C465.01 37.8053 464.918 38.1427 464.918 38.572C464.918 39.1547 465.071 39.768 465.378 40.412C465.531 40.8107 465.608 41.2093 465.608 41.608C465.608 42.252 465.424 42.8193 465.056 43.31C464.688 43.77 464.136 44 463.4 44H456.132ZM467.862 29.004C468.261 29.004 468.445 28.8353 468.414 28.498C468.23 27.302 467.954 26.0447 467.586 24.726C467.494 24.358 467.31 24.174 467.034 24.174C466.758 24.174 466.574 24.358 466.482 24.726L465.654 28.636V28.682C465.654 28.8967 465.777 29.004 466.022 29.004H467.862ZM496.326 44.644C494.486 44.644 492.983 44.5673 491.818 44.414C490.653 44.2913 489.503 44.0307 488.368 43.632C487.295 43.264 486.528 42.804 486.068 42.252C485.639 41.6693 485.378 41.0867 485.286 40.504C485.225 39.9213 485.194 39.0013 485.194 37.744C485.194 36.456 485.117 35.4747 484.964 34.8C484.933 34.6467 484.918 34.4473 484.918 34.202C484.918 33.3433 485.225 32.638 485.838 32.086C486.451 31.5033 487.172 31.212 488 31.212C489.073 31.212 489.978 31.7027 490.714 32.684C492.155 34.6467 493.811 35.628 495.682 35.628C496.694 35.628 497.2 35.2447 497.2 34.478C497.2 34.018 496.955 33.6193 496.464 33.282C495.973 32.914 494.885 32.4387 493.198 31.856C490.867 31.028 488.935 29.8013 487.402 28.176C485.899 26.52 485.148 24.174 485.148 21.138C485.148 17.918 486.283 15.4493 488.552 13.732C490.852 12.0147 493.796 11.156 497.384 11.156C500.328 11.156 502.597 11.386 504.192 11.846C505.817 12.306 506.722 13.2107 506.906 14.56C507.121 16.1547 507.458 17.7647 507.918 19.39C508.041 19.7887 508.102 20.2027 508.102 20.632C508.102 21.5213 507.811 22.2267 507.228 22.748C506.676 23.2387 505.971 23.484 505.112 23.484C503.916 23.484 502.873 23.024 501.984 22.104C501.064 21.1533 500.328 20.5247 499.776 20.218C499.224 19.8807 498.687 19.712 498.166 19.712C497.737 19.712 497.399 19.804 497.154 19.988C496.909 20.172 496.786 20.4173 496.786 20.724C496.786 21.1227 497.016 21.4907 497.476 21.828C497.967 22.1347 498.933 22.518 500.374 22.978C503.625 24.0513 505.955 25.3853 507.366 26.98C508.777 28.5747 509.482 30.844 509.482 33.788C509.482 37.1 508.363 39.7373 506.124 41.7C503.885 43.6627 500.619 44.644 496.326 44.644ZM520.329 44C518.611 44 517.753 43.2027 517.753 41.608C517.753 41.0867 517.891 40.3353 518.167 39.354C518.473 38.342 518.673 37.008 518.765 35.352C518.857 33.696 518.903 31.212 518.903 27.9C518.903 24.68 518.841 22.2113 518.719 20.494C518.627 18.746 518.443 17.3967 518.167 16.446C517.891 15.4647 517.753 14.7133 517.753 14.192C517.753 12.5973 518.611 11.8 520.329 11.8H533.577C537.073 11.8 539.894 12.5973 542.041 14.192C544.218 15.756 545.307 18.1173 545.307 21.276C545.307 23.116 544.939 24.6187 544.203 25.784C543.467 26.9187 542.516 27.762 541.351 28.314C541.013 28.4673 540.845 28.636 540.845 28.82C540.845 29.0347 541.013 29.234 541.351 29.418C542.608 30.062 543.574 30.982 544.249 32.178C544.954 33.3433 545.583 34.9073 546.135 36.87C546.257 37.33 546.472 37.974 546.779 38.802C546.993 39.2927 547.131 39.6913 547.193 39.998C547.285 40.274 547.331 40.6267 547.331 41.056C547.331 43.0187 546.181 44 543.881 44H537.027C534.696 44 533.531 42.942 533.531 40.826C533.531 40.0287 533.546 39.3847 533.577 38.894L533.623 34.708C533.623 33.9413 533.469 33.3587 533.163 32.96C532.887 32.5613 532.503 32.362 532.013 32.362C531.491 32.362 531.108 32.5307 530.863 32.868C530.617 33.2053 530.495 33.6653 530.495 34.248C530.495 34.9533 530.571 35.72 530.725 36.548C530.878 37.3453 531.077 38.066 531.323 38.71C531.415 38.9247 531.568 39.3233 531.783 39.906C532.028 40.4887 532.151 41.01 532.151 41.47C532.151 43.1567 531.2 44 529.299 44H520.329ZM531.553 25.14C532.197 25.14 532.764 24.91 533.255 24.45C533.745 23.9593 533.991 23.2387 533.991 22.288C533.991 21.3373 533.745 20.632 533.255 20.172C532.795 19.712 532.227 19.482 531.553 19.482C531.154 19.482 530.878 19.5587 530.725 19.712C530.571 19.8653 530.495 20.1413 530.495 20.54V24.082C530.495 24.7873 530.847 25.14 531.553 25.14ZM550.92 44C549.203 44 548.344 43.2027 548.344 41.608C548.344 41.0867 548.482 40.3353 548.758 39.354C549.065 38.342 549.264 37.008 549.356 35.352C549.448 33.696 549.494 31.212 549.494 27.9C549.494 24.68 549.433 22.2113 549.31 20.494C549.218 18.746 549.034 17.3967 548.758 16.446C548.482 15.4647 548.344 14.7133 548.344 14.192C548.344 12.5973 549.203 11.8 550.92 11.8H566.652C568.155 11.8 569.244 12.076 569.918 12.628C570.624 13.1493 570.976 13.9313 570.976 14.974C570.976 16.1393 571.13 17.2587 571.436 18.332C571.528 18.7 571.574 19.0373 571.574 19.344C571.574 20.2027 571.283 20.9233 570.7 21.506C570.148 22.058 569.397 22.334 568.446 22.334C567.802 22.334 567.266 22.242 566.836 22.058C566.407 21.8433 565.901 21.5213 565.318 21.092C564.889 20.7547 564.49 20.494 564.122 20.31C563.785 20.126 563.371 20.034 562.88 20.034C562.39 20.034 561.976 20.2027 561.638 20.54C561.301 20.8467 561.132 21.322 561.132 21.966C561.132 22.5793 561.316 23.0547 561.684 23.392C562.083 23.6987 562.574 23.852 563.156 23.852C563.647 23.852 564.138 23.76 564.628 23.576C565.119 23.3613 565.64 23.254 566.192 23.254C567.174 23.254 567.925 23.6373 568.446 24.404C568.968 25.14 569.228 26.1673 569.228 27.486C569.228 28.8353 568.952 29.9393 568.4 30.798C567.879 31.6567 567.143 32.086 566.192 32.086C565.732 32.086 565.364 32.0093 565.088 31.856C564.843 31.7027 564.69 31.6107 564.628 31.58C564.168 31.2427 563.678 31.074 563.156 31.074C562.604 31.074 562.129 31.2427 561.73 31.58C561.332 31.8867 561.132 32.3313 561.132 32.914C561.132 33.6193 561.347 34.156 561.776 34.524C562.236 34.892 562.85 35.076 563.616 35.076C564.444 35.076 565.104 34.9533 565.594 34.708C566.085 34.432 566.576 34.0487 567.066 33.558C567.557 33.098 568.002 32.7607 568.4 32.546C568.799 32.3007 569.336 32.178 570.01 32.178C570.992 32.178 571.743 32.454 572.264 33.006C572.786 33.5273 573.046 34.248 573.046 35.168C573.046 35.628 573.016 35.9807 572.954 36.226C572.709 37.514 572.586 38.7713 572.586 39.998C572.586 41.3167 572.157 42.3133 571.298 42.988C570.47 43.6627 569.259 44 567.664 44H550.92ZM576.84 44C575.123 44 574.264 43.2027 574.264 41.608C574.264 41.0867 574.402 40.3353 574.678 39.354C574.985 38.342 575.184 37.008 575.276 35.352C575.368 33.696 575.414 31.212 575.414 27.9C575.414 24.68 575.353 22.2113 575.23 20.494C575.138 18.746 574.954 17.3967 574.678 16.446C574.402 15.4647 574.264 14.7133 574.264 14.192C574.264 12.5973 575.123 11.8 576.84 11.8H584.522C590.38 11.8 594.765 13.456 597.678 16.768C600.592 20.08 602.048 24.5267 602.048 30.108C602.048 32.9907 601.45 35.49 600.254 37.606C599.089 39.6913 597.479 41.286 595.424 42.39C593.37 43.4633 591.054 44 588.478 44H576.84ZM588.34 35.26C588.954 35.26 589.46 34.8767 589.858 34.11C590.257 33.3433 590.456 32.2087 590.456 30.706C590.456 27.7007 590.226 25.2167 589.766 23.254C589.306 21.2607 588.708 20.264 587.972 20.264C587.696 20.264 587.482 20.356 587.328 20.54C587.175 20.724 587.098 20.9387 587.098 21.184V33.466C587.098 34.662 587.512 35.26 588.34 35.26ZM605.276 44C603.559 44 602.7 43.2027 602.7 41.608C602.7 41.0867 602.838 40.3353 603.114 39.354C603.421 38.342 603.62 37.008 603.712 35.352C603.804 33.696 603.85 31.212 603.85 27.9C603.85 24.68 603.789 22.2113 603.666 20.494C603.574 18.746 603.39 17.3967 603.114 16.446C602.838 15.4647 602.7 14.7133 602.7 14.192C602.7 12.5973 603.559 11.8 605.276 11.8H621.008C622.511 11.8 623.599 12.076 624.274 12.628C624.979 13.1493 625.332 13.9313 625.332 14.974C625.332 16.1393 625.485 17.2587 625.792 18.332C625.884 18.7 625.93 19.0373 625.93 19.344C625.93 20.2027 625.639 20.9233 625.056 21.506C624.504 22.058 623.753 22.334 622.802 22.334C622.158 22.334 621.621 22.242 621.192 22.058C620.763 21.8433 620.257 21.5213 619.674 21.092C619.245 20.7547 618.846 20.494 618.478 20.31C618.141 20.126 617.727 20.034 617.236 20.034C616.745 20.034 616.331 20.2027 615.994 20.54C615.657 20.8467 615.488 21.322 615.488 21.966C615.488 22.5793 615.672 23.0547 616.04 23.392C616.439 23.6987 616.929 23.852 617.512 23.852C618.003 23.852 618.493 23.76 618.984 23.576C619.475 23.3613 619.996 23.254 620.548 23.254C621.529 23.254 622.281 23.6373 622.802 24.404C623.323 25.14 623.584 26.1673 623.584 27.486C623.584 28.8353 623.308 29.9393 622.756 30.798C622.235 31.6567 621.499 32.086 620.548 32.086C620.088 32.086 619.72 32.0093 619.444 31.856C619.199 31.7027 619.045 31.6107 618.984 31.58C618.524 31.2427 618.033 31.074 617.512 31.074C616.96 31.074 616.485 31.2427 616.086 31.58C615.687 31.8867 615.488 32.3313 615.488 32.914C615.488 33.6193 615.703 34.156 616.132 34.524C616.592 34.892 617.205 35.076 617.972 35.076C618.8 35.076 619.459 34.9533 619.95 34.708C620.441 34.432 620.931 34.0487 621.422 33.558C621.913 33.098 622.357 32.7607 622.756 32.546C623.155 32.3007 623.691 32.178 624.366 32.178C625.347 32.178 626.099 32.454 626.62 33.006C627.141 33.5273 627.402 34.248 627.402 35.168C627.402 35.628 627.371 35.9807 627.31 36.226C627.065 37.514 626.942 38.7713 626.942 39.998C626.942 41.3167 626.513 42.3133 625.654 42.988C624.826 43.6627 623.615 44 622.02 44H605.276ZM640.166 44.644C638.326 44.644 636.823 44.5673 635.658 44.414C634.492 44.2913 633.342 44.0307 632.208 43.632C631.134 43.264 630.368 42.804 629.908 42.252C629.478 41.6693 629.218 41.0867 629.126 40.504C629.064 39.9213 629.034 39.0013 629.034 37.744C629.034 36.456 628.957 35.4747 628.804 34.8C628.773 34.6467 628.758 34.4473 628.758 34.202C628.758 33.3433 629.064 32.638 629.678 32.086C630.291 31.5033 631.012 31.212 631.84 31.212C632.913 31.212 633.818 31.7027 634.554 32.684C635.995 34.6467 637.651 35.628 639.522 35.628C640.534 35.628 641.04 35.2447 641.04 34.478C641.04 34.018 640.794 33.6193 640.304 33.282C639.813 32.914 638.724 32.4387 637.038 31.856C634.707 31.028 632.775 29.8013 631.242 28.176C629.739 26.52 628.988 24.174 628.988 21.138C628.988 17.918 630.122 15.4493 632.392 13.732C634.692 12.0147 637.636 11.156 641.224 11.156C644.168 11.156 646.437 11.386 648.032 11.846C649.657 12.306 650.562 13.2107 650.746 14.56C650.96 16.1547 651.298 17.7647 651.758 19.39C651.88 19.7887 651.942 20.2027 651.942 20.632C651.942 21.5213 651.65 22.2267 651.068 22.748C650.516 23.2387 649.81 23.484 648.952 23.484C647.756 23.484 646.713 23.024 645.824 22.104C644.904 21.1533 644.168 20.5247 643.616 20.218C643.064 19.8807 642.527 19.712 642.006 19.712C641.576 19.712 641.239 19.804 640.994 19.988C640.748 20.172 640.626 20.4173 640.626 20.724C640.626 21.1227 640.856 21.4907 641.316 21.828C641.806 22.1347 642.772 22.518 644.214 22.978C647.464 24.0513 649.795 25.3853 651.206 26.98C652.616 28.5747 653.322 30.844 653.322 33.788C653.322 37.1 652.202 39.7373 649.964 41.7C647.725 43.6627 644.459 44.644 640.166 44.644ZM673.138 44.644C671.298 44.644 669.796 44.5673 668.63 44.414C667.465 44.2913 666.315 44.0307 665.18 43.632C664.107 43.264 663.34 42.804 662.88 42.252C662.451 41.6693 662.19 41.0867 662.098 40.504C662.037 39.9213 662.006 39.0013 662.006 37.744C662.006 36.456 661.93 35.4747 661.776 34.8C661.746 34.6467 661.73 34.4473 661.73 34.202C661.73 33.3433 662.037 32.638 662.65 32.086C663.264 31.5033 663.984 31.212 664.812 31.212C665.886 31.212 666.79 31.7027 667.526 32.684C668.968 34.6467 670.624 35.628 672.494 35.628C673.506 35.628 674.012 35.2447 674.012 34.478C674.012 34.018 673.767 33.6193 673.276 33.282C672.786 32.914 671.697 32.4387 670.01 31.856C667.68 31.028 665.748 29.8013 664.214 28.176C662.712 26.52 661.96 24.174 661.96 21.138C661.96 17.918 663.095 15.4493 665.364 13.732C667.664 12.0147 670.608 11.156 674.196 11.156C677.14 11.156 679.41 11.386 681.004 11.846C682.63 12.306 683.534 13.2107 683.718 14.56C683.933 16.1547 684.27 17.7647 684.73 19.39C684.853 19.7887 684.914 20.2027 684.914 20.632C684.914 21.5213 684.623 22.2267 684.04 22.748C683.488 23.2387 682.783 23.484 681.924 23.484C680.728 23.484 679.686 23.024 678.796 22.104C677.876 21.1533 677.14 20.5247 676.588 20.218C676.036 19.8807 675.5 19.712 674.978 19.712C674.549 19.712 674.212 19.804 673.966 19.988C673.721 20.172 673.598 20.4173 673.598 20.724C673.598 21.1227 673.828 21.4907 674.288 21.828C674.779 22.1347 675.745 22.518 677.186 22.978C680.437 24.0513 682.768 25.3853 684.178 26.98C685.589 28.5747 686.294 30.844 686.294 33.788C686.294 37.1 685.175 39.7373 682.936 41.7C680.698 43.6627 677.432 44.644 673.138 44.644ZM702.275 44.644C699.515 44.644 697.031 43.9847 694.823 42.666C692.615 41.3473 690.882 39.4307 689.625 36.916C688.368 34.3707 687.739 31.3653 687.739 27.9C687.739 24.4347 688.368 21.4447 689.625 18.93C690.882 16.3847 692.615 14.4527 694.823 13.134C697.031 11.8153 699.515 11.156 702.275 11.156C705.066 11.156 707.55 11.8153 709.727 13.134C711.935 14.4527 713.668 16.3847 714.925 18.93C716.182 21.4447 716.811 24.4347 716.811 27.9C716.811 31.3653 716.182 34.3707 714.925 36.916C713.668 39.4307 711.935 41.3473 709.727 42.666C707.55 43.9847 705.066 44.644 702.275 44.644ZM702.275 36.088C702.704 36.088 703.026 35.904 703.241 35.536C703.486 35.1373 703.655 34.3553 703.747 33.19C703.87 32.0247 703.931 30.2613 703.931 27.9C703.931 25.508 703.87 23.7447 703.747 22.61C703.655 21.4447 703.486 20.678 703.241 20.31C703.026 19.9113 702.704 19.712 702.275 19.712C701.846 19.712 701.508 19.9113 701.263 20.31C701.048 20.678 700.88 21.4447 700.757 22.61C700.665 23.7447 700.619 25.508 700.619 27.9C700.619 30.2613 700.665 32.0247 700.757 33.19C700.88 34.3553 701.048 35.1373 701.263 35.536C701.508 35.904 701.846 36.088 702.275 36.088ZM733.876 44.644C730.962 44.644 728.325 43.954 725.964 42.574C723.633 41.194 721.793 39.2467 720.444 36.732C719.125 34.2173 718.466 31.3193 718.466 28.038C718.466 24.8487 719.094 21.9813 720.352 19.436C721.64 16.86 723.372 14.836 725.55 13.364C727.758 11.892 730.196 11.156 732.864 11.156C733.876 11.156 734.75 11.2327 735.486 11.386C736.222 11.5393 736.958 11.8 737.694 12.168C738.184 12.3827 738.583 12.49 738.89 12.49C739.288 12.49 739.595 12.352 739.81 12.076C740.27 11.524 740.975 11.248 741.926 11.248C742.723 11.248 743.413 11.4627 743.996 11.892C744.578 12.3213 744.87 12.9347 744.87 13.732C744.87 16.308 745.069 18.47 745.468 20.218C745.529 20.5247 745.56 20.77 745.56 20.954C745.56 21.9967 745.1 22.9013 744.18 23.668C743.26 24.4347 742.217 24.818 741.052 24.818C740.346 24.818 739.687 24.6493 739.074 24.312C738.46 23.9747 737.939 23.4533 737.51 22.748C737.019 21.92 736.513 21.3067 735.992 20.908C735.501 20.5093 734.888 20.31 734.152 20.31C733.017 20.31 732.112 20.7393 731.438 21.598C730.763 22.4567 730.426 23.5913 730.426 25.002C730.426 26.566 730.717 27.992 731.3 29.28C731.882 30.5373 732.695 31.534 733.738 32.27C734.78 32.9753 735.93 33.328 737.188 33.328C738.721 33.328 740.178 32.6073 741.558 31.166C742.294 30.3993 743.122 30.016 744.042 30.016C744.931 30.016 745.698 30.3687 746.342 31.074C747.016 31.7793 747.354 32.6687 747.354 33.742C747.354 34.2633 747.262 34.8 747.078 35.352C746.526 37.1 745.621 38.6793 744.364 40.09C743.137 41.47 741.619 42.574 739.81 43.402C738 44.23 736.022 44.644 733.876 44.644ZM750.823 44C749.105 44 748.247 43.2027 748.247 41.608C748.247 41.0867 748.385 40.3353 748.661 39.354C748.967 38.342 749.167 37.008 749.259 35.352C749.351 33.696 749.397 31.212 749.397 27.9C749.397 24.68 749.335 22.2113 749.213 20.494C749.121 18.746 748.937 17.3967 748.661 16.446C748.385 15.4647 748.247 14.7133 748.247 14.192C748.247 12.5973 749.105 11.8 750.823 11.8H759.839C761.556 11.8 762.415 12.5973 762.415 14.192C762.415 14.7133 762.277 15.4647 762.001 16.446C761.725 17.3967 761.525 18.746 761.403 20.494C761.311 22.2113 761.265 24.68 761.265 27.9C761.265 31.212 761.311 33.696 761.403 35.352C761.495 37.008 761.694 38.342 762.001 39.354C762.277 40.3353 762.415 41.0867 762.415 41.608C762.415 43.2027 761.556 44 759.839 44H750.823ZM766.318 44C765.398 44 764.692 43.7393 764.202 43.218C763.711 42.6967 763.466 42.0373 763.466 41.24C763.466 40.6267 763.604 39.998 763.88 39.354C765.597 35.122 768.234 27.2867 771.792 15.848C772.252 14.3453 772.865 13.3027 773.632 12.72C774.398 12.1067 775.364 11.8 776.53 11.8H780.394C781.62 11.8 782.648 12.1067 783.476 12.72C784.304 13.3027 784.948 14.2993 785.408 15.71C786.696 19.7273 788.229 24.2353 790.008 29.234C791.786 34.202 793.09 37.6213 793.918 39.492C794.163 40.0747 794.286 40.6113 794.286 41.102C794.286 41.93 794.025 42.62 793.504 43.172C793.013 43.724 792.369 44 791.572 44H780.762C779.934 44 779.305 43.77 778.876 43.31C778.477 42.85 778.278 42.2827 778.278 41.608C778.278 41.1787 778.385 40.7187 778.6 40.228C778.937 39.492 779.106 38.8787 779.106 38.388C779.106 37.5907 778.738 37.1767 778.002 37.146C777.419 37.1153 776.852 37.1153 776.3 37.146C775.901 37.1767 775.594 37.3147 775.38 37.56C775.196 37.8053 775.104 38.1427 775.104 38.572C775.104 39.1547 775.257 39.768 775.564 40.412C775.717 40.8107 775.794 41.2093 775.794 41.608C775.794 42.252 775.61 42.8193 775.242 43.31C774.874 43.77 774.322 44 773.586 44H766.318ZM778.048 29.004C778.446 29.004 778.63 28.8353 778.6 28.498C778.416 27.302 778.14 26.0447 777.772 24.726C777.68 24.358 777.496 24.174 777.22 24.174C776.944 24.174 776.76 24.358 776.668 24.726L775.84 28.636V28.682C775.84 28.8967 775.962 29.004 776.208 29.004H778.048ZM798.131 44C797.211 44 796.506 43.7853 796.015 43.356C795.555 42.9267 795.325 42.344 795.325 41.608C795.325 41.0867 795.463 40.3353 795.739 39.354C796.046 38.342 796.245 37.008 796.337 35.352C796.429 33.696 796.475 31.212 796.475 27.9C796.475 24.68 796.414 22.2113 796.291 20.494C796.199 18.746 796.015 17.3967 795.739 16.446C795.463 15.4647 795.325 14.7133 795.325 14.192C795.325 12.5973 796.184 11.8 797.901 11.8H806.917C807.898 11.8 808.65 12.03 809.171 12.49C809.723 12.95 809.999 13.5633 809.999 14.33C809.999 14.8207 809.922 15.2653 809.769 15.664C809.646 16.032 809.432 16.4767 809.125 16.998C808.512 18.0713 808.159 19.3287 808.067 20.77C807.975 22.6407 807.929 24.5267 807.929 26.428C807.929 28.544 807.975 30.66 808.067 32.776C808.159 34.432 808.956 35.26 810.459 35.26C811.134 35.26 811.67 35.0913 812.069 34.754C812.468 34.4167 812.897 33.926 813.357 33.282C813.848 32.546 814.308 32.0093 814.737 31.672C815.197 31.304 815.841 31.12 816.669 31.12C817.773 31.12 818.586 31.396 819.107 31.948C819.659 32.4693 819.935 33.1747 819.935 34.064C819.935 34.2787 819.904 34.57 819.843 34.938C819.536 36.4407 819.337 38.1273 819.245 39.998C819.184 41.3473 818.816 42.3593 818.141 43.034C817.497 43.678 816.531 44 815.243 44H798.131ZM823.731 44C822.014 44 821.155 43.2027 821.155 41.608C821.155 41.0867 821.293 40.3353 821.569 39.354C821.876 38.342 822.075 37.008 822.167 35.352C822.259 33.696 822.305 31.212 822.305 27.9C822.305 24.68 822.244 22.2113 822.121 20.494C822.029 18.746 821.845 17.3967 821.569 16.446C821.293 15.4647 821.155 14.7133 821.155 14.192C821.155 12.5973 822.014 11.8 823.731 11.8H839.463C840.966 11.8 842.054 12.076 842.729 12.628C843.434 13.1493 843.787 13.9313 843.787 14.974C843.787 16.1393 843.94 17.2587 844.247 18.332C844.339 18.7 844.385 19.0373 844.385 19.344C844.385 20.2027 844.094 20.9233 843.511 21.506C842.959 22.058 842.208 22.334 841.257 22.334C840.613 22.334 840.076 22.242 839.647 22.058C839.218 21.8433 838.712 21.5213 838.129 21.092C837.7 20.7547 837.301 20.494 836.933 20.31C836.596 20.126 836.182 20.034 835.691 20.034C835.2 20.034 834.786 20.2027 834.449 20.54C834.112 20.8467 833.943 21.322 833.943 21.966C833.943 22.5793 834.127 23.0547 834.495 23.392C834.894 23.6987 835.384 23.852 835.967 23.852C836.458 23.852 836.948 23.76 837.439 23.576C837.93 23.3613 838.451 23.254 839.003 23.254C839.984 23.254 840.736 23.6373 841.257 24.404C841.778 25.14 842.039 26.1673 842.039 27.486C842.039 28.8353 841.763 29.9393 841.211 30.798C840.69 31.6567 839.954 32.086 839.003 32.086C838.543 32.086 838.175 32.0093 837.899 31.856C837.654 31.7027 837.5 31.6107 837.439 31.58C836.979 31.2427 836.488 31.074 835.967 31.074C835.415 31.074 834.94 31.2427 834.541 31.58C834.142 31.8867 833.943 32.3313 833.943 32.914C833.943 33.6193 834.158 34.156 834.587 34.524C835.047 34.892 835.66 35.076 836.427 35.076C837.255 35.076 837.914 34.9533 838.405 34.708C838.896 34.432 839.386 34.0487 839.877 33.558C840.368 33.098 840.812 32.7607 841.211 32.546C841.61 32.3007 842.146 32.178 842.821 32.178C843.802 32.178 844.554 32.454 845.075 33.006C845.596 33.5273 845.857 34.248 845.857 35.168C845.857 35.628 845.826 35.9807 845.765 36.226C845.52 37.514 845.397 38.7713 845.397 39.998C845.397 41.3167 844.968 42.3133 844.109 42.988C843.281 43.6627 842.07 44 840.475 44H823.731ZM858.621 44.644C856.781 44.644 855.278 44.5673 854.113 44.414C852.948 44.2913 851.798 44.0307 850.663 43.632C849.59 43.264 848.823 42.804 848.363 42.252C847.934 41.6693 847.673 41.0867 847.581 40.504C847.52 39.9213 847.489 39.0013 847.489 37.744C847.489 36.456 847.412 35.4747 847.259 34.8C847.228 34.6467 847.213 34.4473 847.213 34.202C847.213 33.3433 847.52 32.638 848.133 32.086C848.746 31.5033 849.467 31.212 850.295 31.212C851.368 31.212 852.273 31.7027 853.009 32.684C854.45 34.6467 856.106 35.628 857.977 35.628C858.989 35.628 859.495 35.2447 859.495 34.478C859.495 34.018 859.25 33.6193 858.759 33.282C858.268 32.914 857.18 32.4387 855.493 31.856C853.162 31.028 851.23 29.8013 849.697 28.176C848.194 26.52 847.443 24.174 847.443 21.138C847.443 17.918 848.578 15.4493 850.847 13.732C853.147 12.0147 856.091 11.156 859.679 11.156C862.623 11.156 864.892 11.386 866.487 11.846C868.112 12.306 869.017 13.2107 869.201 14.56C869.416 16.1547 869.753 17.7647 870.213 19.39C870.336 19.7887 870.397 20.2027 870.397 20.632C870.397 21.5213 870.106 22.2267 869.523 22.748C868.971 23.2387 868.266 23.484 867.407 23.484C866.211 23.484 865.168 23.024 864.279 22.104C863.359 21.1533 862.623 20.5247 862.071 20.218C861.519 19.8807 860.982 19.712 860.461 19.712C860.032 19.712 859.694 19.804 859.449 19.988C859.204 20.172 859.081 20.4173 859.081 20.724C859.081 21.1227 859.311 21.4907 859.771 21.828C860.262 22.1347 861.228 22.518 862.669 22.978C865.92 24.0513 868.25 25.3853 869.661 26.98C871.072 28.5747 871.777 30.844 871.777 33.788C871.777 37.1 870.658 39.7373 868.419 41.7C866.18 43.6627 862.914 44.644 858.621 44.644Z" fill="#003227"/>
</svg>
