<svg width="257" height="176" viewBox="0 0 257 176" fill="none" xmlns="http://www.w3.org/2000/svg">
<path d="M30.934 103H34.372V90.31H31.834L28.144 91.354L28.81 94.054L30.934 93.568V103ZM40.9398 103.252C44.7198 103.252 46.7718 100.444 46.7718 96.322V96.286C46.7718 93.964 46.1777 92.524 45.2598 91.624C44.3058 90.67 43.2258 90.148 41.3898 90.148C38.5098 90.148 36.3678 91.948 36.3678 94.738V94.774C36.3678 97.24 38.1498 98.752 40.5978 98.752C41.7138 98.752 42.6138 98.338 43.2618 97.726C43.0998 99.346 42.3258 100.354 40.8857 100.354C39.8778 100.354 39.0498 100.03 38.1858 99.346L36.5478 101.758C37.6998 102.658 39.0678 103.252 40.9398 103.252ZM41.5518 96.25C40.4538 96.25 39.7518 95.548 39.7518 94.594V94.558C39.7518 93.586 40.4178 92.866 41.5158 92.866C42.6138 92.866 43.3158 93.604 43.3158 94.576V94.612C43.3158 95.53 42.6498 96.25 41.5518 96.25ZM52.7698 103.252C56.5498 103.252 58.6018 100.444 58.6018 96.322V96.286C58.6018 93.964 58.0078 92.524 57.0898 91.624C56.1358 90.67 55.0558 90.148 53.2198 90.148C50.3398 90.148 48.1978 91.948 48.1978 94.738V94.774C48.1978 97.24 49.9798 98.752 52.4278 98.752C53.5438 98.752 54.4438 98.338 55.0918 97.726C54.9298 99.346 54.1558 100.354 52.7158 100.354C51.7078 100.354 50.8798 100.03 50.0158 99.346L48.3778 101.758C49.5298 102.658 50.8978 103.252 52.7698 103.252ZM53.3818 96.25C52.2838 96.25 51.5818 95.548 51.5818 94.594V94.558C51.5818 93.586 52.2478 92.866 53.3458 92.866C54.4438 92.866 55.1458 93.604 55.1458 94.576V94.612C55.1458 95.53 54.4798 96.25 53.3818 96.25ZM62.1879 103H65.6259V90.31H63.0879L59.3979 91.354L60.0639 94.054L62.1879 93.568V103Z" fill="black"/>
<path d="M28.99 125H29.76V119.26L34.28 125H34.91V118H34.14V123.61L29.73 118H28.99V125ZM38.3004 125.11C39.2104 125.11 39.8004 124.69 40.1604 124.23V125H40.9204V121.84C40.9204 121.18 40.7404 120.68 40.3804 120.32C40.0104 119.95 39.4404 119.75 38.7104 119.75C37.9504 119.75 37.4004 119.93 36.8304 120.19L37.0604 120.82C37.5404 120.6 38.0204 120.45 38.6304 120.45C39.6004 120.45 40.1604 120.93 40.1604 121.85V122.01C39.7004 121.88 39.2404 121.79 38.5804 121.79C37.2704 121.79 36.3704 122.37 36.3704 123.48V123.5C36.3704 124.56 37.3304 125.11 38.3004 125.11ZM38.4504 124.49C37.7504 124.49 37.1504 124.11 37.1504 123.46V123.44C37.1504 122.82 37.7004 122.4 38.6604 122.4C39.2904 122.4 39.7904 122.51 40.1704 122.62V123.1C40.1704 123.92 39.4004 124.49 38.4504 124.49ZM44.8814 125.12C45.8514 125.12 46.4714 124.7 46.9914 124.12L46.5014 123.66C46.0914 124.1 45.5814 124.43 44.9214 124.43C43.8414 124.43 43.0214 123.54 43.0214 122.42V122.4C43.0214 121.29 43.8214 120.4 44.8714 120.4C45.5714 120.4 46.0314 120.75 46.4414 121.18L46.9514 120.64C46.4714 120.13 45.8614 119.72 44.8814 119.72C43.3714 119.72 42.2314 120.96 42.2314 122.42V122.44C42.2314 123.89 43.3714 125.12 44.8814 125.12ZM48.5778 122.73H52.6778C52.6878 122.61 52.6878 122.53 52.6878 122.46C52.6878 120.94 51.8078 119.72 50.2778 119.72C48.8478 119.72 47.7978 120.92 47.7978 122.42C47.7978 124.03 48.9578 125.12 50.3778 125.12C51.3578 125.12 51.9878 124.73 52.5078 124.15L52.0278 123.72C51.6078 124.16 51.1078 124.45 50.3978 124.45C49.4878 124.45 48.6878 123.82 48.5778 122.73ZM48.5778 122.11C48.6878 121.11 49.3678 120.37 50.2578 120.37C51.2778 120.37 51.8178 121.17 51.9078 122.11H48.5778ZM61.9166 125.11C63.6666 125.11 64.8366 124.05 64.8366 122.01V118H64.0466V122.07C64.0466 123.6 63.2266 124.38 61.9366 124.38C60.5966 124.38 59.7966 123.53 59.7966 122.02V118H59.0066V122.07C59.0066 124.05 60.1866 125.11 61.9166 125.11ZM66.7045 125H67.4945V122.28H69.4945L71.5245 125H72.4945L70.3445 122.14C71.4445 121.94 72.2445 121.26 72.2445 120.1V120.08C72.2445 119.53 72.0445 119.04 71.7045 118.7C71.2645 118.26 70.5745 118 69.7145 118H66.7045V125ZM67.4945 121.57V118.73H69.6545C70.7845 118.73 71.4445 119.25 71.4445 120.11V120.13C71.4445 121.03 70.6945 121.57 69.6445 121.57H67.4945ZM73.9311 125H77.0411C78.5711 125 79.5811 124.29 79.5811 123.09V123.07C79.5811 122.11 78.9111 121.63 78.0811 121.38C78.6311 121.14 79.1911 120.67 79.1911 119.76V119.74C79.1911 119.29 79.0311 118.92 78.7411 118.62C78.3411 118.23 77.7111 118 76.9111 118H73.9311V125ZM74.7111 121.12V118.71H76.8411C77.8411 118.71 78.3911 119.16 78.3911 119.85V119.87C78.3911 120.69 77.7311 121.12 76.7811 121.12H74.7111ZM74.7111 124.29V121.82H76.9211C78.1411 121.82 78.7811 122.26 78.7811 123.02V123.04C78.7811 123.82 78.1211 124.29 77.0611 124.29H74.7111ZM80.5479 125H81.3579L82.1879 123.15H85.9979L86.8179 125H87.6679L84.4779 117.95H83.7379L80.5479 125ZM82.4979 122.44L84.0979 118.87L85.6879 122.44H82.4979ZM94.6691 126.63C95.4491 126.63 95.9491 126.24 96.3891 125.17L98.5591 119.83H97.7391L96.0791 124.14L94.1991 119.83H93.3491L95.6991 124.98C95.3891 125.71 95.0991 125.95 94.6391 125.95C94.3091 125.95 94.0791 125.89 93.8291 125.76L93.5691 126.37C93.9191 126.54 94.2391 126.63 94.6691 126.63ZM107.058 125.12C108.028 125.12 108.648 124.7 109.168 124.12L108.678 123.66C108.268 124.1 107.758 124.43 107.098 124.43C106.018 124.43 105.198 123.54 105.198 122.42V122.4C105.198 121.29 105.998 120.4 107.048 120.4C107.748 120.4 108.208 120.75 108.618 121.18L109.128 120.64C108.648 120.13 108.038 119.72 107.058 119.72C105.548 119.72 104.408 120.96 104.408 122.42V122.44C104.408 123.89 105.548 125.12 107.058 125.12ZM112.655 125.12C114.215 125.12 115.365 123.88 115.365 122.42V122.4C115.365 120.94 114.225 119.72 112.675 119.72C111.115 119.72 109.975 120.96 109.975 122.42V122.44C109.975 123.9 111.105 125.12 112.655 125.12ZM112.675 124.43C111.585 124.43 110.765 123.53 110.765 122.42V122.4C110.765 121.31 111.535 120.4 112.655 120.4C113.745 120.4 114.575 121.31 114.575 122.42V122.44C114.575 123.53 113.795 124.43 112.675 124.43ZM116.759 125H117.529V122.04C117.529 121.07 118.189 120.42 119.079 120.42C119.989 120.42 120.509 121.02 120.509 121.98V125H121.279V121.79C121.279 120.56 120.549 119.72 119.299 119.72C118.409 119.72 117.869 120.17 117.529 120.73V119.83H116.759V125ZM128.332 122.73H132.432C132.442 122.61 132.442 122.53 132.442 122.46C132.442 120.94 131.562 119.72 130.032 119.72C128.602 119.72 127.552 120.92 127.552 122.42C127.552 124.03 128.712 125.12 130.132 125.12C131.112 125.12 131.742 124.73 132.262 124.15L131.782 123.72C131.362 124.16 130.862 124.45 130.152 124.45C129.242 124.45 128.442 123.82 128.332 122.73ZM128.332 122.11C128.442 121.11 129.122 120.37 130.012 120.37C131.032 120.37 131.572 121.17 131.662 122.11H128.332ZM135.5 125.1C136.53 125.1 137.34 124.53 137.34 123.55V123.53C137.34 122.6 136.48 122.29 135.68 122.05C134.99 121.84 134.35 121.65 134.35 121.16V121.14C134.35 120.71 134.74 120.39 135.35 120.39C135.85 120.39 136.4 120.58 136.88 120.89L137.23 120.31C136.7 119.96 136 119.74 135.37 119.74C134.35 119.74 133.61 120.33 133.61 121.22V121.24C133.61 122.19 134.51 122.47 135.32 122.7C136 122.89 136.61 123.09 136.61 123.61V123.63C136.61 124.13 136.16 124.45 135.54 124.45C134.93 124.45 134.31 124.21 133.75 123.79L133.36 124.34C133.94 124.81 134.76 125.1 135.5 125.1ZM140.403 125.09C140.773 125.09 141.063 125.01 141.333 124.87V124.21C141.063 124.34 140.843 124.39 140.583 124.39C140.063 124.39 139.713 124.16 139.713 123.53V120.51H141.353V119.83H139.713V118.27H138.943V119.83H138.223V120.51H138.943V123.63C138.943 124.68 139.573 125.09 140.403 125.09ZM144.93 125.12C146.49 125.12 147.64 123.88 147.64 122.42V122.4C147.64 120.94 146.5 119.72 144.95 119.72C143.39 119.72 142.25 120.96 142.25 122.42V122.44C142.25 123.9 143.38 125.12 144.93 125.12ZM144.95 124.43C143.86 124.43 143.04 123.53 143.04 122.42V122.4C143.04 121.31 143.81 120.4 144.93 120.4C146.02 120.4 146.85 121.31 146.85 122.42V122.44C146.85 123.53 146.07 124.43 144.95 124.43ZM153.935 119.6H155.555V118H153.935V119.6ZM153.855 125H155.635V124.8L155.165 120.38H154.325L153.855 124.8V125ZM159.588 125.12C160.558 125.12 161.278 124.74 161.778 124.12L160.908 123.35C160.488 123.74 160.118 123.9 159.608 123.9C158.928 123.9 158.448 123.54 158.298 122.85H162.028C162.038 122.71 162.048 122.57 162.048 122.45C162.048 120.93 161.228 119.54 159.438 119.54C157.878 119.54 156.788 120.8 156.788 122.33V122.35C156.788 123.99 157.978 125.12 159.588 125.12ZM158.278 121.9C158.398 121.21 158.808 120.76 159.438 120.76C160.078 120.76 160.478 121.22 160.568 121.9H158.278ZM163.25 125H164.77V117.7H163.25V125ZM172.249 125H173.769V117.95H172.719L170.709 118.55L171.029 119.81L172.249 119.51V125ZM177.908 125.12C178.878 125.12 179.598 124.74 180.098 124.12L179.228 123.35C178.808 123.74 178.438 123.9 177.928 123.9C177.248 123.9 176.768 123.54 176.618 122.85H180.348C180.358 122.71 180.368 122.57 180.368 122.45C180.368 120.93 179.548 119.54 177.758 119.54C176.198 119.54 175.108 120.8 175.108 122.33V122.35C175.108 123.99 176.298 125.12 177.908 125.12ZM176.598 121.9C176.718 121.21 177.128 120.76 177.758 120.76C178.398 120.76 178.798 121.22 178.888 121.9H176.598ZM181.5 125H183.02V123.02C183.02 121.74 183.64 121.13 184.65 121.13H184.73V119.54C183.83 119.5 183.33 119.98 183.02 120.72V119.64H181.5V125ZM28.84 137H32.17C33.75 137 34.79 136.36 34.79 135.08V135.06C34.79 134.12 34.29 133.65 33.48 133.34C33.98 133.06 34.4 132.62 34.4 131.83V131.81C34.4 131.33 34.24 130.94 33.92 130.62C33.52 130.22 32.89 130 32.09 130H28.84V137ZM30.34 132.83V131.35H31.86C32.51 131.35 32.87 131.61 32.87 132.07V132.09C32.87 132.61 32.44 132.83 31.76 132.83H30.34ZM30.34 135.65V134.11H32.12C32.91 134.11 33.26 134.4 33.26 134.87V134.89C33.26 135.41 32.85 135.65 32.17 135.65H30.34ZM36.0568 137H37.5968V134.86L38.4068 134.02L40.5768 137H42.4268L39.4468 132.97L42.2968 130H40.4368L37.5968 133.06V130H36.0568V137ZM50.1788 137.1C50.9688 137.1 51.4788 136.73 51.8488 136.23V137H53.3688V129.7H51.8488V132.34C51.4888 131.91 50.9888 131.54 50.1788 131.54C48.9088 131.54 47.7388 132.52 47.7388 134.31V134.33C47.7388 136.12 48.9288 137.1 50.1788 137.1ZM50.5688 135.81C49.8588 135.81 49.2588 135.22 49.2588 134.33V134.31C49.2588 133.41 49.8588 132.83 50.5688 132.83C51.2788 132.83 51.8688 133.42 51.8688 134.31V134.33C51.8688 135.22 51.2788 135.81 50.5688 135.81ZM57.2669 137.12C58.2369 137.12 58.9569 136.74 59.4569 136.12L58.5869 135.35C58.1669 135.74 57.7969 135.9 57.2869 135.9C56.6069 135.9 56.1269 135.54 55.9769 134.85H59.7069C59.7169 134.71 59.7269 134.57 59.7269 134.45C59.7269 132.93 58.9069 131.54 57.1169 131.54C55.5569 131.54 54.4669 132.8 54.4669 134.33V134.35C54.4669 135.99 55.6569 137.12 57.2669 137.12ZM55.9569 133.9C56.0769 133.21 56.4869 132.76 57.1169 132.76C57.7569 132.76 58.1569 133.22 58.2469 133.9H55.9569ZM67.447 137.09C67.957 137.09 68.327 136.97 68.647 136.78V135.56C68.427 135.68 68.177 135.75 67.897 135.75C67.557 135.75 67.407 135.58 67.407 135.23V132.94H68.667V131.64H67.407V130.27H65.887V131.64H65.247V132.94H65.887V135.48C65.887 136.72 66.517 137.09 67.447 137.09ZM72.2709 137.12C73.9409 137.12 75.1809 135.87 75.1809 134.33V134.31C75.1809 132.77 73.9509 131.54 72.2909 131.54C70.6209 131.54 69.3809 132.79 69.3809 134.33V134.35C69.3809 135.89 70.6109 137.12 72.2709 137.12ZM72.2909 135.81C71.4509 135.81 70.8809 135.12 70.8809 134.33V134.31C70.8809 133.52 71.4009 132.85 72.2709 132.85C73.1109 132.85 73.6809 133.54 73.6809 134.33V134.35C73.6809 135.14 73.1609 135.81 72.2909 135.81ZM78.4816 137.1C79.2716 137.1 79.7816 136.73 80.1516 136.23V137H81.6716V129.7H80.1516V132.34C79.7916 131.91 79.2916 131.54 78.4816 131.54C77.2116 131.54 76.0416 132.52 76.0416 134.31V134.33C76.0416 136.12 77.2316 137.1 78.4816 137.1ZM78.8716 135.81C78.1616 135.81 77.5616 135.22 77.5616 134.33V134.31C77.5616 133.41 78.1616 132.83 78.8716 132.83C79.5816 132.83 80.1716 133.42 80.1716 134.31V134.33C80.1716 135.22 79.5816 135.81 78.8716 135.81ZM85.6596 137.12C87.3296 137.12 88.5696 135.87 88.5696 134.33V134.31C88.5696 132.77 87.3396 131.54 85.6796 131.54C84.0096 131.54 82.7696 132.79 82.7696 134.33V134.35C82.7696 135.89 83.9996 137.12 85.6596 137.12ZM85.6796 135.81C84.8396 135.81 84.2696 135.12 84.2696 134.33V134.31C84.2696 133.52 84.7896 132.85 85.6596 132.85C86.4996 132.85 87.0696 133.54 87.0696 134.33V134.35C87.0696 135.14 86.5496 135.81 85.6796 135.81ZM94.6076 137H96.1176V132.46L98.0676 135.42H98.1076L100.078 132.43V137H101.608V130H99.9476L98.1076 132.96L96.2676 130H94.6076V137ZM103.289 137H108.619V135.63H104.819V134.16H108.119V132.79H104.819V131.37H108.569V130H103.289V137ZM105.329 129.45H106.489L107.849 128.45L106.539 127.88L105.329 129.45ZM109.458 137H111.208L112.788 134.6L114.358 137H116.158L113.718 133.42L116.058 130H114.308L112.818 132.27L111.358 130H109.558L111.898 133.44L109.458 137ZM117.383 137H118.923V130H117.383V137ZM123.952 137.12C125.302 137.12 126.102 136.64 126.822 135.87L125.842 134.88C125.292 135.38 124.802 135.7 124.002 135.7C122.802 135.7 121.972 134.7 121.972 133.5V133.48C121.972 132.28 122.822 131.3 124.002 131.3C124.702 131.3 125.252 131.6 125.792 132.09L126.772 130.96C126.122 130.32 125.332 129.88 124.012 129.88C121.862 129.88 120.362 131.51 120.362 133.5V133.52C120.362 135.53 121.892 137.12 123.952 137.12ZM131.26 137.12C133.42 137.12 134.99 135.49 134.99 133.5V133.48C134.99 131.49 133.44 129.88 131.28 129.88C129.12 129.88 127.55 131.51 127.55 133.5V133.52C127.55 135.51 129.1 137.12 131.26 137.12ZM131.28 135.7C130.04 135.7 129.16 134.7 129.16 133.5V133.48C129.16 132.28 130.02 131.3 131.26 131.3C132.5 131.3 133.38 132.3 133.38 133.5V133.52C133.38 134.72 132.52 135.7 131.28 135.7ZM136.716 134.62H137.556L138.026 130.2V130H136.246V130.2L136.716 134.62ZM136.326 137H137.946V135.4H136.326V137ZM147.325 137.11C149.075 137.11 150.245 136.05 150.245 134.01V130H149.455V134.07C149.455 135.6 148.635 136.38 147.345 136.38C146.005 136.38 145.205 135.53 145.205 134.02V130H144.415V134.07C144.415 136.05 145.595 137.11 147.325 137.11ZM154.733 137.11C155.983 137.11 157.203 136.11 157.203 134.42V134.4C157.203 132.7 155.973 131.72 154.733 131.72C153.783 131.72 153.173 132.25 152.753 132.87V129.7H151.983V137H152.753V136.01C153.153 136.59 153.773 137.11 154.733 137.11ZM154.593 136.42C153.633 136.42 152.723 135.62 152.723 134.42V134.4C152.723 133.22 153.633 132.41 154.593 132.41C155.573 132.41 156.413 133.19 156.413 134.41V134.43C156.413 135.68 155.593 136.42 154.593 136.42ZM158.644 130.7H159.524V129.85H158.644V130.7ZM158.694 137H159.464V131.83H158.694V137ZM163.581 137.12C164.551 137.12 165.171 136.7 165.691 136.12L165.201 135.66C164.791 136.1 164.281 136.43 163.621 136.43C162.541 136.43 161.721 135.54 161.721 134.42V134.4C161.721 133.29 162.521 132.4 163.571 132.4C164.271 132.4 164.731 132.75 165.141 133.18L165.651 132.64C165.171 132.13 164.561 131.72 163.581 131.72C162.071 131.72 160.931 132.96 160.931 134.42V134.44C160.931 135.89 162.071 137.12 163.581 137.12ZM168.504 137.11C169.414 137.11 170.004 136.69 170.364 136.23V137H171.124V133.84C171.124 133.18 170.944 132.68 170.584 132.32C170.214 131.95 169.644 131.75 168.914 131.75C168.154 131.75 167.604 131.93 167.034 132.19L167.264 132.82C167.744 132.6 168.224 132.45 168.834 132.45C169.804 132.45 170.364 132.93 170.364 133.85V134.01C169.904 133.88 169.444 133.79 168.784 133.79C167.474 133.79 166.574 134.37 166.574 135.48V135.5C166.574 136.56 167.534 137.11 168.504 137.11ZM168.654 136.49C167.954 136.49 167.354 136.11 167.354 135.46V135.44C167.354 134.82 167.904 134.4 168.864 134.4C169.494 134.4 169.994 134.51 170.374 134.62V135.1C170.374 135.92 169.604 136.49 168.654 136.49ZM174.925 137.11C175.875 137.11 176.485 136.58 176.905 135.96V137H177.675V129.7H176.905V132.82C176.505 132.24 175.885 131.72 174.925 131.72C173.685 131.72 172.455 132.72 172.455 134.41V134.43C172.455 136.13 173.685 137.11 174.925 137.11ZM175.065 136.42C174.085 136.42 173.245 135.64 173.245 134.42V134.4C173.245 133.15 174.065 132.41 175.065 132.41C176.025 132.41 176.935 133.21 176.935 134.4V134.42C176.935 135.61 176.025 136.42 175.065 136.42ZM181.755 137.12C183.315 137.12 184.465 135.88 184.465 134.42V134.4C184.465 132.94 183.325 131.72 181.775 131.72C180.215 131.72 179.075 132.96 179.075 134.42V134.44C179.075 135.9 180.205 137.12 181.755 137.12ZM181.775 136.43C180.685 136.43 179.865 135.53 179.865 134.42V134.4C179.865 133.31 180.635 132.4 181.755 132.4C182.845 132.4 183.675 133.31 183.675 134.42V134.44C183.675 135.53 182.895 136.43 181.775 136.43ZM29.32 146.73H33.42C33.43 146.61 33.43 146.53 33.43 146.46C33.43 144.94 32.55 143.72 31.02 143.72C29.59 143.72 28.54 144.92 28.54 146.42C28.54 148.03 29.7 149.12 31.12 149.12C32.1 149.12 32.73 148.73 33.25 148.15L32.77 147.72C32.35 148.16 31.85 148.45 31.14 148.45C30.23 148.45 29.43 147.82 29.32 146.73ZM29.32 146.11C29.43 145.11 30.11 144.37 31 144.37C32.02 144.37 32.56 145.17 32.65 146.11H29.32ZM34.778 149H35.548V146.04C35.548 145.07 36.208 144.42 37.098 144.42C38.008 144.42 38.528 145.02 38.528 145.98V149H39.298V145.79C39.298 144.56 38.568 143.72 37.318 143.72C36.428 143.72 35.888 144.17 35.548 144.73V143.83H34.778V149ZM44.0681 149H44.8581V146.53H46.5581C48.0481 146.53 49.3081 145.75 49.3081 144.24V144.22C49.3081 142.84 48.2681 142 46.6881 142H44.0681V149ZM44.8581 145.81V142.73H46.6281C47.7581 142.73 48.5081 143.25 48.5081 144.25V144.27C48.5081 145.19 47.7481 145.81 46.5881 145.81H44.8581ZM52.0602 149.11C52.9702 149.11 53.5602 148.69 53.9202 148.23V149H54.6802V145.84C54.6802 145.18 54.5002 144.68 54.1402 144.32C53.7702 143.95 53.2002 143.75 52.4702 143.75C51.7102 143.75 51.1602 143.93 50.5902 144.19L50.8202 144.82C51.3002 144.6 51.7802 144.45 52.3902 144.45C53.3602 144.45 53.9202 144.93 53.9202 145.85V146.01C53.4602 145.88 53.0002 145.79 52.3402 145.79C51.0302 145.79 50.1302 146.37 50.1302 147.48V147.5C50.1302 148.56 51.0902 149.11 52.0602 149.11ZM52.2102 148.49C51.5102 148.49 50.9102 148.11 50.9102 147.46V147.44C50.9102 146.82 51.4602 146.4 52.4202 146.4C53.0502 146.4 53.5502 146.51 53.9302 146.62V147.1C53.9302 147.92 53.1602 148.49 52.2102 148.49ZM58.0212 149.1C59.0512 149.1 59.8612 148.53 59.8612 147.55V147.53C59.8612 146.6 59.0012 146.29 58.2012 146.05C57.5112 145.84 56.8712 145.65 56.8712 145.16V145.14C56.8712 144.71 57.2612 144.39 57.8712 144.39C58.3712 144.39 58.9212 144.58 59.4012 144.89L59.7512 144.31C59.2212 143.96 58.5212 143.74 57.8912 143.74C56.8712 143.74 56.1312 144.33 56.1312 145.22V145.24C56.1312 146.19 57.0312 146.47 57.8412 146.7C58.5212 146.89 59.1312 147.09 59.1312 147.61V147.63C59.1312 148.13 58.6812 148.45 58.0612 148.45C57.4512 148.45 56.8312 148.21 56.2712 147.79L55.8812 148.34C56.4612 148.81 57.2812 149.1 58.0212 149.1ZM61.7516 146.73H65.8516C65.8616 146.61 65.8616 146.53 65.8616 146.46C65.8616 144.94 64.9816 143.72 63.4516 143.72C62.0216 143.72 60.9716 144.92 60.9716 146.42C60.9716 148.03 62.1316 149.12 63.5516 149.12C64.5316 149.12 65.1616 148.73 65.6816 148.15L65.2016 147.72C64.7816 148.16 64.2816 148.45 63.5716 148.45C62.6616 148.45 61.8616 147.82 61.7516 146.73ZM61.7516 146.11C61.8616 145.11 62.5416 144.37 63.4316 144.37C64.4516 144.37 64.9916 145.17 65.0816 146.11H61.7516ZM69.5696 149.12C71.1296 149.12 72.2796 147.88 72.2796 146.42V146.4C72.2796 144.94 71.1396 143.72 69.5896 143.72C68.0296 143.72 66.8896 144.96 66.8896 146.42V146.44C66.8896 147.9 68.0196 149.12 69.5696 149.12ZM69.5896 148.43C68.4996 148.43 67.6796 147.53 67.6796 146.42V146.4C67.6796 145.31 68.4496 144.4 69.5696 144.4C70.6596 144.4 71.4896 145.31 71.4896 146.42V146.44C71.4896 147.53 70.7096 148.43 69.5896 148.43ZM76.8025 149H77.5725V143.34L80.1225 147.08H80.1625L82.7125 143.33V149H83.5025V142H82.7025L80.1525 145.82L77.6025 142H76.8025V149ZM87.7141 149.12C89.2741 149.12 90.4241 147.88 90.4241 146.42V146.4C90.4241 144.94 89.2841 143.72 87.7341 143.72C86.1741 143.72 85.0341 144.96 85.0341 146.42V146.44C85.0341 147.9 86.1641 149.12 87.7141 149.12ZM87.7341 148.43C86.6441 148.43 85.8241 147.53 85.8241 146.42V146.4C85.8241 145.31 86.5941 144.4 87.7141 144.4C88.8041 144.4 89.6341 145.31 89.6341 146.42V146.44C89.6341 147.53 88.8541 148.43 87.7341 148.43ZM91.819 149H92.589V146.04C92.589 145.07 93.249 144.42 94.139 144.42C95.049 144.42 95.569 145.02 95.569 145.98V149H96.339V145.79C96.339 144.56 95.609 143.72 94.359 143.72C93.469 143.72 92.929 144.17 92.589 144.73V143.83H91.819V149ZM99.7111 149.09C100.081 149.09 100.371 149.01 100.641 148.87V148.21C100.371 148.34 100.151 148.39 99.8911 148.39C99.3711 148.39 99.0211 148.16 99.0211 147.53V144.51H100.661V143.83H99.0211V142.27H98.2511V143.83H97.5311V144.51H98.2511V147.63C98.2511 148.68 98.8811 149.09 99.7111 149.09ZM102.338 146.73H106.438C106.448 146.61 106.448 146.53 106.448 146.46C106.448 144.94 105.568 143.72 104.038 143.72C102.608 143.72 101.558 144.92 101.558 146.42C101.558 148.03 102.718 149.12 104.138 149.12C105.118 149.12 105.748 148.73 106.268 148.15L105.788 147.72C105.368 148.16 104.868 148.45 104.158 148.45C103.248 148.45 102.448 147.82 102.338 146.73ZM102.338 146.11C102.448 145.11 103.128 144.37 104.018 144.37C105.038 144.37 105.578 145.17 105.668 146.11H102.338ZM107.816 142.7H108.696V141.85H107.816V142.7ZM107.376 150.63C108.156 150.63 108.636 150.21 108.636 149.3V143.83H107.866V149.29C107.866 149.77 107.626 149.98 107.276 149.98C107.166 149.98 107.016 149.97 106.896 149.95V150.58C107.066 150.62 107.196 150.63 107.376 150.63ZM112.783 149.12C114.343 149.12 115.493 147.88 115.493 146.42V146.4C115.493 144.94 114.353 143.72 112.803 143.72C111.243 143.72 110.103 144.96 110.103 146.42V146.44C110.103 147.9 111.233 149.12 112.783 149.12ZM112.803 148.43C111.713 148.43 110.893 147.53 110.893 146.42V146.4C110.893 145.31 111.663 144.4 112.783 144.4C113.873 144.4 114.702 145.31 114.702 146.42V146.44C114.702 147.53 113.923 148.43 112.803 148.43ZM122.475 150.41L122.805 149.9C121.285 148.93 120.485 147.73 120.485 146.13C120.485 144.53 121.285 143.33 122.805 142.36L122.475 141.85C120.695 142.85 119.705 144.29 119.705 146.13C119.705 147.97 120.695 149.41 122.475 150.41ZM124.351 149H125.121V143.34L127.671 147.08H127.711L130.261 143.33V149H131.051V142H130.251L127.701 145.82L125.151 142H124.351V149ZM134.743 143.05H135.343L136.483 141.97L135.683 141.6L134.743 143.05ZM133.363 146.73H137.463C137.473 146.61 137.473 146.53 137.473 146.46C137.473 144.94 136.593 143.72 135.063 143.72C133.633 143.72 132.583 144.92 132.583 146.42C132.583 148.03 133.743 149.12 135.163 149.12C136.143 149.12 136.773 148.73 137.293 148.15L136.813 147.72C136.393 148.16 135.893 148.45 135.183 148.45C134.273 148.45 133.473 147.82 133.363 146.73ZM133.363 146.11C133.473 145.11 134.153 144.37 135.043 144.37C136.063 144.37 136.603 145.17 136.693 146.11H133.363ZM138.821 149H139.591V146.94C139.591 145.38 140.511 144.57 141.641 144.57H141.701V143.74C140.721 143.7 139.971 144.32 139.591 145.18V143.83H138.821V149ZM142.894 142.7H143.774V141.85H142.894V142.7ZM142.944 149H143.714V143.83H142.944V149ZM147.671 149.11C148.621 149.11 149.231 148.58 149.651 147.96V149H150.421V141.7H149.651V144.82C149.251 144.24 148.631 143.72 147.671 143.72C146.431 143.72 145.201 144.72 145.201 146.41V146.43C145.201 148.13 146.431 149.11 147.671 149.11ZM147.811 148.42C146.831 148.42 145.991 147.64 145.991 146.42V146.4C145.991 145.15 146.811 144.41 147.811 144.41C148.771 144.41 149.681 145.21 149.681 146.4V146.42C149.681 147.61 148.771 148.42 147.811 148.42ZM153.681 149.11C154.591 149.11 155.181 148.69 155.541 148.23V149H156.301V145.84C156.301 145.18 156.121 144.68 155.761 144.32C155.391 143.95 154.821 143.75 154.091 143.75C153.331 143.75 152.781 143.93 152.211 144.19L152.441 144.82C152.921 144.6 153.401 144.45 154.011 144.45C154.981 144.45 155.541 144.93 155.541 145.85V146.01C155.081 145.88 154.621 145.79 153.961 145.79C152.651 145.79 151.751 146.37 151.751 147.48V147.5C151.751 148.56 152.711 149.11 153.681 149.11ZM153.831 148.49C153.131 148.49 152.531 148.11 152.531 147.46V147.44C152.531 146.82 153.081 146.4 154.041 146.4C154.671 146.4 155.171 146.51 155.551 146.62V147.1C155.551 147.92 154.781 148.49 153.831 148.49ZM157.962 150.41C159.742 149.41 160.732 147.97 160.732 146.13C160.732 144.29 159.742 142.85 157.962 141.85L157.632 142.36C159.152 143.33 159.952 144.53 159.952 146.13C159.952 147.73 159.152 148.93 157.632 149.9L157.962 150.41Z" fill="black"/>
<path d="M52.9569 61.2C40.5195 61.2 30.1349 51.11 30.689 38.3598C31.2372 25.7469 39.2536 15.976 53.293 14.6633C55.5971 14.4479 58.9409 14.6732 61.7717 15.2993C59.3548 14.5418 56.702 14 54.0333 14C39.6467 14 28 25.4017 28 39.7883C28 54.1749 39.5022 65.6 53.8888 65.6C64.6184 65.6 73.5185 59.1545 77.4421 49.9196L73.0648 47.647C69.6732 55.6817 62.0849 61.2 52.9569 61.2Z" fill="#00519E"/>
<path d="M65.6559 21.6475C66.8829 21.4512 66.1414 20.6074 66.1414 20.6074C60.5248 14.3667 49.4764 17.4638 49.4764 17.4638C39.884 19.914 38.3122 27.9577 38.3122 27.9577C37.9887 29.2289 39.2829 28.6049 39.2829 28.6049C39.2829 28.6049 53.9602 23.5199 65.6559 21.6475V21.6475Z" fill="#F7AD24"/>
<path d="M54.3995 17.2559C54.3995 17.2559 60.0624 17.6256 60.8714 20.145C60.8714 20.145 61.1024 21.0927 59.6695 21.7168L61.2876 21.3239C61.2876 21.3239 62.6974 21.0466 62.6974 20.2838C62.6972 20.2838 62.7668 17.3483 54.3995 17.2559V17.2559ZM40.8444 26.8086C41.118 26.8282 41.2703 26.638 41.3412 26.3118C41.3412 26.3118 42.2012 22.0999 46.7919 18.9591C43.1013 20.7048 41.4264 23.7709 41.4264 23.7709C40.813 24.7886 40.5562 25.4232 40.4513 25.8026C40.4184 25.9019 40.1868 26.6655 40.7259 26.7909C40.7259 26.7909 40.7768 26.8037 40.8444 26.8086V26.8086Z" fill="white"/>
<path d="M76.6907 43.8979C77.9115 43.8979 78.9999 44.7759 78.9999 46.141C78.9999 47.5121 77.9114 48.3961 76.6907 48.3961C75.4701 48.3961 74.3816 47.5121 74.3816 46.141C74.3814 44.7759 75.4699 43.8979 76.6907 43.8979ZM76.6907 47.9149C77.623 47.9149 78.3866 47.1691 78.3866 46.1409C78.3866 45.1186 77.623 44.3789 76.6907 44.3789C75.7467 44.3789 74.995 45.1186 74.995 46.1409C74.995 47.1692 75.7466 47.9149 76.6907 47.9149ZM75.7948 44.8781H76.7449C77.3763 44.8781 77.731 45.0766 77.731 45.6239C77.731 46.0869 77.4423 46.2673 77.0695 46.2973L77.743 47.398H77.22L76.6065 46.3215H76.2939V47.398H75.7948V44.8781ZM76.2938 45.9305H76.7386C77.0213 45.9305 77.2319 45.8885 77.2319 45.5817C77.2319 45.3112 76.9432 45.2692 76.7148 45.2692H76.2938V45.9305Z" fill="#E20028"/>
<path d="M69.6087 45.7966C57.5924 48.6116 44.5258 53.7375 44.5258 53.7375C42.7521 54.3361 43.9475 55.2249 44.095 55.368C44.6577 55.8617 46.1753 56.9027 49.5245 57.6L49.5662 57.5993C55.1379 58.695 60.2394 56.7625 60.2394 56.7625C67.2868 54.2873 69.805 49.4785 70.4877 47.8115L70.4939 47.8004C70.8317 46.9757 70.8924 46.6388 70.8924 46.6388C70.8937 46.6324 70.8934 46.6277 70.8947 46.6215C71.1954 45.2981 69.6087 45.7966 69.6087 45.7966V45.7966Z" fill="#F7AD24"/>
<path d="M60.9177 55.6123C66.8563 53.1655 68.5107 48.6741 68.5107 48.6741C68.8127 47.9019 68.212 47.6977 68.212 47.6977C68.212 47.6977 67.4905 47.4466 67.2584 48.2263C67.2584 48.2263 65.696 52.798 60.8718 55.6238L60.9177 55.6123Z" fill="white"/>
<path d="M40.0583 30.531V36.343C40.0583 36.343 40.0302 38.6399 42.299 38.6399C42.299 38.6399 46.2624 38.6399 46.2905 34.6064V29.4947C46.2905 29.4947 46.2763 28.4863 45.17 28.7804L43.9936 29.1725V35.2787C43.9936 35.2787 43.9376 36.4131 43.0832 36.4131C43.0832 36.4131 42.397 36.5252 42.397 35.6849C42.369 35.6289 42.397 30.7831 42.397 30.7831C42.397 30.7831 42.411 29.7888 41.3046 30.0548L40.0583 30.531ZM53.195 33.416L51.5985 31.8754C53.293 30.5449 53.027 28.8223 53.027 28.8223C52.7888 26.6795 50.24 27.2677 50.24 27.2677L46.9908 28.2623V36.9174L48.2932 36.4692C49.3996 36.049 49.3155 35.1667 49.3155 35.1667L49.3016 32.9399L51.4724 35.1108C52.3267 35.783 53.125 35.0267 53.125 35.0267C53.8673 34.2004 53.195 33.416 53.195 33.416ZM49.3155 31.6094V29.1866C50.6881 28.6685 50.674 29.7189 50.674 29.7189C50.7442 30.9232 49.3155 31.6094 49.3155 31.6094ZM39.8413 37.4463C39.8413 35.9502 38.3745 35.6422 38.3745 35.6422C39.8566 34.2495 39.5353 33.0102 39.5353 33.0102C39.0953 30.942 36.7317 31.7553 36.7317 31.7553L33.5488 33.0019V42.2426C37.1255 40.7598 37.9784 40.2919 37.9784 40.2919C39.9734 39.265 39.8413 37.4463 39.8413 37.4463V37.4463ZM35.8786 33.6987C37.3016 33.0408 37.2097 34.1883 37.2097 34.1883C37.1638 35.3741 35.8786 35.6953 35.8786 35.6953V33.6987ZM35.8941 39.3674V37.1029C35.8941 37.1029 37.2635 36.3608 37.3782 37.692C37.3781 37.692 37.5542 38.8318 35.8941 39.3674V39.3674Z" fill="#E20028"/>
<path d="M60.4112 26.3753C60.4112 26.3753 60.596 24.9738 58.1472 25.097C58.1472 25.097 53.5577 24.9891 53.3575 30.2563C53.3575 30.2563 53.0804 34.0449 56.7611 34.1066C56.7611 34.1066 60.3648 34.2452 60.4572 31.4114V28.2387L57.0382 29.0088V29.8867C57.0382 29.8867 57.038 30.7645 57.9313 30.5798L58.3163 30.5028V31.4885C58.3163 31.4885 58.301 32.0737 57.2538 32.0737C57.2538 32.0737 55.7136 32.2276 55.8677 29.9637C55.8677 29.9637 55.7907 27.284 58.3472 27.2685C58.3472 27.2685 58.7785 27.2685 59.0403 27.3302C59.0405 27.33 60.3033 27.6536 60.4112 26.3753ZM66.0941 31.1495V29.9328L63.3374 30.4565L63.3321 28.8382L65.1237 28.4853C65.8938 28.3466 65.8168 27.6845 65.8168 27.6845V26.6526L63.3263 27.1457L63.3221 25.8518L65.355 25.4513C66.125 25.3126 66.0481 24.6505 66.0481 24.6505V23.5109L61.0429 24.5273L61.0584 32.936L65.4014 31.9503C66.1711 31.8117 66.0941 31.1495 66.0941 31.1495V31.1495ZM72.7162 29.132L71.1606 27.3764C72.716 26.4217 72.5623 24.8044 72.5623 24.8044C72.2851 22.5405 69.8978 22.8793 69.8978 22.8793L66.6173 23.4028L66.6328 31.7038L67.9263 31.442C68.9888 31.1494 68.8812 30.3331 68.8812 30.3331V28.208L70.8988 30.6104C71.6996 31.365 72.5774 30.6566 72.5774 30.6566C73.3321 29.9482 72.7162 29.132 72.7162 29.132ZM70.2676 25.3896C70.1445 26.6524 68.8814 26.9605 68.8814 26.9605V24.712C70.4213 24.3579 70.2676 25.3896 70.2676 25.3896Z" fill="#E20028"/>
<path d="M50.7998 36.9103L48.594 37.6456C48.594 37.6456 46.7664 38.0447 46.7874 40.4396V51.1534L48.9301 50.3971C48.9301 50.3971 50.8838 49.8719 50.7998 47.6031V36.9103ZM39.3447 45.7173L42.7696 39.9717C42.7696 39.9717 43.6707 38.7097 45.1804 39.4534C45.1804 39.4534 46.5549 40.1971 45.7888 41.7066L42.9272 46.258L45.5409 48.8942C45.5409 48.8942 46.9605 50.201 45.4283 51.7557C45.4283 51.7557 43.9863 53.0849 42.3864 51.5304L39.2319 48.1282L39.0291 46.3706L39.3447 45.7173ZM51.9934 49.3145L51.9682 36.6539L54.2425 35.9715C54.2425 35.9715 55.3798 35.7442 56.0873 36.6287L59.4736 40.5202V36.4013C59.4736 36.4013 59.3978 34.5817 61.3183 34.1775L62.9105 33.8237V44.867C62.9105 44.867 63.0154 46.3178 61.3943 46.7117C61.3943 46.7117 60.1313 46.9949 59.2969 46.0042L55.5569 41.6829V46.0294C55.5569 46.0294 55.8097 48.0003 53.9647 48.6574L51.9934 49.3145Z" fill="#E20028"/>
<path d="M35.5608 42.7639L39.4322 41.1717L39.401 52.4331C39.401 52.4331 39.5047 53.8001 38.277 54.2844L35.5608 55.3771V42.7639ZM69.2375 37.4352L74.5944 36.2798V40.7124C74.5944 40.7124 74.7221 44.7154 68.6913 44.7668C68.6913 44.7668 63.2714 44.8929 63.5235 39.1158C63.5235 39.1158 63.3554 31.8052 71.4433 31.7422C71.4433 31.7422 74.9725 31.7212 74.6364 33.927C74.6364 33.927 74.3843 35.4395 72.9348 35.2084C72.9348 35.2084 72.1785 34.9984 71.2332 34.9984C71.2332 34.9984 67.4309 34.7883 67.3258 38.6957C67.3258 38.6957 67.1998 41.6367 69.4476 41.5527C69.4476 41.5527 70.687 41.5737 71.2122 40.8174V39.62L70.708 39.7461C70.708 39.7461 69.3005 40.1662 69.2165 38.9058L69.2375 37.4352Z" fill="#E20028"/>
</svg>
