<svg width="257" height="176" viewBox="0 0 257 176" fill="none" xmlns="http://www.w3.org/2000/svg">
<path d="M28.594 103H38.566V100.156H33.364L35.524 98.644C37.396 97.294 38.44 96.25 38.44 94.234V94.198C38.44 91.822 36.55 90.184 33.796 90.184C31.348 90.184 30.016 91.138 28.666 92.884L31.024 94.846C32.014 93.712 32.68 93.226 33.526 93.226C34.372 93.226 34.93 93.712 34.93 94.504C34.93 95.26 34.48 95.854 33.31 96.772L28.594 100.372V103ZM45.7844 103.252C49.3844 103.252 51.6344 100.264 51.6344 96.7V96.664C51.6344 93.1 49.4024 90.148 45.8204 90.148C42.2384 90.148 39.9704 93.136 39.9704 96.7V96.736C39.9704 100.3 42.1844 103.252 45.7844 103.252ZM45.8204 100.156C44.4164 100.156 43.4804 98.716 43.4804 96.7V96.664C43.4804 94.648 44.3984 93.244 45.7844 93.244C47.1704 93.244 48.1244 94.702 48.1244 96.7V96.736C48.1244 98.734 47.2244 100.156 45.8204 100.156ZM58.9329 103.252C62.5329 103.252 64.7829 100.264 64.7829 96.7V96.664C64.7829 93.1 62.5509 90.148 58.9689 90.148C55.3869 90.148 53.1189 93.136 53.1189 96.7V96.736C53.1189 100.3 55.3329 103.252 58.9329 103.252ZM58.9689 100.156C57.5649 100.156 56.6289 98.716 56.6289 96.7V96.664C56.6289 94.648 57.5469 93.244 58.9329 93.244C60.3189 93.244 61.2729 94.702 61.2729 96.7V96.736C61.2729 98.734 60.3729 100.156 58.9689 100.156ZM71.6673 103.252C74.4213 103.252 76.6713 101.542 76.6713 98.716V98.68C76.6713 96.16 74.7273 94.756 72.5133 94.756C71.2713 94.756 70.4613 95.224 69.7953 95.728C69.9573 94.144 70.6953 93.046 72.1713 93.046C73.1793 93.046 73.8993 93.424 74.6733 94L76.3113 91.534C75.1053 90.634 73.8813 90.148 72.1173 90.148C68.1753 90.148 66.2673 93.136 66.2673 97.06V97.096C66.2673 99.454 66.8793 100.876 67.8153 101.812C68.7153 102.712 69.8853 103.252 71.6673 103.252ZM71.5233 100.534C70.4253 100.534 69.7413 99.814 69.7413 98.896V98.86C69.7413 97.96 70.3893 97.258 71.4873 97.258C72.5853 97.258 73.2693 97.978 73.2693 98.878V98.914C73.2693 99.832 72.6213 100.534 71.5233 100.534Z" fill="black"/>
<path d="M28.99 125H29.78V121.95H33.57V121.23H29.78V118.73H34.02V118H28.99V125ZM36.7086 125.11C37.6186 125.11 38.2086 124.69 38.5686 124.23V125H39.3286V121.84C39.3286 121.18 39.1486 120.68 38.7886 120.32C38.4186 119.95 37.8486 119.75 37.1186 119.75C36.3586 119.75 35.8086 119.93 35.2386 120.19L35.4686 120.82C35.9486 120.6 36.4286 120.45 37.0386 120.45C38.0086 120.45 38.5686 120.93 38.5686 121.85V122.01C38.1086 121.88 37.6486 121.79 36.9886 121.79C35.6786 121.79 34.7786 122.37 34.7786 123.48V123.5C34.7786 124.56 35.7386 125.11 36.7086 125.11ZM36.8586 124.49C36.1586 124.49 35.5586 124.11 35.5586 123.46V123.44C35.5586 122.82 36.1086 122.4 37.0686 122.4C37.6986 122.4 38.1986 122.51 38.5786 122.62V123.1C38.5786 123.92 37.8086 124.49 36.8586 124.49ZM41.0296 125H41.7996V117.7H41.0296V125ZM43.6566 125H44.4266V117.7H43.6566V125ZM46.6735 122.73H50.7735C50.7835 122.61 50.7835 122.53 50.7835 122.46C50.7835 120.94 49.9035 119.72 48.3735 119.72C46.9435 119.72 45.8935 120.92 45.8935 122.42C45.8935 124.03 47.0535 125.12 48.4735 125.12C49.4535 125.12 50.0835 124.73 50.6035 124.15L50.1235 123.72C49.7035 124.16 49.2035 124.45 48.4935 124.45C47.5835 124.45 46.7835 123.82 46.6735 122.73ZM46.6735 122.11C46.7835 121.11 47.4635 120.37 48.3535 120.37C49.3735 120.37 49.9135 121.17 50.0035 122.11H46.6735ZM54.4615 125.12C55.4315 125.12 56.0515 124.7 56.5715 124.12L56.0815 123.66C55.6715 124.1 55.1615 124.43 54.5015 124.43C53.4215 124.43 52.6015 123.54 52.6015 122.42V122.4C52.6015 121.29 53.4015 120.4 54.4515 120.4C55.1515 120.4 55.6115 120.75 56.0215 121.18L56.5315 120.64C56.0515 120.13 55.4415 119.72 54.4615 119.72C52.9515 119.72 51.8115 120.96 51.8115 122.42V122.44C51.8115 123.89 52.9515 125.12 54.4615 125.12ZM58.1579 122.73H62.2579C62.2679 122.61 62.2679 122.53 62.2679 122.46C62.2679 120.94 61.3879 119.72 59.8579 119.72C58.4279 119.72 57.3779 120.92 57.3779 122.42C57.3779 124.03 58.5379 125.12 59.9579 125.12C60.9379 125.12 61.5679 124.73 62.0879 124.15L61.6079 123.72C61.1879 124.16 60.6879 124.45 59.9779 124.45C59.0679 124.45 58.2679 123.82 58.1579 122.73ZM58.1579 122.11C58.2679 121.11 58.9479 120.37 59.8379 120.37C60.8579 120.37 61.3979 121.17 61.4879 122.11H58.1579ZM66.7439 125H67.5139V119.26L72.0339 125H72.6639V118H71.8939V123.61L67.4839 118H66.7439V125ZM74.5343 118.7H75.4143V117.85H74.5343V118.7ZM74.5843 125H75.3543V119.83H74.5843V125ZM79.4713 125.12C80.4413 125.12 81.0613 124.7 81.5813 124.12L81.0913 123.66C80.6813 124.1 80.1713 124.43 79.5113 124.43C78.4313 124.43 77.6113 123.54 77.6113 122.42V122.4C77.6113 121.29 78.4113 120.4 79.4613 120.4C80.1613 120.4 80.6213 120.75 81.0313 121.18L81.5413 120.64C81.0613 120.13 80.4513 119.72 79.4713 119.72C77.9613 119.72 76.8213 120.96 76.8213 122.42V122.44C76.8213 123.89 77.9613 125.12 79.4713 125.12ZM85.0677 125.12C86.6277 125.12 87.7777 123.88 87.7777 122.42V122.4C87.7777 120.94 86.6377 119.72 85.0877 119.72C83.5277 119.72 82.3877 120.96 82.3877 122.42V122.44C82.3877 123.9 83.5177 125.12 85.0677 125.12ZM85.0877 124.43C83.9977 124.43 83.1777 123.53 83.1777 122.42V122.4C83.1777 121.31 83.9477 120.4 85.0677 120.4C86.1577 120.4 86.9877 121.31 86.9877 122.42V122.44C86.9877 123.53 86.2077 124.43 85.0877 124.43ZM89.2425 125H90.0125V117.7H89.2425V125ZM93.3395 125.11C94.2495 125.11 94.8395 124.69 95.1995 124.23V125H95.9595V121.84C95.9595 121.18 95.7795 120.68 95.4195 120.32C95.0495 119.95 94.4795 119.75 93.7495 119.75C92.9895 119.75 92.4395 119.93 91.8695 120.19L92.0995 120.82C92.5795 120.6 93.0595 120.45 93.6695 120.45C94.6395 120.45 95.1995 120.93 95.1995 121.85V122.01C94.7395 121.88 94.2795 121.79 93.6195 121.79C92.3095 121.79 91.4095 122.37 91.4095 123.48V123.5C91.4095 124.56 92.3695 125.11 93.3395 125.11ZM93.4895 124.49C92.7895 124.49 92.1895 124.11 92.1895 123.46V123.44C92.1895 122.82 92.7395 122.4 93.6995 122.4C94.3295 122.4 94.8295 122.51 95.2095 122.62V123.1C95.2095 123.92 94.4395 124.49 93.4895 124.49ZM99.3005 125.1C100.33 125.1 101.14 124.53 101.14 123.55V123.53C101.14 122.6 100.28 122.29 99.4805 122.05C98.7905 121.84 98.1505 121.65 98.1505 121.16V121.14C98.1505 120.71 98.5405 120.39 99.1505 120.39C99.6505 120.39 100.2 120.58 100.68 120.89L101.03 120.31C100.5 119.96 99.8005 119.74 99.1705 119.74C98.1505 119.74 97.4105 120.33 97.4105 121.22V121.24C97.4105 122.19 98.3105 122.47 99.1205 122.7C99.8005 122.89 100.41 123.09 100.41 123.61V123.63C100.41 124.13 99.9605 124.45 99.3405 124.45C98.7305 124.45 98.1105 124.21 97.5505 123.79L97.1605 124.34C97.7405 124.81 98.5605 125.1 99.3005 125.1ZM105.169 125H106.079L108.319 121.99L110.559 125H111.499L108.809 121.42L111.399 118H110.479L108.349 120.86L106.199 118H105.269L107.859 121.43L105.169 125ZM114.257 125.11C115.167 125.11 115.757 124.69 116.117 124.23V125H116.877V121.84C116.877 121.18 116.697 120.68 116.337 120.32C115.967 119.95 115.397 119.75 114.667 119.75C113.907 119.75 113.357 119.93 112.787 120.19L113.017 120.82C113.497 120.6 113.977 120.45 114.587 120.45C115.557 120.45 116.117 120.93 116.117 121.85V122.01C115.657 121.88 115.197 121.79 114.537 121.79C113.227 121.79 112.327 122.37 112.327 123.48V123.5C112.327 124.56 113.287 125.11 114.257 125.11ZM114.407 124.49C113.707 124.49 113.107 124.11 113.107 123.46V123.44C113.107 122.82 113.657 122.4 114.617 122.4C115.247 122.4 115.747 122.51 116.127 122.62V123.1C116.127 123.92 115.357 124.49 114.407 124.49ZM120.838 125.12C121.808 125.12 122.428 124.7 122.948 124.12L122.458 123.66C122.048 124.1 121.538 124.43 120.878 124.43C119.798 124.43 118.978 123.54 118.978 122.42V122.4C118.978 121.29 119.778 120.4 120.828 120.4C121.528 120.4 121.988 120.75 122.398 121.18L122.908 120.64C122.428 120.13 121.818 119.72 120.838 119.72C119.328 119.72 118.188 120.96 118.188 122.42V122.44C118.188 123.89 119.328 125.12 120.838 125.12ZM126.121 125.11C127.011 125.11 127.541 124.66 127.891 124.1V125H128.651V119.83H127.891V122.79C127.891 123.76 127.221 124.41 126.341 124.41C125.431 124.41 124.911 123.81 124.911 122.85V119.83H124.141V123.04C124.141 124.27 124.871 125.11 126.121 125.11ZM130.383 125H131.153V122.94C131.153 121.38 132.073 120.57 133.203 120.57H133.263V119.74C132.283 119.7 131.533 120.32 131.153 121.18V119.83H130.383V125ZM31.45 138.41L31.78 137.9C30.26 136.93 29.46 135.73 29.46 134.13C29.46 132.53 30.26 131.33 31.78 130.36L31.45 129.85C29.67 130.85 28.68 132.29 28.68 134.13C28.68 135.97 29.67 137.41 31.45 138.41ZM33.3259 137H34.1159V133.95H37.9059V133.23H34.1159V130.73H38.3559V130H33.3259V137ZM41.6584 137.11C42.5484 137.11 43.0784 136.66 43.4284 136.1V137H44.1884V131.83H43.4284V134.79C43.4284 135.76 42.7584 136.41 41.8784 136.41C40.9684 136.41 40.4484 135.81 40.4484 134.85V131.83H39.6784V135.04C39.6784 136.27 40.4084 137.11 41.6584 137.11ZM45.9205 137H46.6905V134.04C46.6905 133.07 47.3505 132.42 48.2405 132.42C49.1505 132.42 49.6705 133.02 49.6705 133.98V137H50.4405V133.79C50.4405 132.56 49.7105 131.72 48.4605 131.72C47.5705 131.72 47.0305 132.17 46.6905 132.73V131.83H45.9205V137ZM54.2527 137.11C55.2027 137.11 55.8127 136.58 56.2327 135.96V137H57.0027V129.7H56.2327V132.82C55.8327 132.24 55.2127 131.72 54.2527 131.72C53.0127 131.72 51.7827 132.72 51.7827 134.41V134.43C51.7827 136.13 53.0127 137.11 54.2527 137.11ZM54.3927 136.42C53.4127 136.42 52.5727 135.64 52.5727 134.42V134.4C52.5727 133.15 53.3927 132.41 54.3927 132.41C55.3527 132.41 56.2627 133.21 56.2627 134.4V134.42C56.2627 135.61 55.3527 136.42 54.3927 136.42ZM60.2633 137.11C61.1733 137.11 61.7633 136.69 62.1233 136.23V137H62.8833V133.84C62.8833 133.18 62.7033 132.68 62.3433 132.32C61.9733 131.95 61.4033 131.75 60.6733 131.75C59.9133 131.75 59.3633 131.93 58.7933 132.19L59.0233 132.82C59.5033 132.6 59.9833 132.45 60.5933 132.45C61.5633 132.45 62.1233 132.93 62.1233 133.85V134.01C61.6633 133.88 61.2033 133.79 60.5433 133.79C59.2333 133.79 58.3333 134.37 58.3333 135.48V135.5C58.3333 136.56 59.2933 137.11 60.2633 137.11ZM60.4133 136.49C59.7133 136.49 59.1133 136.11 59.1133 135.46V135.44C59.1133 134.82 59.6633 134.4 60.6233 134.4C61.2533 134.4 61.7533 134.51 62.1333 134.62V135.1C62.1333 135.92 61.3633 136.49 60.4133 136.49ZM66.6843 137.11C67.6343 137.11 68.2443 136.58 68.6643 135.96V137H69.4343V129.7H68.6643V132.82C68.2643 132.24 67.6443 131.72 66.6843 131.72C65.4443 131.72 64.2143 132.72 64.2143 134.41V134.43C64.2143 136.13 65.4443 137.11 66.6843 137.11ZM66.8243 136.42C65.8443 136.42 65.0043 135.64 65.0043 134.42V134.4C65.0043 133.15 65.8243 132.41 66.8243 132.41C67.7843 132.41 68.6943 133.21 68.6943 134.4V134.42C68.6943 135.61 67.7843 136.42 66.8243 136.42ZM73.5149 137.12C75.0749 137.12 76.2249 135.88 76.2249 134.42V134.4C76.2249 132.94 75.0849 131.72 73.5349 131.72C71.9749 131.72 70.8349 132.96 70.8349 134.42V134.44C70.8349 135.9 71.9649 137.12 73.5149 137.12ZM73.5349 136.43C72.4449 136.43 71.6249 135.53 71.6249 134.42V134.4C71.6249 133.31 72.3949 132.4 73.5149 132.4C74.6049 132.4 75.4349 133.31 75.4349 134.42V134.44C75.4349 135.53 74.6549 136.43 73.5349 136.43ZM77.6198 137H78.3898V134.94C78.3898 133.38 79.3098 132.57 80.4398 132.57H80.4998V131.74C79.5198 131.7 78.7698 132.32 78.3898 133.18V131.83H77.6198V137ZM87.6005 137.11C89.3505 137.11 90.5205 136.05 90.5205 134.01V130H89.7305V134.07C89.7305 135.6 88.9105 136.38 87.6205 136.38C86.2805 136.38 85.4805 135.53 85.4805 134.02V130H84.6905V134.07C84.6905 136.05 85.8705 137.11 87.6005 137.11ZM92.3884 137H93.1784V134.28H95.1784L97.2084 137H98.1784L96.0284 134.14C97.1284 133.94 97.9284 133.26 97.9284 132.1V132.08C97.9284 131.53 97.7284 131.04 97.3884 130.7C96.9484 130.26 96.2584 130 95.3984 130H92.3884V137ZM93.1784 133.57V130.73H95.3384C96.4684 130.73 97.1284 131.25 97.1284 132.11V132.13C97.1284 133.03 96.3784 133.57 95.3284 133.57H93.1784ZM99.615 137H102.725C104.255 137 105.265 136.29 105.265 135.09V135.07C105.265 134.11 104.595 133.63 103.765 133.38C104.315 133.14 104.875 132.67 104.875 131.76V131.74C104.875 131.29 104.715 130.92 104.425 130.62C104.025 130.23 103.395 130 102.595 130H99.615V137ZM100.395 133.12V130.71H102.525C103.525 130.71 104.075 131.16 104.075 131.85V131.87C104.075 132.69 103.415 133.12 102.465 133.12H100.395ZM100.395 136.29V133.82H102.605C103.825 133.82 104.465 134.26 104.465 135.02V135.04C104.465 135.82 103.805 136.29 102.745 136.29H100.395ZM106.232 137H107.042L107.872 135.15H111.682L112.502 137H113.352L110.162 129.95H109.422L106.232 137ZM108.182 134.44L109.782 130.87L111.372 134.44H108.182ZM114.632 138.41C116.412 137.41 117.402 135.97 117.402 134.13C117.402 132.29 116.412 130.85 114.632 129.85L114.302 130.36C115.822 131.33 116.622 132.53 116.622 134.13C116.622 135.73 115.822 136.93 114.302 137.9L114.632 138.41Z" fill="black"/>
<path d="M41.9443 19C42.6617 19 43.3791 19 44.0965 19C44.1682 19.0234 44.228 19.0586 44.2997 19.0703C48.6518 19.7033 51.3778 22.2118 52.7767 26.2206C52.9919 26.8536 53.1115 27.5218 53.2908 28.1782C53.8647 30.1474 53.8647 32.0698 52.8245 33.9101C52.8126 33.9219 52.8126 33.9336 52.8006 33.9453C51.4496 36.9226 49.7279 39.689 47.9703 42.4436C47.779 42.7367 47.779 42.9242 47.9823 43.2055C51.2344 47.5778 54.4745 51.9617 57.7386 56.3339C58.0494 56.7442 58.0853 57.0841 57.8342 57.5296C56.7342 59.4402 55.6582 61.3626 54.5702 63.2732C54.4267 63.5311 54.1995 63.7538 54.0202 64C53.8408 64 53.6615 64 53.4821 64C53.2789 63.7773 53.0517 63.5663 52.8724 63.3201C49.68 58.9831 46.4997 54.6343 43.3193 50.2855C43.2237 50.1566 43.128 50.0393 43.0085 49.8752C42.8889 50.0276 42.8052 50.1331 42.7215 50.2503C39.7922 54.2592 36.8749 58.268 33.9456 62.2652C33.5032 62.863 33.013 63.4256 32.5348 64C32.3554 64 32.1761 64 31.9967 64C31.8294 63.8007 31.6381 63.6132 31.5065 63.3905C30.3946 61.4329 29.2946 59.4754 28.1707 57.5296C27.9077 57.0841 27.9555 56.7442 28.2664 56.3339C31.5185 51.9734 34.7467 47.6012 37.9988 43.2407C38.226 42.9359 38.226 42.7249 38.0227 42.4084C36.3129 39.7359 34.6271 37.0399 33.3 34.1446C32.5706 32.5504 32.0446 30.968 32.5228 29.1511C33.0728 27.0998 33.3956 25.0133 34.7228 23.2316C36.2053 21.2623 38.0705 19.926 40.4737 19.293C40.952 19.1641 41.4541 19.0938 41.9443 19ZM43.0682 35.8794C44.6584 33.2654 46.2127 30.7335 47.7431 28.1899C47.8029 28.0844 47.779 27.85 47.7073 27.7445C47.2529 27.1232 46.6073 26.7247 45.866 26.4785C44.0486 25.8807 42.2074 25.8807 40.3781 26.4082C39.6129 26.6309 38.9433 27.0294 38.4053 27.639C38.226 27.85 38.1781 28.0258 38.3455 28.2954C39.852 30.6984 41.3346 33.1131 42.8172 35.5277C42.8769 35.6098 42.9367 35.6918 43.0682 35.8794Z" fill="black"/>
</svg>
