<svg width="257" height="176" viewBox="0 0 257 176" fill="none" xmlns="http://www.w3.org/2000/svg">
<path d="M28.594 103H38.566V100.156H33.364L35.524 98.644C37.396 97.294 38.44 96.25 38.44 94.234V94.198C38.44 91.822 36.55 90.184 33.796 90.184C31.348 90.184 30.016 91.138 28.666 92.884L31.024 94.846C32.014 93.712 32.68 93.226 33.526 93.226C34.372 93.226 34.93 93.712 34.93 94.504C34.93 95.26 34.48 95.854 33.31 96.772L28.594 100.372V103ZM45.7844 103.252C49.3844 103.252 51.6344 100.264 51.6344 96.7V96.664C51.6344 93.1 49.4024 90.148 45.8204 90.148C42.2384 90.148 39.9704 93.136 39.9704 96.7V96.736C39.9704 100.3 42.1844 103.252 45.7844 103.252ZM45.8204 100.156C44.4164 100.156 43.4804 98.716 43.4804 96.7V96.664C43.4804 94.648 44.3984 93.244 45.7844 93.244C47.1704 93.244 48.1244 94.702 48.1244 96.7V96.736C48.1244 98.734 47.2244 100.156 45.8204 100.156ZM55.0512 103H58.4892V90.31H55.9512L52.2612 91.354L52.9272 94.054L55.0512 93.568V103ZM65.1649 103.252C68.2249 103.252 70.3669 101.578 70.3669 98.77V98.734C70.3669 95.998 68.3149 94.738 66.0469 94.738C65.2009 94.738 64.6069 94.918 64.0309 95.188L64.1389 93.28H69.8089V90.4H61.3849L61.0249 96.79L63.0949 97.942C63.6889 97.582 64.3369 97.312 65.1109 97.312C66.2089 97.312 66.9649 97.87 66.9649 98.77V98.806C66.9649 99.706 66.2629 100.282 65.1109 100.282C64.0489 100.282 63.0769 99.778 62.0509 98.914L60.0529 101.254C61.3669 102.478 62.9329 103.252 65.1649 103.252Z" fill="black"/>
<path d="M31.39 125.1C32.78 125.1 33.78 124.32 33.78 123.12V123.1C33.78 122.03 33.06 121.46 31.5 121.12C29.96 120.79 29.6 120.42 29.6 119.76V119.74C29.6 119.11 30.18 118.61 31.09 118.61C31.81 118.61 32.46 118.84 33.11 119.37L33.57 118.76C32.86 118.19 32.13 117.9 31.11 117.9C29.78 117.9 28.81 118.71 28.81 119.81V119.83C28.81 120.98 29.55 121.5 31.16 121.85C32.63 122.16 32.98 122.53 32.98 123.18V123.2C32.98 123.89 32.36 124.39 31.42 124.39C30.45 124.39 29.75 124.06 29.02 123.4L28.53 123.98C29.37 124.73 30.28 125.1 31.39 125.1ZM35.7165 122.73H39.8165C39.8265 122.61 39.8265 122.53 39.8265 122.46C39.8265 120.94 38.9465 119.72 37.4165 119.72C35.9865 119.72 34.9365 120.92 34.9365 122.42C34.9365 124.03 36.0965 125.12 37.5165 125.12C38.4965 125.12 39.1265 124.73 39.6465 124.15L39.1665 123.72C38.7465 124.16 38.2465 124.45 37.5365 124.45C36.6265 124.45 35.8265 123.82 35.7165 122.73ZM35.7165 122.11C35.8265 121.11 36.5065 120.37 37.3965 120.37C38.4165 120.37 38.9565 121.17 39.0465 122.11H35.7165ZM48.1889 125H48.9589V122.94C48.9589 121.38 49.8789 120.57 51.0089 120.57H51.0689V119.74C50.0889 119.7 49.3389 120.32 48.9589 121.18V119.83H48.1889V125ZM52.477 122.73H56.577C56.587 122.61 56.587 122.53 56.587 122.46C56.587 120.94 55.707 119.72 54.177 119.72C52.747 119.72 51.697 120.92 51.697 122.42C51.697 124.03 52.857 125.12 54.277 125.12C55.257 125.12 55.887 124.73 56.407 124.15L55.927 123.72C55.507 124.16 55.007 124.45 54.297 124.45C53.387 124.45 52.587 123.82 52.477 122.73ZM52.477 122.11C52.587 121.11 53.267 120.37 54.157 120.37C55.177 120.37 55.717 121.17 55.807 122.11H52.477ZM59.645 125.1C60.675 125.1 61.485 124.53 61.485 123.55V123.53C61.485 122.6 60.625 122.29 59.825 122.05C59.135 121.84 58.495 121.65 58.495 121.16V121.14C58.495 120.71 58.885 120.39 59.495 120.39C59.995 120.39 60.545 120.58 61.025 120.89L61.375 120.31C60.845 119.96 60.145 119.74 59.515 119.74C58.495 119.74 57.755 120.33 57.755 121.22V121.24C57.755 122.19 58.655 122.47 59.465 122.7C60.145 122.89 60.755 123.09 60.755 123.61V123.63C60.755 124.13 60.305 124.45 59.685 124.45C59.075 124.45 58.455 124.21 57.895 123.79L57.505 124.34C58.085 124.81 58.905 125.1 59.645 125.1ZM64.5478 125.09C64.9178 125.09 65.2078 125.01 65.4778 124.87V124.21C65.2078 124.34 64.9878 124.39 64.7278 124.39C64.2078 124.39 63.8578 124.16 63.8578 123.53V120.51H65.4978V119.83H63.8578V118.27H63.0878V119.83H62.3678V120.51H63.0878V123.63C63.0878 124.68 63.7178 125.09 64.5478 125.09ZM66.8608 125H67.6308V122.94C67.6308 121.38 68.5508 120.57 69.6808 120.57H69.7408V119.74C68.7608 119.7 68.0108 120.32 67.6308 121.18V119.83H66.8608V125ZM72.8135 125.11C73.7035 125.11 74.2335 124.66 74.5835 124.1V125H75.3435V119.83H74.5835V122.79C74.5835 123.76 73.9135 124.41 73.0335 124.41C72.1235 124.41 71.6035 123.81 71.6035 122.85V119.83H70.8335V123.04C70.8335 124.27 71.5635 125.11 72.8135 125.11ZM79.4056 125.12C80.3756 125.12 80.9956 124.7 81.5156 124.12L81.0256 123.66C80.6156 124.1 80.1056 124.43 79.4456 124.43C78.3656 124.43 77.5456 123.54 77.5456 122.42V122.4C77.5456 121.29 78.3456 120.4 79.3956 120.4C80.0956 120.4 80.5556 120.75 80.9656 121.18L81.4756 120.64C80.9956 120.13 80.3856 119.72 79.4056 119.72C77.8956 119.72 76.7556 120.96 76.7556 122.42V122.44C76.7556 123.89 77.8956 125.12 79.4056 125.12ZM84.5185 125.09C84.8885 125.09 85.1785 125.01 85.4485 124.87V124.21C85.1785 124.34 84.9585 124.39 84.6985 124.39C84.1785 124.39 83.8285 124.16 83.8285 123.53V120.51H85.4685V119.83H83.8285V118.27H83.0585V119.83H82.3385V120.51H83.0585V123.63C83.0585 124.68 83.6885 125.09 84.5185 125.09ZM88.7315 125.11C89.6215 125.11 90.1515 124.66 90.5015 124.1V125H91.2615V119.83H90.5015V122.79C90.5015 123.76 89.8315 124.41 88.9515 124.41C88.0415 124.41 87.5215 123.81 87.5215 122.85V119.83H86.7515V123.04C86.7515 124.27 87.4815 125.11 88.7315 125.11ZM92.9936 125H93.7636V122.94C93.7636 121.38 94.6836 120.57 95.8136 120.57H95.8736V119.74C94.8936 119.7 94.1436 120.32 93.7636 121.18V119.83H92.9936V125ZM98.3324 125.11C99.2424 125.11 99.8324 124.69 100.192 124.23V125H100.952V121.84C100.952 121.18 100.772 120.68 100.412 120.32C100.042 119.95 99.4724 119.75 98.7424 119.75C97.9824 119.75 97.4324 119.93 96.8624 120.19L97.0924 120.82C97.5724 120.6 98.0524 120.45 98.6624 120.45C99.6324 120.45 100.192 120.93 100.192 121.85V122.01C99.7324 121.88 99.2724 121.79 98.6124 121.79C97.3024 121.79 96.4024 122.37 96.4024 123.48V123.5C96.4024 124.56 97.3624 125.11 98.3324 125.11ZM98.4824 124.49C97.7824 124.49 97.1824 124.11 97.1824 123.46V123.44C97.1824 122.82 97.7324 122.4 98.6924 122.4C99.3224 122.4 99.8224 122.51 100.202 122.62V123.1C100.202 123.92 99.4324 124.49 98.4824 124.49ZM109.668 125H110.438V117.7H109.668V125ZM113.765 125.11C114.675 125.11 115.265 124.69 115.625 124.23V125H116.385V121.84C116.385 121.18 116.205 120.68 115.845 120.32C115.475 119.95 114.905 119.75 114.175 119.75C113.415 119.75 112.865 119.93 112.295 120.19L112.525 120.82C113.005 120.6 113.485 120.45 114.095 120.45C115.065 120.45 115.625 120.93 115.625 121.85V122.01C115.165 121.88 114.705 121.79 114.045 121.79C112.735 121.79 111.835 122.37 111.835 123.48V123.5C111.835 124.56 112.795 125.11 113.765 125.11ZM113.915 124.49C113.215 124.49 112.615 124.11 112.615 123.46V123.44C112.615 122.82 113.165 122.4 114.125 122.4C114.755 122.4 115.255 122.51 115.635 122.62V123.1C115.635 123.92 114.865 124.49 113.915 124.49ZM125.49 122.73H129.59C129.6 122.61 129.6 122.53 129.6 122.46C129.6 120.94 128.72 119.72 127.19 119.72C125.76 119.72 124.71 120.92 124.71 122.42C124.71 124.03 125.87 125.12 127.29 125.12C128.27 125.12 128.9 124.73 129.42 124.15L128.94 123.72C128.52 124.16 128.02 124.45 127.31 124.45C126.4 124.45 125.6 123.82 125.49 122.73ZM125.49 122.11C125.6 121.11 126.28 120.37 127.17 120.37C128.19 120.37 128.73 121.17 128.82 122.11H125.49ZM130.948 125H131.718V122.05C131.718 121.1 132.338 120.42 133.158 120.42C133.978 120.42 134.488 120.99 134.488 121.96V125H135.248V122.02C135.248 121 135.898 120.42 136.678 120.42C137.518 120.42 138.018 120.98 138.018 121.98V125H138.788V121.8C138.788 120.52 138.058 119.72 136.868 119.72C135.968 119.72 135.418 120.18 135.048 120.75C134.768 120.17 134.228 119.72 133.388 119.72C132.518 119.72 132.058 120.19 131.718 120.7V119.83H130.948V125ZM140.46 126.6H141.23V124.01C141.63 124.59 142.25 125.11 143.21 125.11C144.46 125.11 145.68 124.11 145.68 122.42V122.4C145.68 120.7 144.45 119.72 143.21 119.72C142.26 119.72 141.65 120.25 141.23 120.87V119.83H140.46V126.6ZM143.07 124.42C142.11 124.42 141.2 123.62 141.2 122.42V122.4C141.2 121.22 142.11 120.41 143.07 120.41C144.05 120.41 144.89 121.19 144.89 122.41V122.43C144.89 123.68 144.07 124.42 143.07 124.42ZM147.101 125H147.871V122.94C147.871 121.38 148.791 120.57 149.921 120.57H149.981V119.74C149.001 119.7 148.251 120.32 147.871 121.18V119.83H147.101V125ZM151.389 122.73H155.489C155.499 122.61 155.499 122.53 155.499 122.46C155.499 120.94 154.619 119.72 153.089 119.72C151.659 119.72 150.609 120.92 150.609 122.42C150.609 124.03 151.769 125.12 153.189 125.12C154.169 125.12 154.799 124.73 155.319 124.15L154.839 123.72C154.419 124.16 153.919 124.45 153.209 124.45C152.299 124.45 151.499 123.82 151.389 122.73ZM151.389 122.11C151.499 121.11 152.179 120.37 153.069 120.37C154.089 120.37 154.629 121.17 154.719 122.11H151.389ZM158.557 125.1C159.587 125.1 160.397 124.53 160.397 123.55V123.53C160.397 122.6 159.537 122.29 158.737 122.05C158.047 121.84 157.407 121.65 157.407 121.16V121.14C157.407 120.71 157.797 120.39 158.407 120.39C158.907 120.39 159.457 120.58 159.937 120.89L160.287 120.31C159.757 119.96 159.057 119.74 158.427 119.74C157.407 119.74 156.667 120.33 156.667 121.22V121.24C156.667 122.19 157.567 122.47 158.377 122.7C159.057 122.89 159.667 123.09 159.667 123.61V123.63C159.667 124.13 159.217 124.45 158.597 124.45C157.987 124.45 157.367 124.21 156.807 123.79L156.417 124.34C156.997 124.81 157.817 125.1 158.557 125.1ZM163.367 125.11C164.277 125.11 164.867 124.69 165.227 124.23V125H165.987V121.84C165.987 121.18 165.807 120.68 165.447 120.32C165.077 119.95 164.507 119.75 163.777 119.75C163.017 119.75 162.467 119.93 161.897 120.19L162.127 120.82C162.607 120.6 163.087 120.45 163.697 120.45C164.667 120.45 165.227 120.93 165.227 121.85V122.01C164.767 121.88 164.307 121.79 163.647 121.79C162.337 121.79 161.437 122.37 161.437 123.48V123.5C161.437 124.56 162.397 125.11 163.367 125.11ZM163.517 124.49C162.817 124.49 162.217 124.11 162.217 123.46V123.44C162.217 122.82 162.767 122.4 163.727 122.4C164.357 122.4 164.857 122.51 165.237 122.62V123.1C165.237 123.92 164.467 124.49 163.517 124.49ZM176.963 125.12C177.933 125.12 178.553 124.7 179.073 124.12L178.583 123.66C178.173 124.1 177.663 124.43 177.003 124.43C175.923 124.43 175.103 123.54 175.103 122.42V122.4C175.103 121.29 175.903 120.4 176.953 120.4C177.653 120.4 178.113 120.75 178.523 121.18L179.033 120.64C178.553 120.13 177.943 119.72 176.963 119.72C175.453 119.72 174.313 120.96 174.313 122.42V122.44C174.313 123.89 175.453 125.12 176.963 125.12ZM182.559 125.12C184.119 125.12 185.269 123.88 185.269 122.42V122.4C185.269 120.94 184.129 119.72 182.579 119.72C181.019 119.72 179.879 120.96 179.879 122.42V122.44C179.879 123.9 181.009 125.12 182.559 125.12ZM182.579 124.43C181.489 124.43 180.669 123.53 180.669 122.42V122.4C180.669 121.31 181.439 120.4 182.559 120.4C183.649 120.4 184.479 121.31 184.479 122.42V122.44C184.479 123.53 183.699 124.43 182.579 124.43ZM186.664 125H187.434V122.04C187.434 121.07 188.094 120.42 188.984 120.42C189.894 120.42 190.414 121.02 190.414 121.98V125H191.184V121.79C191.184 120.56 190.454 119.72 189.204 119.72C188.314 119.72 187.774 120.17 187.434 120.73V119.83H186.664V125ZM199.84 125H200.61V122.04C200.61 121.07 201.27 120.42 202.16 120.42C203.07 120.42 203.59 121.02 203.59 121.98V125H204.36V121.79C204.36 120.56 203.63 119.72 202.38 119.72C201.49 119.72 200.95 120.17 200.61 120.73V119.83H199.84V125ZM207.903 125.11C208.793 125.11 209.323 124.66 209.673 124.1V125H210.433V119.83H209.673V122.79C209.673 123.76 209.003 124.41 208.123 124.41C207.213 124.41 206.693 123.81 206.693 122.85V119.83H205.923V123.04C205.923 124.27 206.653 125.11 207.903 125.11ZM212.625 122.73H216.725C216.735 122.61 216.735 122.53 216.735 122.46C216.735 120.94 215.855 119.72 214.325 119.72C212.895 119.72 211.845 120.92 211.845 122.42C211.845 124.03 213.005 125.12 214.425 125.12C215.405 125.12 216.035 124.73 216.555 124.15L216.075 123.72C215.655 124.16 215.155 124.45 214.445 124.45C213.535 124.45 212.735 123.82 212.625 122.73ZM212.625 122.11C212.735 121.11 213.415 120.37 214.305 120.37C215.325 120.37 215.865 121.17 215.955 122.11H212.625ZM219.559 125.04H220.239L222.489 119.83H221.659L219.909 124.12L218.169 119.83H217.319L219.559 125.04ZM225.755 125.12C227.315 125.12 228.465 123.88 228.465 122.42V122.4C228.465 120.94 227.325 119.72 225.775 119.72C224.215 119.72 223.075 120.96 223.075 122.42V122.44C223.075 123.9 224.205 125.12 225.755 125.12ZM225.775 124.43C224.685 124.43 223.865 123.53 223.865 122.42V122.4C223.865 121.31 224.635 120.4 225.755 120.4C226.845 120.4 227.675 121.31 227.675 122.42V122.44C227.675 123.53 226.895 124.43 225.775 124.43ZM31.61 137.11C32.86 137.11 34.08 136.11 34.08 134.42V134.4C34.08 132.7 32.85 131.72 31.61 131.72C30.66 131.72 30.05 132.25 29.63 132.87V129.7H28.86V137H29.63V136.01C30.03 136.59 30.65 137.11 31.61 137.11ZM31.47 136.42C30.51 136.42 29.6 135.62 29.6 134.42V134.4C29.6 133.22 30.51 132.41 31.47 132.41C32.45 132.41 33.29 133.19 33.29 134.41V134.43C33.29 135.68 32.47 136.42 31.47 136.42ZM35.5006 137H36.2706V134.94C36.2706 133.38 37.1906 132.57 38.3206 132.57H38.3806V131.74C37.4006 131.7 36.6506 132.32 36.2706 133.18V131.83H35.5006V137ZM40.8395 137.11C41.7495 137.11 42.3395 136.69 42.6995 136.23V137H43.4595V133.84C43.4595 133.18 43.2795 132.68 42.9195 132.32C42.5495 131.95 41.9795 131.75 41.2495 131.75C40.4895 131.75 39.9395 131.93 39.3695 132.19L39.5995 132.82C40.0795 132.6 40.5595 132.45 41.1695 132.45C42.1395 132.45 42.6995 132.93 42.6995 133.85V134.01C42.2395 133.88 41.7795 133.79 41.1195 133.79C39.8095 133.79 38.9095 134.37 38.9095 135.48V135.5C38.9095 136.56 39.8695 137.11 40.8395 137.11ZM40.9895 136.49C40.2895 136.49 39.6895 136.11 39.6895 135.46V135.44C39.6895 134.82 40.2395 134.4 41.1995 134.4C41.8295 134.4 42.3295 134.51 42.7095 134.62V135.1C42.7095 135.92 41.9395 136.49 40.9895 136.49ZM45.0905 137H45.8605V134.04C45.8605 133.07 46.5205 132.42 47.4105 132.42C48.3205 132.42 48.8405 133.02 48.8405 133.98V137H49.6105V133.79C49.6105 132.56 48.8805 131.72 47.6305 131.72C46.7405 131.72 46.2005 132.17 45.8605 132.73V131.83H45.0905V137ZM53.4226 137.11C54.3726 137.11 54.9826 136.58 55.4026 135.96V137H56.1726V129.7H55.4026V132.82C55.0026 132.24 54.3826 131.72 53.4226 131.72C52.1826 131.72 50.9526 132.72 50.9526 134.41V134.43C50.9526 136.13 52.1826 137.11 53.4226 137.11ZM53.5626 136.42C52.5826 136.42 51.7426 135.64 51.7426 134.42V134.4C51.7426 133.15 52.5626 132.41 53.5626 132.41C54.5226 132.41 55.4326 133.21 55.4326 134.4V134.42C55.4326 135.61 54.5226 136.42 53.5626 136.42ZM57.9132 130.7H58.7932V129.85H57.9132V130.7ZM57.9632 137H58.7332V131.83H57.9632V137ZM60.5202 137H61.2902V134.04C61.2902 133.07 61.9502 132.42 62.8402 132.42C63.7502 132.42 64.2702 133.02 64.2702 133.98V137H65.0402V133.79C65.0402 132.56 64.3102 131.72 63.0602 131.72C62.1702 131.72 61.6302 132.17 61.2902 132.73V131.83H60.5202V137ZM68.9723 138.62C69.7923 138.62 70.4823 138.39 70.9423 137.93C71.3623 137.51 71.6023 136.9 71.6023 136.1V131.83H70.8323V132.76C70.4123 132.2 69.7823 131.72 68.8123 131.72C67.5823 131.72 66.3823 132.65 66.3823 134.16V134.18C66.3823 135.67 67.5723 136.6 68.8123 136.6C69.7623 136.6 70.3923 136.11 70.8423 135.51V136.12C70.8423 137.33 70.1023 137.96 68.9623 137.96C68.2223 137.96 67.5623 137.73 66.9723 137.3L66.6223 137.9C67.3123 138.38 68.1123 138.62 68.9723 138.62ZM68.9623 135.92C68.0023 135.92 67.1723 135.2 67.1723 134.16V134.14C67.1723 133.08 67.9823 132.4 68.9623 132.4C69.9423 132.4 70.8623 133.09 70.8623 134.15V134.17C70.8623 135.21 69.9423 135.92 68.9623 135.92ZM73.0429 138.22C73.8029 138.05 74.1529 137.66 74.1529 136.85V135.95H73.2329V137H73.5929C73.6329 137.43 73.4229 137.69 72.9229 137.87L73.0429 138.22ZM81.9026 137.12C83.4626 137.12 84.6126 135.88 84.6126 134.42V134.4C84.6126 132.94 83.4726 131.72 81.9226 131.72C80.3626 131.72 79.2226 132.96 79.2226 134.42V134.44C79.2226 135.9 80.3526 137.12 81.9026 137.12ZM81.9226 136.43C80.8326 136.43 80.0126 135.53 80.0126 134.42V134.4C80.0126 133.31 80.7826 132.4 81.9026 132.4C82.9926 132.4 83.8226 133.31 83.8226 134.42V134.44C83.8226 135.53 83.0426 136.43 81.9226 136.43ZM89.6975 130.7H90.5775V129.85H89.6975V130.7ZM86.2975 137H87.0675V132.51H88.6975V131.85H87.0575V131.43C87.0575 130.69 87.3575 130.33 87.9575 130.33C88.2175 130.33 88.4275 130.38 88.7075 130.46V129.79C88.4575 129.7 88.2175 129.66 87.8575 129.66C87.3875 129.66 87.0075 129.8 86.7475 130.06C86.4575 130.35 86.2975 130.8 86.2975 131.39V131.84H85.5875V132.51H86.2975V137ZM89.7575 137H90.5175V131.83H89.7575V137ZM94.6461 137.12C95.6161 137.12 96.2361 136.7 96.7561 136.12L96.2661 135.66C95.8561 136.1 95.3461 136.43 94.6861 136.43C93.6061 136.43 92.7861 135.54 92.7861 134.42V134.4C92.7861 133.29 93.5861 132.4 94.6361 132.4C95.3361 132.4 95.7961 132.75 96.2061 133.18L96.7161 132.64C96.2361 132.13 95.6261 131.72 94.6461 131.72C93.1361 131.72 91.9961 132.96 91.9961 134.42V134.44C91.9961 135.89 93.1361 137.12 94.6461 137.12ZM98.0489 130.7H98.9289V129.85H98.0489V130.7ZM98.0989 137H98.8689V131.83H98.0989V137ZM100.656 137H101.426V134.04C101.426 133.07 102.086 132.42 102.976 132.42C103.886 132.42 104.406 133.02 104.406 133.98V137H105.176V133.79C105.176 132.56 104.446 131.72 103.196 131.72C102.306 131.72 101.766 132.17 101.426 132.73V131.83H100.656V137ZM108.358 137.11C109.268 137.11 109.858 136.69 110.218 136.23V137H110.978V133.84C110.978 133.18 110.798 132.68 110.438 132.32C110.068 131.95 109.498 131.75 108.768 131.75C108.008 131.75 107.458 131.93 106.888 132.19L107.118 132.82C107.598 132.6 108.078 132.45 108.688 132.45C109.658 132.45 110.218 132.93 110.218 133.85V134.01C109.758 133.88 109.298 133.79 108.638 133.79C107.328 133.79 106.428 134.37 106.428 135.48V135.5C106.428 136.56 107.388 137.11 108.358 137.11ZM108.508 136.49C107.808 136.49 107.208 136.11 107.208 135.46V135.44C107.208 134.82 107.758 134.4 108.718 134.4C109.348 134.4 109.848 134.51 110.228 134.62V135.1C110.228 135.92 109.458 136.49 108.508 136.49ZM114.319 137.1C115.349 137.1 116.159 136.53 116.159 135.55V135.53C116.159 134.6 115.299 134.29 114.499 134.05C113.809 133.84 113.169 133.65 113.169 133.16V133.14C113.169 132.71 113.559 132.39 114.169 132.39C114.669 132.39 115.219 132.58 115.699 132.89L116.049 132.31C115.519 131.96 114.819 131.74 114.189 131.74C113.169 131.74 112.429 132.33 112.429 133.22V133.24C112.429 134.19 113.329 134.47 114.139 134.7C114.819 134.89 115.429 135.09 115.429 135.61V135.63C115.429 136.13 114.979 136.45 114.359 136.45C113.749 136.45 113.129 136.21 112.569 135.79L112.179 136.34C112.759 136.81 113.579 137.1 114.319 137.1ZM121.818 134.73H125.918C125.928 134.61 125.928 134.53 125.928 134.46C125.928 132.94 125.048 131.72 123.518 131.72C122.088 131.72 121.038 132.92 121.038 134.42C121.038 136.03 122.198 137.12 123.618 137.12C124.598 137.12 125.228 136.73 125.748 136.15L125.268 135.72C124.848 136.16 124.348 136.45 123.638 136.45C122.728 136.45 121.928 135.82 121.818 134.73ZM121.818 134.11C121.928 133.11 122.608 132.37 123.498 132.37C124.518 132.37 125.058 133.17 125.148 134.11H121.818ZM127.276 137H128.046V134.04C128.046 133.07 128.706 132.42 129.596 132.42C130.506 132.42 131.026 133.02 131.026 133.98V137H131.796V133.79C131.796 132.56 131.066 131.72 129.816 131.72C128.926 131.72 128.386 132.17 128.046 132.73V131.83H127.276V137ZM137.337 137H138.107V131.34L140.657 135.08H140.697L143.247 131.33V137H144.037V130H143.237L140.687 133.82L138.137 130H137.337V137ZM147.728 131.05H148.328L149.468 129.97L148.668 129.6L147.728 131.05ZM146.348 134.73H150.448C150.458 134.61 150.458 134.53 150.458 134.46C150.458 132.94 149.578 131.72 148.048 131.72C146.618 131.72 145.568 132.92 145.568 134.42C145.568 136.03 146.728 137.12 148.148 137.12C149.128 137.12 149.758 136.73 150.278 136.15L149.798 135.72C149.378 136.16 148.878 136.45 148.168 136.45C147.258 136.45 146.458 135.82 146.348 134.73ZM146.348 134.11C146.458 133.11 147.138 132.37 148.028 132.37C149.048 132.37 149.588 133.17 149.678 134.11H146.348ZM151.806 137H152.576V134.94C152.576 133.38 153.496 132.57 154.626 132.57H154.686V131.74C153.706 131.7 152.956 132.32 152.576 133.18V131.83H151.806V137ZM155.879 130.7H156.759V129.85H155.879V130.7ZM155.929 137H156.699V131.83H155.929V137ZM160.656 137.11C161.606 137.11 162.216 136.58 162.636 135.96V137H163.406V129.7H162.636V132.82C162.236 132.24 161.616 131.72 160.656 131.72C159.416 131.72 158.186 132.72 158.186 134.41V134.43C158.186 136.13 159.416 137.11 160.656 137.11ZM160.796 136.42C159.816 136.42 158.976 135.64 158.976 134.42V134.4C158.976 133.15 159.796 132.41 160.796 132.41C161.756 132.41 162.666 133.21 162.666 134.4V134.42C162.666 135.61 161.756 136.42 160.796 136.42ZM166.667 137.11C167.577 137.11 168.167 136.69 168.527 136.23V137H169.287V133.84C169.287 133.18 169.107 132.68 168.747 132.32C168.377 131.95 167.807 131.75 167.077 131.75C166.317 131.75 165.767 131.93 165.197 132.19L165.427 132.82C165.907 132.6 166.387 132.45 166.997 132.45C167.967 132.45 168.527 132.93 168.527 133.85V134.01C168.067 133.88 167.607 133.79 166.947 133.79C165.637 133.79 164.737 134.37 164.737 135.48V135.5C164.737 136.56 165.697 137.11 166.667 137.11ZM166.817 136.49C166.117 136.49 165.517 136.11 165.517 135.46V135.44C165.517 134.82 166.067 134.4 167.027 134.4C167.657 134.4 168.157 134.51 168.537 134.62V135.1C168.537 135.92 167.767 136.49 166.817 136.49ZM175.486 138.63C176.266 138.63 176.766 138.24 177.206 137.17L179.376 131.83H178.556L176.896 136.14L175.016 131.83H174.166L176.516 136.98C176.206 137.71 175.916 137.95 175.456 137.95C175.126 137.95 174.896 137.89 174.646 137.76L174.386 138.37C174.736 138.54 175.056 138.63 175.486 138.63ZM186.073 137.1C187.103 137.1 187.913 136.53 187.913 135.55V135.53C187.913 134.6 187.053 134.29 186.253 134.05C185.563 133.84 184.923 133.65 184.923 133.16V133.14C184.923 132.71 185.313 132.39 185.923 132.39C186.423 132.39 186.973 132.58 187.453 132.89L187.803 132.31C187.273 131.96 186.573 131.74 185.943 131.74C184.923 131.74 184.183 132.33 184.183 133.22V133.24C184.183 134.19 185.083 134.47 185.893 134.7C186.573 134.89 187.183 135.09 187.183 135.61V135.63C187.183 136.13 186.733 136.45 186.113 136.45C185.503 136.45 184.883 136.21 184.323 135.79L183.933 136.34C184.513 136.81 185.333 137.1 186.073 137.1ZM189.803 134.73H193.903C193.913 134.61 193.913 134.53 193.913 134.46C193.913 132.94 193.033 131.72 191.503 131.72C190.073 131.72 189.023 132.92 189.023 134.42C189.023 136.03 190.183 137.12 191.603 137.12C192.583 137.12 193.213 136.73 193.733 136.15L193.253 135.72C192.833 136.16 192.333 136.45 191.623 136.45C190.713 136.45 189.913 135.82 189.803 134.73ZM189.803 134.11C189.913 133.11 190.593 132.37 191.483 132.37C192.503 132.37 193.043 133.17 193.133 134.11H189.803ZM200.76 137.09C201.13 137.09 201.42 137.01 201.69 136.87V136.21C201.42 136.34 201.2 136.39 200.94 136.39C200.42 136.39 200.07 136.16 200.07 135.53V132.51H201.71V131.83H200.07V130.27H199.3V131.83H198.58V132.51H199.3V135.63C199.3 136.68 199.93 137.09 200.76 137.09ZM203.093 130.7H203.973V129.85H203.093V130.7ZM203.143 137H203.913V131.83H203.143V137ZM206.16 134.73H210.26C210.27 134.61 210.27 134.53 210.27 134.46C210.27 132.94 209.39 131.72 207.86 131.72C206.43 131.72 205.38 132.92 205.38 134.42C205.38 136.03 206.54 137.12 207.96 137.12C208.94 137.12 209.57 136.73 210.09 136.15L209.61 135.72C209.19 136.16 208.69 136.45 207.98 136.45C207.07 136.45 206.27 135.82 206.16 134.73ZM206.16 134.11C206.27 133.11 206.95 132.37 207.84 132.37C208.86 132.37 209.4 133.17 209.49 134.11H206.16ZM211.618 137H212.388V134.04C212.388 133.07 213.048 132.42 213.938 132.42C214.848 132.42 215.368 133.02 215.368 133.98V137H216.138V133.79C216.138 132.56 215.408 131.72 214.158 131.72C213.268 131.72 212.728 132.17 212.388 132.73V131.83H211.618V137ZM218.24 134.73H222.34C222.35 134.61 222.35 134.53 222.35 134.46C222.35 132.94 221.47 131.72 219.94 131.72C218.51 131.72 217.46 132.92 217.46 134.42C217.46 136.03 218.62 137.12 220.04 137.12C221.02 137.12 221.65 136.73 222.17 136.15L221.69 135.72C221.27 136.16 220.77 136.45 220.06 136.45C219.15 136.45 218.35 135.82 218.24 134.73ZM218.24 134.11C218.35 133.11 219.03 132.37 219.92 132.37C220.94 132.37 221.48 133.17 221.57 134.11H218.24ZM223.698 137H224.468V134.04C224.468 133.07 225.128 132.42 226.018 132.42C226.928 132.42 227.448 133.02 227.448 133.98V137H228.218V133.79C228.218 132.56 227.488 131.72 226.238 131.72C225.348 131.72 224.808 132.17 224.468 132.73V131.83H223.698V137ZM29.37 149H30.25L33.43 142.59V142H28.68V142.72H32.53L29.37 149ZM36.7331 149.12C38.1931 149.12 39.2331 148.19 39.2331 146.82V146.8C39.2331 145.47 38.1731 144.66 36.8131 144.66C36.2331 144.66 35.8431 144.79 35.4331 144.97L35.5831 142.73H38.9231V142H34.8931L34.6931 145.41L35.2231 145.76C35.6331 145.54 36.1031 145.36 36.6931 145.36C37.7131 145.36 38.4331 145.96 38.4331 146.83V146.85C38.4331 147.74 37.7431 148.4 36.7431 148.4C36.0331 148.4 35.3631 148.03 34.7531 147.44L34.2331 148.01C34.8631 148.64 35.7331 149.12 36.7331 149.12ZM45.3942 149.1C46.4242 149.1 47.2342 148.53 47.2342 147.55V147.53C47.2342 146.6 46.3742 146.29 45.5742 146.05C44.8842 145.84 44.2442 145.65 44.2442 145.16V145.14C44.2442 144.71 44.6342 144.39 45.2442 144.39C45.7442 144.39 46.2942 144.58 46.7742 144.89L47.1242 144.31C46.5942 143.96 45.8942 143.74 45.2642 143.74C44.2442 143.74 43.5042 144.33 43.5042 145.22V145.24C43.5042 146.19 44.4042 146.47 45.2142 146.7C45.8942 146.89 46.5042 147.09 46.5042 147.61V147.63C46.5042 148.13 46.0542 148.45 45.4342 148.45C44.8242 148.45 44.2042 148.21 43.6442 147.79L43.2542 148.34C43.8342 148.81 44.6542 149.1 45.3942 149.1ZM50.5647 149.11C51.4547 149.11 51.9847 148.66 52.3347 148.1V149H53.0947V143.83H52.3347V146.79C52.3347 147.76 51.6647 148.41 50.7847 148.41C49.8747 148.41 49.3547 147.81 49.3547 146.85V143.83H48.5847V147.04C48.5847 148.27 49.3147 149.11 50.5647 149.11ZM57.1568 149.12C58.1268 149.12 58.7468 148.7 59.2668 148.12L58.7768 147.66C58.3668 148.1 57.8568 148.43 57.1968 148.43C56.1168 148.43 55.2968 147.54 55.2968 146.42V146.4C55.2968 145.29 56.0968 144.4 57.1468 144.4C57.8468 144.4 58.3068 144.75 58.7168 145.18L59.2268 144.64C58.7468 144.13 58.1368 143.72 57.1568 143.72C55.6468 143.72 54.5068 144.96 54.5068 146.42V146.44C54.5068 147.89 55.6468 149.12 57.1568 149.12ZM62.4397 149.11C63.3297 149.11 63.8597 148.66 64.2097 148.1V149H64.9697V143.83H64.2097V146.79C64.2097 147.76 63.5397 148.41 62.6597 148.41C61.7497 148.41 61.2297 147.81 61.2297 146.85V143.83H60.4597V147.04C60.4597 148.27 61.1897 149.11 62.4397 149.11ZM66.7018 149H67.4718V146.94C67.4718 145.38 68.3918 144.57 69.5218 144.57H69.5818V143.74C68.6018 143.7 67.8518 144.32 67.4718 145.18V143.83H66.7018V149ZM72.4645 149.1C73.4945 149.1 74.3045 148.53 74.3045 147.55V147.53C74.3045 146.6 73.4445 146.29 72.6445 146.05C71.9545 145.84 71.3145 145.65 71.3145 145.16V145.14C71.3145 144.71 71.7045 144.39 72.3145 144.39C72.8145 144.39 73.3645 144.58 73.8445 144.89L74.1945 144.31C73.6645 143.96 72.9645 143.74 72.3345 143.74C71.3145 143.74 70.5745 144.33 70.5745 145.22V145.24C70.5745 146.19 71.4745 146.47 72.2845 146.7C72.9645 146.89 73.5745 147.09 73.5745 147.61V147.63C73.5745 148.13 73.1245 148.45 72.5045 148.45C71.8945 148.45 71.2745 148.21 70.7145 147.79L70.3245 148.34C70.9045 148.81 71.7245 149.1 72.4645 149.1ZM77.275 149.11C78.185 149.11 78.775 148.69 79.135 148.23V149H79.895V145.84C79.895 145.18 79.715 144.68 79.355 144.32C78.985 143.95 78.415 143.75 77.685 143.75C76.925 143.75 76.375 143.93 75.805 144.19L76.035 144.82C76.515 144.6 76.995 144.45 77.605 144.45C78.575 144.45 79.135 144.93 79.135 145.85V146.01C78.675 145.88 78.215 145.79 77.555 145.79C76.245 145.79 75.345 146.37 75.345 147.48V147.5C75.345 148.56 76.305 149.11 77.275 149.11ZM77.425 148.49C76.725 148.49 76.125 148.11 76.125 147.46V147.44C76.125 146.82 76.675 146.4 77.635 146.4C78.265 146.4 78.765 146.51 79.145 146.62V147.1C79.145 147.92 78.375 148.49 77.425 148.49ZM81.596 149H82.366V141.7H81.596V149ZM84.613 146.73H88.713C88.723 146.61 88.723 146.53 88.723 146.46C88.723 144.94 87.843 143.72 86.313 143.72C84.883 143.72 83.833 144.92 83.833 146.42C83.833 148.03 84.993 149.12 86.413 149.12C87.393 149.12 88.023 148.73 88.543 148.15L88.063 147.72C87.643 148.16 87.143 148.45 86.433 148.45C85.523 148.45 84.723 147.82 84.613 146.73ZM84.613 146.11C84.723 145.11 85.403 144.37 86.293 144.37C87.313 144.37 87.853 145.17 87.943 146.11H84.613ZM91.7809 149.1C92.8109 149.1 93.6209 148.53 93.6209 147.55V147.53C93.6209 146.6 92.7609 146.29 91.9609 146.05C91.2709 145.84 90.6309 145.65 90.6309 145.16V145.14C90.6309 144.71 91.0209 144.39 91.6309 144.39C92.1309 144.39 92.6809 144.58 93.1609 144.89L93.5109 144.31C92.9809 143.96 92.2809 143.74 91.6509 143.74C90.6309 143.74 89.8909 144.33 89.8909 145.22V145.24C89.8909 146.19 90.7909 146.47 91.6009 146.7C92.2809 146.89 92.8909 147.09 92.8909 147.61V147.63C92.8909 148.13 92.4409 148.45 91.8209 148.45C91.2109 148.45 90.5909 148.21 90.0309 147.79L89.6409 148.34C90.2209 148.81 91.0409 149.1 91.7809 149.1ZM100.409 149.12C101.969 149.12 103.119 147.88 103.119 146.42V146.4C103.119 144.94 101.979 143.72 100.429 143.72C98.8695 143.72 97.7295 144.96 97.7295 146.42V146.44C97.7295 147.9 98.8595 149.12 100.409 149.12ZM100.429 148.43C99.3395 148.43 98.5195 147.53 98.5195 146.42V146.4C98.5195 145.31 99.2895 144.4 100.409 144.4C101.499 144.4 102.329 145.31 102.329 146.42V146.44C102.329 147.53 101.549 148.43 100.429 148.43ZM104.514 150.6H105.284V148.01C105.684 148.59 106.304 149.11 107.264 149.11C108.514 149.11 109.734 148.11 109.734 146.42V146.4C109.734 144.7 108.504 143.72 107.264 143.72C106.314 143.72 105.704 144.25 105.284 144.87V143.83H104.514V150.6ZM107.124 148.42C106.164 148.42 105.254 147.62 105.254 146.42V146.4C105.254 145.22 106.164 144.41 107.124 144.41C108.104 144.41 108.944 145.19 108.944 146.41V146.43C108.944 147.68 108.124 148.42 107.124 148.42ZM111.615 146.73H115.715C115.725 146.61 115.725 146.53 115.725 146.46C115.725 144.94 114.845 143.72 113.315 143.72C111.885 143.72 110.835 144.92 110.835 146.42C110.835 148.03 111.995 149.12 113.415 149.12C114.395 149.12 115.025 148.73 115.545 148.15L115.065 147.72C114.645 148.16 114.145 148.45 113.435 148.45C112.525 148.45 111.725 147.82 111.615 146.73ZM111.615 146.11C111.725 145.11 112.405 144.37 113.295 144.37C114.315 144.37 114.855 145.17 114.945 146.11H111.615ZM117.073 149H117.843V146.94C117.843 145.38 118.763 144.57 119.893 144.57H119.953V143.74C118.973 143.7 118.223 144.32 117.843 145.18V143.83H117.073V149ZM122.412 149.11C123.322 149.11 123.912 148.69 124.272 148.23V149H125.032V145.84C125.032 145.18 124.852 144.68 124.492 144.32C124.122 143.95 123.552 143.75 122.822 143.75C122.062 143.75 121.512 143.93 120.942 144.19L121.172 144.82C121.652 144.6 122.132 144.45 122.742 144.45C123.712 144.45 124.272 144.93 124.272 145.85V146.01C123.812 145.88 123.352 145.79 122.692 145.79C121.382 145.79 120.482 146.37 120.482 147.48V147.5C120.482 148.56 121.442 149.11 122.412 149.11ZM122.562 148.49C121.862 148.49 121.262 148.11 121.262 147.46V147.44C121.262 146.82 121.812 146.4 122.772 146.4C123.402 146.4 123.902 146.51 124.282 146.62V147.1C124.282 147.92 123.512 148.49 122.562 148.49ZM126.663 149H127.433V146.04C127.433 145.07 128.093 144.42 128.983 144.42C129.893 144.42 130.413 145.02 130.413 145.98V149H131.183V145.79C131.183 144.56 130.453 143.72 129.203 143.72C128.313 143.72 127.773 144.17 127.433 144.73V143.83H126.663V149ZM134.995 149.11C135.945 149.11 136.555 148.58 136.975 147.96V149H137.745V141.7H136.975V144.82C136.575 144.24 135.955 143.72 134.995 143.72C133.755 143.72 132.525 144.72 132.525 146.41V146.43C132.525 148.13 133.755 149.11 134.995 149.11ZM135.135 148.42C134.155 148.42 133.315 147.64 133.315 146.42V146.4C133.315 145.15 134.135 144.41 135.135 144.41C136.095 144.41 137.005 145.21 137.005 146.4V146.42C137.005 147.61 136.095 148.42 135.135 148.42ZM141.825 149.12C143.385 149.12 144.535 147.88 144.535 146.42V146.4C144.535 144.94 143.395 143.72 141.845 143.72C140.285 143.72 139.145 144.96 139.145 146.42V146.44C139.145 147.9 140.275 149.12 141.825 149.12ZM141.845 148.43C140.755 148.43 139.935 147.53 139.935 146.42V146.4C139.935 145.31 140.705 144.4 141.825 144.4C142.915 144.4 143.745 145.31 143.745 146.42V146.44C143.745 147.53 142.965 148.43 141.845 148.43ZM149.388 146.73H153.488C153.498 146.61 153.498 146.53 153.498 146.46C153.498 144.94 152.618 143.72 151.088 143.72C149.658 143.72 148.608 144.92 148.608 146.42C148.608 148.03 149.768 149.12 151.188 149.12C152.168 149.12 152.798 148.73 153.318 148.15L152.838 147.72C152.418 148.16 151.918 148.45 151.208 148.45C150.298 148.45 149.498 147.82 149.388 146.73ZM149.388 146.11C149.498 145.11 150.178 144.37 151.068 144.37C152.088 144.37 152.628 145.17 152.718 146.11H149.388ZM154.074 149H154.934L156.544 146.89L158.144 149H159.034L156.994 146.35L158.954 143.83H158.094L156.564 145.83L155.034 143.83H154.154L156.104 146.37L154.074 149ZM160.306 142.7H161.186V141.85H160.306V142.7ZM160.356 149H161.126V143.83H160.356V149ZM164.643 149.09C165.013 149.09 165.303 149.01 165.573 148.87V148.21C165.303 148.34 165.083 148.39 164.823 148.39C164.303 148.39 163.953 148.16 163.953 147.53V144.51H165.593V143.83H163.953V142.27H163.183V143.83H162.463V144.51H163.183V147.63C163.183 148.68 163.813 149.09 164.643 149.09ZM169.169 149.12C170.729 149.12 171.879 147.88 171.879 146.42V146.4C171.879 144.94 170.739 143.72 169.189 143.72C167.629 143.72 166.489 144.96 166.489 146.42V146.44C166.489 147.9 167.619 149.12 169.169 149.12ZM169.189 148.43C168.099 148.43 167.279 147.53 167.279 146.42V146.4C167.279 145.31 168.049 144.4 169.169 144.4C170.259 144.4 171.089 145.31 171.089 146.42V146.44C171.089 147.53 170.309 148.43 169.189 148.43ZM174.984 149.1C176.014 149.1 176.824 148.53 176.824 147.55V147.53C176.824 146.6 175.964 146.29 175.164 146.05C174.474 145.84 173.834 145.65 173.834 145.16V145.14C173.834 144.71 174.224 144.39 174.834 144.39C175.334 144.39 175.884 144.58 176.364 144.89L176.714 144.31C176.184 143.96 175.484 143.74 174.854 143.74C173.834 143.74 173.094 144.33 173.094 145.22V145.24C173.094 146.19 173.994 146.47 174.804 146.7C175.484 146.89 176.094 147.09 176.094 147.61V147.63C176.094 148.13 175.644 148.45 175.024 148.45C174.414 148.45 173.794 148.21 173.234 147.79L172.844 148.34C173.424 148.81 174.244 149.1 174.984 149.1ZM179.795 149.11C180.705 149.11 181.295 148.69 181.655 148.23V149H182.415V145.84C182.415 145.18 182.235 144.68 181.875 144.32C181.505 143.95 180.935 143.75 180.205 143.75C179.445 143.75 178.895 143.93 178.325 144.19L178.555 144.82C179.035 144.6 179.515 144.45 180.125 144.45C181.095 144.45 181.655 144.93 181.655 145.85V146.01C181.195 145.88 180.735 145.79 180.075 145.79C178.765 145.79 177.865 146.37 177.865 147.48V147.5C177.865 148.56 178.825 149.11 179.795 149.11ZM179.945 148.49C179.245 148.49 178.645 148.11 178.645 147.46V147.44C178.645 146.82 179.195 146.4 180.155 146.4C180.785 146.4 181.285 146.51 181.665 146.62V147.1C181.665 147.92 180.895 148.49 179.945 148.49ZM184.046 149H184.816V146.05C184.816 145.1 185.436 144.42 186.256 144.42C187.076 144.42 187.586 144.99 187.586 145.96V149H188.346V146.02C188.346 145 188.996 144.42 189.776 144.42C190.616 144.42 191.116 144.98 191.116 145.98V149H191.886V145.8C191.886 144.52 191.156 143.72 189.966 143.72C189.066 143.72 188.516 144.18 188.146 144.75C187.866 144.17 187.326 143.72 186.486 143.72C185.616 143.72 185.156 144.19 184.816 144.7V143.83H184.046V149ZM194.017 146.73H198.117C198.127 146.61 198.127 146.53 198.127 146.46C198.127 144.94 197.247 143.72 195.717 143.72C194.287 143.72 193.237 144.92 193.237 146.42C193.237 148.03 194.397 149.12 195.817 149.12C196.797 149.12 197.427 148.73 197.947 148.15L197.467 147.72C197.047 148.16 196.547 148.45 195.837 148.45C194.927 148.45 194.127 147.82 194.017 146.73ZM194.017 146.11C194.127 145.11 194.807 144.37 195.697 144.37C196.717 144.37 197.257 145.17 197.347 146.11H194.017ZM199.475 149H200.245V146.04C200.245 145.07 200.905 144.42 201.795 144.42C202.705 144.42 203.225 145.02 203.225 145.98V149H203.995V145.79C203.995 144.56 203.265 143.72 202.015 143.72C201.125 143.72 200.585 144.17 200.245 144.73V143.83H199.475V149ZM207.367 149.09C207.737 149.09 208.027 149.01 208.297 148.87V148.21C208.027 148.34 207.807 148.39 207.547 148.39C207.027 148.39 206.677 148.16 206.677 147.53V144.51H208.317V143.83H206.677V142.27H205.907V143.83H205.187V144.51H205.907V147.63C205.907 148.68 206.537 149.09 207.367 149.09ZM209.994 146.73H214.094C214.104 146.61 214.104 146.53 214.104 146.46C214.104 144.94 213.224 143.72 211.694 143.72C210.264 143.72 209.214 144.92 209.214 146.42C209.214 148.03 210.374 149.12 211.794 149.12C212.774 149.12 213.404 148.73 213.924 148.15L213.444 147.72C213.024 148.16 212.524 148.45 211.814 148.45C210.904 148.45 210.104 147.82 209.994 146.73ZM209.994 146.11C210.104 145.11 210.784 144.37 211.674 144.37C212.694 144.37 213.234 145.17 213.324 146.11H209.994Z" fill="black"/>
<path d="M52.9991 55.0207C53.1095 54.9092 53.2199 54.8199 53.3081 54.7084C53.3523 54.6414 53.3964 54.5745 53.4406 54.5076C53.4626 54.4852 53.4847 54.4406 53.5068 54.4183C53.5951 54.2844 53.6613 54.1506 53.7275 54.0167C53.7496 53.9498 53.7937 53.8828 53.8158 53.8159C53.8378 53.7713 53.8599 53.749 53.8599 53.7044C53.8599 53.682 53.882 53.6597 53.882 53.6374C54.1248 52.9458 54.191 52.2095 54.0806 51.4063C53.882 49.7776 53.0212 48.7066 51.4762 48.1265C50.7037 47.8365 49.8209 47.7026 48.6952 47.7026C47.989 47.7026 47.2606 47.7026 46.5322 47.7026H43.9058V60.4423H45.6494V56.3371H49.1146C49.1146 56.3371 50.5051 58.1889 51.0127 58.8805C51.41 59.416 51.8073 59.9292 52.1825 60.4646C52.646 60.4646 53.1316 60.4646 53.5951 60.4646H53.9703C53.8599 60.3308 53.7496 60.1969 53.6613 60.0407L51.2776 56.9172L50.7258 56.1809C51.0348 56.114 51.3659 56.0247 51.6969 55.8908C52.1825 55.6454 52.6239 55.3777 52.9991 55.0207ZM50.9686 54.6414C50.4609 54.8868 49.9974 55.0207 49.5781 55.043C49.1146 55.0653 48.6732 55.0653 48.2097 55.0653C47.9227 55.0653 47.6137 55.0653 47.3268 55.0653C47.0399 55.0653 46.7309 55.0653 46.444 55.0653H45.7156V49.0413H47.8786C48.3862 49.0413 48.8939 49.0413 49.4015 49.0636C50.2402 49.1082 50.9465 49.376 51.5204 49.8891C52.1384 50.4469 52.4474 51.1832 52.4253 52.0979C52.4253 53.2804 51.9176 54.1729 50.9686 54.6414Z" fill="black"/>
<path d="M40.0212 54.0613H34.68V55.1992H38.6307V58.0327C38.4983 58.1666 38.3438 58.3004 38.1672 58.412C38.079 58.4789 37.9686 58.5235 37.8803 58.5682C37.792 58.6128 37.7038 58.6351 37.5934 58.6797C37.3948 58.7467 37.1961 58.8359 36.9754 58.8805C35.9822 59.1483 34.9007 59.1929 34.5255 59.1929C34.4813 59.1929 34.4372 59.1929 34.3931 59.1929C34.1723 59.1929 33.9296 59.1929 33.6868 59.1706C32.0976 59.059 30.9058 58.1889 30.3319 56.761C29.6919 55.1769 29.6477 53.5481 30.1995 51.8971C30.7734 50.1791 31.9873 49.1528 33.753 48.9074C34.7462 48.7735 35.8056 48.8182 37.1961 49.1082C37.7258 49.2198 38.2776 49.3536 38.8073 49.4875C38.8294 49.4875 38.8515 49.4875 38.8735 49.5098L39.2487 48.3719C38.0569 47.9257 36.7547 47.6357 35.4083 47.5241C35.0111 47.4795 34.6579 47.4795 34.3048 47.4795C33.3778 47.4795 32.5611 47.6134 31.8107 47.8811C30.3319 48.4166 29.2946 49.3983 28.6987 50.7816C27.7937 52.8788 27.7717 55.0653 28.6104 57.3187C29.2063 58.9251 30.3981 59.9515 32.1197 60.42C33.3778 60.7547 34.7241 60.7547 36.4678 60.4423C37.5934 60.2192 38.7411 59.8176 40.0654 59.1483C40.0654 57.8542 40.0654 56.5378 40.0654 55.2438V54.0613H40.0212Z" fill="black"/>
<path d="M66.7275 47.6802V49.1973C66.7275 51.0715 66.7275 52.9456 66.7275 54.8198C66.7275 55.5783 66.5951 56.27 66.3523 56.8724C65.7122 58.4565 64.5424 59.1928 62.7105 59.1258C61.0772 59.0812 59.8854 58.1441 59.4439 56.6047C59.2674 55.9799 59.1791 55.3775 59.157 54.8198C59.1349 52.9456 59.1349 51.0269 59.1349 49.175V47.6802H57.3472V49.1081C57.3472 50.8707 57.3472 52.6556 57.3472 54.4182C57.3472 55.8015 57.5237 56.8278 57.899 57.7648C58.4066 59.0366 59.2453 59.8621 60.4813 60.2637C62.0484 60.7769 63.6816 60.7992 65.2708 60.286C66.5509 59.8844 67.4117 59.0366 67.9414 57.7202C68.2945 56.8055 68.4711 55.7791 68.4711 54.3735C68.4711 52.6556 68.4711 50.9153 68.4711 49.1973V47.6802H66.7275V47.6802Z" fill="black"/>
<path d="M81.3387 49.0856C80.5883 48.3271 79.6171 47.8808 78.3591 47.747C77.6307 47.68 76.8582 47.6577 76.1298 47.6577H75.9091C75.3574 47.6577 74.8056 47.6577 74.2538 47.6577H72.5322V60.3974H74.2759V56.8499H76.6596C77.0127 56.8499 77.3438 56.8499 77.6969 56.8499C78.5577 56.8276 79.3081 56.6714 80.0144 56.3814C81.118 55.9129 81.8242 55.1766 82.1995 54.1057C82.5085 53.2355 82.5747 52.2761 82.3981 51.2052C82.2215 50.3574 81.8905 49.6434 81.3387 49.0856ZM80.1027 54.418C79.5509 55.065 78.7784 55.4443 77.8293 55.5113C77.2996 55.5336 76.7699 55.5559 76.2843 55.5559H75.4677H75.0704C74.9159 55.5559 74.2538 55.5559 74.2538 55.5559V54.7973V49.0187H75.0263C75.3353 49.041 75.6664 49.0187 75.9754 49.041C76.7037 49.0633 77.4541 49.0856 78.2046 49.1972C79.7937 49.4203 80.809 50.7144 80.7648 52.41C80.7648 52.9232 80.6765 53.7264 80.1027 54.418Z" fill="black"/>
<path d="M93.8971 47.8362C93.0805 47.5684 92.2417 47.4346 91.403 47.4346C90.5422 47.4346 89.6594 47.5907 88.7765 47.8808C87.5626 48.3047 86.6356 49.0856 85.9955 50.2235C85.4438 51.2498 85.1568 52.4546 85.1348 54.0164C85.1568 55.3104 85.3113 56.2698 85.6424 57.1399C86.2825 58.7687 87.4081 59.795 89.0635 60.2858C90.3657 60.6874 91.7562 60.732 93.1467 60.4197C95.4421 59.9288 96.8547 58.5456 97.4064 56.2252C97.8037 54.5518 97.7596 52.9008 97.2519 51.2944C96.7002 49.5318 95.5966 48.394 93.8971 47.8362ZM95.4421 56.5152C94.9124 58.0101 93.7647 58.9025 92.1535 59.1256C91.8886 59.1703 91.6237 59.1703 91.3589 59.1703C90.7188 59.1703 90.1008 59.0587 89.549 58.8133C88.3793 58.3224 87.5626 57.3631 87.2315 56.0467C87.077 55.4443 86.9446 54.8865 86.9446 54.1726C86.9225 53.8379 86.9225 53.6148 86.9225 53.4586C87.0329 52.5438 87.0991 52.0753 87.5405 51.1605C88.1365 49.9334 89.1518 49.1525 90.5422 48.9517C91.5355 48.7956 92.4625 48.8848 93.2791 49.2195C94.4268 49.688 95.2214 50.6251 95.5745 51.8968C96.0159 53.5478 95.9718 55.0873 95.4421 56.5152Z" fill="black"/>
<path d="M110.296 55.7792C110.208 55.6453 110.142 55.5784 110.075 55.4891C108.111 52.8341 104.028 47.3232 104.028 47.3232C104.028 47.3232 101.379 47.3232 101.291 47.3232C101.291 51.8301 101.291 56.2924 101.291 60.7546C102.306 60.7546 103.3 60.7546 104.315 60.7546C104.315 57.988 104.315 55.2437 104.315 52.4325C104.403 52.5441 104.447 52.5887 104.491 52.6556C106.478 55.3107 110.539 60.7546 110.539 60.7546C110.539 60.7546 112.238 60.7546 112.967 60.7546C113.077 60.7546 113.187 60.7546 113.298 60.7546C113.298 56.27 113.298 51.8078 113.298 47.3456C112.283 47.3456 111.311 47.3456 110.274 47.3456C110.296 50.1345 110.296 52.9234 110.296 55.7792Z" fill="black"/>
<path d="M156.977 47.3008H152.872C152.872 47.3008 149.826 55.199 148.369 59.0365C148.148 59.5943 147.928 60.1744 147.707 60.7544C147.751 60.7768 150.952 60.7544 150.952 60.7544L151.879 58.2556H157.948C157.948 58.2556 158.632 60.1074 158.875 60.7544C159.957 60.7544 161.038 60.7544 162.142 60.7544C160.398 56.2922 156.977 47.3008 156.977 47.3008ZM152.894 55.4667C153.578 53.5925 154.24 51.7407 154.902 49.9335C155.564 51.7407 156.227 53.5925 156.933 55.4667C155.564 55.4667 154.24 55.4667 152.894 55.4667Z" fill="black"/>
<path d="M147.045 47.3232C146.935 47.3232 143.58 47.3232 143.58 47.3232C143.58 47.3232 140.644 51.7409 140.468 51.9863C140.424 51.9417 137.312 47.3232 137.312 47.3232C137.312 47.3232 137.312 47.3232 137.157 47.3232C136.142 47.3232 133.979 47.3232 133.891 47.3232C135.303 49.5321 136.738 51.7632 138.128 53.972C136.694 56.2477 133.802 60.7769 133.802 60.7769H137.223C137.223 60.7769 140.402 55.9354 140.468 55.8238C140.534 55.9354 143.778 60.7769 143.778 60.7769H147.155L142.807 53.972C142.829 53.9497 147.001 47.4125 147.045 47.3232Z" fill="black"/>
<path d="M131.816 57.274C130.58 57.8541 129.278 58.1888 127.909 58.1888C126.32 58.2111 125.15 57.4302 124.598 55.9353C124.223 54.909 124.201 53.8381 124.4 52.7672C124.532 52.0532 124.797 51.3839 125.305 50.8707C125.967 50.2014 126.806 49.9559 127.71 49.889C128.902 49.8221 130.072 50.0675 131.22 50.4022C131.441 50.4691 131.639 50.536 131.86 50.603C132.169 49.8221 132.478 49.0635 132.765 48.3049C131.97 47.881 131.132 47.5686 130.249 47.3901C128.593 47.0332 126.938 46.9885 125.305 47.5017C123.473 48.0818 122.237 49.3312 121.641 51.1607C121.045 52.9903 121.023 54.8867 121.575 56.7385C122.259 59.1035 123.892 60.4422 126.298 60.8661C127.401 61.0446 128.505 61 129.587 60.8215C130.889 60.5984 132.103 60.1299 133.25 59.4159C132.919 58.6573 132.588 57.8987 132.235 57.1178C132.081 57.1625 131.948 57.2071 131.816 57.274Z" fill="black"/>
<path d="M116.278 60.7547C117.293 60.7547 118.264 60.7547 119.28 60.7547C119.28 56.2702 119.28 51.8079 119.28 47.3457C118.264 47.3457 117.271 47.3457 116.278 47.3457C116.278 51.8303 116.278 56.2925 116.278 60.7547Z" fill="black"/>
<path d="M176.797 31.6384L176.621 32.5755C178.695 32.7986 179.093 32.9548 178.828 34.6951L177.525 42.3255L172.272 31.6831H167.66L167.461 32.6201C169.381 32.8209 170.154 32.9994 169.977 33.9811L169.094 38.5326C168.763 39.4474 168.123 39.6259 167.483 39.6259C164.879 39.6259 163.223 37.0154 163.223 32.9994C163.223 27.377 166.534 23.1156 170.286 23.1156C172.118 23.1156 173.045 23.8518 173.376 27.2208H174.171C174.502 25.1013 174.899 23.6287 174.987 22.647C174.281 22.3793 172.957 22 170.904 22C163.709 22 159.162 27.2208 159.162 32.9994C159.162 37.9302 162.12 40.786 167.108 40.786C167.682 40.786 168.211 40.7414 168.675 40.6745L167.902 44.7128L167.571 46.5423C167.417 47.0778 166.733 47.3009 165.916 47.4348L165.695 48.3719H172.868L173.045 47.4348C170.926 47.2117 170.551 47.0555 170.86 45.226L170.926 44.8913L170.772 45.6945L171.213 43.218L172.427 36.48C175.186 41.9462 177.923 47.8141 178.188 48.3495L179.313 48.3272L181.542 36.0114L181.984 33.7803C182.315 32.8879 182.845 32.754 183.75 32.5978L183.97 31.6608H176.797V31.6384Z" fill="#E42313"/>
</svg>
