<svg width="280" height="125" viewBox="0 0 280 125" fill="none" xmlns="http://www.w3.org/2000/svg">
<path d="M39.6917 122.85C37.7084 122.85 35.9084 122.425 34.2917 121.575C32.6917 120.742 31.4167 119.517 30.4667 117.9C29.5334 116.283 29.0667 114.358 29.0667 112.125C29.0667 109.992 29.6 108.133 30.6667 106.55C31.7334 104.95 33.0917 103.733 34.7417 102.9C36.3917 102.067 38.0667 101.65 39.7667 101.65C41.7667 101.65 43.5167 102.033 45.0167 102.8C46.5334 103.55 47.7 104.608 48.5167 105.975C49.3334 107.325 49.7417 108.875 49.7417 110.625C49.7417 111.942 49.525 113.117 49.0917 114.15C48.675 115.183 48.075 115.992 47.2917 116.575C46.525 117.158 45.6334 117.45 44.6167 117.45C44.0167 117.45 43.4834 117.3 43.0167 117C42.5667 116.7 42.2584 116.317 42.0917 115.85C42.025 115.7 41.9334 115.625 41.8167 115.625C41.7167 115.625 41.6167 115.692 41.5167 115.825C41.1334 116.358 40.7 116.767 40.2167 117.05C39.7334 117.317 39.0667 117.45 38.2167 117.45C37.4834 117.45 36.7917 117.25 36.1417 116.85C35.4917 116.45 34.9667 115.858 34.5667 115.075C34.1667 114.292 33.9667 113.35 33.9667 112.25C33.9667 111.133 34.1834 110.167 34.6167 109.35C35.05 108.533 35.6417 107.908 36.3917 107.475C37.1417 107.042 37.975 106.825 38.8917 106.825C39.9084 106.825 40.7917 107.183 41.5417 107.9C41.6917 108.05 41.85 108.125 42.0167 108.125C42.15 108.125 42.275 108.067 42.3917 107.95L42.8917 107.475C43.125 107.242 43.4 107.125 43.7167 107.125C44 107.125 44.2417 107.225 44.4417 107.425C44.6417 107.608 44.7334 107.867 44.7167 108.2L44.4167 113.65C44.3834 114.433 44.575 114.825 44.9917 114.825C45.275 114.825 45.55 114.65 45.8167 114.3C46.1 113.933 46.325 113.45 46.4917 112.85C46.675 112.25 46.7667 111.6 46.7667 110.9C46.7667 109.633 46.4917 108.517 45.9417 107.55C45.3917 106.583 44.6 105.842 43.5667 105.325C42.55 104.792 41.3584 104.525 39.9917 104.525C38.6417 104.525 37.3917 104.833 36.2417 105.45C35.0917 106.05 34.1667 106.925 33.4667 108.075C32.7834 109.225 32.4417 110.575 32.4417 112.125C32.4417 113.708 32.7667 115.075 33.4167 116.225C34.0834 117.358 34.975 118.225 36.0917 118.825C37.225 119.425 38.4584 119.725 39.7917 119.725C40.4084 119.725 40.9584 119.667 41.4417 119.55C41.925 119.417 42.4834 119.208 43.1167 118.925C43.25 118.875 43.375 118.85 43.4917 118.85C43.8417 118.85 44.15 119.033 44.4167 119.4C44.6834 119.75 44.8167 120.133 44.8167 120.55C44.8167 121.033 44.6167 121.408 44.2167 121.675C43.6834 122.042 43.0084 122.325 42.1917 122.525C41.3917 122.742 40.5584 122.85 39.6917 122.85ZM39.4167 114.825C39.8667 114.825 40.25 114.6 40.5667 114.15C40.8834 113.683 41.0417 113.1 41.0417 112.4C41.0417 111.55 40.8917 110.85 40.5917 110.3C40.3084 109.75 39.8917 109.475 39.3417 109.475C38.8417 109.475 38.425 109.692 38.0917 110.125C37.775 110.558 37.6167 111.15 37.6167 111.9C37.6167 112.7 37.7667 113.392 38.0667 113.975C38.3834 114.542 38.8334 114.825 39.4167 114.825ZM59.737 120.375C58.2537 120.375 56.8537 120.042 55.537 119.375C54.2203 118.692 53.1537 117.675 52.337 116.325C51.537 114.975 51.137 113.333 51.137 111.4C51.137 109.517 51.537 107.875 52.337 106.475C53.1537 105.075 54.2453 104.008 55.612 103.275C56.9953 102.525 58.512 102.15 60.162 102.15C60.6287 102.15 61.0287 102.175 61.362 102.225C61.6953 102.275 62.037 102.358 62.387 102.475C62.9703 102.675 63.3953 102.775 63.662 102.775C63.8953 102.775 64.137 102.7 64.387 102.55C64.637 102.4 64.887 102.325 65.137 102.325C65.4537 102.325 65.7287 102.433 65.962 102.65C66.1953 102.85 66.337 103.125 66.387 103.475L66.762 106.45C66.8287 106.95 66.7203 107.333 66.437 107.6C66.1537 107.867 65.7953 108 65.362 108C65.0787 108 64.8037 107.942 64.537 107.825C64.2703 107.692 64.062 107.508 63.912 107.275C62.962 105.858 61.737 105.15 60.237 105.15C59.3703 105.15 58.5703 105.383 57.837 105.85C57.1037 106.3 56.5203 106.942 56.087 107.775C55.6537 108.592 55.437 109.517 55.437 110.55C55.437 111.85 55.662 112.992 56.112 113.975C56.5787 114.958 57.1953 115.725 57.962 116.275C58.7453 116.808 59.5953 117.075 60.512 117.075C62.0787 117.075 62.862 116.433 62.862 115.15V114.25C62.862 113.867 62.6703 113.675 62.287 113.675H61.987C61.487 113.675 61.0953 113.542 60.812 113.275C60.5453 113.008 60.412 112.65 60.412 112.2C60.412 111.75 60.5453 111.392 60.812 111.125C61.0953 110.858 61.487 110.725 61.987 110.725H65.687C66.087 110.725 66.4037 110.825 66.637 111.025C66.8703 111.208 66.987 111.467 66.987 111.8C66.987 111.95 66.962 112.117 66.912 112.3C66.7787 112.75 66.712 113.425 66.712 114.325C66.712 114.875 66.7703 115.533 66.887 116.3C66.9037 116.417 66.912 116.567 66.912 116.75C66.912 117.117 66.8453 117.425 66.712 117.675C66.5787 117.908 66.3787 118.125 66.112 118.325C65.2453 119.025 64.3037 119.542 63.287 119.875C62.2703 120.208 61.087 120.375 59.737 120.375ZM69.4704 120C69.1037 120 68.8204 119.917 68.6204 119.75C68.4371 119.583 68.3454 119.358 68.3454 119.075C68.3454 118.925 68.3704 118.767 68.4204 118.6C68.5371 118.2 68.6204 117.833 68.6704 117.5C68.7204 117.167 68.7454 116.75 68.7454 116.25V110.325C68.7454 109.792 68.6371 109.275 68.4204 108.775C68.3704 108.642 68.3454 108.508 68.3454 108.375C68.3454 108.125 68.4204 107.9 68.5704 107.7C68.7371 107.5 68.9454 107.375 69.1954 107.325L71.1454 106.95C71.2787 106.917 71.4537 106.9 71.6704 106.9C72.3871 106.9 72.7454 107.275 72.7454 108.025V108.35C72.7454 108.433 72.7621 108.508 72.7954 108.575C72.8287 108.642 72.8787 108.675 72.9454 108.675C73.0287 108.675 73.1287 108.608 73.2454 108.475C73.6954 107.925 74.1121 107.525 74.4954 107.275C74.8787 107.025 75.3371 106.9 75.8704 106.9C76.5371 106.9 77.0454 107.15 77.3954 107.65C77.7621 108.15 77.9454 108.75 77.9454 109.45C77.9454 110.15 77.7621 110.767 77.3954 111.3C77.0454 111.817 76.5704 112.075 75.9704 112.075C75.6204 112.075 75.3371 111.992 75.1204 111.825C74.9204 111.658 74.7204 111.417 74.5204 111.1C74.3871 110.9 74.2621 110.75 74.1454 110.65C74.0454 110.55 73.9204 110.5 73.7704 110.5C73.4537 110.5 73.2037 110.708 73.0204 111.125C72.8371 111.542 72.7454 112.092 72.7454 112.775V116.25C72.7454 116.75 72.7704 117.167 72.8204 117.5C72.8704 117.833 72.9537 118.2 73.0704 118.6C73.1204 118.767 73.1454 118.925 73.1454 119.075C73.1454 119.358 73.0454 119.583 72.8454 119.75C72.6621 119.917 72.3871 120 72.0204 120H69.4704ZM83.4173 120.35C82.1673 120.35 81.1923 119.933 80.4923 119.1C79.7923 118.267 79.4423 117.108 79.4423 115.625V111C79.4423 110.483 79.409 110.058 79.3423 109.725C79.2756 109.375 79.1673 109.017 79.0173 108.65C78.934 108.433 78.8923 108.25 78.8923 108.1C78.8923 107.833 78.9923 107.625 79.1923 107.475C79.3923 107.325 79.659 107.25 79.9923 107.25H82.2173C82.6506 107.25 82.959 107.367 83.1423 107.6C83.3423 107.817 83.4423 108.167 83.4423 108.65V115C83.4423 115.683 83.6173 116.233 83.9673 116.65C84.334 117.067 84.809 117.275 85.3923 117.275C85.9756 117.275 86.4423 117.067 86.7923 116.65C87.159 116.233 87.3423 115.683 87.3423 115V111C87.3423 110.5 87.3006 110.083 87.2173 109.75C87.1506 109.4 87.0256 109.033 86.8423 108.65C86.759 108.45 86.7173 108.283 86.7173 108.15C86.7173 107.883 86.8256 107.667 87.0423 107.5C87.259 107.333 87.5423 107.25 87.8923 107.25H90.1173C90.5506 107.25 90.859 107.367 91.0423 107.6C91.2423 107.817 91.3423 108.167 91.3423 108.65V116.925C91.3423 117.458 91.4506 117.975 91.6673 118.475C91.7173 118.592 91.7423 118.725 91.7423 118.875C91.7423 119.125 91.659 119.35 91.4923 119.55C91.3423 119.75 91.1423 119.875 90.8923 119.925L88.9423 120.3C88.809 120.333 88.634 120.35 88.4173 120.35C87.7006 120.35 87.3423 119.975 87.3423 119.225V118.9C87.3423 118.817 87.3256 118.742 87.2923 118.675C87.259 118.608 87.209 118.575 87.1423 118.575C87.0256 118.575 86.9256 118.642 86.8423 118.775C86.509 119.242 86.0256 119.625 85.3923 119.925C84.759 120.208 84.1006 120.35 83.4173 120.35ZM93.9827 125C93.616 125 93.3327 124.917 93.1327 124.75C92.9494 124.583 92.8577 124.358 92.8577 124.075C92.8577 123.942 92.8827 123.783 92.9327 123.6C93.0494 123.2 93.1327 122.833 93.1827 122.5C93.2327 122.167 93.2577 121.75 93.2577 121.25V110.325C93.2577 109.792 93.1494 109.275 92.9327 108.775C92.866 108.642 92.8327 108.483 92.8327 108.3C92.8327 108.067 92.9077 107.858 93.0577 107.675C93.2077 107.492 93.4244 107.375 93.7077 107.325L95.6577 106.95C95.791 106.917 95.966 106.9 96.1827 106.9C96.8994 106.9 97.2577 107.275 97.2577 108.025V108.2C97.2577 108.317 97.2744 108.408 97.3077 108.475C97.3577 108.525 97.416 108.55 97.4827 108.55C97.5827 108.55 97.6827 108.492 97.7827 108.375C98.166 107.925 98.6327 107.567 99.1827 107.3C99.7327 107.033 100.316 106.9 100.933 106.9C101.949 106.9 102.833 107.175 103.583 107.725C104.349 108.258 104.941 109.033 105.358 110.05C105.774 111.05 105.983 112.233 105.983 113.6C105.983 115.033 105.733 116.258 105.233 117.275C104.749 118.292 104.083 119.058 103.233 119.575C102.399 120.092 101.449 120.35 100.383 120.35C99.266 120.35 98.3827 119.983 97.7327 119.25C97.6494 119.15 97.5744 119.1 97.5077 119.1C97.441 119.1 97.3827 119.133 97.3327 119.2C97.2827 119.267 97.2577 119.342 97.2577 119.425V121.25C97.2577 121.75 97.2827 122.167 97.3327 122.5C97.3827 122.833 97.466 123.2 97.5827 123.6C97.6327 123.783 97.6577 123.942 97.6577 124.075C97.6577 124.358 97.5577 124.583 97.3577 124.75C97.1744 124.917 96.8994 125 96.5327 125H93.9827ZM99.8077 117.45C100.408 117.45 100.899 117.133 101.283 116.5C101.666 115.867 101.858 114.992 101.858 113.875C101.858 112.692 101.641 111.717 101.208 110.95C100.791 110.167 100.216 109.775 99.4827 109.775C98.866 109.775 98.3577 110.083 97.9577 110.7C97.5577 111.3 97.3577 112.125 97.3577 113.175C97.3577 114.442 97.5744 115.475 98.0077 116.275C98.441 117.058 99.041 117.45 99.8077 117.45ZM113.614 120.35C112.414 120.35 111.323 120.075 110.339 119.525C109.373 118.975 108.606 118.192 108.039 117.175C107.473 116.142 107.189 114.95 107.189 113.6C107.189 112.25 107.473 111.067 108.039 110.05C108.623 109.033 109.398 108.258 110.364 107.725C111.348 107.175 112.431 106.9 113.614 106.9C114.814 106.9 115.898 107.175 116.864 107.725C117.848 108.258 118.623 109.033 119.189 110.05C119.756 111.067 120.039 112.25 120.039 113.6C120.039 114.95 119.748 116.142 119.164 117.175C118.598 118.192 117.823 118.975 116.839 119.525C115.873 120.075 114.798 120.35 113.614 120.35ZM113.814 117.325C114.481 117.325 115.014 117.067 115.414 116.55C115.814 116.017 116.014 115.267 116.014 114.3C116.014 113.017 115.781 111.967 115.314 111.15C114.848 110.317 114.206 109.9 113.389 109.9C112.739 109.9 112.214 110.158 111.814 110.675C111.414 111.192 111.214 111.933 111.214 112.9C111.214 114.183 111.439 115.242 111.889 116.075C112.356 116.908 112.998 117.325 113.814 117.325ZM134.102 120.175C133.602 120.175 133.169 120.05 132.802 119.8C132.436 119.55 132.069 119.167 131.702 118.65L125.977 110.575C125.894 110.442 125.786 110.375 125.652 110.375C125.552 110.375 125.469 110.417 125.402 110.5C125.336 110.567 125.302 110.658 125.302 110.775V115.125C125.302 115.708 125.352 116.208 125.452 116.625C125.569 117.025 125.744 117.433 125.977 117.85C126.144 118.15 126.227 118.425 126.227 118.675C126.227 119.058 126.094 119.375 125.827 119.625C125.561 119.875 125.194 120 124.727 120H122.677C122.211 120 121.844 119.875 121.577 119.625C121.311 119.375 121.177 119.058 121.177 118.675C121.177 118.392 121.261 118.117 121.427 117.85C121.661 117.483 121.827 117.092 121.927 116.675C122.044 116.242 122.102 115.725 122.102 115.125V107.375C122.102 106.775 122.044 106.267 121.927 105.85C121.827 105.417 121.661 105.017 121.427 104.65C121.261 104.383 121.177 104.108 121.177 103.825C121.177 103.442 121.311 103.125 121.577 102.875C121.844 102.625 122.211 102.5 122.677 102.5H124.677C125.294 102.5 125.744 102.6 126.027 102.8C126.327 103 126.686 103.4 127.102 104L132.127 111.25C132.227 111.4 132.344 111.475 132.477 111.475C132.561 111.475 132.636 111.433 132.702 111.35C132.769 111.267 132.802 111.167 132.802 111.05V107.375C132.802 106.775 132.744 106.267 132.627 105.85C132.527 105.417 132.361 105.017 132.127 104.65C131.961 104.383 131.877 104.108 131.877 103.825C131.877 103.442 132.011 103.125 132.277 102.875C132.544 102.625 132.911 102.5 133.377 102.5H135.427C135.894 102.5 136.261 102.625 136.527 102.875C136.794 103.125 136.927 103.442 136.927 103.825C136.927 104.108 136.844 104.383 136.677 104.65C136.444 105.017 136.269 105.417 136.152 105.85C136.052 106.267 136.002 106.775 136.002 107.375V118.325C136.002 118.842 135.819 119.283 135.452 119.65C135.086 120 134.636 120.175 134.102 120.175ZM140.423 105.625C139.556 105.625 138.89 105.433 138.423 105.05C137.956 104.65 137.723 104.142 137.723 103.525C137.723 102.925 137.956 102.425 138.423 102.025C138.89 101.625 139.556 101.425 140.423 101.425C141.29 101.425 141.956 101.625 142.423 102.025C142.89 102.425 143.123 102.925 143.123 103.525C143.123 104.142 142.89 104.65 142.423 105.05C141.956 105.433 141.29 105.625 140.423 105.625ZM139.148 120C138.781 120 138.498 119.917 138.298 119.75C138.115 119.583 138.023 119.358 138.023 119.075C138.023 118.925 138.048 118.767 138.098 118.6C138.215 118.2 138.298 117.833 138.348 117.5C138.398 117.167 138.423 116.75 138.423 116.25V110.325C138.423 109.792 138.315 109.275 138.098 108.775C138.048 108.642 138.023 108.508 138.023 108.375C138.023 108.125 138.098 107.9 138.248 107.7C138.415 107.5 138.623 107.375 138.873 107.325L140.823 106.95C140.956 106.917 141.131 106.9 141.348 106.9C142.065 106.9 142.423 107.275 142.423 108.025V116.25C142.423 116.767 142.448 117.2 142.498 117.55C142.548 117.883 142.623 118.233 142.723 118.6C142.773 118.767 142.798 118.933 142.798 119.1C142.798 119.7 142.431 120 141.698 120H139.148ZM150.056 120.35C148.923 120.35 147.89 120.083 146.956 119.55C146.04 119 145.315 118.225 144.781 117.225C144.248 116.225 143.981 115.075 143.981 113.775C143.981 112.358 144.265 111.133 144.831 110.1C145.398 109.05 146.165 108.258 147.131 107.725C148.115 107.175 149.198 106.9 150.381 106.9C151.298 106.9 152.098 107.058 152.781 107.375C153.481 107.692 154.015 108.117 154.381 108.65C154.765 109.167 154.956 109.725 154.956 110.325C154.956 110.975 154.765 111.475 154.381 111.825C153.998 112.158 153.515 112.325 152.931 112.325C152.415 112.325 151.998 112.158 151.681 111.825C151.365 111.475 151.14 111.067 151.006 110.6C150.79 109.867 150.398 109.5 149.831 109.5C149.265 109.5 148.798 109.783 148.431 110.35C148.065 110.917 147.881 111.642 147.881 112.525C147.881 113.758 148.215 114.742 148.881 115.475C149.548 116.208 150.406 116.575 151.456 116.575C152.406 116.575 153.248 116.267 153.981 115.65C154.165 115.483 154.381 115.4 154.631 115.4C154.898 115.4 155.123 115.5 155.306 115.7C155.49 115.883 155.581 116.133 155.581 116.45C155.581 116.767 155.473 117.117 155.256 117.5C154.723 118.4 154.015 119.1 153.131 119.6C152.265 120.1 151.24 120.35 150.056 120.35ZM156.445 120C156.161 120 155.945 119.925 155.795 119.775C155.645 119.608 155.57 119.408 155.57 119.175C155.57 118.858 155.695 118.6 155.945 118.4C156.245 118.167 156.503 117.942 156.72 117.725C156.936 117.492 157.178 117.192 157.445 116.825L159.495 113.875C159.561 113.792 159.595 113.692 159.595 113.575C159.595 113.425 159.536 113.283 159.42 113.15L158.145 111.525C157.778 111.058 157.328 110.558 156.795 110.025C156.461 109.692 156.195 109.4 155.995 109.15C155.745 108.817 155.62 108.5 155.62 108.2C155.62 107.917 155.728 107.692 155.945 107.525C156.178 107.342 156.495 107.25 156.895 107.25H160.645C161.028 107.25 161.32 107.333 161.52 107.5C161.736 107.667 161.845 107.875 161.845 108.125C161.845 108.342 161.786 108.542 161.67 108.725C161.603 108.842 161.57 108.992 161.57 109.175C161.57 109.592 161.786 110.075 162.22 110.625L162.62 111.15C162.686 111.25 162.77 111.3 162.87 111.3C162.986 111.3 163.103 111.217 163.22 111.05L163.67 110.425C163.953 110.025 164.095 109.633 164.095 109.25C164.095 109.05 164.061 108.858 163.995 108.675C163.928 108.492 163.895 108.308 163.895 108.125C163.895 107.842 163.978 107.625 164.145 107.475C164.328 107.325 164.586 107.25 164.92 107.25H167.87C168.153 107.25 168.37 107.333 168.52 107.5C168.67 107.65 168.745 107.842 168.745 108.075C168.745 108.392 168.62 108.65 168.37 108.85C168.153 109.033 167.936 109.25 167.72 109.5C167.503 109.75 167.253 110.058 166.97 110.425L164.87 113.2C164.786 113.317 164.745 113.425 164.745 113.525C164.745 113.608 164.786 113.708 164.87 113.825L166.37 115.725C167.086 116.642 167.795 117.433 168.495 118.1C168.811 118.4 168.97 118.717 168.97 119.05C168.97 119.317 168.861 119.542 168.645 119.725C168.445 119.908 168.178 120 167.845 120H163.795C163.445 120 163.178 119.917 162.995 119.75C162.811 119.567 162.72 119.333 162.72 119.05C162.72 118.883 162.753 118.708 162.82 118.525C162.87 118.392 162.895 118.258 162.895 118.125C162.895 117.875 162.836 117.608 162.72 117.325C162.603 117.025 162.445 116.758 162.245 116.525L161.845 116.025C161.778 115.925 161.678 115.875 161.545 115.875C161.411 115.875 161.303 115.942 161.22 116.075L160.795 116.75C160.528 117.167 160.395 117.575 160.395 117.975C160.395 118.142 160.428 118.342 160.495 118.575C160.561 118.758 160.595 118.942 160.595 119.125C160.595 119.408 160.503 119.625 160.32 119.775C160.153 119.925 159.903 120 159.57 120H156.445ZM173.761 120.35C172.528 120.35 171.545 119.992 170.811 119.275C170.078 118.558 169.711 117.65 169.711 116.55C169.711 115.317 170.136 114.35 170.986 113.65C171.836 112.95 173.003 112.6 174.486 112.6C175.02 112.6 175.603 112.65 176.236 112.75H176.336C176.57 112.75 176.686 112.6 176.686 112.3V111.25C176.686 110.567 176.57 110.1 176.336 109.85C176.12 109.583 175.778 109.45 175.311 109.45C175.011 109.45 174.736 109.575 174.486 109.825C174.253 110.058 174.07 110.367 173.936 110.75C173.77 111.267 173.536 111.65 173.236 111.9C172.936 112.133 172.52 112.25 171.986 112.25C171.386 112.25 170.911 112.058 170.561 111.675C170.211 111.292 170.036 110.8 170.036 110.2C170.036 109.583 170.261 109.025 170.711 108.525C171.161 108.025 171.778 107.633 172.561 107.35C173.361 107.05 174.261 106.9 175.261 106.9C177.078 106.9 178.436 107.308 179.336 108.125C180.236 108.925 180.686 110.05 180.686 111.5V114.85C180.686 115.517 180.745 116.067 180.861 116.5C180.978 116.933 181.195 117.383 181.511 117.85C181.661 118.05 181.736 118.25 181.736 118.45C181.736 118.65 181.67 118.833 181.536 119C181.403 119.15 181.22 119.267 180.986 119.35L179.536 119.95C179.303 120.05 179.078 120.133 178.861 120.2C178.645 120.267 178.453 120.3 178.286 120.3C177.936 120.3 177.62 119.9 177.336 119.1C177.27 118.9 177.17 118.8 177.036 118.8C176.953 118.8 176.845 118.867 176.711 119C175.961 119.9 174.978 120.35 173.761 120.35ZM174.986 117.45C175.47 117.45 175.87 117.275 176.186 116.925C176.52 116.558 176.686 116.117 176.686 115.6C176.686 115.35 176.553 115.142 176.286 114.975C176.036 114.808 175.736 114.725 175.386 114.725C174.853 114.725 174.436 114.858 174.136 115.125C173.853 115.375 173.711 115.725 173.711 116.175C173.711 116.525 173.82 116.825 174.036 117.075C174.27 117.325 174.586 117.45 174.986 117.45ZM191.303 120.35C189.603 120.35 188.103 119.95 186.803 119.15C185.519 118.35 184.528 117.258 183.828 115.875C183.128 114.492 182.778 112.95 182.778 111.25C182.778 109.533 183.111 107.983 183.778 106.6C184.461 105.217 185.444 104.133 186.728 103.35C188.011 102.55 189.536 102.15 191.303 102.15C193.003 102.15 194.494 102.55 195.778 103.35C197.078 104.15 198.078 105.242 198.778 106.625C199.478 108.008 199.828 109.55 199.828 111.25C199.828 112.967 199.486 114.517 198.803 115.9C198.136 117.283 197.161 118.375 195.878 119.175C194.594 119.958 193.069 120.35 191.303 120.35ZM191.453 117.35C192.803 117.35 193.811 116.85 194.478 115.85C195.161 114.833 195.503 113.492 195.503 111.825C195.503 110.592 195.328 109.475 194.978 108.475C194.628 107.458 194.119 106.65 193.453 106.05C192.786 105.45 192.019 105.15 191.153 105.15C189.803 105.15 188.786 105.65 188.103 106.65C187.436 107.65 187.103 108.992 187.103 110.675C187.103 111.908 187.278 113.033 187.628 114.05C187.978 115.05 188.486 115.85 189.153 116.45C189.819 117.05 190.586 117.35 191.453 117.35ZM203.31 120C202.943 120 202.66 119.917 202.46 119.75C202.276 119.583 202.185 119.358 202.185 119.075C202.185 118.925 202.21 118.767 202.26 118.6C202.376 118.2 202.46 117.833 202.51 117.5C202.56 117.167 202.585 116.75 202.585 116.25V110.375C202.585 110.042 202.418 109.875 202.085 109.875H201.26C200.993 109.875 200.776 109.8 200.61 109.65C200.46 109.483 200.385 109.267 200.385 109V108.125C200.385 107.842 200.46 107.625 200.61 107.475C200.776 107.325 200.993 107.25 201.26 107.25H201.435C201.735 107.25 201.885 107.117 201.885 106.85C201.885 106.8 201.868 106.708 201.835 106.575C201.668 105.875 201.585 105.242 201.585 104.675C201.585 103.475 202.135 102.492 203.235 101.725C204.351 100.942 206.001 100.55 208.185 100.55C209.368 100.55 210.376 100.692 211.21 100.975C212.043 101.242 212.668 101.6 213.085 102.05C213.501 102.5 213.71 102.992 213.71 103.525C213.71 104.125 213.476 104.625 213.01 105.025C212.543 105.425 211.993 105.625 211.36 105.625C210.726 105.625 210.226 105.542 209.86 105.375C209.493 105.192 209.143 104.892 208.81 104.475C208.426 103.992 208.076 103.633 207.76 103.4C207.46 103.167 207.093 103.05 206.66 103.05C206.093 103.05 205.643 103.225 205.31 103.575C204.976 103.925 204.81 104.367 204.81 104.9C204.81 105.55 205.085 106.108 205.635 106.575C206.185 107.025 207.001 107.25 208.085 107.25H211.735C212.318 107.25 212.726 107.325 212.96 107.475C213.21 107.625 213.335 107.908 213.335 108.325V116.25C213.335 116.767 213.36 117.2 213.41 117.55C213.46 117.883 213.535 118.233 213.635 118.6C213.685 118.767 213.71 118.933 213.71 119.1C213.71 119.7 213.343 120 212.61 120H210.06C209.693 120 209.41 119.917 209.21 119.75C209.026 119.583 208.935 119.358 208.935 119.075C208.935 118.925 208.96 118.767 209.01 118.6C209.126 118.2 209.21 117.833 209.26 117.5C209.31 117.167 209.335 116.75 209.335 116.25V110.375C209.335 110.042 209.168 109.875 208.835 109.875H207.085C206.751 109.875 206.585 110.042 206.585 110.375V115.75C206.585 116.367 206.618 116.883 206.685 117.3C206.768 117.717 206.885 118.15 207.035 118.6C207.101 118.867 207.135 119.042 207.135 119.125C207.135 119.392 207.035 119.608 206.835 119.775C206.651 119.925 206.393 120 206.06 120H203.31ZM220.93 120.35C219.797 120.35 218.764 120.083 217.83 119.55C216.914 119 216.189 118.225 215.655 117.225C215.122 116.225 214.855 115.075 214.855 113.775C214.855 112.358 215.139 111.133 215.705 110.1C216.272 109.05 217.039 108.258 218.005 107.725C218.989 107.175 220.072 106.9 221.255 106.9C222.172 106.9 222.972 107.058 223.655 107.375C224.355 107.692 224.889 108.117 225.255 108.65C225.639 109.167 225.83 109.725 225.83 110.325C225.83 110.975 225.639 111.475 225.255 111.825C224.872 112.158 224.389 112.325 223.805 112.325C223.289 112.325 222.872 112.158 222.555 111.825C222.239 111.475 222.014 111.067 221.88 110.6C221.664 109.867 221.272 109.5 220.705 109.5C220.139 109.5 219.672 109.783 219.305 110.35C218.939 110.917 218.755 111.642 218.755 112.525C218.755 113.758 219.089 114.742 219.755 115.475C220.422 116.208 221.28 116.575 222.33 116.575C223.28 116.575 224.122 116.267 224.855 115.65C225.039 115.483 225.255 115.4 225.505 115.4C225.772 115.4 225.997 115.5 226.18 115.7C226.364 115.883 226.455 116.133 226.455 116.45C226.455 116.767 226.347 117.117 226.13 117.5C225.597 118.4 224.889 119.1 224.005 119.6C223.139 120.1 222.114 120.35 220.93 120.35ZM229.901 105.625C229.034 105.625 228.367 105.433 227.901 105.05C227.434 104.65 227.201 104.142 227.201 103.525C227.201 102.925 227.434 102.425 227.901 102.025C228.367 101.625 229.034 101.425 229.901 101.425C230.767 101.425 231.434 101.625 231.901 102.025C232.367 102.425 232.601 102.925 232.601 103.525C232.601 104.142 232.367 104.65 231.901 105.05C231.434 105.433 230.767 105.625 229.901 105.625ZM228.626 120C228.259 120 227.976 119.917 227.776 119.75C227.592 119.583 227.501 119.358 227.501 119.075C227.501 118.925 227.526 118.767 227.576 118.6C227.692 118.2 227.776 117.833 227.826 117.5C227.876 117.167 227.901 116.75 227.901 116.25V110.325C227.901 109.792 227.792 109.275 227.576 108.775C227.526 108.642 227.501 108.508 227.501 108.375C227.501 108.125 227.576 107.9 227.726 107.7C227.892 107.5 228.101 107.375 228.351 107.325L230.301 106.95C230.434 106.917 230.609 106.9 230.826 106.9C231.542 106.9 231.901 107.275 231.901 108.025V116.25C231.901 116.767 231.926 117.2 231.976 117.55C232.026 117.883 232.101 118.233 232.201 118.6C232.251 118.767 232.276 118.933 232.276 119.1C232.276 119.7 231.909 120 231.176 120H228.626ZM237.409 120.35C236.176 120.35 235.192 119.992 234.459 119.275C233.726 118.558 233.359 117.65 233.359 116.55C233.359 115.317 233.784 114.35 234.634 113.65C235.484 112.95 236.651 112.6 238.134 112.6C238.667 112.6 239.251 112.65 239.884 112.75H239.984C240.217 112.75 240.334 112.6 240.334 112.3V111.25C240.334 110.567 240.217 110.1 239.984 109.85C239.767 109.583 239.426 109.45 238.959 109.45C238.659 109.45 238.384 109.575 238.134 109.825C237.901 110.058 237.717 110.367 237.584 110.75C237.417 111.267 237.184 111.65 236.884 111.9C236.584 112.133 236.167 112.25 235.634 112.25C235.034 112.25 234.559 112.058 234.209 111.675C233.859 111.292 233.684 110.8 233.684 110.2C233.684 109.583 233.909 109.025 234.359 108.525C234.809 108.025 235.426 107.633 236.209 107.35C237.009 107.05 237.909 106.9 238.909 106.9C240.726 106.9 242.084 107.308 242.984 108.125C243.884 108.925 244.334 110.05 244.334 111.5V114.85C244.334 115.517 244.392 116.067 244.509 116.5C244.626 116.933 244.842 117.383 245.159 117.85C245.309 118.05 245.384 118.25 245.384 118.45C245.384 118.65 245.317 118.833 245.184 119C245.051 119.15 244.867 119.267 244.634 119.35L243.184 119.95C242.951 120.05 242.726 120.133 242.509 120.2C242.292 120.267 242.101 120.3 241.934 120.3C241.584 120.3 241.267 119.9 240.984 119.1C240.917 118.9 240.817 118.8 240.684 118.8C240.601 118.8 240.492 118.867 240.359 119C239.609 119.9 238.626 120.35 237.409 120.35ZM238.634 117.45C239.117 117.45 239.517 117.275 239.834 116.925C240.167 116.558 240.334 116.117 240.334 115.6C240.334 115.35 240.201 115.142 239.934 114.975C239.684 114.808 239.384 114.725 239.034 114.725C238.501 114.725 238.084 114.858 237.784 115.125C237.501 115.375 237.359 115.725 237.359 116.175C237.359 116.525 237.467 116.825 237.684 117.075C237.917 117.325 238.234 117.45 238.634 117.45ZM247.425 120C247.058 120 246.775 119.917 246.575 119.75C246.392 119.583 246.3 119.358 246.3 119.075C246.3 118.925 246.325 118.767 246.375 118.6C246.492 118.2 246.575 117.833 246.625 117.5C246.675 117.167 246.7 116.75 246.7 116.25V105.275C246.7 104.742 246.592 104.225 246.375 103.725C246.308 103.592 246.275 103.433 246.275 103.25C246.275 103.017 246.35 102.808 246.5 102.625C246.65 102.442 246.867 102.325 247.15 102.275L249.1 101.9C249.233 101.867 249.408 101.85 249.625 101.85C250.342 101.85 250.7 102.225 250.7 102.975V116.25C250.7 116.767 250.725 117.2 250.775 117.55C250.825 117.883 250.9 118.233 251 118.6C251.05 118.767 251.075 118.933 251.075 119.1C251.075 119.7 250.708 120 249.975 120H247.425Z" fill="#003227"/>
<path d="M137.041 1.00233C144.137 1.00233 151.232 0.992138 158.328 1.00233C168.476 1.01763 175.972 8.48954 175.987 18.6305C176.005 32.8606 176.003 47.0931 175.987 61.3232C175.975 71.4463 168.45 78.9769 158.346 78.9871C144.154 78.9998 129.963 79.0023 115.774 78.9871C105.46 78.9794 98.0205 71.5304 98.0103 61.2135C97.9975 47.0676 98.0001 32.9217 98.0077 18.7758C98.0128 8.4411 105.435 1.01763 115.756 1.00743C122.852 0.999785 129.948 1.00743 137.043 1.00233H137.041ZM110.488 39.8328C110.465 39.8328 110.443 39.8328 110.42 39.8328C110.42 43.6542 110.402 47.4781 110.422 51.2994C110.473 59.8548 117.079 66.4982 125.616 66.5339C133.262 66.567 140.909 66.5721 148.553 66.5339C156.824 66.4905 163.53 59.7503 163.55 51.4881C163.57 43.8428 163.573 36.1976 163.55 28.5548C163.524 20.1932 156.844 13.4912 148.484 13.4606C140.797 13.43 133.107 13.4351 125.419 13.4606C117.579 13.4861 110.998 19.5253 110.532 27.3541C110.284 31.5018 110.488 35.675 110.488 39.8354V39.8328Z" fill="#003227"/>
<path d="M136.857 61.9531C133.204 61.9531 129.55 61.9608 125.899 61.9531C119.642 61.9378 115.078 57.4817 115.034 51.236C114.983 43.7182 114.976 36.2004 115.034 28.6826C115.085 22.5006 119.642 18.0674 125.835 18.0547C133.354 18.0394 140.873 18.0394 148.392 18.0547C154.266 18.0674 158.92 22.6816 158.945 28.5577C158.978 36.2029 158.978 43.8482 158.943 51.4935C158.917 57.2319 154.323 61.8588 148.581 61.9404C144.675 61.9964 140.766 61.9506 136.857 61.9531ZM136.995 26.3653C129.486 26.3806 123.374 32.4912 123.372 39.9835C123.372 47.5523 129.466 53.5864 137.107 53.5788C144.537 53.5686 150.613 47.4554 150.6 40.0013C150.59 32.4886 144.465 26.3526 136.995 26.3679V26.3653ZM154.445 25.598C154.425 23.7447 152.936 22.3145 151.069 22.3579C149.279 22.3986 147.877 23.8466 147.877 25.6592C147.877 27.4819 149.389 28.9273 151.258 28.8891C153.053 28.8534 154.465 27.3978 154.445 25.598Z" fill="#003227"/>
<path d="M136.954 48.9823C131.977 48.9568 127.933 44.9162 127.964 39.9935C127.992 35.0072 132.005 30.9946 136.952 31.0074C142.02 31.0201 146.023 35.0225 145.998 40.0547C145.972 45.0054 141.918 49.0077 136.954 48.9823Z" fill="#003227"/>
</svg>
