<svg width="186" height="124" viewBox="0 0 186 124" fill="none" xmlns="http://www.w3.org/2000/svg">
<g clip-path="url(#clip0_105_270)">
<path d="M131.987 17.6331C131.975 7.49214 124.476 0.0227775 114.328 0.00493262C107.233 -0.00781373 100.137 0.00493262 93.041 0.00493262C85.9452 0.00493262 78.8494 0.00238335 71.7537 0.0100312C61.4351 0.017679 54.0129 7.44115 54.0078 17.7759C54.0002 31.9218 53.9976 46.0677 54.0104 60.2136C54.0206 70.5305 61.4606 77.9794 71.7741 77.9896C85.9656 78.0049 100.157 78.0024 114.346 77.9896C124.451 77.9794 131.975 70.4489 131.987 60.3258C132.005 46.0957 132.008 31.8632 131.987 17.6331ZM116.026 34.2518C116.026 34.2518 112.824 34.1193 110.445 33.487C107.131 32.5999 105.007 31.2386 105.007 31.2386C105.007 31.2386 103.533 30.2648 103.421 30.1959V48.9127C103.421 49.9528 103.145 52.5556 102.319 54.725C101.595 56.5809 100.56 58.2991 99.2597 59.8083C99.2597 59.8083 97.2225 62.332 93.6453 64.0273C90.4199 65.5569 87.5796 65.5212 86.7305 65.5569C86.7305 65.5569 81.8326 65.7532 77.414 62.7527L77.391 62.7297V62.7527C75.8969 61.71 74.566 60.4532 73.439 59.0231C72.0418 57.2411 71.1825 55.1252 70.9607 54.5058V54.4828C70.6088 53.43 69.8694 50.8833 69.9816 48.4258C70.1576 44.0946 71.6109 41.428 71.9959 40.7627C73.0081 38.9425 74.3314 37.3109 75.902 35.9445C79.5302 32.9033 84.2675 31.5165 88.964 32.1232L88.9538 41.4127C88.1889 41.1629 87.3883 41.038 86.5852 41.038C82.3349 41.038 78.8877 44.505 78.8877 48.7852C78.8877 53.0654 82.3323 56.5324 86.5852 56.5324C87.9085 56.5324 89.2114 56.1908 90.3613 55.5357C92.6024 54.261 94.0634 51.9565 94.2597 49.3868V49.3664C94.2648 49.341 94.2648 49.3129 94.2648 49.2874C94.2674 49.2262 94.2725 49.1727 94.2725 49.1141C94.2929 48.6526 94.2929 48.1836 94.2929 47.7094V12.4377H103.418C103.403 12.4377 103.309 13.3121 103.538 14.6632H103.528C103.803 16.2922 104.553 18.6171 106.554 20.9089C107.355 21.7757 108.258 22.5405 109.242 23.1905C109.581 23.4098 109.93 23.6137 110.287 23.7998C112.62 24.9623 114.899 25.3166 116.021 25.1943V34.2518H116.026Z" fill="#003227"/>
</g>
<path d="M27.4695 121.85C25.4862 121.85 23.6862 121.425 22.0695 120.575C20.4695 119.742 19.1945 118.517 18.2445 116.9C17.3112 115.283 16.8445 113.358 16.8445 111.125C16.8445 108.992 17.3779 107.133 18.4445 105.55C19.5112 103.95 20.8695 102.733 22.5195 101.9C24.1695 101.067 25.8445 100.65 27.5445 100.65C29.5445 100.65 31.2945 101.033 32.7945 101.8C34.3112 102.55 35.4779 103.608 36.2945 104.975C37.1112 106.325 37.5195 107.875 37.5195 109.625C37.5195 110.942 37.3029 112.117 36.8695 113.15C36.4529 114.183 35.8529 114.992 35.0695 115.575C34.3029 116.158 33.4112 116.45 32.3945 116.45C31.7945 116.45 31.2612 116.3 30.7945 116C30.3445 115.7 30.0362 115.317 29.8695 114.85C29.8029 114.7 29.7112 114.625 29.5945 114.625C29.4945 114.625 29.3945 114.692 29.2945 114.825C28.9112 115.358 28.4779 115.767 27.9945 116.05C27.5112 116.317 26.8445 116.45 25.9945 116.45C25.2612 116.45 24.5695 116.25 23.9195 115.85C23.2695 115.45 22.7445 114.858 22.3445 114.075C21.9445 113.292 21.7445 112.35 21.7445 111.25C21.7445 110.133 21.9612 109.167 22.3945 108.35C22.8279 107.533 23.4195 106.908 24.1695 106.475C24.9195 106.042 25.7529 105.825 26.6695 105.825C27.6862 105.825 28.5695 106.183 29.3195 106.9C29.4695 107.05 29.6279 107.125 29.7945 107.125C29.9279 107.125 30.0529 107.067 30.1695 106.95L30.6695 106.475C30.9029 106.242 31.1779 106.125 31.4945 106.125C31.7779 106.125 32.0195 106.225 32.2195 106.425C32.4195 106.608 32.5112 106.867 32.4945 107.2L32.1945 112.65C32.1612 113.433 32.3529 113.825 32.7695 113.825C33.0529 113.825 33.3279 113.65 33.5945 113.3C33.8779 112.933 34.1029 112.45 34.2695 111.85C34.4529 111.25 34.5445 110.6 34.5445 109.9C34.5445 108.633 34.2695 107.517 33.7195 106.55C33.1695 105.583 32.3779 104.842 31.3445 104.325C30.3279 103.792 29.1362 103.525 27.7695 103.525C26.4195 103.525 25.1695 103.833 24.0195 104.45C22.8695 105.05 21.9445 105.925 21.2445 107.075C20.5612 108.225 20.2195 109.575 20.2195 111.125C20.2195 112.708 20.5445 114.075 21.1945 115.225C21.8612 116.358 22.7529 117.225 23.8695 117.825C25.0029 118.425 26.2362 118.725 27.5695 118.725C28.1862 118.725 28.7362 118.667 29.2195 118.55C29.7029 118.417 30.2612 118.208 30.8945 117.925C31.0279 117.875 31.1529 117.85 31.2695 117.85C31.6195 117.85 31.9279 118.033 32.1945 118.4C32.4612 118.75 32.5945 119.133 32.5945 119.55C32.5945 120.033 32.3945 120.408 31.9945 120.675C31.4612 121.042 30.7862 121.325 29.9695 121.525C29.1695 121.742 28.3362 121.85 27.4695 121.85ZM27.1945 113.825C27.6445 113.825 28.0279 113.6 28.3445 113.15C28.6612 112.683 28.8195 112.1 28.8195 111.4C28.8195 110.55 28.6695 109.85 28.3695 109.3C28.0862 108.75 27.6695 108.475 27.1195 108.475C26.6195 108.475 26.2029 108.692 25.8695 109.125C25.5529 109.558 25.3945 110.15 25.3945 110.9C25.3945 111.7 25.5445 112.392 25.8445 112.975C26.1612 113.542 26.6112 113.825 27.1945 113.825ZM47.5148 119.375C46.0315 119.375 44.6315 119.042 43.3148 118.375C41.9982 117.692 40.9315 116.675 40.1148 115.325C39.3148 113.975 38.9148 112.333 38.9148 110.4C38.9148 108.517 39.3148 106.875 40.1148 105.475C40.9315 104.075 42.0232 103.008 43.3898 102.275C44.7732 101.525 46.2898 101.15 47.9398 101.15C48.4065 101.15 48.8065 101.175 49.1398 101.225C49.4732 101.275 49.8148 101.358 50.1648 101.475C50.7482 101.675 51.1732 101.775 51.4398 101.775C51.6732 101.775 51.9148 101.7 52.1648 101.55C52.4148 101.4 52.6648 101.325 52.9148 101.325C53.2315 101.325 53.5065 101.433 53.7398 101.65C53.9732 101.85 54.1148 102.125 54.1648 102.475L54.5398 105.45C54.6065 105.95 54.4982 106.333 54.2148 106.6C53.9315 106.867 53.5732 107 53.1398 107C52.8565 107 52.5815 106.942 52.3148 106.825C52.0482 106.692 51.8398 106.508 51.6898 106.275C50.7398 104.858 49.5148 104.15 48.0148 104.15C47.1482 104.15 46.3482 104.383 45.6148 104.85C44.8815 105.3 44.2982 105.942 43.8648 106.775C43.4315 107.592 43.2148 108.517 43.2148 109.55C43.2148 110.85 43.4398 111.992 43.8898 112.975C44.3565 113.958 44.9732 114.725 45.7398 115.275C46.5232 115.808 47.3732 116.075 48.2898 116.075C49.8565 116.075 50.6398 115.433 50.6398 114.15V113.25C50.6398 112.867 50.4482 112.675 50.0648 112.675H49.7648C49.2648 112.675 48.8732 112.542 48.5898 112.275C48.3232 112.008 48.1898 111.65 48.1898 111.2C48.1898 110.75 48.3232 110.392 48.5898 110.125C48.8732 109.858 49.2648 109.725 49.7648 109.725H53.4648C53.8648 109.725 54.1815 109.825 54.4148 110.025C54.6482 110.208 54.7648 110.467 54.7648 110.8C54.7648 110.95 54.7398 111.117 54.6898 111.3C54.5565 111.75 54.4898 112.425 54.4898 113.325C54.4898 113.875 54.5482 114.533 54.6648 115.3C54.6815 115.417 54.6898 115.567 54.6898 115.75C54.6898 116.117 54.6232 116.425 54.4898 116.675C54.3565 116.908 54.1565 117.125 53.8898 117.325C53.0232 118.025 52.0815 118.542 51.0648 118.875C50.0482 119.208 48.8648 119.375 47.5148 119.375ZM57.2482 119C56.8816 119 56.5982 118.917 56.3982 118.75C56.2149 118.583 56.1232 118.358 56.1232 118.075C56.1232 117.925 56.1482 117.767 56.1982 117.6C56.3149 117.2 56.3982 116.833 56.4482 116.5C56.4982 116.167 56.5232 115.75 56.5232 115.25V109.325C56.5232 108.792 56.4149 108.275 56.1982 107.775C56.1482 107.642 56.1232 107.508 56.1232 107.375C56.1232 107.125 56.1982 106.9 56.3482 106.7C56.5149 106.5 56.7232 106.375 56.9732 106.325L58.9232 105.95C59.0566 105.917 59.2316 105.9 59.4482 105.9C60.1649 105.9 60.5232 106.275 60.5232 107.025V107.35C60.5232 107.433 60.5399 107.508 60.5732 107.575C60.6066 107.642 60.6566 107.675 60.7232 107.675C60.8066 107.675 60.9066 107.608 61.0232 107.475C61.4732 106.925 61.8899 106.525 62.2732 106.275C62.6566 106.025 63.1149 105.9 63.6482 105.9C64.3149 105.9 64.8232 106.15 65.1732 106.65C65.5399 107.15 65.7232 107.75 65.7232 108.45C65.7232 109.15 65.5399 109.767 65.1732 110.3C64.8232 110.817 64.3482 111.075 63.7482 111.075C63.3982 111.075 63.1149 110.992 62.8982 110.825C62.6982 110.658 62.4982 110.417 62.2982 110.1C62.1649 109.9 62.0399 109.75 61.9232 109.65C61.8232 109.55 61.6982 109.5 61.5482 109.5C61.2316 109.5 60.9816 109.708 60.7982 110.125C60.6149 110.542 60.5232 111.092 60.5232 111.775V115.25C60.5232 115.75 60.5482 116.167 60.5982 116.5C60.6482 116.833 60.7316 117.2 60.8482 117.6C60.8982 117.767 60.9232 117.925 60.9232 118.075C60.9232 118.358 60.8232 118.583 60.6232 118.75C60.4399 118.917 60.1649 119 59.7982 119H57.2482ZM71.1951 119.35C69.9451 119.35 68.9701 118.933 68.2701 118.1C67.5701 117.267 67.2201 116.108 67.2201 114.625V110C67.2201 109.483 67.1868 109.058 67.1201 108.725C67.0535 108.375 66.9451 108.017 66.7951 107.65C66.7118 107.433 66.6701 107.25 66.6701 107.1C66.6701 106.833 66.7701 106.625 66.9701 106.475C67.1701 106.325 67.4368 106.25 67.7701 106.25H69.9951C70.4285 106.25 70.7368 106.367 70.9201 106.6C71.1201 106.817 71.2201 107.167 71.2201 107.65V114C71.2201 114.683 71.3951 115.233 71.7451 115.65C72.1118 116.067 72.5868 116.275 73.1701 116.275C73.7535 116.275 74.2201 116.067 74.5701 115.65C74.9368 115.233 75.1201 114.683 75.1201 114V110C75.1201 109.5 75.0785 109.083 74.9951 108.75C74.9285 108.4 74.8035 108.033 74.6201 107.65C74.5368 107.45 74.4951 107.283 74.4951 107.15C74.4951 106.883 74.6035 106.667 74.8201 106.5C75.0368 106.333 75.3201 106.25 75.6701 106.25H77.8951C78.3285 106.25 78.6368 106.367 78.8201 106.6C79.0201 106.817 79.1201 107.167 79.1201 107.65V115.925C79.1201 116.458 79.2285 116.975 79.4451 117.475C79.4951 117.592 79.5201 117.725 79.5201 117.875C79.5201 118.125 79.4368 118.35 79.2701 118.55C79.1201 118.75 78.9201 118.875 78.6701 118.925L76.7201 119.3C76.5868 119.333 76.4118 119.35 76.1951 119.35C75.4785 119.35 75.1201 118.975 75.1201 118.225V117.9C75.1201 117.817 75.1035 117.742 75.0701 117.675C75.0368 117.608 74.9868 117.575 74.9201 117.575C74.8035 117.575 74.7035 117.642 74.6201 117.775C74.2868 118.242 73.8035 118.625 73.1701 118.925C72.5368 119.208 71.8785 119.35 71.1951 119.35ZM81.7605 124C81.3939 124 81.1105 123.917 80.9105 123.75C80.7272 123.583 80.6355 123.358 80.6355 123.075C80.6355 122.942 80.6605 122.783 80.7105 122.6C80.8272 122.2 80.9105 121.833 80.9605 121.5C81.0105 121.167 81.0355 120.75 81.0355 120.25V109.325C81.0355 108.792 80.9272 108.275 80.7105 107.775C80.6439 107.642 80.6105 107.483 80.6105 107.3C80.6105 107.067 80.6855 106.858 80.8355 106.675C80.9855 106.492 81.2022 106.375 81.4855 106.325L83.4355 105.95C83.5689 105.917 83.7439 105.9 83.9605 105.9C84.6772 105.9 85.0355 106.275 85.0355 107.025V107.2C85.0355 107.317 85.0522 107.408 85.0855 107.475C85.1355 107.525 85.1939 107.55 85.2605 107.55C85.3605 107.55 85.4605 107.492 85.5605 107.375C85.9439 106.925 86.4105 106.567 86.9605 106.3C87.5105 106.033 88.0939 105.9 88.7105 105.9C89.7272 105.9 90.6105 106.175 91.3605 106.725C92.1272 107.258 92.7189 108.033 93.1355 109.05C93.5522 110.05 93.7605 111.233 93.7605 112.6C93.7605 114.033 93.5105 115.258 93.0105 116.275C92.5272 117.292 91.8605 118.058 91.0105 118.575C90.1772 119.092 89.2272 119.35 88.1605 119.35C87.0439 119.35 86.1605 118.983 85.5105 118.25C85.4272 118.15 85.3522 118.1 85.2855 118.1C85.2189 118.1 85.1605 118.133 85.1105 118.2C85.0605 118.267 85.0355 118.342 85.0355 118.425V120.25C85.0355 120.75 85.0605 121.167 85.1105 121.5C85.1605 121.833 85.2439 122.2 85.3605 122.6C85.4105 122.783 85.4355 122.942 85.4355 123.075C85.4355 123.358 85.3355 123.583 85.1355 123.75C84.9522 123.917 84.6772 124 84.3105 124H81.7605ZM87.5855 116.45C88.1855 116.45 88.6772 116.133 89.0605 115.5C89.4439 114.867 89.6355 113.992 89.6355 112.875C89.6355 111.692 89.4189 110.717 88.9855 109.95C88.5689 109.167 87.9939 108.775 87.2605 108.775C86.6439 108.775 86.1355 109.083 85.7355 109.7C85.3355 110.3 85.1355 111.125 85.1355 112.175C85.1355 113.442 85.3522 114.475 85.7855 115.275C86.2189 116.058 86.8189 116.45 87.5855 116.45ZM101.392 119.35C100.192 119.35 99.1005 119.075 98.1172 118.525C97.1505 117.975 96.3839 117.192 95.8172 116.175C95.2505 115.142 94.9672 113.95 94.9672 112.6C94.9672 111.25 95.2505 110.067 95.8172 109.05C96.4005 108.033 97.1755 107.258 98.1422 106.725C99.1255 106.175 100.209 105.9 101.392 105.9C102.592 105.9 103.676 106.175 104.642 106.725C105.626 107.258 106.401 108.033 106.967 109.05C107.534 110.067 107.817 111.25 107.817 112.6C107.817 113.95 107.526 115.142 106.942 116.175C106.376 117.192 105.601 117.975 104.617 118.525C103.651 119.075 102.576 119.35 101.392 119.35ZM101.592 116.325C102.259 116.325 102.792 116.067 103.192 115.55C103.592 115.017 103.792 114.267 103.792 113.3C103.792 112.017 103.559 110.967 103.092 110.15C102.626 109.317 101.984 108.9 101.167 108.9C100.517 108.9 99.9922 109.158 99.5922 109.675C99.1922 110.192 98.9922 110.933 98.9922 111.9C98.9922 113.183 99.2172 114.242 99.6672 115.075C100.134 115.908 100.776 116.325 101.592 116.325ZM121.88 119.175C121.38 119.175 120.947 119.05 120.58 118.8C120.214 118.55 119.847 118.167 119.48 117.65L113.755 109.575C113.672 109.442 113.564 109.375 113.43 109.375C113.33 109.375 113.247 109.417 113.18 109.5C113.114 109.567 113.08 109.658 113.08 109.775V114.125C113.08 114.708 113.13 115.208 113.23 115.625C113.347 116.025 113.522 116.433 113.755 116.85C113.922 117.15 114.005 117.425 114.005 117.675C114.005 118.058 113.872 118.375 113.605 118.625C113.339 118.875 112.972 119 112.505 119H110.455C109.989 119 109.622 118.875 109.355 118.625C109.089 118.375 108.955 118.058 108.955 117.675C108.955 117.392 109.039 117.117 109.205 116.85C109.439 116.483 109.605 116.092 109.705 115.675C109.822 115.242 109.88 114.725 109.88 114.125V106.375C109.88 105.775 109.822 105.267 109.705 104.85C109.605 104.417 109.439 104.017 109.205 103.65C109.039 103.383 108.955 103.108 108.955 102.825C108.955 102.442 109.089 102.125 109.355 101.875C109.622 101.625 109.989 101.5 110.455 101.5H112.455C113.072 101.5 113.522 101.6 113.805 101.8C114.105 102 114.464 102.4 114.88 103L119.905 110.25C120.005 110.4 120.122 110.475 120.255 110.475C120.339 110.475 120.414 110.433 120.48 110.35C120.547 110.267 120.58 110.167 120.58 110.05V106.375C120.58 105.775 120.522 105.267 120.405 104.85C120.305 104.417 120.139 104.017 119.905 103.65C119.739 103.383 119.655 103.108 119.655 102.825C119.655 102.442 119.789 102.125 120.055 101.875C120.322 101.625 120.689 101.5 121.155 101.5H123.205C123.672 101.5 124.039 101.625 124.305 101.875C124.572 102.125 124.705 102.442 124.705 102.825C124.705 103.108 124.622 103.383 124.455 103.65C124.222 104.017 124.047 104.417 123.93 104.85C123.83 105.267 123.78 105.775 123.78 106.375V117.325C123.78 117.842 123.597 118.283 123.23 118.65C122.864 119 122.414 119.175 121.88 119.175ZM128.201 104.625C127.334 104.625 126.668 104.433 126.201 104.05C125.734 103.65 125.501 103.142 125.501 102.525C125.501 101.925 125.734 101.425 126.201 101.025C126.668 100.625 127.334 100.425 128.201 100.425C129.068 100.425 129.734 100.625 130.201 101.025C130.668 101.425 130.901 101.925 130.901 102.525C130.901 103.142 130.668 103.65 130.201 104.05C129.734 104.433 129.068 104.625 128.201 104.625ZM126.926 119C126.559 119 126.276 118.917 126.076 118.75C125.893 118.583 125.801 118.358 125.801 118.075C125.801 117.925 125.826 117.767 125.876 117.6C125.993 117.2 126.076 116.833 126.126 116.5C126.176 116.167 126.201 115.75 126.201 115.25V109.325C126.201 108.792 126.093 108.275 125.876 107.775C125.826 107.642 125.801 107.508 125.801 107.375C125.801 107.125 125.876 106.9 126.026 106.7C126.193 106.5 126.401 106.375 126.651 106.325L128.601 105.95C128.734 105.917 128.909 105.9 129.126 105.9C129.843 105.9 130.201 106.275 130.201 107.025V115.25C130.201 115.767 130.226 116.2 130.276 116.55C130.326 116.883 130.401 117.233 130.501 117.6C130.551 117.767 130.576 117.933 130.576 118.1C130.576 118.7 130.209 119 129.476 119H126.926ZM137.834 119.35C136.701 119.35 135.668 119.083 134.734 118.55C133.818 118 133.093 117.225 132.559 116.225C132.026 115.225 131.759 114.075 131.759 112.775C131.759 111.358 132.043 110.133 132.609 109.1C133.176 108.05 133.943 107.258 134.909 106.725C135.893 106.175 136.976 105.9 138.159 105.9C139.076 105.9 139.876 106.058 140.559 106.375C141.259 106.692 141.793 107.117 142.159 107.65C142.543 108.167 142.734 108.725 142.734 109.325C142.734 109.975 142.543 110.475 142.159 110.825C141.776 111.158 141.293 111.325 140.709 111.325C140.193 111.325 139.776 111.158 139.459 110.825C139.143 110.475 138.918 110.067 138.784 109.6C138.568 108.867 138.176 108.5 137.609 108.5C137.043 108.5 136.576 108.783 136.209 109.35C135.843 109.917 135.659 110.642 135.659 111.525C135.659 112.758 135.993 113.742 136.659 114.475C137.326 115.208 138.184 115.575 139.234 115.575C140.184 115.575 141.026 115.267 141.759 114.65C141.943 114.483 142.159 114.4 142.409 114.4C142.676 114.4 142.901 114.5 143.084 114.7C143.268 114.883 143.359 115.133 143.359 115.45C143.359 115.767 143.251 116.117 143.034 116.5C142.501 117.4 141.793 118.1 140.909 118.6C140.043 119.1 139.018 119.35 137.834 119.35ZM144.223 119C143.939 119 143.723 118.925 143.573 118.775C143.423 118.608 143.348 118.408 143.348 118.175C143.348 117.858 143.473 117.6 143.723 117.4C144.023 117.167 144.281 116.942 144.498 116.725C144.714 116.492 144.956 116.192 145.223 115.825L147.273 112.875C147.339 112.792 147.373 112.692 147.373 112.575C147.373 112.425 147.314 112.283 147.198 112.15L145.923 110.525C145.556 110.058 145.106 109.558 144.573 109.025C144.239 108.692 143.973 108.4 143.773 108.15C143.523 107.817 143.398 107.5 143.398 107.2C143.398 106.917 143.506 106.692 143.723 106.525C143.956 106.342 144.273 106.25 144.673 106.25H148.423C148.806 106.25 149.098 106.333 149.298 106.5C149.514 106.667 149.623 106.875 149.623 107.125C149.623 107.342 149.564 107.542 149.448 107.725C149.381 107.842 149.348 107.992 149.348 108.175C149.348 108.592 149.564 109.075 149.998 109.625L150.398 110.15C150.464 110.25 150.548 110.3 150.648 110.3C150.764 110.3 150.881 110.217 150.998 110.05L151.448 109.425C151.731 109.025 151.873 108.633 151.873 108.25C151.873 108.05 151.839 107.858 151.773 107.675C151.706 107.492 151.673 107.308 151.673 107.125C151.673 106.842 151.756 106.625 151.923 106.475C152.106 106.325 152.364 106.25 152.698 106.25H155.648C155.931 106.25 156.148 106.333 156.298 106.5C156.448 106.65 156.523 106.842 156.523 107.075C156.523 107.392 156.398 107.65 156.148 107.85C155.931 108.033 155.714 108.25 155.498 108.5C155.281 108.75 155.031 109.058 154.748 109.425L152.648 112.2C152.564 112.317 152.523 112.425 152.523 112.525C152.523 112.608 152.564 112.708 152.648 112.825L154.148 114.725C154.864 115.642 155.573 116.433 156.273 117.1C156.589 117.4 156.748 117.717 156.748 118.05C156.748 118.317 156.639 118.542 156.423 118.725C156.223 118.908 155.956 119 155.623 119H151.573C151.223 119 150.956 118.917 150.773 118.75C150.589 118.567 150.498 118.333 150.498 118.05C150.498 117.883 150.531 117.708 150.598 117.525C150.648 117.392 150.673 117.258 150.673 117.125C150.673 116.875 150.614 116.608 150.498 116.325C150.381 116.025 150.223 115.758 150.023 115.525L149.623 115.025C149.556 114.925 149.456 114.875 149.323 114.875C149.189 114.875 149.081 114.942 148.998 115.075L148.573 115.75C148.306 116.167 148.173 116.575 148.173 116.975C148.173 117.142 148.206 117.342 148.273 117.575C148.339 117.758 148.373 117.942 148.373 118.125C148.373 118.408 148.281 118.625 148.098 118.775C147.931 118.925 147.681 119 147.348 119H144.223ZM161.539 119.35C160.306 119.35 159.323 118.992 158.589 118.275C157.856 117.558 157.489 116.65 157.489 115.55C157.489 114.317 157.914 113.35 158.764 112.65C159.614 111.95 160.781 111.6 162.264 111.6C162.798 111.6 163.381 111.65 164.014 111.75H164.114C164.348 111.75 164.464 111.6 164.464 111.3V110.25C164.464 109.567 164.348 109.1 164.114 108.85C163.898 108.583 163.556 108.45 163.089 108.45C162.789 108.45 162.514 108.575 162.264 108.825C162.031 109.058 161.848 109.367 161.714 109.75C161.548 110.267 161.314 110.65 161.014 110.9C160.714 111.133 160.298 111.25 159.764 111.25C159.164 111.25 158.689 111.058 158.339 110.675C157.989 110.292 157.814 109.8 157.814 109.2C157.814 108.583 158.039 108.025 158.489 107.525C158.939 107.025 159.556 106.633 160.339 106.35C161.139 106.05 162.039 105.9 163.039 105.9C164.856 105.9 166.214 106.308 167.114 107.125C168.014 107.925 168.464 109.05 168.464 110.5V113.85C168.464 114.517 168.523 115.067 168.639 115.5C168.756 115.933 168.973 116.383 169.289 116.85C169.439 117.05 169.514 117.25 169.514 117.45C169.514 117.65 169.448 117.833 169.314 118C169.181 118.15 168.998 118.267 168.764 118.35L167.314 118.95C167.081 119.05 166.856 119.133 166.639 119.2C166.423 119.267 166.231 119.3 166.064 119.3C165.714 119.3 165.398 118.9 165.114 118.1C165.048 117.9 164.948 117.8 164.814 117.8C164.731 117.8 164.623 117.867 164.489 118C163.739 118.9 162.756 119.35 161.539 119.35ZM162.764 116.45C163.248 116.45 163.648 116.275 163.964 115.925C164.298 115.558 164.464 115.117 164.464 114.6C164.464 114.35 164.331 114.142 164.064 113.975C163.814 113.808 163.514 113.725 163.164 113.725C162.631 113.725 162.214 113.858 161.914 114.125C161.631 114.375 161.489 114.725 161.489 115.175C161.489 115.525 161.598 115.825 161.814 116.075C162.048 116.325 162.364 116.45 162.764 116.45Z" fill="#003227"/>
<defs>
<clipPath id="clip0_105_270">
<rect width="78" height="78" fill="white" transform="translate(54)"/>
</clipPath>
</defs>
</svg>
